M48
;DRILL file {KiCad 4.0.2+dfsg1-stable} date Fri 01 Mar 2019 22:17:24 CET
;FORMAT={-:-/ absolute / metric / decimal}
FMAT,2
METRIC,TZ
T1C0.400
T2C0.650
T3C0.910
%
G90
G05
M71
T1
X126.973Y-64.95
X129.212Y-96.326
X129.338Y-65.944
X129.338Y-95.198
X130.163Y-99.558
X131.47Y-89.772
X131.666Y-91.427
X134.722Y-85.543
X136.662Y-75.022
X137.073Y-88.469
X142.006Y-128.788
X142.204Y-81.374
X143.51Y-128.249
X144.336Y-85.995
X144.78Y-127.454
X146.167Y-128.088
X147.211Y-123.795
X148.59Y-122.861
X150.317Y-127.391
X151.553Y-128.049
X152.681Y-79.22
X153.017Y-128.854
X154.285Y-127.694
X155.417Y-80.127
X155.557Y-128.854
X156.824Y-101.986
X157.494Y-66.638
X160.102Y-127.419
X160.437Y-99.17
X160.585Y-128.563
X162.352Y-84.885
X162.734Y-128.786
X164.571Y-97.031
X165.701Y-76.751
X166.462Y-90.994
X166.99Y-75.981
X167.098Y-106.322
X167.64Y-128.798
X167.827Y-90.042
X168.103Y-127.363
X168.907Y-92.43
X169.174Y-90.124
X169.972Y-90.812
X170.378Y-80.148
X170.935Y-81.874
X172.359Y-75.981
X173.858Y-76.751
X174.065Y-82.731
X174.957Y-104.518
X176.371Y-80.639
X176.512Y-99.317
X178.432Y-89.783
X179.001Y-79.43
X179.083Y-100.055
X181.498Y-96.959
X182.754Y-93.804
X186.243Y-82.915
X186.893Y-81.224
T2
X143.51Y-82.55
X143.51Y-83.82
X144.78Y-82.55
X144.78Y-83.82
X146.05Y-82.55
X146.05Y-83.82
X147.32Y-82.55
X147.32Y-83.82
X148.59Y-82.55
X148.59Y-83.82
X149.86Y-82.55
X149.86Y-83.82
X151.13Y-82.55
X151.13Y-83.82
X152.4Y-82.55
X152.4Y-83.82
X153.67Y-82.55
X153.67Y-83.82
X154.94Y-82.55
X154.94Y-83.82
X156.21Y-82.55
X156.21Y-83.82
X157.48Y-82.55
X157.48Y-83.82
X158.75Y-82.55
X158.75Y-83.82
X160.02Y-82.55
X160.02Y-83.82
X161.29Y-82.55
X161.29Y-83.82
X162.56Y-82.55
X162.56Y-83.82
X163.83Y-82.55
X163.83Y-83.82
X165.1Y-82.55
X165.1Y-83.82
X166.37Y-82.55
X166.37Y-83.82
X167.64Y-82.55
X167.64Y-83.82
X168.91Y-82.55
X168.91Y-83.82
X170.18Y-82.55
X170.18Y-83.82
T3
X132.08Y-68.58
X132.08Y-71.12
X132.08Y-92.71
X132.08Y-95.25
X134.62Y-68.58
X134.62Y-71.12
X134.62Y-92.71
X134.62Y-95.25
X137.16Y-68.58
X137.16Y-71.12
X137.16Y-92.71
X137.16Y-95.25
X139.7Y-68.58
X139.7Y-71.12
X139.7Y-92.71
X139.7Y-95.25
X142.24Y-68.58
X142.24Y-71.12
X142.24Y-92.71
X142.24Y-95.25
X144.78Y-68.58
X144.78Y-71.12
X144.78Y-92.71
X144.78Y-95.25
X147.32Y-68.58
X147.32Y-71.12
X147.32Y-92.71
X147.32Y-95.25
X149.86Y-68.58
X149.86Y-71.12
X149.86Y-92.71
X149.86Y-95.25
X152.4Y-68.58
X152.4Y-71.12
X152.4Y-92.71
X152.4Y-95.25
X154.94Y-68.58
X154.94Y-71.12
X154.94Y-92.71
X154.94Y-95.25
X157.48Y-68.58
X157.48Y-71.12
X157.48Y-92.71
X157.48Y-95.25
X160.02Y-68.58
X160.02Y-71.12
X160.02Y-92.71
X160.02Y-95.25
X162.56Y-68.58
X162.56Y-71.12
X162.56Y-92.71
X162.56Y-95.25
X165.1Y-68.58
X165.1Y-71.12
X165.1Y-92.71
X165.1Y-95.25
X167.64Y-68.58
X167.64Y-71.12
X167.64Y-92.71
X167.64Y-95.25
X170.18Y-68.58
X170.18Y-71.12
X170.18Y-92.71
X170.18Y-95.25
X172.72Y-68.58
X172.72Y-71.12
X172.72Y-92.71
X172.72Y-95.25
X175.26Y-68.58
X175.26Y-71.12
X175.26Y-92.71
X175.26Y-95.25
X177.8Y-68.58
X177.8Y-71.12
X177.8Y-92.71
X177.8Y-95.25
X180.34Y-68.58
X180.34Y-71.12
X180.34Y-92.71
X180.34Y-95.25
T0
M30
