M48
;DRILL file {KiCad 4.0.2+dfsg1-stable} date Sat 02 Mar 2019 16:31:22 CET
;FORMAT={-:-/ absolute / metric / decimal}
FMAT,2
METRIC,TZ
T1C0.400
T2C0.800
T3C0.910
%
G90
G05
M71
T1
X127.632Y-130.519
X128.987Y-124.846
X129.267Y-117.698
X130.419Y-76.613
X130.458Y-115.925
X133.088Y-117.535
X134.488Y-117.434
X138.015Y-119.102
X140.832Y-94.007
X142.941Y-93.395
X143.272Y-74.961
X146.32Y-92.729
X148.362Y-92.035
X150.86Y-103.47
X151.4Y-90.932
X152.86Y-102.161
X159.257Y-104.611
X162.366Y-93.381
X163.Y-102.303
X163.602Y-66.843
X165.825Y-93.963
X166.317Y-88.366
X167.226Y-127.565
X168.203Y-129.866
X168.7Y-129.101
X169.259Y-119.352
X169.519Y-65.423
X170.201Y-61.898
X172.871Y-86.72
X173.688Y-99.908
X173.69Y-98.617
X174.45Y-97.505
X174.464Y-99.192
X174.509Y-115.959
X174.623Y-55.933
X175.151Y-98.04
X175.409Y-52.268
X175.808Y-91.372
X175.821Y-111.546
X177.729Y-70.115
X180.364Y-83.115
T2
X129.Y-96.
X129.Y-98.
X131.Y-96.
X131.Y-98.
X133.Y-96.
X133.Y-98.
X135.Y-96.
X135.Y-98.
X137.Y-96.
X137.Y-98.
X139.Y-96.
X139.Y-98.
X141.Y-96.
X141.Y-98.
X143.Y-96.
X143.Y-98.
X145.Y-96.
X145.Y-98.
X147.Y-96.
X147.Y-98.
X149.Y-96.
X149.Y-98.
X151.Y-96.
X151.Y-98.
X153.Y-96.
X153.Y-98.
X155.Y-96.
X155.Y-98.
X157.Y-96.
X157.Y-98.
X159.Y-96.
X159.Y-98.
X161.Y-96.
X161.Y-98.
X163.Y-96.
X163.Y-98.
X165.Y-96.
X165.Y-98.
X167.Y-96.
X167.Y-98.
X169.Y-96.
X169.Y-98.
X171.Y-96.
X171.Y-98.
T3
X126.Y-51.46
X126.Y-54.
X126.Y-70.46
X126.Y-73.
X128.54Y-51.46
X128.54Y-54.
X128.54Y-70.46
X128.54Y-73.
X131.08Y-51.46
X131.08Y-54.
X131.08Y-70.46
X131.08Y-73.
X133.62Y-51.46
X133.62Y-54.
X133.62Y-70.46
X133.62Y-73.
X136.16Y-51.46
X136.16Y-54.
X136.16Y-70.46
X136.16Y-73.
X138.7Y-51.46
X138.7Y-54.
X138.7Y-70.46
X138.7Y-73.
X141.24Y-51.46
X141.24Y-54.
X141.24Y-70.46
X141.24Y-73.
X143.78Y-51.46
X143.78Y-54.
X143.78Y-70.46
X143.78Y-73.
X146.32Y-51.46
X146.32Y-54.
X146.32Y-70.46
X146.32Y-73.
X148.86Y-51.46
X148.86Y-54.
X148.86Y-70.46
X148.86Y-73.
X151.4Y-51.46
X151.4Y-54.
X151.4Y-70.46
X151.4Y-73.
X153.94Y-51.46
X153.94Y-54.
X153.94Y-70.46
X153.94Y-73.
X156.48Y-51.46
X156.48Y-54.
X156.48Y-70.46
X156.48Y-73.
X159.02Y-51.46
X159.02Y-54.
X159.02Y-70.46
X159.02Y-73.
X161.56Y-51.46
X161.56Y-54.
X161.56Y-70.46
X161.56Y-73.
X164.1Y-51.46
X164.1Y-54.
X164.1Y-70.46
X164.1Y-73.
X166.64Y-51.46
X166.64Y-54.
X166.64Y-70.46
X166.64Y-73.
X169.18Y-51.46
X169.18Y-54.
X169.18Y-70.46
X169.18Y-73.
X171.72Y-51.46
X171.72Y-54.
X171.72Y-70.46
X171.72Y-73.
X174.26Y-51.46
X174.26Y-54.
X174.26Y-70.46
X174.26Y-73.
T0
M30
