G04 #@! TF.FileFunction,Legend,Bot*
%FSLAX46Y46*%
G04 Gerber Fmt 4.6, Leading zero omitted, Abs format (unit mm)*
G04 Created by KiCad (PCBNEW 4.0.2+dfsg1-stable) date Fri 01 Mar 2019 18:56:52 CET*
%MOMM*%
G01*
G04 APERTURE LIST*
%ADD10C,0.100000*%
%ADD11C,0.300000*%
%ADD12C,0.010000*%
G04 APERTURE END LIST*
D10*
D11*
X192448571Y-68422857D02*
X191448571Y-68422857D01*
X190948571Y-68422857D02*
X191020000Y-68351428D01*
X191091429Y-68422857D01*
X191020000Y-68494285D01*
X190948571Y-68422857D01*
X191091429Y-68422857D01*
X191448571Y-69137143D02*
X192448571Y-69137143D01*
X191591429Y-69137143D02*
X191520000Y-69208571D01*
X191448571Y-69351429D01*
X191448571Y-69565714D01*
X191520000Y-69708571D01*
X191662857Y-69780000D01*
X192448571Y-69780000D01*
X192448571Y-71637143D02*
X191448571Y-71637143D01*
X191591429Y-71637143D02*
X191520000Y-71708571D01*
X191448571Y-71851429D01*
X191448571Y-72065714D01*
X191520000Y-72208571D01*
X191662857Y-72280000D01*
X192448571Y-72280000D01*
X191662857Y-72280000D02*
X191520000Y-72351429D01*
X191448571Y-72494286D01*
X191448571Y-72708571D01*
X191520000Y-72851429D01*
X191662857Y-72922857D01*
X192448571Y-72922857D01*
X192377143Y-74208571D02*
X192448571Y-74065714D01*
X192448571Y-73780000D01*
X192377143Y-73637143D01*
X192234286Y-73565714D01*
X191662857Y-73565714D01*
X191520000Y-73637143D01*
X191448571Y-73780000D01*
X191448571Y-74065714D01*
X191520000Y-74208571D01*
X191662857Y-74280000D01*
X191805714Y-74280000D01*
X191948571Y-73565714D01*
X192448571Y-74922857D02*
X191448571Y-74922857D01*
X191591429Y-74922857D02*
X191520000Y-74994285D01*
X191448571Y-75137143D01*
X191448571Y-75351428D01*
X191520000Y-75494285D01*
X191662857Y-75565714D01*
X192448571Y-75565714D01*
X191662857Y-75565714D02*
X191520000Y-75637143D01*
X191448571Y-75780000D01*
X191448571Y-75994285D01*
X191520000Y-76137143D01*
X191662857Y-76208571D01*
X192448571Y-76208571D01*
X192448571Y-77137143D02*
X192377143Y-76994285D01*
X192305714Y-76922857D01*
X192162857Y-76851428D01*
X191734286Y-76851428D01*
X191591429Y-76922857D01*
X191520000Y-76994285D01*
X191448571Y-77137143D01*
X191448571Y-77351428D01*
X191520000Y-77494285D01*
X191591429Y-77565714D01*
X191734286Y-77637143D01*
X192162857Y-77637143D01*
X192305714Y-77565714D01*
X192377143Y-77494285D01*
X192448571Y-77351428D01*
X192448571Y-77137143D01*
X192448571Y-78280000D02*
X191448571Y-78280000D01*
X191734286Y-78280000D02*
X191591429Y-78351428D01*
X191520000Y-78422857D01*
X191448571Y-78565714D01*
X191448571Y-78708571D01*
X192448571Y-79208571D02*
X191448571Y-79208571D01*
X190948571Y-79208571D02*
X191020000Y-79137142D01*
X191091429Y-79208571D01*
X191020000Y-79279999D01*
X190948571Y-79208571D01*
X191091429Y-79208571D01*
X192448571Y-80565714D02*
X191662857Y-80565714D01*
X191520000Y-80494285D01*
X191448571Y-80351428D01*
X191448571Y-80065714D01*
X191520000Y-79922857D01*
X192377143Y-80565714D02*
X192448571Y-80422857D01*
X192448571Y-80065714D01*
X192377143Y-79922857D01*
X192234286Y-79851428D01*
X192091429Y-79851428D01*
X191948571Y-79922857D01*
X191877143Y-80065714D01*
X191877143Y-80422857D01*
X191805714Y-80565714D01*
X192448571Y-81280000D02*
X191448571Y-81280000D01*
X191591429Y-81280000D02*
X191520000Y-81351428D01*
X191448571Y-81494286D01*
X191448571Y-81708571D01*
X191520000Y-81851428D01*
X191662857Y-81922857D01*
X192448571Y-81922857D01*
X191662857Y-81922857D02*
X191520000Y-81994286D01*
X191448571Y-82137143D01*
X191448571Y-82351428D01*
X191520000Y-82494286D01*
X191662857Y-82565714D01*
X192448571Y-82565714D01*
X192020000Y-84351428D02*
X192020000Y-85065714D01*
X192448571Y-84208571D02*
X190948571Y-84708571D01*
X192448571Y-85208571D01*
X192305714Y-85708571D02*
X192377143Y-85779999D01*
X192448571Y-85708571D01*
X192377143Y-85637142D01*
X192305714Y-85708571D01*
X192448571Y-85708571D01*
X192377143Y-86351428D02*
X192448571Y-86565714D01*
X192448571Y-86922857D01*
X192377143Y-87065714D01*
X192305714Y-87137143D01*
X192162857Y-87208571D01*
X192020000Y-87208571D01*
X191877143Y-87137143D01*
X191805714Y-87065714D01*
X191734286Y-86922857D01*
X191662857Y-86637143D01*
X191591429Y-86494285D01*
X191520000Y-86422857D01*
X191377143Y-86351428D01*
X191234286Y-86351428D01*
X191091429Y-86422857D01*
X191020000Y-86494285D01*
X190948571Y-86637143D01*
X190948571Y-86994285D01*
X191020000Y-87208571D01*
X192305714Y-87851428D02*
X192377143Y-87922856D01*
X192448571Y-87851428D01*
X192377143Y-87779999D01*
X192305714Y-87851428D01*
X192448571Y-87851428D01*
X191877143Y-88565714D02*
X191877143Y-89708571D01*
X191020000Y-91208571D02*
X190948571Y-91065714D01*
X190948571Y-90851428D01*
X191020000Y-90637143D01*
X191162857Y-90494285D01*
X191305714Y-90422857D01*
X191591429Y-90351428D01*
X191805714Y-90351428D01*
X192091429Y-90422857D01*
X192234286Y-90494285D01*
X192377143Y-90637143D01*
X192448571Y-90851428D01*
X192448571Y-90994285D01*
X192377143Y-91208571D01*
X192305714Y-91280000D01*
X191805714Y-91280000D01*
X191805714Y-90994285D01*
X192305714Y-91922857D02*
X192377143Y-91994285D01*
X192448571Y-91922857D01*
X192377143Y-91851428D01*
X192305714Y-91922857D01*
X192448571Y-91922857D01*
X192448571Y-92637143D02*
X190948571Y-92637143D01*
X190948571Y-92994286D01*
X191020000Y-93208571D01*
X191162857Y-93351429D01*
X191305714Y-93422857D01*
X191591429Y-93494286D01*
X191805714Y-93494286D01*
X192091429Y-93422857D01*
X192234286Y-93351429D01*
X192377143Y-93208571D01*
X192448571Y-92994286D01*
X192448571Y-92637143D01*
X192305714Y-94137143D02*
X192377143Y-94208571D01*
X192448571Y-94137143D01*
X192377143Y-94065714D01*
X192305714Y-94137143D01*
X192448571Y-94137143D01*
X140014286Y-75878571D02*
X140014286Y-77378571D01*
X140014286Y-75950000D02*
X140157143Y-75878571D01*
X140442857Y-75878571D01*
X140585714Y-75950000D01*
X140657143Y-76021429D01*
X140728572Y-76164286D01*
X140728572Y-76592857D01*
X140657143Y-76735714D01*
X140585714Y-76807143D01*
X140442857Y-76878571D01*
X140157143Y-76878571D01*
X140014286Y-76807143D01*
X141585715Y-76878571D02*
X141442857Y-76807143D01*
X141371429Y-76735714D01*
X141300000Y-76592857D01*
X141300000Y-76164286D01*
X141371429Y-76021429D01*
X141442857Y-75950000D01*
X141585715Y-75878571D01*
X141800000Y-75878571D01*
X141942857Y-75950000D01*
X142014286Y-76021429D01*
X142085715Y-76164286D01*
X142085715Y-76592857D01*
X142014286Y-76735714D01*
X141942857Y-76807143D01*
X141800000Y-76878571D01*
X141585715Y-76878571D01*
X142585715Y-75878571D02*
X142871429Y-76878571D01*
X143157143Y-76164286D01*
X143442858Y-76878571D01*
X143728572Y-75878571D01*
X144871429Y-76807143D02*
X144728572Y-76878571D01*
X144442858Y-76878571D01*
X144300001Y-76807143D01*
X144228572Y-76664286D01*
X144228572Y-76092857D01*
X144300001Y-75950000D01*
X144442858Y-75878571D01*
X144728572Y-75878571D01*
X144871429Y-75950000D01*
X144942858Y-76092857D01*
X144942858Y-76235714D01*
X144228572Y-76378571D01*
X145585715Y-76878571D02*
X145585715Y-75878571D01*
X145585715Y-76164286D02*
X145657143Y-76021429D01*
X145728572Y-75950000D01*
X145871429Y-75878571D01*
X146014286Y-75878571D01*
X147085714Y-76807143D02*
X146942857Y-76878571D01*
X146657143Y-76878571D01*
X146514286Y-76807143D01*
X146442857Y-76664286D01*
X146442857Y-76092857D01*
X146514286Y-75950000D01*
X146657143Y-75878571D01*
X146942857Y-75878571D01*
X147085714Y-75950000D01*
X147157143Y-76092857D01*
X147157143Y-76235714D01*
X146442857Y-76378571D01*
X148442857Y-76878571D02*
X148442857Y-75378571D01*
X148442857Y-76807143D02*
X148300000Y-76878571D01*
X148014286Y-76878571D01*
X147871428Y-76807143D01*
X147800000Y-76735714D01*
X147728571Y-76592857D01*
X147728571Y-76164286D01*
X147800000Y-76021429D01*
X147871428Y-75950000D01*
X148014286Y-75878571D01*
X148300000Y-75878571D01*
X148442857Y-75950000D01*
X150300000Y-76878571D02*
X150300000Y-75378571D01*
X150300000Y-75950000D02*
X150442857Y-75878571D01*
X150728571Y-75878571D01*
X150871428Y-75950000D01*
X150942857Y-76021429D01*
X151014286Y-76164286D01*
X151014286Y-76592857D01*
X150942857Y-76735714D01*
X150871428Y-76807143D01*
X150728571Y-76878571D01*
X150442857Y-76878571D01*
X150300000Y-76807143D01*
X151514286Y-75878571D02*
X151871429Y-76878571D01*
X152228571Y-75878571D02*
X151871429Y-76878571D01*
X151728571Y-77235714D01*
X151657143Y-77307143D01*
X151514286Y-77378571D01*
D12*
G36*
X153632597Y-121351226D02*
X153609020Y-121390833D01*
X153502445Y-121487774D01*
X153451278Y-121496667D01*
X153393433Y-121531090D01*
X153356822Y-121652169D01*
X153337461Y-121886613D01*
X153331367Y-122261133D01*
X153331333Y-122301000D01*
X153335466Y-122646633D01*
X153346576Y-122917866D01*
X153362726Y-123077927D01*
X153373666Y-123105333D01*
X153392856Y-123027175D01*
X153407507Y-122818702D01*
X153415310Y-122518921D01*
X153416000Y-122390467D01*
X153420473Y-122034113D01*
X153439774Y-121806791D01*
X153482723Y-121668311D01*
X153558142Y-121578478D01*
X153601392Y-121545748D01*
X153714227Y-121430527D01*
X153716800Y-121350447D01*
X153632597Y-121351226D01*
X153632597Y-121351226D01*
G37*
X153632597Y-121351226D02*
X153609020Y-121390833D01*
X153502445Y-121487774D01*
X153451278Y-121496667D01*
X153393433Y-121531090D01*
X153356822Y-121652169D01*
X153337461Y-121886613D01*
X153331367Y-122261133D01*
X153331333Y-122301000D01*
X153335466Y-122646633D01*
X153346576Y-122917866D01*
X153362726Y-123077927D01*
X153373666Y-123105333D01*
X153392856Y-123027175D01*
X153407507Y-122818702D01*
X153415310Y-122518921D01*
X153416000Y-122390467D01*
X153420473Y-122034113D01*
X153439774Y-121806791D01*
X153482723Y-121668311D01*
X153558142Y-121578478D01*
X153601392Y-121545748D01*
X153714227Y-121430527D01*
X153716800Y-121350447D01*
X153632597Y-121351226D01*
G36*
X145137817Y-113397855D02*
X145105915Y-113440112D01*
X145078835Y-113506984D01*
X145056099Y-113612012D01*
X145037229Y-113768740D01*
X145021748Y-113990707D01*
X145009176Y-114291456D01*
X144999037Y-114684529D01*
X144990851Y-115183467D01*
X144984141Y-115801811D01*
X144978430Y-116553104D01*
X144973238Y-117450887D01*
X144969725Y-118159433D01*
X144965760Y-119343391D01*
X144965933Y-120358544D01*
X144970250Y-121205370D01*
X144978717Y-121884349D01*
X144991342Y-122395958D01*
X145008130Y-122740676D01*
X145029088Y-122918980D01*
X145036203Y-122940117D01*
X145061998Y-122978722D01*
X145104137Y-123010797D01*
X145177296Y-123036944D01*
X145296155Y-123057770D01*
X145475392Y-123073878D01*
X145729686Y-123085873D01*
X146073714Y-123094359D01*
X146522155Y-123099941D01*
X147089688Y-123103223D01*
X147790990Y-123104809D01*
X148640741Y-123105305D01*
X149048278Y-123105333D01*
X150003151Y-123104442D01*
X150801336Y-123101538D01*
X151455471Y-123096273D01*
X151978193Y-123088300D01*
X152382139Y-123077274D01*
X152679948Y-123062845D01*
X152884256Y-123044669D01*
X153007702Y-123022397D01*
X153062922Y-122995683D01*
X153063425Y-122995091D01*
X153107223Y-122864663D01*
X153145865Y-122610727D01*
X153173178Y-122279103D01*
X153179626Y-122132629D01*
X153204333Y-121380410D01*
X153633654Y-121163372D01*
X153938091Y-120961571D01*
X154258072Y-120673698D01*
X154544638Y-120350868D01*
X154748833Y-120044194D01*
X154789105Y-119957005D01*
X154878536Y-119829303D01*
X154937272Y-119803333D01*
X155010054Y-119733640D01*
X155021991Y-119655167D01*
X155009689Y-119595003D01*
X154965990Y-119599592D01*
X154875970Y-119684592D01*
X154724705Y-119865660D01*
X154497273Y-120158453D01*
X154319981Y-120391714D01*
X154133155Y-120614905D01*
X153969463Y-120769631D01*
X153875481Y-120819333D01*
X153766687Y-120855584D01*
X153754666Y-120883332D01*
X153683395Y-120965163D01*
X153516908Y-121051311D01*
X153326198Y-121113703D01*
X153182258Y-121124270D01*
X153163980Y-121116890D01*
X153085167Y-121032687D01*
X153139414Y-120943025D01*
X153340160Y-120831150D01*
X153422775Y-120794289D01*
X153646081Y-120665701D01*
X153891049Y-120477557D01*
X154116779Y-120267849D01*
X154282373Y-120074572D01*
X154346929Y-119935790D01*
X154399879Y-119821187D01*
X154510390Y-119681790D01*
X154658168Y-119460145D01*
X154731235Y-119274167D01*
X154755628Y-119112442D01*
X154688165Y-119050656D01*
X154526843Y-119041333D01*
X154344177Y-119021865D01*
X154282953Y-118939460D01*
X154284831Y-118850833D01*
X154256387Y-118694700D01*
X154135666Y-118648166D01*
X153955418Y-118633719D01*
X153885900Y-118627000D01*
X153864764Y-118573267D01*
X153907066Y-118516400D01*
X154001929Y-118376971D01*
X153966537Y-118305402D01*
X153853478Y-118317177D01*
X153709383Y-118303154D01*
X153597778Y-118145835D01*
X153533765Y-118028996D01*
X153446785Y-117965800D01*
X153292242Y-117943494D01*
X153025543Y-117949323D01*
X152927467Y-117954119D01*
X152614078Y-117958239D01*
X152415138Y-117935902D01*
X152357666Y-117898333D01*
X152427867Y-117840852D01*
X152541805Y-117837041D01*
X152711048Y-117820705D01*
X152779636Y-117773541D01*
X152898359Y-117704550D01*
X153026406Y-117686667D01*
X153222094Y-117607307D01*
X153239340Y-117581758D01*
X152701945Y-117581758D01*
X152618722Y-117595316D01*
X152508908Y-117579749D01*
X152507998Y-117559667D01*
X152400000Y-117559667D01*
X152357666Y-117602000D01*
X152315333Y-117559667D01*
X152357666Y-117517333D01*
X152400000Y-117559667D01*
X152507998Y-117559667D01*
X152507597Y-117550847D01*
X152620914Y-117530636D01*
X152669875Y-117544163D01*
X152701945Y-117581758D01*
X153239340Y-117581758D01*
X153325324Y-117454378D01*
X153377882Y-117306153D01*
X152092137Y-117306153D01*
X152088032Y-117414886D01*
X152005018Y-117421105D01*
X151937949Y-117353850D01*
X151945800Y-117244955D01*
X151966414Y-117227336D01*
X152057241Y-117249103D01*
X152092137Y-117306153D01*
X153377882Y-117306153D01*
X153380532Y-117298680D01*
X153352523Y-117182671D01*
X153218560Y-117045403D01*
X153151612Y-116988711D01*
X152911894Y-116842570D01*
X152650233Y-116762237D01*
X152420357Y-116756806D01*
X152275996Y-116835371D01*
X152273000Y-116840000D01*
X152158788Y-116900510D01*
X151966559Y-116924667D01*
X151801204Y-116937550D01*
X151735915Y-117009412D01*
X151734721Y-117190073D01*
X151738722Y-117240220D01*
X151798471Y-117496622D01*
X151940639Y-117642276D01*
X151960374Y-117652624D01*
X152085127Y-117730579D01*
X152062357Y-117783053D01*
X152023874Y-117800080D01*
X151946636Y-117875652D01*
X151905216Y-118049763D01*
X151892058Y-118355942D01*
X151892000Y-118385401D01*
X151887522Y-118663824D01*
X151856920Y-118853447D01*
X151774442Y-119010582D01*
X151614336Y-119191544D01*
X151447500Y-119357417D01*
X151204968Y-119586627D01*
X151022290Y-119720492D01*
X150843685Y-119787372D01*
X150613375Y-119815628D01*
X150537333Y-119820192D01*
X150071666Y-119845667D01*
X150048453Y-121263833D01*
X150025239Y-122682000D01*
X152654000Y-122682000D01*
X152654000Y-121882663D01*
X152661465Y-121531574D01*
X152681507Y-121248428D01*
X152710593Y-121073014D01*
X152729073Y-121036929D01*
X152830587Y-121031832D01*
X152895792Y-121169624D01*
X152925915Y-121457300D01*
X152922181Y-121901852D01*
X152913451Y-122089333D01*
X152865666Y-122978333D01*
X145245666Y-122978333D01*
X145223161Y-120628833D01*
X145213214Y-119897789D01*
X145198801Y-119290163D01*
X145180370Y-118815966D01*
X145158374Y-118485212D01*
X145133264Y-118307911D01*
X145117327Y-118279333D01*
X145090087Y-118196283D01*
X145067799Y-117953473D01*
X145050833Y-117560416D01*
X145039554Y-117026624D01*
X145034332Y-116361608D01*
X145034000Y-116122908D01*
X145034774Y-115457999D01*
X145038145Y-114940094D01*
X145045683Y-114546865D01*
X145058960Y-114255988D01*
X145079546Y-114045136D01*
X145109013Y-113891982D01*
X145148932Y-113774199D01*
X145200874Y-113669462D01*
X145207482Y-113657613D01*
X145312500Y-113432076D01*
X145327095Y-113307736D01*
X145255989Y-113302191D01*
X145137817Y-113397855D01*
X145137817Y-113397855D01*
G37*
X145137817Y-113397855D02*
X145105915Y-113440112D01*
X145078835Y-113506984D01*
X145056099Y-113612012D01*
X145037229Y-113768740D01*
X145021748Y-113990707D01*
X145009176Y-114291456D01*
X144999037Y-114684529D01*
X144990851Y-115183467D01*
X144984141Y-115801811D01*
X144978430Y-116553104D01*
X144973238Y-117450887D01*
X144969725Y-118159433D01*
X144965760Y-119343391D01*
X144965933Y-120358544D01*
X144970250Y-121205370D01*
X144978717Y-121884349D01*
X144991342Y-122395958D01*
X145008130Y-122740676D01*
X145029088Y-122918980D01*
X145036203Y-122940117D01*
X145061998Y-122978722D01*
X145104137Y-123010797D01*
X145177296Y-123036944D01*
X145296155Y-123057770D01*
X145475392Y-123073878D01*
X145729686Y-123085873D01*
X146073714Y-123094359D01*
X146522155Y-123099941D01*
X147089688Y-123103223D01*
X147790990Y-123104809D01*
X148640741Y-123105305D01*
X149048278Y-123105333D01*
X150003151Y-123104442D01*
X150801336Y-123101538D01*
X151455471Y-123096273D01*
X151978193Y-123088300D01*
X152382139Y-123077274D01*
X152679948Y-123062845D01*
X152884256Y-123044669D01*
X153007702Y-123022397D01*
X153062922Y-122995683D01*
X153063425Y-122995091D01*
X153107223Y-122864663D01*
X153145865Y-122610727D01*
X153173178Y-122279103D01*
X153179626Y-122132629D01*
X153204333Y-121380410D01*
X153633654Y-121163372D01*
X153938091Y-120961571D01*
X154258072Y-120673698D01*
X154544638Y-120350868D01*
X154748833Y-120044194D01*
X154789105Y-119957005D01*
X154878536Y-119829303D01*
X154937272Y-119803333D01*
X155010054Y-119733640D01*
X155021991Y-119655167D01*
X155009689Y-119595003D01*
X154965990Y-119599592D01*
X154875970Y-119684592D01*
X154724705Y-119865660D01*
X154497273Y-120158453D01*
X154319981Y-120391714D01*
X154133155Y-120614905D01*
X153969463Y-120769631D01*
X153875481Y-120819333D01*
X153766687Y-120855584D01*
X153754666Y-120883332D01*
X153683395Y-120965163D01*
X153516908Y-121051311D01*
X153326198Y-121113703D01*
X153182258Y-121124270D01*
X153163980Y-121116890D01*
X153085167Y-121032687D01*
X153139414Y-120943025D01*
X153340160Y-120831150D01*
X153422775Y-120794289D01*
X153646081Y-120665701D01*
X153891049Y-120477557D01*
X154116779Y-120267849D01*
X154282373Y-120074572D01*
X154346929Y-119935790D01*
X154399879Y-119821187D01*
X154510390Y-119681790D01*
X154658168Y-119460145D01*
X154731235Y-119274167D01*
X154755628Y-119112442D01*
X154688165Y-119050656D01*
X154526843Y-119041333D01*
X154344177Y-119021865D01*
X154282953Y-118939460D01*
X154284831Y-118850833D01*
X154256387Y-118694700D01*
X154135666Y-118648166D01*
X153955418Y-118633719D01*
X153885900Y-118627000D01*
X153864764Y-118573267D01*
X153907066Y-118516400D01*
X154001929Y-118376971D01*
X153966537Y-118305402D01*
X153853478Y-118317177D01*
X153709383Y-118303154D01*
X153597778Y-118145835D01*
X153533765Y-118028996D01*
X153446785Y-117965800D01*
X153292242Y-117943494D01*
X153025543Y-117949323D01*
X152927467Y-117954119D01*
X152614078Y-117958239D01*
X152415138Y-117935902D01*
X152357666Y-117898333D01*
X152427867Y-117840852D01*
X152541805Y-117837041D01*
X152711048Y-117820705D01*
X152779636Y-117773541D01*
X152898359Y-117704550D01*
X153026406Y-117686667D01*
X153222094Y-117607307D01*
X153239340Y-117581758D01*
X152701945Y-117581758D01*
X152618722Y-117595316D01*
X152508908Y-117579749D01*
X152507998Y-117559667D01*
X152400000Y-117559667D01*
X152357666Y-117602000D01*
X152315333Y-117559667D01*
X152357666Y-117517333D01*
X152400000Y-117559667D01*
X152507998Y-117559667D01*
X152507597Y-117550847D01*
X152620914Y-117530636D01*
X152669875Y-117544163D01*
X152701945Y-117581758D01*
X153239340Y-117581758D01*
X153325324Y-117454378D01*
X153377882Y-117306153D01*
X152092137Y-117306153D01*
X152088032Y-117414886D01*
X152005018Y-117421105D01*
X151937949Y-117353850D01*
X151945800Y-117244955D01*
X151966414Y-117227336D01*
X152057241Y-117249103D01*
X152092137Y-117306153D01*
X153377882Y-117306153D01*
X153380532Y-117298680D01*
X153352523Y-117182671D01*
X153218560Y-117045403D01*
X153151612Y-116988711D01*
X152911894Y-116842570D01*
X152650233Y-116762237D01*
X152420357Y-116756806D01*
X152275996Y-116835371D01*
X152273000Y-116840000D01*
X152158788Y-116900510D01*
X151966559Y-116924667D01*
X151801204Y-116937550D01*
X151735915Y-117009412D01*
X151734721Y-117190073D01*
X151738722Y-117240220D01*
X151798471Y-117496622D01*
X151940639Y-117642276D01*
X151960374Y-117652624D01*
X152085127Y-117730579D01*
X152062357Y-117783053D01*
X152023874Y-117800080D01*
X151946636Y-117875652D01*
X151905216Y-118049763D01*
X151892058Y-118355942D01*
X151892000Y-118385401D01*
X151887522Y-118663824D01*
X151856920Y-118853447D01*
X151774442Y-119010582D01*
X151614336Y-119191544D01*
X151447500Y-119357417D01*
X151204968Y-119586627D01*
X151022290Y-119720492D01*
X150843685Y-119787372D01*
X150613375Y-119815628D01*
X150537333Y-119820192D01*
X150071666Y-119845667D01*
X150048453Y-121263833D01*
X150025239Y-122682000D01*
X152654000Y-122682000D01*
X152654000Y-121882663D01*
X152661465Y-121531574D01*
X152681507Y-121248428D01*
X152710593Y-121073014D01*
X152729073Y-121036929D01*
X152830587Y-121031832D01*
X152895792Y-121169624D01*
X152925915Y-121457300D01*
X152922181Y-121901852D01*
X152913451Y-122089333D01*
X152865666Y-122978333D01*
X145245666Y-122978333D01*
X145223161Y-120628833D01*
X145213214Y-119897789D01*
X145198801Y-119290163D01*
X145180370Y-118815966D01*
X145158374Y-118485212D01*
X145133264Y-118307911D01*
X145117327Y-118279333D01*
X145090087Y-118196283D01*
X145067799Y-117953473D01*
X145050833Y-117560416D01*
X145039554Y-117026624D01*
X145034332Y-116361608D01*
X145034000Y-116122908D01*
X145034774Y-115457999D01*
X145038145Y-114940094D01*
X145045683Y-114546865D01*
X145058960Y-114255988D01*
X145079546Y-114045136D01*
X145109013Y-113891982D01*
X145148932Y-113774199D01*
X145200874Y-113669462D01*
X145207482Y-113657613D01*
X145312500Y-113432076D01*
X145327095Y-113307736D01*
X145255989Y-113302191D01*
X145137817Y-113397855D01*
G36*
X151824329Y-109862561D02*
X151718612Y-110003035D01*
X151601347Y-110275823D01*
X151561591Y-110382740D01*
X151404016Y-110813846D01*
X151720057Y-111122452D01*
X151919869Y-111302894D01*
X152086161Y-111390401D01*
X152294710Y-111412670D01*
X152493216Y-111405029D01*
X152950333Y-111379000D01*
X152975528Y-110800476D01*
X152993588Y-110498400D01*
X153020202Y-110338070D01*
X153063948Y-110291898D01*
X153123695Y-110324010D01*
X153193617Y-110467006D01*
X153235451Y-110717255D01*
X153248175Y-111014854D01*
X153230762Y-111299899D01*
X153182190Y-111512488D01*
X153145067Y-111573733D01*
X153006618Y-111629152D01*
X152749659Y-111665410D01*
X152493533Y-111675333D01*
X152175655Y-111666018D01*
X151968292Y-111627065D01*
X151813133Y-111541961D01*
X151712834Y-111454246D01*
X151482069Y-111233160D01*
X151160661Y-111475413D01*
X150938570Y-111644767D01*
X150756867Y-111786653D01*
X150709460Y-111824955D01*
X150284327Y-112166189D01*
X149964601Y-112397412D01*
X149735054Y-112527445D01*
X149580460Y-112565112D01*
X149494418Y-112528951D01*
X149342363Y-112438277D01*
X149228623Y-112465057D01*
X149204493Y-112595154D01*
X149207548Y-112608002D01*
X149203341Y-112732005D01*
X149094269Y-112838853D01*
X148899923Y-112939677D01*
X148590407Y-113098788D01*
X148278056Y-113285061D01*
X148226407Y-113319341D01*
X148019390Y-113450570D01*
X147868861Y-113528591D01*
X147834607Y-113538000D01*
X147727477Y-113595745D01*
X147659440Y-113664068D01*
X147533320Y-113742489D01*
X147428257Y-113710995D01*
X147405245Y-113638836D01*
X147469199Y-113559386D01*
X147628862Y-113430228D01*
X147701578Y-113378919D01*
X147865861Y-113232076D01*
X147973124Y-113073735D01*
X148009976Y-112942416D01*
X147963031Y-112876637D01*
X147871194Y-112890954D01*
X147754191Y-112869735D01*
X147594917Y-112773332D01*
X147443920Y-112643588D01*
X147351747Y-112522347D01*
X147352340Y-112461438D01*
X147451472Y-112462101D01*
X147623457Y-112521588D01*
X147797905Y-112608420D01*
X147904421Y-112691120D01*
X147912666Y-112712001D01*
X147982513Y-112767579D01*
X148154914Y-112766424D01*
X148374165Y-112712028D01*
X148459016Y-112677743D01*
X148674666Y-112579486D01*
X148674666Y-111280743D01*
X148671930Y-110770099D01*
X148662416Y-110406943D01*
X148644169Y-110169499D01*
X148615233Y-110035990D01*
X148573654Y-109984641D01*
X148558033Y-109982000D01*
X148410056Y-110041744D01*
X148334703Y-110110562D01*
X148188265Y-110232228D01*
X147969942Y-110361135D01*
X147938207Y-110376643D01*
X147766461Y-110486860D01*
X147609369Y-110662571D01*
X147439140Y-110939482D01*
X147314871Y-111177535D01*
X147164177Y-111489522D01*
X147048913Y-111751523D01*
X146987079Y-111921635D01*
X146981333Y-111953947D01*
X146918821Y-112088368D01*
X146761170Y-112273256D01*
X146553212Y-112463776D01*
X146339777Y-112615090D01*
X146296863Y-112638500D01*
X146163076Y-112750707D01*
X145972911Y-112964874D01*
X145761481Y-113240469D01*
X145701037Y-113326333D01*
X145292479Y-113919000D01*
X145290239Y-115967170D01*
X145292975Y-116649577D01*
X145302487Y-117211949D01*
X145318316Y-117642525D01*
X145340000Y-117929546D01*
X145367077Y-118061249D01*
X145372666Y-118067667D01*
X145399636Y-118168620D01*
X145421900Y-118428471D01*
X145439081Y-118836839D01*
X145450803Y-119383344D01*
X145456689Y-120057604D01*
X145457333Y-120400997D01*
X145457333Y-122682000D01*
X149771597Y-122682000D01*
X149794632Y-121094500D01*
X149817666Y-119507000D01*
X150452344Y-119481703D01*
X150796211Y-119460482D01*
X151022487Y-119420414D01*
X151182867Y-119346686D01*
X151320178Y-119233030D01*
X151553333Y-119009652D01*
X151550333Y-117522659D01*
X151545482Y-116933462D01*
X151532562Y-116491507D01*
X151509972Y-116174829D01*
X151476106Y-115961458D01*
X151429362Y-115829430D01*
X151426333Y-115824000D01*
X151352278Y-115584002D01*
X151311112Y-115183758D01*
X151302333Y-114837034D01*
X151303243Y-114469615D01*
X151317024Y-114227851D01*
X151355092Y-114068066D01*
X151428863Y-113946587D01*
X151480420Y-113892489D01*
X147399911Y-113892489D01*
X147334644Y-113938813D01*
X147204306Y-114021665D01*
X147023662Y-114174946D01*
X146981333Y-114215333D01*
X146755948Y-114408552D01*
X146567192Y-114522676D01*
X146441839Y-114547905D01*
X146406662Y-114474440D01*
X146421941Y-114420075D01*
X146466770Y-114285107D01*
X146473333Y-114250742D01*
X146542457Y-114219249D01*
X146600333Y-114215333D01*
X146713122Y-114178092D01*
X146727333Y-114146589D01*
X146789246Y-114056579D01*
X146942721Y-113919709D01*
X146989611Y-113883934D01*
X147179976Y-113764462D01*
X147298353Y-113755584D01*
X147349445Y-113793928D01*
X147399911Y-113892489D01*
X151480420Y-113892489D01*
X151549752Y-113819741D01*
X151574500Y-113795768D01*
X151808870Y-113577874D01*
X152123151Y-113297168D01*
X152475487Y-112989827D01*
X152824024Y-112692028D01*
X153126908Y-112439948D01*
X153325002Y-112282727D01*
X153585333Y-112085787D01*
X153585333Y-111170631D01*
X153583702Y-110766553D01*
X153573892Y-110497115D01*
X153548527Y-110327626D01*
X153500232Y-110223394D01*
X153421631Y-110149730D01*
X153359277Y-110107357D01*
X153165442Y-110012814D01*
X153014675Y-110035085D01*
X152982202Y-110053553D01*
X152831009Y-110100147D01*
X152779928Y-110064933D01*
X152663909Y-110000292D01*
X152525987Y-109982000D01*
X152290977Y-109945964D01*
X152105354Y-109882696D01*
X151944556Y-109830436D01*
X151824329Y-109862561D01*
X151824329Y-109862561D01*
G37*
X151824329Y-109862561D02*
X151718612Y-110003035D01*
X151601347Y-110275823D01*
X151561591Y-110382740D01*
X151404016Y-110813846D01*
X151720057Y-111122452D01*
X151919869Y-111302894D01*
X152086161Y-111390401D01*
X152294710Y-111412670D01*
X152493216Y-111405029D01*
X152950333Y-111379000D01*
X152975528Y-110800476D01*
X152993588Y-110498400D01*
X153020202Y-110338070D01*
X153063948Y-110291898D01*
X153123695Y-110324010D01*
X153193617Y-110467006D01*
X153235451Y-110717255D01*
X153248175Y-111014854D01*
X153230762Y-111299899D01*
X153182190Y-111512488D01*
X153145067Y-111573733D01*
X153006618Y-111629152D01*
X152749659Y-111665410D01*
X152493533Y-111675333D01*
X152175655Y-111666018D01*
X151968292Y-111627065D01*
X151813133Y-111541961D01*
X151712834Y-111454246D01*
X151482069Y-111233160D01*
X151160661Y-111475413D01*
X150938570Y-111644767D01*
X150756867Y-111786653D01*
X150709460Y-111824955D01*
X150284327Y-112166189D01*
X149964601Y-112397412D01*
X149735054Y-112527445D01*
X149580460Y-112565112D01*
X149494418Y-112528951D01*
X149342363Y-112438277D01*
X149228623Y-112465057D01*
X149204493Y-112595154D01*
X149207548Y-112608002D01*
X149203341Y-112732005D01*
X149094269Y-112838853D01*
X148899923Y-112939677D01*
X148590407Y-113098788D01*
X148278056Y-113285061D01*
X148226407Y-113319341D01*
X148019390Y-113450570D01*
X147868861Y-113528591D01*
X147834607Y-113538000D01*
X147727477Y-113595745D01*
X147659440Y-113664068D01*
X147533320Y-113742489D01*
X147428257Y-113710995D01*
X147405245Y-113638836D01*
X147469199Y-113559386D01*
X147628862Y-113430228D01*
X147701578Y-113378919D01*
X147865861Y-113232076D01*
X147973124Y-113073735D01*
X148009976Y-112942416D01*
X147963031Y-112876637D01*
X147871194Y-112890954D01*
X147754191Y-112869735D01*
X147594917Y-112773332D01*
X147443920Y-112643588D01*
X147351747Y-112522347D01*
X147352340Y-112461438D01*
X147451472Y-112462101D01*
X147623457Y-112521588D01*
X147797905Y-112608420D01*
X147904421Y-112691120D01*
X147912666Y-112712001D01*
X147982513Y-112767579D01*
X148154914Y-112766424D01*
X148374165Y-112712028D01*
X148459016Y-112677743D01*
X148674666Y-112579486D01*
X148674666Y-111280743D01*
X148671930Y-110770099D01*
X148662416Y-110406943D01*
X148644169Y-110169499D01*
X148615233Y-110035990D01*
X148573654Y-109984641D01*
X148558033Y-109982000D01*
X148410056Y-110041744D01*
X148334703Y-110110562D01*
X148188265Y-110232228D01*
X147969942Y-110361135D01*
X147938207Y-110376643D01*
X147766461Y-110486860D01*
X147609369Y-110662571D01*
X147439140Y-110939482D01*
X147314871Y-111177535D01*
X147164177Y-111489522D01*
X147048913Y-111751523D01*
X146987079Y-111921635D01*
X146981333Y-111953947D01*
X146918821Y-112088368D01*
X146761170Y-112273256D01*
X146553212Y-112463776D01*
X146339777Y-112615090D01*
X146296863Y-112638500D01*
X146163076Y-112750707D01*
X145972911Y-112964874D01*
X145761481Y-113240469D01*
X145701037Y-113326333D01*
X145292479Y-113919000D01*
X145290239Y-115967170D01*
X145292975Y-116649577D01*
X145302487Y-117211949D01*
X145318316Y-117642525D01*
X145340000Y-117929546D01*
X145367077Y-118061249D01*
X145372666Y-118067667D01*
X145399636Y-118168620D01*
X145421900Y-118428471D01*
X145439081Y-118836839D01*
X145450803Y-119383344D01*
X145456689Y-120057604D01*
X145457333Y-120400997D01*
X145457333Y-122682000D01*
X149771597Y-122682000D01*
X149794632Y-121094500D01*
X149817666Y-119507000D01*
X150452344Y-119481703D01*
X150796211Y-119460482D01*
X151022487Y-119420414D01*
X151182867Y-119346686D01*
X151320178Y-119233030D01*
X151553333Y-119009652D01*
X151550333Y-117522659D01*
X151545482Y-116933462D01*
X151532562Y-116491507D01*
X151509972Y-116174829D01*
X151476106Y-115961458D01*
X151429362Y-115829430D01*
X151426333Y-115824000D01*
X151352278Y-115584002D01*
X151311112Y-115183758D01*
X151302333Y-114837034D01*
X151303243Y-114469615D01*
X151317024Y-114227851D01*
X151355092Y-114068066D01*
X151428863Y-113946587D01*
X151480420Y-113892489D01*
X147399911Y-113892489D01*
X147334644Y-113938813D01*
X147204306Y-114021665D01*
X147023662Y-114174946D01*
X146981333Y-114215333D01*
X146755948Y-114408552D01*
X146567192Y-114522676D01*
X146441839Y-114547905D01*
X146406662Y-114474440D01*
X146421941Y-114420075D01*
X146466770Y-114285107D01*
X146473333Y-114250742D01*
X146542457Y-114219249D01*
X146600333Y-114215333D01*
X146713122Y-114178092D01*
X146727333Y-114146589D01*
X146789246Y-114056579D01*
X146942721Y-113919709D01*
X146989611Y-113883934D01*
X147179976Y-113764462D01*
X147298353Y-113755584D01*
X147349445Y-113793928D01*
X147399911Y-113892489D01*
X151480420Y-113892489D01*
X151549752Y-113819741D01*
X151574500Y-113795768D01*
X151808870Y-113577874D01*
X152123151Y-113297168D01*
X152475487Y-112989827D01*
X152824024Y-112692028D01*
X153126908Y-112439948D01*
X153325002Y-112282727D01*
X153585333Y-112085787D01*
X153585333Y-111170631D01*
X153583702Y-110766553D01*
X153573892Y-110497115D01*
X153548527Y-110327626D01*
X153500232Y-110223394D01*
X153421631Y-110149730D01*
X153359277Y-110107357D01*
X153165442Y-110012814D01*
X153014675Y-110035085D01*
X152982202Y-110053553D01*
X152831009Y-110100147D01*
X152779928Y-110064933D01*
X152663909Y-110000292D01*
X152525987Y-109982000D01*
X152290977Y-109945964D01*
X152105354Y-109882696D01*
X151944556Y-109830436D01*
X151824329Y-109862561D01*
G36*
X153841793Y-121307096D02*
X153839333Y-121327333D01*
X153903762Y-121409540D01*
X153924000Y-121412000D01*
X154006206Y-121347571D01*
X154008666Y-121327333D01*
X153944237Y-121245127D01*
X153924000Y-121242667D01*
X153841793Y-121307096D01*
X153841793Y-121307096D01*
G37*
X153841793Y-121307096D02*
X153839333Y-121327333D01*
X153903762Y-121409540D01*
X153924000Y-121412000D01*
X154006206Y-121347571D01*
X154008666Y-121327333D01*
X153944237Y-121245127D01*
X153924000Y-121242667D01*
X153841793Y-121307096D01*
G36*
X154825254Y-120329778D02*
X154804776Y-120349795D01*
X154706023Y-120475111D01*
X154686000Y-120528122D01*
X154629498Y-120616282D01*
X154485908Y-120773140D01*
X154389666Y-120867150D01*
X154216452Y-121039631D01*
X154109731Y-121163466D01*
X154093333Y-121194648D01*
X154140266Y-121242606D01*
X154264175Y-121169328D01*
X154409572Y-121023694D01*
X154568198Y-120889319D01*
X154692167Y-120865909D01*
X154697820Y-120868972D01*
X154757087Y-120880248D01*
X154736510Y-120832563D01*
X154730907Y-120713620D01*
X154794329Y-120569997D01*
X154887718Y-120463585D01*
X154972016Y-120456274D01*
X154973236Y-120457458D01*
X154999267Y-120446624D01*
X154978585Y-120374428D01*
X154917353Y-120278908D01*
X154825254Y-120329778D01*
X154825254Y-120329778D01*
G37*
X154825254Y-120329778D02*
X154804776Y-120349795D01*
X154706023Y-120475111D01*
X154686000Y-120528122D01*
X154629498Y-120616282D01*
X154485908Y-120773140D01*
X154389666Y-120867150D01*
X154216452Y-121039631D01*
X154109731Y-121163466D01*
X154093333Y-121194648D01*
X154140266Y-121242606D01*
X154264175Y-121169328D01*
X154409572Y-121023694D01*
X154568198Y-120889319D01*
X154692167Y-120865909D01*
X154697820Y-120868972D01*
X154757087Y-120880248D01*
X154736510Y-120832563D01*
X154730907Y-120713620D01*
X154794329Y-120569997D01*
X154887718Y-120463585D01*
X154972016Y-120456274D01*
X154973236Y-120457458D01*
X154999267Y-120446624D01*
X154978585Y-120374428D01*
X154917353Y-120278908D01*
X154825254Y-120329778D01*
G36*
X155067000Y-119942049D02*
X154954962Y-120025155D01*
X154940000Y-120066392D01*
X154996744Y-120137776D01*
X155111824Y-120107466D01*
X155137555Y-120085555D01*
X155193996Y-119973008D01*
X155124806Y-119928302D01*
X155067000Y-119942049D01*
X155067000Y-119942049D01*
G37*
X155067000Y-119942049D02*
X154954962Y-120025155D01*
X154940000Y-120066392D01*
X154996744Y-120137776D01*
X155111824Y-120107466D01*
X155137555Y-120085555D01*
X155193996Y-119973008D01*
X155124806Y-119928302D01*
X155067000Y-119942049D01*
G36*
X155222222Y-119662222D02*
X155212089Y-119762702D01*
X155222222Y-119775111D01*
X155272556Y-119763489D01*
X155278666Y-119718667D01*
X155247688Y-119648976D01*
X155222222Y-119662222D01*
X155222222Y-119662222D01*
G37*
X155222222Y-119662222D02*
X155212089Y-119762702D01*
X155222222Y-119775111D01*
X155272556Y-119763489D01*
X155278666Y-119718667D01*
X155247688Y-119648976D01*
X155222222Y-119662222D01*
G36*
X155391555Y-119492889D02*
X155403178Y-119543223D01*
X155448000Y-119549333D01*
X155517690Y-119518355D01*
X155504444Y-119492889D01*
X155403965Y-119482756D01*
X155391555Y-119492889D01*
X155391555Y-119492889D01*
G37*
X155391555Y-119492889D02*
X155403178Y-119543223D01*
X155448000Y-119549333D01*
X155517690Y-119518355D01*
X155504444Y-119492889D01*
X155403965Y-119482756D01*
X155391555Y-119492889D01*
G36*
X156186407Y-118840894D02*
X156040170Y-118954037D01*
X155868725Y-119110860D01*
X155716013Y-119270185D01*
X155625975Y-119390834D01*
X155617333Y-119418137D01*
X155666065Y-119461940D01*
X155808160Y-119372563D01*
X156030110Y-119161478D01*
X156185441Y-118980604D01*
X156263989Y-118848820D01*
X156263497Y-118812608D01*
X156186407Y-118840894D01*
X156186407Y-118840894D01*
G37*
X156186407Y-118840894D02*
X156040170Y-118954037D01*
X155868725Y-119110860D01*
X155716013Y-119270185D01*
X155625975Y-119390834D01*
X155617333Y-119418137D01*
X155666065Y-119461940D01*
X155808160Y-119372563D01*
X156030110Y-119161478D01*
X156185441Y-118980604D01*
X156263989Y-118848820D01*
X156263497Y-118812608D01*
X156186407Y-118840894D01*
G36*
X154918833Y-116808071D02*
X154634682Y-117094611D01*
X154400947Y-117341015D01*
X154240990Y-117521883D01*
X154178172Y-117611815D01*
X154178000Y-117613569D01*
X154248122Y-117676904D01*
X154326166Y-117689359D01*
X154428004Y-117700334D01*
X154392438Y-117752874D01*
X154326166Y-117804526D01*
X154205785Y-117984331D01*
X154207223Y-118204660D01*
X154308726Y-118416251D01*
X154488543Y-118569842D01*
X154685370Y-118618000D01*
X154879070Y-118654809D01*
X155022635Y-118741969D01*
X155075272Y-118844581D01*
X155028778Y-118911792D01*
X154938608Y-119013625D01*
X154989427Y-119081805D01*
X155144058Y-119078011D01*
X155310686Y-119071116D01*
X155376892Y-119171656D01*
X155420050Y-119220551D01*
X155523294Y-119165491D01*
X155704974Y-118994320D01*
X155807833Y-118886219D01*
X156009950Y-118651468D01*
X156154352Y-118448459D01*
X156209996Y-118320871D01*
X156210000Y-118320297D01*
X156169848Y-118229884D01*
X156125333Y-118237000D01*
X156045185Y-118360400D01*
X156040666Y-118398208D01*
X155966699Y-118576027D01*
X155787377Y-118707025D01*
X155566571Y-118750447D01*
X155503762Y-118740805D01*
X155281802Y-118649104D01*
X155155073Y-118526970D01*
X155150192Y-118407558D01*
X155198853Y-118361001D01*
X155315581Y-118348523D01*
X155381180Y-118452120D01*
X155454754Y-118584306D01*
X155546093Y-118591262D01*
X155673776Y-118463443D01*
X155841060Y-118215833D01*
X155903163Y-118110000D01*
X155532666Y-118110000D01*
X155503780Y-118192465D01*
X155495330Y-118194667D01*
X155423044Y-118135338D01*
X155405666Y-118110000D01*
X155412379Y-118031981D01*
X155443003Y-118025333D01*
X155529221Y-118086794D01*
X155532666Y-118110000D01*
X155903163Y-118110000D01*
X156031385Y-117891492D01*
X155322655Y-117891492D01*
X155237773Y-117891400D01*
X155197519Y-117881452D01*
X155034691Y-117812378D01*
X154976017Y-117761113D01*
X154979473Y-117694846D01*
X155074702Y-117692665D01*
X155200915Y-117745181D01*
X155273138Y-117807005D01*
X155322655Y-117891492D01*
X156031385Y-117891492D01*
X156155147Y-117680586D01*
X156194390Y-117602000D01*
X154855333Y-117602000D01*
X154786757Y-117677114D01*
X154728333Y-117686667D01*
X154615661Y-117640949D01*
X154601333Y-117602000D01*
X154669910Y-117526885D01*
X154728333Y-117517333D01*
X154841005Y-117563051D01*
X154855333Y-117602000D01*
X156194390Y-117602000D01*
X156396360Y-117197549D01*
X156554476Y-116790491D01*
X156619273Y-116483184D01*
X156618466Y-116408044D01*
X156595261Y-116243244D01*
X156536800Y-116155222D01*
X156398979Y-116116249D01*
X156137691Y-116098595D01*
X156125333Y-116098002D01*
X155659666Y-116075671D01*
X154918833Y-116808071D01*
X154918833Y-116808071D01*
G37*
X154918833Y-116808071D02*
X154634682Y-117094611D01*
X154400947Y-117341015D01*
X154240990Y-117521883D01*
X154178172Y-117611815D01*
X154178000Y-117613569D01*
X154248122Y-117676904D01*
X154326166Y-117689359D01*
X154428004Y-117700334D01*
X154392438Y-117752874D01*
X154326166Y-117804526D01*
X154205785Y-117984331D01*
X154207223Y-118204660D01*
X154308726Y-118416251D01*
X154488543Y-118569842D01*
X154685370Y-118618000D01*
X154879070Y-118654809D01*
X155022635Y-118741969D01*
X155075272Y-118844581D01*
X155028778Y-118911792D01*
X154938608Y-119013625D01*
X154989427Y-119081805D01*
X155144058Y-119078011D01*
X155310686Y-119071116D01*
X155376892Y-119171656D01*
X155420050Y-119220551D01*
X155523294Y-119165491D01*
X155704974Y-118994320D01*
X155807833Y-118886219D01*
X156009950Y-118651468D01*
X156154352Y-118448459D01*
X156209996Y-118320871D01*
X156210000Y-118320297D01*
X156169848Y-118229884D01*
X156125333Y-118237000D01*
X156045185Y-118360400D01*
X156040666Y-118398208D01*
X155966699Y-118576027D01*
X155787377Y-118707025D01*
X155566571Y-118750447D01*
X155503762Y-118740805D01*
X155281802Y-118649104D01*
X155155073Y-118526970D01*
X155150192Y-118407558D01*
X155198853Y-118361001D01*
X155315581Y-118348523D01*
X155381180Y-118452120D01*
X155454754Y-118584306D01*
X155546093Y-118591262D01*
X155673776Y-118463443D01*
X155841060Y-118215833D01*
X155903163Y-118110000D01*
X155532666Y-118110000D01*
X155503780Y-118192465D01*
X155495330Y-118194667D01*
X155423044Y-118135338D01*
X155405666Y-118110000D01*
X155412379Y-118031981D01*
X155443003Y-118025333D01*
X155529221Y-118086794D01*
X155532666Y-118110000D01*
X155903163Y-118110000D01*
X156031385Y-117891492D01*
X155322655Y-117891492D01*
X155237773Y-117891400D01*
X155197519Y-117881452D01*
X155034691Y-117812378D01*
X154976017Y-117761113D01*
X154979473Y-117694846D01*
X155074702Y-117692665D01*
X155200915Y-117745181D01*
X155273138Y-117807005D01*
X155322655Y-117891492D01*
X156031385Y-117891492D01*
X156155147Y-117680586D01*
X156194390Y-117602000D01*
X154855333Y-117602000D01*
X154786757Y-117677114D01*
X154728333Y-117686667D01*
X154615661Y-117640949D01*
X154601333Y-117602000D01*
X154669910Y-117526885D01*
X154728333Y-117517333D01*
X154841005Y-117563051D01*
X154855333Y-117602000D01*
X156194390Y-117602000D01*
X156396360Y-117197549D01*
X156554476Y-116790491D01*
X156619273Y-116483184D01*
X156618466Y-116408044D01*
X156595261Y-116243244D01*
X156536800Y-116155222D01*
X156398979Y-116116249D01*
X156137691Y-116098595D01*
X156125333Y-116098002D01*
X155659666Y-116075671D01*
X154918833Y-116808071D01*
G36*
X156297127Y-118597762D02*
X156294666Y-118618000D01*
X156359096Y-118700206D01*
X156379333Y-118702667D01*
X156461540Y-118638237D01*
X156464000Y-118618000D01*
X156399571Y-118535793D01*
X156379333Y-118533333D01*
X156297127Y-118597762D01*
X156297127Y-118597762D01*
G37*
X156297127Y-118597762D02*
X156294666Y-118618000D01*
X156359096Y-118700206D01*
X156379333Y-118702667D01*
X156461540Y-118638237D01*
X156464000Y-118618000D01*
X156399571Y-118535793D01*
X156379333Y-118533333D01*
X156297127Y-118597762D01*
G36*
X156818731Y-116978450D02*
X156699969Y-117158988D01*
X156546229Y-117466815D01*
X156543357Y-117473141D01*
X156395341Y-117810906D01*
X156319236Y-118024607D01*
X156310797Y-118141425D01*
X156365783Y-118188540D01*
X156430725Y-118194667D01*
X156527144Y-118246278D01*
X156525011Y-118303524D01*
X156554618Y-118394473D01*
X156636736Y-118412381D01*
X156744244Y-118381917D01*
X156746828Y-118342148D01*
X156758054Y-118228183D01*
X156812545Y-118140431D01*
X156846788Y-118074722D01*
X156718000Y-118074722D01*
X156668646Y-118167440D01*
X156567096Y-118152656D01*
X156483403Y-118041208D01*
X156520252Y-117954842D01*
X156583944Y-117940667D01*
X156700576Y-118008836D01*
X156718000Y-118074722D01*
X156846788Y-118074722D01*
X156874366Y-118021805D01*
X156789682Y-117935207D01*
X156777500Y-117928266D01*
X156670708Y-117819013D01*
X156632605Y-117689245D01*
X156677782Y-117607155D01*
X156707701Y-117602000D01*
X156772635Y-117528217D01*
X156845563Y-117343505D01*
X156868032Y-117263333D01*
X156912474Y-117024347D01*
X156892803Y-116931478D01*
X156818731Y-116978450D01*
X156818731Y-116978450D01*
G37*
X156818731Y-116978450D02*
X156699969Y-117158988D01*
X156546229Y-117466815D01*
X156543357Y-117473141D01*
X156395341Y-117810906D01*
X156319236Y-118024607D01*
X156310797Y-118141425D01*
X156365783Y-118188540D01*
X156430725Y-118194667D01*
X156527144Y-118246278D01*
X156525011Y-118303524D01*
X156554618Y-118394473D01*
X156636736Y-118412381D01*
X156744244Y-118381917D01*
X156746828Y-118342148D01*
X156758054Y-118228183D01*
X156812545Y-118140431D01*
X156846788Y-118074722D01*
X156718000Y-118074722D01*
X156668646Y-118167440D01*
X156567096Y-118152656D01*
X156483403Y-118041208D01*
X156520252Y-117954842D01*
X156583944Y-117940667D01*
X156700576Y-118008836D01*
X156718000Y-118074722D01*
X156846788Y-118074722D01*
X156874366Y-118021805D01*
X156789682Y-117935207D01*
X156777500Y-117928266D01*
X156670708Y-117819013D01*
X156632605Y-117689245D01*
X156677782Y-117607155D01*
X156707701Y-117602000D01*
X156772635Y-117528217D01*
X156845563Y-117343505D01*
X156868032Y-117263333D01*
X156912474Y-117024347D01*
X156892803Y-116931478D01*
X156818731Y-116978450D01*
G36*
X156972041Y-117483857D02*
X156972000Y-117493344D01*
X156933302Y-117650957D01*
X156878049Y-117703872D01*
X156856289Y-117770314D01*
X156936635Y-117859094D01*
X157035754Y-117924754D01*
X157023297Y-117873458D01*
X157015675Y-117725094D01*
X157062723Y-117637036D01*
X157123579Y-117502864D01*
X157070012Y-117412145D01*
X156994268Y-117373147D01*
X156972041Y-117483857D01*
X156972041Y-117483857D01*
G37*
X156972041Y-117483857D02*
X156972000Y-117493344D01*
X156933302Y-117650957D01*
X156878049Y-117703872D01*
X156856289Y-117770314D01*
X156936635Y-117859094D01*
X157035754Y-117924754D01*
X157023297Y-117873458D01*
X157015675Y-117725094D01*
X157062723Y-117637036D01*
X157123579Y-117502864D01*
X157070012Y-117412145D01*
X156994268Y-117373147D01*
X156972041Y-117483857D01*
G36*
X153039417Y-116079934D02*
X152712940Y-116097757D01*
X152473159Y-116126197D01*
X152356613Y-116165469D01*
X152353427Y-116169527D01*
X152237828Y-116221358D01*
X152094430Y-116210247D01*
X151944373Y-116197444D01*
X151894893Y-116294917D01*
X151892000Y-116372720D01*
X151945186Y-116542388D01*
X152083780Y-116583777D01*
X152276332Y-116491159D01*
X152323766Y-116451369D01*
X152487258Y-116365621D01*
X152683738Y-116392670D01*
X152934035Y-116541010D01*
X153258979Y-116819137D01*
X153284541Y-116843196D01*
X153712333Y-117247709D01*
X154243443Y-116768688D01*
X154486270Y-116537674D01*
X154670276Y-116339744D01*
X154765662Y-116207837D01*
X154772610Y-116183833D01*
X154693312Y-116142497D01*
X154481467Y-116110480D01*
X154173614Y-116088000D01*
X153806295Y-116075271D01*
X153416049Y-116072510D01*
X153039417Y-116079934D01*
X153039417Y-116079934D01*
G37*
X153039417Y-116079934D02*
X152712940Y-116097757D01*
X152473159Y-116126197D01*
X152356613Y-116165469D01*
X152353427Y-116169527D01*
X152237828Y-116221358D01*
X152094430Y-116210247D01*
X151944373Y-116197444D01*
X151894893Y-116294917D01*
X151892000Y-116372720D01*
X151945186Y-116542388D01*
X152083780Y-116583777D01*
X152276332Y-116491159D01*
X152323766Y-116451369D01*
X152487258Y-116365621D01*
X152683738Y-116392670D01*
X152934035Y-116541010D01*
X153258979Y-116819137D01*
X153284541Y-116843196D01*
X153712333Y-117247709D01*
X154243443Y-116768688D01*
X154486270Y-116537674D01*
X154670276Y-116339744D01*
X154765662Y-116207837D01*
X154772610Y-116183833D01*
X154693312Y-116142497D01*
X154481467Y-116110480D01*
X154173614Y-116088000D01*
X153806295Y-116075271D01*
X153416049Y-116072510D01*
X153039417Y-116079934D01*
G36*
X163136283Y-103084000D02*
X163248749Y-103241983D01*
X163435490Y-103447883D01*
X163540194Y-103549666D01*
X163971282Y-103956576D01*
X164302195Y-104286531D01*
X164563475Y-104570219D01*
X164613775Y-104628451D01*
X164847217Y-104901900D01*
X164825442Y-110468783D01*
X164803666Y-116035667D01*
X156972000Y-116079691D01*
X156972000Y-116459845D01*
X156980433Y-116686859D01*
X157001763Y-116822784D01*
X157014333Y-116840000D01*
X157043159Y-116765853D01*
X157056521Y-116585294D01*
X157056636Y-116564833D01*
X157056605Y-116289667D01*
X160993636Y-116313271D01*
X164930666Y-116336875D01*
X164930666Y-104772112D01*
X163990050Y-103842223D01*
X163678490Y-103539248D01*
X163421371Y-103298974D01*
X163236384Y-103137113D01*
X163141221Y-103069374D01*
X163136283Y-103084000D01*
X163136283Y-103084000D01*
G37*
X163136283Y-103084000D02*
X163248749Y-103241983D01*
X163435490Y-103447883D01*
X163540194Y-103549666D01*
X163971282Y-103956576D01*
X164302195Y-104286531D01*
X164563475Y-104570219D01*
X164613775Y-104628451D01*
X164847217Y-104901900D01*
X164825442Y-110468783D01*
X164803666Y-116035667D01*
X156972000Y-116079691D01*
X156972000Y-116459845D01*
X156980433Y-116686859D01*
X157001763Y-116822784D01*
X157014333Y-116840000D01*
X157043159Y-116765853D01*
X157056521Y-116585294D01*
X157056636Y-116564833D01*
X157056605Y-116289667D01*
X160993636Y-116313271D01*
X164930666Y-116336875D01*
X164930666Y-104772112D01*
X163990050Y-103842223D01*
X163678490Y-103539248D01*
X163421371Y-103298974D01*
X163236384Y-103137113D01*
X163141221Y-103069374D01*
X163136283Y-103084000D01*
G36*
X160602287Y-116512954D02*
X159790602Y-116516275D01*
X159104027Y-116522596D01*
X158805767Y-116527327D01*
X158669592Y-116531754D01*
X158688252Y-116535788D01*
X158854500Y-116539340D01*
X159161085Y-116542321D01*
X159600760Y-116544639D01*
X160166276Y-116546207D01*
X160850384Y-116546935D01*
X161078333Y-116546976D01*
X161794767Y-116546508D01*
X162393211Y-116545177D01*
X162866643Y-116543072D01*
X163208043Y-116540283D01*
X163410389Y-116536898D01*
X163466660Y-116533007D01*
X163369833Y-116528700D01*
X163112888Y-116524064D01*
X162998694Y-116522564D01*
X162273039Y-116516098D01*
X161452001Y-116512895D01*
X160602287Y-116512954D01*
X160602287Y-116512954D01*
G37*
X160602287Y-116512954D02*
X159790602Y-116516275D01*
X159104027Y-116522596D01*
X158805767Y-116527327D01*
X158669592Y-116531754D01*
X158688252Y-116535788D01*
X158854500Y-116539340D01*
X159161085Y-116542321D01*
X159600760Y-116544639D01*
X160166276Y-116546207D01*
X160850384Y-116546935D01*
X161078333Y-116546976D01*
X161794767Y-116546508D01*
X162393211Y-116545177D01*
X162866643Y-116543072D01*
X163208043Y-116540283D01*
X163410389Y-116536898D01*
X163466660Y-116533007D01*
X163369833Y-116528700D01*
X163112888Y-116524064D01*
X162998694Y-116522564D01*
X162273039Y-116516098D01*
X161452001Y-116512895D01*
X160602287Y-116512954D01*
G36*
X153839333Y-112182271D02*
X153479500Y-112438731D01*
X153239012Y-112624764D01*
X152937755Y-112878081D01*
X152636136Y-113147686D01*
X152601307Y-113180095D01*
X152321516Y-113435628D01*
X152052762Y-113670633D01*
X151845853Y-113840875D01*
X151818140Y-113861939D01*
X151693934Y-113960191D01*
X151616292Y-114057077D01*
X151574276Y-114192992D01*
X151556946Y-114408333D01*
X151553363Y-114743495D01*
X151553333Y-114839839D01*
X151565069Y-115269285D01*
X151598825Y-115568891D01*
X151652424Y-115719744D01*
X151654933Y-115722400D01*
X151718383Y-115744027D01*
X151868524Y-115762658D01*
X152114581Y-115778462D01*
X152465781Y-115791605D01*
X152931351Y-115802256D01*
X153520518Y-115810583D01*
X154242507Y-115816752D01*
X155106546Y-115820933D01*
X156121861Y-115823293D01*
X157242933Y-115824000D01*
X162729333Y-115824000D01*
X162729333Y-114402717D01*
X161622515Y-114402717D01*
X161524559Y-114486974D01*
X161458472Y-114511940D01*
X161318569Y-114598046D01*
X161109440Y-114774244D01*
X160874199Y-115003924D01*
X160853524Y-115025645D01*
X160635315Y-115247372D01*
X160458628Y-115410429D01*
X160357244Y-115483939D01*
X160350610Y-115485333D01*
X160309948Y-115408568D01*
X160274820Y-115209802D01*
X160257058Y-114999323D01*
X160231922Y-114713304D01*
X160185174Y-114556910D01*
X160102751Y-114490599D01*
X160073500Y-114483189D01*
X159933610Y-114523061D01*
X159735960Y-114655240D01*
X159519417Y-114842546D01*
X159322849Y-115047797D01*
X159185122Y-115233814D01*
X159145105Y-115363414D01*
X159146995Y-115369485D01*
X159129206Y-115450129D01*
X158977325Y-115483115D01*
X158886058Y-115485333D01*
X158683012Y-115472228D01*
X158598130Y-115404781D01*
X158580680Y-115240797D01*
X158580666Y-115231333D01*
X158562173Y-115052910D01*
X158517623Y-114977350D01*
X158516892Y-114977333D01*
X158423885Y-115033588D01*
X158269000Y-115174144D01*
X158213381Y-115231333D01*
X157972405Y-115423147D01*
X157709224Y-115485012D01*
X157684490Y-115485333D01*
X157491355Y-115476662D01*
X157397144Y-115455411D01*
X157395333Y-115451642D01*
X157433719Y-115365163D01*
X157531736Y-115181520D01*
X157605980Y-115049475D01*
X157760345Y-114749207D01*
X157809739Y-114564351D01*
X157756469Y-114479305D01*
X157691666Y-114469333D01*
X157578995Y-114423616D01*
X157564666Y-114384667D01*
X157310666Y-114384667D01*
X157247495Y-114466886D01*
X157227721Y-114469333D01*
X157132959Y-114541372D01*
X157019070Y-114719566D01*
X156912675Y-114947036D01*
X156840392Y-115166899D01*
X156828738Y-115321885D01*
X156819909Y-115436489D01*
X156690615Y-115495560D01*
X156603016Y-115509435D01*
X156399342Y-115536849D01*
X156279274Y-115556272D01*
X156278497Y-115556450D01*
X156186854Y-115509789D01*
X156164144Y-115479634D01*
X156184337Y-115388517D01*
X156264981Y-115346905D01*
X156391160Y-115249985D01*
X156536728Y-115050782D01*
X156607795Y-114920201D01*
X156639486Y-114852322D01*
X156194231Y-114852322D01*
X156072282Y-115071261D01*
X156001507Y-115143685D01*
X155617909Y-115431098D01*
X155252958Y-115558209D01*
X154914514Y-115522331D01*
X154904591Y-115518608D01*
X154791602Y-115400754D01*
X154770666Y-115306941D01*
X154797795Y-115170836D01*
X154891059Y-115173308D01*
X155044952Y-115292025D01*
X155176255Y-115385478D01*
X155303087Y-115375594D01*
X155432619Y-115310521D01*
X155611367Y-115141328D01*
X155689024Y-114924065D01*
X155670188Y-114707290D01*
X155559457Y-114539558D01*
X155361429Y-114469424D01*
X155352966Y-114469333D01*
X155218046Y-114516784D01*
X155178770Y-114677172D01*
X155187680Y-114786833D01*
X155123740Y-114865619D01*
X154943711Y-114892667D01*
X154740922Y-114863299D01*
X154696459Y-114777633D01*
X154812205Y-114639327D01*
X154813000Y-114638667D01*
X154920591Y-114494519D01*
X154940000Y-114416633D01*
X154952061Y-114402717D01*
X154595181Y-114402717D01*
X154497226Y-114486974D01*
X154431139Y-114511940D01*
X154291235Y-114598046D01*
X154082106Y-114774244D01*
X153846865Y-115003924D01*
X153826190Y-115025645D01*
X153607350Y-115247473D01*
X153429225Y-115410555D01*
X153325932Y-115483967D01*
X153319052Y-115485333D01*
X153279504Y-115408742D01*
X153253213Y-115211071D01*
X153246666Y-115017009D01*
X153230411Y-114712329D01*
X153177087Y-114546423D01*
X153119666Y-114499951D01*
X152997915Y-114420969D01*
X153027781Y-114351190D01*
X153191712Y-114307197D01*
X153331333Y-114300000D01*
X153566818Y-114320971D01*
X153663853Y-114390488D01*
X153670000Y-114427000D01*
X153743601Y-114529143D01*
X153881666Y-114554000D01*
X154051905Y-114509839D01*
X154093333Y-114427000D01*
X154169061Y-114326174D01*
X154347333Y-114300000D01*
X154541339Y-114330583D01*
X154595181Y-114402717D01*
X154952061Y-114402717D01*
X155012415Y-114333081D01*
X155197103Y-114299124D01*
X155445231Y-114312220D01*
X155707965Y-114369828D01*
X155934833Y-114468405D01*
X156148674Y-114653993D01*
X156194231Y-114852322D01*
X156639486Y-114852322D01*
X156714049Y-114692617D01*
X156747332Y-114573360D01*
X156709795Y-114519000D01*
X156628962Y-114492722D01*
X156478863Y-114428884D01*
X156480761Y-114367039D01*
X156617657Y-114319867D01*
X156872555Y-114300046D01*
X156887333Y-114300000D01*
X157128821Y-114315229D01*
X157282098Y-114354168D01*
X157310666Y-114384667D01*
X157564666Y-114384667D01*
X157640813Y-114336369D01*
X157835509Y-114305714D01*
X157988000Y-114300000D01*
X158229569Y-114306835D01*
X158382837Y-114324310D01*
X158411333Y-114337971D01*
X158359636Y-114419031D01*
X158232804Y-114568314D01*
X158208919Y-114594351D01*
X158057439Y-114789913D01*
X157966673Y-114965684D01*
X157964484Y-114973446D01*
X157970535Y-115087266D01*
X158060730Y-115091301D01*
X158206451Y-115002094D01*
X158379080Y-114836186D01*
X158523493Y-114650321D01*
X158702342Y-114425089D01*
X158826460Y-114359536D01*
X158898028Y-114453861D01*
X158919333Y-114685997D01*
X158936433Y-114894513D01*
X159000332Y-114961314D01*
X159129928Y-114888250D01*
X159300333Y-114723333D01*
X159441400Y-114561276D01*
X159462986Y-114484897D01*
X159400840Y-114469333D01*
X159278352Y-114428089D01*
X159258000Y-114384667D01*
X159337666Y-114343579D01*
X159557097Y-114314436D01*
X159886935Y-114300649D01*
X159986725Y-114300000D01*
X160341390Y-114304257D01*
X160555041Y-114320538D01*
X160655866Y-114354106D01*
X160672049Y-114410227D01*
X160666715Y-114427000D01*
X160674343Y-114519438D01*
X160813294Y-114552865D01*
X160869324Y-114554000D01*
X161069017Y-114515801D01*
X161120666Y-114427000D01*
X161196395Y-114326174D01*
X161374666Y-114300000D01*
X161568672Y-114330583D01*
X161622515Y-114402717D01*
X162729333Y-114402717D01*
X162729333Y-113284000D01*
X160358666Y-113284000D01*
X160341116Y-113547598D01*
X160293388Y-113690904D01*
X160264130Y-113707333D01*
X160205284Y-113636217D01*
X160211331Y-113488993D01*
X160195749Y-113294077D01*
X160084335Y-113209781D01*
X159918281Y-113263887D01*
X159899459Y-113278639D01*
X159774278Y-113329064D01*
X159726207Y-113288111D01*
X159601927Y-113208228D01*
X159538753Y-113199333D01*
X159449548Y-113240881D01*
X159445453Y-113390694D01*
X159454967Y-113443338D01*
X159471485Y-113664738D01*
X159416235Y-113763085D01*
X159334297Y-113744494D01*
X159297504Y-113642114D01*
X159280771Y-113428687D01*
X159282607Y-113281160D01*
X159289045Y-113230277D01*
X158792693Y-113230277D01*
X158695464Y-113388968D01*
X158549133Y-113452037D01*
X158500453Y-113429199D01*
X158518081Y-113415008D01*
X158141435Y-113415008D01*
X158121049Y-113413016D01*
X158014813Y-113338830D01*
X157953618Y-113260124D01*
X157927435Y-113157000D01*
X157353000Y-113157000D01*
X157319532Y-113360809D01*
X157238411Y-113459605D01*
X157138560Y-113425525D01*
X157126846Y-113409700D01*
X155987407Y-113409700D01*
X155970027Y-113712865D01*
X155961090Y-113787767D01*
X155928298Y-113817054D01*
X155872714Y-113732682D01*
X155817422Y-113583994D01*
X155785504Y-113420331D01*
X155784830Y-113411000D01*
X155775768Y-113114667D01*
X155415249Y-113114667D01*
X155410429Y-113167015D01*
X155321000Y-113284000D01*
X155176922Y-113410570D01*
X155080246Y-113453333D01*
X155070670Y-113405718D01*
X155167601Y-113290482D01*
X155174495Y-113284000D01*
X155323389Y-113162170D01*
X155415249Y-113114667D01*
X155775768Y-113114667D01*
X155775364Y-113101478D01*
X155786394Y-113024487D01*
X155257908Y-113024487D01*
X155246327Y-113030000D01*
X155169061Y-112970396D01*
X155151666Y-112945333D01*
X155130092Y-112866179D01*
X155141673Y-112860667D01*
X155218938Y-112920270D01*
X155236333Y-112945333D01*
X155257908Y-113024487D01*
X155786394Y-113024487D01*
X155800072Y-112929022D01*
X155864799Y-112863751D01*
X155892500Y-112860604D01*
X155945205Y-112937085D01*
X155977987Y-113135612D01*
X155987407Y-113409700D01*
X157126846Y-113409700D01*
X157111783Y-113389351D01*
X157091623Y-113252853D01*
X157093656Y-113241667D01*
X156548666Y-113241667D01*
X156502949Y-113354338D01*
X156464000Y-113368667D01*
X156388885Y-113300090D01*
X156379333Y-113241667D01*
X156425051Y-113128995D01*
X156464000Y-113114667D01*
X156539114Y-113183243D01*
X156548666Y-113241667D01*
X157093656Y-113241667D01*
X157125082Y-113068771D01*
X157191219Y-112913333D01*
X157257037Y-112860667D01*
X157320882Y-112935266D01*
X157352263Y-113119863D01*
X157353000Y-113157000D01*
X157927435Y-113157000D01*
X157913459Y-113101957D01*
X157968736Y-113015397D01*
X158044387Y-112972209D01*
X158071317Y-113068958D01*
X158072666Y-113133011D01*
X158094248Y-113311063D01*
X158136166Y-113389833D01*
X158141435Y-113415008D01*
X158518081Y-113415008D01*
X158550964Y-113388537D01*
X158639067Y-113263422D01*
X158684234Y-113114667D01*
X158717587Y-112977126D01*
X158758373Y-112994211D01*
X158786909Y-113052245D01*
X158792693Y-113230277D01*
X159289045Y-113230277D01*
X159318980Y-112993724D01*
X159397586Y-112869623D01*
X159519374Y-112907967D01*
X159596666Y-112987667D01*
X159758101Y-113096086D01*
X159850666Y-113114667D01*
X160028207Y-113053599D01*
X160104666Y-112987667D01*
X160233164Y-112874215D01*
X160314066Y-112909829D01*
X160353040Y-113101120D01*
X160358666Y-113284000D01*
X162729333Y-113284000D01*
X162729333Y-112131617D01*
X160986302Y-112131617D01*
X160952200Y-112241491D01*
X160920187Y-112243907D01*
X160862596Y-112148727D01*
X160816466Y-111937463D01*
X160798316Y-111753345D01*
X160798416Y-111633000D01*
X160189333Y-111633000D01*
X160162999Y-111780137D01*
X160104666Y-111802333D01*
X160025906Y-111679476D01*
X160020636Y-111637997D01*
X159596666Y-111637997D01*
X159567047Y-111794705D01*
X159512000Y-111844667D01*
X159452997Y-111770981D01*
X159452136Y-111764997D01*
X158834666Y-111764997D01*
X158770088Y-111842386D01*
X158750000Y-111844667D01*
X158675695Y-111775751D01*
X158665333Y-111712670D01*
X158702648Y-111633000D01*
X158242000Y-111633000D01*
X158220734Y-111828867D01*
X158168445Y-111926774D01*
X158157333Y-111929333D01*
X158101371Y-111854904D01*
X158073398Y-111671890D01*
X158072666Y-111633000D01*
X158076719Y-111595663D01*
X157480000Y-111595663D01*
X157455023Y-111771833D01*
X157395333Y-111844667D01*
X156167666Y-111844667D01*
X156163796Y-111922810D01*
X156135327Y-111929333D01*
X156015635Y-111867547D01*
X155998333Y-111844667D01*
X156000350Y-111803928D01*
X155325507Y-111803928D01*
X155313557Y-112084053D01*
X155273736Y-112227902D01*
X155240840Y-112241398D01*
X155188870Y-112146988D01*
X155156729Y-111940016D01*
X155151666Y-111802798D01*
X155166104Y-111582417D01*
X154576758Y-111582417D01*
X154538485Y-111755112D01*
X154481606Y-111775015D01*
X154438402Y-111650842D01*
X154432000Y-111543336D01*
X154460435Y-111386610D01*
X154513258Y-111336667D01*
X154565604Y-111409533D01*
X154576758Y-111582417D01*
X155166104Y-111582417D01*
X155167631Y-111559119D01*
X155208250Y-111398035D01*
X155236333Y-111365327D01*
X155285592Y-111425282D01*
X155317465Y-111619046D01*
X155325507Y-111803928D01*
X156000350Y-111803928D01*
X156002203Y-111766523D01*
X156030673Y-111760000D01*
X156150364Y-111821786D01*
X156167666Y-111844667D01*
X157395333Y-111844667D01*
X157339744Y-111770149D01*
X157319323Y-111637202D01*
X156871498Y-111637202D01*
X156858899Y-111711975D01*
X156786855Y-111834187D01*
X156736067Y-111795187D01*
X156718000Y-111616067D01*
X156735019Y-111466035D01*
X156794343Y-111465521D01*
X156813909Y-111483375D01*
X156871498Y-111637202D01*
X157319323Y-111637202D01*
X157311540Y-111586538D01*
X157310666Y-111543336D01*
X157327774Y-111379000D01*
X156125333Y-111379000D01*
X156083000Y-111421333D01*
X156040666Y-111379000D01*
X156083000Y-111336667D01*
X156125333Y-111379000D01*
X157327774Y-111379000D01*
X157330722Y-111350688D01*
X157383776Y-111289414D01*
X157395333Y-111294333D01*
X157456333Y-111408789D01*
X157480000Y-111595663D01*
X158076719Y-111595663D01*
X158093932Y-111437132D01*
X158146222Y-111339226D01*
X158157333Y-111336667D01*
X158213295Y-111411095D01*
X158241269Y-111594110D01*
X158242000Y-111633000D01*
X158702648Y-111633000D01*
X158706379Y-111625035D01*
X158750000Y-111633000D01*
X158831437Y-111741243D01*
X158834666Y-111764997D01*
X159452136Y-111764997D01*
X159427367Y-111592962D01*
X159427333Y-111585670D01*
X159450263Y-111416413D01*
X159509095Y-111377330D01*
X159512000Y-111379000D01*
X159577539Y-111495707D01*
X159596666Y-111637997D01*
X160020636Y-111637997D01*
X160020000Y-111633000D01*
X160073677Y-111490981D01*
X160104666Y-111463667D01*
X160167084Y-111494034D01*
X160189333Y-111633000D01*
X160798416Y-111633000D01*
X160798536Y-111489263D01*
X160829504Y-111380043D01*
X160878123Y-111416990D01*
X160931295Y-111591407D01*
X160973370Y-111869562D01*
X160986302Y-112131617D01*
X162729333Y-112131617D01*
X162729333Y-110320667D01*
X153839333Y-110320667D01*
X153839333Y-112182271D01*
X153839333Y-112182271D01*
G37*
X153839333Y-112182271D02*
X153479500Y-112438731D01*
X153239012Y-112624764D01*
X152937755Y-112878081D01*
X152636136Y-113147686D01*
X152601307Y-113180095D01*
X152321516Y-113435628D01*
X152052762Y-113670633D01*
X151845853Y-113840875D01*
X151818140Y-113861939D01*
X151693934Y-113960191D01*
X151616292Y-114057077D01*
X151574276Y-114192992D01*
X151556946Y-114408333D01*
X151553363Y-114743495D01*
X151553333Y-114839839D01*
X151565069Y-115269285D01*
X151598825Y-115568891D01*
X151652424Y-115719744D01*
X151654933Y-115722400D01*
X151718383Y-115744027D01*
X151868524Y-115762658D01*
X152114581Y-115778462D01*
X152465781Y-115791605D01*
X152931351Y-115802256D01*
X153520518Y-115810583D01*
X154242507Y-115816752D01*
X155106546Y-115820933D01*
X156121861Y-115823293D01*
X157242933Y-115824000D01*
X162729333Y-115824000D01*
X162729333Y-114402717D01*
X161622515Y-114402717D01*
X161524559Y-114486974D01*
X161458472Y-114511940D01*
X161318569Y-114598046D01*
X161109440Y-114774244D01*
X160874199Y-115003924D01*
X160853524Y-115025645D01*
X160635315Y-115247372D01*
X160458628Y-115410429D01*
X160357244Y-115483939D01*
X160350610Y-115485333D01*
X160309948Y-115408568D01*
X160274820Y-115209802D01*
X160257058Y-114999323D01*
X160231922Y-114713304D01*
X160185174Y-114556910D01*
X160102751Y-114490599D01*
X160073500Y-114483189D01*
X159933610Y-114523061D01*
X159735960Y-114655240D01*
X159519417Y-114842546D01*
X159322849Y-115047797D01*
X159185122Y-115233814D01*
X159145105Y-115363414D01*
X159146995Y-115369485D01*
X159129206Y-115450129D01*
X158977325Y-115483115D01*
X158886058Y-115485333D01*
X158683012Y-115472228D01*
X158598130Y-115404781D01*
X158580680Y-115240797D01*
X158580666Y-115231333D01*
X158562173Y-115052910D01*
X158517623Y-114977350D01*
X158516892Y-114977333D01*
X158423885Y-115033588D01*
X158269000Y-115174144D01*
X158213381Y-115231333D01*
X157972405Y-115423147D01*
X157709224Y-115485012D01*
X157684490Y-115485333D01*
X157491355Y-115476662D01*
X157397144Y-115455411D01*
X157395333Y-115451642D01*
X157433719Y-115365163D01*
X157531736Y-115181520D01*
X157605980Y-115049475D01*
X157760345Y-114749207D01*
X157809739Y-114564351D01*
X157756469Y-114479305D01*
X157691666Y-114469333D01*
X157578995Y-114423616D01*
X157564666Y-114384667D01*
X157310666Y-114384667D01*
X157247495Y-114466886D01*
X157227721Y-114469333D01*
X157132959Y-114541372D01*
X157019070Y-114719566D01*
X156912675Y-114947036D01*
X156840392Y-115166899D01*
X156828738Y-115321885D01*
X156819909Y-115436489D01*
X156690615Y-115495560D01*
X156603016Y-115509435D01*
X156399342Y-115536849D01*
X156279274Y-115556272D01*
X156278497Y-115556450D01*
X156186854Y-115509789D01*
X156164144Y-115479634D01*
X156184337Y-115388517D01*
X156264981Y-115346905D01*
X156391160Y-115249985D01*
X156536728Y-115050782D01*
X156607795Y-114920201D01*
X156639486Y-114852322D01*
X156194231Y-114852322D01*
X156072282Y-115071261D01*
X156001507Y-115143685D01*
X155617909Y-115431098D01*
X155252958Y-115558209D01*
X154914514Y-115522331D01*
X154904591Y-115518608D01*
X154791602Y-115400754D01*
X154770666Y-115306941D01*
X154797795Y-115170836D01*
X154891059Y-115173308D01*
X155044952Y-115292025D01*
X155176255Y-115385478D01*
X155303087Y-115375594D01*
X155432619Y-115310521D01*
X155611367Y-115141328D01*
X155689024Y-114924065D01*
X155670188Y-114707290D01*
X155559457Y-114539558D01*
X155361429Y-114469424D01*
X155352966Y-114469333D01*
X155218046Y-114516784D01*
X155178770Y-114677172D01*
X155187680Y-114786833D01*
X155123740Y-114865619D01*
X154943711Y-114892667D01*
X154740922Y-114863299D01*
X154696459Y-114777633D01*
X154812205Y-114639327D01*
X154813000Y-114638667D01*
X154920591Y-114494519D01*
X154940000Y-114416633D01*
X154952061Y-114402717D01*
X154595181Y-114402717D01*
X154497226Y-114486974D01*
X154431139Y-114511940D01*
X154291235Y-114598046D01*
X154082106Y-114774244D01*
X153846865Y-115003924D01*
X153826190Y-115025645D01*
X153607350Y-115247473D01*
X153429225Y-115410555D01*
X153325932Y-115483967D01*
X153319052Y-115485333D01*
X153279504Y-115408742D01*
X153253213Y-115211071D01*
X153246666Y-115017009D01*
X153230411Y-114712329D01*
X153177087Y-114546423D01*
X153119666Y-114499951D01*
X152997915Y-114420969D01*
X153027781Y-114351190D01*
X153191712Y-114307197D01*
X153331333Y-114300000D01*
X153566818Y-114320971D01*
X153663853Y-114390488D01*
X153670000Y-114427000D01*
X153743601Y-114529143D01*
X153881666Y-114554000D01*
X154051905Y-114509839D01*
X154093333Y-114427000D01*
X154169061Y-114326174D01*
X154347333Y-114300000D01*
X154541339Y-114330583D01*
X154595181Y-114402717D01*
X154952061Y-114402717D01*
X155012415Y-114333081D01*
X155197103Y-114299124D01*
X155445231Y-114312220D01*
X155707965Y-114369828D01*
X155934833Y-114468405D01*
X156148674Y-114653993D01*
X156194231Y-114852322D01*
X156639486Y-114852322D01*
X156714049Y-114692617D01*
X156747332Y-114573360D01*
X156709795Y-114519000D01*
X156628962Y-114492722D01*
X156478863Y-114428884D01*
X156480761Y-114367039D01*
X156617657Y-114319867D01*
X156872555Y-114300046D01*
X156887333Y-114300000D01*
X157128821Y-114315229D01*
X157282098Y-114354168D01*
X157310666Y-114384667D01*
X157564666Y-114384667D01*
X157640813Y-114336369D01*
X157835509Y-114305714D01*
X157988000Y-114300000D01*
X158229569Y-114306835D01*
X158382837Y-114324310D01*
X158411333Y-114337971D01*
X158359636Y-114419031D01*
X158232804Y-114568314D01*
X158208919Y-114594351D01*
X158057439Y-114789913D01*
X157966673Y-114965684D01*
X157964484Y-114973446D01*
X157970535Y-115087266D01*
X158060730Y-115091301D01*
X158206451Y-115002094D01*
X158379080Y-114836186D01*
X158523493Y-114650321D01*
X158702342Y-114425089D01*
X158826460Y-114359536D01*
X158898028Y-114453861D01*
X158919333Y-114685997D01*
X158936433Y-114894513D01*
X159000332Y-114961314D01*
X159129928Y-114888250D01*
X159300333Y-114723333D01*
X159441400Y-114561276D01*
X159462986Y-114484897D01*
X159400840Y-114469333D01*
X159278352Y-114428089D01*
X159258000Y-114384667D01*
X159337666Y-114343579D01*
X159557097Y-114314436D01*
X159886935Y-114300649D01*
X159986725Y-114300000D01*
X160341390Y-114304257D01*
X160555041Y-114320538D01*
X160655866Y-114354106D01*
X160672049Y-114410227D01*
X160666715Y-114427000D01*
X160674343Y-114519438D01*
X160813294Y-114552865D01*
X160869324Y-114554000D01*
X161069017Y-114515801D01*
X161120666Y-114427000D01*
X161196395Y-114326174D01*
X161374666Y-114300000D01*
X161568672Y-114330583D01*
X161622515Y-114402717D01*
X162729333Y-114402717D01*
X162729333Y-113284000D01*
X160358666Y-113284000D01*
X160341116Y-113547598D01*
X160293388Y-113690904D01*
X160264130Y-113707333D01*
X160205284Y-113636217D01*
X160211331Y-113488993D01*
X160195749Y-113294077D01*
X160084335Y-113209781D01*
X159918281Y-113263887D01*
X159899459Y-113278639D01*
X159774278Y-113329064D01*
X159726207Y-113288111D01*
X159601927Y-113208228D01*
X159538753Y-113199333D01*
X159449548Y-113240881D01*
X159445453Y-113390694D01*
X159454967Y-113443338D01*
X159471485Y-113664738D01*
X159416235Y-113763085D01*
X159334297Y-113744494D01*
X159297504Y-113642114D01*
X159280771Y-113428687D01*
X159282607Y-113281160D01*
X159289045Y-113230277D01*
X158792693Y-113230277D01*
X158695464Y-113388968D01*
X158549133Y-113452037D01*
X158500453Y-113429199D01*
X158518081Y-113415008D01*
X158141435Y-113415008D01*
X158121049Y-113413016D01*
X158014813Y-113338830D01*
X157953618Y-113260124D01*
X157927435Y-113157000D01*
X157353000Y-113157000D01*
X157319532Y-113360809D01*
X157238411Y-113459605D01*
X157138560Y-113425525D01*
X157126846Y-113409700D01*
X155987407Y-113409700D01*
X155970027Y-113712865D01*
X155961090Y-113787767D01*
X155928298Y-113817054D01*
X155872714Y-113732682D01*
X155817422Y-113583994D01*
X155785504Y-113420331D01*
X155784830Y-113411000D01*
X155775768Y-113114667D01*
X155415249Y-113114667D01*
X155410429Y-113167015D01*
X155321000Y-113284000D01*
X155176922Y-113410570D01*
X155080246Y-113453333D01*
X155070670Y-113405718D01*
X155167601Y-113290482D01*
X155174495Y-113284000D01*
X155323389Y-113162170D01*
X155415249Y-113114667D01*
X155775768Y-113114667D01*
X155775364Y-113101478D01*
X155786394Y-113024487D01*
X155257908Y-113024487D01*
X155246327Y-113030000D01*
X155169061Y-112970396D01*
X155151666Y-112945333D01*
X155130092Y-112866179D01*
X155141673Y-112860667D01*
X155218938Y-112920270D01*
X155236333Y-112945333D01*
X155257908Y-113024487D01*
X155786394Y-113024487D01*
X155800072Y-112929022D01*
X155864799Y-112863751D01*
X155892500Y-112860604D01*
X155945205Y-112937085D01*
X155977987Y-113135612D01*
X155987407Y-113409700D01*
X157126846Y-113409700D01*
X157111783Y-113389351D01*
X157091623Y-113252853D01*
X157093656Y-113241667D01*
X156548666Y-113241667D01*
X156502949Y-113354338D01*
X156464000Y-113368667D01*
X156388885Y-113300090D01*
X156379333Y-113241667D01*
X156425051Y-113128995D01*
X156464000Y-113114667D01*
X156539114Y-113183243D01*
X156548666Y-113241667D01*
X157093656Y-113241667D01*
X157125082Y-113068771D01*
X157191219Y-112913333D01*
X157257037Y-112860667D01*
X157320882Y-112935266D01*
X157352263Y-113119863D01*
X157353000Y-113157000D01*
X157927435Y-113157000D01*
X157913459Y-113101957D01*
X157968736Y-113015397D01*
X158044387Y-112972209D01*
X158071317Y-113068958D01*
X158072666Y-113133011D01*
X158094248Y-113311063D01*
X158136166Y-113389833D01*
X158141435Y-113415008D01*
X158518081Y-113415008D01*
X158550964Y-113388537D01*
X158639067Y-113263422D01*
X158684234Y-113114667D01*
X158717587Y-112977126D01*
X158758373Y-112994211D01*
X158786909Y-113052245D01*
X158792693Y-113230277D01*
X159289045Y-113230277D01*
X159318980Y-112993724D01*
X159397586Y-112869623D01*
X159519374Y-112907967D01*
X159596666Y-112987667D01*
X159758101Y-113096086D01*
X159850666Y-113114667D01*
X160028207Y-113053599D01*
X160104666Y-112987667D01*
X160233164Y-112874215D01*
X160314066Y-112909829D01*
X160353040Y-113101120D01*
X160358666Y-113284000D01*
X162729333Y-113284000D01*
X162729333Y-112131617D01*
X160986302Y-112131617D01*
X160952200Y-112241491D01*
X160920187Y-112243907D01*
X160862596Y-112148727D01*
X160816466Y-111937463D01*
X160798316Y-111753345D01*
X160798416Y-111633000D01*
X160189333Y-111633000D01*
X160162999Y-111780137D01*
X160104666Y-111802333D01*
X160025906Y-111679476D01*
X160020636Y-111637997D01*
X159596666Y-111637997D01*
X159567047Y-111794705D01*
X159512000Y-111844667D01*
X159452997Y-111770981D01*
X159452136Y-111764997D01*
X158834666Y-111764997D01*
X158770088Y-111842386D01*
X158750000Y-111844667D01*
X158675695Y-111775751D01*
X158665333Y-111712670D01*
X158702648Y-111633000D01*
X158242000Y-111633000D01*
X158220734Y-111828867D01*
X158168445Y-111926774D01*
X158157333Y-111929333D01*
X158101371Y-111854904D01*
X158073398Y-111671890D01*
X158072666Y-111633000D01*
X158076719Y-111595663D01*
X157480000Y-111595663D01*
X157455023Y-111771833D01*
X157395333Y-111844667D01*
X156167666Y-111844667D01*
X156163796Y-111922810D01*
X156135327Y-111929333D01*
X156015635Y-111867547D01*
X155998333Y-111844667D01*
X156000350Y-111803928D01*
X155325507Y-111803928D01*
X155313557Y-112084053D01*
X155273736Y-112227902D01*
X155240840Y-112241398D01*
X155188870Y-112146988D01*
X155156729Y-111940016D01*
X155151666Y-111802798D01*
X155166104Y-111582417D01*
X154576758Y-111582417D01*
X154538485Y-111755112D01*
X154481606Y-111775015D01*
X154438402Y-111650842D01*
X154432000Y-111543336D01*
X154460435Y-111386610D01*
X154513258Y-111336667D01*
X154565604Y-111409533D01*
X154576758Y-111582417D01*
X155166104Y-111582417D01*
X155167631Y-111559119D01*
X155208250Y-111398035D01*
X155236333Y-111365327D01*
X155285592Y-111425282D01*
X155317465Y-111619046D01*
X155325507Y-111803928D01*
X156000350Y-111803928D01*
X156002203Y-111766523D01*
X156030673Y-111760000D01*
X156150364Y-111821786D01*
X156167666Y-111844667D01*
X157395333Y-111844667D01*
X157339744Y-111770149D01*
X157319323Y-111637202D01*
X156871498Y-111637202D01*
X156858899Y-111711975D01*
X156786855Y-111834187D01*
X156736067Y-111795187D01*
X156718000Y-111616067D01*
X156735019Y-111466035D01*
X156794343Y-111465521D01*
X156813909Y-111483375D01*
X156871498Y-111637202D01*
X157319323Y-111637202D01*
X157311540Y-111586538D01*
X157310666Y-111543336D01*
X157327774Y-111379000D01*
X156125333Y-111379000D01*
X156083000Y-111421333D01*
X156040666Y-111379000D01*
X156083000Y-111336667D01*
X156125333Y-111379000D01*
X157327774Y-111379000D01*
X157330722Y-111350688D01*
X157383776Y-111289414D01*
X157395333Y-111294333D01*
X157456333Y-111408789D01*
X157480000Y-111595663D01*
X158076719Y-111595663D01*
X158093932Y-111437132D01*
X158146222Y-111339226D01*
X158157333Y-111336667D01*
X158213295Y-111411095D01*
X158241269Y-111594110D01*
X158242000Y-111633000D01*
X158702648Y-111633000D01*
X158706379Y-111625035D01*
X158750000Y-111633000D01*
X158831437Y-111741243D01*
X158834666Y-111764997D01*
X159452136Y-111764997D01*
X159427367Y-111592962D01*
X159427333Y-111585670D01*
X159450263Y-111416413D01*
X159509095Y-111377330D01*
X159512000Y-111379000D01*
X159577539Y-111495707D01*
X159596666Y-111637997D01*
X160020636Y-111637997D01*
X160020000Y-111633000D01*
X160073677Y-111490981D01*
X160104666Y-111463667D01*
X160167084Y-111494034D01*
X160189333Y-111633000D01*
X160798416Y-111633000D01*
X160798536Y-111489263D01*
X160829504Y-111380043D01*
X160878123Y-111416990D01*
X160931295Y-111591407D01*
X160973370Y-111869562D01*
X160986302Y-112131617D01*
X162729333Y-112131617D01*
X162729333Y-110320667D01*
X153839333Y-110320667D01*
X153839333Y-112182271D01*
G36*
X161186251Y-104732667D02*
X161199019Y-105365192D01*
X161211876Y-105836903D01*
X161224530Y-106146622D01*
X161236686Y-106293167D01*
X161248053Y-106275360D01*
X161258336Y-106092021D01*
X161267241Y-105741970D01*
X161274475Y-105224028D01*
X161275767Y-105092500D01*
X161290000Y-103547333D01*
X162775405Y-103547333D01*
X163472036Y-104247602D01*
X164168667Y-104947870D01*
X164168667Y-110258935D01*
X164168666Y-115570000D01*
X163406666Y-115570000D01*
X163389095Y-112754833D01*
X163384364Y-112123038D01*
X163378755Y-111583105D01*
X163372535Y-111148167D01*
X163365969Y-110831360D01*
X163359325Y-110645818D01*
X163352868Y-110604673D01*
X163347447Y-110701667D01*
X163339738Y-111004970D01*
X163331159Y-111442974D01*
X163322256Y-111981050D01*
X163313580Y-112584571D01*
X163305678Y-113218909D01*
X163301519Y-113601575D01*
X163279666Y-115739484D01*
X164295666Y-115739334D01*
X164258354Y-104873918D01*
X163538891Y-104151214D01*
X162819427Y-103428509D01*
X161991214Y-103424421D01*
X161163000Y-103420333D01*
X161186251Y-104732667D01*
X161186251Y-104732667D01*
G37*
X161186251Y-104732667D02*
X161199019Y-105365192D01*
X161211876Y-105836903D01*
X161224530Y-106146622D01*
X161236686Y-106293167D01*
X161248053Y-106275360D01*
X161258336Y-106092021D01*
X161267241Y-105741970D01*
X161274475Y-105224028D01*
X161275767Y-105092500D01*
X161290000Y-103547333D01*
X162775405Y-103547333D01*
X163472036Y-104247602D01*
X164168667Y-104947870D01*
X164168667Y-110258935D01*
X164168666Y-115570000D01*
X163406666Y-115570000D01*
X163389095Y-112754833D01*
X163384364Y-112123038D01*
X163378755Y-111583105D01*
X163372535Y-111148167D01*
X163365969Y-110831360D01*
X163359325Y-110645818D01*
X163352868Y-110604673D01*
X163347447Y-110701667D01*
X163339738Y-111004970D01*
X163331159Y-111442974D01*
X163322256Y-111981050D01*
X163313580Y-112584571D01*
X163305678Y-113218909D01*
X163301519Y-113601575D01*
X163279666Y-115739484D01*
X164295666Y-115739334D01*
X164258354Y-104873918D01*
X163538891Y-104151214D01*
X162819427Y-103428509D01*
X161991214Y-103424421D01*
X161163000Y-103420333D01*
X161186251Y-104732667D01*
G36*
X145743115Y-112153020D02*
X145762559Y-112197721D01*
X145766720Y-112260892D01*
X145678492Y-112241024D01*
X145580187Y-112228065D01*
X145583024Y-112265881D01*
X145565428Y-112370861D01*
X145464766Y-112511265D01*
X145334795Y-112628474D01*
X145229273Y-112663865D01*
X145221412Y-112660213D01*
X145172566Y-112702973D01*
X145148101Y-112837518D01*
X145096676Y-113029042D01*
X145021101Y-113124430D01*
X144953962Y-113184639D01*
X145015490Y-113198037D01*
X145131937Y-113130051D01*
X145177209Y-113051167D01*
X145264670Y-112913472D01*
X145435112Y-112712219D01*
X145591406Y-112550799D01*
X145809145Y-112318044D01*
X145891763Y-112172804D01*
X145843071Y-112105786D01*
X145776892Y-112098667D01*
X145743115Y-112153020D01*
X145743115Y-112153020D01*
G37*
X145743115Y-112153020D02*
X145762559Y-112197721D01*
X145766720Y-112260892D01*
X145678492Y-112241024D01*
X145580187Y-112228065D01*
X145583024Y-112265881D01*
X145565428Y-112370861D01*
X145464766Y-112511265D01*
X145334795Y-112628474D01*
X145229273Y-112663865D01*
X145221412Y-112660213D01*
X145172566Y-112702973D01*
X145148101Y-112837518D01*
X145096676Y-113029042D01*
X145021101Y-113124430D01*
X144953962Y-113184639D01*
X145015490Y-113198037D01*
X145131937Y-113130051D01*
X145177209Y-113051167D01*
X145264670Y-112913472D01*
X145435112Y-112712219D01*
X145591406Y-112550799D01*
X145809145Y-112318044D01*
X145891763Y-112172804D01*
X145843071Y-112105786D01*
X145776892Y-112098667D01*
X145743115Y-112153020D01*
G36*
X146367557Y-112218537D02*
X146192687Y-112296654D01*
X146134666Y-112321528D01*
X146019684Y-112403032D01*
X145859599Y-112554081D01*
X145687297Y-112737708D01*
X145535659Y-112916946D01*
X145437571Y-113054828D01*
X145425915Y-113114386D01*
X145429148Y-113114667D01*
X145527209Y-113058453D01*
X145697182Y-112913580D01*
X145838333Y-112776000D01*
X146037643Y-112589134D01*
X146201121Y-112466134D01*
X146269791Y-112437333D01*
X146383667Y-112369092D01*
X146421999Y-112303258D01*
X146427182Y-112209133D01*
X146367557Y-112218537D01*
X146367557Y-112218537D01*
G37*
X146367557Y-112218537D02*
X146192687Y-112296654D01*
X146134666Y-112321528D01*
X146019684Y-112403032D01*
X145859599Y-112554081D01*
X145687297Y-112737708D01*
X145535659Y-112916946D01*
X145437571Y-113054828D01*
X145425915Y-113114386D01*
X145429148Y-113114667D01*
X145527209Y-113058453D01*
X145697182Y-112913580D01*
X145838333Y-112776000D01*
X146037643Y-112589134D01*
X146201121Y-112466134D01*
X146269791Y-112437333D01*
X146383667Y-112369092D01*
X146421999Y-112303258D01*
X146427182Y-112209133D01*
X146367557Y-112218537D01*
G36*
X150705746Y-103433836D02*
X149265598Y-103447340D01*
X149245299Y-107815346D01*
X149241807Y-108918550D01*
X149242285Y-109865010D01*
X149246706Y-110652731D01*
X149255038Y-111279718D01*
X149267254Y-111743976D01*
X149283323Y-112043508D01*
X149303217Y-112176321D01*
X149309666Y-112183367D01*
X149331033Y-112099159D01*
X149349391Y-111848295D01*
X149364687Y-111433424D01*
X149376871Y-110857199D01*
X149385888Y-110122269D01*
X149391688Y-109231286D01*
X149394218Y-108186900D01*
X149394333Y-107886525D01*
X149394333Y-103589667D01*
X150770166Y-103566403D01*
X151231336Y-103555035D01*
X151626754Y-103538477D01*
X151928303Y-103518460D01*
X152107867Y-103496712D01*
X152145947Y-103481736D01*
X152065857Y-103462343D01*
X151843942Y-103447056D01*
X151507680Y-103436788D01*
X151084549Y-103432454D01*
X150705746Y-103433836D01*
X150705746Y-103433836D01*
G37*
X150705746Y-103433836D02*
X149265598Y-103447340D01*
X149245299Y-107815346D01*
X149241807Y-108918550D01*
X149242285Y-109865010D01*
X149246706Y-110652731D01*
X149255038Y-111279718D01*
X149267254Y-111743976D01*
X149283323Y-112043508D01*
X149303217Y-112176321D01*
X149309666Y-112183367D01*
X149331033Y-112099159D01*
X149349391Y-111848295D01*
X149364687Y-111433424D01*
X149376871Y-110857199D01*
X149385888Y-110122269D01*
X149391688Y-109231286D01*
X149394218Y-108186900D01*
X149394333Y-107886525D01*
X149394333Y-103589667D01*
X150770166Y-103566403D01*
X151231336Y-103555035D01*
X151626754Y-103538477D01*
X151928303Y-103518460D01*
X152107867Y-103496712D01*
X152145947Y-103481736D01*
X152065857Y-103462343D01*
X151843942Y-103447056D01*
X151507680Y-103436788D01*
X151084549Y-103432454D01*
X150705746Y-103433836D01*
G36*
X145993555Y-112042222D02*
X146005178Y-112092556D01*
X146050000Y-112098667D01*
X146119690Y-112067688D01*
X146106444Y-112042222D01*
X146005965Y-112032089D01*
X145993555Y-112042222D01*
X145993555Y-112042222D01*
G37*
X145993555Y-112042222D02*
X146005178Y-112092556D01*
X146050000Y-112098667D01*
X146119690Y-112067688D01*
X146106444Y-112042222D01*
X146005965Y-112032089D01*
X145993555Y-112042222D01*
G36*
X146388666Y-111971667D02*
X146431000Y-112014000D01*
X146473333Y-111971667D01*
X146431000Y-111929333D01*
X146388666Y-111971667D01*
X146388666Y-111971667D01*
G37*
X146388666Y-111971667D02*
X146431000Y-112014000D01*
X146473333Y-111971667D01*
X146431000Y-111929333D01*
X146388666Y-111971667D01*
G36*
X146219333Y-111971667D02*
X146261666Y-112014000D01*
X146304000Y-111971667D01*
X146261666Y-111929333D01*
X146219333Y-111971667D01*
X146219333Y-111971667D01*
G37*
X146219333Y-111971667D02*
X146261666Y-112014000D01*
X146304000Y-111971667D01*
X146261666Y-111929333D01*
X146219333Y-111971667D01*
G36*
X149622154Y-111804204D02*
X149606000Y-111844667D01*
X149666767Y-111926910D01*
X149685670Y-111929333D01*
X149800337Y-111867789D01*
X149817666Y-111844667D01*
X149798473Y-111772183D01*
X149737997Y-111760000D01*
X149622154Y-111804204D01*
X149622154Y-111804204D01*
G37*
X149622154Y-111804204D02*
X149606000Y-111844667D01*
X149666767Y-111926910D01*
X149685670Y-111929333D01*
X149800337Y-111867789D01*
X149817666Y-111844667D01*
X149798473Y-111772183D01*
X149737997Y-111760000D01*
X149622154Y-111804204D01*
G36*
X146650302Y-111777632D02*
X146660679Y-111856371D01*
X146707311Y-111920105D01*
X146762643Y-111856030D01*
X146793711Y-111731385D01*
X146778145Y-111697922D01*
X146694445Y-111684019D01*
X146650302Y-111777632D01*
X146650302Y-111777632D01*
G37*
X146650302Y-111777632D02*
X146660679Y-111856371D01*
X146707311Y-111920105D01*
X146762643Y-111856030D01*
X146793711Y-111731385D01*
X146778145Y-111697922D01*
X146694445Y-111684019D01*
X146650302Y-111777632D01*
G36*
X150042415Y-111540248D02*
X149951521Y-111625499D01*
X149970167Y-111674509D01*
X149982003Y-111675333D01*
X150053616Y-111615196D01*
X150079751Y-111577585D01*
X150089731Y-111519648D01*
X150042415Y-111540248D01*
X150042415Y-111540248D01*
G37*
X150042415Y-111540248D02*
X149951521Y-111625499D01*
X149970167Y-111674509D01*
X149982003Y-111675333D01*
X150053616Y-111615196D01*
X150079751Y-111577585D01*
X150089731Y-111519648D01*
X150042415Y-111540248D01*
G36*
X146462998Y-111364183D02*
X146406906Y-111504480D01*
X146412779Y-111558335D01*
X146470532Y-111528150D01*
X146505207Y-111460393D01*
X146553176Y-111299626D01*
X146533481Y-111267551D01*
X146462998Y-111364183D01*
X146462998Y-111364183D01*
G37*
X146462998Y-111364183D02*
X146406906Y-111504480D01*
X146412779Y-111558335D01*
X146470532Y-111528150D01*
X146505207Y-111460393D01*
X146553176Y-111299626D01*
X146533481Y-111267551D01*
X146462998Y-111364183D01*
G36*
X146890026Y-111178904D02*
X146845697Y-111238636D01*
X146761190Y-111392778D01*
X146754171Y-111476393D01*
X146821522Y-111448050D01*
X146889807Y-111349484D01*
X146970115Y-111170798D01*
X146967969Y-111108362D01*
X146890026Y-111178904D01*
X146890026Y-111178904D01*
G37*
X146890026Y-111178904D02*
X146845697Y-111238636D01*
X146761190Y-111392778D01*
X146754171Y-111476393D01*
X146821522Y-111448050D01*
X146889807Y-111349484D01*
X146970115Y-111170798D01*
X146967969Y-111108362D01*
X146890026Y-111178904D01*
G36*
X150300252Y-110189728D02*
X150276851Y-110486419D01*
X150260278Y-110765167D01*
X150250460Y-111144788D01*
X150272199Y-111361867D01*
X150317216Y-111421531D01*
X150365193Y-111344441D01*
X150386062Y-111109780D01*
X150380213Y-110712849D01*
X150378891Y-110680697D01*
X150359857Y-110307448D01*
X150340946Y-110100819D01*
X150321347Y-110061387D01*
X150300252Y-110189728D01*
X150300252Y-110189728D01*
G37*
X150300252Y-110189728D02*
X150276851Y-110486419D01*
X150260278Y-110765167D01*
X150250460Y-111144788D01*
X150272199Y-111361867D01*
X150317216Y-111421531D01*
X150365193Y-111344441D01*
X150386062Y-111109780D01*
X150380213Y-110712849D01*
X150378891Y-110680697D01*
X150359857Y-110307448D01*
X150340946Y-110100819D01*
X150321347Y-110061387D01*
X150300252Y-110189728D01*
G36*
X146516266Y-111083636D02*
X146606822Y-111153822D01*
X146703867Y-111165600D01*
X146727333Y-111134058D01*
X146660920Y-111079682D01*
X146595936Y-111050361D01*
X146508536Y-111044444D01*
X146516266Y-111083636D01*
X146516266Y-111083636D01*
G37*
X146516266Y-111083636D02*
X146606822Y-111153822D01*
X146703867Y-111165600D01*
X146727333Y-111134058D01*
X146660920Y-111079682D01*
X146595936Y-111050361D01*
X146508536Y-111044444D01*
X146516266Y-111083636D01*
G36*
X147446112Y-110151430D02*
X147247720Y-110359332D01*
X147124334Y-110649869D01*
X147117287Y-110683714D01*
X147090320Y-110884801D01*
X147096850Y-110992359D01*
X147104497Y-110998000D01*
X147149502Y-110932712D01*
X147150666Y-110913977D01*
X147208451Y-110786830D01*
X147366497Y-110573579D01*
X147601848Y-110304270D01*
X147679833Y-110221488D01*
X147779227Y-110107587D01*
X147758500Y-110071265D01*
X147679833Y-110069483D01*
X147446112Y-110151430D01*
X147446112Y-110151430D01*
G37*
X147446112Y-110151430D02*
X147247720Y-110359332D01*
X147124334Y-110649869D01*
X147117287Y-110683714D01*
X147090320Y-110884801D01*
X147096850Y-110992359D01*
X147104497Y-110998000D01*
X147149502Y-110932712D01*
X147150666Y-110913977D01*
X147208451Y-110786830D01*
X147366497Y-110573579D01*
X147601848Y-110304270D01*
X147679833Y-110221488D01*
X147779227Y-110107587D01*
X147758500Y-110071265D01*
X147679833Y-110069483D01*
X147446112Y-110151430D01*
G36*
X150997215Y-110370275D02*
X150960666Y-110532333D01*
X150992598Y-110708168D01*
X151088267Y-110727142D01*
X151197733Y-110642400D01*
X151293076Y-110481255D01*
X151255412Y-110359093D01*
X151130000Y-110320667D01*
X150997215Y-110370275D01*
X150997215Y-110370275D01*
G37*
X150997215Y-110370275D02*
X150960666Y-110532333D01*
X150992598Y-110708168D01*
X151088267Y-110727142D01*
X151197733Y-110642400D01*
X151293076Y-110481255D01*
X151255412Y-110359093D01*
X151130000Y-110320667D01*
X150997215Y-110370275D01*
G36*
X147165065Y-109952320D02*
X147055123Y-110101503D01*
X146957068Y-110306810D01*
X146887932Y-110516691D01*
X146864746Y-110679599D01*
X146903491Y-110744000D01*
X146964168Y-110672167D01*
X146981333Y-110552635D01*
X147037136Y-110365490D01*
X147174189Y-110154765D01*
X147201567Y-110123757D01*
X147337479Y-109948713D01*
X147372212Y-109846176D01*
X147311045Y-109840947D01*
X147165065Y-109952320D01*
X147165065Y-109952320D01*
G37*
X147165065Y-109952320D02*
X147055123Y-110101503D01*
X146957068Y-110306810D01*
X146887932Y-110516691D01*
X146864746Y-110679599D01*
X146903491Y-110744000D01*
X146964168Y-110672167D01*
X146981333Y-110552635D01*
X147037136Y-110365490D01*
X147174189Y-110154765D01*
X147201567Y-110123757D01*
X147337479Y-109948713D01*
X147372212Y-109846176D01*
X147311045Y-109840947D01*
X147165065Y-109952320D01*
G36*
X152357666Y-109488613D02*
X151989284Y-109493842D01*
X151777984Y-109501275D01*
X151711513Y-109513279D01*
X151777620Y-109532221D01*
X151964053Y-109560466D01*
X151976666Y-109562214D01*
X152344294Y-109602596D01*
X152731927Y-109629825D01*
X152876466Y-109634960D01*
X153198915Y-109668639D01*
X153395257Y-109749765D01*
X153416000Y-109770333D01*
X153456138Y-109797718D01*
X153535962Y-109820949D01*
X153668211Y-109840354D01*
X153865627Y-109856262D01*
X154140949Y-109869001D01*
X154506918Y-109878902D01*
X154976275Y-109886291D01*
X155561760Y-109891499D01*
X156276114Y-109894854D01*
X157132078Y-109896685D01*
X158142390Y-109897320D01*
X158337033Y-109897333D01*
X159493672Y-109895851D01*
X160496003Y-109891432D01*
X161341780Y-109884116D01*
X162028752Y-109873941D01*
X162554673Y-109860947D01*
X162917293Y-109845174D01*
X163114364Y-109826662D01*
X163152666Y-109812667D01*
X163068386Y-109792320D01*
X162817045Y-109774690D01*
X162400898Y-109759815D01*
X161822195Y-109747736D01*
X161083189Y-109738491D01*
X160186134Y-109732121D01*
X159133281Y-109728665D01*
X158342849Y-109728000D01*
X157298980Y-109727483D01*
X156411678Y-109725721D01*
X155668180Y-109722395D01*
X155055722Y-109717185D01*
X154561541Y-109709773D01*
X154172872Y-109699839D01*
X153876953Y-109687064D01*
X153661019Y-109671131D01*
X153512307Y-109651719D01*
X153418054Y-109628510D01*
X153368682Y-109603693D01*
X153228741Y-109540704D01*
X152993311Y-109503320D01*
X152634121Y-109488321D01*
X152357666Y-109488613D01*
X152357666Y-109488613D01*
G37*
X152357666Y-109488613D02*
X151989284Y-109493842D01*
X151777984Y-109501275D01*
X151711513Y-109513279D01*
X151777620Y-109532221D01*
X151964053Y-109560466D01*
X151976666Y-109562214D01*
X152344294Y-109602596D01*
X152731927Y-109629825D01*
X152876466Y-109634960D01*
X153198915Y-109668639D01*
X153395257Y-109749765D01*
X153416000Y-109770333D01*
X153456138Y-109797718D01*
X153535962Y-109820949D01*
X153668211Y-109840354D01*
X153865627Y-109856262D01*
X154140949Y-109869001D01*
X154506918Y-109878902D01*
X154976275Y-109886291D01*
X155561760Y-109891499D01*
X156276114Y-109894854D01*
X157132078Y-109896685D01*
X158142390Y-109897320D01*
X158337033Y-109897333D01*
X159493672Y-109895851D01*
X160496003Y-109891432D01*
X161341780Y-109884116D01*
X162028752Y-109873941D01*
X162554673Y-109860947D01*
X162917293Y-109845174D01*
X163114364Y-109826662D01*
X163152666Y-109812667D01*
X163068386Y-109792320D01*
X162817045Y-109774690D01*
X162400898Y-109759815D01*
X161822195Y-109747736D01*
X161083189Y-109738491D01*
X160186134Y-109732121D01*
X159133281Y-109728665D01*
X158342849Y-109728000D01*
X157298980Y-109727483D01*
X156411678Y-109725721D01*
X155668180Y-109722395D01*
X155055722Y-109717185D01*
X154561541Y-109709773D01*
X154172872Y-109699839D01*
X153876953Y-109687064D01*
X153661019Y-109671131D01*
X153512307Y-109651719D01*
X153418054Y-109628510D01*
X153368682Y-109603693D01*
X153228741Y-109540704D01*
X152993311Y-109503320D01*
X152634121Y-109488321D01*
X152357666Y-109488613D01*
G36*
X150747985Y-109741918D02*
X150578843Y-109777822D01*
X150537333Y-109812667D01*
X150613885Y-109859033D01*
X150811358Y-109889786D01*
X151003000Y-109897333D01*
X151258015Y-109883415D01*
X151427156Y-109847511D01*
X151468666Y-109812667D01*
X151392115Y-109766300D01*
X151194642Y-109735547D01*
X151003000Y-109728000D01*
X150747985Y-109741918D01*
X150747985Y-109741918D01*
G37*
X150747985Y-109741918D02*
X150578843Y-109777822D01*
X150537333Y-109812667D01*
X150613885Y-109859033D01*
X150811358Y-109889786D01*
X151003000Y-109897333D01*
X151258015Y-109883415D01*
X151427156Y-109847511D01*
X151468666Y-109812667D01*
X151392115Y-109766300D01*
X151194642Y-109735547D01*
X151003000Y-109728000D01*
X150747985Y-109741918D01*
G36*
X148082000Y-109855000D02*
X148124333Y-109897333D01*
X148166666Y-109855000D01*
X148124333Y-109812667D01*
X148082000Y-109855000D01*
X148082000Y-109855000D01*
G37*
X148082000Y-109855000D02*
X148124333Y-109897333D01*
X148166666Y-109855000D01*
X148124333Y-109812667D01*
X148082000Y-109855000D01*
G36*
X148585504Y-102992745D02*
X148562206Y-103115066D01*
X148542708Y-103333687D01*
X148526558Y-103660681D01*
X148513303Y-104108121D01*
X148502491Y-104688079D01*
X148493668Y-105412629D01*
X148486381Y-106293843D01*
X148486055Y-106341363D01*
X148481107Y-107222218D01*
X148479589Y-107946595D01*
X148481815Y-108527322D01*
X148488097Y-108977226D01*
X148498750Y-109309134D01*
X148514087Y-109535873D01*
X148534421Y-109670270D01*
X148560067Y-109725152D01*
X148568833Y-109728029D01*
X148667736Y-109687610D01*
X148675240Y-109664500D01*
X148686155Y-108377210D01*
X148694106Y-107250779D01*
X148699016Y-106276754D01*
X148700806Y-105446687D01*
X148699397Y-104752125D01*
X148694712Y-104184619D01*
X148686672Y-103735717D01*
X148675199Y-103396969D01*
X148660214Y-103159924D01*
X148641639Y-103016132D01*
X148619396Y-102957142D01*
X148613055Y-102954653D01*
X148585504Y-102992745D01*
X148585504Y-102992745D01*
G37*
X148585504Y-102992745D02*
X148562206Y-103115066D01*
X148542708Y-103333687D01*
X148526558Y-103660681D01*
X148513303Y-104108121D01*
X148502491Y-104688079D01*
X148493668Y-105412629D01*
X148486381Y-106293843D01*
X148486055Y-106341363D01*
X148481107Y-107222218D01*
X148479589Y-107946595D01*
X148481815Y-108527322D01*
X148488097Y-108977226D01*
X148498750Y-109309134D01*
X148514087Y-109535873D01*
X148534421Y-109670270D01*
X148560067Y-109725152D01*
X148568833Y-109728029D01*
X148667736Y-109687610D01*
X148675240Y-109664500D01*
X148686155Y-108377210D01*
X148694106Y-107250779D01*
X148699016Y-106276754D01*
X148700806Y-105446687D01*
X148699397Y-104752125D01*
X148694712Y-104184619D01*
X148686672Y-103735717D01*
X148675199Y-103396969D01*
X148660214Y-103159924D01*
X148641639Y-103016132D01*
X148619396Y-102957142D01*
X148613055Y-102954653D01*
X148585504Y-102992745D01*
G36*
X148278121Y-103949416D02*
X148275430Y-104055333D01*
X148258540Y-104959356D01*
X148245551Y-105822986D01*
X148236472Y-106630979D01*
X148231312Y-107368089D01*
X148230077Y-108019071D01*
X148232778Y-108568680D01*
X148239422Y-109001669D01*
X148250016Y-109302795D01*
X148264570Y-109456810D01*
X148272500Y-109474063D01*
X148286101Y-109392421D01*
X148297766Y-109159662D01*
X148307245Y-108793996D01*
X148314290Y-108313630D01*
X148318650Y-107736773D01*
X148320077Y-107081634D01*
X148318321Y-106366420D01*
X148317429Y-106193167D01*
X148312919Y-105518715D01*
X148307694Y-104944552D01*
X148301961Y-104481288D01*
X148295929Y-104139533D01*
X148289806Y-103929896D01*
X148283801Y-103862987D01*
X148278121Y-103949416D01*
X148278121Y-103949416D01*
G37*
X148278121Y-103949416D02*
X148275430Y-104055333D01*
X148258540Y-104959356D01*
X148245551Y-105822986D01*
X148236472Y-106630979D01*
X148231312Y-107368089D01*
X148230077Y-108019071D01*
X148232778Y-108568680D01*
X148239422Y-109001669D01*
X148250016Y-109302795D01*
X148264570Y-109456810D01*
X148272500Y-109474063D01*
X148286101Y-109392421D01*
X148297766Y-109159662D01*
X148307245Y-108793996D01*
X148314290Y-108313630D01*
X148318650Y-107736773D01*
X148320077Y-107081634D01*
X148318321Y-106366420D01*
X148317429Y-106193167D01*
X148312919Y-105518715D01*
X148307694Y-104944552D01*
X148301961Y-104481288D01*
X148295929Y-104139533D01*
X148289806Y-103929896D01*
X148283801Y-103862987D01*
X148278121Y-103949416D01*
G36*
X155499040Y-106778911D02*
X154735793Y-106784611D01*
X154616603Y-106785915D01*
X154301734Y-106790415D01*
X154149255Y-106794642D01*
X154152220Y-106798517D01*
X154303686Y-106801963D01*
X154596707Y-106804902D01*
X155024340Y-106807255D01*
X155579640Y-106808943D01*
X156255663Y-106809889D01*
X156760333Y-106810069D01*
X157509803Y-106809642D01*
X158141630Y-106808426D01*
X158649072Y-106806497D01*
X159025386Y-106803934D01*
X159263828Y-106800816D01*
X159357656Y-106797219D01*
X159300126Y-106793222D01*
X159084496Y-106788903D01*
X158849936Y-106785887D01*
X158095811Y-106779676D01*
X157243192Y-106776443D01*
X156356220Y-106776188D01*
X155499040Y-106778911D01*
X155499040Y-106778911D01*
G37*
X155499040Y-106778911D02*
X154735793Y-106784611D01*
X154616603Y-106785915D01*
X154301734Y-106790415D01*
X154149255Y-106794642D01*
X154152220Y-106798517D01*
X154303686Y-106801963D01*
X154596707Y-106804902D01*
X155024340Y-106807255D01*
X155579640Y-106808943D01*
X156255663Y-106809889D01*
X156760333Y-106810069D01*
X157509803Y-106809642D01*
X158141630Y-106808426D01*
X158649072Y-106806497D01*
X159025386Y-106803934D01*
X159263828Y-106800816D01*
X159357656Y-106797219D01*
X159300126Y-106793222D01*
X159084496Y-106788903D01*
X158849936Y-106785887D01*
X158095811Y-106779676D01*
X157243192Y-106776443D01*
X156356220Y-106776188D01*
X155499040Y-106778911D01*
G36*
X152283612Y-103460849D02*
X152258807Y-103702366D01*
X152241474Y-104092003D01*
X152232168Y-104619215D01*
X152230666Y-104986667D01*
X152235027Y-105589369D01*
X152247738Y-106060657D01*
X152268246Y-106389986D01*
X152295994Y-106566809D01*
X152315333Y-106595333D01*
X152347054Y-106512484D01*
X152371859Y-106270967D01*
X152389192Y-105881330D01*
X152398499Y-105354118D01*
X152400000Y-104986667D01*
X152395639Y-104383964D01*
X152382928Y-103912676D01*
X152362421Y-103583347D01*
X152334673Y-103406524D01*
X152315333Y-103378000D01*
X152283612Y-103460849D01*
X152283612Y-103460849D01*
G37*
X152283612Y-103460849D02*
X152258807Y-103702366D01*
X152241474Y-104092003D01*
X152232168Y-104619215D01*
X152230666Y-104986667D01*
X152235027Y-105589369D01*
X152247738Y-106060657D01*
X152268246Y-106389986D01*
X152295994Y-106566809D01*
X152315333Y-106595333D01*
X152347054Y-106512484D01*
X152371859Y-106270967D01*
X152389192Y-105881330D01*
X152398499Y-105354118D01*
X152400000Y-104986667D01*
X152395639Y-104383964D01*
X152382928Y-103912676D01*
X152362421Y-103583347D01*
X152334673Y-103406524D01*
X152315333Y-103378000D01*
X152283612Y-103460849D01*
G36*
X152992666Y-106341333D02*
X156762990Y-106341333D01*
X157695146Y-106340420D01*
X158470640Y-106337438D01*
X159102134Y-106332024D01*
X159602289Y-106323818D01*
X159983770Y-106312456D01*
X160259237Y-106297576D01*
X160441354Y-106278816D01*
X160542782Y-106255814D01*
X160575174Y-106232250D01*
X160587870Y-106114248D01*
X160596150Y-105857876D01*
X160599632Y-105494049D01*
X160597946Y-105056082D01*
X160092145Y-105056082D01*
X160090788Y-105411778D01*
X160082750Y-105673639D01*
X160068616Y-105804912D01*
X160067729Y-105807470D01*
X159992063Y-105862771D01*
X159802212Y-105897769D01*
X159477560Y-105915048D01*
X159185049Y-105918000D01*
X158786959Y-105913348D01*
X158527758Y-105896360D01*
X158377179Y-105862491D01*
X158304958Y-105807196D01*
X158293392Y-105784075D01*
X158272692Y-105648647D01*
X158255979Y-105384210D01*
X158245154Y-105031077D01*
X158242000Y-104693775D01*
X158248023Y-104237518D01*
X158267915Y-103925900D01*
X158304407Y-103734595D01*
X158360233Y-103639276D01*
X158360473Y-103639077D01*
X158519186Y-103587842D01*
X158832041Y-103563019D01*
X159270639Y-103565210D01*
X160062333Y-103589667D01*
X160086238Y-104643303D01*
X160092145Y-105056082D01*
X160597946Y-105056082D01*
X160597936Y-105053680D01*
X160593683Y-104729416D01*
X160570333Y-103335667D01*
X156781500Y-103313628D01*
X152992666Y-103291590D01*
X152992666Y-106341333D01*
X152992666Y-106341333D01*
G37*
X152992666Y-106341333D02*
X156762990Y-106341333D01*
X157695146Y-106340420D01*
X158470640Y-106337438D01*
X159102134Y-106332024D01*
X159602289Y-106323818D01*
X159983770Y-106312456D01*
X160259237Y-106297576D01*
X160441354Y-106278816D01*
X160542782Y-106255814D01*
X160575174Y-106232250D01*
X160587870Y-106114248D01*
X160596150Y-105857876D01*
X160599632Y-105494049D01*
X160597946Y-105056082D01*
X160092145Y-105056082D01*
X160090788Y-105411778D01*
X160082750Y-105673639D01*
X160068616Y-105804912D01*
X160067729Y-105807470D01*
X159992063Y-105862771D01*
X159802212Y-105897769D01*
X159477560Y-105915048D01*
X159185049Y-105918000D01*
X158786959Y-105913348D01*
X158527758Y-105896360D01*
X158377179Y-105862491D01*
X158304958Y-105807196D01*
X158293392Y-105784075D01*
X158272692Y-105648647D01*
X158255979Y-105384210D01*
X158245154Y-105031077D01*
X158242000Y-104693775D01*
X158248023Y-104237518D01*
X158267915Y-103925900D01*
X158304407Y-103734595D01*
X158360233Y-103639276D01*
X158360473Y-103639077D01*
X158519186Y-103587842D01*
X158832041Y-103563019D01*
X159270639Y-103565210D01*
X160062333Y-103589667D01*
X160086238Y-104643303D01*
X160092145Y-105056082D01*
X160597946Y-105056082D01*
X160597936Y-105053680D01*
X160593683Y-104729416D01*
X160570333Y-103335667D01*
X156781500Y-103313628D01*
X152992666Y-103291590D01*
X152992666Y-106341333D01*
G36*
X164689765Y-104189710D02*
X164724318Y-104290973D01*
X164822876Y-104371992D01*
X164830182Y-104374616D01*
X164893931Y-104348164D01*
X164879332Y-104274075D01*
X164792818Y-104157620D01*
X164745219Y-104140000D01*
X164689765Y-104189710D01*
X164689765Y-104189710D01*
G37*
X164689765Y-104189710D02*
X164724318Y-104290973D01*
X164822876Y-104371992D01*
X164830182Y-104374616D01*
X164893931Y-104348164D01*
X164879332Y-104274075D01*
X164792818Y-104157620D01*
X164745219Y-104140000D01*
X164689765Y-104189710D01*
G36*
X163494725Y-102986811D02*
X163566222Y-103095478D01*
X163747719Y-103299015D01*
X163776497Y-103329638D01*
X163988542Y-103539985D01*
X164113091Y-103623602D01*
X164164943Y-103588705D01*
X164168666Y-103547333D01*
X164103579Y-103465920D01*
X164079003Y-103462667D01*
X164028147Y-103410930D01*
X164041067Y-103378970D01*
X164025348Y-103331842D01*
X163940231Y-103350126D01*
X163843306Y-103366647D01*
X163849627Y-103336585D01*
X163831929Y-103249910D01*
X163735064Y-103117067D01*
X163611260Y-102998701D01*
X163520712Y-102954667D01*
X163494725Y-102986811D01*
X163494725Y-102986811D01*
G37*
X163494725Y-102986811D02*
X163566222Y-103095478D01*
X163747719Y-103299015D01*
X163776497Y-103329638D01*
X163988542Y-103539985D01*
X164113091Y-103623602D01*
X164164943Y-103588705D01*
X164168666Y-103547333D01*
X164103579Y-103465920D01*
X164079003Y-103462667D01*
X164028147Y-103410930D01*
X164041067Y-103378970D01*
X164025348Y-103331842D01*
X163940231Y-103350126D01*
X163843306Y-103366647D01*
X163849627Y-103336585D01*
X163831929Y-103249910D01*
X163735064Y-103117067D01*
X163611260Y-102998701D01*
X163520712Y-102954667D01*
X163494725Y-102986811D01*
G36*
X160591509Y-114827542D02*
X160585225Y-114842056D01*
X160584146Y-114993706D01*
X160679463Y-115061612D01*
X160810222Y-115005555D01*
X160863415Y-114877144D01*
X160866666Y-114836222D01*
X160810047Y-114739189D01*
X160692282Y-114736835D01*
X160591509Y-114827542D01*
X160591509Y-114827542D01*
G37*
X160591509Y-114827542D02*
X160585225Y-114842056D01*
X160584146Y-114993706D01*
X160679463Y-115061612D01*
X160810222Y-115005555D01*
X160863415Y-114877144D01*
X160866666Y-114836222D01*
X160810047Y-114739189D01*
X160692282Y-114736835D01*
X160591509Y-114827542D01*
G36*
X153608905Y-114793919D02*
X153585333Y-114892667D01*
X153627704Y-115040166D01*
X153733121Y-115044966D01*
X153782889Y-115005555D01*
X153839873Y-114869952D01*
X153790907Y-114751765D01*
X153712333Y-114723333D01*
X153608905Y-114793919D01*
X153608905Y-114793919D01*
G37*
X153608905Y-114793919D02*
X153585333Y-114892667D01*
X153627704Y-115040166D01*
X153733121Y-115044966D01*
X153782889Y-115005555D01*
X153839873Y-114869952D01*
X153790907Y-114751765D01*
X153712333Y-114723333D01*
X153608905Y-114793919D01*
G36*
X158834688Y-104711500D02*
X158834709Y-105452333D01*
X159215688Y-105460452D01*
X159596666Y-105468571D01*
X159596666Y-104732667D01*
X159427333Y-104732667D01*
X159424221Y-105042302D01*
X159406097Y-105219513D01*
X159359786Y-105301198D01*
X159272108Y-105324254D01*
X159215666Y-105325333D01*
X159105082Y-105316618D01*
X159041793Y-105265873D01*
X159012620Y-105136201D01*
X159004385Y-104890702D01*
X159004000Y-104732667D01*
X159007112Y-104423031D01*
X159025236Y-104245820D01*
X159071547Y-104164135D01*
X159159225Y-104141079D01*
X159215666Y-104140000D01*
X159326251Y-104148715D01*
X159389540Y-104199460D01*
X159418713Y-104329132D01*
X159426948Y-104574631D01*
X159427333Y-104732667D01*
X159596666Y-104732667D01*
X159596666Y-103970667D01*
X158834666Y-103970667D01*
X158834688Y-104711500D01*
X158834688Y-104711500D01*
G37*
X158834688Y-104711500D02*
X158834709Y-105452333D01*
X159215688Y-105460452D01*
X159596666Y-105468571D01*
X159596666Y-104732667D01*
X159427333Y-104732667D01*
X159424221Y-105042302D01*
X159406097Y-105219513D01*
X159359786Y-105301198D01*
X159272108Y-105324254D01*
X159215666Y-105325333D01*
X159105082Y-105316618D01*
X159041793Y-105265873D01*
X159012620Y-105136201D01*
X159004385Y-104890702D01*
X159004000Y-104732667D01*
X159007112Y-104423031D01*
X159025236Y-104245820D01*
X159071547Y-104164135D01*
X159159225Y-104141079D01*
X159215666Y-104140000D01*
X159326251Y-104148715D01*
X159389540Y-104199460D01*
X159418713Y-104329132D01*
X159426948Y-104574631D01*
X159427333Y-104732667D01*
X159596666Y-104732667D01*
X159596666Y-103970667D01*
X158834666Y-103970667D01*
X158834688Y-104711500D01*
G36*
X159248444Y-77992284D02*
X158702834Y-78080311D01*
X158239140Y-78240106D01*
X158173218Y-78273859D01*
X157638229Y-78651184D01*
X157157745Y-79158116D01*
X156766807Y-79756053D01*
X156691328Y-79906424D01*
X156576104Y-80159285D01*
X156499412Y-80369674D01*
X156453444Y-80583505D01*
X156430389Y-80846688D01*
X156422437Y-81205135D01*
X156421667Y-81491666D01*
X156424959Y-81938607D01*
X156439310Y-82260638D01*
X156471430Y-82502126D01*
X156528031Y-82707438D01*
X156615824Y-82920941D01*
X156648578Y-82991796D01*
X156980491Y-83540582D01*
X157423706Y-84042998D01*
X157928782Y-84445895D01*
X158091795Y-84543158D01*
X158332523Y-84663303D01*
X158557206Y-84739389D01*
X158820958Y-84783294D01*
X159178895Y-84806896D01*
X159342667Y-84812749D01*
X159885565Y-84810960D01*
X160287627Y-84768119D01*
X160453300Y-84723853D01*
X161036698Y-84429196D01*
X161498780Y-84032774D01*
X161828246Y-83549752D01*
X162013792Y-82995292D01*
X162052000Y-82578877D01*
X162052000Y-82296000D01*
X160824333Y-82296000D01*
X160336702Y-82298417D01*
X159994465Y-82307317D01*
X159773732Y-82325172D01*
X159650612Y-82354452D01*
X159601213Y-82397629D01*
X159596667Y-82423000D01*
X159635680Y-82496743D01*
X159773981Y-82536335D01*
X160043459Y-82549749D01*
X160104667Y-82550000D01*
X160612667Y-82550000D01*
X160612535Y-83163833D01*
X160567242Y-83718387D01*
X160432356Y-84134332D01*
X160208968Y-84408855D01*
X160104667Y-84473740D01*
X159904955Y-84531645D01*
X159610619Y-84570585D01*
X159376354Y-84580751D01*
X158896351Y-84527205D01*
X158518382Y-84351784D01*
X158211310Y-84036241D01*
X158072667Y-83816723D01*
X158001107Y-83681952D01*
X157947245Y-83550494D01*
X157908055Y-83395758D01*
X157880512Y-83191157D01*
X157861593Y-82910101D01*
X157848272Y-82526002D01*
X157837524Y-82012271D01*
X157832251Y-81703333D01*
X157825025Y-80967259D01*
X157832643Y-80377543D01*
X157858463Y-79911603D01*
X157905840Y-79546855D01*
X157978133Y-79260713D01*
X158078698Y-79030594D01*
X158210892Y-78833914D01*
X158269108Y-78764394D01*
X158616987Y-78457676D01*
X159020344Y-78285901D01*
X159519382Y-78232002D01*
X159523009Y-78231999D01*
X160028894Y-78309609D01*
X160465516Y-78539498D01*
X160827813Y-78917254D01*
X161110724Y-79438464D01*
X161204095Y-79697319D01*
X161294132Y-79912240D01*
X161399549Y-79993492D01*
X161476871Y-79993653D01*
X161565411Y-79963503D01*
X161616167Y-79881929D01*
X161638787Y-79711669D01*
X161642915Y-79415462D01*
X161642504Y-79353833D01*
X161639508Y-79043264D01*
X161636229Y-78800064D01*
X161633337Y-78673062D01*
X161633123Y-78669071D01*
X161556562Y-78588573D01*
X161361625Y-78472005D01*
X161089888Y-78338883D01*
X160782924Y-78208724D01*
X160482307Y-78101045D01*
X160329760Y-78057215D01*
X159812057Y-77982445D01*
X159248444Y-77992284D01*
X159248444Y-77992284D01*
G37*
X159248444Y-77992284D02*
X158702834Y-78080311D01*
X158239140Y-78240106D01*
X158173218Y-78273859D01*
X157638229Y-78651184D01*
X157157745Y-79158116D01*
X156766807Y-79756053D01*
X156691328Y-79906424D01*
X156576104Y-80159285D01*
X156499412Y-80369674D01*
X156453444Y-80583505D01*
X156430389Y-80846688D01*
X156422437Y-81205135D01*
X156421667Y-81491666D01*
X156424959Y-81938607D01*
X156439310Y-82260638D01*
X156471430Y-82502126D01*
X156528031Y-82707438D01*
X156615824Y-82920941D01*
X156648578Y-82991796D01*
X156980491Y-83540582D01*
X157423706Y-84042998D01*
X157928782Y-84445895D01*
X158091795Y-84543158D01*
X158332523Y-84663303D01*
X158557206Y-84739389D01*
X158820958Y-84783294D01*
X159178895Y-84806896D01*
X159342667Y-84812749D01*
X159885565Y-84810960D01*
X160287627Y-84768119D01*
X160453300Y-84723853D01*
X161036698Y-84429196D01*
X161498780Y-84032774D01*
X161828246Y-83549752D01*
X162013792Y-82995292D01*
X162052000Y-82578877D01*
X162052000Y-82296000D01*
X160824333Y-82296000D01*
X160336702Y-82298417D01*
X159994465Y-82307317D01*
X159773732Y-82325172D01*
X159650612Y-82354452D01*
X159601213Y-82397629D01*
X159596667Y-82423000D01*
X159635680Y-82496743D01*
X159773981Y-82536335D01*
X160043459Y-82549749D01*
X160104667Y-82550000D01*
X160612667Y-82550000D01*
X160612535Y-83163833D01*
X160567242Y-83718387D01*
X160432356Y-84134332D01*
X160208968Y-84408855D01*
X160104667Y-84473740D01*
X159904955Y-84531645D01*
X159610619Y-84570585D01*
X159376354Y-84580751D01*
X158896351Y-84527205D01*
X158518382Y-84351784D01*
X158211310Y-84036241D01*
X158072667Y-83816723D01*
X158001107Y-83681952D01*
X157947245Y-83550494D01*
X157908055Y-83395758D01*
X157880512Y-83191157D01*
X157861593Y-82910101D01*
X157848272Y-82526002D01*
X157837524Y-82012271D01*
X157832251Y-81703333D01*
X157825025Y-80967259D01*
X157832643Y-80377543D01*
X157858463Y-79911603D01*
X157905840Y-79546855D01*
X157978133Y-79260713D01*
X158078698Y-79030594D01*
X158210892Y-78833914D01*
X158269108Y-78764394D01*
X158616987Y-78457676D01*
X159020344Y-78285901D01*
X159519382Y-78232002D01*
X159523009Y-78231999D01*
X160028894Y-78309609D01*
X160465516Y-78539498D01*
X160827813Y-78917254D01*
X161110724Y-79438464D01*
X161204095Y-79697319D01*
X161294132Y-79912240D01*
X161399549Y-79993492D01*
X161476871Y-79993653D01*
X161565411Y-79963503D01*
X161616167Y-79881929D01*
X161638787Y-79711669D01*
X161642915Y-79415462D01*
X161642504Y-79353833D01*
X161639508Y-79043264D01*
X161636229Y-78800064D01*
X161633337Y-78673062D01*
X161633123Y-78669071D01*
X161556562Y-78588573D01*
X161361625Y-78472005D01*
X161089888Y-78338883D01*
X160782924Y-78208724D01*
X160482307Y-78101045D01*
X160329760Y-78057215D01*
X159812057Y-77982445D01*
X159248444Y-77992284D01*
G36*
X164860729Y-78024869D02*
X164797070Y-78110047D01*
X164714969Y-78263281D01*
X164609064Y-78497629D01*
X164473989Y-78826147D01*
X164304381Y-79261892D01*
X164094875Y-79817923D01*
X163840107Y-80507295D01*
X163534713Y-81343067D01*
X163526850Y-81364666D01*
X163267447Y-82077695D01*
X163026847Y-82739763D01*
X162811051Y-83334305D01*
X162626059Y-83844756D01*
X162477871Y-84254552D01*
X162372488Y-84547129D01*
X162315909Y-84705921D01*
X162307762Y-84730166D01*
X162376447Y-84747938D01*
X162454167Y-84750902D01*
X162533990Y-84710274D01*
X162625501Y-84575292D01*
X162738816Y-84325635D01*
X162884050Y-83940983D01*
X162949406Y-83756069D01*
X163296479Y-82761666D01*
X165460935Y-82761666D01*
X165809217Y-83756500D01*
X166157498Y-84751333D01*
X167110416Y-84751333D01*
X167535644Y-84747514D01*
X167817408Y-84733859D01*
X167981455Y-84707068D01*
X168053527Y-84663841D01*
X168063333Y-84629201D01*
X167987228Y-84535479D01*
X167754327Y-84484759D01*
X167710294Y-84481034D01*
X167522683Y-84461378D01*
X167402631Y-84412222D01*
X167315239Y-84296737D01*
X167225608Y-84078091D01*
X167164169Y-83904666D01*
X167087885Y-83686747D01*
X166964548Y-83333810D01*
X166802842Y-82870734D01*
X166639179Y-82401833D01*
X165274801Y-82401833D01*
X165193563Y-82427508D01*
X164977665Y-82448206D01*
X164661760Y-82461548D01*
X164349305Y-82465333D01*
X163429276Y-82465333D01*
X163904805Y-81153310D01*
X164065709Y-80716239D01*
X164208525Y-80341233D01*
X164322862Y-80054553D01*
X164398332Y-79882462D01*
X164422667Y-79844241D01*
X164460577Y-79920465D01*
X164538310Y-80125019D01*
X164644812Y-80424725D01*
X164769028Y-80786404D01*
X164899904Y-81176876D01*
X165026386Y-81562964D01*
X165137418Y-81911488D01*
X165221947Y-82189269D01*
X165268918Y-82363129D01*
X165274801Y-82401833D01*
X166639179Y-82401833D01*
X166611453Y-82322399D01*
X166399066Y-81713682D01*
X166174364Y-81069465D01*
X166085395Y-80814333D01*
X165866275Y-80186586D01*
X165663067Y-79605664D01*
X165482992Y-79092113D01*
X165333270Y-78666480D01*
X165221123Y-78349310D01*
X165153771Y-78161151D01*
X165139078Y-78121690D01*
X165013317Y-78002866D01*
X164911312Y-77994690D01*
X164860729Y-78024869D01*
X164860729Y-78024869D01*
G37*
X164860729Y-78024869D02*
X164797070Y-78110047D01*
X164714969Y-78263281D01*
X164609064Y-78497629D01*
X164473989Y-78826147D01*
X164304381Y-79261892D01*
X164094875Y-79817923D01*
X163840107Y-80507295D01*
X163534713Y-81343067D01*
X163526850Y-81364666D01*
X163267447Y-82077695D01*
X163026847Y-82739763D01*
X162811051Y-83334305D01*
X162626059Y-83844756D01*
X162477871Y-84254552D01*
X162372488Y-84547129D01*
X162315909Y-84705921D01*
X162307762Y-84730166D01*
X162376447Y-84747938D01*
X162454167Y-84750902D01*
X162533990Y-84710274D01*
X162625501Y-84575292D01*
X162738816Y-84325635D01*
X162884050Y-83940983D01*
X162949406Y-83756069D01*
X163296479Y-82761666D01*
X165460935Y-82761666D01*
X165809217Y-83756500D01*
X166157498Y-84751333D01*
X167110416Y-84751333D01*
X167535644Y-84747514D01*
X167817408Y-84733859D01*
X167981455Y-84707068D01*
X168053527Y-84663841D01*
X168063333Y-84629201D01*
X167987228Y-84535479D01*
X167754327Y-84484759D01*
X167710294Y-84481034D01*
X167522683Y-84461378D01*
X167402631Y-84412222D01*
X167315239Y-84296737D01*
X167225608Y-84078091D01*
X167164169Y-83904666D01*
X167087885Y-83686747D01*
X166964548Y-83333810D01*
X166802842Y-82870734D01*
X166639179Y-82401833D01*
X165274801Y-82401833D01*
X165193563Y-82427508D01*
X164977665Y-82448206D01*
X164661760Y-82461548D01*
X164349305Y-82465333D01*
X163429276Y-82465333D01*
X163904805Y-81153310D01*
X164065709Y-80716239D01*
X164208525Y-80341233D01*
X164322862Y-80054553D01*
X164398332Y-79882462D01*
X164422667Y-79844241D01*
X164460577Y-79920465D01*
X164538310Y-80125019D01*
X164644812Y-80424725D01*
X164769028Y-80786404D01*
X164899904Y-81176876D01*
X165026386Y-81562964D01*
X165137418Y-81911488D01*
X165221947Y-82189269D01*
X165268918Y-82363129D01*
X165274801Y-82401833D01*
X166639179Y-82401833D01*
X166611453Y-82322399D01*
X166399066Y-81713682D01*
X166174364Y-81069465D01*
X166085395Y-80814333D01*
X165866275Y-80186586D01*
X165663067Y-79605664D01*
X165482992Y-79092113D01*
X165333270Y-78666480D01*
X165221123Y-78349310D01*
X165153771Y-78161151D01*
X165139078Y-78121690D01*
X165013317Y-78002866D01*
X164911312Y-77994690D01*
X164860729Y-78024869D01*
G36*
X153565197Y-81301166D02*
X153543000Y-84455000D01*
X153098500Y-84480591D01*
X152815095Y-84512795D01*
X152676875Y-84572637D01*
X152654000Y-84628757D01*
X152678004Y-84672729D01*
X152764003Y-84705093D01*
X152932976Y-84727491D01*
X153205902Y-84741566D01*
X153603760Y-84748959D01*
X154147531Y-84751311D01*
X154220333Y-84751333D01*
X154782086Y-84749462D01*
X155195537Y-84742752D01*
X155481688Y-84729556D01*
X155661541Y-84708229D01*
X155756097Y-84677124D01*
X155786359Y-84634594D01*
X155786667Y-84628558D01*
X155734370Y-84551046D01*
X155560485Y-84503290D01*
X155299833Y-84480391D01*
X154813000Y-84455000D01*
X154790764Y-81428166D01*
X154768528Y-78401333D01*
X155277597Y-78401333D01*
X155572922Y-78391616D01*
X155731631Y-78357161D01*
X155785611Y-78290015D01*
X155786667Y-78274333D01*
X155762127Y-78221418D01*
X155671801Y-78185159D01*
X155490633Y-78162661D01*
X155193565Y-78151031D01*
X154755539Y-78147374D01*
X154687031Y-78147333D01*
X153587394Y-78147333D01*
X153565197Y-81301166D01*
X153565197Y-81301166D01*
G37*
X153565197Y-81301166D02*
X153543000Y-84455000D01*
X153098500Y-84480591D01*
X152815095Y-84512795D01*
X152676875Y-84572637D01*
X152654000Y-84628757D01*
X152678004Y-84672729D01*
X152764003Y-84705093D01*
X152932976Y-84727491D01*
X153205902Y-84741566D01*
X153603760Y-84748959D01*
X154147531Y-84751311D01*
X154220333Y-84751333D01*
X154782086Y-84749462D01*
X155195537Y-84742752D01*
X155481688Y-84729556D01*
X155661541Y-84708229D01*
X155756097Y-84677124D01*
X155786359Y-84634594D01*
X155786667Y-84628558D01*
X155734370Y-84551046D01*
X155560485Y-84503290D01*
X155299833Y-84480391D01*
X154813000Y-84455000D01*
X154790764Y-81428166D01*
X154768528Y-78401333D01*
X155277597Y-78401333D01*
X155572922Y-78391616D01*
X155731631Y-78357161D01*
X155785611Y-78290015D01*
X155786667Y-78274333D01*
X155762127Y-78221418D01*
X155671801Y-78185159D01*
X155490633Y-78162661D01*
X155193565Y-78151031D01*
X154755539Y-78147374D01*
X154687031Y-78147333D01*
X153587394Y-78147333D01*
X153565197Y-81301166D01*
G36*
X150520052Y-78165322D02*
X149740770Y-78189666D01*
X149059552Y-80281004D01*
X148874332Y-80845674D01*
X148704416Y-81356184D01*
X148557266Y-81790709D01*
X148440347Y-82127427D01*
X148361121Y-82344514D01*
X148328159Y-82419622D01*
X148291152Y-82354925D01*
X148212278Y-82148492D01*
X148098439Y-81820745D01*
X147956538Y-81392106D01*
X147793479Y-80882998D01*
X147616164Y-80313843D01*
X147614097Y-80307118D01*
X146950209Y-78147333D01*
X145646382Y-78147333D01*
X145128763Y-78150462D01*
X144761696Y-78160890D01*
X144526498Y-78180174D01*
X144404484Y-78209872D01*
X144376971Y-78251543D01*
X144377467Y-78253166D01*
X144480751Y-78321244D01*
X144717397Y-78369517D01*
X144892523Y-78384391D01*
X145372667Y-78409783D01*
X145372667Y-81580558D01*
X145372892Y-82396128D01*
X145374138Y-83058332D01*
X145377255Y-83583137D01*
X145383098Y-83986512D01*
X145392519Y-84284423D01*
X145406370Y-84492838D01*
X145425504Y-84627725D01*
X145450775Y-84705051D01*
X145483034Y-84740783D01*
X145523135Y-84750889D01*
X145542000Y-84751333D01*
X145586488Y-84746904D01*
X145622459Y-84722725D01*
X145650861Y-84662453D01*
X145672645Y-84549748D01*
X145688759Y-84368268D01*
X145700152Y-84101672D01*
X145707773Y-83733620D01*
X145712571Y-83247769D01*
X145715495Y-82627780D01*
X145717494Y-81857310D01*
X145717779Y-81724500D01*
X145724225Y-78697666D01*
X146218963Y-80221666D01*
X146422993Y-80851993D01*
X146654155Y-81569110D01*
X146889460Y-82301525D01*
X147105921Y-82977744D01*
X147193833Y-83253386D01*
X147364733Y-83784666D01*
X147495759Y-84174609D01*
X147596076Y-84443954D01*
X147674849Y-84613442D01*
X147741243Y-84703812D01*
X147804422Y-84735805D01*
X147848559Y-84735052D01*
X147900049Y-84710361D01*
X147957564Y-84641479D01*
X148026648Y-84513664D01*
X148112840Y-84312175D01*
X148221685Y-84022270D01*
X148358724Y-83629207D01*
X148529499Y-83118245D01*
X148739553Y-82474643D01*
X148986761Y-81707538D01*
X149205719Y-81027692D01*
X149409320Y-80399686D01*
X149591621Y-79841536D01*
X149746681Y-79371257D01*
X149868556Y-79006862D01*
X149951306Y-78766366D01*
X149988986Y-78667785D01*
X149989851Y-78666593D01*
X149998878Y-78738862D01*
X150007180Y-78961938D01*
X150014515Y-79317295D01*
X150020639Y-79786407D01*
X150025312Y-80350750D01*
X150028290Y-80991797D01*
X150029333Y-81689222D01*
X150029333Y-84751333D01*
X151130000Y-84751333D01*
X151588407Y-84748502D01*
X151902592Y-84738085D01*
X152097605Y-84717190D01*
X152198491Y-84682927D01*
X152230299Y-84632406D01*
X152230667Y-84624333D01*
X152188860Y-84547744D01*
X152042164Y-84508313D01*
X151765000Y-84497333D01*
X151299333Y-84497333D01*
X151299333Y-78140978D01*
X150520052Y-78165322D01*
X150520052Y-78165322D01*
G37*
X150520052Y-78165322D02*
X149740770Y-78189666D01*
X149059552Y-80281004D01*
X148874332Y-80845674D01*
X148704416Y-81356184D01*
X148557266Y-81790709D01*
X148440347Y-82127427D01*
X148361121Y-82344514D01*
X148328159Y-82419622D01*
X148291152Y-82354925D01*
X148212278Y-82148492D01*
X148098439Y-81820745D01*
X147956538Y-81392106D01*
X147793479Y-80882998D01*
X147616164Y-80313843D01*
X147614097Y-80307118D01*
X146950209Y-78147333D01*
X145646382Y-78147333D01*
X145128763Y-78150462D01*
X144761696Y-78160890D01*
X144526498Y-78180174D01*
X144404484Y-78209872D01*
X144376971Y-78251543D01*
X144377467Y-78253166D01*
X144480751Y-78321244D01*
X144717397Y-78369517D01*
X144892523Y-78384391D01*
X145372667Y-78409783D01*
X145372667Y-81580558D01*
X145372892Y-82396128D01*
X145374138Y-83058332D01*
X145377255Y-83583137D01*
X145383098Y-83986512D01*
X145392519Y-84284423D01*
X145406370Y-84492838D01*
X145425504Y-84627725D01*
X145450775Y-84705051D01*
X145483034Y-84740783D01*
X145523135Y-84750889D01*
X145542000Y-84751333D01*
X145586488Y-84746904D01*
X145622459Y-84722725D01*
X145650861Y-84662453D01*
X145672645Y-84549748D01*
X145688759Y-84368268D01*
X145700152Y-84101672D01*
X145707773Y-83733620D01*
X145712571Y-83247769D01*
X145715495Y-82627780D01*
X145717494Y-81857310D01*
X145717779Y-81724500D01*
X145724225Y-78697666D01*
X146218963Y-80221666D01*
X146422993Y-80851993D01*
X146654155Y-81569110D01*
X146889460Y-82301525D01*
X147105921Y-82977744D01*
X147193833Y-83253386D01*
X147364733Y-83784666D01*
X147495759Y-84174609D01*
X147596076Y-84443954D01*
X147674849Y-84613442D01*
X147741243Y-84703812D01*
X147804422Y-84735805D01*
X147848559Y-84735052D01*
X147900049Y-84710361D01*
X147957564Y-84641479D01*
X148026648Y-84513664D01*
X148112840Y-84312175D01*
X148221685Y-84022270D01*
X148358724Y-83629207D01*
X148529499Y-83118245D01*
X148739553Y-82474643D01*
X148986761Y-81707538D01*
X149205719Y-81027692D01*
X149409320Y-80399686D01*
X149591621Y-79841536D01*
X149746681Y-79371257D01*
X149868556Y-79006862D01*
X149951306Y-78766366D01*
X149988986Y-78667785D01*
X149989851Y-78666593D01*
X149998878Y-78738862D01*
X150007180Y-78961938D01*
X150014515Y-79317295D01*
X150020639Y-79786407D01*
X150025312Y-80350750D01*
X150028290Y-80991797D01*
X150029333Y-81689222D01*
X150029333Y-84751333D01*
X151130000Y-84751333D01*
X151588407Y-84748502D01*
X151902592Y-84738085D01*
X152097605Y-84717190D01*
X152198491Y-84682927D01*
X152230299Y-84632406D01*
X152230667Y-84624333D01*
X152188860Y-84547744D01*
X152042164Y-84508313D01*
X151765000Y-84497333D01*
X151299333Y-84497333D01*
X151299333Y-78140978D01*
X150520052Y-78165322D01*
G36*
X141813649Y-77990117D02*
X141790435Y-77994732D01*
X141738923Y-78021842D01*
X141677007Y-78098048D01*
X141599021Y-78237017D01*
X141499299Y-78452415D01*
X141372176Y-78757907D01*
X141211986Y-79167161D01*
X141013062Y-79693841D01*
X140769738Y-80351615D01*
X140476350Y-81154149D01*
X140445941Y-81237666D01*
X140137706Y-82083883D01*
X139882510Y-82784313D01*
X139676015Y-83352484D01*
X139513883Y-83801924D01*
X139391773Y-84146162D01*
X139305348Y-84398726D01*
X139250268Y-84573144D01*
X139222195Y-84682946D01*
X139216790Y-84741658D01*
X139229714Y-84762810D01*
X139256628Y-84759930D01*
X139293194Y-84746546D01*
X139323326Y-84737949D01*
X139417153Y-84659427D01*
X139536271Y-84448643D01*
X139686476Y-84093891D01*
X139819787Y-83735333D01*
X140168570Y-82761666D01*
X142302184Y-82714442D01*
X142669433Y-83732887D01*
X143036682Y-84751333D01*
X143993008Y-84751333D01*
X144419095Y-84747535D01*
X144701683Y-84733951D01*
X144866483Y-84707298D01*
X144939203Y-84664293D01*
X144949333Y-84629201D01*
X144875005Y-84536631D01*
X144646055Y-84485884D01*
X144589500Y-84481034D01*
X144229667Y-84455000D01*
X143514189Y-82401933D01*
X142155333Y-82401933D01*
X142076379Y-82427441D01*
X141862329Y-82448045D01*
X141547400Y-82461410D01*
X141226521Y-82465333D01*
X140297708Y-82465333D01*
X140642581Y-81512833D01*
X140792437Y-81097959D01*
X140934270Y-80703555D01*
X141050578Y-80378389D01*
X141115966Y-80193806D01*
X141203346Y-79992651D01*
X141280527Y-79894677D01*
X141308346Y-79897472D01*
X141353232Y-79995401D01*
X141437958Y-80219682D01*
X141550718Y-80535407D01*
X141679704Y-80907663D01*
X141813110Y-81301539D01*
X141939129Y-81682124D01*
X142045955Y-82014507D01*
X142121780Y-82263776D01*
X142154799Y-82395021D01*
X142155333Y-82401933D01*
X143514189Y-82401933D01*
X143492024Y-82338333D01*
X143161914Y-81390787D01*
X142883035Y-80590679D01*
X142650552Y-79925665D01*
X142459629Y-79383403D01*
X142305430Y-78951547D01*
X142183120Y-78617755D01*
X142087864Y-78369683D01*
X142014825Y-78194987D01*
X141959168Y-78081323D01*
X141916058Y-78016348D01*
X141880658Y-77987718D01*
X141848134Y-77983089D01*
X141813649Y-77990117D01*
X141813649Y-77990117D01*
G37*
X141813649Y-77990117D02*
X141790435Y-77994732D01*
X141738923Y-78021842D01*
X141677007Y-78098048D01*
X141599021Y-78237017D01*
X141499299Y-78452415D01*
X141372176Y-78757907D01*
X141211986Y-79167161D01*
X141013062Y-79693841D01*
X140769738Y-80351615D01*
X140476350Y-81154149D01*
X140445941Y-81237666D01*
X140137706Y-82083883D01*
X139882510Y-82784313D01*
X139676015Y-83352484D01*
X139513883Y-83801924D01*
X139391773Y-84146162D01*
X139305348Y-84398726D01*
X139250268Y-84573144D01*
X139222195Y-84682946D01*
X139216790Y-84741658D01*
X139229714Y-84762810D01*
X139256628Y-84759930D01*
X139293194Y-84746546D01*
X139323326Y-84737949D01*
X139417153Y-84659427D01*
X139536271Y-84448643D01*
X139686476Y-84093891D01*
X139819787Y-83735333D01*
X140168570Y-82761666D01*
X142302184Y-82714442D01*
X142669433Y-83732887D01*
X143036682Y-84751333D01*
X143993008Y-84751333D01*
X144419095Y-84747535D01*
X144701683Y-84733951D01*
X144866483Y-84707298D01*
X144939203Y-84664293D01*
X144949333Y-84629201D01*
X144875005Y-84536631D01*
X144646055Y-84485884D01*
X144589500Y-84481034D01*
X144229667Y-84455000D01*
X143514189Y-82401933D01*
X142155333Y-82401933D01*
X142076379Y-82427441D01*
X141862329Y-82448045D01*
X141547400Y-82461410D01*
X141226521Y-82465333D01*
X140297708Y-82465333D01*
X140642581Y-81512833D01*
X140792437Y-81097959D01*
X140934270Y-80703555D01*
X141050578Y-80378389D01*
X141115966Y-80193806D01*
X141203346Y-79992651D01*
X141280527Y-79894677D01*
X141308346Y-79897472D01*
X141353232Y-79995401D01*
X141437958Y-80219682D01*
X141550718Y-80535407D01*
X141679704Y-80907663D01*
X141813110Y-81301539D01*
X141939129Y-81682124D01*
X142045955Y-82014507D01*
X142121780Y-82263776D01*
X142154799Y-82395021D01*
X142155333Y-82401933D01*
X143514189Y-82401933D01*
X143492024Y-82338333D01*
X143161914Y-81390787D01*
X142883035Y-80590679D01*
X142650552Y-79925665D01*
X142459629Y-79383403D01*
X142305430Y-78951547D01*
X142183120Y-78617755D01*
X142087864Y-78369683D01*
X142014825Y-78194987D01*
X141959168Y-78081323D01*
X141916058Y-78016348D01*
X141880658Y-77987718D01*
X141848134Y-77983089D01*
X141813649Y-77990117D01*
G36*
X154790651Y-75208306D02*
X154581951Y-75271446D01*
X154305332Y-75358747D01*
X154006114Y-75455538D01*
X153729620Y-75547147D01*
X153521170Y-75618903D01*
X153426086Y-75656133D01*
X153424882Y-75657034D01*
X153430646Y-75746597D01*
X153474504Y-75952418D01*
X153544020Y-76229133D01*
X153626757Y-76531381D01*
X153710280Y-76813802D01*
X153782152Y-77031032D01*
X153829936Y-77137711D01*
X153831201Y-77139068D01*
X153929673Y-77139433D01*
X154150139Y-77097916D01*
X154452824Y-77022674D01*
X154601333Y-76981122D01*
X154926546Y-76884651D01*
X155184272Y-76803552D01*
X155335261Y-76750381D01*
X155357654Y-76739178D01*
X155347316Y-76653384D01*
X155296778Y-76450967D01*
X155219142Y-76175138D01*
X155127510Y-75869109D01*
X155034983Y-75576091D01*
X154954665Y-75339293D01*
X154899656Y-75201928D01*
X154886111Y-75184000D01*
X154790651Y-75208306D01*
X154790651Y-75208306D01*
G37*
X154790651Y-75208306D02*
X154581951Y-75271446D01*
X154305332Y-75358747D01*
X154006114Y-75455538D01*
X153729620Y-75547147D01*
X153521170Y-75618903D01*
X153426086Y-75656133D01*
X153424882Y-75657034D01*
X153430646Y-75746597D01*
X153474504Y-75952418D01*
X153544020Y-76229133D01*
X153626757Y-76531381D01*
X153710280Y-76813802D01*
X153782152Y-77031032D01*
X153829936Y-77137711D01*
X153831201Y-77139068D01*
X153929673Y-77139433D01*
X154150139Y-77097916D01*
X154452824Y-77022674D01*
X154601333Y-76981122D01*
X154926546Y-76884651D01*
X155184272Y-76803552D01*
X155335261Y-76750381D01*
X155357654Y-76739178D01*
X155347316Y-76653384D01*
X155296778Y-76450967D01*
X155219142Y-76175138D01*
X155127510Y-75869109D01*
X155034983Y-75576091D01*
X154954665Y-75339293D01*
X154899656Y-75201928D01*
X154886111Y-75184000D01*
X154790651Y-75208306D01*
M02*
