G04 #@! TF.FileFunction,Soldermask,Top*
%FSLAX46Y46*%
G04 Gerber Fmt 4.6, Leading zero omitted, Abs format (unit mm)*
G04 Created by KiCad (PCBNEW 4.0.2+dfsg1-stable) date Sat 02 Mar 2019 14:04:28 CET*
%MOMM*%
G01*
G04 APERTURE LIST*
%ADD10C,0.100000*%
%ADD11R,2.400000X2.100000*%
%ADD12R,1.997660X2.200860*%
%ADD13R,1.400000X5.400000*%
%ADD14R,3.900120X2.200860*%
%ADD15R,1.920000X1.920000*%
%ADD16C,1.920000*%
%ADD17R,1.750000X1.750000*%
%ADD18O,1.750000X1.750000*%
%ADD19C,1.000000*%
G04 APERTURE END LIST*
D10*
D11*
X177000000Y-90000000D03*
X173000000Y-90000000D03*
X178000000Y-64000000D03*
X174000000Y-64000000D03*
X178000000Y-44000000D03*
X174000000Y-44000000D03*
D12*
X180580140Y-64000000D03*
X183419860Y-64000000D03*
X180580140Y-44000000D03*
X183419860Y-44000000D03*
X179580140Y-90000000D03*
X182419860Y-90000000D03*
D13*
X128860000Y-133620000D03*
X130860000Y-133620000D03*
X132860000Y-133620000D03*
X134860000Y-133620000D03*
X136860000Y-133620000D03*
X138860000Y-133620000D03*
X140860000Y-133620000D03*
X142860000Y-133620000D03*
X144860000Y-133620000D03*
X146860000Y-133620000D03*
X148860000Y-133620000D03*
X150860000Y-133620000D03*
X152860000Y-133620000D03*
X154860000Y-133620000D03*
X156860000Y-133620000D03*
X158860000Y-133620000D03*
X160860000Y-133620000D03*
X162860000Y-133620000D03*
X164860000Y-133620000D03*
X166860000Y-133620000D03*
X168860000Y-133620000D03*
X170860000Y-133620000D03*
D14*
X169499360Y-64000000D03*
X164500640Y-64000000D03*
X169499360Y-44000000D03*
X164500640Y-44000000D03*
X169499360Y-90000000D03*
X164500640Y-90000000D03*
D15*
X126000000Y-73000000D03*
D16*
X126000000Y-70460000D03*
X128540000Y-73000000D03*
X128540000Y-70460000D03*
X131080000Y-73000000D03*
X131080000Y-70460000D03*
X133620000Y-73000000D03*
X133620000Y-70460000D03*
X136160000Y-73000000D03*
X136160000Y-70460000D03*
X138700000Y-73000000D03*
X138700000Y-70460000D03*
X141240000Y-73000000D03*
X141240000Y-70460000D03*
X143780000Y-73000000D03*
X143780000Y-70460000D03*
X146320000Y-73000000D03*
X146320000Y-70460000D03*
X148860000Y-73000000D03*
X148860000Y-70460000D03*
X151400000Y-73000000D03*
X151400000Y-70460000D03*
X153940000Y-73000000D03*
X153940000Y-70460000D03*
X156480000Y-73000000D03*
X156480000Y-70460000D03*
X159020000Y-73000000D03*
X159020000Y-70460000D03*
X161560000Y-73000000D03*
X161560000Y-70460000D03*
X164100000Y-73000000D03*
X164100000Y-70460000D03*
X166640000Y-73000000D03*
X166640000Y-70460000D03*
X169180000Y-73000000D03*
X169180000Y-70460000D03*
X171720000Y-73000000D03*
X171720000Y-70460000D03*
X174260000Y-73000000D03*
X174260000Y-70460000D03*
D15*
X126000000Y-54000000D03*
D16*
X126000000Y-51460000D03*
X128540000Y-54000000D03*
X128540000Y-51460000D03*
X131080000Y-54000000D03*
X131080000Y-51460000D03*
X133620000Y-54000000D03*
X133620000Y-51460000D03*
X136160000Y-54000000D03*
X136160000Y-51460000D03*
X138700000Y-54000000D03*
X138700000Y-51460000D03*
X141240000Y-54000000D03*
X141240000Y-51460000D03*
X143780000Y-54000000D03*
X143780000Y-51460000D03*
X146320000Y-54000000D03*
X146320000Y-51460000D03*
X148860000Y-54000000D03*
X148860000Y-51460000D03*
X151400000Y-54000000D03*
X151400000Y-51460000D03*
X153940000Y-54000000D03*
X153940000Y-51460000D03*
X156480000Y-54000000D03*
X156480000Y-51460000D03*
X159020000Y-54000000D03*
X159020000Y-51460000D03*
X161560000Y-54000000D03*
X161560000Y-51460000D03*
X164100000Y-54000000D03*
X164100000Y-51460000D03*
X166640000Y-54000000D03*
X166640000Y-51460000D03*
X169180000Y-54000000D03*
X169180000Y-51460000D03*
X171720000Y-54000000D03*
X171720000Y-51460000D03*
X174260000Y-54000000D03*
X174260000Y-51460000D03*
D17*
X129000000Y-98000000D03*
D18*
X129000000Y-96000000D03*
X131000000Y-98000000D03*
X131000000Y-96000000D03*
X133000000Y-98000000D03*
X133000000Y-96000000D03*
X135000000Y-98000000D03*
X135000000Y-96000000D03*
X137000000Y-98000000D03*
X137000000Y-96000000D03*
X139000000Y-98000000D03*
X139000000Y-96000000D03*
X141000000Y-98000000D03*
X141000000Y-96000000D03*
X143000000Y-98000000D03*
X143000000Y-96000000D03*
X145000000Y-98000000D03*
X145000000Y-96000000D03*
X147000000Y-98000000D03*
X147000000Y-96000000D03*
X149000000Y-98000000D03*
X149000000Y-96000000D03*
X151000000Y-98000000D03*
X151000000Y-96000000D03*
X153000000Y-98000000D03*
X153000000Y-96000000D03*
X155000000Y-98000000D03*
X155000000Y-96000000D03*
X157000000Y-98000000D03*
X157000000Y-96000000D03*
X159000000Y-98000000D03*
X159000000Y-96000000D03*
X161000000Y-98000000D03*
X161000000Y-96000000D03*
X163000000Y-98000000D03*
X163000000Y-96000000D03*
X165000000Y-98000000D03*
X165000000Y-96000000D03*
X167000000Y-98000000D03*
X167000000Y-96000000D03*
X169000000Y-98000000D03*
X169000000Y-96000000D03*
X171000000Y-98000000D03*
X171000000Y-96000000D03*
D19*
X171833300Y-98888700D03*
X168579700Y-75684400D03*
X129658000Y-94911100D03*
X130366600Y-93357200D03*
X133620000Y-92393900D03*
X135244500Y-91018700D03*
X138645100Y-90533200D03*
X141073000Y-85617400D03*
X143656200Y-82326800D03*
X146309300Y-79573900D03*
X148666600Y-78923500D03*
X151720900Y-76135000D03*
X159020000Y-76231800D03*
X161560000Y-79613200D03*
X157967500Y-116939900D03*
X171461900Y-87429700D03*
X166640000Y-85584300D03*
X168065700Y-88564900D03*
X170889700Y-92448800D03*
X168786600Y-130571000D03*
X170049100Y-129906700D03*
X169482900Y-119279300D03*
X128513000Y-79328400D03*
X131016900Y-77585100D03*
X167251200Y-86123100D03*
M02*
