G04 #@! TF.FileFunction,Copper,L1,Top,Signal*
%FSLAX46Y46*%
G04 Gerber Fmt 4.6, Leading zero omitted, Abs format (unit mm)*
G04 Created by KiCad (PCBNEW 4.0.2+dfsg1-stable) date Fri 01 Mar 2019 22:17:21 CET*
%MOMM*%
G01*
G04 APERTURE LIST*
%ADD10C,0.100000*%
%ADD11C,0.381000*%
%ADD12R,1.520000X1.520000*%
%ADD13C,1.520000*%
%ADD14R,0.635000X3.000000*%
%ADD15R,1.597660X1.800860*%
%ADD16R,2.000000X2.000000*%
%ADD17R,1.000000X1.000000*%
%ADD18O,1.000000X1.000000*%
%ADD19R,3.500120X1.800860*%
%ADD20C,0.600000*%
%ADD21C,0.300000*%
%ADD22C,0.254000*%
G04 APERTURE END LIST*
D10*
D11*
X141800580Y-106979720D02*
X141800580Y-108579920D01*
X141800580Y-108579920D02*
X142999460Y-108579920D01*
X139301220Y-108579920D02*
X139301220Y-107078780D01*
X139301220Y-107078780D02*
X140200380Y-107078780D01*
X140200380Y-107078780D02*
X140401040Y-107078780D01*
X140401040Y-107078780D02*
X140599160Y-107180380D01*
X140599160Y-107180380D02*
X140700760Y-107381040D01*
X140700760Y-107381040D02*
X140700760Y-107579160D01*
X140700760Y-107579160D02*
X140500100Y-107779820D01*
X140500100Y-107779820D02*
X140200380Y-107878880D01*
X140200380Y-107878880D02*
X139301220Y-107878880D01*
X138099800Y-107180380D02*
X137899140Y-107078780D01*
X137899140Y-107078780D02*
X137398760Y-107078780D01*
X137398760Y-107078780D02*
X137099040Y-107180380D01*
X137099040Y-107180380D02*
X136900920Y-107279440D01*
X136900920Y-107279440D02*
X136700260Y-107579160D01*
X136700260Y-107579160D02*
X136700260Y-107878880D01*
X136700260Y-107878880D02*
X136799320Y-108280200D01*
X136799320Y-108280200D02*
X137099040Y-108480860D01*
X137099040Y-108480860D02*
X137398760Y-108579920D01*
X137398760Y-108579920D02*
X137701020Y-108579920D01*
X137701020Y-108579920D02*
X138198860Y-108480860D01*
X138198860Y-108480860D02*
X138198860Y-107980480D01*
X138198860Y-107980480D02*
X137701020Y-107980480D01*
X141500860Y-104480360D02*
X141500860Y-105780840D01*
X141500860Y-105780840D02*
X141800580Y-105978960D01*
X141800580Y-105978960D02*
X142100300Y-105978960D01*
X142100300Y-105978960D02*
X142499080Y-105978960D01*
X142499080Y-105978960D02*
X142798800Y-105879900D01*
X142798800Y-105879900D02*
X142999460Y-105780840D01*
X142999460Y-105780840D02*
X142999460Y-104480360D01*
X138899900Y-105978960D02*
X138899900Y-104480360D01*
X138899900Y-104480360D02*
X140401040Y-105978960D01*
X140401040Y-105978960D02*
X140401040Y-104480360D01*
X137701020Y-104579420D02*
X137398760Y-104480360D01*
X137398760Y-104480360D02*
X136900920Y-104579420D01*
X136900920Y-104579420D02*
X136499600Y-104780080D01*
X136499600Y-104780080D02*
X136298940Y-105178860D01*
X136298940Y-105178860D02*
X136400540Y-105580180D01*
X136400540Y-105580180D02*
X136700260Y-105879900D01*
X136700260Y-105879900D02*
X137200640Y-106080560D01*
X137200640Y-106080560D02*
X137899140Y-105879900D01*
X137899140Y-105879900D02*
X137899140Y-105379520D01*
X137899140Y-105379520D02*
X137398760Y-105379520D01*
X135636000Y-103632000D02*
X143764000Y-103632000D01*
X143764000Y-103632000D02*
X143764000Y-109220000D01*
X143764000Y-109220000D02*
X135636000Y-109220000D01*
X135636000Y-109220000D02*
X135636000Y-103632000D01*
D12*
X132080000Y-71120000D03*
D13*
X132080000Y-68580000D03*
X134620000Y-71120000D03*
X134620000Y-68580000D03*
X137160000Y-71120000D03*
X137160000Y-68580000D03*
X139700000Y-71120000D03*
X139700000Y-68580000D03*
X142240000Y-71120000D03*
X142240000Y-68580000D03*
X144780000Y-71120000D03*
X144780000Y-68580000D03*
X147320000Y-71120000D03*
X147320000Y-68580000D03*
X149860000Y-71120000D03*
X149860000Y-68580000D03*
X152400000Y-71120000D03*
X152400000Y-68580000D03*
X154940000Y-71120000D03*
X154940000Y-68580000D03*
X157480000Y-71120000D03*
X157480000Y-68580000D03*
X160020000Y-71120000D03*
X160020000Y-68580000D03*
X162560000Y-71120000D03*
X162560000Y-68580000D03*
X165100000Y-71120000D03*
X165100000Y-68580000D03*
X167640000Y-71120000D03*
X167640000Y-68580000D03*
X170180000Y-71120000D03*
X170180000Y-68580000D03*
X172720000Y-71120000D03*
X172720000Y-68580000D03*
X175260000Y-71120000D03*
X175260000Y-68580000D03*
X177800000Y-71120000D03*
X177800000Y-68580000D03*
X180340000Y-71120000D03*
X180340000Y-68580000D03*
D14*
X142240000Y-130810000D03*
X143510000Y-130810000D03*
X144780000Y-130810000D03*
X146050000Y-130810000D03*
X147320000Y-130810000D03*
X148590000Y-130810000D03*
X149860000Y-130810000D03*
X151130000Y-130810000D03*
X152400000Y-130810000D03*
X153670000Y-130810000D03*
X154940000Y-130810000D03*
X156210000Y-130810000D03*
X157480000Y-130810000D03*
X158750000Y-130810000D03*
X160020000Y-130810000D03*
X161290000Y-130810000D03*
X162560000Y-130810000D03*
X163830000Y-130810000D03*
X165100000Y-130810000D03*
X166370000Y-130810000D03*
X167640000Y-130810000D03*
X168910000Y-130810000D03*
D15*
X185270140Y-101600000D03*
X188109860Y-101600000D03*
X186540140Y-77470000D03*
X189379860Y-77470000D03*
D16*
X182340000Y-101600000D03*
X178340000Y-101600000D03*
X183610000Y-77470000D03*
X179610000Y-77470000D03*
D12*
X132080000Y-95250000D03*
D13*
X132080000Y-92710000D03*
X134620000Y-95250000D03*
X134620000Y-92710000D03*
X137160000Y-95250000D03*
X137160000Y-92710000D03*
X139700000Y-95250000D03*
X139700000Y-92710000D03*
X142240000Y-95250000D03*
X142240000Y-92710000D03*
X144780000Y-95250000D03*
X144780000Y-92710000D03*
X147320000Y-95250000D03*
X147320000Y-92710000D03*
X149860000Y-95250000D03*
X149860000Y-92710000D03*
X152400000Y-95250000D03*
X152400000Y-92710000D03*
X154940000Y-95250000D03*
X154940000Y-92710000D03*
X157480000Y-95250000D03*
X157480000Y-92710000D03*
X160020000Y-95250000D03*
X160020000Y-92710000D03*
X162560000Y-95250000D03*
X162560000Y-92710000D03*
X165100000Y-95250000D03*
X165100000Y-92710000D03*
X167640000Y-95250000D03*
X167640000Y-92710000D03*
X170180000Y-95250000D03*
X170180000Y-92710000D03*
X172720000Y-95250000D03*
X172720000Y-92710000D03*
X175260000Y-95250000D03*
X175260000Y-92710000D03*
X177800000Y-95250000D03*
X177800000Y-92710000D03*
X180340000Y-95250000D03*
X180340000Y-92710000D03*
D17*
X143510000Y-82550000D03*
D18*
X143510000Y-83820000D03*
X144780000Y-82550000D03*
X144780000Y-83820000D03*
X146050000Y-82550000D03*
X146050000Y-83820000D03*
X147320000Y-82550000D03*
X147320000Y-83820000D03*
X148590000Y-82550000D03*
X148590000Y-83820000D03*
X149860000Y-82550000D03*
X149860000Y-83820000D03*
X151130000Y-82550000D03*
X151130000Y-83820000D03*
X152400000Y-82550000D03*
X152400000Y-83820000D03*
X153670000Y-82550000D03*
X153670000Y-83820000D03*
X154940000Y-82550000D03*
X154940000Y-83820000D03*
X156210000Y-82550000D03*
X156210000Y-83820000D03*
X157480000Y-82550000D03*
X157480000Y-83820000D03*
X158750000Y-82550000D03*
X158750000Y-83820000D03*
X160020000Y-82550000D03*
X160020000Y-83820000D03*
X161290000Y-82550000D03*
X161290000Y-83820000D03*
X162560000Y-82550000D03*
X162560000Y-83820000D03*
X163830000Y-82550000D03*
X163830000Y-83820000D03*
X165100000Y-82550000D03*
X165100000Y-83820000D03*
X166370000Y-82550000D03*
X166370000Y-83820000D03*
X167640000Y-82550000D03*
X167640000Y-83820000D03*
X168910000Y-82550000D03*
X168910000Y-83820000D03*
X170180000Y-82550000D03*
X170180000Y-83820000D03*
D19*
X170220640Y-78740000D03*
X175219360Y-78740000D03*
X168950640Y-102870000D03*
X173949360Y-102870000D03*
D20*
X170934700Y-81874400D03*
X131665800Y-91427400D03*
X142006200Y-128787600D03*
X162351700Y-84885400D03*
X143510000Y-128248500D03*
X144780000Y-127454200D03*
X144335600Y-85995400D03*
X136662500Y-75021900D03*
X131469900Y-89771800D03*
X146167000Y-128088200D03*
X147210600Y-123794900D03*
X148590000Y-122860700D03*
X137072900Y-88469300D03*
X142204100Y-81373900D03*
X150316800Y-127390600D03*
X151552800Y-128049000D03*
X129211900Y-96325700D03*
X153017200Y-128853600D03*
X154284700Y-127694200D03*
X155557000Y-128853600D03*
X156824200Y-101985800D03*
X157494200Y-66637700D03*
X160102400Y-127418900D03*
X167098000Y-106321700D03*
X174957300Y-104517900D03*
X186242600Y-82915100D03*
X160585400Y-128563300D03*
X167827300Y-90042200D03*
X166461500Y-90993900D03*
X170378200Y-80148300D03*
X168907000Y-92430400D03*
X162733600Y-128786100D03*
X166989600Y-75980600D03*
X172358800Y-75980600D03*
X174065200Y-82730600D03*
X176371100Y-80639100D03*
X182753600Y-93804500D03*
X181498100Y-96959000D03*
X167640000Y-128798000D03*
X179000700Y-79429700D03*
X179083200Y-100054900D03*
X186892900Y-81224100D03*
X178432400Y-89783300D03*
X164570800Y-97030800D03*
X168102900Y-127363500D03*
X176511600Y-99317500D03*
X134722300Y-85542800D03*
X152681300Y-79220300D03*
X155416700Y-80127100D03*
X129338500Y-95197600D03*
X129338500Y-65944200D03*
X160436900Y-99169900D03*
X130163000Y-99557800D03*
X126973300Y-64949500D03*
X169173800Y-90123800D03*
X169971600Y-90811900D03*
X173857600Y-76750700D03*
X165701300Y-76750700D03*
D21*
X182340000Y-101600000D02*
X185270100Y-101600000D01*
X188109900Y-101600000D02*
X186960800Y-101600000D01*
X186960800Y-104556100D02*
X186960800Y-101600000D01*
X166370000Y-125146900D02*
X186960800Y-104556100D01*
X166370000Y-130810000D02*
X166370000Y-125146900D01*
X181124300Y-95250000D02*
X180340000Y-95250000D01*
X186960800Y-101086500D02*
X181124300Y-95250000D01*
X186960800Y-101600000D02*
X186960800Y-101086500D01*
X171443200Y-81874400D02*
X170934700Y-81874400D01*
X181469400Y-91900600D02*
X171443200Y-81874400D01*
X181469400Y-94120600D02*
X181469400Y-91900600D01*
X180340000Y-95250000D02*
X181469400Y-94120600D01*
X183610000Y-77470000D02*
X186540100Y-77470000D01*
X182455300Y-71120000D02*
X180340000Y-71120000D01*
X188230800Y-76895500D02*
X182455300Y-71120000D01*
X188230800Y-77470000D02*
X188230800Y-76895500D01*
X189379900Y-77470000D02*
X188230800Y-77470000D01*
X176492200Y-91402200D02*
X177800000Y-92710000D01*
X173952200Y-91402200D02*
X176492200Y-91402200D01*
X166370000Y-83820000D02*
X173952200Y-91402200D01*
X130969600Y-92123600D02*
X131665800Y-91427400D01*
X130969600Y-93265400D02*
X130969600Y-92123600D01*
X131843900Y-94139700D02*
X130969600Y-93265400D01*
X132080000Y-94139700D02*
X131843900Y-94139700D01*
X132080000Y-95250000D02*
X132080000Y-94139700D01*
X142240000Y-130810000D02*
X142240000Y-128959700D01*
X142178300Y-128959700D02*
X142240000Y-128959700D01*
X142006200Y-128787600D02*
X142178300Y-128959700D01*
X143372800Y-84885400D02*
X162351700Y-84885400D01*
X142640700Y-84153300D02*
X143372800Y-84885400D01*
X142640700Y-83419300D02*
X142640700Y-84153300D01*
X143510000Y-82550000D02*
X142640700Y-83419300D01*
X134072000Y-71668000D02*
X134620000Y-71120000D01*
X134072000Y-90106000D02*
X134072000Y-71668000D01*
X133508700Y-90669300D02*
X134072000Y-90106000D01*
X133508700Y-94138700D02*
X133508700Y-90669300D01*
X134620000Y-95250000D02*
X133508700Y-94138700D01*
X143510000Y-128248500D02*
X143510000Y-130810000D01*
X144780000Y-130810000D02*
X144780000Y-127454200D01*
X145185200Y-81685200D02*
X146050000Y-82550000D01*
X142879400Y-81685200D02*
X145185200Y-81685200D01*
X142121300Y-82443300D02*
X142879400Y-81685200D01*
X142121300Y-84341600D02*
X142121300Y-82443300D01*
X143775100Y-85995400D02*
X142121300Y-84341600D01*
X144335600Y-85995400D02*
X143775100Y-85995400D01*
X136662500Y-74157500D02*
X136662500Y-75021900D01*
X139700000Y-71120000D02*
X136662500Y-74157500D01*
X138043800Y-96906200D02*
X139700000Y-95250000D01*
X130948400Y-96906200D02*
X138043800Y-96906200D01*
X130362600Y-96320400D02*
X130948400Y-96906200D01*
X130362600Y-94073600D02*
X130362600Y-96320400D01*
X129927300Y-93638300D02*
X130362600Y-94073600D01*
X129927300Y-91314400D02*
X129927300Y-93638300D01*
X131469900Y-89771800D02*
X129927300Y-91314400D01*
X146050000Y-128205200D02*
X146167000Y-128088200D01*
X146050000Y-130810000D02*
X146050000Y-128205200D01*
X143351100Y-94138900D02*
X142240000Y-95250000D01*
X143351100Y-92239300D02*
X143351100Y-94138900D01*
X142315800Y-91204000D02*
X143351100Y-92239300D01*
X141889300Y-91204000D02*
X142315800Y-91204000D01*
X136954500Y-86269200D02*
X141889300Y-91204000D01*
X136954500Y-78412600D02*
X136954500Y-86269200D01*
X142240000Y-73127100D02*
X136954500Y-78412600D01*
X142240000Y-71120000D02*
X142240000Y-73127100D01*
X147210600Y-128850300D02*
X147320000Y-128959700D01*
X147210600Y-123794900D02*
X147210600Y-128850300D01*
X147320000Y-130810000D02*
X147320000Y-128959700D01*
X144780000Y-72002100D02*
X144780000Y-71120000D01*
X137955100Y-78827000D02*
X144780000Y-72002100D01*
X137955100Y-85854800D02*
X137955100Y-78827000D01*
X142303700Y-90203400D02*
X137955100Y-85854800D01*
X143859700Y-90203400D02*
X142303700Y-90203400D01*
X145942800Y-92286500D02*
X143859700Y-90203400D01*
X145942800Y-94087200D02*
X145942800Y-92286500D01*
X144780000Y-95250000D02*
X145942800Y-94087200D01*
X148590000Y-130810000D02*
X148590000Y-122860700D01*
X141106500Y-92502900D02*
X137072900Y-88469300D01*
X141106500Y-95698800D02*
X141106500Y-92502900D01*
X141813100Y-96405400D02*
X141106500Y-95698800D01*
X146164600Y-96405400D02*
X141813100Y-96405400D01*
X147320000Y-95250000D02*
X146164600Y-96405400D01*
X149860000Y-127847400D02*
X149860000Y-130810000D01*
X150316800Y-127390600D02*
X149860000Y-127847400D01*
X142404100Y-81173900D02*
X142204100Y-81373900D01*
X149753900Y-81173900D02*
X142404100Y-81173900D01*
X151130000Y-82550000D02*
X149753900Y-81173900D01*
X151130000Y-128471800D02*
X151552800Y-128049000D01*
X151130000Y-130810000D02*
X151130000Y-128471800D01*
X147203200Y-97906800D02*
X149860000Y-95250000D01*
X130534000Y-97906800D02*
X147203200Y-97906800D01*
X129211900Y-96584700D02*
X130534000Y-97906800D01*
X129211900Y-96325700D02*
X129211900Y-96584700D01*
X152911100Y-128959700D02*
X153017200Y-128853600D01*
X152400000Y-128959700D02*
X152911100Y-128959700D01*
X152400000Y-130810000D02*
X152400000Y-128959700D01*
X149242900Y-98407100D02*
X152400000Y-95250000D01*
X130326800Y-98407100D02*
X149242900Y-98407100D01*
X128561600Y-96641900D02*
X130326800Y-98407100D01*
X128561600Y-70483000D02*
X128561600Y-96641900D01*
X131595400Y-67449200D02*
X128561600Y-70483000D01*
X150300200Y-67449200D02*
X131595400Y-67449200D01*
X151130000Y-68279000D02*
X150300200Y-67449200D01*
X151130000Y-69850000D02*
X151130000Y-68279000D01*
X152400000Y-71120000D02*
X151130000Y-69850000D01*
X153670000Y-128308900D02*
X154284700Y-127694200D01*
X153670000Y-130810000D02*
X153670000Y-128308900D01*
X153670000Y-93980000D02*
X154940000Y-95250000D01*
X153670000Y-92351700D02*
X153670000Y-93980000D01*
X149520500Y-88202200D02*
X153670000Y-92351700D01*
X143132500Y-88202200D02*
X149520500Y-88202200D01*
X139956300Y-85026000D02*
X143132500Y-88202200D01*
X139956300Y-80363300D02*
X139956300Y-85026000D01*
X141693400Y-78626200D02*
X139956300Y-80363300D01*
X147433800Y-78626200D02*
X141693400Y-78626200D01*
X154940000Y-71120000D02*
X147433800Y-78626200D01*
X155450900Y-128959700D02*
X155557000Y-128853600D01*
X154940000Y-128959700D02*
X155450900Y-128959700D01*
X154940000Y-130810000D02*
X154940000Y-128959700D01*
X157480000Y-94411400D02*
X157480000Y-95250000D01*
X158595800Y-93295600D02*
X157480000Y-94411400D01*
X158595800Y-92230300D02*
X158595800Y-93295600D01*
X153060600Y-86695100D02*
X158595800Y-92230300D01*
X143748100Y-86695100D02*
X153060600Y-86695100D01*
X141523200Y-84470200D02*
X143748100Y-86695100D01*
X141523200Y-81135100D02*
X141523200Y-84470200D01*
X141984800Y-80673500D02*
X141523200Y-81135100D01*
X154333500Y-80673500D02*
X141984800Y-80673500D01*
X156210000Y-82550000D02*
X154333500Y-80673500D01*
X156210000Y-130810000D02*
X156210000Y-128959700D01*
X156210000Y-101985800D02*
X156210000Y-128959700D01*
X131671400Y-101985800D02*
X156210000Y-101985800D01*
X127561000Y-97875400D02*
X131671400Y-101985800D01*
X127561000Y-70068100D02*
X127561000Y-97875400D01*
X131184600Y-66444500D02*
X127561000Y-70068100D01*
X157301000Y-66444500D02*
X131184600Y-66444500D01*
X157494200Y-66637700D02*
X157301000Y-66444500D01*
X156210000Y-101985800D02*
X156824200Y-101985800D01*
X157480000Y-103238300D02*
X157480000Y-130810000D01*
X161110800Y-99607500D02*
X157480000Y-103238300D01*
X161110800Y-98827300D02*
X161110800Y-99607500D01*
X160046800Y-97763200D02*
X161110800Y-98827300D01*
X158902600Y-98907400D02*
X160046800Y-97763200D01*
X130119600Y-98907400D02*
X158902600Y-98907400D01*
X128061300Y-96849100D02*
X130119600Y-98907400D01*
X128061300Y-70275800D02*
X128061300Y-96849100D01*
X131388200Y-66948900D02*
X128061300Y-70275800D01*
X152349700Y-66948900D02*
X131388200Y-66948900D01*
X153670000Y-68269200D02*
X152349700Y-66948900D01*
X153670000Y-68918600D02*
X153670000Y-68269200D01*
X154601400Y-69850000D02*
X153670000Y-68918600D01*
X161290000Y-69850000D02*
X154601400Y-69850000D01*
X162560000Y-71120000D02*
X161290000Y-69850000D01*
X160046800Y-97763200D02*
X162560000Y-95250000D01*
X158750000Y-130810000D02*
X158750000Y-128959700D01*
X160102400Y-127607300D02*
X160102400Y-127418900D01*
X158750000Y-128959700D02*
X160102400Y-127607300D01*
X173153500Y-106321700D02*
X174957300Y-104517900D01*
X167098000Y-106321700D02*
X173153500Y-106321700D01*
X166370000Y-69850000D02*
X165100000Y-71120000D01*
X166370000Y-68217800D02*
X166370000Y-69850000D01*
X167660000Y-66927800D02*
X166370000Y-68217800D01*
X181053300Y-66927800D02*
X167660000Y-66927800D01*
X190529100Y-76403600D02*
X181053300Y-66927800D01*
X190529100Y-78628600D02*
X190529100Y-76403600D01*
X186242600Y-82915100D02*
X190529100Y-78628600D01*
X160020000Y-130810000D02*
X160020000Y-128959700D01*
X160416400Y-128563300D02*
X160585400Y-128563300D01*
X160020000Y-128959700D02*
X160416400Y-128563300D01*
X166875600Y-90993900D02*
X166461500Y-90993900D01*
X167827300Y-90042200D02*
X166875600Y-90993900D01*
X170220600Y-78740000D02*
X170220600Y-79990700D01*
X170220600Y-79990700D02*
X170378200Y-80148300D01*
X168950600Y-103495300D02*
X168950600Y-103995600D01*
X168950600Y-103495300D02*
X168950600Y-102870000D01*
X168950600Y-102870000D02*
X168950600Y-101619300D01*
X168907000Y-92352500D02*
X168907000Y-92430400D01*
X168149200Y-91594700D02*
X168907000Y-92352500D01*
X167117300Y-91594700D02*
X168149200Y-91594700D01*
X166210400Y-92501600D02*
X167117300Y-91594700D01*
X166210400Y-93253400D02*
X166210400Y-92501600D01*
X165483800Y-93980000D02*
X166210400Y-93253400D01*
X164757000Y-93980000D02*
X165483800Y-93980000D01*
X163920000Y-94817000D02*
X164757000Y-93980000D01*
X163920000Y-97341200D02*
X163920000Y-94817000D01*
X168198100Y-101619300D02*
X163920000Y-97341200D01*
X168950600Y-101619300D02*
X168198100Y-101619300D01*
X161290000Y-111210100D02*
X161290000Y-130810000D01*
X168504500Y-103995600D02*
X161290000Y-111210100D01*
X168950600Y-103995600D02*
X168504500Y-103995600D01*
X162560000Y-130810000D02*
X162560000Y-128959700D01*
X162560000Y-128959700D02*
X162733600Y-128786100D01*
X172358800Y-75980600D02*
X166989600Y-75980600D01*
X175267500Y-82730600D02*
X174065200Y-82730600D01*
X177322300Y-80675800D02*
X175267500Y-82730600D01*
X177322300Y-75722300D02*
X177322300Y-80675800D01*
X172720000Y-71120000D02*
X177322300Y-75722300D01*
X165100000Y-82550000D02*
X165100000Y-81699700D01*
X165100000Y-77489200D02*
X165100000Y-81699700D01*
X165051000Y-77440200D02*
X165100000Y-77489200D01*
X165051000Y-76481400D02*
X165051000Y-77440200D01*
X169069600Y-72462800D02*
X165051000Y-76481400D01*
X169069600Y-70617300D02*
X169069600Y-72462800D01*
X169741000Y-69945900D02*
X169069600Y-70617300D01*
X174085900Y-69945900D02*
X169741000Y-69945900D01*
X175260000Y-71120000D02*
X174085900Y-69945900D01*
X173921500Y-80639100D02*
X176371100Y-80639100D01*
X172720000Y-79437600D02*
X173921500Y-80639100D01*
X172720000Y-78093500D02*
X172720000Y-79437600D01*
X172115700Y-77489200D02*
X172720000Y-78093500D01*
X165100000Y-77489200D02*
X172115700Y-77489200D01*
X163830000Y-117254500D02*
X163830000Y-130810000D01*
X176049900Y-105034600D02*
X163830000Y-117254500D01*
X176049900Y-99775400D02*
X176049900Y-105034600D01*
X175260000Y-98985500D02*
X176049900Y-99775400D01*
X175260000Y-95250000D02*
X175260000Y-98985500D01*
X165100000Y-130810000D02*
X165100000Y-128959700D01*
X181498100Y-96959000D02*
X177800000Y-96959000D01*
X177800000Y-98948800D02*
X177800000Y-96959000D01*
X176960100Y-99788700D02*
X177800000Y-98948800D01*
X176960100Y-110541000D02*
X176960100Y-99788700D01*
X165100000Y-122401100D02*
X176960100Y-110541000D01*
X165100000Y-128959700D02*
X165100000Y-122401100D01*
X177800000Y-96959000D02*
X177800000Y-95250000D01*
X167695900Y-81224100D02*
X166370000Y-82550000D01*
X171500400Y-81224100D02*
X167695900Y-81224100D01*
X182753600Y-92477300D02*
X171500400Y-81224100D01*
X182753600Y-93804500D02*
X182753600Y-92477300D01*
X167640000Y-130810000D02*
X167640000Y-128798000D01*
X179610000Y-77470000D02*
X179610000Y-78820300D01*
X179000700Y-79429600D02*
X179610000Y-78820300D01*
X179000700Y-79429700D02*
X179000700Y-79429600D01*
X178888400Y-100249700D02*
X179083200Y-100054900D01*
X178340000Y-100249700D02*
X178888400Y-100249700D01*
X178340000Y-101600000D02*
X178340000Y-100249700D01*
X174873300Y-89783300D02*
X178432400Y-89783300D01*
X168910000Y-83820000D02*
X174873300Y-89783300D01*
X180795100Y-81224100D02*
X186892900Y-81224100D01*
X179000700Y-79429700D02*
X180795100Y-81224100D01*
X168124800Y-93194800D02*
X167640000Y-92710000D01*
X168910000Y-128170600D02*
X168910000Y-130810000D01*
X168102900Y-127363500D02*
X168910000Y-128170600D01*
X176511600Y-93833300D02*
X176511600Y-99317500D01*
X179216700Y-93833300D02*
X176511600Y-93833300D01*
X180340000Y-92710000D02*
X179216700Y-93833300D01*
X168763300Y-93833300D02*
X168124800Y-93194800D01*
X176511600Y-93833300D02*
X168763300Y-93833300D01*
X164900800Y-97030800D02*
X164570800Y-97030800D01*
X166529600Y-95402000D02*
X164900800Y-97030800D01*
X166529600Y-94790000D02*
X166529600Y-95402000D01*
X168124800Y-93194800D02*
X166529600Y-94790000D01*
X179214200Y-67454200D02*
X180340000Y-68580000D01*
X168765800Y-67454200D02*
X179214200Y-67454200D01*
X167640000Y-68580000D02*
X168765800Y-67454200D01*
X133190400Y-70009600D02*
X134620000Y-68580000D01*
X133190400Y-89035000D02*
X133190400Y-70009600D01*
X131448400Y-90777000D02*
X133190400Y-89035000D01*
X131339200Y-90777000D02*
X131448400Y-90777000D01*
X130427600Y-91688600D02*
X131339200Y-90777000D01*
X130427600Y-93431100D02*
X130427600Y-91688600D01*
X130862900Y-93866400D02*
X130427600Y-93431100D01*
X130862900Y-96113200D02*
X130862900Y-93866400D01*
X131155600Y-96405900D02*
X130862900Y-96113200D01*
X135056300Y-96405900D02*
X131155600Y-96405900D01*
X135733800Y-95728400D02*
X135056300Y-96405900D01*
X135733800Y-93823800D02*
X135733800Y-95728400D01*
X134620000Y-92710000D02*
X135733800Y-93823800D01*
X134722300Y-90272300D02*
X134722300Y-85542800D01*
X137160000Y-92710000D02*
X134722300Y-90272300D01*
X138430000Y-69850000D02*
X139700000Y-68580000D01*
X136817000Y-69850000D02*
X138430000Y-69850000D01*
X135947900Y-70719100D02*
X136817000Y-69850000D01*
X135947900Y-88957900D02*
X135947900Y-70719100D01*
X139700000Y-92710000D02*
X135947900Y-88957900D01*
X136454200Y-86924200D02*
X142240000Y-92710000D01*
X136454200Y-78205400D02*
X136454200Y-86924200D01*
X141104100Y-73555500D02*
X136454200Y-78205400D01*
X141104100Y-69715900D02*
X141104100Y-73555500D01*
X142240000Y-68580000D02*
X141104100Y-69715900D01*
X142773700Y-90703700D02*
X144780000Y-92710000D01*
X142096500Y-90703700D02*
X142773700Y-90703700D01*
X137454800Y-86062000D02*
X142096500Y-90703700D01*
X137454800Y-78619800D02*
X137454800Y-86062000D01*
X143357200Y-72717400D02*
X137454800Y-78619800D01*
X143357200Y-70002800D02*
X143357200Y-72717400D01*
X144780000Y-68580000D02*
X143357200Y-70002800D01*
X146209600Y-69690400D02*
X147320000Y-68580000D01*
X146209600Y-71280000D02*
X146209600Y-69690400D01*
X138455400Y-79034200D02*
X146209600Y-71280000D01*
X138455400Y-85647600D02*
X138455400Y-79034200D01*
X142510900Y-89703100D02*
X138455400Y-85647600D01*
X144313100Y-89703100D02*
X142510900Y-89703100D01*
X147320000Y-92710000D02*
X144313100Y-89703100D01*
X148493200Y-69946800D02*
X149860000Y-68580000D01*
X148493200Y-71560900D02*
X148493200Y-69946800D01*
X142428700Y-77625400D02*
X148493200Y-71560900D01*
X141279200Y-77625400D02*
X142428700Y-77625400D01*
X138955700Y-79948900D02*
X141279200Y-77625400D01*
X138955700Y-85440400D02*
X138955700Y-79948900D01*
X142718100Y-89202800D02*
X138955700Y-85440400D01*
X146352800Y-89202800D02*
X142718100Y-89202800D01*
X149860000Y-92710000D02*
X146352800Y-89202800D01*
X153511200Y-69691200D02*
X152400000Y-68580000D01*
X153511200Y-71596600D02*
X153511200Y-69691200D01*
X146982100Y-78125700D02*
X153511200Y-71596600D01*
X141486400Y-78125700D02*
X146982100Y-78125700D01*
X139456000Y-80156100D02*
X141486400Y-78125700D01*
X139456000Y-85233200D02*
X139456000Y-80156100D01*
X142925300Y-88702500D02*
X139456000Y-85233200D01*
X148392500Y-88702500D02*
X142925300Y-88702500D01*
X152400000Y-92710000D02*
X148392500Y-88702500D01*
X149931900Y-87701900D02*
X154940000Y-92710000D01*
X143339700Y-87701900D02*
X149931900Y-87701900D01*
X140456600Y-84818800D02*
X143339700Y-87701900D01*
X140456600Y-80592700D02*
X140456600Y-84818800D01*
X141829000Y-79220300D02*
X140456600Y-80592700D01*
X152681300Y-79220300D02*
X141829000Y-79220300D01*
X151971600Y-87201600D02*
X157480000Y-92710000D01*
X143546900Y-87201600D02*
X151971600Y-87201600D01*
X140956900Y-84611600D02*
X143546900Y-87201600D01*
X140956900Y-80897500D02*
X140956900Y-84611600D01*
X141727300Y-80127100D02*
X140956900Y-80897500D01*
X155416700Y-80127100D02*
X141727300Y-80127100D01*
X157720400Y-65944200D02*
X129338500Y-65944200D01*
X160020000Y-68243800D02*
X157720400Y-65944200D01*
X160020000Y-68580000D02*
X160020000Y-68243800D01*
X129862300Y-95721400D02*
X129338500Y-95197600D01*
X129862300Y-96527600D02*
X129862300Y-95721400D01*
X130741200Y-97406500D02*
X129862300Y-96527600D01*
X146749800Y-97406500D02*
X130741200Y-97406500D01*
X148590000Y-95566300D02*
X146749800Y-97406500D01*
X148590000Y-94906900D02*
X148590000Y-95566300D01*
X149357300Y-94139600D02*
X148590000Y-94906900D01*
X152888100Y-94139600D02*
X149357300Y-94139600D01*
X153670000Y-94921500D02*
X152888100Y-94139600D01*
X153670000Y-95622800D02*
X153670000Y-94921500D01*
X154445200Y-96398000D02*
X153670000Y-95622800D01*
X157912600Y-96398000D02*
X154445200Y-96398000D01*
X158778000Y-95532600D02*
X157912600Y-96398000D01*
X158778000Y-93952000D02*
X158778000Y-95532600D01*
X160020000Y-92710000D02*
X158778000Y-93952000D01*
X158929500Y-64949500D02*
X162560000Y-68580000D01*
X126973300Y-64949500D02*
X158929500Y-64949500D01*
X160049000Y-99557800D02*
X160436900Y-99169900D01*
X130163000Y-99557800D02*
X160049000Y-99557800D01*
X162560000Y-84118800D02*
X162560000Y-83820000D01*
X167833100Y-89391900D02*
X162560000Y-84118800D01*
X168441900Y-89391900D02*
X167833100Y-89391900D01*
X169173800Y-90123800D02*
X168441900Y-89391900D01*
X169173800Y-91703800D02*
X169173800Y-90123800D01*
X170180000Y-92710000D02*
X169173800Y-91703800D01*
X163830000Y-83820000D02*
X163830000Y-84670300D01*
X170821900Y-90811900D02*
X172720000Y-92710000D01*
X169971600Y-90811900D02*
X170821900Y-90811900D01*
X164640000Y-84670300D02*
X163830000Y-84670300D01*
X169971600Y-90001900D02*
X164640000Y-84670300D01*
X169971600Y-90811900D02*
X169971600Y-90001900D01*
X174397000Y-92710000D02*
X175260000Y-92710000D01*
X170289400Y-88602400D02*
X174397000Y-92710000D01*
X169882400Y-88602400D02*
X170289400Y-88602400D01*
X165100000Y-83820000D02*
X169882400Y-88602400D01*
X170180000Y-97849900D02*
X170180000Y-95250000D01*
X173949400Y-101619300D02*
X170180000Y-97849900D01*
X173949400Y-102870000D02*
X173949400Y-101619300D01*
X175219400Y-78740000D02*
X175219400Y-77489300D01*
X175219400Y-76159400D02*
X170180000Y-71120000D01*
X175219400Y-77489300D02*
X175219400Y-76159400D01*
X165701300Y-76750700D02*
X173857600Y-76750700D01*
D22*
G36*
X194183000Y-100277394D02*
X178980197Y-115480197D01*
X178952334Y-115522211D01*
X178943000Y-115570000D01*
X178943000Y-120523000D01*
X175260000Y-120523000D01*
X175210590Y-120533006D01*
X175170197Y-120560197D01*
X170090197Y-125640197D01*
X170062334Y-125682211D01*
X170053000Y-125730000D01*
X170053000Y-130683000D01*
X169874940Y-130683000D01*
X169874940Y-129310000D01*
X169830662Y-129074683D01*
X169695000Y-128863858D01*
X169695000Y-128170600D01*
X169635245Y-127870194D01*
X169465079Y-127615521D01*
X169038053Y-127188495D01*
X169038062Y-127178333D01*
X168896017Y-126834557D01*
X168633227Y-126571308D01*
X168289699Y-126428662D01*
X167917733Y-126428338D01*
X167573957Y-126570383D01*
X167310708Y-126833173D01*
X167168062Y-127176701D01*
X167167738Y-127548667D01*
X167309783Y-127892443D01*
X167572573Y-128155692D01*
X167916101Y-128298338D01*
X167927590Y-128298348D01*
X168125000Y-128495758D01*
X168125000Y-128692062D01*
X168083809Y-128675000D01*
X167925750Y-128675000D01*
X167767000Y-128833750D01*
X167767000Y-130683000D01*
X167513000Y-130683000D01*
X167513000Y-128833750D01*
X167354250Y-128675000D01*
X167196191Y-128675000D01*
X167155000Y-128692062D01*
X167155000Y-125472058D01*
X187515879Y-105111179D01*
X187686045Y-104856506D01*
X187745801Y-104556100D01*
X187745800Y-104556095D01*
X187745800Y-103147870D01*
X188908690Y-103147870D01*
X189144007Y-103103592D01*
X189360131Y-102964520D01*
X189505121Y-102752320D01*
X189556130Y-102500430D01*
X189556130Y-100699570D01*
X189511852Y-100464253D01*
X189372780Y-100248129D01*
X189160580Y-100103139D01*
X188908690Y-100052130D01*
X187311030Y-100052130D01*
X187080050Y-100095592D01*
X181842308Y-94857850D01*
X182024479Y-94675679D01*
X182135803Y-94509069D01*
X182223273Y-94596692D01*
X182566801Y-94739338D01*
X182938767Y-94739662D01*
X183282543Y-94597617D01*
X183545792Y-94334827D01*
X183688438Y-93991299D01*
X183688762Y-93619333D01*
X183546717Y-93275557D01*
X183538600Y-93267426D01*
X183538600Y-92477300D01*
X183492439Y-92245233D01*
X183478845Y-92176893D01*
X183308679Y-91922221D01*
X174902058Y-83515600D01*
X175267500Y-83515600D01*
X175567907Y-83455845D01*
X175822579Y-83285679D01*
X177877379Y-81230879D01*
X178047545Y-80976207D01*
X178107300Y-80675800D01*
X178107300Y-78865326D01*
X178250302Y-79008327D01*
X178483691Y-79105000D01*
X179324250Y-79105000D01*
X179483000Y-78946250D01*
X179483000Y-77597000D01*
X179737000Y-77597000D01*
X179737000Y-78946250D01*
X179895750Y-79105000D01*
X180736309Y-79105000D01*
X180969698Y-79008327D01*
X181148327Y-78829699D01*
X181245000Y-78596310D01*
X181245000Y-77755750D01*
X181086250Y-77597000D01*
X179737000Y-77597000D01*
X179483000Y-77597000D01*
X179463000Y-77597000D01*
X179463000Y-77343000D01*
X179483000Y-77343000D01*
X179483000Y-75993750D01*
X179737000Y-75993750D01*
X179737000Y-77343000D01*
X181086250Y-77343000D01*
X181245000Y-77184250D01*
X181245000Y-76343690D01*
X181148327Y-76110301D01*
X180969698Y-75931673D01*
X180736309Y-75835000D01*
X179895750Y-75835000D01*
X179737000Y-75993750D01*
X179483000Y-75993750D01*
X179324250Y-75835000D01*
X178483691Y-75835000D01*
X178250302Y-75931673D01*
X178107300Y-76074674D01*
X178107300Y-75722300D01*
X178049984Y-75434155D01*
X178047545Y-75421893D01*
X177877379Y-75167221D01*
X175225129Y-72514971D01*
X175536265Y-72515242D01*
X176049172Y-72303313D01*
X176441934Y-71911236D01*
X176529954Y-71699262D01*
X176616687Y-71909172D01*
X177008764Y-72301934D01*
X177521300Y-72514758D01*
X178076265Y-72515242D01*
X178589172Y-72303313D01*
X178981934Y-71911236D01*
X179069954Y-71699262D01*
X179156687Y-71909172D01*
X179548764Y-72301934D01*
X180061300Y-72514758D01*
X180616265Y-72515242D01*
X181129172Y-72303313D01*
X181521934Y-71911236D01*
X181524523Y-71905000D01*
X182130142Y-71905000D01*
X186147272Y-75922130D01*
X185741310Y-75922130D01*
X185505993Y-75966408D01*
X185289869Y-76105480D01*
X185207549Y-76225960D01*
X185074090Y-76018559D01*
X184861890Y-75873569D01*
X184610000Y-75822560D01*
X182610000Y-75822560D01*
X182374683Y-75866838D01*
X182158559Y-76005910D01*
X182013569Y-76218110D01*
X181962560Y-76470000D01*
X181962560Y-78470000D01*
X182006838Y-78705317D01*
X182145910Y-78921441D01*
X182358110Y-79066431D01*
X182610000Y-79117440D01*
X184610000Y-79117440D01*
X184845317Y-79073162D01*
X185061441Y-78934090D01*
X185206431Y-78721890D01*
X185207976Y-78714262D01*
X185277220Y-78821871D01*
X185489420Y-78966861D01*
X185741310Y-79017870D01*
X187338970Y-79017870D01*
X187574287Y-78973592D01*
X187790411Y-78834520D01*
X187935401Y-78622320D01*
X187959030Y-78505634D01*
X187977868Y-78605747D01*
X188116940Y-78821871D01*
X188329140Y-78966861D01*
X188581030Y-79017870D01*
X189029672Y-79017870D01*
X186067595Y-81979947D01*
X186057433Y-81979938D01*
X185713657Y-82121983D01*
X185450408Y-82384773D01*
X185307762Y-82728301D01*
X185307438Y-83100267D01*
X185449483Y-83444043D01*
X185712273Y-83707292D01*
X186055801Y-83849938D01*
X186427767Y-83850262D01*
X186771543Y-83708217D01*
X187034792Y-83445427D01*
X187177438Y-83101899D01*
X187177448Y-83090410D01*
X191084179Y-79183679D01*
X191115240Y-79137193D01*
X191254345Y-78929006D01*
X191314100Y-78628600D01*
X191314100Y-76403600D01*
X191254345Y-76103194D01*
X191084179Y-75848521D01*
X181608379Y-66372721D01*
X181353707Y-66202555D01*
X181053300Y-66142800D01*
X167660000Y-66142800D01*
X167359594Y-66202555D01*
X167104921Y-66372721D01*
X167104919Y-66372724D01*
X165985324Y-67492318D01*
X165891236Y-67398066D01*
X165378700Y-67185242D01*
X164823735Y-67184758D01*
X164310828Y-67396687D01*
X163918066Y-67788764D01*
X163830046Y-68000738D01*
X163743313Y-67790828D01*
X163351236Y-67398066D01*
X162838700Y-67185242D01*
X162283735Y-67184758D01*
X162277495Y-67187337D01*
X159987158Y-64897000D01*
X194183000Y-64897000D01*
X194183000Y-100277394D01*
X194183000Y-100277394D01*
G37*
X194183000Y-100277394D02*
X178980197Y-115480197D01*
X178952334Y-115522211D01*
X178943000Y-115570000D01*
X178943000Y-120523000D01*
X175260000Y-120523000D01*
X175210590Y-120533006D01*
X175170197Y-120560197D01*
X170090197Y-125640197D01*
X170062334Y-125682211D01*
X170053000Y-125730000D01*
X170053000Y-130683000D01*
X169874940Y-130683000D01*
X169874940Y-129310000D01*
X169830662Y-129074683D01*
X169695000Y-128863858D01*
X169695000Y-128170600D01*
X169635245Y-127870194D01*
X169465079Y-127615521D01*
X169038053Y-127188495D01*
X169038062Y-127178333D01*
X168896017Y-126834557D01*
X168633227Y-126571308D01*
X168289699Y-126428662D01*
X167917733Y-126428338D01*
X167573957Y-126570383D01*
X167310708Y-126833173D01*
X167168062Y-127176701D01*
X167167738Y-127548667D01*
X167309783Y-127892443D01*
X167572573Y-128155692D01*
X167916101Y-128298338D01*
X167927590Y-128298348D01*
X168125000Y-128495758D01*
X168125000Y-128692062D01*
X168083809Y-128675000D01*
X167925750Y-128675000D01*
X167767000Y-128833750D01*
X167767000Y-130683000D01*
X167513000Y-130683000D01*
X167513000Y-128833750D01*
X167354250Y-128675000D01*
X167196191Y-128675000D01*
X167155000Y-128692062D01*
X167155000Y-125472058D01*
X187515879Y-105111179D01*
X187686045Y-104856506D01*
X187745801Y-104556100D01*
X187745800Y-104556095D01*
X187745800Y-103147870D01*
X188908690Y-103147870D01*
X189144007Y-103103592D01*
X189360131Y-102964520D01*
X189505121Y-102752320D01*
X189556130Y-102500430D01*
X189556130Y-100699570D01*
X189511852Y-100464253D01*
X189372780Y-100248129D01*
X189160580Y-100103139D01*
X188908690Y-100052130D01*
X187311030Y-100052130D01*
X187080050Y-100095592D01*
X181842308Y-94857850D01*
X182024479Y-94675679D01*
X182135803Y-94509069D01*
X182223273Y-94596692D01*
X182566801Y-94739338D01*
X182938767Y-94739662D01*
X183282543Y-94597617D01*
X183545792Y-94334827D01*
X183688438Y-93991299D01*
X183688762Y-93619333D01*
X183546717Y-93275557D01*
X183538600Y-93267426D01*
X183538600Y-92477300D01*
X183492439Y-92245233D01*
X183478845Y-92176893D01*
X183308679Y-91922221D01*
X174902058Y-83515600D01*
X175267500Y-83515600D01*
X175567907Y-83455845D01*
X175822579Y-83285679D01*
X177877379Y-81230879D01*
X178047545Y-80976207D01*
X178107300Y-80675800D01*
X178107300Y-78865326D01*
X178250302Y-79008327D01*
X178483691Y-79105000D01*
X179324250Y-79105000D01*
X179483000Y-78946250D01*
X179483000Y-77597000D01*
X179737000Y-77597000D01*
X179737000Y-78946250D01*
X179895750Y-79105000D01*
X180736309Y-79105000D01*
X180969698Y-79008327D01*
X181148327Y-78829699D01*
X181245000Y-78596310D01*
X181245000Y-77755750D01*
X181086250Y-77597000D01*
X179737000Y-77597000D01*
X179483000Y-77597000D01*
X179463000Y-77597000D01*
X179463000Y-77343000D01*
X179483000Y-77343000D01*
X179483000Y-75993750D01*
X179737000Y-75993750D01*
X179737000Y-77343000D01*
X181086250Y-77343000D01*
X181245000Y-77184250D01*
X181245000Y-76343690D01*
X181148327Y-76110301D01*
X180969698Y-75931673D01*
X180736309Y-75835000D01*
X179895750Y-75835000D01*
X179737000Y-75993750D01*
X179483000Y-75993750D01*
X179324250Y-75835000D01*
X178483691Y-75835000D01*
X178250302Y-75931673D01*
X178107300Y-76074674D01*
X178107300Y-75722300D01*
X178049984Y-75434155D01*
X178047545Y-75421893D01*
X177877379Y-75167221D01*
X175225129Y-72514971D01*
X175536265Y-72515242D01*
X176049172Y-72303313D01*
X176441934Y-71911236D01*
X176529954Y-71699262D01*
X176616687Y-71909172D01*
X177008764Y-72301934D01*
X177521300Y-72514758D01*
X178076265Y-72515242D01*
X178589172Y-72303313D01*
X178981934Y-71911236D01*
X179069954Y-71699262D01*
X179156687Y-71909172D01*
X179548764Y-72301934D01*
X180061300Y-72514758D01*
X180616265Y-72515242D01*
X181129172Y-72303313D01*
X181521934Y-71911236D01*
X181524523Y-71905000D01*
X182130142Y-71905000D01*
X186147272Y-75922130D01*
X185741310Y-75922130D01*
X185505993Y-75966408D01*
X185289869Y-76105480D01*
X185207549Y-76225960D01*
X185074090Y-76018559D01*
X184861890Y-75873569D01*
X184610000Y-75822560D01*
X182610000Y-75822560D01*
X182374683Y-75866838D01*
X182158559Y-76005910D01*
X182013569Y-76218110D01*
X181962560Y-76470000D01*
X181962560Y-78470000D01*
X182006838Y-78705317D01*
X182145910Y-78921441D01*
X182358110Y-79066431D01*
X182610000Y-79117440D01*
X184610000Y-79117440D01*
X184845317Y-79073162D01*
X185061441Y-78934090D01*
X185206431Y-78721890D01*
X185207976Y-78714262D01*
X185277220Y-78821871D01*
X185489420Y-78966861D01*
X185741310Y-79017870D01*
X187338970Y-79017870D01*
X187574287Y-78973592D01*
X187790411Y-78834520D01*
X187935401Y-78622320D01*
X187959030Y-78505634D01*
X187977868Y-78605747D01*
X188116940Y-78821871D01*
X188329140Y-78966861D01*
X188581030Y-79017870D01*
X189029672Y-79017870D01*
X186067595Y-81979947D01*
X186057433Y-81979938D01*
X185713657Y-82121983D01*
X185450408Y-82384773D01*
X185307762Y-82728301D01*
X185307438Y-83100267D01*
X185449483Y-83444043D01*
X185712273Y-83707292D01*
X186055801Y-83849938D01*
X186427767Y-83850262D01*
X186771543Y-83708217D01*
X187034792Y-83445427D01*
X187177438Y-83101899D01*
X187177448Y-83090410D01*
X191084179Y-79183679D01*
X191115240Y-79137193D01*
X191254345Y-78929006D01*
X191314100Y-78628600D01*
X191314100Y-76403600D01*
X191254345Y-76103194D01*
X191084179Y-75848521D01*
X181608379Y-66372721D01*
X181353707Y-66202555D01*
X181053300Y-66142800D01*
X167660000Y-66142800D01*
X167359594Y-66202555D01*
X167104921Y-66372721D01*
X167104919Y-66372724D01*
X165985324Y-67492318D01*
X165891236Y-67398066D01*
X165378700Y-67185242D01*
X164823735Y-67184758D01*
X164310828Y-67396687D01*
X163918066Y-67788764D01*
X163830046Y-68000738D01*
X163743313Y-67790828D01*
X163351236Y-67398066D01*
X162838700Y-67185242D01*
X162283735Y-67184758D01*
X162277495Y-67187337D01*
X159987158Y-64897000D01*
X194183000Y-64897000D01*
X194183000Y-100277394D01*
G36*
X184816272Y-100052130D02*
X184471310Y-100052130D01*
X184235993Y-100096408D01*
X184019869Y-100235480D01*
X183937549Y-100355960D01*
X183804090Y-100148559D01*
X183591890Y-100003569D01*
X183340000Y-99952560D01*
X181340000Y-99952560D01*
X181104683Y-99996838D01*
X180888559Y-100135910D01*
X180743569Y-100348110D01*
X180692560Y-100600000D01*
X180692560Y-102600000D01*
X180736838Y-102835317D01*
X180875910Y-103051441D01*
X181088110Y-103196431D01*
X181340000Y-103247440D01*
X183340000Y-103247440D01*
X183575317Y-103203162D01*
X183791441Y-103064090D01*
X183936431Y-102851890D01*
X183937976Y-102844262D01*
X184007220Y-102951871D01*
X184219420Y-103096861D01*
X184471310Y-103147870D01*
X186068970Y-103147870D01*
X186175800Y-103127769D01*
X186175800Y-104230942D01*
X165885000Y-124521742D01*
X165885000Y-122726258D01*
X177515179Y-111096079D01*
X177685345Y-110841407D01*
X177745100Y-110541000D01*
X177745100Y-103235000D01*
X178054250Y-103235000D01*
X178213000Y-103076250D01*
X178213000Y-101727000D01*
X178467000Y-101727000D01*
X178467000Y-103076250D01*
X178625750Y-103235000D01*
X179466309Y-103235000D01*
X179699698Y-103138327D01*
X179878327Y-102959699D01*
X179975000Y-102726310D01*
X179975000Y-101885750D01*
X179816250Y-101727000D01*
X178467000Y-101727000D01*
X178213000Y-101727000D01*
X178193000Y-101727000D01*
X178193000Y-101473000D01*
X178213000Y-101473000D01*
X178213000Y-100123750D01*
X178467000Y-100123750D01*
X178467000Y-101473000D01*
X179816250Y-101473000D01*
X179975000Y-101314250D01*
X179975000Y-100473690D01*
X179878327Y-100240301D01*
X179699698Y-100061673D01*
X179466309Y-99965000D01*
X178625750Y-99965000D01*
X178467000Y-100123750D01*
X178213000Y-100123750D01*
X178054250Y-99965000D01*
X177893958Y-99965000D01*
X178355079Y-99503879D01*
X178525245Y-99249207D01*
X178585000Y-98948800D01*
X178585000Y-97744000D01*
X180960594Y-97744000D01*
X180967773Y-97751192D01*
X181311301Y-97893838D01*
X181683267Y-97894162D01*
X182027043Y-97752117D01*
X182271864Y-97507722D01*
X184816272Y-100052130D01*
X184816272Y-100052130D01*
G37*
X184816272Y-100052130D02*
X184471310Y-100052130D01*
X184235993Y-100096408D01*
X184019869Y-100235480D01*
X183937549Y-100355960D01*
X183804090Y-100148559D01*
X183591890Y-100003569D01*
X183340000Y-99952560D01*
X181340000Y-99952560D01*
X181104683Y-99996838D01*
X180888559Y-100135910D01*
X180743569Y-100348110D01*
X180692560Y-100600000D01*
X180692560Y-102600000D01*
X180736838Y-102835317D01*
X180875910Y-103051441D01*
X181088110Y-103196431D01*
X181340000Y-103247440D01*
X183340000Y-103247440D01*
X183575317Y-103203162D01*
X183791441Y-103064090D01*
X183936431Y-102851890D01*
X183937976Y-102844262D01*
X184007220Y-102951871D01*
X184219420Y-103096861D01*
X184471310Y-103147870D01*
X186068970Y-103147870D01*
X186175800Y-103127769D01*
X186175800Y-104230942D01*
X165885000Y-124521742D01*
X165885000Y-122726258D01*
X177515179Y-111096079D01*
X177685345Y-110841407D01*
X177745100Y-110541000D01*
X177745100Y-103235000D01*
X178054250Y-103235000D01*
X178213000Y-103076250D01*
X178213000Y-101727000D01*
X178467000Y-101727000D01*
X178467000Y-103076250D01*
X178625750Y-103235000D01*
X179466309Y-103235000D01*
X179699698Y-103138327D01*
X179878327Y-102959699D01*
X179975000Y-102726310D01*
X179975000Y-101885750D01*
X179816250Y-101727000D01*
X178467000Y-101727000D01*
X178213000Y-101727000D01*
X178193000Y-101727000D01*
X178193000Y-101473000D01*
X178213000Y-101473000D01*
X178213000Y-100123750D01*
X178467000Y-100123750D01*
X178467000Y-101473000D01*
X179816250Y-101473000D01*
X179975000Y-101314250D01*
X179975000Y-100473690D01*
X179878327Y-100240301D01*
X179699698Y-100061673D01*
X179466309Y-99965000D01*
X178625750Y-99965000D01*
X178467000Y-100123750D01*
X178213000Y-100123750D01*
X178054250Y-99965000D01*
X177893958Y-99965000D01*
X178355079Y-99503879D01*
X178525245Y-99249207D01*
X178585000Y-98948800D01*
X178585000Y-97744000D01*
X180960594Y-97744000D01*
X180967773Y-97751192D01*
X181311301Y-97893838D01*
X181683267Y-97894162D01*
X182027043Y-97752117D01*
X182271864Y-97507722D01*
X184816272Y-100052130D01*
G36*
X169037000Y-82423000D02*
X169057000Y-82423000D01*
X169057000Y-82467436D01*
X169045000Y-82527764D01*
X169045000Y-82572236D01*
X169057000Y-82632564D01*
X169057000Y-82677000D01*
X169037000Y-82677000D01*
X169037000Y-83693000D01*
X169057000Y-83693000D01*
X169057000Y-83737436D01*
X169045000Y-83797764D01*
X169045000Y-83842236D01*
X169057000Y-83902564D01*
X169057000Y-83947000D01*
X169037000Y-83947000D01*
X169037000Y-84787954D01*
X169211874Y-84914119D01*
X169470209Y-84807127D01*
X169535696Y-84750549D01*
X169745654Y-84890839D01*
X170180000Y-84977236D01*
X170614346Y-84890839D01*
X170982566Y-84644802D01*
X171228603Y-84276582D01*
X171315000Y-83842236D01*
X171315000Y-83797764D01*
X171228603Y-83363418D01*
X171109388Y-83185000D01*
X171228603Y-83006582D01*
X171267861Y-82809219D01*
X179858289Y-91399647D01*
X179550828Y-91526687D01*
X179158066Y-91918764D01*
X179070046Y-92130738D01*
X178983313Y-91920828D01*
X178591236Y-91528066D01*
X178078700Y-91315242D01*
X177523735Y-91314758D01*
X177517494Y-91317337D01*
X177047279Y-90847121D01*
X176792607Y-90676955D01*
X176492200Y-90617200D01*
X174277358Y-90617200D01*
X168550347Y-84890189D01*
X168608126Y-84914119D01*
X168783000Y-84787954D01*
X168783000Y-83947000D01*
X168763000Y-83947000D01*
X168763000Y-83902564D01*
X168775000Y-83842236D01*
X168775000Y-83797764D01*
X168763000Y-83737436D01*
X168763000Y-83693000D01*
X168783000Y-83693000D01*
X168783000Y-82677000D01*
X168763000Y-82677000D01*
X168763000Y-82632564D01*
X168775000Y-82572236D01*
X168775000Y-82527764D01*
X168763000Y-82467436D01*
X168763000Y-82423000D01*
X168783000Y-82423000D01*
X168783000Y-82403000D01*
X169037000Y-82403000D01*
X169037000Y-82423000D01*
X169037000Y-82423000D01*
G37*
X169037000Y-82423000D02*
X169057000Y-82423000D01*
X169057000Y-82467436D01*
X169045000Y-82527764D01*
X169045000Y-82572236D01*
X169057000Y-82632564D01*
X169057000Y-82677000D01*
X169037000Y-82677000D01*
X169037000Y-83693000D01*
X169057000Y-83693000D01*
X169057000Y-83737436D01*
X169045000Y-83797764D01*
X169045000Y-83842236D01*
X169057000Y-83902564D01*
X169057000Y-83947000D01*
X169037000Y-83947000D01*
X169037000Y-84787954D01*
X169211874Y-84914119D01*
X169470209Y-84807127D01*
X169535696Y-84750549D01*
X169745654Y-84890839D01*
X170180000Y-84977236D01*
X170614346Y-84890839D01*
X170982566Y-84644802D01*
X171228603Y-84276582D01*
X171315000Y-83842236D01*
X171315000Y-83797764D01*
X171228603Y-83363418D01*
X171109388Y-83185000D01*
X171228603Y-83006582D01*
X171267861Y-82809219D01*
X179858289Y-91399647D01*
X179550828Y-91526687D01*
X179158066Y-91918764D01*
X179070046Y-92130738D01*
X178983313Y-91920828D01*
X178591236Y-91528066D01*
X178078700Y-91315242D01*
X177523735Y-91314758D01*
X177517494Y-91317337D01*
X177047279Y-90847121D01*
X176792607Y-90676955D01*
X176492200Y-90617200D01*
X174277358Y-90617200D01*
X168550347Y-84890189D01*
X168608126Y-84914119D01*
X168783000Y-84787954D01*
X168783000Y-83947000D01*
X168763000Y-83947000D01*
X168763000Y-83902564D01*
X168775000Y-83842236D01*
X168775000Y-83797764D01*
X168763000Y-83737436D01*
X168763000Y-83693000D01*
X168783000Y-83693000D01*
X168783000Y-82677000D01*
X168763000Y-82677000D01*
X168763000Y-82632564D01*
X168775000Y-82572236D01*
X168775000Y-82527764D01*
X168763000Y-82467436D01*
X168763000Y-82423000D01*
X168783000Y-82423000D01*
X168783000Y-82403000D01*
X169037000Y-82403000D01*
X169037000Y-82423000D01*
M02*
