G04 #@! TF.FileFunction,Copper,L1,Top,Signal*
%FSLAX46Y46*%
G04 Gerber Fmt 4.6, Leading zero omitted, Abs format (unit mm)*
G04 Created by KiCad (PCBNEW 4.0.2+dfsg1-stable) date Sat 02 Mar 2019 16:31:19 CET*
%MOMM*%
G01*
G04 APERTURE LIST*
%ADD10C,0.100000*%
%ADD11R,2.000000X1.700000*%
%ADD12R,1.597660X1.800860*%
%ADD13R,1.000000X5.000000*%
%ADD14R,3.500120X1.800860*%
%ADD15R,1.520000X1.520000*%
%ADD16C,1.520000*%
%ADD17R,1.350000X1.350000*%
%ADD18O,1.350000X1.350000*%
%ADD19R,1.100000X0.400000*%
%ADD20C,0.600000*%
%ADD21C,0.300000*%
%ADD22C,0.254000*%
G04 APERTURE END LIST*
D10*
D11*
X177000000Y-90000000D03*
X173000000Y-90000000D03*
X178000000Y-64000000D03*
X174000000Y-64000000D03*
X178000000Y-44000000D03*
X174000000Y-44000000D03*
D12*
X180580140Y-64000000D03*
X183419860Y-64000000D03*
X180580140Y-44000000D03*
X183419860Y-44000000D03*
X179580140Y-90000000D03*
X182419860Y-90000000D03*
D13*
X128860000Y-133620000D03*
X130860000Y-133620000D03*
X132860000Y-133620000D03*
X134860000Y-133620000D03*
X136860000Y-133620000D03*
X138860000Y-133620000D03*
X140860000Y-133620000D03*
X142860000Y-133620000D03*
X144860000Y-133620000D03*
X146860000Y-133620000D03*
X148860000Y-133620000D03*
X150860000Y-133620000D03*
X152860000Y-133620000D03*
X154860000Y-133620000D03*
X156860000Y-133620000D03*
X158860000Y-133620000D03*
X160860000Y-133620000D03*
X162860000Y-133620000D03*
X164860000Y-133620000D03*
X166860000Y-133620000D03*
X168860000Y-133620000D03*
X170860000Y-133620000D03*
D14*
X169499360Y-64000000D03*
X164500640Y-64000000D03*
X169499360Y-44000000D03*
X164500640Y-44000000D03*
X169499360Y-90000000D03*
X164500640Y-90000000D03*
D15*
X126000000Y-73000000D03*
D16*
X126000000Y-70460000D03*
X128540000Y-73000000D03*
X128540000Y-70460000D03*
X131080000Y-73000000D03*
X131080000Y-70460000D03*
X133620000Y-73000000D03*
X133620000Y-70460000D03*
X136160000Y-73000000D03*
X136160000Y-70460000D03*
X138700000Y-73000000D03*
X138700000Y-70460000D03*
X141240000Y-73000000D03*
X141240000Y-70460000D03*
X143780000Y-73000000D03*
X143780000Y-70460000D03*
X146320000Y-73000000D03*
X146320000Y-70460000D03*
X148860000Y-73000000D03*
X148860000Y-70460000D03*
X151400000Y-73000000D03*
X151400000Y-70460000D03*
X153940000Y-73000000D03*
X153940000Y-70460000D03*
X156480000Y-73000000D03*
X156480000Y-70460000D03*
X159020000Y-73000000D03*
X159020000Y-70460000D03*
X161560000Y-73000000D03*
X161560000Y-70460000D03*
X164100000Y-73000000D03*
X164100000Y-70460000D03*
X166640000Y-73000000D03*
X166640000Y-70460000D03*
X169180000Y-73000000D03*
X169180000Y-70460000D03*
X171720000Y-73000000D03*
X171720000Y-70460000D03*
X174260000Y-73000000D03*
X174260000Y-70460000D03*
D15*
X126000000Y-54000000D03*
D16*
X126000000Y-51460000D03*
X128540000Y-54000000D03*
X128540000Y-51460000D03*
X131080000Y-54000000D03*
X131080000Y-51460000D03*
X133620000Y-54000000D03*
X133620000Y-51460000D03*
X136160000Y-54000000D03*
X136160000Y-51460000D03*
X138700000Y-54000000D03*
X138700000Y-51460000D03*
X141240000Y-54000000D03*
X141240000Y-51460000D03*
X143780000Y-54000000D03*
X143780000Y-51460000D03*
X146320000Y-54000000D03*
X146320000Y-51460000D03*
X148860000Y-54000000D03*
X148860000Y-51460000D03*
X151400000Y-54000000D03*
X151400000Y-51460000D03*
X153940000Y-54000000D03*
X153940000Y-51460000D03*
X156480000Y-54000000D03*
X156480000Y-51460000D03*
X159020000Y-54000000D03*
X159020000Y-51460000D03*
X161560000Y-54000000D03*
X161560000Y-51460000D03*
X164100000Y-54000000D03*
X164100000Y-51460000D03*
X166640000Y-54000000D03*
X166640000Y-51460000D03*
X169180000Y-54000000D03*
X169180000Y-51460000D03*
X171720000Y-54000000D03*
X171720000Y-51460000D03*
X174260000Y-54000000D03*
X174260000Y-51460000D03*
D17*
X129000000Y-98000000D03*
D18*
X129000000Y-96000000D03*
X131000000Y-98000000D03*
X131000000Y-96000000D03*
X133000000Y-98000000D03*
X133000000Y-96000000D03*
X135000000Y-98000000D03*
X135000000Y-96000000D03*
X137000000Y-98000000D03*
X137000000Y-96000000D03*
X139000000Y-98000000D03*
X139000000Y-96000000D03*
X141000000Y-98000000D03*
X141000000Y-96000000D03*
X143000000Y-98000000D03*
X143000000Y-96000000D03*
X145000000Y-98000000D03*
X145000000Y-96000000D03*
X147000000Y-98000000D03*
X147000000Y-96000000D03*
X149000000Y-98000000D03*
X149000000Y-96000000D03*
X151000000Y-98000000D03*
X151000000Y-96000000D03*
X153000000Y-98000000D03*
X153000000Y-96000000D03*
X155000000Y-98000000D03*
X155000000Y-96000000D03*
X157000000Y-98000000D03*
X157000000Y-96000000D03*
X159000000Y-98000000D03*
X159000000Y-96000000D03*
X161000000Y-98000000D03*
X161000000Y-96000000D03*
X163000000Y-98000000D03*
X163000000Y-96000000D03*
X165000000Y-98000000D03*
X165000000Y-96000000D03*
X167000000Y-98000000D03*
X167000000Y-96000000D03*
X169000000Y-98000000D03*
X169000000Y-96000000D03*
X171000000Y-98000000D03*
X171000000Y-96000000D03*
D19*
X182150000Y-82975000D03*
X182150000Y-82325000D03*
X182150000Y-81675000D03*
X182150000Y-81025000D03*
X177850000Y-81025000D03*
X177850000Y-81675000D03*
X177850000Y-82325000D03*
X177850000Y-82975000D03*
D20*
X127632000Y-130518800D03*
X128986900Y-124845900D03*
X129267400Y-117698100D03*
X130458400Y-115924900D03*
X133087600Y-117534600D03*
X134487800Y-117434000D03*
X138015400Y-119101600D03*
X140832100Y-94006500D03*
X142940900Y-93394900D03*
X146320000Y-92729200D03*
X148361800Y-92035200D03*
X151400000Y-90932200D03*
X150860000Y-103469800D03*
X152860000Y-102161200D03*
X172870700Y-86720000D03*
X169519500Y-65422800D03*
X159257500Y-104611100D03*
X170200500Y-61898400D03*
X163000000Y-102303000D03*
X175808300Y-91371700D03*
X175408700Y-52267700D03*
X174623500Y-55932900D03*
X173687900Y-99907700D03*
X168699900Y-129101500D03*
X168203000Y-129866300D03*
X169259000Y-119351900D03*
X130419400Y-76612900D03*
X143271900Y-74961200D03*
X174450400Y-97505100D03*
X175821200Y-111546500D03*
X162365600Y-93380600D03*
X174464000Y-99191900D03*
X174509200Y-115958500D03*
X165825000Y-93963300D03*
X173689800Y-98616500D03*
X167225700Y-127565100D03*
X163602300Y-66843100D03*
X166316700Y-88365700D03*
X177728900Y-70115400D03*
X180363700Y-83115300D03*
X175151300Y-98039800D03*
D21*
X180580100Y-64000000D02*
X178000000Y-64000000D01*
X182150000Y-81675000D02*
X183050300Y-81675000D01*
X166860000Y-133620000D02*
X166860000Y-130769700D01*
X166575400Y-130485100D02*
X166860000Y-130769700D01*
X166575400Y-105354100D02*
X166575400Y-130485100D01*
X173034500Y-98895000D02*
X166575400Y-105354100D01*
X173034500Y-97936300D02*
X173034500Y-98895000D01*
X174388200Y-96582600D02*
X173034500Y-97936300D01*
X175193700Y-96582600D02*
X174388200Y-96582600D01*
X181270700Y-90505600D02*
X175193700Y-96582600D01*
X181270700Y-87007900D02*
X181270700Y-90505600D01*
X183050300Y-85228300D02*
X181270700Y-87007900D01*
X183050300Y-81675000D02*
X183050300Y-85228300D01*
X180580100Y-44000000D02*
X178000000Y-44000000D01*
X127632000Y-97368000D02*
X127632000Y-130518800D01*
X129000000Y-96000000D02*
X127632000Y-97368000D01*
X124889600Y-69349600D02*
X126000000Y-70460000D01*
X124889600Y-52570400D02*
X124889600Y-69349600D01*
X126000000Y-51460000D02*
X124889600Y-52570400D01*
X129000000Y-96000000D02*
X129000000Y-94974700D01*
X124889600Y-71570400D02*
X126000000Y-70460000D01*
X124889600Y-90864300D02*
X124889600Y-71570400D01*
X129000000Y-94974700D02*
X124889600Y-90864300D01*
X172841000Y-52581000D02*
X171720000Y-51460000D01*
X172841000Y-54919000D02*
X172841000Y-52581000D01*
X172220200Y-55539800D02*
X172841000Y-54919000D01*
X172220200Y-69959800D02*
X172220200Y-55539800D01*
X171720000Y-70460000D02*
X172220200Y-69959800D01*
X128860000Y-133620000D02*
X128860000Y-130769700D01*
X129000000Y-98000000D02*
X129000000Y-99025300D01*
X165000000Y-96000000D02*
X165000000Y-94974700D01*
X126152000Y-71889700D02*
X126000000Y-71889700D01*
X127145300Y-70896400D02*
X126152000Y-71889700D01*
X127145300Y-56255600D02*
X127145300Y-70896400D01*
X126000000Y-55110300D02*
X127145300Y-56255600D01*
X126000000Y-73000000D02*
X126000000Y-71889700D01*
X126000000Y-54000000D02*
X126000000Y-55110300D01*
X128986900Y-130642800D02*
X128986900Y-124845900D01*
X128860000Y-130769700D02*
X128986900Y-130642800D01*
X170290400Y-71889600D02*
X171720000Y-70460000D01*
X170290400Y-86019200D02*
X170290400Y-71889600D01*
X167350900Y-88958700D02*
X170290400Y-86019200D01*
X167350900Y-93357100D02*
X167350900Y-88958700D01*
X165733300Y-94974700D02*
X167350900Y-93357100D01*
X165000000Y-94974700D02*
X165733300Y-94974700D01*
X128617100Y-124476100D02*
X128986900Y-124845900D01*
X128617100Y-99408200D02*
X128617100Y-124476100D01*
X129000000Y-99025300D02*
X128617100Y-99408200D01*
X128540000Y-72161400D02*
X128540000Y-73000000D01*
X129705300Y-70996100D02*
X128540000Y-72161400D01*
X129705300Y-55165300D02*
X129705300Y-70996100D01*
X128540000Y-54000000D02*
X129705300Y-55165300D01*
X131000000Y-98000000D02*
X131000000Y-99025300D01*
X130860000Y-133620000D02*
X130860000Y-130769700D01*
X129267400Y-117698100D02*
X129782200Y-117698100D01*
X129782200Y-100243100D02*
X129782200Y-117698100D01*
X131000000Y-99025300D02*
X129782200Y-100243100D01*
X129782200Y-129691900D02*
X130860000Y-130769700D01*
X129782200Y-117698100D02*
X129782200Y-129691900D01*
X131080000Y-72161400D02*
X131080000Y-73000000D01*
X132205600Y-71035800D02*
X131080000Y-72161400D01*
X132205600Y-69753300D02*
X132205600Y-71035800D01*
X131080000Y-68627700D02*
X132205600Y-69753300D01*
X131080000Y-54000000D02*
X131080000Y-68627700D01*
X133000000Y-98000000D02*
X133000000Y-99025300D01*
X132860000Y-133620000D02*
X132860000Y-130769700D01*
X130458400Y-115924900D02*
X132428900Y-115924900D01*
X132428900Y-99596400D02*
X132428900Y-115924900D01*
X133000000Y-99025300D02*
X132428900Y-99596400D01*
X132428900Y-130338600D02*
X132860000Y-130769700D01*
X132428900Y-115924900D02*
X132428900Y-130338600D01*
X133620000Y-72161400D02*
X133620000Y-73000000D01*
X134769000Y-71012400D02*
X133620000Y-72161400D01*
X134769000Y-55149000D02*
X134769000Y-71012400D01*
X133620000Y-54000000D02*
X134769000Y-55149000D01*
X135000000Y-98000000D02*
X135000000Y-99025300D01*
X134860000Y-133620000D02*
X134860000Y-130769700D01*
X133782200Y-117534600D02*
X133087600Y-117534600D01*
X133782200Y-100243100D02*
X133782200Y-117534600D01*
X135000000Y-99025300D02*
X133782200Y-100243100D01*
X133782200Y-129691900D02*
X134860000Y-130769700D01*
X133782200Y-117534600D02*
X133782200Y-129691900D01*
X137000000Y-98000000D02*
X137000000Y-99025300D01*
X136160000Y-72161400D02*
X136160000Y-73000000D01*
X137309000Y-71012400D02*
X136160000Y-72161400D01*
X137309000Y-69776700D02*
X137309000Y-71012400D01*
X136160000Y-68627700D02*
X137309000Y-69776700D01*
X136160000Y-54000000D02*
X136160000Y-68627700D01*
X136860000Y-133620000D02*
X136860000Y-130769700D01*
X135858600Y-117434000D02*
X134487800Y-117434000D01*
X135858600Y-100166700D02*
X135858600Y-117434000D01*
X137000000Y-99025300D02*
X135858600Y-100166700D01*
X135858600Y-129768300D02*
X136860000Y-130769700D01*
X135858600Y-117434000D02*
X135858600Y-129768300D01*
X139000000Y-98000000D02*
X139000000Y-99025300D01*
X138860000Y-99165300D02*
X138860000Y-119101600D01*
X139000000Y-99025300D02*
X138860000Y-99165300D01*
X138860000Y-119101600D02*
X138860000Y-133620000D01*
X139811200Y-55111200D02*
X138700000Y-54000000D01*
X139811200Y-71888800D02*
X139811200Y-55111200D01*
X138700000Y-73000000D02*
X139811200Y-71888800D01*
X138860000Y-119101600D02*
X138015400Y-119101600D01*
X141240000Y-72161400D02*
X141240000Y-73000000D01*
X142371800Y-71029600D02*
X141240000Y-72161400D01*
X142371800Y-69759500D02*
X142371800Y-71029600D01*
X141240000Y-68627700D02*
X142371800Y-69759500D01*
X141240000Y-54000000D02*
X141240000Y-68627700D01*
X140860000Y-99165300D02*
X140860000Y-133620000D01*
X141000000Y-99025300D02*
X140860000Y-99165300D01*
X141000000Y-98000000D02*
X141000000Y-99025300D01*
X141240000Y-93598600D02*
X141240000Y-73000000D01*
X140832100Y-94006500D02*
X141240000Y-93598600D01*
X142860000Y-99165300D02*
X142860000Y-133620000D01*
X143000000Y-99025300D02*
X142860000Y-99165300D01*
X143000000Y-98000000D02*
X143000000Y-99025300D01*
X142621500Y-93075500D02*
X142940900Y-93394900D01*
X142621500Y-74557800D02*
X142621500Y-93075500D01*
X143780000Y-73399300D02*
X142621500Y-74557800D01*
X143780000Y-73000000D02*
X143780000Y-73399300D01*
X145000000Y-98000000D02*
X145000000Y-99025300D01*
X146320000Y-72161400D02*
X146320000Y-73000000D01*
X147431000Y-71050400D02*
X146320000Y-72161400D01*
X147431000Y-55111000D02*
X147431000Y-71050400D01*
X146320000Y-54000000D02*
X147431000Y-55111000D01*
X144860000Y-99165300D02*
X145000000Y-99025300D01*
X144860000Y-133620000D02*
X144860000Y-99165300D01*
X146320000Y-73000000D02*
X146320000Y-92729200D01*
X146860000Y-99165300D02*
X146860000Y-133620000D01*
X147000000Y-99025300D02*
X146860000Y-99165300D01*
X147000000Y-98000000D02*
X147000000Y-99025300D01*
X148361800Y-73498200D02*
X148860000Y-73000000D01*
X148361800Y-92035200D02*
X148361800Y-73498200D01*
X150002500Y-55142500D02*
X148860000Y-54000000D01*
X150002500Y-71857500D02*
X150002500Y-55142500D01*
X148860000Y-73000000D02*
X150002500Y-71857500D01*
X149000000Y-98000000D02*
X149000000Y-99025300D01*
X151400000Y-72161400D02*
X151400000Y-73000000D01*
X152511000Y-71050400D02*
X151400000Y-72161400D01*
X152511000Y-55111000D02*
X152511000Y-71050400D01*
X151400000Y-54000000D02*
X152511000Y-55111000D01*
X148860000Y-99165300D02*
X148860000Y-130769700D01*
X149000000Y-99025300D02*
X148860000Y-99165300D01*
X148860000Y-133620000D02*
X148860000Y-130769700D01*
X151400000Y-73000000D02*
X151400000Y-90932200D01*
X151000000Y-98000000D02*
X151000000Y-99025300D01*
X150860000Y-133620000D02*
X150860000Y-103469800D01*
X150860000Y-99165300D02*
X151000000Y-99025300D01*
X150860000Y-103469800D02*
X150860000Y-99165300D01*
X156480000Y-72161400D02*
X156480000Y-73000000D01*
X157591000Y-71050400D02*
X156480000Y-72161400D01*
X157591000Y-55111000D02*
X157591000Y-71050400D01*
X156480000Y-54000000D02*
X157591000Y-55111000D01*
X153000000Y-98000000D02*
X153000000Y-99025300D01*
X152860000Y-99165300D02*
X152860000Y-102161200D01*
X153000000Y-99025300D02*
X152860000Y-99165300D01*
X152860000Y-102161200D02*
X152860000Y-133620000D01*
X159020000Y-72161400D02*
X159020000Y-73000000D01*
X160131000Y-71050400D02*
X159020000Y-72161400D01*
X160131000Y-69738700D02*
X160131000Y-71050400D01*
X159020000Y-68627700D02*
X160131000Y-69738700D01*
X159020000Y-54000000D02*
X159020000Y-68627700D01*
X154860000Y-99165300D02*
X154860000Y-133620000D01*
X155000000Y-99025300D02*
X154860000Y-99165300D01*
X155000000Y-98000000D02*
X155000000Y-99025300D01*
X156860000Y-99165300D02*
X156860000Y-133620000D01*
X157000000Y-99025300D02*
X156860000Y-99165300D01*
X157000000Y-98000000D02*
X157000000Y-99025300D01*
X161560000Y-72180400D02*
X161560000Y-73000000D01*
X162703500Y-71036900D02*
X161560000Y-72180400D01*
X162703500Y-69771200D02*
X162703500Y-71036900D01*
X161560000Y-68627700D02*
X162703500Y-69771200D01*
X161560000Y-54000000D02*
X161560000Y-68627700D01*
X169499400Y-90000000D02*
X169499400Y-88749300D01*
X169499400Y-64000000D02*
X169499400Y-65250700D01*
X169519500Y-65270800D02*
X169519500Y-65422800D01*
X169499400Y-65250700D02*
X169519500Y-65270800D01*
X158860000Y-105008600D02*
X158860000Y-133620000D01*
X159257500Y-104611100D02*
X158860000Y-105008600D01*
X171528700Y-86720000D02*
X172870700Y-86720000D01*
X169499400Y-88749300D02*
X171528700Y-86720000D01*
X170325200Y-46076500D02*
X169499400Y-45250700D01*
X170325200Y-61773700D02*
X170325200Y-46076500D01*
X170200500Y-61898400D02*
X170325200Y-61773700D01*
X169499400Y-44000000D02*
X169499400Y-45250700D01*
X166640000Y-72161400D02*
X166640000Y-73000000D01*
X167751000Y-71050400D02*
X166640000Y-72161400D01*
X167751000Y-69738700D02*
X167751000Y-71050400D01*
X166640000Y-68627700D02*
X167751000Y-69738700D01*
X166640000Y-54000000D02*
X166640000Y-68627700D01*
X161000000Y-130629700D02*
X160860000Y-130769700D01*
X161000000Y-98000000D02*
X161000000Y-130629700D01*
X160860000Y-133620000D02*
X160860000Y-130769700D01*
X163000000Y-98000000D02*
X163000000Y-99025300D01*
X163000000Y-99025300D02*
X163000000Y-102303000D01*
X163000000Y-130629700D02*
X162860000Y-130769700D01*
X163000000Y-102303000D02*
X163000000Y-130629700D01*
X162860000Y-133620000D02*
X162860000Y-130769700D01*
X169180000Y-72292300D02*
X169180000Y-73000000D01*
X170290400Y-71181900D02*
X169180000Y-72292300D01*
X170290400Y-68611500D02*
X170290400Y-71181900D01*
X171599900Y-67302000D02*
X170290400Y-68611500D01*
X171599900Y-62934900D02*
X171599900Y-67302000D01*
X171213700Y-62548700D02*
X171599900Y-62934900D01*
X169931200Y-62548700D02*
X171213700Y-62548700D01*
X169180000Y-61797500D02*
X169931200Y-62548700D01*
X169180000Y-54000000D02*
X169180000Y-61797500D01*
X165000000Y-98000000D02*
X165000000Y-99025300D01*
X164860000Y-133620000D02*
X164860000Y-130769700D01*
X175808300Y-94206200D02*
X175808300Y-91371700D01*
X172534200Y-97480300D02*
X175808300Y-94206200D01*
X172534200Y-98655600D02*
X172534200Y-97480300D01*
X171628900Y-99560900D02*
X172534200Y-98655600D01*
X165000000Y-99560900D02*
X171628900Y-99560900D01*
X165000000Y-130629700D02*
X165000000Y-99560900D01*
X164860000Y-130769700D02*
X165000000Y-130629700D01*
X165000000Y-99560900D02*
X165000000Y-99025300D01*
X169000000Y-98000000D02*
X169000000Y-96000000D01*
X175408700Y-46609000D02*
X175408700Y-52267700D01*
X174000000Y-45200300D02*
X175408700Y-46609000D01*
X174000000Y-44000000D02*
X174000000Y-45200300D01*
X174000000Y-56556400D02*
X174000000Y-64000000D01*
X174623500Y-55932900D02*
X174000000Y-56556400D01*
X174000000Y-64000000D02*
X174000000Y-65200300D01*
X177850000Y-82975000D02*
X176949700Y-82975000D01*
X175754300Y-81779600D02*
X176949700Y-82975000D01*
X175754300Y-66954600D02*
X175754300Y-81779600D01*
X174000000Y-65200300D02*
X175754300Y-66954600D01*
X168860000Y-133620000D02*
X168860000Y-130769700D01*
X168183100Y-130769700D02*
X168860000Y-130769700D01*
X167518400Y-130105000D02*
X168183100Y-130769700D01*
X167518400Y-129585000D02*
X167518400Y-130105000D01*
X168001900Y-129101500D02*
X167518400Y-129585000D01*
X168699900Y-129101500D02*
X168001900Y-129101500D01*
X169000000Y-96000000D02*
X169000000Y-94974700D01*
X172774400Y-91200300D02*
X169000000Y-94974700D01*
X173000000Y-91200300D02*
X172774400Y-91200300D01*
X173000000Y-90000000D02*
X173000000Y-91200300D01*
X173000000Y-90000000D02*
X173000000Y-88799700D01*
X173521000Y-86403700D02*
X176949700Y-82975000D01*
X173521000Y-88278700D02*
X173521000Y-86403700D01*
X173000000Y-88799700D02*
X173521000Y-88278700D01*
X168608700Y-129010300D02*
X168699900Y-129101500D01*
X168608700Y-104986900D02*
X168608700Y-129010300D01*
X173687900Y-99907700D02*
X168608700Y-104986900D01*
X170860000Y-133620000D02*
X170860000Y-130769700D01*
X160406600Y-69306600D02*
X161560000Y-70460000D01*
X160406600Y-52613400D02*
X160406600Y-69306600D01*
X161560000Y-51460000D02*
X160406600Y-52613400D01*
X160290000Y-71730000D02*
X161560000Y-70460000D01*
X160290000Y-75798400D02*
X160290000Y-71730000D01*
X157000000Y-79088400D02*
X160290000Y-75798400D01*
X157000000Y-96000000D02*
X157000000Y-79088400D01*
X168203000Y-129866300D02*
X170244900Y-129866300D01*
X170860000Y-130481400D02*
X170860000Y-130769700D01*
X170244900Y-129866300D02*
X170860000Y-130481400D01*
X170686800Y-120779600D02*
X169259000Y-119351900D01*
X170244900Y-121221500D02*
X170244900Y-129866300D01*
X170686800Y-120779600D02*
X170244900Y-121221500D01*
X183128000Y-81025000D02*
X182150000Y-81025000D01*
X183569100Y-81466100D02*
X183128000Y-81025000D01*
X183569100Y-107897300D02*
X183569100Y-81466100D01*
X170686800Y-120779600D02*
X183569100Y-107897300D01*
X182150000Y-81025000D02*
X181249700Y-81025000D01*
X171000000Y-97495700D02*
X171000000Y-98000000D01*
X174588600Y-93907100D02*
X171000000Y-97495700D01*
X174588600Y-87686100D02*
X174588600Y-93907100D01*
X179213100Y-83061600D02*
X174588600Y-87686100D01*
X179213100Y-82638800D02*
X179213100Y-83061600D01*
X180826900Y-81025000D02*
X179213100Y-82638800D01*
X181249700Y-81025000D02*
X180826900Y-81025000D01*
X128540000Y-55721700D02*
X128540000Y-70460000D01*
X127429600Y-54611300D02*
X128540000Y-55721700D01*
X127429600Y-52570400D02*
X127429600Y-54611300D01*
X128540000Y-51460000D02*
X127429600Y-52570400D01*
X131000000Y-96000000D02*
X131000000Y-94974700D01*
X127395400Y-71604600D02*
X128540000Y-70460000D01*
X127395400Y-91370100D02*
X127395400Y-71604600D01*
X131000000Y-94974700D02*
X127395400Y-91370100D01*
X133000000Y-96000000D02*
X133000000Y-94974700D01*
X129739700Y-71800300D02*
X131080000Y-70460000D01*
X129739700Y-91714400D02*
X129739700Y-71800300D01*
X133000000Y-94974700D02*
X129739700Y-91714400D01*
X132474000Y-52606000D02*
X133620000Y-51460000D01*
X132474000Y-69314000D02*
X132474000Y-52606000D01*
X133620000Y-70460000D02*
X132474000Y-69314000D01*
X135000000Y-96000000D02*
X135000000Y-94974700D01*
X132448200Y-76612900D02*
X130419400Y-76612900D01*
X132448200Y-92422900D02*
X132448200Y-76612900D01*
X135000000Y-94974700D02*
X132448200Y-92422900D01*
X132448200Y-71631800D02*
X133620000Y-70460000D01*
X132448200Y-76612900D02*
X132448200Y-71631800D01*
X137000000Y-96000000D02*
X137000000Y-94974700D01*
X135048700Y-71571300D02*
X136160000Y-70460000D01*
X135048700Y-93023400D02*
X135048700Y-71571300D01*
X137000000Y-94974700D02*
X135048700Y-93023400D01*
X137588700Y-71571300D02*
X138700000Y-70460000D01*
X137588700Y-93563400D02*
X137588700Y-71571300D01*
X139000000Y-94974700D02*
X137588700Y-93563400D01*
X139000000Y-96000000D02*
X139000000Y-94974700D01*
X137589600Y-69349600D02*
X138700000Y-70460000D01*
X137589600Y-52570400D02*
X137589600Y-69349600D01*
X138700000Y-51460000D02*
X137589600Y-52570400D01*
X141000000Y-96000000D02*
X141000000Y-94974700D01*
X140880700Y-94974700D02*
X141000000Y-94974700D01*
X140098900Y-94192900D02*
X140880700Y-94974700D01*
X140098900Y-72439700D02*
X140098900Y-94192900D01*
X141240000Y-71298600D02*
X140098900Y-72439700D01*
X141240000Y-70460000D02*
X141240000Y-71298600D01*
X143000000Y-96000000D02*
X143000000Y-94974700D01*
X142669600Y-69349600D02*
X143780000Y-70460000D01*
X142669600Y-52570400D02*
X142669600Y-69349600D01*
X143780000Y-51460000D02*
X142669600Y-52570400D01*
X142117900Y-94092600D02*
X143000000Y-94974700D01*
X142117900Y-74353700D02*
X142117900Y-94092600D01*
X142618200Y-73853400D02*
X142117900Y-74353700D01*
X142618200Y-71621800D02*
X142618200Y-73853400D01*
X143780000Y-70460000D02*
X142618200Y-71621800D01*
X145209600Y-69349600D02*
X146320000Y-70460000D01*
X145209600Y-52570400D02*
X145209600Y-69349600D01*
X146320000Y-51460000D02*
X145209600Y-52570400D01*
X145000000Y-74961200D02*
X143271900Y-74961200D01*
X145000000Y-96000000D02*
X145000000Y-74961200D01*
X145000000Y-71780000D02*
X146320000Y-70460000D01*
X145000000Y-74961200D02*
X145000000Y-71780000D01*
X147430400Y-71889600D02*
X148860000Y-70460000D01*
X147430400Y-94544300D02*
X147430400Y-71889600D01*
X147000000Y-94974700D02*
X147430400Y-94544300D01*
X147000000Y-96000000D02*
X147000000Y-94974700D01*
X151400000Y-71298700D02*
X151400000Y-70460000D01*
X149970400Y-72728300D02*
X151400000Y-71298700D01*
X149970400Y-94004300D02*
X149970400Y-72728300D01*
X149000000Y-94974700D02*
X149970400Y-94004300D01*
X149000000Y-96000000D02*
X149000000Y-94974700D01*
X152510400Y-71889600D02*
X153940000Y-70460000D01*
X152510400Y-93464300D02*
X152510400Y-71889600D01*
X151000000Y-94974700D02*
X152510400Y-93464300D01*
X151000000Y-96000000D02*
X151000000Y-94974700D01*
X155369600Y-69349600D02*
X156480000Y-70460000D01*
X155369600Y-52570400D02*
X155369600Y-69349600D01*
X156480000Y-51460000D02*
X155369600Y-52570400D01*
X153000000Y-96000000D02*
X153000000Y-94974700D01*
X155210000Y-71730000D02*
X156480000Y-70460000D01*
X155210000Y-78554500D02*
X155210000Y-71730000D01*
X154617700Y-79146800D02*
X155210000Y-78554500D01*
X154617700Y-93357000D02*
X154617700Y-79146800D01*
X153000000Y-94974700D02*
X154617700Y-93357000D01*
X157590400Y-71889600D02*
X159020000Y-70460000D01*
X157590400Y-77170600D02*
X157590400Y-71889600D01*
X155118100Y-79642900D02*
X157590400Y-77170600D01*
X155118100Y-94856600D02*
X155118100Y-79642900D01*
X155000000Y-94974700D02*
X155118100Y-94856600D01*
X155000000Y-96000000D02*
X155000000Y-94974700D01*
X174450400Y-98258500D02*
X174450400Y-97505100D01*
X175821100Y-99629200D02*
X174450400Y-98258500D01*
X175821200Y-99629200D02*
X175821100Y-99629200D01*
X175821200Y-111546500D02*
X175821200Y-99629200D01*
X162400100Y-68760100D02*
X164100000Y-70460000D01*
X162400100Y-55110400D02*
X162400100Y-68760100D01*
X162989600Y-54520900D02*
X162400100Y-55110400D01*
X162989600Y-52570400D02*
X162989600Y-54520900D01*
X164100000Y-51460000D02*
X162989600Y-52570400D01*
X162670400Y-71889600D02*
X164100000Y-70460000D01*
X162670400Y-78029200D02*
X162670400Y-71889600D01*
X159000000Y-81699600D02*
X162670400Y-78029200D01*
X159000000Y-96000000D02*
X159000000Y-81699600D01*
X162365600Y-79127100D02*
X162365600Y-93380600D01*
X165370000Y-76122700D02*
X162365600Y-79127100D01*
X165370000Y-71730000D02*
X165370000Y-76122700D01*
X166640000Y-70460000D02*
X165370000Y-71730000D01*
X161000000Y-94746200D02*
X162365600Y-93380600D01*
X161000000Y-96000000D02*
X161000000Y-94746200D01*
X174509200Y-99237100D02*
X174464000Y-99191900D01*
X174509200Y-115958500D02*
X174509200Y-99237100D01*
X163000000Y-96000000D02*
X163000000Y-94974700D01*
X167398900Y-68678900D02*
X169180000Y-70460000D01*
X167398900Y-55110400D02*
X167398900Y-68678900D01*
X168069600Y-54439700D02*
X167398900Y-55110400D01*
X168069600Y-52570400D02*
X168069600Y-54439700D01*
X169180000Y-51460000D02*
X168069600Y-52570400D01*
X164011400Y-93963300D02*
X163000000Y-94974700D01*
X165825000Y-93963300D02*
X164011400Y-93963300D01*
X167910000Y-71730000D02*
X169180000Y-70460000D01*
X167910000Y-87692100D02*
X167910000Y-71730000D01*
X166850600Y-88751500D02*
X167910000Y-87692100D01*
X166850600Y-92937700D02*
X166850600Y-88751500D01*
X165825000Y-93963300D02*
X166850600Y-92937700D01*
X173689800Y-98947400D02*
X173689800Y-98616500D01*
X167225700Y-105411500D02*
X173689800Y-98947400D01*
X167225700Y-127565100D02*
X167225700Y-105411500D01*
X164500600Y-65944800D02*
X164500600Y-64000000D01*
X163602300Y-66843100D02*
X164500600Y-65944800D01*
X165261300Y-46011400D02*
X164500600Y-45250700D01*
X165261300Y-52838700D02*
X165261300Y-46011400D01*
X164100000Y-54000000D02*
X165261300Y-52838700D01*
X164500600Y-44000000D02*
X164500600Y-45250700D01*
X179580100Y-90000000D02*
X177000000Y-90000000D01*
X164884200Y-88365700D02*
X164500600Y-88749300D01*
X166316700Y-88365700D02*
X164884200Y-88365700D01*
X164500600Y-90000000D02*
X164500600Y-88749300D01*
X183419900Y-64000000D02*
X183419900Y-65250700D01*
X182150000Y-82975000D02*
X181249700Y-82975000D01*
X182593600Y-65250700D02*
X177728900Y-70115400D01*
X183419900Y-65250700D02*
X182593600Y-65250700D01*
X181109400Y-83115300D02*
X180363700Y-83115300D01*
X181249700Y-82975000D02*
X181109400Y-83115300D01*
X183419900Y-44000000D02*
X183419900Y-45250700D01*
X176649700Y-55979100D02*
X174670600Y-54000000D01*
X176649700Y-81375000D02*
X176649700Y-55979100D01*
X176949700Y-81675000D02*
X176649700Y-81375000D01*
X183419900Y-45250700D02*
X174670600Y-54000000D01*
X174670600Y-54000000D02*
X174260000Y-54000000D01*
X177850000Y-81675000D02*
X176949700Y-81675000D01*
X182150000Y-82325000D02*
X181249700Y-82325000D01*
X182419900Y-90000000D02*
X182419900Y-91250700D01*
X175630800Y-98039800D02*
X175151300Y-98039800D01*
X182419900Y-91250700D02*
X175630800Y-98039800D01*
X168051500Y-99051500D02*
X167000000Y-98000000D01*
X171398700Y-99051500D02*
X168051500Y-99051500D01*
X172026000Y-98424200D02*
X171398700Y-99051500D01*
X172026000Y-97222900D02*
X172026000Y-98424200D01*
X175089000Y-94159900D02*
X172026000Y-97222900D01*
X175089000Y-87970800D02*
X175089000Y-94159900D01*
X179713400Y-83346400D02*
X175089000Y-87970800D01*
X179713400Y-82846000D02*
X179713400Y-83346400D01*
X180234400Y-82325000D02*
X179713400Y-82846000D01*
X181249700Y-82325000D02*
X180234400Y-82325000D01*
X178750300Y-82325000D02*
X178750300Y-81025000D01*
X177850000Y-82325000D02*
X178750300Y-82325000D01*
X177850000Y-81025000D02*
X178750300Y-81025000D01*
D22*
G36*
X187290000Y-111290000D02*
X184000000Y-111290000D01*
X183728295Y-111344046D01*
X183497954Y-111497954D01*
X174497954Y-120497954D01*
X174344046Y-120728295D01*
X174290000Y-121000000D01*
X174290000Y-135290000D01*
X171995000Y-135290000D01*
X171995000Y-133905750D01*
X171836250Y-133747000D01*
X170987000Y-133747000D01*
X170987000Y-133767000D01*
X170733000Y-133767000D01*
X170733000Y-133747000D01*
X170713000Y-133747000D01*
X170713000Y-133493000D01*
X170733000Y-133493000D01*
X170733000Y-130643750D01*
X170987000Y-130643750D01*
X170987000Y-133493000D01*
X171836250Y-133493000D01*
X171995000Y-133334250D01*
X171995000Y-130993690D01*
X171898327Y-130760301D01*
X171719698Y-130581673D01*
X171486309Y-130485000D01*
X171145750Y-130485000D01*
X170987000Y-130643750D01*
X170733000Y-130643750D01*
X170574250Y-130485000D01*
X170233691Y-130485000D01*
X170000302Y-130581673D01*
X169859064Y-130722910D01*
X169824090Y-130668559D01*
X169611890Y-130523569D01*
X169595376Y-130520225D01*
X169585245Y-130469294D01*
X169415079Y-130214621D01*
X169160406Y-130044455D01*
X168961812Y-130004952D01*
X169228843Y-129894617D01*
X169492092Y-129631827D01*
X169634738Y-129288299D01*
X169635062Y-128916333D01*
X169493017Y-128572557D01*
X169393700Y-128473067D01*
X169393700Y-105312058D01*
X173724200Y-100981557D01*
X173724200Y-115420994D01*
X173717008Y-115428173D01*
X173574362Y-115771701D01*
X173574038Y-116143667D01*
X173716083Y-116487443D01*
X173978873Y-116750692D01*
X174322401Y-116893338D01*
X174694367Y-116893662D01*
X175038143Y-116751617D01*
X175301392Y-116488827D01*
X175444038Y-116145299D01*
X175444362Y-115773333D01*
X175302317Y-115429557D01*
X175294200Y-115421426D01*
X175294200Y-112340073D01*
X175634401Y-112481338D01*
X176006367Y-112481662D01*
X176350143Y-112339617D01*
X176613392Y-112076827D01*
X176756038Y-111733299D01*
X176756362Y-111361333D01*
X176614317Y-111017557D01*
X176606200Y-111009426D01*
X176606200Y-99629200D01*
X176546445Y-99328794D01*
X176376279Y-99074121D01*
X176375975Y-99073918D01*
X176012670Y-98710613D01*
X176185879Y-98594879D01*
X182974979Y-91805779D01*
X183145145Y-91551107D01*
X183145789Y-91547870D01*
X183218690Y-91547870D01*
X183454007Y-91503592D01*
X183670131Y-91364520D01*
X183815121Y-91152320D01*
X183866130Y-90900430D01*
X183866130Y-89099570D01*
X183821852Y-88864253D01*
X183682780Y-88648129D01*
X183470580Y-88503139D01*
X183218690Y-88452130D01*
X182055700Y-88452130D01*
X182055700Y-87333058D01*
X183605379Y-85783379D01*
X183648534Y-85718793D01*
X183775545Y-85528706D01*
X183835300Y-85228300D01*
X183835300Y-81675000D01*
X183775545Y-81374594D01*
X183605379Y-81119921D01*
X183350706Y-80949755D01*
X183335000Y-80946631D01*
X183335000Y-80897998D01*
X183203252Y-80897998D01*
X183335000Y-80766250D01*
X183335000Y-80698690D01*
X183238327Y-80465301D01*
X183059698Y-80286673D01*
X182826309Y-80190000D01*
X182435750Y-80190000D01*
X182277000Y-80348750D01*
X182277000Y-80827560D01*
X182023000Y-80827560D01*
X182023000Y-80348750D01*
X181864250Y-80190000D01*
X181473691Y-80190000D01*
X181240302Y-80286673D01*
X181061673Y-80465301D01*
X180965000Y-80698690D01*
X180965000Y-80766250D01*
X181123750Y-80925000D01*
X181282067Y-80925000D01*
X181148559Y-81010910D01*
X181003569Y-81223110D01*
X180997965Y-81250785D01*
X180965000Y-81283750D01*
X180965000Y-81351310D01*
X180973468Y-81371753D01*
X180952560Y-81475000D01*
X180952560Y-81540000D01*
X180234400Y-81540000D01*
X179933993Y-81599755D01*
X179679321Y-81769921D01*
X179535300Y-81913942D01*
X179535300Y-81025000D01*
X179475545Y-80724594D01*
X179305379Y-80469921D01*
X179050706Y-80299755D01*
X178750300Y-80240000D01*
X178668620Y-80240000D01*
X178651890Y-80228569D01*
X178400000Y-80177560D01*
X177434700Y-80177560D01*
X177434700Y-71005641D01*
X177542101Y-71050238D01*
X177914067Y-71050562D01*
X178257843Y-70908517D01*
X178521092Y-70645727D01*
X178663738Y-70302199D01*
X178663748Y-70290710D01*
X182918758Y-66035700D01*
X183419900Y-66035700D01*
X183720306Y-65975945D01*
X183974979Y-65805779D01*
X184145145Y-65551106D01*
X184145789Y-65547870D01*
X184218690Y-65547870D01*
X184454007Y-65503592D01*
X184670131Y-65364520D01*
X184815121Y-65152320D01*
X184866130Y-64900430D01*
X184866130Y-63099570D01*
X184821852Y-62864253D01*
X184682780Y-62648129D01*
X184470580Y-62503139D01*
X184218690Y-62452130D01*
X182621030Y-62452130D01*
X182385713Y-62496408D01*
X182169589Y-62635480D01*
X182024599Y-62847680D01*
X182000970Y-62964366D01*
X181982132Y-62864253D01*
X181843060Y-62648129D01*
X181630860Y-62503139D01*
X181378970Y-62452130D01*
X179781310Y-62452130D01*
X179545993Y-62496408D01*
X179351448Y-62621594D01*
X179251890Y-62553569D01*
X179000000Y-62502560D01*
X177434700Y-62502560D01*
X177434700Y-55979100D01*
X177383237Y-55720379D01*
X177374945Y-55678693D01*
X177204779Y-55424021D01*
X175780758Y-54000000D01*
X183974979Y-45805779D01*
X184145145Y-45551106D01*
X184145789Y-45547870D01*
X184218690Y-45547870D01*
X184454007Y-45503592D01*
X184670131Y-45364520D01*
X184815121Y-45152320D01*
X184866130Y-44900430D01*
X184866130Y-43099570D01*
X184821852Y-42864253D01*
X184682780Y-42648129D01*
X184470580Y-42503139D01*
X184218690Y-42452130D01*
X182621030Y-42452130D01*
X182385713Y-42496408D01*
X182169589Y-42635480D01*
X182024599Y-42847680D01*
X182000970Y-42964366D01*
X181982132Y-42864253D01*
X181843060Y-42648129D01*
X181630860Y-42503139D01*
X181378970Y-42452130D01*
X179781310Y-42452130D01*
X179545993Y-42496408D01*
X179351448Y-42621594D01*
X179251890Y-42553569D01*
X179000000Y-42502560D01*
X177000000Y-42502560D01*
X176764683Y-42546838D01*
X176548559Y-42685910D01*
X176403569Y-42898110D01*
X176352560Y-43150000D01*
X176352560Y-44850000D01*
X176396838Y-45085317D01*
X176535910Y-45301441D01*
X176748110Y-45446431D01*
X177000000Y-45497440D01*
X179000000Y-45497440D01*
X179235317Y-45453162D01*
X179353842Y-45376893D01*
X179529420Y-45496861D01*
X179781310Y-45547870D01*
X181378970Y-45547870D01*
X181614287Y-45503592D01*
X181830411Y-45364520D01*
X181975401Y-45152320D01*
X181999030Y-45035634D01*
X182017868Y-45135747D01*
X182156940Y-45351871D01*
X182187613Y-45372829D01*
X176193700Y-51366742D01*
X176193700Y-46609005D01*
X176193701Y-46609000D01*
X176133945Y-46308594D01*
X175963779Y-46053921D01*
X175313020Y-45403162D01*
X175451441Y-45314090D01*
X175596431Y-45101890D01*
X175647440Y-44850000D01*
X175647440Y-43150000D01*
X175603162Y-42914683D01*
X175464090Y-42698559D01*
X175251890Y-42553569D01*
X175000000Y-42502560D01*
X173000000Y-42502560D01*
X172764683Y-42546838D01*
X172548559Y-42685910D01*
X172403569Y-42898110D01*
X172352560Y-43150000D01*
X172352560Y-44850000D01*
X172396838Y-45085317D01*
X172535910Y-45301441D01*
X172748110Y-45446431D01*
X173000000Y-45497440D01*
X173274105Y-45497440D01*
X173274755Y-45500707D01*
X173444921Y-45755379D01*
X174623700Y-46934158D01*
X174623700Y-50108649D01*
X174467220Y-50052845D01*
X173912951Y-50080659D01*
X173530059Y-50239258D01*
X173460841Y-50481236D01*
X174260000Y-51280395D01*
X174274143Y-51266253D01*
X174453748Y-51445858D01*
X174439605Y-51460000D01*
X174453748Y-51474143D01*
X174274143Y-51653748D01*
X174260000Y-51639605D01*
X174245858Y-51653748D01*
X174066253Y-51474143D01*
X174080395Y-51460000D01*
X173281236Y-50660841D01*
X173039258Y-50730059D01*
X172987618Y-50874862D01*
X172903313Y-50670828D01*
X172511236Y-50278066D01*
X171998700Y-50065242D01*
X171443735Y-50064758D01*
X171110200Y-50202572D01*
X171110200Y-46076505D01*
X171110201Y-46076500D01*
X171050445Y-45776094D01*
X170897952Y-45547870D01*
X171249420Y-45547870D01*
X171484737Y-45503592D01*
X171700861Y-45364520D01*
X171845851Y-45152320D01*
X171896860Y-44900430D01*
X171896860Y-43099570D01*
X171852582Y-42864253D01*
X171713510Y-42648129D01*
X171501310Y-42503139D01*
X171249420Y-42452130D01*
X167749300Y-42452130D01*
X167513983Y-42496408D01*
X167297859Y-42635480D01*
X167152869Y-42847680D01*
X167101860Y-43099570D01*
X167101860Y-44900430D01*
X167146138Y-45135747D01*
X167285210Y-45351871D01*
X167497410Y-45496861D01*
X167749300Y-45547870D01*
X168773511Y-45547870D01*
X168774155Y-45551107D01*
X168944321Y-45805779D01*
X169540200Y-46401658D01*
X169540200Y-50099084D01*
X169458700Y-50065242D01*
X168903735Y-50064758D01*
X168390828Y-50276687D01*
X167998066Y-50668764D01*
X167910046Y-50880738D01*
X167823313Y-50670828D01*
X167431236Y-50278066D01*
X166918700Y-50065242D01*
X166363735Y-50064758D01*
X166046300Y-50195920D01*
X166046300Y-46011400D01*
X166041108Y-45985300D01*
X165986545Y-45710993D01*
X165877550Y-45547870D01*
X166250700Y-45547870D01*
X166486017Y-45503592D01*
X166702141Y-45364520D01*
X166847131Y-45152320D01*
X166898140Y-44900430D01*
X166898140Y-43099570D01*
X166853862Y-42864253D01*
X166714790Y-42648129D01*
X166502590Y-42503139D01*
X166250700Y-42452130D01*
X162750580Y-42452130D01*
X162515263Y-42496408D01*
X162299139Y-42635480D01*
X162154149Y-42847680D01*
X162103140Y-43099570D01*
X162103140Y-44900430D01*
X162147418Y-45135747D01*
X162286490Y-45351871D01*
X162498690Y-45496861D01*
X162750580Y-45547870D01*
X163774711Y-45547870D01*
X163775355Y-45551107D01*
X163945521Y-45805779D01*
X164476300Y-46336558D01*
X164476300Y-50105769D01*
X164378700Y-50065242D01*
X163823735Y-50064758D01*
X163310828Y-50276687D01*
X162918066Y-50668764D01*
X162836609Y-50864934D01*
X162780742Y-50730059D01*
X162538764Y-50660841D01*
X161739605Y-51460000D01*
X161753748Y-51474143D01*
X161574143Y-51653748D01*
X161560000Y-51639605D01*
X160760841Y-52438764D01*
X160830059Y-52680742D01*
X160974862Y-52732382D01*
X160770828Y-52816687D01*
X160378066Y-53208764D01*
X160290046Y-53420738D01*
X160203313Y-53210828D01*
X159811236Y-52818066D01*
X159599262Y-52730046D01*
X159809172Y-52643313D01*
X160201934Y-52251236D01*
X160283391Y-52055066D01*
X160339258Y-52189941D01*
X160581236Y-52259159D01*
X161380395Y-51460000D01*
X160581236Y-50660841D01*
X160339258Y-50730059D01*
X160287618Y-50874862D01*
X160203313Y-50670828D01*
X160014052Y-50481236D01*
X160760841Y-50481236D01*
X161560000Y-51280395D01*
X162359159Y-50481236D01*
X162289941Y-50239258D01*
X161767220Y-50052845D01*
X161212951Y-50080659D01*
X160830059Y-50239258D01*
X160760841Y-50481236D01*
X160014052Y-50481236D01*
X159811236Y-50278066D01*
X159298700Y-50065242D01*
X158743735Y-50064758D01*
X158230828Y-50276687D01*
X157838066Y-50668764D01*
X157750046Y-50880738D01*
X157663313Y-50670828D01*
X157271236Y-50278066D01*
X156758700Y-50065242D01*
X156203735Y-50064758D01*
X155690828Y-50276687D01*
X155298066Y-50668764D01*
X155210046Y-50880738D01*
X155123313Y-50670828D01*
X154731236Y-50278066D01*
X154218700Y-50065242D01*
X153663735Y-50064758D01*
X153150828Y-50276687D01*
X152758066Y-50668764D01*
X152670046Y-50880738D01*
X152583313Y-50670828D01*
X152191236Y-50278066D01*
X151678700Y-50065242D01*
X151123735Y-50064758D01*
X150610828Y-50276687D01*
X150218066Y-50668764D01*
X150130046Y-50880738D01*
X150043313Y-50670828D01*
X149651236Y-50278066D01*
X149138700Y-50065242D01*
X148583735Y-50064758D01*
X148070828Y-50276687D01*
X147678066Y-50668764D01*
X147590046Y-50880738D01*
X147503313Y-50670828D01*
X147111236Y-50278066D01*
X146598700Y-50065242D01*
X146043735Y-50064758D01*
X145530828Y-50276687D01*
X145138066Y-50668764D01*
X145050046Y-50880738D01*
X144963313Y-50670828D01*
X144571236Y-50278066D01*
X144058700Y-50065242D01*
X143503735Y-50064758D01*
X142990828Y-50276687D01*
X142598066Y-50668764D01*
X142510046Y-50880738D01*
X142423313Y-50670828D01*
X142031236Y-50278066D01*
X141518700Y-50065242D01*
X140963735Y-50064758D01*
X140450828Y-50276687D01*
X140058066Y-50668764D01*
X139970046Y-50880738D01*
X139883313Y-50670828D01*
X139491236Y-50278066D01*
X138978700Y-50065242D01*
X138423735Y-50064758D01*
X137910828Y-50276687D01*
X137518066Y-50668764D01*
X137430046Y-50880738D01*
X137343313Y-50670828D01*
X136951236Y-50278066D01*
X136438700Y-50065242D01*
X135883735Y-50064758D01*
X135370828Y-50276687D01*
X134978066Y-50668764D01*
X134890046Y-50880738D01*
X134803313Y-50670828D01*
X134411236Y-50278066D01*
X133898700Y-50065242D01*
X133343735Y-50064758D01*
X132830828Y-50276687D01*
X132438066Y-50668764D01*
X132350046Y-50880738D01*
X132263313Y-50670828D01*
X131871236Y-50278066D01*
X131358700Y-50065242D01*
X130803735Y-50064758D01*
X130290828Y-50276687D01*
X129898066Y-50668764D01*
X129810046Y-50880738D01*
X129723313Y-50670828D01*
X129331236Y-50278066D01*
X128818700Y-50065242D01*
X128263735Y-50064758D01*
X127750828Y-50276687D01*
X127358066Y-50668764D01*
X127270046Y-50880738D01*
X127183313Y-50670828D01*
X126791236Y-50278066D01*
X126278700Y-50065242D01*
X125723735Y-50064758D01*
X125210828Y-50276687D01*
X124818066Y-50668764D01*
X124605242Y-51181300D01*
X124604758Y-51736265D01*
X124607337Y-51742505D01*
X124334521Y-52015321D01*
X124164355Y-52269993D01*
X124130784Y-52438764D01*
X124104600Y-52570400D01*
X124104600Y-69349600D01*
X124164355Y-69650007D01*
X124334521Y-69904679D01*
X124606973Y-70177131D01*
X124605242Y-70181300D01*
X124604758Y-70736265D01*
X124607337Y-70742505D01*
X124334521Y-71015321D01*
X124164355Y-71269993D01*
X124132608Y-71429594D01*
X124104600Y-71570400D01*
X124104600Y-90864300D01*
X124164355Y-91164707D01*
X124334521Y-91419379D01*
X128029421Y-95114279D01*
X127789718Y-95473021D01*
X127690000Y-95974336D01*
X127690000Y-96025664D01*
X127718898Y-96170944D01*
X127076921Y-96812921D01*
X126906755Y-97067593D01*
X126877434Y-97215000D01*
X126847000Y-97368000D01*
X126847000Y-129981294D01*
X126839808Y-129988473D01*
X126697162Y-130332001D01*
X126696838Y-130703967D01*
X126838883Y-131047743D01*
X127101673Y-131310992D01*
X127445201Y-131453638D01*
X127712560Y-131453871D01*
X127712560Y-135290000D01*
X125710000Y-135290000D01*
X125710000Y-121000000D01*
X125655954Y-120728295D01*
X125502046Y-120497954D01*
X116502046Y-111497954D01*
X116271705Y-111344046D01*
X116000000Y-111290000D01*
X112710000Y-111290000D01*
X112710000Y-36710000D01*
X187290000Y-36710000D01*
X187290000Y-111290000D01*
X187290000Y-111290000D01*
G37*
X187290000Y-111290000D02*
X184000000Y-111290000D01*
X183728295Y-111344046D01*
X183497954Y-111497954D01*
X174497954Y-120497954D01*
X174344046Y-120728295D01*
X174290000Y-121000000D01*
X174290000Y-135290000D01*
X171995000Y-135290000D01*
X171995000Y-133905750D01*
X171836250Y-133747000D01*
X170987000Y-133747000D01*
X170987000Y-133767000D01*
X170733000Y-133767000D01*
X170733000Y-133747000D01*
X170713000Y-133747000D01*
X170713000Y-133493000D01*
X170733000Y-133493000D01*
X170733000Y-130643750D01*
X170987000Y-130643750D01*
X170987000Y-133493000D01*
X171836250Y-133493000D01*
X171995000Y-133334250D01*
X171995000Y-130993690D01*
X171898327Y-130760301D01*
X171719698Y-130581673D01*
X171486309Y-130485000D01*
X171145750Y-130485000D01*
X170987000Y-130643750D01*
X170733000Y-130643750D01*
X170574250Y-130485000D01*
X170233691Y-130485000D01*
X170000302Y-130581673D01*
X169859064Y-130722910D01*
X169824090Y-130668559D01*
X169611890Y-130523569D01*
X169595376Y-130520225D01*
X169585245Y-130469294D01*
X169415079Y-130214621D01*
X169160406Y-130044455D01*
X168961812Y-130004952D01*
X169228843Y-129894617D01*
X169492092Y-129631827D01*
X169634738Y-129288299D01*
X169635062Y-128916333D01*
X169493017Y-128572557D01*
X169393700Y-128473067D01*
X169393700Y-105312058D01*
X173724200Y-100981557D01*
X173724200Y-115420994D01*
X173717008Y-115428173D01*
X173574362Y-115771701D01*
X173574038Y-116143667D01*
X173716083Y-116487443D01*
X173978873Y-116750692D01*
X174322401Y-116893338D01*
X174694367Y-116893662D01*
X175038143Y-116751617D01*
X175301392Y-116488827D01*
X175444038Y-116145299D01*
X175444362Y-115773333D01*
X175302317Y-115429557D01*
X175294200Y-115421426D01*
X175294200Y-112340073D01*
X175634401Y-112481338D01*
X176006367Y-112481662D01*
X176350143Y-112339617D01*
X176613392Y-112076827D01*
X176756038Y-111733299D01*
X176756362Y-111361333D01*
X176614317Y-111017557D01*
X176606200Y-111009426D01*
X176606200Y-99629200D01*
X176546445Y-99328794D01*
X176376279Y-99074121D01*
X176375975Y-99073918D01*
X176012670Y-98710613D01*
X176185879Y-98594879D01*
X182974979Y-91805779D01*
X183145145Y-91551107D01*
X183145789Y-91547870D01*
X183218690Y-91547870D01*
X183454007Y-91503592D01*
X183670131Y-91364520D01*
X183815121Y-91152320D01*
X183866130Y-90900430D01*
X183866130Y-89099570D01*
X183821852Y-88864253D01*
X183682780Y-88648129D01*
X183470580Y-88503139D01*
X183218690Y-88452130D01*
X182055700Y-88452130D01*
X182055700Y-87333058D01*
X183605379Y-85783379D01*
X183648534Y-85718793D01*
X183775545Y-85528706D01*
X183835300Y-85228300D01*
X183835300Y-81675000D01*
X183775545Y-81374594D01*
X183605379Y-81119921D01*
X183350706Y-80949755D01*
X183335000Y-80946631D01*
X183335000Y-80897998D01*
X183203252Y-80897998D01*
X183335000Y-80766250D01*
X183335000Y-80698690D01*
X183238327Y-80465301D01*
X183059698Y-80286673D01*
X182826309Y-80190000D01*
X182435750Y-80190000D01*
X182277000Y-80348750D01*
X182277000Y-80827560D01*
X182023000Y-80827560D01*
X182023000Y-80348750D01*
X181864250Y-80190000D01*
X181473691Y-80190000D01*
X181240302Y-80286673D01*
X181061673Y-80465301D01*
X180965000Y-80698690D01*
X180965000Y-80766250D01*
X181123750Y-80925000D01*
X181282067Y-80925000D01*
X181148559Y-81010910D01*
X181003569Y-81223110D01*
X180997965Y-81250785D01*
X180965000Y-81283750D01*
X180965000Y-81351310D01*
X180973468Y-81371753D01*
X180952560Y-81475000D01*
X180952560Y-81540000D01*
X180234400Y-81540000D01*
X179933993Y-81599755D01*
X179679321Y-81769921D01*
X179535300Y-81913942D01*
X179535300Y-81025000D01*
X179475545Y-80724594D01*
X179305379Y-80469921D01*
X179050706Y-80299755D01*
X178750300Y-80240000D01*
X178668620Y-80240000D01*
X178651890Y-80228569D01*
X178400000Y-80177560D01*
X177434700Y-80177560D01*
X177434700Y-71005641D01*
X177542101Y-71050238D01*
X177914067Y-71050562D01*
X178257843Y-70908517D01*
X178521092Y-70645727D01*
X178663738Y-70302199D01*
X178663748Y-70290710D01*
X182918758Y-66035700D01*
X183419900Y-66035700D01*
X183720306Y-65975945D01*
X183974979Y-65805779D01*
X184145145Y-65551106D01*
X184145789Y-65547870D01*
X184218690Y-65547870D01*
X184454007Y-65503592D01*
X184670131Y-65364520D01*
X184815121Y-65152320D01*
X184866130Y-64900430D01*
X184866130Y-63099570D01*
X184821852Y-62864253D01*
X184682780Y-62648129D01*
X184470580Y-62503139D01*
X184218690Y-62452130D01*
X182621030Y-62452130D01*
X182385713Y-62496408D01*
X182169589Y-62635480D01*
X182024599Y-62847680D01*
X182000970Y-62964366D01*
X181982132Y-62864253D01*
X181843060Y-62648129D01*
X181630860Y-62503139D01*
X181378970Y-62452130D01*
X179781310Y-62452130D01*
X179545993Y-62496408D01*
X179351448Y-62621594D01*
X179251890Y-62553569D01*
X179000000Y-62502560D01*
X177434700Y-62502560D01*
X177434700Y-55979100D01*
X177383237Y-55720379D01*
X177374945Y-55678693D01*
X177204779Y-55424021D01*
X175780758Y-54000000D01*
X183974979Y-45805779D01*
X184145145Y-45551106D01*
X184145789Y-45547870D01*
X184218690Y-45547870D01*
X184454007Y-45503592D01*
X184670131Y-45364520D01*
X184815121Y-45152320D01*
X184866130Y-44900430D01*
X184866130Y-43099570D01*
X184821852Y-42864253D01*
X184682780Y-42648129D01*
X184470580Y-42503139D01*
X184218690Y-42452130D01*
X182621030Y-42452130D01*
X182385713Y-42496408D01*
X182169589Y-42635480D01*
X182024599Y-42847680D01*
X182000970Y-42964366D01*
X181982132Y-42864253D01*
X181843060Y-42648129D01*
X181630860Y-42503139D01*
X181378970Y-42452130D01*
X179781310Y-42452130D01*
X179545993Y-42496408D01*
X179351448Y-42621594D01*
X179251890Y-42553569D01*
X179000000Y-42502560D01*
X177000000Y-42502560D01*
X176764683Y-42546838D01*
X176548559Y-42685910D01*
X176403569Y-42898110D01*
X176352560Y-43150000D01*
X176352560Y-44850000D01*
X176396838Y-45085317D01*
X176535910Y-45301441D01*
X176748110Y-45446431D01*
X177000000Y-45497440D01*
X179000000Y-45497440D01*
X179235317Y-45453162D01*
X179353842Y-45376893D01*
X179529420Y-45496861D01*
X179781310Y-45547870D01*
X181378970Y-45547870D01*
X181614287Y-45503592D01*
X181830411Y-45364520D01*
X181975401Y-45152320D01*
X181999030Y-45035634D01*
X182017868Y-45135747D01*
X182156940Y-45351871D01*
X182187613Y-45372829D01*
X176193700Y-51366742D01*
X176193700Y-46609005D01*
X176193701Y-46609000D01*
X176133945Y-46308594D01*
X175963779Y-46053921D01*
X175313020Y-45403162D01*
X175451441Y-45314090D01*
X175596431Y-45101890D01*
X175647440Y-44850000D01*
X175647440Y-43150000D01*
X175603162Y-42914683D01*
X175464090Y-42698559D01*
X175251890Y-42553569D01*
X175000000Y-42502560D01*
X173000000Y-42502560D01*
X172764683Y-42546838D01*
X172548559Y-42685910D01*
X172403569Y-42898110D01*
X172352560Y-43150000D01*
X172352560Y-44850000D01*
X172396838Y-45085317D01*
X172535910Y-45301441D01*
X172748110Y-45446431D01*
X173000000Y-45497440D01*
X173274105Y-45497440D01*
X173274755Y-45500707D01*
X173444921Y-45755379D01*
X174623700Y-46934158D01*
X174623700Y-50108649D01*
X174467220Y-50052845D01*
X173912951Y-50080659D01*
X173530059Y-50239258D01*
X173460841Y-50481236D01*
X174260000Y-51280395D01*
X174274143Y-51266253D01*
X174453748Y-51445858D01*
X174439605Y-51460000D01*
X174453748Y-51474143D01*
X174274143Y-51653748D01*
X174260000Y-51639605D01*
X174245858Y-51653748D01*
X174066253Y-51474143D01*
X174080395Y-51460000D01*
X173281236Y-50660841D01*
X173039258Y-50730059D01*
X172987618Y-50874862D01*
X172903313Y-50670828D01*
X172511236Y-50278066D01*
X171998700Y-50065242D01*
X171443735Y-50064758D01*
X171110200Y-50202572D01*
X171110200Y-46076505D01*
X171110201Y-46076500D01*
X171050445Y-45776094D01*
X170897952Y-45547870D01*
X171249420Y-45547870D01*
X171484737Y-45503592D01*
X171700861Y-45364520D01*
X171845851Y-45152320D01*
X171896860Y-44900430D01*
X171896860Y-43099570D01*
X171852582Y-42864253D01*
X171713510Y-42648129D01*
X171501310Y-42503139D01*
X171249420Y-42452130D01*
X167749300Y-42452130D01*
X167513983Y-42496408D01*
X167297859Y-42635480D01*
X167152869Y-42847680D01*
X167101860Y-43099570D01*
X167101860Y-44900430D01*
X167146138Y-45135747D01*
X167285210Y-45351871D01*
X167497410Y-45496861D01*
X167749300Y-45547870D01*
X168773511Y-45547870D01*
X168774155Y-45551107D01*
X168944321Y-45805779D01*
X169540200Y-46401658D01*
X169540200Y-50099084D01*
X169458700Y-50065242D01*
X168903735Y-50064758D01*
X168390828Y-50276687D01*
X167998066Y-50668764D01*
X167910046Y-50880738D01*
X167823313Y-50670828D01*
X167431236Y-50278066D01*
X166918700Y-50065242D01*
X166363735Y-50064758D01*
X166046300Y-50195920D01*
X166046300Y-46011400D01*
X166041108Y-45985300D01*
X165986545Y-45710993D01*
X165877550Y-45547870D01*
X166250700Y-45547870D01*
X166486017Y-45503592D01*
X166702141Y-45364520D01*
X166847131Y-45152320D01*
X166898140Y-44900430D01*
X166898140Y-43099570D01*
X166853862Y-42864253D01*
X166714790Y-42648129D01*
X166502590Y-42503139D01*
X166250700Y-42452130D01*
X162750580Y-42452130D01*
X162515263Y-42496408D01*
X162299139Y-42635480D01*
X162154149Y-42847680D01*
X162103140Y-43099570D01*
X162103140Y-44900430D01*
X162147418Y-45135747D01*
X162286490Y-45351871D01*
X162498690Y-45496861D01*
X162750580Y-45547870D01*
X163774711Y-45547870D01*
X163775355Y-45551107D01*
X163945521Y-45805779D01*
X164476300Y-46336558D01*
X164476300Y-50105769D01*
X164378700Y-50065242D01*
X163823735Y-50064758D01*
X163310828Y-50276687D01*
X162918066Y-50668764D01*
X162836609Y-50864934D01*
X162780742Y-50730059D01*
X162538764Y-50660841D01*
X161739605Y-51460000D01*
X161753748Y-51474143D01*
X161574143Y-51653748D01*
X161560000Y-51639605D01*
X160760841Y-52438764D01*
X160830059Y-52680742D01*
X160974862Y-52732382D01*
X160770828Y-52816687D01*
X160378066Y-53208764D01*
X160290046Y-53420738D01*
X160203313Y-53210828D01*
X159811236Y-52818066D01*
X159599262Y-52730046D01*
X159809172Y-52643313D01*
X160201934Y-52251236D01*
X160283391Y-52055066D01*
X160339258Y-52189941D01*
X160581236Y-52259159D01*
X161380395Y-51460000D01*
X160581236Y-50660841D01*
X160339258Y-50730059D01*
X160287618Y-50874862D01*
X160203313Y-50670828D01*
X160014052Y-50481236D01*
X160760841Y-50481236D01*
X161560000Y-51280395D01*
X162359159Y-50481236D01*
X162289941Y-50239258D01*
X161767220Y-50052845D01*
X161212951Y-50080659D01*
X160830059Y-50239258D01*
X160760841Y-50481236D01*
X160014052Y-50481236D01*
X159811236Y-50278066D01*
X159298700Y-50065242D01*
X158743735Y-50064758D01*
X158230828Y-50276687D01*
X157838066Y-50668764D01*
X157750046Y-50880738D01*
X157663313Y-50670828D01*
X157271236Y-50278066D01*
X156758700Y-50065242D01*
X156203735Y-50064758D01*
X155690828Y-50276687D01*
X155298066Y-50668764D01*
X155210046Y-50880738D01*
X155123313Y-50670828D01*
X154731236Y-50278066D01*
X154218700Y-50065242D01*
X153663735Y-50064758D01*
X153150828Y-50276687D01*
X152758066Y-50668764D01*
X152670046Y-50880738D01*
X152583313Y-50670828D01*
X152191236Y-50278066D01*
X151678700Y-50065242D01*
X151123735Y-50064758D01*
X150610828Y-50276687D01*
X150218066Y-50668764D01*
X150130046Y-50880738D01*
X150043313Y-50670828D01*
X149651236Y-50278066D01*
X149138700Y-50065242D01*
X148583735Y-50064758D01*
X148070828Y-50276687D01*
X147678066Y-50668764D01*
X147590046Y-50880738D01*
X147503313Y-50670828D01*
X147111236Y-50278066D01*
X146598700Y-50065242D01*
X146043735Y-50064758D01*
X145530828Y-50276687D01*
X145138066Y-50668764D01*
X145050046Y-50880738D01*
X144963313Y-50670828D01*
X144571236Y-50278066D01*
X144058700Y-50065242D01*
X143503735Y-50064758D01*
X142990828Y-50276687D01*
X142598066Y-50668764D01*
X142510046Y-50880738D01*
X142423313Y-50670828D01*
X142031236Y-50278066D01*
X141518700Y-50065242D01*
X140963735Y-50064758D01*
X140450828Y-50276687D01*
X140058066Y-50668764D01*
X139970046Y-50880738D01*
X139883313Y-50670828D01*
X139491236Y-50278066D01*
X138978700Y-50065242D01*
X138423735Y-50064758D01*
X137910828Y-50276687D01*
X137518066Y-50668764D01*
X137430046Y-50880738D01*
X137343313Y-50670828D01*
X136951236Y-50278066D01*
X136438700Y-50065242D01*
X135883735Y-50064758D01*
X135370828Y-50276687D01*
X134978066Y-50668764D01*
X134890046Y-50880738D01*
X134803313Y-50670828D01*
X134411236Y-50278066D01*
X133898700Y-50065242D01*
X133343735Y-50064758D01*
X132830828Y-50276687D01*
X132438066Y-50668764D01*
X132350046Y-50880738D01*
X132263313Y-50670828D01*
X131871236Y-50278066D01*
X131358700Y-50065242D01*
X130803735Y-50064758D01*
X130290828Y-50276687D01*
X129898066Y-50668764D01*
X129810046Y-50880738D01*
X129723313Y-50670828D01*
X129331236Y-50278066D01*
X128818700Y-50065242D01*
X128263735Y-50064758D01*
X127750828Y-50276687D01*
X127358066Y-50668764D01*
X127270046Y-50880738D01*
X127183313Y-50670828D01*
X126791236Y-50278066D01*
X126278700Y-50065242D01*
X125723735Y-50064758D01*
X125210828Y-50276687D01*
X124818066Y-50668764D01*
X124605242Y-51181300D01*
X124604758Y-51736265D01*
X124607337Y-51742505D01*
X124334521Y-52015321D01*
X124164355Y-52269993D01*
X124130784Y-52438764D01*
X124104600Y-52570400D01*
X124104600Y-69349600D01*
X124164355Y-69650007D01*
X124334521Y-69904679D01*
X124606973Y-70177131D01*
X124605242Y-70181300D01*
X124604758Y-70736265D01*
X124607337Y-70742505D01*
X124334521Y-71015321D01*
X124164355Y-71269993D01*
X124132608Y-71429594D01*
X124104600Y-71570400D01*
X124104600Y-90864300D01*
X124164355Y-91164707D01*
X124334521Y-91419379D01*
X128029421Y-95114279D01*
X127789718Y-95473021D01*
X127690000Y-95974336D01*
X127690000Y-96025664D01*
X127718898Y-96170944D01*
X127076921Y-96812921D01*
X126906755Y-97067593D01*
X126877434Y-97215000D01*
X126847000Y-97368000D01*
X126847000Y-129981294D01*
X126839808Y-129988473D01*
X126697162Y-130332001D01*
X126696838Y-130703967D01*
X126838883Y-131047743D01*
X127101673Y-131310992D01*
X127445201Y-131453638D01*
X127712560Y-131453871D01*
X127712560Y-135290000D01*
X125710000Y-135290000D01*
X125710000Y-121000000D01*
X125655954Y-120728295D01*
X125502046Y-120497954D01*
X116502046Y-111497954D01*
X116271705Y-111344046D01*
X116000000Y-111290000D01*
X112710000Y-111290000D01*
X112710000Y-36710000D01*
X187290000Y-36710000D01*
X187290000Y-111290000D01*
G36*
X171127000Y-97873000D02*
X171147000Y-97873000D01*
X171147000Y-98127000D01*
X171127000Y-98127000D01*
X171127000Y-98147000D01*
X170873000Y-98147000D01*
X170873000Y-98127000D01*
X170853000Y-98127000D01*
X170853000Y-97873000D01*
X170873000Y-97873000D01*
X170873000Y-97853000D01*
X171127000Y-97853000D01*
X171127000Y-97873000D01*
X171127000Y-97873000D01*
G37*
X171127000Y-97873000D02*
X171147000Y-97873000D01*
X171147000Y-98127000D01*
X171127000Y-98127000D01*
X171127000Y-98147000D01*
X170873000Y-98147000D01*
X170873000Y-98127000D01*
X170853000Y-98127000D01*
X170853000Y-97873000D01*
X170873000Y-97873000D01*
X170873000Y-97853000D01*
X171127000Y-97853000D01*
X171127000Y-97873000D01*
G36*
X167127000Y-95873000D02*
X167147000Y-95873000D01*
X167147000Y-96127000D01*
X167127000Y-96127000D01*
X167127000Y-96147000D01*
X166873000Y-96147000D01*
X166873000Y-96127000D01*
X166853000Y-96127000D01*
X166853000Y-95873000D01*
X166873000Y-95873000D01*
X166873000Y-95853000D01*
X167127000Y-95853000D01*
X167127000Y-95873000D01*
X167127000Y-95873000D01*
G37*
X167127000Y-95873000D02*
X167147000Y-95873000D01*
X167147000Y-96127000D01*
X167127000Y-96127000D01*
X167127000Y-96147000D01*
X166873000Y-96147000D01*
X166873000Y-96127000D01*
X166853000Y-96127000D01*
X166853000Y-95873000D01*
X166873000Y-95873000D01*
X166873000Y-95853000D01*
X167127000Y-95853000D01*
X167127000Y-95873000D01*
G36*
X160376687Y-73789172D02*
X160768764Y-74181934D01*
X161281300Y-74394758D01*
X161836265Y-74395242D01*
X161885400Y-74374940D01*
X161885400Y-77704043D01*
X158444921Y-81144521D01*
X158274755Y-81399193D01*
X158274755Y-81399194D01*
X158215000Y-81699600D01*
X158215000Y-94953606D01*
X158073690Y-95048026D01*
X157995072Y-95165686D01*
X157663633Y-94870522D01*
X157329400Y-94732090D01*
X157127000Y-94855776D01*
X157127000Y-95873000D01*
X157147000Y-95873000D01*
X157147000Y-96127000D01*
X157127000Y-96127000D01*
X157127000Y-96147000D01*
X156873000Y-96147000D01*
X156873000Y-96127000D01*
X156853000Y-96127000D01*
X156853000Y-95873000D01*
X156873000Y-95873000D01*
X156873000Y-94855776D01*
X156670600Y-94732090D01*
X156336367Y-94870522D01*
X156004928Y-95165686D01*
X155926310Y-95048026D01*
X155872213Y-95011880D01*
X155903101Y-94856600D01*
X155903100Y-94856595D01*
X155903100Y-79968058D01*
X158145479Y-77725679D01*
X158315645Y-77471007D01*
X158375400Y-77170600D01*
X158375400Y-74242823D01*
X158741300Y-74394758D01*
X159296265Y-74395242D01*
X159809172Y-74183313D01*
X160201934Y-73791236D01*
X160289954Y-73579262D01*
X160376687Y-73789172D01*
X160376687Y-73789172D01*
G37*
X160376687Y-73789172D02*
X160768764Y-74181934D01*
X161281300Y-74394758D01*
X161836265Y-74395242D01*
X161885400Y-74374940D01*
X161885400Y-77704043D01*
X158444921Y-81144521D01*
X158274755Y-81399193D01*
X158274755Y-81399194D01*
X158215000Y-81699600D01*
X158215000Y-94953606D01*
X158073690Y-95048026D01*
X157995072Y-95165686D01*
X157663633Y-94870522D01*
X157329400Y-94732090D01*
X157127000Y-94855776D01*
X157127000Y-95873000D01*
X157147000Y-95873000D01*
X157147000Y-96127000D01*
X157127000Y-96127000D01*
X157127000Y-96147000D01*
X156873000Y-96147000D01*
X156873000Y-96127000D01*
X156853000Y-96127000D01*
X156853000Y-95873000D01*
X156873000Y-95873000D01*
X156873000Y-94855776D01*
X156670600Y-94732090D01*
X156336367Y-94870522D01*
X156004928Y-95165686D01*
X155926310Y-95048026D01*
X155872213Y-95011880D01*
X155903101Y-94856600D01*
X155903100Y-94856595D01*
X155903100Y-79968058D01*
X158145479Y-77725679D01*
X158315645Y-77471007D01*
X158375400Y-77170600D01*
X158375400Y-74242823D01*
X158741300Y-74394758D01*
X159296265Y-74395242D01*
X159809172Y-74183313D01*
X160201934Y-73791236D01*
X160289954Y-73579262D01*
X160376687Y-73789172D01*
G36*
X173274755Y-65500707D02*
X173444921Y-65755379D01*
X174969300Y-67279758D01*
X174969300Y-69231897D01*
X174467220Y-69052845D01*
X173912951Y-69080659D01*
X173530059Y-69239258D01*
X173460841Y-69481236D01*
X174260000Y-70280395D01*
X174274143Y-70266253D01*
X174453748Y-70445858D01*
X174439605Y-70460000D01*
X174453748Y-70474143D01*
X174274143Y-70653748D01*
X174260000Y-70639605D01*
X173460841Y-71438764D01*
X173530059Y-71680742D01*
X173674862Y-71732382D01*
X173470828Y-71816687D01*
X173078066Y-72208764D01*
X172990046Y-72420738D01*
X172903313Y-72210828D01*
X172511236Y-71818066D01*
X172299262Y-71730046D01*
X172509172Y-71643313D01*
X172901934Y-71251236D01*
X172983391Y-71055066D01*
X173039258Y-71189941D01*
X173281236Y-71259159D01*
X174080395Y-70460000D01*
X173281236Y-69660841D01*
X173039258Y-69730059D01*
X173005200Y-69825561D01*
X173005200Y-65497440D01*
X173274105Y-65497440D01*
X173274755Y-65500707D01*
X173274755Y-65500707D01*
G37*
X173274755Y-65500707D02*
X173444921Y-65755379D01*
X174969300Y-67279758D01*
X174969300Y-69231897D01*
X174467220Y-69052845D01*
X173912951Y-69080659D01*
X173530059Y-69239258D01*
X173460841Y-69481236D01*
X174260000Y-70280395D01*
X174274143Y-70266253D01*
X174453748Y-70445858D01*
X174439605Y-70460000D01*
X174453748Y-70474143D01*
X174274143Y-70653748D01*
X174260000Y-70639605D01*
X173460841Y-71438764D01*
X173530059Y-71680742D01*
X173674862Y-71732382D01*
X173470828Y-71816687D01*
X173078066Y-72208764D01*
X172990046Y-72420738D01*
X172903313Y-72210828D01*
X172511236Y-71818066D01*
X172299262Y-71730046D01*
X172509172Y-71643313D01*
X172901934Y-71251236D01*
X172983391Y-71055066D01*
X173039258Y-71189941D01*
X173281236Y-71259159D01*
X174080395Y-70460000D01*
X173281236Y-69660841D01*
X173039258Y-69730059D01*
X173005200Y-69825561D01*
X173005200Y-65497440D01*
X173274105Y-65497440D01*
X173274755Y-65500707D01*
G36*
X161753748Y-70445858D02*
X161739605Y-70460000D01*
X161753748Y-70474143D01*
X161574143Y-70653748D01*
X161560000Y-70639605D01*
X161545858Y-70653748D01*
X161366253Y-70474143D01*
X161380395Y-70460000D01*
X161366253Y-70445858D01*
X161545858Y-70266253D01*
X161560000Y-70280395D01*
X161574143Y-70266253D01*
X161753748Y-70445858D01*
X161753748Y-70445858D01*
G37*
X161753748Y-70445858D02*
X161739605Y-70460000D01*
X161753748Y-70474143D01*
X161574143Y-70653748D01*
X161560000Y-70639605D01*
X161545858Y-70653748D01*
X161366253Y-70474143D01*
X161380395Y-70460000D01*
X161366253Y-70445858D01*
X161545858Y-70266253D01*
X161560000Y-70280395D01*
X161574143Y-70266253D01*
X161753748Y-70445858D01*
M02*
