G04 #@! TF.FileFunction,Soldermask,Bot*
%FSLAX46Y46*%
G04 Gerber Fmt 4.6, Leading zero omitted, Abs format (unit mm)*
G04 Created by KiCad (PCBNEW 4.0.2+dfsg1-stable) date Fri 01 Mar 2019 18:56:52 CET*
%MOMM*%
G01*
G04 APERTURE LIST*
%ADD10C,0.100000*%
%ADD11R,1.920000X1.920000*%
%ADD12C,1.920000*%
%ADD13R,1.035000X3.400000*%
%ADD14C,1.000000*%
G04 APERTURE END LIST*
D10*
D11*
X132080000Y-71120000D03*
D12*
X132080000Y-68580000D03*
X134620000Y-71120000D03*
X134620000Y-68580000D03*
X137160000Y-71120000D03*
X137160000Y-68580000D03*
X139700000Y-71120000D03*
X139700000Y-68580000D03*
X142240000Y-71120000D03*
X142240000Y-68580000D03*
X144780000Y-71120000D03*
X144780000Y-68580000D03*
X147320000Y-71120000D03*
X147320000Y-68580000D03*
X149860000Y-71120000D03*
X149860000Y-68580000D03*
X152400000Y-71120000D03*
X152400000Y-68580000D03*
X154940000Y-71120000D03*
X154940000Y-68580000D03*
X157480000Y-71120000D03*
X157480000Y-68580000D03*
X160020000Y-71120000D03*
X160020000Y-68580000D03*
X162560000Y-71120000D03*
X162560000Y-68580000D03*
X165100000Y-71120000D03*
X165100000Y-68580000D03*
X167640000Y-71120000D03*
X167640000Y-68580000D03*
X170180000Y-71120000D03*
X170180000Y-68580000D03*
X172720000Y-71120000D03*
X172720000Y-68580000D03*
X175260000Y-71120000D03*
X175260000Y-68580000D03*
X177800000Y-71120000D03*
X177800000Y-68580000D03*
X180340000Y-71120000D03*
X180340000Y-68580000D03*
D13*
X142240000Y-130810000D03*
X143510000Y-130810000D03*
X144780000Y-130810000D03*
X146050000Y-130810000D03*
X147320000Y-130810000D03*
X148590000Y-130810000D03*
X149860000Y-130810000D03*
X151130000Y-130810000D03*
X152400000Y-130810000D03*
X153670000Y-130810000D03*
X154940000Y-130810000D03*
X156210000Y-130810000D03*
X157480000Y-130810000D03*
X158750000Y-130810000D03*
X160020000Y-130810000D03*
X161290000Y-130810000D03*
X162560000Y-130810000D03*
X163830000Y-130810000D03*
X165100000Y-130810000D03*
X166370000Y-130810000D03*
X167640000Y-130810000D03*
X168910000Y-130810000D03*
D11*
X132080000Y-95250000D03*
D12*
X132080000Y-92710000D03*
X134620000Y-95250000D03*
X134620000Y-92710000D03*
X137160000Y-95250000D03*
X137160000Y-92710000D03*
X139700000Y-95250000D03*
X139700000Y-92710000D03*
X142240000Y-95250000D03*
X142240000Y-92710000D03*
X144780000Y-95250000D03*
X144780000Y-92710000D03*
X147320000Y-95250000D03*
X147320000Y-92710000D03*
X149860000Y-95250000D03*
X149860000Y-92710000D03*
X152400000Y-95250000D03*
X152400000Y-92710000D03*
X154940000Y-95250000D03*
X154940000Y-92710000D03*
X157480000Y-95250000D03*
X157480000Y-92710000D03*
X160020000Y-95250000D03*
X160020000Y-92710000D03*
X162560000Y-95250000D03*
X162560000Y-92710000D03*
X165100000Y-95250000D03*
X165100000Y-92710000D03*
X167640000Y-95250000D03*
X167640000Y-92710000D03*
X170180000Y-95250000D03*
X170180000Y-92710000D03*
X172720000Y-95250000D03*
X172720000Y-92710000D03*
X175260000Y-95250000D03*
X175260000Y-92710000D03*
X177800000Y-95250000D03*
X177800000Y-92710000D03*
X180340000Y-95250000D03*
X180340000Y-92710000D03*
D14*
X141781300Y-127655600D03*
X133215400Y-92053400D03*
X135316200Y-91562300D03*
X144780000Y-128114600D03*
X146050000Y-126807800D03*
X147754200Y-128500500D03*
X142240000Y-91074000D03*
X147145700Y-119828600D03*
X144780000Y-91356900D03*
X149668200Y-120814400D03*
X151130000Y-120436300D03*
X152994200Y-128810900D03*
X152400000Y-91259900D03*
X154263700Y-127694200D03*
X155532700Y-128810900D03*
X157480000Y-91071500D03*
X156800700Y-127530600D03*
X161155400Y-92038700D03*
X158066600Y-128810900D03*
X159860600Y-127479300D03*
X160718200Y-128532100D03*
X167640000Y-91400100D03*
X171016100Y-104962200D03*
X176395300Y-94327500D03*
X167696900Y-104387000D03*
X167640000Y-127858500D03*
X167005000Y-126904100D03*
X149123600Y-88817700D03*
M02*
