G04 #@! TF.FileFunction,Copper,L1,Top,Signal*
%FSLAX46Y46*%
G04 Gerber Fmt 4.6, Leading zero omitted, Abs format (unit mm)*
G04 Created by KiCad (PCBNEW 4.0.2+dfsg1-stable) date Fri 01 Mar 2019 18:56:52 CET*
%MOMM*%
G01*
G04 APERTURE LIST*
%ADD10C,0.100000*%
%ADD11C,0.381000*%
%ADD12R,1.520000X1.520000*%
%ADD13C,1.520000*%
%ADD14R,0.635000X3.000000*%
%ADD15R,3.000000X1.000000*%
%ADD16R,1.597660X1.800860*%
%ADD17R,2.000000X2.000000*%
%ADD18C,0.600000*%
%ADD19C,0.350000*%
%ADD20C,0.254000*%
G04 APERTURE END LIST*
D10*
D11*
X157040580Y-82849720D02*
X157040580Y-84449920D01*
X157040580Y-84449920D02*
X158239460Y-84449920D01*
X154541220Y-84449920D02*
X154541220Y-82948780D01*
X154541220Y-82948780D02*
X155440380Y-82948780D01*
X155440380Y-82948780D02*
X155641040Y-82948780D01*
X155641040Y-82948780D02*
X155839160Y-83050380D01*
X155839160Y-83050380D02*
X155940760Y-83251040D01*
X155940760Y-83251040D02*
X155940760Y-83449160D01*
X155940760Y-83449160D02*
X155740100Y-83649820D01*
X155740100Y-83649820D02*
X155440380Y-83748880D01*
X155440380Y-83748880D02*
X154541220Y-83748880D01*
X153339800Y-83050380D02*
X153139140Y-82948780D01*
X153139140Y-82948780D02*
X152638760Y-82948780D01*
X152638760Y-82948780D02*
X152339040Y-83050380D01*
X152339040Y-83050380D02*
X152140920Y-83149440D01*
X152140920Y-83149440D02*
X151940260Y-83449160D01*
X151940260Y-83449160D02*
X151940260Y-83748880D01*
X151940260Y-83748880D02*
X152039320Y-84150200D01*
X152039320Y-84150200D02*
X152339040Y-84350860D01*
X152339040Y-84350860D02*
X152638760Y-84449920D01*
X152638760Y-84449920D02*
X152941020Y-84449920D01*
X152941020Y-84449920D02*
X153438860Y-84350860D01*
X153438860Y-84350860D02*
X153438860Y-83850480D01*
X153438860Y-83850480D02*
X152941020Y-83850480D01*
X156740860Y-80350360D02*
X156740860Y-81650840D01*
X156740860Y-81650840D02*
X157040580Y-81848960D01*
X157040580Y-81848960D02*
X157340300Y-81848960D01*
X157340300Y-81848960D02*
X157739080Y-81848960D01*
X157739080Y-81848960D02*
X158038800Y-81749900D01*
X158038800Y-81749900D02*
X158239460Y-81650840D01*
X158239460Y-81650840D02*
X158239460Y-80350360D01*
X154139900Y-81848960D02*
X154139900Y-80350360D01*
X154139900Y-80350360D02*
X155641040Y-81848960D01*
X155641040Y-81848960D02*
X155641040Y-80350360D01*
X152941020Y-80449420D02*
X152638760Y-80350360D01*
X152638760Y-80350360D02*
X152140920Y-80449420D01*
X152140920Y-80449420D02*
X151739600Y-80650080D01*
X151739600Y-80650080D02*
X151538940Y-81048860D01*
X151538940Y-81048860D02*
X151640540Y-81450180D01*
X151640540Y-81450180D02*
X151940260Y-81749900D01*
X151940260Y-81749900D02*
X152440640Y-81950560D01*
X152440640Y-81950560D02*
X153139140Y-81749900D01*
X153139140Y-81749900D02*
X153139140Y-81249520D01*
X153139140Y-81249520D02*
X152638760Y-81249520D01*
X150876000Y-79502000D02*
X159004000Y-79502000D01*
X159004000Y-79502000D02*
X159004000Y-85090000D01*
X159004000Y-85090000D02*
X150876000Y-85090000D01*
X150876000Y-85090000D02*
X150876000Y-79502000D01*
D12*
X132080000Y-71120000D03*
D13*
X132080000Y-68580000D03*
X134620000Y-71120000D03*
X134620000Y-68580000D03*
X137160000Y-71120000D03*
X137160000Y-68580000D03*
X139700000Y-71120000D03*
X139700000Y-68580000D03*
X142240000Y-71120000D03*
X142240000Y-68580000D03*
X144780000Y-71120000D03*
X144780000Y-68580000D03*
X147320000Y-71120000D03*
X147320000Y-68580000D03*
X149860000Y-71120000D03*
X149860000Y-68580000D03*
X152400000Y-71120000D03*
X152400000Y-68580000D03*
X154940000Y-71120000D03*
X154940000Y-68580000D03*
X157480000Y-71120000D03*
X157480000Y-68580000D03*
X160020000Y-71120000D03*
X160020000Y-68580000D03*
X162560000Y-71120000D03*
X162560000Y-68580000D03*
X165100000Y-71120000D03*
X165100000Y-68580000D03*
X167640000Y-71120000D03*
X167640000Y-68580000D03*
X170180000Y-71120000D03*
X170180000Y-68580000D03*
X172720000Y-71120000D03*
X172720000Y-68580000D03*
X175260000Y-71120000D03*
X175260000Y-68580000D03*
X177800000Y-71120000D03*
X177800000Y-68580000D03*
X180340000Y-71120000D03*
X180340000Y-68580000D03*
D14*
X142240000Y-130810000D03*
X143510000Y-130810000D03*
X144780000Y-130810000D03*
X146050000Y-130810000D03*
X147320000Y-130810000D03*
X148590000Y-130810000D03*
X149860000Y-130810000D03*
X151130000Y-130810000D03*
X152400000Y-130810000D03*
X153670000Y-130810000D03*
X154940000Y-130810000D03*
X156210000Y-130810000D03*
X157480000Y-130810000D03*
X158750000Y-130810000D03*
X160020000Y-130810000D03*
X161290000Y-130810000D03*
X162560000Y-130810000D03*
X163830000Y-130810000D03*
X165100000Y-130810000D03*
X166370000Y-130810000D03*
X167640000Y-130810000D03*
X168910000Y-130810000D03*
D15*
X163100000Y-102870000D03*
X167100000Y-102870000D03*
X163100000Y-78740000D03*
X167100000Y-78740000D03*
D16*
X177650140Y-102870000D03*
X180489860Y-102870000D03*
X178920140Y-78740000D03*
X181759860Y-78740000D03*
D17*
X174720000Y-102870000D03*
X170720000Y-102870000D03*
X175990000Y-78740000D03*
X171990000Y-78740000D03*
D12*
X132080000Y-95250000D03*
D13*
X132080000Y-92710000D03*
X134620000Y-95250000D03*
X134620000Y-92710000D03*
X137160000Y-95250000D03*
X137160000Y-92710000D03*
X139700000Y-95250000D03*
X139700000Y-92710000D03*
X142240000Y-95250000D03*
X142240000Y-92710000D03*
X144780000Y-95250000D03*
X144780000Y-92710000D03*
X147320000Y-95250000D03*
X147320000Y-92710000D03*
X149860000Y-95250000D03*
X149860000Y-92710000D03*
X152400000Y-95250000D03*
X152400000Y-92710000D03*
X154940000Y-95250000D03*
X154940000Y-92710000D03*
X157480000Y-95250000D03*
X157480000Y-92710000D03*
X160020000Y-95250000D03*
X160020000Y-92710000D03*
X162560000Y-95250000D03*
X162560000Y-92710000D03*
X165100000Y-95250000D03*
X165100000Y-92710000D03*
X167640000Y-95250000D03*
X167640000Y-92710000D03*
X170180000Y-95250000D03*
X170180000Y-92710000D03*
X172720000Y-95250000D03*
X172720000Y-92710000D03*
X175260000Y-95250000D03*
X175260000Y-92710000D03*
X177800000Y-95250000D03*
X177800000Y-92710000D03*
X180340000Y-95250000D03*
X180340000Y-92710000D03*
D18*
X141781300Y-127655600D03*
X133215400Y-92053400D03*
X135316200Y-91562300D03*
X144780000Y-128114600D03*
X146050000Y-126807800D03*
X147754200Y-128500500D03*
X142240000Y-91074000D03*
X147145700Y-119828600D03*
X144780000Y-91356900D03*
X149668200Y-120814400D03*
X151130000Y-120436300D03*
X152994200Y-128810900D03*
X152400000Y-91259900D03*
X154263700Y-127694200D03*
X155532700Y-128810900D03*
X157480000Y-91071500D03*
X156800700Y-127530600D03*
X161155400Y-92038700D03*
X158066600Y-128810900D03*
X159860600Y-127479300D03*
X160718200Y-128532100D03*
X167640000Y-91400100D03*
X171016100Y-104962200D03*
X176395300Y-94327500D03*
X167696900Y-104387000D03*
X167640000Y-127858500D03*
X167005000Y-126904100D03*
X149123600Y-88817700D03*
D19*
X174720000Y-102870000D02*
X177650100Y-102870000D01*
X180340000Y-101444400D02*
X180340000Y-95250000D01*
X180489900Y-101594300D02*
X180340000Y-101444400D01*
X180489900Y-102870000D02*
X180489900Y-101594300D01*
X180489900Y-102870000D02*
X179315800Y-102870000D01*
X166329700Y-128934700D02*
X166370000Y-128934700D01*
X166329700Y-126624400D02*
X166329700Y-128934700D01*
X179315800Y-113638300D02*
X166329700Y-126624400D01*
X179315800Y-102870000D02*
X179315800Y-113638300D01*
X166370000Y-130810000D02*
X166370000Y-128934700D01*
X175990000Y-78740000D02*
X178920100Y-78740000D01*
X181759900Y-72539900D02*
X180340000Y-71120000D01*
X181759900Y-78740000D02*
X181759900Y-72539900D01*
X133215300Y-70907000D02*
X133215300Y-71120000D01*
X134137600Y-69984700D02*
X133215300Y-70907000D01*
X162795000Y-69984700D02*
X134137600Y-69984700D01*
X163695400Y-69084300D02*
X162795000Y-69984700D01*
X163695400Y-68318500D02*
X163695400Y-69084300D01*
X164613100Y-67400800D02*
X163695400Y-68318500D01*
X176620800Y-67400800D02*
X164613100Y-67400800D01*
X177800000Y-68580000D02*
X176620800Y-67400800D01*
X132080000Y-71120000D02*
X133215300Y-71120000D01*
X141781300Y-128476000D02*
X141781300Y-127655600D01*
X142240000Y-128934700D02*
X141781300Y-128476000D01*
X142240000Y-130810000D02*
X142240000Y-128934700D01*
X132080000Y-95250000D02*
X132080000Y-94114700D01*
X133215400Y-93192200D02*
X133215400Y-92053400D01*
X132292900Y-94114700D02*
X133215400Y-93192200D01*
X132080000Y-94114700D02*
X132292900Y-94114700D01*
X143510000Y-104140000D02*
X134620000Y-95250000D01*
X143510000Y-130810000D02*
X143510000Y-104140000D01*
X135755500Y-92001600D02*
X135316200Y-91562300D01*
X135755500Y-94114500D02*
X135755500Y-92001600D01*
X134620000Y-95250000D02*
X135755500Y-94114500D01*
X144780000Y-130810000D02*
X144780000Y-128114600D01*
X146050000Y-130810000D02*
X146050000Y-126807800D01*
X147320000Y-130810000D02*
X147320000Y-128934700D01*
X139698200Y-91074000D02*
X142240000Y-91074000D01*
X138527700Y-92244500D02*
X139698200Y-91074000D01*
X138527700Y-93161800D02*
X138527700Y-92244500D01*
X139211300Y-93845400D02*
X138527700Y-93161800D01*
X140835400Y-93845400D02*
X139211300Y-93845400D01*
X142240000Y-95250000D02*
X140835400Y-93845400D01*
X147320000Y-128934700D02*
X147754200Y-128500500D01*
X148590000Y-121272900D02*
X147145700Y-119828600D01*
X148590000Y-130810000D02*
X148590000Y-121272900D01*
X144519200Y-91356900D02*
X144780000Y-91356900D01*
X143598100Y-92278000D02*
X144519200Y-91356900D01*
X143598100Y-94068100D02*
X143598100Y-92278000D01*
X144780000Y-95250000D02*
X143598100Y-94068100D01*
X149860000Y-121006200D02*
X149668200Y-120814400D01*
X149860000Y-130810000D02*
X149860000Y-121006200D01*
X151130000Y-130810000D02*
X151130000Y-120436300D01*
X148590000Y-93980000D02*
X149860000Y-95250000D01*
X146966000Y-93980000D02*
X148590000Y-93980000D01*
X146184600Y-93198600D02*
X146966000Y-93980000D01*
X146184600Y-74795400D02*
X146184600Y-93198600D01*
X149860000Y-71120000D02*
X146184600Y-74795400D01*
X152870400Y-128934700D02*
X152994200Y-128810900D01*
X152400000Y-128934700D02*
X152870400Y-128934700D01*
X152400000Y-130810000D02*
X152400000Y-128934700D01*
X152192100Y-91259900D02*
X152400000Y-91259900D01*
X151223000Y-92229000D02*
X152192100Y-91259900D01*
X151223000Y-94073000D02*
X151223000Y-92229000D01*
X152400000Y-95250000D02*
X151223000Y-94073000D01*
X153670000Y-128287900D02*
X154263700Y-127694200D01*
X153670000Y-130810000D02*
X153670000Y-128287900D01*
X155408900Y-128934700D02*
X155532700Y-128810900D01*
X154940000Y-128934700D02*
X155408900Y-128934700D01*
X154940000Y-130810000D02*
X154940000Y-128934700D01*
X154969000Y-91071500D02*
X157480000Y-91071500D01*
X153782700Y-92257800D02*
X154969000Y-91071500D01*
X153782700Y-93176800D02*
X153782700Y-92257800D01*
X154451300Y-93845400D02*
X153782700Y-93176800D01*
X156075400Y-93845400D02*
X154451300Y-93845400D01*
X157480000Y-95250000D02*
X156075400Y-93845400D01*
X156210000Y-128121300D02*
X156800700Y-127530600D01*
X156210000Y-130810000D02*
X156210000Y-128121300D01*
X161155400Y-94114600D02*
X161155400Y-92038700D01*
X160020000Y-95250000D02*
X161155400Y-94114600D01*
X157942800Y-128934700D02*
X158066600Y-128810900D01*
X157480000Y-128934700D02*
X157942800Y-128934700D01*
X157480000Y-130810000D02*
X157480000Y-128934700D01*
X158750000Y-130810000D02*
X158750000Y-128934700D01*
X159860600Y-127824100D02*
X159860600Y-127479300D01*
X158750000Y-128934700D02*
X159860600Y-127824100D01*
X160020000Y-130810000D02*
X160020000Y-128934700D01*
X160422600Y-128532100D02*
X160718200Y-128532100D01*
X160020000Y-128934700D02*
X160422600Y-128532100D01*
X167327300Y-91400100D02*
X167640000Y-91400100D01*
X166504600Y-92222800D02*
X167327300Y-91400100D01*
X166504600Y-94114600D02*
X166504600Y-92222800D01*
X167640000Y-95250000D02*
X166504600Y-94114600D01*
X164975300Y-101994700D02*
X164975300Y-102870000D01*
X163960900Y-100980300D02*
X164975300Y-101994700D01*
X163960900Y-80410800D02*
X163960900Y-100980300D01*
X164975300Y-79396400D02*
X163960900Y-80410800D01*
X164975300Y-78740000D02*
X164975300Y-79396400D01*
X163100000Y-78740000D02*
X164975300Y-78740000D01*
X163100000Y-102870000D02*
X164037700Y-102870000D01*
X164037700Y-102870000D02*
X164975300Y-102870000D01*
X161393500Y-105514200D02*
X164037700Y-102870000D01*
X161393500Y-128831200D02*
X161393500Y-105514200D01*
X161290000Y-128934700D02*
X161393500Y-128831200D01*
X161290000Y-130810000D02*
X161290000Y-128934700D01*
X171016100Y-105172700D02*
X171016100Y-104962200D01*
X162560000Y-113628800D02*
X171016100Y-105172700D01*
X162560000Y-130810000D02*
X162560000Y-113628800D01*
X172095300Y-95874700D02*
X172720000Y-95250000D01*
X172095300Y-104093500D02*
X172095300Y-95874700D01*
X171226600Y-104962200D02*
X172095300Y-104093500D01*
X171016100Y-104962200D02*
X171226600Y-104962200D01*
X174883600Y-95626400D02*
X175260000Y-95250000D01*
X174420100Y-95626400D02*
X174883600Y-95626400D01*
X174420100Y-96089900D02*
X174420100Y-95626400D01*
X172645600Y-97864400D02*
X174420100Y-96089900D01*
X172645600Y-104330700D02*
X172645600Y-97864400D01*
X163830000Y-113146300D02*
X172645600Y-104330700D01*
X163830000Y-130810000D02*
X163830000Y-113146300D01*
X176182500Y-94327500D02*
X176395300Y-94327500D01*
X175260000Y-95250000D02*
X176182500Y-94327500D01*
X173195900Y-99854100D02*
X177800000Y-95250000D01*
X173195900Y-104824500D02*
X173195900Y-99854100D01*
X165100000Y-112920400D02*
X173195900Y-104824500D01*
X165100000Y-130810000D02*
X165100000Y-112920400D01*
X171450000Y-100764700D02*
X170720000Y-101494700D01*
X171450000Y-80655300D02*
X171450000Y-100764700D01*
X171990000Y-80115300D02*
X171450000Y-80655300D01*
X171990000Y-78740000D02*
X171990000Y-80115300D01*
X170720000Y-102870000D02*
X170720000Y-102182300D01*
X170720000Y-102182300D02*
X170720000Y-101494700D01*
X167640000Y-130810000D02*
X167640000Y-127858500D01*
X168515300Y-104387000D02*
X167696900Y-104387000D01*
X170720000Y-102182300D02*
X168515300Y-104387000D01*
X168830600Y-69770600D02*
X167640000Y-68580000D01*
X179149400Y-69770600D02*
X168830600Y-69770600D01*
X180340000Y-68580000D02*
X179149400Y-69770600D01*
X168910000Y-128107000D02*
X168910000Y-130810000D01*
X167707100Y-126904100D02*
X168910000Y-128107000D01*
X167005000Y-126904100D02*
X167707100Y-126904100D01*
X150931700Y-88817700D02*
X149123600Y-88817700D01*
X153109900Y-90995900D02*
X150931700Y-88817700D01*
X153109900Y-92000100D02*
X153109900Y-90995900D01*
X152400000Y-92710000D02*
X153109900Y-92000100D01*
X168975300Y-96454700D02*
X170180000Y-95250000D01*
X168975300Y-102870000D02*
X168975300Y-96454700D01*
X167100000Y-102870000D02*
X168975300Y-102870000D01*
X168975300Y-72324700D02*
X170180000Y-71120000D01*
X168975300Y-78740000D02*
X168975300Y-72324700D01*
X167100000Y-78740000D02*
X168975300Y-78740000D01*
D20*
G36*
X194183000Y-100277394D02*
X178980197Y-115480197D01*
X178952334Y-115522211D01*
X178943000Y-115570000D01*
X178943000Y-120523000D01*
X175260000Y-120523000D01*
X175210590Y-120533006D01*
X175170197Y-120560197D01*
X170090197Y-125640197D01*
X170062334Y-125682211D01*
X170053000Y-125730000D01*
X170053000Y-130683000D01*
X169862500Y-130683000D01*
X169862500Y-130682998D01*
X169703752Y-130682998D01*
X169862500Y-130524250D01*
X169862500Y-129183690D01*
X169765827Y-128950301D01*
X169587198Y-128771673D01*
X169353809Y-128675000D01*
X169195750Y-128675000D01*
X169037000Y-128833750D01*
X169037000Y-130683000D01*
X168783000Y-130683000D01*
X168783000Y-128833750D01*
X168624250Y-128675000D01*
X168466191Y-128675000D01*
X168450000Y-128681707D01*
X168450000Y-128345941D01*
X168574838Y-128045299D01*
X168575162Y-127673333D01*
X168433117Y-127329557D01*
X168170327Y-127066308D01*
X167826799Y-126923662D01*
X167454833Y-126923338D01*
X167139700Y-127053548D01*
X167139700Y-126959912D01*
X179888557Y-114211056D01*
X180064143Y-113948273D01*
X180107480Y-113730399D01*
X180125800Y-113638300D01*
X180125800Y-104417870D01*
X181288690Y-104417870D01*
X181524007Y-104373592D01*
X181740131Y-104234520D01*
X181885121Y-104022320D01*
X181936130Y-103770430D01*
X181936130Y-101969570D01*
X181891852Y-101734253D01*
X181752780Y-101518129D01*
X181540580Y-101373139D01*
X181288690Y-101322130D01*
X181245762Y-101322130D01*
X181238243Y-101284327D01*
X181150000Y-101152262D01*
X181150000Y-96412521D01*
X181521934Y-96041236D01*
X181734758Y-95528700D01*
X181735242Y-94973735D01*
X181523313Y-94460828D01*
X181131236Y-94068066D01*
X180935066Y-93986609D01*
X181069941Y-93930742D01*
X181139159Y-93688764D01*
X180340000Y-92889605D01*
X179540841Y-93688764D01*
X179610059Y-93930742D01*
X179754862Y-93982382D01*
X179550828Y-94066687D01*
X179158066Y-94458764D01*
X179070046Y-94670738D01*
X178983313Y-94460828D01*
X178591236Y-94068066D01*
X178379262Y-93980046D01*
X178589172Y-93893313D01*
X178981934Y-93501236D01*
X179063391Y-93305066D01*
X179119258Y-93439941D01*
X179361236Y-93509159D01*
X180160395Y-92710000D01*
X180519605Y-92710000D01*
X181318764Y-93509159D01*
X181560742Y-93439941D01*
X181747155Y-92917220D01*
X181719341Y-92362951D01*
X181560742Y-91980059D01*
X181318764Y-91910841D01*
X180519605Y-92710000D01*
X180160395Y-92710000D01*
X179361236Y-91910841D01*
X179119258Y-91980059D01*
X179067618Y-92124862D01*
X178983313Y-91920828D01*
X178794052Y-91731236D01*
X179540841Y-91731236D01*
X180340000Y-92530395D01*
X181139159Y-91731236D01*
X181069941Y-91489258D01*
X180547220Y-91302845D01*
X179992951Y-91330659D01*
X179610059Y-91489258D01*
X179540841Y-91731236D01*
X178794052Y-91731236D01*
X178591236Y-91528066D01*
X178078700Y-91315242D01*
X177523735Y-91314758D01*
X177010828Y-91526687D01*
X176618066Y-91918764D01*
X176530046Y-92130738D01*
X176443313Y-91920828D01*
X176051236Y-91528066D01*
X175538700Y-91315242D01*
X174983735Y-91314758D01*
X174470828Y-91526687D01*
X174078066Y-91918764D01*
X173990046Y-92130738D01*
X173903313Y-91920828D01*
X173511236Y-91528066D01*
X172998700Y-91315242D01*
X172443735Y-91314758D01*
X172260000Y-91390676D01*
X172260000Y-80990812D01*
X172562756Y-80688057D01*
X172650549Y-80556665D01*
X172738342Y-80425274D01*
X172745868Y-80387440D01*
X172990000Y-80387440D01*
X173225317Y-80343162D01*
X173441441Y-80204090D01*
X173586431Y-79991890D01*
X173637440Y-79740000D01*
X173637440Y-77740000D01*
X173593162Y-77504683D01*
X173454090Y-77288559D01*
X173241890Y-77143569D01*
X172990000Y-77092560D01*
X170990000Y-77092560D01*
X170754683Y-77136838D01*
X170538559Y-77275910D01*
X170393569Y-77488110D01*
X170342560Y-77740000D01*
X170342560Y-79740000D01*
X170386838Y-79975317D01*
X170525910Y-80191441D01*
X170717164Y-80322119D01*
X170701658Y-80345326D01*
X170640000Y-80655300D01*
X170640000Y-91390524D01*
X170458700Y-91315242D01*
X169903735Y-91314758D01*
X169390828Y-91526687D01*
X168998066Y-91918764D01*
X168916609Y-92114934D01*
X168860742Y-91980059D01*
X168618764Y-91910841D01*
X167819605Y-92710000D01*
X168618764Y-93509159D01*
X168860742Y-93439941D01*
X168912382Y-93295138D01*
X168996687Y-93499172D01*
X169388764Y-93891934D01*
X169600738Y-93979954D01*
X169390828Y-94066687D01*
X168998066Y-94458764D01*
X168910046Y-94670738D01*
X168823313Y-94460828D01*
X168431236Y-94068066D01*
X168235066Y-93986609D01*
X168369941Y-93930742D01*
X168439159Y-93688764D01*
X167640000Y-92889605D01*
X167625858Y-92903748D01*
X167446253Y-92724143D01*
X167460395Y-92710000D01*
X167446253Y-92695858D01*
X167625858Y-92516253D01*
X167640000Y-92530395D01*
X167842150Y-92328245D01*
X168168943Y-92193217D01*
X168432192Y-91930427D01*
X168574838Y-91586899D01*
X168575162Y-91214933D01*
X168433117Y-90871157D01*
X168170327Y-90607908D01*
X167826799Y-90465262D01*
X167454833Y-90464938D01*
X167111057Y-90606983D01*
X167078367Y-90639616D01*
X167017326Y-90651758D01*
X166900868Y-90729573D01*
X166754543Y-90827344D01*
X165972458Y-91609430D01*
X165891236Y-91528066D01*
X165378700Y-91315242D01*
X164823735Y-91314758D01*
X164770900Y-91336589D01*
X164770900Y-80746312D01*
X165548056Y-79969157D01*
X165602657Y-79887440D01*
X168600000Y-79887440D01*
X168835317Y-79843162D01*
X169051441Y-79704090D01*
X169185263Y-79508236D01*
X169285274Y-79488342D01*
X169548056Y-79312756D01*
X169723642Y-79049974D01*
X169785300Y-78740000D01*
X169785300Y-72660212D01*
X169930729Y-72514784D01*
X170456265Y-72515242D01*
X170969172Y-72303313D01*
X171361934Y-71911236D01*
X171449954Y-71699262D01*
X171536687Y-71909172D01*
X171928764Y-72301934D01*
X172441300Y-72514758D01*
X172996265Y-72515242D01*
X173509172Y-72303313D01*
X173901934Y-71911236D01*
X173989954Y-71699262D01*
X174076687Y-71909172D01*
X174468764Y-72301934D01*
X174981300Y-72514758D01*
X175536265Y-72515242D01*
X176049172Y-72303313D01*
X176441934Y-71911236D01*
X176529954Y-71699262D01*
X176616687Y-71909172D01*
X177008764Y-72301934D01*
X177521300Y-72514758D01*
X178076265Y-72515242D01*
X178589172Y-72303313D01*
X178981934Y-71911236D01*
X179069954Y-71699262D01*
X179156687Y-71909172D01*
X179548764Y-72301934D01*
X180061300Y-72514758D01*
X180589706Y-72515219D01*
X180949900Y-72875413D01*
X180949900Y-77194224D01*
X180725713Y-77236408D01*
X180509589Y-77375480D01*
X180364599Y-77587680D01*
X180340970Y-77704366D01*
X180322132Y-77604253D01*
X180183060Y-77388129D01*
X179970860Y-77243139D01*
X179718970Y-77192130D01*
X178121310Y-77192130D01*
X177885993Y-77236408D01*
X177669869Y-77375480D01*
X177587549Y-77495960D01*
X177454090Y-77288559D01*
X177241890Y-77143569D01*
X176990000Y-77092560D01*
X174990000Y-77092560D01*
X174754683Y-77136838D01*
X174538559Y-77275910D01*
X174393569Y-77488110D01*
X174342560Y-77740000D01*
X174342560Y-79740000D01*
X174386838Y-79975317D01*
X174525910Y-80191441D01*
X174738110Y-80336431D01*
X174990000Y-80387440D01*
X176990000Y-80387440D01*
X177225317Y-80343162D01*
X177441441Y-80204090D01*
X177586431Y-79991890D01*
X177587976Y-79984262D01*
X177657220Y-80091871D01*
X177869420Y-80236861D01*
X178121310Y-80287870D01*
X179718970Y-80287870D01*
X179954287Y-80243592D01*
X180170411Y-80104520D01*
X180315401Y-79892320D01*
X180339030Y-79775634D01*
X180357868Y-79875747D01*
X180496940Y-80091871D01*
X180709140Y-80236861D01*
X180961030Y-80287870D01*
X182558690Y-80287870D01*
X182794007Y-80243592D01*
X183010131Y-80104520D01*
X183155121Y-79892320D01*
X183206130Y-79640430D01*
X183206130Y-77839570D01*
X183161852Y-77604253D01*
X183022780Y-77388129D01*
X182810580Y-77243139D01*
X182569900Y-77194400D01*
X182569900Y-72539900D01*
X182522840Y-72303313D01*
X182508243Y-72229927D01*
X182332657Y-71967144D01*
X181734784Y-71369271D01*
X181735242Y-70843735D01*
X181523313Y-70330828D01*
X181131236Y-69938066D01*
X180935066Y-69856609D01*
X181069941Y-69800742D01*
X181139159Y-69558764D01*
X180340000Y-68759605D01*
X179540841Y-69558764D01*
X179610059Y-69800742D01*
X179754862Y-69852382D01*
X179550828Y-69936687D01*
X179158066Y-70328764D01*
X179070046Y-70540738D01*
X178983313Y-70330828D01*
X178591236Y-69938066D01*
X178379262Y-69850046D01*
X178589172Y-69763313D01*
X178981934Y-69371236D01*
X179063391Y-69175066D01*
X179119258Y-69309941D01*
X179361236Y-69379159D01*
X180160395Y-68580000D01*
X180519605Y-68580000D01*
X181318764Y-69379159D01*
X181560742Y-69309941D01*
X181747155Y-68787220D01*
X181719341Y-68232951D01*
X181560742Y-67850059D01*
X181318764Y-67780841D01*
X180519605Y-68580000D01*
X180160395Y-68580000D01*
X179361236Y-67780841D01*
X179119258Y-67850059D01*
X179067618Y-67994862D01*
X178983313Y-67790828D01*
X178794052Y-67601236D01*
X179540841Y-67601236D01*
X180340000Y-68400395D01*
X181139159Y-67601236D01*
X181069941Y-67359258D01*
X180547220Y-67172845D01*
X179992951Y-67200659D01*
X179610059Y-67359258D01*
X179540841Y-67601236D01*
X178794052Y-67601236D01*
X178591236Y-67398066D01*
X178078700Y-67185242D01*
X177550293Y-67184781D01*
X177193555Y-66828043D01*
X176930774Y-66652458D01*
X176620800Y-66590800D01*
X164613100Y-66590800D01*
X164440997Y-66625034D01*
X164303127Y-66652457D01*
X164040344Y-66828043D01*
X163410727Y-67457661D01*
X163351236Y-67398066D01*
X162838700Y-67185242D01*
X162283735Y-67184758D01*
X161770828Y-67396687D01*
X161378066Y-67788764D01*
X161290046Y-68000738D01*
X161203313Y-67790828D01*
X160811236Y-67398066D01*
X160298700Y-67185242D01*
X159743735Y-67184758D01*
X159230828Y-67396687D01*
X158838066Y-67788764D01*
X158750046Y-68000738D01*
X158663313Y-67790828D01*
X158271236Y-67398066D01*
X157758700Y-67185242D01*
X157203735Y-67184758D01*
X156690828Y-67396687D01*
X156298066Y-67788764D01*
X156210046Y-68000738D01*
X156123313Y-67790828D01*
X155731236Y-67398066D01*
X155218700Y-67185242D01*
X154663735Y-67184758D01*
X154150828Y-67396687D01*
X153758066Y-67788764D01*
X153670046Y-68000738D01*
X153583313Y-67790828D01*
X153191236Y-67398066D01*
X152678700Y-67185242D01*
X152123735Y-67184758D01*
X151610828Y-67396687D01*
X151218066Y-67788764D01*
X151130046Y-68000738D01*
X151043313Y-67790828D01*
X150651236Y-67398066D01*
X150138700Y-67185242D01*
X149583735Y-67184758D01*
X149070828Y-67396687D01*
X148678066Y-67788764D01*
X148590046Y-68000738D01*
X148503313Y-67790828D01*
X148111236Y-67398066D01*
X147598700Y-67185242D01*
X147043735Y-67184758D01*
X146530828Y-67396687D01*
X146138066Y-67788764D01*
X146050046Y-68000738D01*
X145963313Y-67790828D01*
X145571236Y-67398066D01*
X145058700Y-67185242D01*
X144503735Y-67184758D01*
X143990828Y-67396687D01*
X143598066Y-67788764D01*
X143510046Y-68000738D01*
X143423313Y-67790828D01*
X143031236Y-67398066D01*
X142518700Y-67185242D01*
X141963735Y-67184758D01*
X141450828Y-67396687D01*
X141058066Y-67788764D01*
X140970046Y-68000738D01*
X140883313Y-67790828D01*
X140491236Y-67398066D01*
X139978700Y-67185242D01*
X139423735Y-67184758D01*
X138910828Y-67396687D01*
X138518066Y-67788764D01*
X138430046Y-68000738D01*
X138343313Y-67790828D01*
X137951236Y-67398066D01*
X137438700Y-67185242D01*
X136883735Y-67184758D01*
X136370828Y-67396687D01*
X135978066Y-67788764D01*
X135890046Y-68000738D01*
X135803313Y-67790828D01*
X135411236Y-67398066D01*
X134898700Y-67185242D01*
X134343735Y-67184758D01*
X133830828Y-67396687D01*
X133438066Y-67788764D01*
X133350046Y-68000738D01*
X133263313Y-67790828D01*
X132871236Y-67398066D01*
X132358700Y-67185242D01*
X131803735Y-67184758D01*
X131290828Y-67396687D01*
X130898066Y-67788764D01*
X130685242Y-68301300D01*
X130684758Y-68856265D01*
X130896687Y-69369172D01*
X131252210Y-69725316D01*
X131084683Y-69756838D01*
X130868559Y-69895910D01*
X130723569Y-70108110D01*
X130672560Y-70360000D01*
X130672560Y-71880000D01*
X130716838Y-72115317D01*
X130855910Y-72331441D01*
X131068110Y-72476431D01*
X131320000Y-72527440D01*
X132840000Y-72527440D01*
X133075317Y-72483162D01*
X133291441Y-72344090D01*
X133436431Y-72131890D01*
X133473969Y-71946520D01*
X133828764Y-72301934D01*
X134341300Y-72514758D01*
X134896265Y-72515242D01*
X135409172Y-72303313D01*
X135801934Y-71911236D01*
X135889954Y-71699262D01*
X135976687Y-71909172D01*
X136368764Y-72301934D01*
X136881300Y-72514758D01*
X137436265Y-72515242D01*
X137949172Y-72303313D01*
X138341934Y-71911236D01*
X138429954Y-71699262D01*
X138516687Y-71909172D01*
X138908764Y-72301934D01*
X139421300Y-72514758D01*
X139976265Y-72515242D01*
X140489172Y-72303313D01*
X140881934Y-71911236D01*
X140969954Y-71699262D01*
X141056687Y-71909172D01*
X141448764Y-72301934D01*
X141961300Y-72514758D01*
X142516265Y-72515242D01*
X143029172Y-72303313D01*
X143421934Y-71911236D01*
X143509954Y-71699262D01*
X143596687Y-71909172D01*
X143988764Y-72301934D01*
X144501300Y-72514758D01*
X145056265Y-72515242D01*
X145569172Y-72303313D01*
X145961934Y-71911236D01*
X146049954Y-71699262D01*
X146136687Y-71909172D01*
X146528764Y-72301934D01*
X147041300Y-72514758D01*
X147319487Y-72515001D01*
X145611844Y-74222644D01*
X145436258Y-74485426D01*
X145374600Y-74795400D01*
X145374600Y-90629093D01*
X145310327Y-90564708D01*
X144966799Y-90422062D01*
X144594833Y-90421738D01*
X144251057Y-90563783D01*
X144200086Y-90614665D01*
X144144573Y-90651758D01*
X143946443Y-90784144D01*
X143116804Y-91613784D01*
X143054275Y-91551145D01*
X143174838Y-91260799D01*
X143175162Y-90888833D01*
X143033117Y-90545057D01*
X142770327Y-90281808D01*
X142426799Y-90139162D01*
X142054833Y-90138838D01*
X141751917Y-90264000D01*
X139698200Y-90264000D01*
X139388226Y-90325658D01*
X139282971Y-90395988D01*
X139125444Y-90501243D01*
X138024865Y-91601823D01*
X137951236Y-91528066D01*
X137438700Y-91315242D01*
X136883735Y-91314758D01*
X136388699Y-91519303D01*
X136328256Y-91428843D01*
X136233629Y-91334217D01*
X136109317Y-91033357D01*
X135846527Y-90770108D01*
X135502999Y-90627462D01*
X135131033Y-90627138D01*
X134787257Y-90769183D01*
X134524008Y-91031973D01*
X134406562Y-91314813D01*
X134343735Y-91314758D01*
X133958204Y-91474056D01*
X133745727Y-91261208D01*
X133402199Y-91118562D01*
X133030233Y-91118238D01*
X132686457Y-91260283D01*
X132551291Y-91395213D01*
X132358700Y-91315242D01*
X131803735Y-91314758D01*
X131290828Y-91526687D01*
X130898066Y-91918764D01*
X130685242Y-92431300D01*
X130684758Y-92986265D01*
X130896687Y-93499172D01*
X131252210Y-93855316D01*
X131084683Y-93886838D01*
X130868559Y-94025910D01*
X130723569Y-94238110D01*
X130672560Y-94490000D01*
X130672560Y-96010000D01*
X130716838Y-96245317D01*
X130855910Y-96461441D01*
X131068110Y-96606431D01*
X131320000Y-96657440D01*
X132840000Y-96657440D01*
X133075317Y-96613162D01*
X133291441Y-96474090D01*
X133436431Y-96261890D01*
X133473969Y-96076520D01*
X133828764Y-96431934D01*
X134341300Y-96644758D01*
X134869707Y-96645219D01*
X142700000Y-104475513D01*
X142700000Y-127430592D01*
X142574417Y-127126657D01*
X142311627Y-126863408D01*
X141968099Y-126720762D01*
X141596133Y-126720438D01*
X141252357Y-126862483D01*
X141097000Y-127017569D01*
X141097000Y-125730000D01*
X141086994Y-125680590D01*
X141059803Y-125640197D01*
X135979803Y-120560197D01*
X135937789Y-120532334D01*
X135890000Y-120523000D01*
X133477000Y-120523000D01*
X133477000Y-115570000D01*
X133466994Y-115520590D01*
X133439803Y-115480197D01*
X118237000Y-100277394D01*
X118237000Y-64897000D01*
X194183000Y-64897000D01*
X194183000Y-100277394D01*
X194183000Y-100277394D01*
G37*
X194183000Y-100277394D02*
X178980197Y-115480197D01*
X178952334Y-115522211D01*
X178943000Y-115570000D01*
X178943000Y-120523000D01*
X175260000Y-120523000D01*
X175210590Y-120533006D01*
X175170197Y-120560197D01*
X170090197Y-125640197D01*
X170062334Y-125682211D01*
X170053000Y-125730000D01*
X170053000Y-130683000D01*
X169862500Y-130683000D01*
X169862500Y-130682998D01*
X169703752Y-130682998D01*
X169862500Y-130524250D01*
X169862500Y-129183690D01*
X169765827Y-128950301D01*
X169587198Y-128771673D01*
X169353809Y-128675000D01*
X169195750Y-128675000D01*
X169037000Y-128833750D01*
X169037000Y-130683000D01*
X168783000Y-130683000D01*
X168783000Y-128833750D01*
X168624250Y-128675000D01*
X168466191Y-128675000D01*
X168450000Y-128681707D01*
X168450000Y-128345941D01*
X168574838Y-128045299D01*
X168575162Y-127673333D01*
X168433117Y-127329557D01*
X168170327Y-127066308D01*
X167826799Y-126923662D01*
X167454833Y-126923338D01*
X167139700Y-127053548D01*
X167139700Y-126959912D01*
X179888557Y-114211056D01*
X180064143Y-113948273D01*
X180107480Y-113730399D01*
X180125800Y-113638300D01*
X180125800Y-104417870D01*
X181288690Y-104417870D01*
X181524007Y-104373592D01*
X181740131Y-104234520D01*
X181885121Y-104022320D01*
X181936130Y-103770430D01*
X181936130Y-101969570D01*
X181891852Y-101734253D01*
X181752780Y-101518129D01*
X181540580Y-101373139D01*
X181288690Y-101322130D01*
X181245762Y-101322130D01*
X181238243Y-101284327D01*
X181150000Y-101152262D01*
X181150000Y-96412521D01*
X181521934Y-96041236D01*
X181734758Y-95528700D01*
X181735242Y-94973735D01*
X181523313Y-94460828D01*
X181131236Y-94068066D01*
X180935066Y-93986609D01*
X181069941Y-93930742D01*
X181139159Y-93688764D01*
X180340000Y-92889605D01*
X179540841Y-93688764D01*
X179610059Y-93930742D01*
X179754862Y-93982382D01*
X179550828Y-94066687D01*
X179158066Y-94458764D01*
X179070046Y-94670738D01*
X178983313Y-94460828D01*
X178591236Y-94068066D01*
X178379262Y-93980046D01*
X178589172Y-93893313D01*
X178981934Y-93501236D01*
X179063391Y-93305066D01*
X179119258Y-93439941D01*
X179361236Y-93509159D01*
X180160395Y-92710000D01*
X180519605Y-92710000D01*
X181318764Y-93509159D01*
X181560742Y-93439941D01*
X181747155Y-92917220D01*
X181719341Y-92362951D01*
X181560742Y-91980059D01*
X181318764Y-91910841D01*
X180519605Y-92710000D01*
X180160395Y-92710000D01*
X179361236Y-91910841D01*
X179119258Y-91980059D01*
X179067618Y-92124862D01*
X178983313Y-91920828D01*
X178794052Y-91731236D01*
X179540841Y-91731236D01*
X180340000Y-92530395D01*
X181139159Y-91731236D01*
X181069941Y-91489258D01*
X180547220Y-91302845D01*
X179992951Y-91330659D01*
X179610059Y-91489258D01*
X179540841Y-91731236D01*
X178794052Y-91731236D01*
X178591236Y-91528066D01*
X178078700Y-91315242D01*
X177523735Y-91314758D01*
X177010828Y-91526687D01*
X176618066Y-91918764D01*
X176530046Y-92130738D01*
X176443313Y-91920828D01*
X176051236Y-91528066D01*
X175538700Y-91315242D01*
X174983735Y-91314758D01*
X174470828Y-91526687D01*
X174078066Y-91918764D01*
X173990046Y-92130738D01*
X173903313Y-91920828D01*
X173511236Y-91528066D01*
X172998700Y-91315242D01*
X172443735Y-91314758D01*
X172260000Y-91390676D01*
X172260000Y-80990812D01*
X172562756Y-80688057D01*
X172650549Y-80556665D01*
X172738342Y-80425274D01*
X172745868Y-80387440D01*
X172990000Y-80387440D01*
X173225317Y-80343162D01*
X173441441Y-80204090D01*
X173586431Y-79991890D01*
X173637440Y-79740000D01*
X173637440Y-77740000D01*
X173593162Y-77504683D01*
X173454090Y-77288559D01*
X173241890Y-77143569D01*
X172990000Y-77092560D01*
X170990000Y-77092560D01*
X170754683Y-77136838D01*
X170538559Y-77275910D01*
X170393569Y-77488110D01*
X170342560Y-77740000D01*
X170342560Y-79740000D01*
X170386838Y-79975317D01*
X170525910Y-80191441D01*
X170717164Y-80322119D01*
X170701658Y-80345326D01*
X170640000Y-80655300D01*
X170640000Y-91390524D01*
X170458700Y-91315242D01*
X169903735Y-91314758D01*
X169390828Y-91526687D01*
X168998066Y-91918764D01*
X168916609Y-92114934D01*
X168860742Y-91980059D01*
X168618764Y-91910841D01*
X167819605Y-92710000D01*
X168618764Y-93509159D01*
X168860742Y-93439941D01*
X168912382Y-93295138D01*
X168996687Y-93499172D01*
X169388764Y-93891934D01*
X169600738Y-93979954D01*
X169390828Y-94066687D01*
X168998066Y-94458764D01*
X168910046Y-94670738D01*
X168823313Y-94460828D01*
X168431236Y-94068066D01*
X168235066Y-93986609D01*
X168369941Y-93930742D01*
X168439159Y-93688764D01*
X167640000Y-92889605D01*
X167625858Y-92903748D01*
X167446253Y-92724143D01*
X167460395Y-92710000D01*
X167446253Y-92695858D01*
X167625858Y-92516253D01*
X167640000Y-92530395D01*
X167842150Y-92328245D01*
X168168943Y-92193217D01*
X168432192Y-91930427D01*
X168574838Y-91586899D01*
X168575162Y-91214933D01*
X168433117Y-90871157D01*
X168170327Y-90607908D01*
X167826799Y-90465262D01*
X167454833Y-90464938D01*
X167111057Y-90606983D01*
X167078367Y-90639616D01*
X167017326Y-90651758D01*
X166900868Y-90729573D01*
X166754543Y-90827344D01*
X165972458Y-91609430D01*
X165891236Y-91528066D01*
X165378700Y-91315242D01*
X164823735Y-91314758D01*
X164770900Y-91336589D01*
X164770900Y-80746312D01*
X165548056Y-79969157D01*
X165602657Y-79887440D01*
X168600000Y-79887440D01*
X168835317Y-79843162D01*
X169051441Y-79704090D01*
X169185263Y-79508236D01*
X169285274Y-79488342D01*
X169548056Y-79312756D01*
X169723642Y-79049974D01*
X169785300Y-78740000D01*
X169785300Y-72660212D01*
X169930729Y-72514784D01*
X170456265Y-72515242D01*
X170969172Y-72303313D01*
X171361934Y-71911236D01*
X171449954Y-71699262D01*
X171536687Y-71909172D01*
X171928764Y-72301934D01*
X172441300Y-72514758D01*
X172996265Y-72515242D01*
X173509172Y-72303313D01*
X173901934Y-71911236D01*
X173989954Y-71699262D01*
X174076687Y-71909172D01*
X174468764Y-72301934D01*
X174981300Y-72514758D01*
X175536265Y-72515242D01*
X176049172Y-72303313D01*
X176441934Y-71911236D01*
X176529954Y-71699262D01*
X176616687Y-71909172D01*
X177008764Y-72301934D01*
X177521300Y-72514758D01*
X178076265Y-72515242D01*
X178589172Y-72303313D01*
X178981934Y-71911236D01*
X179069954Y-71699262D01*
X179156687Y-71909172D01*
X179548764Y-72301934D01*
X180061300Y-72514758D01*
X180589706Y-72515219D01*
X180949900Y-72875413D01*
X180949900Y-77194224D01*
X180725713Y-77236408D01*
X180509589Y-77375480D01*
X180364599Y-77587680D01*
X180340970Y-77704366D01*
X180322132Y-77604253D01*
X180183060Y-77388129D01*
X179970860Y-77243139D01*
X179718970Y-77192130D01*
X178121310Y-77192130D01*
X177885993Y-77236408D01*
X177669869Y-77375480D01*
X177587549Y-77495960D01*
X177454090Y-77288559D01*
X177241890Y-77143569D01*
X176990000Y-77092560D01*
X174990000Y-77092560D01*
X174754683Y-77136838D01*
X174538559Y-77275910D01*
X174393569Y-77488110D01*
X174342560Y-77740000D01*
X174342560Y-79740000D01*
X174386838Y-79975317D01*
X174525910Y-80191441D01*
X174738110Y-80336431D01*
X174990000Y-80387440D01*
X176990000Y-80387440D01*
X177225317Y-80343162D01*
X177441441Y-80204090D01*
X177586431Y-79991890D01*
X177587976Y-79984262D01*
X177657220Y-80091871D01*
X177869420Y-80236861D01*
X178121310Y-80287870D01*
X179718970Y-80287870D01*
X179954287Y-80243592D01*
X180170411Y-80104520D01*
X180315401Y-79892320D01*
X180339030Y-79775634D01*
X180357868Y-79875747D01*
X180496940Y-80091871D01*
X180709140Y-80236861D01*
X180961030Y-80287870D01*
X182558690Y-80287870D01*
X182794007Y-80243592D01*
X183010131Y-80104520D01*
X183155121Y-79892320D01*
X183206130Y-79640430D01*
X183206130Y-77839570D01*
X183161852Y-77604253D01*
X183022780Y-77388129D01*
X182810580Y-77243139D01*
X182569900Y-77194400D01*
X182569900Y-72539900D01*
X182522840Y-72303313D01*
X182508243Y-72229927D01*
X182332657Y-71967144D01*
X181734784Y-71369271D01*
X181735242Y-70843735D01*
X181523313Y-70330828D01*
X181131236Y-69938066D01*
X180935066Y-69856609D01*
X181069941Y-69800742D01*
X181139159Y-69558764D01*
X180340000Y-68759605D01*
X179540841Y-69558764D01*
X179610059Y-69800742D01*
X179754862Y-69852382D01*
X179550828Y-69936687D01*
X179158066Y-70328764D01*
X179070046Y-70540738D01*
X178983313Y-70330828D01*
X178591236Y-69938066D01*
X178379262Y-69850046D01*
X178589172Y-69763313D01*
X178981934Y-69371236D01*
X179063391Y-69175066D01*
X179119258Y-69309941D01*
X179361236Y-69379159D01*
X180160395Y-68580000D01*
X180519605Y-68580000D01*
X181318764Y-69379159D01*
X181560742Y-69309941D01*
X181747155Y-68787220D01*
X181719341Y-68232951D01*
X181560742Y-67850059D01*
X181318764Y-67780841D01*
X180519605Y-68580000D01*
X180160395Y-68580000D01*
X179361236Y-67780841D01*
X179119258Y-67850059D01*
X179067618Y-67994862D01*
X178983313Y-67790828D01*
X178794052Y-67601236D01*
X179540841Y-67601236D01*
X180340000Y-68400395D01*
X181139159Y-67601236D01*
X181069941Y-67359258D01*
X180547220Y-67172845D01*
X179992951Y-67200659D01*
X179610059Y-67359258D01*
X179540841Y-67601236D01*
X178794052Y-67601236D01*
X178591236Y-67398066D01*
X178078700Y-67185242D01*
X177550293Y-67184781D01*
X177193555Y-66828043D01*
X176930774Y-66652458D01*
X176620800Y-66590800D01*
X164613100Y-66590800D01*
X164440997Y-66625034D01*
X164303127Y-66652457D01*
X164040344Y-66828043D01*
X163410727Y-67457661D01*
X163351236Y-67398066D01*
X162838700Y-67185242D01*
X162283735Y-67184758D01*
X161770828Y-67396687D01*
X161378066Y-67788764D01*
X161290046Y-68000738D01*
X161203313Y-67790828D01*
X160811236Y-67398066D01*
X160298700Y-67185242D01*
X159743735Y-67184758D01*
X159230828Y-67396687D01*
X158838066Y-67788764D01*
X158750046Y-68000738D01*
X158663313Y-67790828D01*
X158271236Y-67398066D01*
X157758700Y-67185242D01*
X157203735Y-67184758D01*
X156690828Y-67396687D01*
X156298066Y-67788764D01*
X156210046Y-68000738D01*
X156123313Y-67790828D01*
X155731236Y-67398066D01*
X155218700Y-67185242D01*
X154663735Y-67184758D01*
X154150828Y-67396687D01*
X153758066Y-67788764D01*
X153670046Y-68000738D01*
X153583313Y-67790828D01*
X153191236Y-67398066D01*
X152678700Y-67185242D01*
X152123735Y-67184758D01*
X151610828Y-67396687D01*
X151218066Y-67788764D01*
X151130046Y-68000738D01*
X151043313Y-67790828D01*
X150651236Y-67398066D01*
X150138700Y-67185242D01*
X149583735Y-67184758D01*
X149070828Y-67396687D01*
X148678066Y-67788764D01*
X148590046Y-68000738D01*
X148503313Y-67790828D01*
X148111236Y-67398066D01*
X147598700Y-67185242D01*
X147043735Y-67184758D01*
X146530828Y-67396687D01*
X146138066Y-67788764D01*
X146050046Y-68000738D01*
X145963313Y-67790828D01*
X145571236Y-67398066D01*
X145058700Y-67185242D01*
X144503735Y-67184758D01*
X143990828Y-67396687D01*
X143598066Y-67788764D01*
X143510046Y-68000738D01*
X143423313Y-67790828D01*
X143031236Y-67398066D01*
X142518700Y-67185242D01*
X141963735Y-67184758D01*
X141450828Y-67396687D01*
X141058066Y-67788764D01*
X140970046Y-68000738D01*
X140883313Y-67790828D01*
X140491236Y-67398066D01*
X139978700Y-67185242D01*
X139423735Y-67184758D01*
X138910828Y-67396687D01*
X138518066Y-67788764D01*
X138430046Y-68000738D01*
X138343313Y-67790828D01*
X137951236Y-67398066D01*
X137438700Y-67185242D01*
X136883735Y-67184758D01*
X136370828Y-67396687D01*
X135978066Y-67788764D01*
X135890046Y-68000738D01*
X135803313Y-67790828D01*
X135411236Y-67398066D01*
X134898700Y-67185242D01*
X134343735Y-67184758D01*
X133830828Y-67396687D01*
X133438066Y-67788764D01*
X133350046Y-68000738D01*
X133263313Y-67790828D01*
X132871236Y-67398066D01*
X132358700Y-67185242D01*
X131803735Y-67184758D01*
X131290828Y-67396687D01*
X130898066Y-67788764D01*
X130685242Y-68301300D01*
X130684758Y-68856265D01*
X130896687Y-69369172D01*
X131252210Y-69725316D01*
X131084683Y-69756838D01*
X130868559Y-69895910D01*
X130723569Y-70108110D01*
X130672560Y-70360000D01*
X130672560Y-71880000D01*
X130716838Y-72115317D01*
X130855910Y-72331441D01*
X131068110Y-72476431D01*
X131320000Y-72527440D01*
X132840000Y-72527440D01*
X133075317Y-72483162D01*
X133291441Y-72344090D01*
X133436431Y-72131890D01*
X133473969Y-71946520D01*
X133828764Y-72301934D01*
X134341300Y-72514758D01*
X134896265Y-72515242D01*
X135409172Y-72303313D01*
X135801934Y-71911236D01*
X135889954Y-71699262D01*
X135976687Y-71909172D01*
X136368764Y-72301934D01*
X136881300Y-72514758D01*
X137436265Y-72515242D01*
X137949172Y-72303313D01*
X138341934Y-71911236D01*
X138429954Y-71699262D01*
X138516687Y-71909172D01*
X138908764Y-72301934D01*
X139421300Y-72514758D01*
X139976265Y-72515242D01*
X140489172Y-72303313D01*
X140881934Y-71911236D01*
X140969954Y-71699262D01*
X141056687Y-71909172D01*
X141448764Y-72301934D01*
X141961300Y-72514758D01*
X142516265Y-72515242D01*
X143029172Y-72303313D01*
X143421934Y-71911236D01*
X143509954Y-71699262D01*
X143596687Y-71909172D01*
X143988764Y-72301934D01*
X144501300Y-72514758D01*
X145056265Y-72515242D01*
X145569172Y-72303313D01*
X145961934Y-71911236D01*
X146049954Y-71699262D01*
X146136687Y-71909172D01*
X146528764Y-72301934D01*
X147041300Y-72514758D01*
X147319487Y-72515001D01*
X145611844Y-74222644D01*
X145436258Y-74485426D01*
X145374600Y-74795400D01*
X145374600Y-90629093D01*
X145310327Y-90564708D01*
X144966799Y-90422062D01*
X144594833Y-90421738D01*
X144251057Y-90563783D01*
X144200086Y-90614665D01*
X144144573Y-90651758D01*
X143946443Y-90784144D01*
X143116804Y-91613784D01*
X143054275Y-91551145D01*
X143174838Y-91260799D01*
X143175162Y-90888833D01*
X143033117Y-90545057D01*
X142770327Y-90281808D01*
X142426799Y-90139162D01*
X142054833Y-90138838D01*
X141751917Y-90264000D01*
X139698200Y-90264000D01*
X139388226Y-90325658D01*
X139282971Y-90395988D01*
X139125444Y-90501243D01*
X138024865Y-91601823D01*
X137951236Y-91528066D01*
X137438700Y-91315242D01*
X136883735Y-91314758D01*
X136388699Y-91519303D01*
X136328256Y-91428843D01*
X136233629Y-91334217D01*
X136109317Y-91033357D01*
X135846527Y-90770108D01*
X135502999Y-90627462D01*
X135131033Y-90627138D01*
X134787257Y-90769183D01*
X134524008Y-91031973D01*
X134406562Y-91314813D01*
X134343735Y-91314758D01*
X133958204Y-91474056D01*
X133745727Y-91261208D01*
X133402199Y-91118562D01*
X133030233Y-91118238D01*
X132686457Y-91260283D01*
X132551291Y-91395213D01*
X132358700Y-91315242D01*
X131803735Y-91314758D01*
X131290828Y-91526687D01*
X130898066Y-91918764D01*
X130685242Y-92431300D01*
X130684758Y-92986265D01*
X130896687Y-93499172D01*
X131252210Y-93855316D01*
X131084683Y-93886838D01*
X130868559Y-94025910D01*
X130723569Y-94238110D01*
X130672560Y-94490000D01*
X130672560Y-96010000D01*
X130716838Y-96245317D01*
X130855910Y-96461441D01*
X131068110Y-96606431D01*
X131320000Y-96657440D01*
X132840000Y-96657440D01*
X133075317Y-96613162D01*
X133291441Y-96474090D01*
X133436431Y-96261890D01*
X133473969Y-96076520D01*
X133828764Y-96431934D01*
X134341300Y-96644758D01*
X134869707Y-96645219D01*
X142700000Y-104475513D01*
X142700000Y-127430592D01*
X142574417Y-127126657D01*
X142311627Y-126863408D01*
X141968099Y-126720762D01*
X141596133Y-126720438D01*
X141252357Y-126862483D01*
X141097000Y-127017569D01*
X141097000Y-125730000D01*
X141086994Y-125680590D01*
X141059803Y-125640197D01*
X135979803Y-120560197D01*
X135937789Y-120532334D01*
X135890000Y-120523000D01*
X133477000Y-120523000D01*
X133477000Y-115570000D01*
X133466994Y-115520590D01*
X133439803Y-115480197D01*
X118237000Y-100277394D01*
X118237000Y-64897000D01*
X194183000Y-64897000D01*
X194183000Y-100277394D01*
G36*
X167833748Y-68565858D02*
X167819605Y-68580000D01*
X168618764Y-69379159D01*
X168860742Y-69309941D01*
X168912382Y-69165138D01*
X168996687Y-69369172D01*
X169388764Y-69761934D01*
X169600738Y-69849954D01*
X169390828Y-69936687D01*
X168998066Y-70328764D01*
X168910046Y-70540738D01*
X168823313Y-70330828D01*
X168431236Y-69938066D01*
X168235066Y-69856609D01*
X168369941Y-69800742D01*
X168439159Y-69558764D01*
X167640000Y-68759605D01*
X166840841Y-69558764D01*
X166910059Y-69800742D01*
X167054862Y-69852382D01*
X166850828Y-69936687D01*
X166458066Y-70328764D01*
X166370046Y-70540738D01*
X166283313Y-70330828D01*
X165891236Y-69938066D01*
X165679262Y-69850046D01*
X165889172Y-69763313D01*
X166281934Y-69371236D01*
X166363391Y-69175066D01*
X166419258Y-69309941D01*
X166661236Y-69379159D01*
X167460395Y-68580000D01*
X167446253Y-68565858D01*
X167625858Y-68386253D01*
X167640000Y-68400395D01*
X167654143Y-68386253D01*
X167833748Y-68565858D01*
X167833748Y-68565858D01*
G37*
X167833748Y-68565858D02*
X167819605Y-68580000D01*
X168618764Y-69379159D01*
X168860742Y-69309941D01*
X168912382Y-69165138D01*
X168996687Y-69369172D01*
X169388764Y-69761934D01*
X169600738Y-69849954D01*
X169390828Y-69936687D01*
X168998066Y-70328764D01*
X168910046Y-70540738D01*
X168823313Y-70330828D01*
X168431236Y-69938066D01*
X168235066Y-69856609D01*
X168369941Y-69800742D01*
X168439159Y-69558764D01*
X167640000Y-68759605D01*
X166840841Y-69558764D01*
X166910059Y-69800742D01*
X167054862Y-69852382D01*
X166850828Y-69936687D01*
X166458066Y-70328764D01*
X166370046Y-70540738D01*
X166283313Y-70330828D01*
X165891236Y-69938066D01*
X165679262Y-69850046D01*
X165889172Y-69763313D01*
X166281934Y-69371236D01*
X166363391Y-69175066D01*
X166419258Y-69309941D01*
X166661236Y-69379159D01*
X167460395Y-68580000D01*
X167446253Y-68565858D01*
X167625858Y-68386253D01*
X167640000Y-68400395D01*
X167654143Y-68386253D01*
X167833748Y-68565858D01*
M02*
