M48
;DRILL file {KiCad 4.0.2+dfsg1-stable} date Sat 02 Mar 2019 14:04:30 CET
;FORMAT={-:-/ absolute / metric / decimal}
FMAT,2
METRIC,TZ
T1C0.400
T2C0.800
T3C0.910
%
G90
G05
M71
T1
X128.513Y-79.328
X129.658Y-94.911
X130.367Y-93.357
X131.017Y-77.585
X133.62Y-92.394
X135.244Y-91.019
X138.645Y-90.533
X141.073Y-85.617
X143.656Y-82.327
X146.309Y-79.574
X148.667Y-78.923
X151.721Y-76.135
X157.968Y-116.94
X159.02Y-76.232
X161.56Y-79.613
X166.64Y-85.584
X167.251Y-86.123
X168.066Y-88.565
X168.58Y-75.684
X168.787Y-130.571
X169.483Y-119.279
X170.049Y-129.907
X170.89Y-92.449
X171.462Y-87.43
X171.833Y-98.889
T2
X129.Y-96.
X129.Y-98.
X131.Y-96.
X131.Y-98.
X133.Y-96.
X133.Y-98.
X135.Y-96.
X135.Y-98.
X137.Y-96.
X137.Y-98.
X139.Y-96.
X139.Y-98.
X141.Y-96.
X141.Y-98.
X143.Y-96.
X143.Y-98.
X145.Y-96.
X145.Y-98.
X147.Y-96.
X147.Y-98.
X149.Y-96.
X149.Y-98.
X151.Y-96.
X151.Y-98.
X153.Y-96.
X153.Y-98.
X155.Y-96.
X155.Y-98.
X157.Y-96.
X157.Y-98.
X159.Y-96.
X159.Y-98.
X161.Y-96.
X161.Y-98.
X163.Y-96.
X163.Y-98.
X165.Y-96.
X165.Y-98.
X167.Y-96.
X167.Y-98.
X169.Y-96.
X169.Y-98.
X171.Y-96.
X171.Y-98.
T3
X126.Y-51.46
X126.Y-54.
X126.Y-70.46
X126.Y-73.
X128.54Y-51.46
X128.54Y-54.
X128.54Y-70.46
X128.54Y-73.
X131.08Y-51.46
X131.08Y-54.
X131.08Y-70.46
X131.08Y-73.
X133.62Y-51.46
X133.62Y-54.
X133.62Y-70.46
X133.62Y-73.
X136.16Y-51.46
X136.16Y-54.
X136.16Y-70.46
X136.16Y-73.
X138.7Y-51.46
X138.7Y-54.
X138.7Y-70.46
X138.7Y-73.
X141.24Y-51.46
X141.24Y-54.
X141.24Y-70.46
X141.24Y-73.
X143.78Y-51.46
X143.78Y-54.
X143.78Y-70.46
X143.78Y-73.
X146.32Y-51.46
X146.32Y-54.
X146.32Y-70.46
X146.32Y-73.
X148.86Y-51.46
X148.86Y-54.
X148.86Y-70.46
X148.86Y-73.
X151.4Y-51.46
X151.4Y-54.
X151.4Y-70.46
X151.4Y-73.
X153.94Y-51.46
X153.94Y-54.
X153.94Y-70.46
X153.94Y-73.
X156.48Y-51.46
X156.48Y-54.
X156.48Y-70.46
X156.48Y-73.
X159.02Y-51.46
X159.02Y-54.
X159.02Y-70.46
X159.02Y-73.
X161.56Y-51.46
X161.56Y-54.
X161.56Y-70.46
X161.56Y-73.
X164.1Y-51.46
X164.1Y-54.
X164.1Y-70.46
X164.1Y-73.
X166.64Y-51.46
X166.64Y-54.
X166.64Y-70.46
X166.64Y-73.
X169.18Y-51.46
X169.18Y-54.
X169.18Y-70.46
X169.18Y-73.
X171.72Y-51.46
X171.72Y-54.
X171.72Y-70.46
X171.72Y-73.
X174.26Y-51.46
X174.26Y-54.
X174.26Y-70.46
X174.26Y-73.
T0
M30
