G04 #@! TF.FileFunction,Copper,L2,Bot,Signal*
%FSLAX46Y46*%
G04 Gerber Fmt 4.6, Leading zero omitted, Abs format (unit mm)*
G04 Created by KiCad (PCBNEW 4.0.2+dfsg1-stable) date Fri 01 Mar 2019 18:56:52 CET*
%MOMM*%
G01*
G04 APERTURE LIST*
%ADD10C,0.100000*%
%ADD11R,1.520000X1.520000*%
%ADD12C,1.520000*%
%ADD13R,0.635000X3.000000*%
%ADD14C,0.600000*%
%ADD15C,0.350000*%
%ADD16C,0.254000*%
G04 APERTURE END LIST*
D10*
D11*
X132080000Y-71120000D03*
D12*
X132080000Y-68580000D03*
X134620000Y-71120000D03*
X134620000Y-68580000D03*
X137160000Y-71120000D03*
X137160000Y-68580000D03*
X139700000Y-71120000D03*
X139700000Y-68580000D03*
X142240000Y-71120000D03*
X142240000Y-68580000D03*
X144780000Y-71120000D03*
X144780000Y-68580000D03*
X147320000Y-71120000D03*
X147320000Y-68580000D03*
X149860000Y-71120000D03*
X149860000Y-68580000D03*
X152400000Y-71120000D03*
X152400000Y-68580000D03*
X154940000Y-71120000D03*
X154940000Y-68580000D03*
X157480000Y-71120000D03*
X157480000Y-68580000D03*
X160020000Y-71120000D03*
X160020000Y-68580000D03*
X162560000Y-71120000D03*
X162560000Y-68580000D03*
X165100000Y-71120000D03*
X165100000Y-68580000D03*
X167640000Y-71120000D03*
X167640000Y-68580000D03*
X170180000Y-71120000D03*
X170180000Y-68580000D03*
X172720000Y-71120000D03*
X172720000Y-68580000D03*
X175260000Y-71120000D03*
X175260000Y-68580000D03*
X177800000Y-71120000D03*
X177800000Y-68580000D03*
X180340000Y-71120000D03*
X180340000Y-68580000D03*
D13*
X142240000Y-130810000D03*
X143510000Y-130810000D03*
X144780000Y-130810000D03*
X146050000Y-130810000D03*
X147320000Y-130810000D03*
X148590000Y-130810000D03*
X149860000Y-130810000D03*
X151130000Y-130810000D03*
X152400000Y-130810000D03*
X153670000Y-130810000D03*
X154940000Y-130810000D03*
X156210000Y-130810000D03*
X157480000Y-130810000D03*
X158750000Y-130810000D03*
X160020000Y-130810000D03*
X161290000Y-130810000D03*
X162560000Y-130810000D03*
X163830000Y-130810000D03*
X165100000Y-130810000D03*
X166370000Y-130810000D03*
X167640000Y-130810000D03*
X168910000Y-130810000D03*
D11*
X132080000Y-95250000D03*
D12*
X132080000Y-92710000D03*
X134620000Y-95250000D03*
X134620000Y-92710000D03*
X137160000Y-95250000D03*
X137160000Y-92710000D03*
X139700000Y-95250000D03*
X139700000Y-92710000D03*
X142240000Y-95250000D03*
X142240000Y-92710000D03*
X144780000Y-95250000D03*
X144780000Y-92710000D03*
X147320000Y-95250000D03*
X147320000Y-92710000D03*
X149860000Y-95250000D03*
X149860000Y-92710000D03*
X152400000Y-95250000D03*
X152400000Y-92710000D03*
X154940000Y-95250000D03*
X154940000Y-92710000D03*
X157480000Y-95250000D03*
X157480000Y-92710000D03*
X160020000Y-95250000D03*
X160020000Y-92710000D03*
X162560000Y-95250000D03*
X162560000Y-92710000D03*
X165100000Y-95250000D03*
X165100000Y-92710000D03*
X167640000Y-95250000D03*
X167640000Y-92710000D03*
X170180000Y-95250000D03*
X170180000Y-92710000D03*
X172720000Y-95250000D03*
X172720000Y-92710000D03*
X175260000Y-95250000D03*
X175260000Y-92710000D03*
X177800000Y-95250000D03*
X177800000Y-92710000D03*
X180340000Y-95250000D03*
X180340000Y-92710000D03*
D14*
X141781300Y-127655600D03*
X133215400Y-92053400D03*
X135316200Y-91562300D03*
X144780000Y-128114600D03*
X146050000Y-126807800D03*
X147754200Y-128500500D03*
X142240000Y-91074000D03*
X147145700Y-119828600D03*
X144780000Y-91356900D03*
X149668200Y-120814400D03*
X151130000Y-120436300D03*
X152994200Y-128810900D03*
X152400000Y-91259900D03*
X154263700Y-127694200D03*
X155532700Y-128810900D03*
X157480000Y-91071500D03*
X156800700Y-127530600D03*
X161155400Y-92038700D03*
X158066600Y-128810900D03*
X159860600Y-127479300D03*
X160718200Y-128532100D03*
X167640000Y-91400100D03*
X171016100Y-104962200D03*
X176395300Y-94327500D03*
X167696900Y-104387000D03*
X167640000Y-127858500D03*
X167005000Y-126904100D03*
X149123600Y-88817700D03*
D15*
X142240000Y-130810000D02*
X142240000Y-128934700D01*
X130944600Y-93845400D02*
X132080000Y-92710000D01*
X130944600Y-108053400D02*
X130944600Y-93845400D01*
X132653300Y-109762100D02*
X130944600Y-108053400D01*
X132653300Y-118138300D02*
X132653300Y-109762100D01*
X140731500Y-126216500D02*
X132653300Y-118138300D01*
X140731500Y-127599400D02*
X140731500Y-126216500D01*
X142066800Y-128934700D02*
X140731500Y-127599400D01*
X142240000Y-128934700D02*
X142066800Y-128934700D01*
X130944600Y-69715400D02*
X132080000Y-68580000D01*
X130944600Y-91574600D02*
X130944600Y-69715400D01*
X132080000Y-92710000D02*
X130944600Y-91574600D01*
X176609400Y-69770600D02*
X177800000Y-68580000D01*
X176609400Y-91239000D02*
X176609400Y-69770600D01*
X177800000Y-92429600D02*
X176609400Y-91239000D01*
X177800000Y-92710000D02*
X177800000Y-92429600D01*
X132080000Y-106173900D02*
X132080000Y-95250000D01*
X133203700Y-107297600D02*
X132080000Y-106173900D01*
X133203700Y-117071800D02*
X133203700Y-107297600D01*
X139080500Y-122948600D02*
X133203700Y-117071800D01*
X139080600Y-122948600D02*
X139080500Y-122948600D01*
X139080600Y-123727000D02*
X139080600Y-122948600D01*
X141538700Y-126185100D02*
X139080600Y-123727000D01*
X141538700Y-127413000D02*
X141538700Y-126185100D01*
X141781300Y-127655600D02*
X141538700Y-127413000D01*
X132080000Y-90918000D02*
X133215400Y-92053400D01*
X132080000Y-71120000D02*
X132080000Y-90918000D01*
X135316200Y-71816200D02*
X134620000Y-71120000D01*
X135316200Y-91562300D02*
X135316200Y-71816200D01*
X137160000Y-118693200D02*
X137160000Y-95250000D01*
X139442200Y-120975400D02*
X137160000Y-118693200D01*
X139442300Y-120975400D02*
X139442200Y-120975400D01*
X140731500Y-122264600D02*
X139442300Y-120975400D01*
X140731500Y-123043000D02*
X140731500Y-122264600D01*
X143189600Y-125501100D02*
X140731500Y-123043000D01*
X143189600Y-126279400D02*
X143189600Y-125501100D01*
X144780000Y-127869800D02*
X143189600Y-126279400D01*
X144780000Y-128114600D02*
X144780000Y-127869800D01*
X138331500Y-72291500D02*
X137160000Y-71120000D01*
X138331500Y-94078500D02*
X138331500Y-72291500D01*
X137160000Y-95250000D02*
X138331500Y-94078500D01*
X139700000Y-94393700D02*
X139700000Y-95250000D01*
X140856300Y-93237400D02*
X139700000Y-94393700D01*
X140856300Y-72276300D02*
X140856300Y-93237400D01*
X139700000Y-71120000D02*
X140856300Y-72276300D01*
X139700000Y-119676600D02*
X139700000Y-95250000D01*
X139700100Y-119676600D02*
X139700000Y-119676600D01*
X141832100Y-121808600D02*
X139700100Y-119676600D01*
X141832100Y-122587000D02*
X141832100Y-121808600D01*
X146050000Y-126804900D02*
X141832100Y-122587000D01*
X146050000Y-126807800D02*
X146050000Y-126804900D01*
X142240000Y-71120000D02*
X142240000Y-91074000D01*
X142240000Y-120659900D02*
X142240000Y-95250000D01*
X147754200Y-126174100D02*
X142240000Y-120659900D01*
X147754200Y-128500500D02*
X147754200Y-126174100D01*
X144780000Y-117462900D02*
X144780000Y-95250000D01*
X147145700Y-119828600D02*
X144780000Y-117462900D01*
X144780000Y-71120000D02*
X144780000Y-91356900D01*
X147320000Y-117907600D02*
X147320000Y-95250000D01*
X149668200Y-120255800D02*
X147320000Y-117907600D01*
X149668200Y-120814400D02*
X149668200Y-120255800D01*
X147320000Y-94816400D02*
X147320000Y-95250000D01*
X148470800Y-93665600D02*
X147320000Y-94816400D01*
X148470800Y-89469700D02*
X148470800Y-93665600D01*
X147320000Y-88318900D02*
X148470800Y-89469700D01*
X147320000Y-71120000D02*
X147320000Y-88318900D01*
X149860000Y-118564700D02*
X149860000Y-95250000D01*
X151130000Y-119834700D02*
X149860000Y-118564700D01*
X151130000Y-120436300D02*
X151130000Y-119834700D01*
X152994200Y-95844200D02*
X152400000Y-95250000D01*
X152994200Y-128810900D02*
X152994200Y-95844200D01*
X152400000Y-71120000D02*
X152400000Y-91259900D01*
X154263700Y-95926300D02*
X154940000Y-95250000D01*
X154263700Y-127694200D02*
X154263700Y-95926300D01*
X154940000Y-94393700D02*
X154940000Y-95250000D01*
X156085100Y-93248600D02*
X154940000Y-94393700D01*
X156085100Y-92093500D02*
X156085100Y-93248600D01*
X154940000Y-90948400D02*
X156085100Y-92093500D01*
X154940000Y-71120000D02*
X154940000Y-90948400D01*
X157480000Y-98376700D02*
X157480000Y-95250000D01*
X155532700Y-100324000D02*
X157480000Y-98376700D01*
X155532700Y-128810900D02*
X155532700Y-100324000D01*
X157480000Y-71120000D02*
X157480000Y-91071500D01*
X160020000Y-98247800D02*
X160020000Y-95250000D01*
X156800700Y-101467100D02*
X160020000Y-98247800D01*
X156800700Y-127530600D02*
X156800700Y-101467100D01*
X160020000Y-90903300D02*
X161155400Y-92038700D01*
X160020000Y-71120000D02*
X160020000Y-90903300D01*
X163703100Y-72263100D02*
X162560000Y-71120000D01*
X163703100Y-94106900D02*
X163703100Y-72263100D01*
X162560000Y-95250000D02*
X163703100Y-94106900D01*
X158066600Y-102722000D02*
X158066600Y-128810900D01*
X162560000Y-98228600D02*
X158066600Y-102722000D01*
X162560000Y-95250000D02*
X162560000Y-98228600D01*
X165100000Y-94393700D02*
X165100000Y-95250000D01*
X166245100Y-93248600D02*
X165100000Y-94393700D01*
X166245100Y-92093500D02*
X166245100Y-93248600D01*
X165100000Y-90948400D02*
X166245100Y-92093500D01*
X165100000Y-71120000D02*
X165100000Y-90948400D01*
X165100000Y-98284000D02*
X165100000Y-95250000D01*
X159860600Y-103523400D02*
X165100000Y-98284000D01*
X159860600Y-127479300D02*
X159860600Y-103523400D01*
X167640000Y-71120000D02*
X167640000Y-91400100D01*
X167640000Y-98113300D02*
X167640000Y-95250000D01*
X161511500Y-104241800D02*
X167640000Y-98113300D01*
X161511500Y-127738800D02*
X161511500Y-104241800D01*
X160718200Y-128532100D02*
X161511500Y-127738800D01*
X173126000Y-104962200D02*
X171016100Y-104962200D01*
X182032400Y-96055800D02*
X173126000Y-104962200D01*
X182032400Y-68600300D02*
X182032400Y-96055800D01*
X180872400Y-67440300D02*
X182032400Y-68600300D01*
X174794000Y-67440300D02*
X180872400Y-67440300D01*
X174124600Y-68109700D02*
X174794000Y-67440300D01*
X174124600Y-68859100D02*
X174124600Y-68109700D01*
X172720000Y-70263700D02*
X174124600Y-68859100D01*
X172720000Y-71120000D02*
X172720000Y-70263700D01*
X176395300Y-91980000D02*
X176395300Y-94327500D01*
X175260000Y-90844700D02*
X176395300Y-91980000D01*
X175260000Y-71120000D02*
X175260000Y-90844700D01*
X167640000Y-127858500D02*
X167640000Y-130810000D01*
X167696900Y-127801600D02*
X167696900Y-104387000D01*
X167640000Y-127858500D02*
X167696900Y-127801600D01*
X160020000Y-130810000D02*
X160020000Y-128934700D01*
X166472500Y-69747500D02*
X167640000Y-68580000D01*
X166472500Y-91542500D02*
X166472500Y-69747500D01*
X167640000Y-92710000D02*
X166472500Y-91542500D01*
X180340000Y-92710000D02*
X181481200Y-92710000D01*
X181481200Y-69721200D02*
X181481200Y-92710000D01*
X180340000Y-68580000D02*
X181481200Y-69721200D01*
X166370000Y-127539100D02*
X167005000Y-126904100D01*
X166370000Y-130810000D02*
X166370000Y-127539100D01*
X166370000Y-93980000D02*
X167640000Y-92710000D01*
X166370000Y-97889300D02*
X166370000Y-93980000D01*
X160961200Y-103298100D02*
X166370000Y-97889300D01*
X160961200Y-127333800D02*
X160961200Y-103298100D01*
X160020100Y-128274900D02*
X160961200Y-127333800D01*
X160020000Y-128274900D02*
X160020100Y-128274900D01*
X160020000Y-128934700D02*
X160020000Y-128274900D01*
X167005000Y-104063100D02*
X167005000Y-126904100D01*
X168040500Y-103027600D02*
X167005000Y-104063100D01*
X171403600Y-103027600D02*
X168040500Y-103027600D01*
X171631600Y-102799600D02*
X171403600Y-103027600D01*
X174447300Y-102799600D02*
X171631600Y-102799600D01*
X181481200Y-95765700D02*
X174447300Y-102799600D01*
X181481200Y-92710000D02*
X181481200Y-95765700D01*
X143510000Y-130810000D02*
X143510000Y-128934700D01*
X133478800Y-93851200D02*
X134620000Y-92710000D01*
X133478800Y-106519100D02*
X133478800Y-93851200D01*
X134029100Y-107069400D02*
X133478800Y-106519100D01*
X134029100Y-117118900D02*
X134029100Y-107069400D01*
X138986200Y-122076000D02*
X134029100Y-117118900D01*
X138986300Y-122076000D02*
X138986200Y-122076000D01*
X139630900Y-122720600D02*
X138986300Y-122076000D01*
X139630900Y-123499000D02*
X139630900Y-122720600D01*
X142089000Y-125957100D02*
X139630900Y-123499000D01*
X142089000Y-126735400D02*
X142089000Y-125957100D01*
X142456700Y-127103100D02*
X142089000Y-126735400D01*
X142456700Y-127881400D02*
X142456700Y-127103100D01*
X143510000Y-128934700D02*
X142456700Y-127881400D01*
X133478800Y-69721200D02*
X134620000Y-68580000D01*
X133478800Y-81606400D02*
X133478800Y-69721200D01*
X134620000Y-82747600D02*
X133478800Y-81606400D01*
X134620000Y-92710000D02*
X134620000Y-82747600D01*
X144780000Y-130810000D02*
X144780000Y-128934700D01*
X136012300Y-69727700D02*
X137160000Y-68580000D01*
X136012300Y-91562300D02*
X136012300Y-69727700D01*
X137160000Y-92710000D02*
X136012300Y-91562300D01*
X135969400Y-93900600D02*
X137160000Y-92710000D01*
X135969400Y-118280900D02*
X135969400Y-93900600D01*
X139214200Y-121525700D02*
X135969400Y-118280900D01*
X139214300Y-121525700D02*
X139214200Y-121525700D01*
X140181200Y-122492600D02*
X139214300Y-121525700D01*
X140181200Y-123271000D02*
X140181200Y-122492600D01*
X142639300Y-125729100D02*
X140181200Y-123271000D01*
X142639300Y-126507400D02*
X142639300Y-125729100D01*
X143106700Y-126974800D02*
X142639300Y-126507400D01*
X143106700Y-127396300D02*
X143106700Y-126974800D01*
X144645100Y-128934700D02*
X143106700Y-127396300D01*
X144780000Y-128934700D02*
X144645100Y-128934700D01*
X139298200Y-92710000D02*
X139700000Y-92710000D01*
X138538500Y-69741500D02*
X139700000Y-68580000D01*
X138538500Y-71720100D02*
X138538500Y-69741500D01*
X139298200Y-72479800D02*
X138538500Y-71720100D01*
X139298200Y-92710000D02*
X139298200Y-72479800D01*
X138896400Y-93111800D02*
X139298200Y-92710000D01*
X138896400Y-94448000D02*
X138896400Y-93111800D01*
X138548300Y-94796100D02*
X138896400Y-94448000D01*
X138548300Y-119303200D02*
X138548300Y-94796100D01*
X139670200Y-120425100D02*
X138548300Y-119303200D01*
X139670300Y-120425100D02*
X139670200Y-120425100D01*
X141281800Y-122036600D02*
X139670300Y-120425100D01*
X141281800Y-122815000D02*
X141281800Y-122036600D01*
X143739900Y-125273100D02*
X141281800Y-122815000D01*
X143739900Y-125452700D02*
X143739900Y-125273100D01*
X146050000Y-127762800D02*
X143739900Y-125452700D01*
X146050000Y-130810000D02*
X146050000Y-127762800D01*
X141485700Y-92710000D02*
X142240000Y-92710000D01*
X141098900Y-69721100D02*
X142240000Y-68580000D01*
X141098900Y-71740500D02*
X141098900Y-69721100D01*
X141485700Y-72127300D02*
X141098900Y-71740500D01*
X141485700Y-92710000D02*
X141485700Y-72127300D01*
X141485700Y-93464300D02*
X141485700Y-92710000D01*
X141103900Y-93846100D02*
X141485700Y-93464300D01*
X141103900Y-120302100D02*
X141103900Y-93846100D01*
X142382400Y-121580600D02*
X141103900Y-120302100D01*
X142382400Y-121795400D02*
X142382400Y-121580600D01*
X147078800Y-126491800D02*
X142382400Y-121795400D01*
X147078800Y-130568800D02*
X147078800Y-126491800D01*
X147320000Y-130810000D02*
X147078800Y-130568800D01*
X143589400Y-93900600D02*
X144780000Y-92710000D01*
X143589400Y-117393200D02*
X143589400Y-93900600D01*
X148590000Y-122393800D02*
X143589400Y-117393200D01*
X148590000Y-130810000D02*
X148590000Y-122393800D01*
X143632300Y-69727700D02*
X144780000Y-68580000D01*
X143632300Y-91562300D02*
X143632300Y-69727700D01*
X144780000Y-92710000D02*
X143632300Y-91562300D01*
X146129400Y-93900600D02*
X147320000Y-92710000D01*
X146129400Y-117561900D02*
X146129400Y-93900600D01*
X147851400Y-119283900D02*
X146129400Y-117561900D01*
X147851400Y-119962000D02*
X147851400Y-119283900D01*
X149860000Y-121970600D02*
X147851400Y-119962000D01*
X149860000Y-130810000D02*
X149860000Y-121970600D01*
X146172300Y-69727700D02*
X147320000Y-68580000D01*
X146172300Y-91562300D02*
X146172300Y-69727700D01*
X147320000Y-92710000D02*
X146172300Y-91562300D01*
X149860000Y-93231500D02*
X149860000Y-92710000D01*
X148669400Y-94422100D02*
X149860000Y-93231500D01*
X148669400Y-118219000D02*
X148669400Y-94422100D01*
X150377000Y-119926600D02*
X148669400Y-118219000D01*
X150377000Y-120638300D02*
X150377000Y-119926600D01*
X151130000Y-121391300D02*
X150377000Y-120638300D01*
X151130000Y-130810000D02*
X151130000Y-121391300D01*
X151046000Y-91524000D02*
X149860000Y-92710000D01*
X151046000Y-69766000D02*
X151046000Y-91524000D01*
X149860000Y-68580000D02*
X151046000Y-69766000D01*
X152318900Y-130728900D02*
X152400000Y-130810000D01*
X152318900Y-107106100D02*
X152318900Y-130728900D01*
X151209400Y-105996600D02*
X152318900Y-107106100D01*
X151209400Y-93900600D02*
X151209400Y-105996600D01*
X152400000Y-92710000D02*
X151209400Y-93900600D01*
X148697800Y-88391900D02*
X149123600Y-88817700D01*
X148697800Y-68124200D02*
X148697800Y-88391900D01*
X149438600Y-67383400D02*
X148697800Y-68124200D01*
X151203400Y-67383400D02*
X149438600Y-67383400D01*
X152400000Y-68580000D02*
X151203400Y-67383400D01*
X153670000Y-130810000D02*
X153670000Y-128934700D01*
X153588400Y-94061600D02*
X154940000Y-92710000D01*
X153588400Y-128450000D02*
X153588400Y-94061600D01*
X153670000Y-128531600D02*
X153588400Y-128450000D01*
X153670000Y-128934700D02*
X153670000Y-128531600D01*
X153786300Y-91556300D02*
X154940000Y-92710000D01*
X153786300Y-69733700D02*
X153786300Y-91556300D01*
X154940000Y-68580000D02*
X153786300Y-69733700D01*
X156210000Y-93980000D02*
X157480000Y-92710000D01*
X156210000Y-98868400D02*
X156210000Y-93980000D01*
X154939000Y-100139400D02*
X156210000Y-98868400D01*
X154939000Y-127974000D02*
X154939000Y-100139400D01*
X154857400Y-128055600D02*
X154939000Y-127974000D01*
X154857400Y-130727400D02*
X154857400Y-128055600D01*
X154940000Y-130810000D02*
X154857400Y-130727400D01*
X156312500Y-69747500D02*
X157480000Y-68580000D01*
X156312500Y-91542500D02*
X156312500Y-69747500D01*
X157480000Y-92710000D02*
X156312500Y-91542500D01*
X156210000Y-130810000D02*
X156210000Y-128934700D01*
X158750000Y-93980000D02*
X160020000Y-92710000D01*
X158750000Y-97978900D02*
X158750000Y-93980000D01*
X156125400Y-100603500D02*
X158750000Y-97978900D01*
X156125400Y-128448500D02*
X156125400Y-100603500D01*
X156210000Y-128533100D02*
X156125400Y-128448500D01*
X156210000Y-128934700D02*
X156210000Y-128533100D01*
X158852500Y-69747500D02*
X160020000Y-68580000D01*
X158852500Y-91542500D02*
X158852500Y-69747500D01*
X160020000Y-92710000D02*
X158852500Y-91542500D01*
X161392500Y-69747500D02*
X162560000Y-68580000D01*
X161392500Y-91072600D02*
X161392500Y-69747500D01*
X162560000Y-92240100D02*
X161392500Y-91072600D01*
X162560000Y-92710000D02*
X162560000Y-92240100D01*
X157391300Y-130721300D02*
X157480000Y-130810000D01*
X157391300Y-127895100D02*
X157391300Y-130721300D01*
X157476000Y-127810400D02*
X157391300Y-127895100D01*
X157476000Y-101780100D02*
X157476000Y-127810400D01*
X161290000Y-97966100D02*
X157476000Y-101780100D01*
X161290000Y-93980000D02*
X161290000Y-97966100D01*
X162560000Y-92710000D02*
X161290000Y-93980000D01*
X165100000Y-93615300D02*
X165100000Y-92710000D01*
X163695400Y-95019900D02*
X165100000Y-93615300D01*
X163695400Y-98816400D02*
X163695400Y-95019900D01*
X158750000Y-103761800D02*
X163695400Y-98816400D01*
X158750000Y-130810000D02*
X158750000Y-103761800D01*
X161290000Y-130810000D02*
X161290000Y-128934700D01*
X169012500Y-69747500D02*
X170180000Y-68580000D01*
X169012500Y-91542500D02*
X169012500Y-69747500D01*
X170180000Y-92710000D02*
X169012500Y-91542500D01*
X168910000Y-93980000D02*
X170180000Y-92710000D01*
X168910000Y-97786800D02*
X168910000Y-93980000D01*
X162061800Y-104635000D02*
X168910000Y-97786800D01*
X162061800Y-128162900D02*
X162061800Y-104635000D01*
X161290000Y-128934700D02*
X162061800Y-128162900D01*
X171529400Y-93900600D02*
X172720000Y-92710000D01*
X171529400Y-96850000D02*
X171529400Y-93900600D01*
X162612200Y-105767200D02*
X171529400Y-96850000D01*
X162612200Y-128882500D02*
X162612200Y-105767200D01*
X162560000Y-128934700D02*
X162612200Y-128882500D01*
X162560000Y-130810000D02*
X162560000Y-128934700D01*
X174092500Y-69747500D02*
X175260000Y-68580000D01*
X174092500Y-91542500D02*
X174092500Y-69747500D01*
X175260000Y-92710000D02*
X174092500Y-91542500D01*
X173990000Y-93980000D02*
X175260000Y-92710000D01*
X173990000Y-95618800D02*
X173990000Y-93980000D01*
X167876200Y-101732600D02*
X173990000Y-95618800D01*
X167778900Y-101732600D02*
X167876200Y-101732600D01*
X163830000Y-105681500D02*
X167778900Y-101732600D01*
X163830000Y-130810000D02*
X163830000Y-105681500D01*
X165100000Y-105189800D02*
X165100000Y-130810000D01*
X167926300Y-102363500D02*
X165100000Y-105189800D01*
X171289400Y-102363500D02*
X167926300Y-102363500D01*
X171725900Y-101927000D02*
X171289400Y-102363500D01*
X172757600Y-101927000D02*
X171725900Y-101927000D01*
X178985600Y-95699000D02*
X172757600Y-101927000D01*
X178985600Y-72305600D02*
X178985600Y-95699000D01*
X177800000Y-71120000D02*
X178985600Y-72305600D01*
D16*
G36*
X194183000Y-100277394D02*
X178980197Y-115480197D01*
X178952334Y-115522211D01*
X178943000Y-115570000D01*
X178943000Y-120523000D01*
X175260000Y-120523000D01*
X175210590Y-120533006D01*
X175170197Y-120560197D01*
X170090197Y-125640197D01*
X170062334Y-125682211D01*
X170053000Y-125730000D01*
X170053000Y-130683000D01*
X169874940Y-130683000D01*
X169874940Y-129310000D01*
X169830662Y-129074683D01*
X169691590Y-128858559D01*
X169479390Y-128713569D01*
X169227500Y-128662560D01*
X168592500Y-128662560D01*
X168450000Y-128689373D01*
X168450000Y-128345941D01*
X168574838Y-128045299D01*
X168575162Y-127673333D01*
X168506900Y-127508126D01*
X168506900Y-104874441D01*
X168631738Y-104573799D01*
X168632062Y-104201833D01*
X168490017Y-103858057D01*
X168227227Y-103594808D01*
X167953971Y-103481342D01*
X168261813Y-103173500D01*
X171289400Y-103173500D01*
X171599374Y-103111842D01*
X171862156Y-102936256D01*
X172061412Y-102737000D01*
X172757600Y-102737000D01*
X173067574Y-102675342D01*
X173330356Y-102499756D01*
X179473537Y-96356576D01*
X179548764Y-96431934D01*
X180061300Y-96644758D01*
X180297723Y-96644964D01*
X172790488Y-104152200D01*
X171503541Y-104152200D01*
X171202899Y-104027362D01*
X170830933Y-104027038D01*
X170487157Y-104169083D01*
X170223908Y-104431873D01*
X170081262Y-104775401D01*
X170080938Y-105147367D01*
X170222983Y-105491143D01*
X170485773Y-105754392D01*
X170829301Y-105897038D01*
X171201267Y-105897362D01*
X171504183Y-105772200D01*
X173126000Y-105772200D01*
X173435974Y-105710542D01*
X173698756Y-105534956D01*
X182605157Y-96628556D01*
X182780743Y-96365773D01*
X182842400Y-96055800D01*
X182842400Y-68600300D01*
X182802636Y-68400395D01*
X182780743Y-68290327D01*
X182605157Y-68027544D01*
X181445156Y-66867544D01*
X181359999Y-66810644D01*
X181182374Y-66691958D01*
X180872400Y-66630300D01*
X174794000Y-66630300D01*
X174484027Y-66691957D01*
X174221244Y-66867543D01*
X173600901Y-67487887D01*
X173511236Y-67398066D01*
X172998700Y-67185242D01*
X172443735Y-67184758D01*
X171930828Y-67396687D01*
X171538066Y-67788764D01*
X171450046Y-68000738D01*
X171363313Y-67790828D01*
X170971236Y-67398066D01*
X170458700Y-67185242D01*
X169903735Y-67184758D01*
X169390828Y-67396687D01*
X168998066Y-67788764D01*
X168916609Y-67984934D01*
X168860742Y-67850059D01*
X168618764Y-67780841D01*
X167819605Y-68580000D01*
X167833748Y-68594143D01*
X167654143Y-68773748D01*
X167640000Y-68759605D01*
X166840841Y-69558764D01*
X166910059Y-69800742D01*
X167054862Y-69852382D01*
X166850828Y-69936687D01*
X166458066Y-70328764D01*
X166370046Y-70540738D01*
X166283313Y-70330828D01*
X165891236Y-69938066D01*
X165679262Y-69850046D01*
X165889172Y-69763313D01*
X166281934Y-69371236D01*
X166363391Y-69175066D01*
X166419258Y-69309941D01*
X166661236Y-69379159D01*
X167460395Y-68580000D01*
X166661236Y-67780841D01*
X166419258Y-67850059D01*
X166367618Y-67994862D01*
X166283313Y-67790828D01*
X166094052Y-67601236D01*
X166840841Y-67601236D01*
X167640000Y-68400395D01*
X168439159Y-67601236D01*
X168369941Y-67359258D01*
X167847220Y-67172845D01*
X167292951Y-67200659D01*
X166910059Y-67359258D01*
X166840841Y-67601236D01*
X166094052Y-67601236D01*
X165891236Y-67398066D01*
X165378700Y-67185242D01*
X164823735Y-67184758D01*
X164310828Y-67396687D01*
X163918066Y-67788764D01*
X163830046Y-68000738D01*
X163743313Y-67790828D01*
X163351236Y-67398066D01*
X162838700Y-67185242D01*
X162283735Y-67184758D01*
X161770828Y-67396687D01*
X161378066Y-67788764D01*
X161290046Y-68000738D01*
X161203313Y-67790828D01*
X160811236Y-67398066D01*
X160298700Y-67185242D01*
X159743735Y-67184758D01*
X159230828Y-67396687D01*
X158838066Y-67788764D01*
X158750046Y-68000738D01*
X158663313Y-67790828D01*
X158271236Y-67398066D01*
X157758700Y-67185242D01*
X157203735Y-67184758D01*
X156690828Y-67396687D01*
X156298066Y-67788764D01*
X156210046Y-68000738D01*
X156123313Y-67790828D01*
X155731236Y-67398066D01*
X155218700Y-67185242D01*
X154663735Y-67184758D01*
X154150828Y-67396687D01*
X153758066Y-67788764D01*
X153670046Y-68000738D01*
X153583313Y-67790828D01*
X153191236Y-67398066D01*
X152678700Y-67185242D01*
X152150293Y-67184781D01*
X151776156Y-66810644D01*
X151513374Y-66635058D01*
X151203400Y-66573400D01*
X149438600Y-66573400D01*
X149128626Y-66635058D01*
X148997235Y-66722851D01*
X148865843Y-66810644D01*
X148194756Y-67481732D01*
X148111236Y-67398066D01*
X147598700Y-67185242D01*
X147043735Y-67184758D01*
X146530828Y-67396687D01*
X146138066Y-67788764D01*
X146050046Y-68000738D01*
X145963313Y-67790828D01*
X145571236Y-67398066D01*
X145058700Y-67185242D01*
X144503735Y-67184758D01*
X143990828Y-67396687D01*
X143598066Y-67788764D01*
X143510046Y-68000738D01*
X143423313Y-67790828D01*
X143031236Y-67398066D01*
X142518700Y-67185242D01*
X141963735Y-67184758D01*
X141450828Y-67396687D01*
X141058066Y-67788764D01*
X140970046Y-68000738D01*
X140883313Y-67790828D01*
X140491236Y-67398066D01*
X139978700Y-67185242D01*
X139423735Y-67184758D01*
X138910828Y-67396687D01*
X138518066Y-67788764D01*
X138430046Y-68000738D01*
X138343313Y-67790828D01*
X137951236Y-67398066D01*
X137438700Y-67185242D01*
X136883735Y-67184758D01*
X136370828Y-67396687D01*
X135978066Y-67788764D01*
X135890046Y-68000738D01*
X135803313Y-67790828D01*
X135411236Y-67398066D01*
X134898700Y-67185242D01*
X134343735Y-67184758D01*
X133830828Y-67396687D01*
X133438066Y-67788764D01*
X133350046Y-68000738D01*
X133263313Y-67790828D01*
X132871236Y-67398066D01*
X132358700Y-67185242D01*
X131803735Y-67184758D01*
X131290828Y-67396687D01*
X130898066Y-67788764D01*
X130685242Y-68301300D01*
X130684781Y-68829707D01*
X130371844Y-69142644D01*
X130196258Y-69405426D01*
X130134600Y-69715400D01*
X130134600Y-91574600D01*
X130196258Y-91884574D01*
X130338034Y-92096756D01*
X130371844Y-92147356D01*
X130685216Y-92460729D01*
X130684781Y-92959707D01*
X130371844Y-93272644D01*
X130196258Y-93535426D01*
X130134600Y-93845400D01*
X130134600Y-108053400D01*
X130196258Y-108363374D01*
X130294231Y-108510000D01*
X130371844Y-108626156D01*
X131843300Y-110097613D01*
X131843300Y-113883694D01*
X118237000Y-100277394D01*
X118237000Y-64897000D01*
X194183000Y-64897000D01*
X194183000Y-100277394D01*
X194183000Y-100277394D01*
G37*
X194183000Y-100277394D02*
X178980197Y-115480197D01*
X178952334Y-115522211D01*
X178943000Y-115570000D01*
X178943000Y-120523000D01*
X175260000Y-120523000D01*
X175210590Y-120533006D01*
X175170197Y-120560197D01*
X170090197Y-125640197D01*
X170062334Y-125682211D01*
X170053000Y-125730000D01*
X170053000Y-130683000D01*
X169874940Y-130683000D01*
X169874940Y-129310000D01*
X169830662Y-129074683D01*
X169691590Y-128858559D01*
X169479390Y-128713569D01*
X169227500Y-128662560D01*
X168592500Y-128662560D01*
X168450000Y-128689373D01*
X168450000Y-128345941D01*
X168574838Y-128045299D01*
X168575162Y-127673333D01*
X168506900Y-127508126D01*
X168506900Y-104874441D01*
X168631738Y-104573799D01*
X168632062Y-104201833D01*
X168490017Y-103858057D01*
X168227227Y-103594808D01*
X167953971Y-103481342D01*
X168261813Y-103173500D01*
X171289400Y-103173500D01*
X171599374Y-103111842D01*
X171862156Y-102936256D01*
X172061412Y-102737000D01*
X172757600Y-102737000D01*
X173067574Y-102675342D01*
X173330356Y-102499756D01*
X179473537Y-96356576D01*
X179548764Y-96431934D01*
X180061300Y-96644758D01*
X180297723Y-96644964D01*
X172790488Y-104152200D01*
X171503541Y-104152200D01*
X171202899Y-104027362D01*
X170830933Y-104027038D01*
X170487157Y-104169083D01*
X170223908Y-104431873D01*
X170081262Y-104775401D01*
X170080938Y-105147367D01*
X170222983Y-105491143D01*
X170485773Y-105754392D01*
X170829301Y-105897038D01*
X171201267Y-105897362D01*
X171504183Y-105772200D01*
X173126000Y-105772200D01*
X173435974Y-105710542D01*
X173698756Y-105534956D01*
X182605157Y-96628556D01*
X182780743Y-96365773D01*
X182842400Y-96055800D01*
X182842400Y-68600300D01*
X182802636Y-68400395D01*
X182780743Y-68290327D01*
X182605157Y-68027544D01*
X181445156Y-66867544D01*
X181359999Y-66810644D01*
X181182374Y-66691958D01*
X180872400Y-66630300D01*
X174794000Y-66630300D01*
X174484027Y-66691957D01*
X174221244Y-66867543D01*
X173600901Y-67487887D01*
X173511236Y-67398066D01*
X172998700Y-67185242D01*
X172443735Y-67184758D01*
X171930828Y-67396687D01*
X171538066Y-67788764D01*
X171450046Y-68000738D01*
X171363313Y-67790828D01*
X170971236Y-67398066D01*
X170458700Y-67185242D01*
X169903735Y-67184758D01*
X169390828Y-67396687D01*
X168998066Y-67788764D01*
X168916609Y-67984934D01*
X168860742Y-67850059D01*
X168618764Y-67780841D01*
X167819605Y-68580000D01*
X167833748Y-68594143D01*
X167654143Y-68773748D01*
X167640000Y-68759605D01*
X166840841Y-69558764D01*
X166910059Y-69800742D01*
X167054862Y-69852382D01*
X166850828Y-69936687D01*
X166458066Y-70328764D01*
X166370046Y-70540738D01*
X166283313Y-70330828D01*
X165891236Y-69938066D01*
X165679262Y-69850046D01*
X165889172Y-69763313D01*
X166281934Y-69371236D01*
X166363391Y-69175066D01*
X166419258Y-69309941D01*
X166661236Y-69379159D01*
X167460395Y-68580000D01*
X166661236Y-67780841D01*
X166419258Y-67850059D01*
X166367618Y-67994862D01*
X166283313Y-67790828D01*
X166094052Y-67601236D01*
X166840841Y-67601236D01*
X167640000Y-68400395D01*
X168439159Y-67601236D01*
X168369941Y-67359258D01*
X167847220Y-67172845D01*
X167292951Y-67200659D01*
X166910059Y-67359258D01*
X166840841Y-67601236D01*
X166094052Y-67601236D01*
X165891236Y-67398066D01*
X165378700Y-67185242D01*
X164823735Y-67184758D01*
X164310828Y-67396687D01*
X163918066Y-67788764D01*
X163830046Y-68000738D01*
X163743313Y-67790828D01*
X163351236Y-67398066D01*
X162838700Y-67185242D01*
X162283735Y-67184758D01*
X161770828Y-67396687D01*
X161378066Y-67788764D01*
X161290046Y-68000738D01*
X161203313Y-67790828D01*
X160811236Y-67398066D01*
X160298700Y-67185242D01*
X159743735Y-67184758D01*
X159230828Y-67396687D01*
X158838066Y-67788764D01*
X158750046Y-68000738D01*
X158663313Y-67790828D01*
X158271236Y-67398066D01*
X157758700Y-67185242D01*
X157203735Y-67184758D01*
X156690828Y-67396687D01*
X156298066Y-67788764D01*
X156210046Y-68000738D01*
X156123313Y-67790828D01*
X155731236Y-67398066D01*
X155218700Y-67185242D01*
X154663735Y-67184758D01*
X154150828Y-67396687D01*
X153758066Y-67788764D01*
X153670046Y-68000738D01*
X153583313Y-67790828D01*
X153191236Y-67398066D01*
X152678700Y-67185242D01*
X152150293Y-67184781D01*
X151776156Y-66810644D01*
X151513374Y-66635058D01*
X151203400Y-66573400D01*
X149438600Y-66573400D01*
X149128626Y-66635058D01*
X148997235Y-66722851D01*
X148865843Y-66810644D01*
X148194756Y-67481732D01*
X148111236Y-67398066D01*
X147598700Y-67185242D01*
X147043735Y-67184758D01*
X146530828Y-67396687D01*
X146138066Y-67788764D01*
X146050046Y-68000738D01*
X145963313Y-67790828D01*
X145571236Y-67398066D01*
X145058700Y-67185242D01*
X144503735Y-67184758D01*
X143990828Y-67396687D01*
X143598066Y-67788764D01*
X143510046Y-68000738D01*
X143423313Y-67790828D01*
X143031236Y-67398066D01*
X142518700Y-67185242D01*
X141963735Y-67184758D01*
X141450828Y-67396687D01*
X141058066Y-67788764D01*
X140970046Y-68000738D01*
X140883313Y-67790828D01*
X140491236Y-67398066D01*
X139978700Y-67185242D01*
X139423735Y-67184758D01*
X138910828Y-67396687D01*
X138518066Y-67788764D01*
X138430046Y-68000738D01*
X138343313Y-67790828D01*
X137951236Y-67398066D01*
X137438700Y-67185242D01*
X136883735Y-67184758D01*
X136370828Y-67396687D01*
X135978066Y-67788764D01*
X135890046Y-68000738D01*
X135803313Y-67790828D01*
X135411236Y-67398066D01*
X134898700Y-67185242D01*
X134343735Y-67184758D01*
X133830828Y-67396687D01*
X133438066Y-67788764D01*
X133350046Y-68000738D01*
X133263313Y-67790828D01*
X132871236Y-67398066D01*
X132358700Y-67185242D01*
X131803735Y-67184758D01*
X131290828Y-67396687D01*
X130898066Y-67788764D01*
X130685242Y-68301300D01*
X130684781Y-68829707D01*
X130371844Y-69142644D01*
X130196258Y-69405426D01*
X130134600Y-69715400D01*
X130134600Y-91574600D01*
X130196258Y-91884574D01*
X130338034Y-92096756D01*
X130371844Y-92147356D01*
X130685216Y-92460729D01*
X130684781Y-92959707D01*
X130371844Y-93272644D01*
X130196258Y-93535426D01*
X130134600Y-93845400D01*
X130134600Y-108053400D01*
X130196258Y-108363374D01*
X130294231Y-108510000D01*
X130371844Y-108626156D01*
X131843300Y-110097613D01*
X131843300Y-113883694D01*
X118237000Y-100277394D01*
X118237000Y-64897000D01*
X194183000Y-64897000D01*
X194183000Y-100277394D01*
G36*
X166886900Y-104875083D02*
X166886900Y-127289149D01*
X166847808Y-127328173D01*
X166705162Y-127671701D01*
X166704838Y-128043667D01*
X166830000Y-128346583D01*
X166830000Y-128681707D01*
X166813809Y-128675000D01*
X166655750Y-128675000D01*
X166497000Y-128833750D01*
X166497000Y-130683000D01*
X166243000Y-130683000D01*
X166243000Y-128833750D01*
X166084250Y-128675000D01*
X165926191Y-128675000D01*
X165910000Y-128681707D01*
X165910000Y-105525312D01*
X166791388Y-104643925D01*
X166886900Y-104875083D01*
X166886900Y-104875083D01*
G37*
X166886900Y-104875083D02*
X166886900Y-127289149D01*
X166847808Y-127328173D01*
X166705162Y-127671701D01*
X166704838Y-128043667D01*
X166830000Y-128346583D01*
X166830000Y-128681707D01*
X166813809Y-128675000D01*
X166655750Y-128675000D01*
X166497000Y-128833750D01*
X166497000Y-130683000D01*
X166243000Y-130683000D01*
X166243000Y-128833750D01*
X166084250Y-128675000D01*
X165926191Y-128675000D01*
X165910000Y-128681707D01*
X165910000Y-105525312D01*
X166791388Y-104643925D01*
X166886900Y-104875083D01*
G36*
X166456687Y-96039172D02*
X166830000Y-96413137D01*
X166830000Y-97777787D01*
X160938744Y-103669044D01*
X160763158Y-103931826D01*
X160701500Y-104241800D01*
X160701500Y-127066001D01*
X160670600Y-126991217D01*
X160670600Y-103858912D01*
X165672757Y-98856756D01*
X165848343Y-98593973D01*
X165910000Y-98284000D01*
X165910000Y-96412521D01*
X166281934Y-96041236D01*
X166369954Y-95829262D01*
X166456687Y-96039172D01*
X166456687Y-96039172D01*
G37*
X166456687Y-96039172D02*
X166830000Y-96413137D01*
X166830000Y-97777787D01*
X160938744Y-103669044D01*
X160763158Y-103931826D01*
X160701500Y-104241800D01*
X160701500Y-127066001D01*
X160670600Y-126991217D01*
X160670600Y-103858912D01*
X165672757Y-98856756D01*
X165848343Y-98593973D01*
X165910000Y-98284000D01*
X165910000Y-96412521D01*
X166281934Y-96041236D01*
X166369954Y-95829262D01*
X166456687Y-96039172D01*
G36*
X167833748Y-92695858D02*
X167819605Y-92710000D01*
X167833748Y-92724143D01*
X167654143Y-92903748D01*
X167640000Y-92889605D01*
X167625858Y-92903748D01*
X167446253Y-92724143D01*
X167460395Y-92710000D01*
X167446253Y-92695858D01*
X167625858Y-92516253D01*
X167640000Y-92530395D01*
X167654143Y-92516253D01*
X167833748Y-92695858D01*
X167833748Y-92695858D01*
G37*
X167833748Y-92695858D02*
X167819605Y-92710000D01*
X167833748Y-92724143D01*
X167654143Y-92903748D01*
X167640000Y-92889605D01*
X167625858Y-92903748D01*
X167446253Y-92724143D01*
X167460395Y-92710000D01*
X167446253Y-92695858D01*
X167625858Y-92516253D01*
X167640000Y-92530395D01*
X167654143Y-92516253D01*
X167833748Y-92695858D01*
G36*
X180533748Y-92695858D02*
X180519605Y-92710000D01*
X180533748Y-92724143D01*
X180354143Y-92903748D01*
X180340000Y-92889605D01*
X180325858Y-92903748D01*
X180146253Y-92724143D01*
X180160395Y-92710000D01*
X180146253Y-92695858D01*
X180325858Y-92516253D01*
X180340000Y-92530395D01*
X180354143Y-92516253D01*
X180533748Y-92695858D01*
X180533748Y-92695858D01*
G37*
X180533748Y-92695858D02*
X180519605Y-92710000D01*
X180533748Y-92724143D01*
X180354143Y-92903748D01*
X180340000Y-92889605D01*
X180325858Y-92903748D01*
X180146253Y-92724143D01*
X180160395Y-92710000D01*
X180146253Y-92695858D01*
X180325858Y-92516253D01*
X180340000Y-92530395D01*
X180354143Y-92516253D01*
X180533748Y-92695858D01*
G36*
X180533748Y-68565858D02*
X180519605Y-68580000D01*
X180533748Y-68594143D01*
X180354143Y-68773748D01*
X180340000Y-68759605D01*
X179540841Y-69558764D01*
X179610059Y-69800742D01*
X179754862Y-69852382D01*
X179550828Y-69936687D01*
X179158066Y-70328764D01*
X179070046Y-70540738D01*
X178983313Y-70330828D01*
X178591236Y-69938066D01*
X178379262Y-69850046D01*
X178589172Y-69763313D01*
X178981934Y-69371236D01*
X179063391Y-69175066D01*
X179119258Y-69309941D01*
X179361236Y-69379159D01*
X180160395Y-68580000D01*
X180146253Y-68565858D01*
X180325858Y-68386253D01*
X180340000Y-68400395D01*
X180354143Y-68386253D01*
X180533748Y-68565858D01*
X180533748Y-68565858D01*
G37*
X180533748Y-68565858D02*
X180519605Y-68580000D01*
X180533748Y-68594143D01*
X180354143Y-68773748D01*
X180340000Y-68759605D01*
X179540841Y-69558764D01*
X179610059Y-69800742D01*
X179754862Y-69852382D01*
X179550828Y-69936687D01*
X179158066Y-70328764D01*
X179070046Y-70540738D01*
X178983313Y-70330828D01*
X178591236Y-69938066D01*
X178379262Y-69850046D01*
X178589172Y-69763313D01*
X178981934Y-69371236D01*
X179063391Y-69175066D01*
X179119258Y-69309941D01*
X179361236Y-69379159D01*
X180160395Y-68580000D01*
X180146253Y-68565858D01*
X180325858Y-68386253D01*
X180340000Y-68400395D01*
X180354143Y-68386253D01*
X180533748Y-68565858D01*
M02*
