G04 #@! TF.FileFunction,Legend,Top*
%FSLAX46Y46*%
G04 Gerber Fmt 4.6, Leading zero omitted, Abs format (unit mm)*
G04 Created by KiCad (PCBNEW 4.0.2+dfsg1-stable) date Sat 02 Mar 2019 16:31:19 CET*
%MOMM*%
G01*
G04 APERTURE LIST*
%ADD10C,0.100000*%
%ADD11C,0.200000*%
%ADD12C,0.500000*%
%ADD13C,0.300000*%
%ADD14C,0.010000*%
%ADD15C,0.150000*%
%ADD16C,0.120000*%
G04 APERTURE END LIST*
D10*
D11*
X117434110Y-110945921D02*
X117999795Y-110380235D01*
X117461047Y-110918983D02*
X117380235Y-110892046D01*
X117272486Y-110784297D01*
X117245548Y-110703484D01*
X117245548Y-110649609D01*
X117272486Y-110568797D01*
X117434110Y-110407172D01*
X117514922Y-110380235D01*
X117568797Y-110380235D01*
X117649610Y-110407172D01*
X117757359Y-110514922D01*
X117784296Y-110595735D01*
X117945921Y-111403857D02*
X117865109Y-111376920D01*
X117757359Y-111269170D01*
X117730421Y-111188358D01*
X117757359Y-111107545D01*
X117972859Y-110892046D01*
X118053670Y-110865109D01*
X118134483Y-110892046D01*
X118242233Y-110999796D01*
X118269170Y-111080608D01*
X118242232Y-111161420D01*
X118188357Y-111215295D01*
X117865109Y-110999796D01*
X118188357Y-111646294D02*
X118215294Y-111727105D01*
X118323044Y-111834855D01*
X118403856Y-111861793D01*
X118484669Y-111834855D01*
X118511606Y-111807918D01*
X118538544Y-111727105D01*
X118511606Y-111646293D01*
X118430794Y-111565481D01*
X118403856Y-111484669D01*
X118430794Y-111403856D01*
X118457732Y-111376919D01*
X118538543Y-111349982D01*
X118619356Y-111376919D01*
X118700168Y-111457731D01*
X118727105Y-111538544D01*
X118646293Y-112158104D02*
X119023417Y-111780980D01*
X119211978Y-111592418D02*
X119158104Y-111592418D01*
X119158104Y-111646293D01*
X119211978Y-111646293D01*
X119211978Y-111592418D01*
X119158104Y-111646293D01*
X119535227Y-112292790D02*
X119077291Y-112750726D01*
X118996479Y-112777664D01*
X118942605Y-112777664D01*
X118861792Y-112750726D01*
X118780981Y-112669914D01*
X118754043Y-112589102D01*
X119185040Y-112642977D02*
X119104229Y-112616040D01*
X118996479Y-112508290D01*
X118969541Y-112427478D01*
X118969542Y-112373602D01*
X118996479Y-112292791D01*
X119158104Y-112131166D01*
X119238916Y-112104229D01*
X119292790Y-112104229D01*
X119373603Y-112131166D01*
X119481353Y-112238916D01*
X119508289Y-112319728D01*
X119804602Y-112562165D02*
X119427478Y-112939289D01*
X119750727Y-112616040D02*
X119804601Y-112616040D01*
X119885414Y-112642977D01*
X119966227Y-112723789D01*
X119993163Y-112804602D01*
X119966226Y-112885413D01*
X119669914Y-113181725D01*
X120181725Y-113639662D02*
X120100913Y-113612724D01*
X119993164Y-113504975D01*
X119966226Y-113424162D01*
X119993164Y-113343350D01*
X120208663Y-113127851D01*
X120289475Y-113100913D01*
X120370288Y-113127851D01*
X120478038Y-113235600D01*
X120504974Y-113316413D01*
X120478037Y-113397224D01*
X120424162Y-113451100D01*
X120100913Y-113235600D01*
X120666598Y-114178409D02*
X121232284Y-113612724D01*
X120693535Y-114151472D02*
X120612724Y-114124535D01*
X120504974Y-114016785D01*
X120478036Y-113935973D01*
X120478037Y-113882097D01*
X120504974Y-113801286D01*
X120666599Y-113639661D01*
X120747411Y-113612724D01*
X120801285Y-113612724D01*
X120882098Y-113639661D01*
X120989848Y-113747411D01*
X121016784Y-113828223D01*
X121366971Y-114878782D02*
X121932657Y-114313097D01*
X121717157Y-114528596D02*
X121797970Y-114555533D01*
X121905720Y-114663283D01*
X121932657Y-114744095D01*
X121932657Y-114797970D01*
X121905720Y-114878782D01*
X121744095Y-115040407D01*
X121663283Y-115067343D01*
X121609408Y-115067344D01*
X121528596Y-115040407D01*
X121420846Y-114932657D01*
X121393908Y-114851845D01*
X122202032Y-114959595D02*
X121959595Y-115471405D01*
X122471405Y-115228968D02*
X121959595Y-115471405D01*
X121771032Y-115552217D01*
X121717158Y-115552217D01*
X121636346Y-115525280D01*
X123064028Y-116575839D02*
X123144841Y-116117903D01*
X122740779Y-116252590D02*
X123306465Y-115686905D01*
X123521964Y-115902404D01*
X123548902Y-115983216D01*
X123548902Y-116037091D01*
X123521964Y-116117903D01*
X123441152Y-116198715D01*
X123360340Y-116225653D01*
X123306465Y-116225653D01*
X123225653Y-116198715D01*
X123010154Y-115983216D01*
X123360340Y-116764400D02*
X123360339Y-116818276D01*
X123306465Y-116818276D01*
X123306465Y-116764401D01*
X123360340Y-116764400D01*
X123306465Y-116818276D01*
X124410898Y-116845213D02*
X124383960Y-116764400D01*
X124303149Y-116683589D01*
X124195399Y-116629714D01*
X124087649Y-116629713D01*
X124006837Y-116656651D01*
X123872150Y-116737463D01*
X123791338Y-116818276D01*
X123710525Y-116952962D01*
X123683588Y-117033774D01*
X123683588Y-117141525D01*
X123737463Y-117249274D01*
X123791338Y-117303149D01*
X123899087Y-117357024D01*
X123952962Y-117357023D01*
X124141524Y-117168462D01*
X124033774Y-117060712D01*
X124195399Y-117599460D02*
X124195398Y-117653335D01*
X124141524Y-117653335D01*
X124141524Y-117599460D01*
X124195399Y-117599460D01*
X124141524Y-117653335D01*
X124895771Y-117383960D02*
X124949646Y-117383960D01*
X125030458Y-117410898D01*
X125165145Y-117545585D01*
X125192082Y-117626397D01*
X125192083Y-117680272D01*
X125165145Y-117761084D01*
X125111271Y-117814959D01*
X125003521Y-117868834D01*
X124357023Y-117868834D01*
X124707209Y-118219020D01*
X125623081Y-118003521D02*
X125676956Y-118057396D01*
X125703893Y-118138208D01*
X125703893Y-118192082D01*
X125676956Y-118272895D01*
X125596144Y-118407582D01*
X125461457Y-118542269D01*
X125326770Y-118623082D01*
X125245957Y-118650018D01*
X125192082Y-118650019D01*
X125111271Y-118623082D01*
X125057395Y-118569206D01*
X125030458Y-118488395D01*
X125030458Y-118434519D01*
X125057395Y-118353707D01*
X125138208Y-118219020D01*
X125272895Y-118084333D01*
X125407582Y-118003521D01*
X125488394Y-117976583D01*
X125542269Y-117976584D01*
X125623081Y-118003521D01*
X125784706Y-119296517D02*
X125461457Y-118973268D01*
X125623081Y-119134892D02*
X126188766Y-118569206D01*
X126054080Y-118596144D01*
X125946330Y-118596144D01*
X125865518Y-118569206D01*
X126054079Y-119565890D02*
X126161829Y-119673640D01*
X126242641Y-119700578D01*
X126296517Y-119700577D01*
X126431203Y-119673641D01*
X126565890Y-119592828D01*
X126781390Y-119377329D01*
X126808328Y-119296517D01*
X126808327Y-119242641D01*
X126781390Y-119161830D01*
X126673640Y-119054080D01*
X126592828Y-119027142D01*
X126538953Y-119027142D01*
X126458141Y-119054080D01*
X126323454Y-119188767D01*
X126296517Y-119269579D01*
X126296516Y-119323454D01*
X126323454Y-119404266D01*
X126431203Y-119512016D01*
X126512015Y-119538953D01*
X126565891Y-119538953D01*
X126646703Y-119512016D01*
D12*
X130285715Y-126904762D02*
X128785715Y-125952381D01*
X127714287Y-126904762D02*
X127714287Y-124904762D01*
X129428572Y-124904762D01*
X129857144Y-125000000D01*
X130071429Y-125095238D01*
X130285715Y-125285714D01*
X130285715Y-125571429D01*
X130071429Y-125761905D01*
X129857144Y-125857143D01*
X129428572Y-125952381D01*
X127714287Y-125952381D01*
X132214287Y-125857143D02*
X133714287Y-125857143D01*
X134357144Y-126904762D02*
X132214287Y-126904762D01*
X132214287Y-124904762D01*
X134357144Y-124904762D01*
X135642858Y-124904762D02*
X138214287Y-124904762D01*
X136928573Y-126904762D02*
X136928573Y-124904762D01*
X142285715Y-126904762D02*
X140785715Y-125952381D01*
X139714287Y-126904762D02*
X139714287Y-124904762D01*
X141428572Y-124904762D01*
X141857144Y-125000000D01*
X142071429Y-125095238D01*
X142285715Y-125285714D01*
X142285715Y-125571429D01*
X142071429Y-125761905D01*
X141857144Y-125857143D01*
X141428572Y-125952381D01*
X139714287Y-125952381D01*
X145071429Y-124904762D02*
X145928572Y-124904762D01*
X146357144Y-125000000D01*
X146785715Y-125190476D01*
X147000001Y-125571429D01*
X147000001Y-126238095D01*
X146785715Y-126619048D01*
X146357144Y-126809524D01*
X145928572Y-126904762D01*
X145071429Y-126904762D01*
X144642858Y-126809524D01*
X144214287Y-126619048D01*
X144000001Y-126238095D01*
X144000001Y-125571429D01*
X144214287Y-125190476D01*
X144642858Y-125000000D01*
X145071429Y-124904762D01*
X150428573Y-125857143D02*
X151071430Y-125952381D01*
X151285715Y-126047619D01*
X151500001Y-126238095D01*
X151500001Y-126523810D01*
X151285715Y-126714286D01*
X151071430Y-126809524D01*
X150642858Y-126904762D01*
X148928573Y-126904762D01*
X148928573Y-124904762D01*
X150428573Y-124904762D01*
X150857144Y-125000000D01*
X151071430Y-125095238D01*
X151285715Y-125285714D01*
X151285715Y-125476190D01*
X151071430Y-125666667D01*
X150857144Y-125761905D01*
X150428573Y-125857143D01*
X148928573Y-125857143D01*
X153428573Y-126904762D02*
X153428573Y-124904762D01*
X154928572Y-124904762D02*
X157500001Y-124904762D01*
X156214287Y-126904762D02*
X156214287Y-124904762D01*
X164571429Y-126904762D02*
X162428572Y-126904762D01*
X162428572Y-124904762D01*
X165857143Y-126333333D02*
X168000000Y-126333333D01*
X165428571Y-126904762D02*
X166928571Y-124904762D01*
X168428571Y-126904762D01*
X171428572Y-125857143D02*
X172071429Y-125952381D01*
X172285714Y-126047619D01*
X172500000Y-126238095D01*
X172500000Y-126523810D01*
X172285714Y-126714286D01*
X172071429Y-126809524D01*
X171642857Y-126904762D01*
X169928572Y-126904762D01*
X169928572Y-124904762D01*
X171428572Y-124904762D01*
X171857143Y-125000000D01*
X172071429Y-125095238D01*
X172285714Y-125285714D01*
X172285714Y-125476190D01*
X172071429Y-125666667D01*
X171857143Y-125761905D01*
X171428572Y-125857143D01*
X169928572Y-125857143D01*
D13*
X122892857Y-62678571D02*
X122892857Y-61178571D01*
X123607143Y-62678571D02*
X123607143Y-61178571D01*
X124464286Y-62678571D01*
X124464286Y-61178571D01*
X124964286Y-61178571D02*
X125821429Y-61178571D01*
X125392858Y-62678571D02*
X125392858Y-61178571D01*
X126321429Y-61892857D02*
X126821429Y-61892857D01*
X127035715Y-62678571D02*
X126321429Y-62678571D01*
X126321429Y-61178571D01*
X127035715Y-61178571D01*
X128535715Y-62678571D02*
X128035715Y-61964286D01*
X127678572Y-62678571D02*
X127678572Y-61178571D01*
X128250000Y-61178571D01*
X128392858Y-61250000D01*
X128464286Y-61321429D01*
X128535715Y-61464286D01*
X128535715Y-61678571D01*
X128464286Y-61821429D01*
X128392858Y-61892857D01*
X128250000Y-61964286D01*
X127678572Y-61964286D01*
X129178572Y-62678571D02*
X129178572Y-61178571D01*
X130035715Y-62678571D01*
X130035715Y-61178571D01*
X130678572Y-62250000D02*
X131392858Y-62250000D01*
X130535715Y-62678571D02*
X131035715Y-61178571D01*
X131535715Y-62678571D01*
X132750001Y-62678571D02*
X132035715Y-62678571D01*
X132035715Y-61178571D01*
X135035715Y-61678571D02*
X135035715Y-62678571D01*
X134678572Y-61107143D02*
X134321429Y-62178571D01*
X135250001Y-62178571D01*
X135821429Y-62678571D02*
X135821429Y-61178571D01*
X136535715Y-62678571D02*
X136535715Y-61178571D01*
X136892858Y-61178571D01*
X137107143Y-61250000D01*
X137250001Y-61392857D01*
X137321429Y-61535714D01*
X137392858Y-61821429D01*
X137392858Y-62035714D01*
X137321429Y-62321429D01*
X137250001Y-62464286D01*
X137107143Y-62607143D01*
X136892858Y-62678571D01*
X136535715Y-62678571D01*
X138035715Y-61892857D02*
X138535715Y-61892857D01*
X138750001Y-62678571D02*
X138035715Y-62678571D01*
X138035715Y-61178571D01*
X138750001Y-61178571D01*
X139321429Y-62250000D02*
X140035715Y-62250000D01*
X139178572Y-62678571D02*
X139678572Y-61178571D01*
X140178572Y-62678571D01*
X141321429Y-62678571D02*
X141321429Y-61178571D01*
X141321429Y-62607143D02*
X141178572Y-62678571D01*
X140892858Y-62678571D01*
X140750000Y-62607143D01*
X140678572Y-62535714D01*
X140607143Y-62392857D01*
X140607143Y-61964286D01*
X140678572Y-61821429D01*
X140750000Y-61750000D01*
X140892858Y-61678571D01*
X141178572Y-61678571D01*
X141321429Y-61750000D01*
X142678572Y-62678571D02*
X142678572Y-61892857D01*
X142607143Y-61750000D01*
X142464286Y-61678571D01*
X142178572Y-61678571D01*
X142035715Y-61750000D01*
X142678572Y-62607143D02*
X142535715Y-62678571D01*
X142178572Y-62678571D01*
X142035715Y-62607143D01*
X141964286Y-62464286D01*
X141964286Y-62321429D01*
X142035715Y-62178571D01*
X142178572Y-62107143D01*
X142535715Y-62107143D01*
X142678572Y-62035714D01*
X143392858Y-61678571D02*
X143392858Y-63178571D01*
X143392858Y-61750000D02*
X143535715Y-61678571D01*
X143821429Y-61678571D01*
X143964286Y-61750000D01*
X144035715Y-61821429D01*
X144107144Y-61964286D01*
X144107144Y-62392857D01*
X144035715Y-62535714D01*
X143964286Y-62607143D01*
X143821429Y-62678571D01*
X143535715Y-62678571D01*
X143392858Y-62607143D01*
X144535715Y-61678571D02*
X145107144Y-61678571D01*
X144750001Y-61178571D02*
X144750001Y-62464286D01*
X144821429Y-62607143D01*
X144964287Y-62678571D01*
X145107144Y-62678571D01*
X146178572Y-62607143D02*
X146035715Y-62678571D01*
X145750001Y-62678571D01*
X145607144Y-62607143D01*
X145535715Y-62464286D01*
X145535715Y-61892857D01*
X145607144Y-61750000D01*
X145750001Y-61678571D01*
X146035715Y-61678571D01*
X146178572Y-61750000D01*
X146250001Y-61892857D01*
X146250001Y-62035714D01*
X145535715Y-62178571D01*
X146892858Y-62678571D02*
X146892858Y-61678571D01*
X146892858Y-61964286D02*
X146964286Y-61821429D01*
X147035715Y-61750000D01*
X147178572Y-61678571D01*
X147321429Y-61678571D01*
D11*
X129500000Y-100600000D02*
X129400000Y-100600000D01*
X129600000Y-100700000D02*
X129500000Y-100600000D01*
X129500000Y-100500000D02*
X129100000Y-100500000D01*
X129100000Y-100100000D02*
X129500000Y-100500000D01*
X129100000Y-100300000D02*
X129100000Y-100100000D01*
X128800000Y-100300000D02*
X129100000Y-100300000D01*
X128800000Y-100700000D02*
X128800000Y-100300000D01*
X129800000Y-100700000D02*
X128800000Y-100700000D01*
X129000000Y-99900000D02*
X129800000Y-100700000D01*
X129100000Y-100300000D02*
X128900000Y-100500000D01*
X129400000Y-100600000D02*
X129100000Y-100300000D01*
X128500000Y-100600000D02*
X129400000Y-100600000D01*
X129100000Y-100000000D02*
X128500000Y-100600000D01*
X129800000Y-100700000D02*
X129100000Y-100000000D01*
X128200000Y-100700000D02*
X129800000Y-100700000D01*
X129000000Y-99900000D02*
X128200000Y-100700000D01*
D14*
G36*
X139152554Y-106974541D02*
X139678756Y-106974613D01*
X139923697Y-106974623D01*
X143844301Y-106974623D01*
X143844301Y-107205734D01*
X143868968Y-107486976D01*
X143943416Y-107746359D01*
X144068314Y-107985424D01*
X144244330Y-108205714D01*
X144303882Y-108265210D01*
X144518105Y-108433971D01*
X144754310Y-108557052D01*
X145005483Y-108634510D01*
X145264607Y-108666399D01*
X145524667Y-108652776D01*
X145778647Y-108593697D01*
X146019531Y-108489217D01*
X146240304Y-108339393D01*
X146339457Y-108249001D01*
X146524227Y-108027376D01*
X146659716Y-107783661D01*
X146744744Y-107520643D01*
X146778128Y-107241106D01*
X146778572Y-107213606D01*
X146780322Y-106974632D01*
X146885355Y-106974628D01*
X146978530Y-106987273D01*
X147063644Y-107018040D01*
X147069269Y-107021219D01*
X147088492Y-107031194D01*
X147106145Y-107038962D01*
X147122292Y-107046787D01*
X147136995Y-107056930D01*
X147150319Y-107071655D01*
X147162328Y-107093225D01*
X147173085Y-107123901D01*
X147182654Y-107165947D01*
X147191099Y-107221626D01*
X147198484Y-107293199D01*
X147204873Y-107382930D01*
X147210329Y-107493082D01*
X147214916Y-107625916D01*
X147218698Y-107783696D01*
X147221740Y-107968684D01*
X147224103Y-108183144D01*
X147225853Y-108429337D01*
X147227053Y-108709527D01*
X147227768Y-109025975D01*
X147228060Y-109380946D01*
X147227993Y-109776700D01*
X147227632Y-110215502D01*
X147227040Y-110699614D01*
X147226281Y-111231298D01*
X147225419Y-111812817D01*
X147224518Y-112446433D01*
X147224413Y-112523629D01*
X147223605Y-113161287D01*
X147222919Y-113746582D01*
X147222283Y-114281778D01*
X147221624Y-114769136D01*
X147220869Y-115210917D01*
X147219947Y-115609382D01*
X147218784Y-115966795D01*
X147217307Y-116285415D01*
X147215445Y-116567506D01*
X147213124Y-116815328D01*
X147210271Y-117031143D01*
X147206815Y-117217213D01*
X147202682Y-117375800D01*
X147197800Y-117509164D01*
X147192096Y-117619569D01*
X147185498Y-117709275D01*
X147177932Y-117780544D01*
X147169327Y-117835638D01*
X147159610Y-117876818D01*
X147148707Y-117906346D01*
X147136547Y-117926484D01*
X147123057Y-117939493D01*
X147108163Y-117947636D01*
X147091794Y-117953173D01*
X147073877Y-117958366D01*
X147054339Y-117965477D01*
X147049566Y-117967642D01*
X147034566Y-117972506D01*
X147009459Y-117976976D01*
X146972054Y-117981066D01*
X146920158Y-117984793D01*
X146851580Y-117988173D01*
X146764127Y-117991221D01*
X146655606Y-117993954D01*
X146523826Y-117996387D01*
X146366594Y-117998537D01*
X146181719Y-118000419D01*
X145967007Y-118002049D01*
X145720266Y-118003443D01*
X145439306Y-118004617D01*
X145121932Y-118005587D01*
X144765953Y-118006369D01*
X144369178Y-118006979D01*
X143929412Y-118007432D01*
X143444465Y-118007745D01*
X142912144Y-118007934D01*
X142330257Y-118008013D01*
X141696611Y-118008000D01*
X141491356Y-118007980D01*
X140843653Y-118007876D01*
X140248356Y-118007706D01*
X139703245Y-118007453D01*
X139206103Y-118007098D01*
X138754710Y-118006626D01*
X138346849Y-118006018D01*
X137980300Y-118005258D01*
X137652846Y-118004327D01*
X137362268Y-118003209D01*
X137106348Y-118001886D01*
X136882867Y-118000341D01*
X136689606Y-117998557D01*
X136524348Y-117996516D01*
X136384873Y-117994201D01*
X136268963Y-117991594D01*
X136174400Y-117988678D01*
X136098966Y-117985436D01*
X136040442Y-117981851D01*
X135996609Y-117977905D01*
X135965248Y-117973581D01*
X135944143Y-117968862D01*
X135932637Y-117964540D01*
X135912188Y-117955916D01*
X135893413Y-117949557D01*
X135876240Y-117943203D01*
X135860598Y-117934597D01*
X135846416Y-117921480D01*
X135833623Y-117901594D01*
X135822148Y-117872679D01*
X135811920Y-117832479D01*
X135802867Y-117778733D01*
X135794920Y-117709185D01*
X135788006Y-117621574D01*
X135782055Y-117513644D01*
X135776995Y-117383135D01*
X135772755Y-117227789D01*
X135769265Y-117045348D01*
X135766453Y-116833553D01*
X135765717Y-116752258D01*
X136494639Y-116752258D01*
X139071013Y-116752258D01*
X139021439Y-116677150D01*
X138972122Y-116599968D01*
X138930360Y-116526469D01*
X138895559Y-116451512D01*
X138867123Y-116369953D01*
X138844460Y-116276648D01*
X138826975Y-116166453D01*
X138814074Y-116034225D01*
X138805163Y-115874820D01*
X138799648Y-115683095D01*
X138796936Y-115453907D01*
X138796431Y-115182112D01*
X138797541Y-114862566D01*
X138798170Y-114743932D01*
X138805268Y-113472123D01*
X139610967Y-114569010D01*
X139839221Y-114880183D01*
X140036975Y-115151143D01*
X140206365Y-115385478D01*
X140349527Y-115586780D01*
X140468595Y-115758637D01*
X140565705Y-115904640D01*
X140642993Y-116028378D01*
X140702593Y-116133441D01*
X140746641Y-116223420D01*
X140777272Y-116301903D01*
X140796622Y-116372480D01*
X140806825Y-116438742D01*
X140810017Y-116504277D01*
X140808333Y-116572677D01*
X140807903Y-116581274D01*
X140799032Y-116752372D01*
X142210764Y-116752315D01*
X143622495Y-116752258D01*
X143412484Y-116540500D01*
X143355496Y-116482582D01*
X143301434Y-116426225D01*
X143247924Y-116368322D01*
X143192596Y-116305764D01*
X143133075Y-116235443D01*
X143066989Y-116154251D01*
X142991966Y-116059081D01*
X142905633Y-115946823D01*
X142805617Y-115814370D01*
X142689546Y-115658614D01*
X142555048Y-115476446D01*
X142399749Y-115264760D01*
X142221278Y-115020446D01*
X142017260Y-114740397D01*
X141785325Y-114421504D01*
X141595218Y-114159920D01*
X141356628Y-113831292D01*
X141148492Y-113543957D01*
X140968925Y-113295187D01*
X140816043Y-113082254D01*
X140687959Y-112902430D01*
X140582788Y-112752986D01*
X140498645Y-112631196D01*
X140433643Y-112534331D01*
X140385897Y-112459662D01*
X140353523Y-112404463D01*
X140334634Y-112366004D01*
X140327345Y-112341559D01*
X140329536Y-112328706D01*
X140356087Y-112294504D01*
X140413492Y-112222108D01*
X140498287Y-112115820D01*
X140607008Y-111979945D01*
X140736192Y-111818784D01*
X140882374Y-111636643D01*
X141042091Y-111437822D01*
X141211879Y-111226627D01*
X141388274Y-111007359D01*
X141567813Y-110784323D01*
X141666565Y-110661720D01*
X144118452Y-110661720D01*
X144322258Y-111030430D01*
X144322258Y-116383548D01*
X144118452Y-116752258D01*
X145323889Y-116752258D01*
X145611659Y-116752174D01*
X145849353Y-116751797D01*
X146041518Y-116750935D01*
X146192702Y-116749400D01*
X146307452Y-116747000D01*
X146390315Y-116743546D01*
X146445838Y-116738849D01*
X146478570Y-116732717D01*
X146493057Y-116724961D01*
X146493847Y-116715391D01*
X146485487Y-116703817D01*
X146485401Y-116703721D01*
X146450964Y-116653907D01*
X146405363Y-116572910D01*
X146365092Y-116492055D01*
X146288709Y-116328925D01*
X146280919Y-113495322D01*
X146273129Y-110661720D01*
X144118452Y-110661720D01*
X141666565Y-110661720D01*
X141747031Y-110561821D01*
X141922464Y-110344157D01*
X142090650Y-110135633D01*
X142248123Y-109940554D01*
X142391421Y-109763221D01*
X142517079Y-109607939D01*
X142621634Y-109479010D01*
X142701621Y-109380738D01*
X142748602Y-109323441D01*
X142931037Y-109109180D01*
X143106548Y-108915830D01*
X143268984Y-108749720D01*
X143412195Y-108617180D01*
X143513829Y-108535921D01*
X143634002Y-108449462D01*
X140870160Y-108449462D01*
X140870936Y-108611646D01*
X140863212Y-108730883D01*
X140834172Y-108841426D01*
X140789218Y-108946216D01*
X140759996Y-109005416D01*
X140728577Y-109064074D01*
X140692091Y-109126086D01*
X140647669Y-109195345D01*
X140592439Y-109275746D01*
X140523531Y-109371181D01*
X140438077Y-109485547D01*
X140333204Y-109622735D01*
X140206045Y-109786642D01*
X140053727Y-109981160D01*
X139873382Y-110210185D01*
X139662138Y-110477609D01*
X139638279Y-110507783D01*
X138805268Y-111561195D01*
X138797204Y-110394522D01*
X138795580Y-110045069D01*
X138795926Y-109749230D01*
X138798258Y-109506030D01*
X138802593Y-109314493D01*
X138808949Y-109173644D01*
X138817341Y-109082508D01*
X138820162Y-109065220D01*
X138864416Y-108883117D01*
X138922398Y-108718950D01*
X138988563Y-108586954D01*
X139028313Y-108530972D01*
X139096898Y-108449462D01*
X137795547Y-108449462D01*
X137485115Y-108449728D01*
X137225523Y-108450591D01*
X137012986Y-108452154D01*
X136843724Y-108454517D01*
X136713952Y-108457780D01*
X136619889Y-108462045D01*
X136557752Y-108467413D01*
X136523759Y-108473983D01*
X136514126Y-108481858D01*
X136514792Y-108483602D01*
X136542380Y-108525243D01*
X136588436Y-108591248D01*
X136612265Y-108624631D01*
X136636901Y-108657944D01*
X136659045Y-108687734D01*
X136678836Y-108716933D01*
X136696414Y-108748474D01*
X136711919Y-108785286D01*
X136725489Y-108830303D01*
X136737264Y-108886455D01*
X136747384Y-108956675D01*
X136755987Y-109043894D01*
X136763214Y-109151043D01*
X136769204Y-109281055D01*
X136774096Y-109436861D01*
X136778029Y-109621393D01*
X136781143Y-109837581D01*
X136783578Y-110088359D01*
X136785473Y-110376658D01*
X136786967Y-110705409D01*
X136788199Y-111077543D01*
X136789310Y-111495994D01*
X136790438Y-111963691D01*
X136791492Y-112393354D01*
X136792488Y-112872353D01*
X136793006Y-113329362D01*
X136793059Y-113761464D01*
X136792662Y-114165738D01*
X136791828Y-114539265D01*
X136790571Y-114879127D01*
X136788906Y-115182404D01*
X136786844Y-115446177D01*
X136784401Y-115667527D01*
X136781590Y-115843535D01*
X136778424Y-115971283D01*
X136774918Y-116047849D01*
X136774255Y-116055941D01*
X136750095Y-116241568D01*
X136712376Y-116390647D01*
X136654936Y-116520750D01*
X136571611Y-116649452D01*
X136561189Y-116663494D01*
X136494639Y-116752258D01*
X135765717Y-116752258D01*
X135764248Y-116590145D01*
X135762579Y-116312867D01*
X135761375Y-115999459D01*
X135760565Y-115647664D01*
X135760078Y-115255223D01*
X135759844Y-114819877D01*
X135759789Y-114339368D01*
X135759844Y-113811438D01*
X135759938Y-113233828D01*
X135759998Y-112604279D01*
X135760000Y-112479301D01*
X135760035Y-111843122D01*
X135760153Y-111259325D01*
X135760372Y-110725668D01*
X135760708Y-110239909D01*
X135761178Y-109799805D01*
X135761802Y-109403116D01*
X135762594Y-109047599D01*
X135763574Y-108731012D01*
X135764758Y-108451113D01*
X135766164Y-108205661D01*
X135767810Y-107992413D01*
X135769712Y-107809128D01*
X135771887Y-107653564D01*
X135774355Y-107523478D01*
X135777131Y-107416629D01*
X135780233Y-107330775D01*
X135783679Y-107263674D01*
X135787485Y-107213084D01*
X135791670Y-107176764D01*
X135796251Y-107152470D01*
X135801245Y-107137962D01*
X135801430Y-107137600D01*
X135811715Y-107115437D01*
X135820282Y-107095372D01*
X135829759Y-107077301D01*
X135842774Y-107061121D01*
X135861957Y-107046726D01*
X135889935Y-107034014D01*
X135929337Y-107022880D01*
X135982792Y-107013221D01*
X136052929Y-107004932D01*
X136142376Y-106997910D01*
X136253762Y-106992050D01*
X136389716Y-106987250D01*
X136552865Y-106983404D01*
X136745839Y-106980409D01*
X136971267Y-106978161D01*
X137231776Y-106976556D01*
X137529996Y-106975491D01*
X137868555Y-106974860D01*
X138250082Y-106974561D01*
X138677206Y-106974490D01*
X139152554Y-106974541D01*
X139152554Y-106974541D01*
G37*
X139152554Y-106974541D02*
X139678756Y-106974613D01*
X139923697Y-106974623D01*
X143844301Y-106974623D01*
X143844301Y-107205734D01*
X143868968Y-107486976D01*
X143943416Y-107746359D01*
X144068314Y-107985424D01*
X144244330Y-108205714D01*
X144303882Y-108265210D01*
X144518105Y-108433971D01*
X144754310Y-108557052D01*
X145005483Y-108634510D01*
X145264607Y-108666399D01*
X145524667Y-108652776D01*
X145778647Y-108593697D01*
X146019531Y-108489217D01*
X146240304Y-108339393D01*
X146339457Y-108249001D01*
X146524227Y-108027376D01*
X146659716Y-107783661D01*
X146744744Y-107520643D01*
X146778128Y-107241106D01*
X146778572Y-107213606D01*
X146780322Y-106974632D01*
X146885355Y-106974628D01*
X146978530Y-106987273D01*
X147063644Y-107018040D01*
X147069269Y-107021219D01*
X147088492Y-107031194D01*
X147106145Y-107038962D01*
X147122292Y-107046787D01*
X147136995Y-107056930D01*
X147150319Y-107071655D01*
X147162328Y-107093225D01*
X147173085Y-107123901D01*
X147182654Y-107165947D01*
X147191099Y-107221626D01*
X147198484Y-107293199D01*
X147204873Y-107382930D01*
X147210329Y-107493082D01*
X147214916Y-107625916D01*
X147218698Y-107783696D01*
X147221740Y-107968684D01*
X147224103Y-108183144D01*
X147225853Y-108429337D01*
X147227053Y-108709527D01*
X147227768Y-109025975D01*
X147228060Y-109380946D01*
X147227993Y-109776700D01*
X147227632Y-110215502D01*
X147227040Y-110699614D01*
X147226281Y-111231298D01*
X147225419Y-111812817D01*
X147224518Y-112446433D01*
X147224413Y-112523629D01*
X147223605Y-113161287D01*
X147222919Y-113746582D01*
X147222283Y-114281778D01*
X147221624Y-114769136D01*
X147220869Y-115210917D01*
X147219947Y-115609382D01*
X147218784Y-115966795D01*
X147217307Y-116285415D01*
X147215445Y-116567506D01*
X147213124Y-116815328D01*
X147210271Y-117031143D01*
X147206815Y-117217213D01*
X147202682Y-117375800D01*
X147197800Y-117509164D01*
X147192096Y-117619569D01*
X147185498Y-117709275D01*
X147177932Y-117780544D01*
X147169327Y-117835638D01*
X147159610Y-117876818D01*
X147148707Y-117906346D01*
X147136547Y-117926484D01*
X147123057Y-117939493D01*
X147108163Y-117947636D01*
X147091794Y-117953173D01*
X147073877Y-117958366D01*
X147054339Y-117965477D01*
X147049566Y-117967642D01*
X147034566Y-117972506D01*
X147009459Y-117976976D01*
X146972054Y-117981066D01*
X146920158Y-117984793D01*
X146851580Y-117988173D01*
X146764127Y-117991221D01*
X146655606Y-117993954D01*
X146523826Y-117996387D01*
X146366594Y-117998537D01*
X146181719Y-118000419D01*
X145967007Y-118002049D01*
X145720266Y-118003443D01*
X145439306Y-118004617D01*
X145121932Y-118005587D01*
X144765953Y-118006369D01*
X144369178Y-118006979D01*
X143929412Y-118007432D01*
X143444465Y-118007745D01*
X142912144Y-118007934D01*
X142330257Y-118008013D01*
X141696611Y-118008000D01*
X141491356Y-118007980D01*
X140843653Y-118007876D01*
X140248356Y-118007706D01*
X139703245Y-118007453D01*
X139206103Y-118007098D01*
X138754710Y-118006626D01*
X138346849Y-118006018D01*
X137980300Y-118005258D01*
X137652846Y-118004327D01*
X137362268Y-118003209D01*
X137106348Y-118001886D01*
X136882867Y-118000341D01*
X136689606Y-117998557D01*
X136524348Y-117996516D01*
X136384873Y-117994201D01*
X136268963Y-117991594D01*
X136174400Y-117988678D01*
X136098966Y-117985436D01*
X136040442Y-117981851D01*
X135996609Y-117977905D01*
X135965248Y-117973581D01*
X135944143Y-117968862D01*
X135932637Y-117964540D01*
X135912188Y-117955916D01*
X135893413Y-117949557D01*
X135876240Y-117943203D01*
X135860598Y-117934597D01*
X135846416Y-117921480D01*
X135833623Y-117901594D01*
X135822148Y-117872679D01*
X135811920Y-117832479D01*
X135802867Y-117778733D01*
X135794920Y-117709185D01*
X135788006Y-117621574D01*
X135782055Y-117513644D01*
X135776995Y-117383135D01*
X135772755Y-117227789D01*
X135769265Y-117045348D01*
X135766453Y-116833553D01*
X135765717Y-116752258D01*
X136494639Y-116752258D01*
X139071013Y-116752258D01*
X139021439Y-116677150D01*
X138972122Y-116599968D01*
X138930360Y-116526469D01*
X138895559Y-116451512D01*
X138867123Y-116369953D01*
X138844460Y-116276648D01*
X138826975Y-116166453D01*
X138814074Y-116034225D01*
X138805163Y-115874820D01*
X138799648Y-115683095D01*
X138796936Y-115453907D01*
X138796431Y-115182112D01*
X138797541Y-114862566D01*
X138798170Y-114743932D01*
X138805268Y-113472123D01*
X139610967Y-114569010D01*
X139839221Y-114880183D01*
X140036975Y-115151143D01*
X140206365Y-115385478D01*
X140349527Y-115586780D01*
X140468595Y-115758637D01*
X140565705Y-115904640D01*
X140642993Y-116028378D01*
X140702593Y-116133441D01*
X140746641Y-116223420D01*
X140777272Y-116301903D01*
X140796622Y-116372480D01*
X140806825Y-116438742D01*
X140810017Y-116504277D01*
X140808333Y-116572677D01*
X140807903Y-116581274D01*
X140799032Y-116752372D01*
X142210764Y-116752315D01*
X143622495Y-116752258D01*
X143412484Y-116540500D01*
X143355496Y-116482582D01*
X143301434Y-116426225D01*
X143247924Y-116368322D01*
X143192596Y-116305764D01*
X143133075Y-116235443D01*
X143066989Y-116154251D01*
X142991966Y-116059081D01*
X142905633Y-115946823D01*
X142805617Y-115814370D01*
X142689546Y-115658614D01*
X142555048Y-115476446D01*
X142399749Y-115264760D01*
X142221278Y-115020446D01*
X142017260Y-114740397D01*
X141785325Y-114421504D01*
X141595218Y-114159920D01*
X141356628Y-113831292D01*
X141148492Y-113543957D01*
X140968925Y-113295187D01*
X140816043Y-113082254D01*
X140687959Y-112902430D01*
X140582788Y-112752986D01*
X140498645Y-112631196D01*
X140433643Y-112534331D01*
X140385897Y-112459662D01*
X140353523Y-112404463D01*
X140334634Y-112366004D01*
X140327345Y-112341559D01*
X140329536Y-112328706D01*
X140356087Y-112294504D01*
X140413492Y-112222108D01*
X140498287Y-112115820D01*
X140607008Y-111979945D01*
X140736192Y-111818784D01*
X140882374Y-111636643D01*
X141042091Y-111437822D01*
X141211879Y-111226627D01*
X141388274Y-111007359D01*
X141567813Y-110784323D01*
X141666565Y-110661720D01*
X144118452Y-110661720D01*
X144322258Y-111030430D01*
X144322258Y-116383548D01*
X144118452Y-116752258D01*
X145323889Y-116752258D01*
X145611659Y-116752174D01*
X145849353Y-116751797D01*
X146041518Y-116750935D01*
X146192702Y-116749400D01*
X146307452Y-116747000D01*
X146390315Y-116743546D01*
X146445838Y-116738849D01*
X146478570Y-116732717D01*
X146493057Y-116724961D01*
X146493847Y-116715391D01*
X146485487Y-116703817D01*
X146485401Y-116703721D01*
X146450964Y-116653907D01*
X146405363Y-116572910D01*
X146365092Y-116492055D01*
X146288709Y-116328925D01*
X146280919Y-113495322D01*
X146273129Y-110661720D01*
X144118452Y-110661720D01*
X141666565Y-110661720D01*
X141747031Y-110561821D01*
X141922464Y-110344157D01*
X142090650Y-110135633D01*
X142248123Y-109940554D01*
X142391421Y-109763221D01*
X142517079Y-109607939D01*
X142621634Y-109479010D01*
X142701621Y-109380738D01*
X142748602Y-109323441D01*
X142931037Y-109109180D01*
X143106548Y-108915830D01*
X143268984Y-108749720D01*
X143412195Y-108617180D01*
X143513829Y-108535921D01*
X143634002Y-108449462D01*
X140870160Y-108449462D01*
X140870936Y-108611646D01*
X140863212Y-108730883D01*
X140834172Y-108841426D01*
X140789218Y-108946216D01*
X140759996Y-109005416D01*
X140728577Y-109064074D01*
X140692091Y-109126086D01*
X140647669Y-109195345D01*
X140592439Y-109275746D01*
X140523531Y-109371181D01*
X140438077Y-109485547D01*
X140333204Y-109622735D01*
X140206045Y-109786642D01*
X140053727Y-109981160D01*
X139873382Y-110210185D01*
X139662138Y-110477609D01*
X139638279Y-110507783D01*
X138805268Y-111561195D01*
X138797204Y-110394522D01*
X138795580Y-110045069D01*
X138795926Y-109749230D01*
X138798258Y-109506030D01*
X138802593Y-109314493D01*
X138808949Y-109173644D01*
X138817341Y-109082508D01*
X138820162Y-109065220D01*
X138864416Y-108883117D01*
X138922398Y-108718950D01*
X138988563Y-108586954D01*
X139028313Y-108530972D01*
X139096898Y-108449462D01*
X137795547Y-108449462D01*
X137485115Y-108449728D01*
X137225523Y-108450591D01*
X137012986Y-108452154D01*
X136843724Y-108454517D01*
X136713952Y-108457780D01*
X136619889Y-108462045D01*
X136557752Y-108467413D01*
X136523759Y-108473983D01*
X136514126Y-108481858D01*
X136514792Y-108483602D01*
X136542380Y-108525243D01*
X136588436Y-108591248D01*
X136612265Y-108624631D01*
X136636901Y-108657944D01*
X136659045Y-108687734D01*
X136678836Y-108716933D01*
X136696414Y-108748474D01*
X136711919Y-108785286D01*
X136725489Y-108830303D01*
X136737264Y-108886455D01*
X136747384Y-108956675D01*
X136755987Y-109043894D01*
X136763214Y-109151043D01*
X136769204Y-109281055D01*
X136774096Y-109436861D01*
X136778029Y-109621393D01*
X136781143Y-109837581D01*
X136783578Y-110088359D01*
X136785473Y-110376658D01*
X136786967Y-110705409D01*
X136788199Y-111077543D01*
X136789310Y-111495994D01*
X136790438Y-111963691D01*
X136791492Y-112393354D01*
X136792488Y-112872353D01*
X136793006Y-113329362D01*
X136793059Y-113761464D01*
X136792662Y-114165738D01*
X136791828Y-114539265D01*
X136790571Y-114879127D01*
X136788906Y-115182404D01*
X136786844Y-115446177D01*
X136784401Y-115667527D01*
X136781590Y-115843535D01*
X136778424Y-115971283D01*
X136774918Y-116047849D01*
X136774255Y-116055941D01*
X136750095Y-116241568D01*
X136712376Y-116390647D01*
X136654936Y-116520750D01*
X136571611Y-116649452D01*
X136561189Y-116663494D01*
X136494639Y-116752258D01*
X135765717Y-116752258D01*
X135764248Y-116590145D01*
X135762579Y-116312867D01*
X135761375Y-115999459D01*
X135760565Y-115647664D01*
X135760078Y-115255223D01*
X135759844Y-114819877D01*
X135759789Y-114339368D01*
X135759844Y-113811438D01*
X135759938Y-113233828D01*
X135759998Y-112604279D01*
X135760000Y-112479301D01*
X135760035Y-111843122D01*
X135760153Y-111259325D01*
X135760372Y-110725668D01*
X135760708Y-110239909D01*
X135761178Y-109799805D01*
X135761802Y-109403116D01*
X135762594Y-109047599D01*
X135763574Y-108731012D01*
X135764758Y-108451113D01*
X135766164Y-108205661D01*
X135767810Y-107992413D01*
X135769712Y-107809128D01*
X135771887Y-107653564D01*
X135774355Y-107523478D01*
X135777131Y-107416629D01*
X135780233Y-107330775D01*
X135783679Y-107263674D01*
X135787485Y-107213084D01*
X135791670Y-107176764D01*
X135796251Y-107152470D01*
X135801245Y-107137962D01*
X135801430Y-107137600D01*
X135811715Y-107115437D01*
X135820282Y-107095372D01*
X135829759Y-107077301D01*
X135842774Y-107061121D01*
X135861957Y-107046726D01*
X135889935Y-107034014D01*
X135929337Y-107022880D01*
X135982792Y-107013221D01*
X136052929Y-107004932D01*
X136142376Y-106997910D01*
X136253762Y-106992050D01*
X136389716Y-106987250D01*
X136552865Y-106983404D01*
X136745839Y-106980409D01*
X136971267Y-106978161D01*
X137231776Y-106976556D01*
X137529996Y-106975491D01*
X137868555Y-106974860D01*
X138250082Y-106974561D01*
X138677206Y-106974490D01*
X139152554Y-106974541D01*
G36*
X151875193Y-108340777D02*
X152169706Y-108373019D01*
X152455039Y-108430729D01*
X152742800Y-108516917D01*
X153044596Y-108634593D01*
X153372034Y-108786767D01*
X153431001Y-108816243D01*
X153566324Y-108882910D01*
X153693951Y-108942939D01*
X153801287Y-108990599D01*
X153875736Y-109020155D01*
X153887173Y-109023876D01*
X153996774Y-109056714D01*
X153506155Y-109770453D01*
X153386206Y-109944895D01*
X153276539Y-110104270D01*
X153180883Y-110243168D01*
X153102969Y-110356178D01*
X153046525Y-110437890D01*
X153015281Y-110482891D01*
X153010205Y-110490018D01*
X152989588Y-110475117D01*
X152938839Y-110430320D01*
X152867034Y-110363765D01*
X152827406Y-110326147D01*
X152602882Y-110147568D01*
X152350726Y-110011868D01*
X152133440Y-109937537D01*
X152003007Y-109914193D01*
X151839693Y-109899967D01*
X151662707Y-109895124D01*
X151491256Y-109899926D01*
X151344548Y-109914638D01*
X151286007Y-109925905D01*
X151022147Y-110016685D01*
X150784378Y-110155296D01*
X150572876Y-110341485D01*
X150387816Y-110574999D01*
X150229375Y-110855584D01*
X150097729Y-111182987D01*
X149993054Y-111556955D01*
X149930845Y-111877097D01*
X149914614Y-112018426D01*
X149903556Y-112201004D01*
X149897563Y-112411709D01*
X149896527Y-112637422D01*
X149900343Y-112865022D01*
X149908903Y-113081389D01*
X149922101Y-113273402D01*
X149939830Y-113427943D01*
X149943667Y-113451786D01*
X150028251Y-113835860D01*
X150143495Y-114175783D01*
X150290103Y-114473078D01*
X150468774Y-114729268D01*
X150595600Y-114867775D01*
X150823525Y-115055828D01*
X151073488Y-115195220D01*
X151341270Y-115285195D01*
X151622656Y-115324994D01*
X151913429Y-115313857D01*
X152209373Y-115251026D01*
X152384340Y-115189547D01*
X152626466Y-115066436D01*
X152876020Y-114889837D01*
X153015809Y-114770412D01*
X153094301Y-114701291D01*
X153155970Y-114650579D01*
X153191072Y-114626144D01*
X153195430Y-114625398D01*
X153211097Y-114650367D01*
X153251692Y-114716348D01*
X153313757Y-114817685D01*
X153393833Y-114948721D01*
X153488462Y-115103800D01*
X153594186Y-115277265D01*
X153653033Y-115373896D01*
X154102526Y-116112201D01*
X153541317Y-116389549D01*
X153338404Y-116489172D01*
X153174027Y-116567729D01*
X153038139Y-116629122D01*
X152920691Y-116677253D01*
X152811636Y-116716023D01*
X152700926Y-116749333D01*
X152578513Y-116781086D01*
X152461182Y-116808969D01*
X152356895Y-116830546D01*
X152247832Y-116846851D01*
X152123073Y-116858791D01*
X151971703Y-116867270D01*
X151782801Y-116873192D01*
X151655483Y-116875749D01*
X151473823Y-116877494D01*
X151299633Y-116876614D01*
X151144443Y-116873360D01*
X151019777Y-116867984D01*
X150937166Y-116860735D01*
X150932270Y-116860012D01*
X150503291Y-116767205D01*
X150100449Y-116626449D01*
X149723888Y-116437839D01*
X149373748Y-116201466D01*
X149050172Y-115917424D01*
X148753300Y-115585805D01*
X148538299Y-115291075D01*
X148309411Y-114905298D01*
X148124389Y-114497895D01*
X147982338Y-114065600D01*
X147882364Y-113605146D01*
X147823572Y-113113267D01*
X147805049Y-112613799D01*
X147820283Y-112130634D01*
X147868156Y-111684842D01*
X147950189Y-111268905D01*
X148067903Y-110875304D01*
X148222819Y-110496518D01*
X148241317Y-110457275D01*
X148445106Y-110090440D01*
X148695402Y-109741360D01*
X148985115Y-109417260D01*
X149307154Y-109125366D01*
X149654426Y-108872904D01*
X149978013Y-108687714D01*
X150304904Y-108542670D01*
X150632489Y-108437603D01*
X150973448Y-108369653D01*
X151340465Y-108335960D01*
X151559892Y-108330992D01*
X151875193Y-108340777D01*
X151875193Y-108340777D01*
G37*
X151875193Y-108340777D02*
X152169706Y-108373019D01*
X152455039Y-108430729D01*
X152742800Y-108516917D01*
X153044596Y-108634593D01*
X153372034Y-108786767D01*
X153431001Y-108816243D01*
X153566324Y-108882910D01*
X153693951Y-108942939D01*
X153801287Y-108990599D01*
X153875736Y-109020155D01*
X153887173Y-109023876D01*
X153996774Y-109056714D01*
X153506155Y-109770453D01*
X153386206Y-109944895D01*
X153276539Y-110104270D01*
X153180883Y-110243168D01*
X153102969Y-110356178D01*
X153046525Y-110437890D01*
X153015281Y-110482891D01*
X153010205Y-110490018D01*
X152989588Y-110475117D01*
X152938839Y-110430320D01*
X152867034Y-110363765D01*
X152827406Y-110326147D01*
X152602882Y-110147568D01*
X152350726Y-110011868D01*
X152133440Y-109937537D01*
X152003007Y-109914193D01*
X151839693Y-109899967D01*
X151662707Y-109895124D01*
X151491256Y-109899926D01*
X151344548Y-109914638D01*
X151286007Y-109925905D01*
X151022147Y-110016685D01*
X150784378Y-110155296D01*
X150572876Y-110341485D01*
X150387816Y-110574999D01*
X150229375Y-110855584D01*
X150097729Y-111182987D01*
X149993054Y-111556955D01*
X149930845Y-111877097D01*
X149914614Y-112018426D01*
X149903556Y-112201004D01*
X149897563Y-112411709D01*
X149896527Y-112637422D01*
X149900343Y-112865022D01*
X149908903Y-113081389D01*
X149922101Y-113273402D01*
X149939830Y-113427943D01*
X149943667Y-113451786D01*
X150028251Y-113835860D01*
X150143495Y-114175783D01*
X150290103Y-114473078D01*
X150468774Y-114729268D01*
X150595600Y-114867775D01*
X150823525Y-115055828D01*
X151073488Y-115195220D01*
X151341270Y-115285195D01*
X151622656Y-115324994D01*
X151913429Y-115313857D01*
X152209373Y-115251026D01*
X152384340Y-115189547D01*
X152626466Y-115066436D01*
X152876020Y-114889837D01*
X153015809Y-114770412D01*
X153094301Y-114701291D01*
X153155970Y-114650579D01*
X153191072Y-114626144D01*
X153195430Y-114625398D01*
X153211097Y-114650367D01*
X153251692Y-114716348D01*
X153313757Y-114817685D01*
X153393833Y-114948721D01*
X153488462Y-115103800D01*
X153594186Y-115277265D01*
X153653033Y-115373896D01*
X154102526Y-116112201D01*
X153541317Y-116389549D01*
X153338404Y-116489172D01*
X153174027Y-116567729D01*
X153038139Y-116629122D01*
X152920691Y-116677253D01*
X152811636Y-116716023D01*
X152700926Y-116749333D01*
X152578513Y-116781086D01*
X152461182Y-116808969D01*
X152356895Y-116830546D01*
X152247832Y-116846851D01*
X152123073Y-116858791D01*
X151971703Y-116867270D01*
X151782801Y-116873192D01*
X151655483Y-116875749D01*
X151473823Y-116877494D01*
X151299633Y-116876614D01*
X151144443Y-116873360D01*
X151019777Y-116867984D01*
X150937166Y-116860735D01*
X150932270Y-116860012D01*
X150503291Y-116767205D01*
X150100449Y-116626449D01*
X149723888Y-116437839D01*
X149373748Y-116201466D01*
X149050172Y-115917424D01*
X148753300Y-115585805D01*
X148538299Y-115291075D01*
X148309411Y-114905298D01*
X148124389Y-114497895D01*
X147982338Y-114065600D01*
X147882364Y-113605146D01*
X147823572Y-113113267D01*
X147805049Y-112613799D01*
X147820283Y-112130634D01*
X147868156Y-111684842D01*
X147950189Y-111268905D01*
X148067903Y-110875304D01*
X148222819Y-110496518D01*
X148241317Y-110457275D01*
X148445106Y-110090440D01*
X148695402Y-109741360D01*
X148985115Y-109417260D01*
X149307154Y-109125366D01*
X149654426Y-108872904D01*
X149978013Y-108687714D01*
X150304904Y-108542670D01*
X150632489Y-108437603D01*
X150973448Y-108369653D01*
X151340465Y-108335960D01*
X151559892Y-108330992D01*
X151875193Y-108340777D01*
G36*
X157300951Y-110536368D02*
X157436272Y-110546611D01*
X157823442Y-110598122D01*
X158166321Y-110680283D01*
X158466580Y-110794222D01*
X158725888Y-110941072D01*
X158945916Y-111121962D01*
X159128334Y-111338022D01*
X159274811Y-111590384D01*
X159381771Y-111863441D01*
X159408921Y-111950541D01*
X159432564Y-112032107D01*
X159452977Y-112112529D01*
X159470439Y-112196199D01*
X159485230Y-112287508D01*
X159497627Y-112390847D01*
X159507911Y-112510609D01*
X159516358Y-112651183D01*
X159523248Y-112816962D01*
X159528861Y-113012336D01*
X159533473Y-113241698D01*
X159537365Y-113509437D01*
X159540815Y-113819947D01*
X159544102Y-114177618D01*
X159546451Y-114458064D01*
X159562258Y-116383548D01*
X159664677Y-116568843D01*
X159713175Y-116658111D01*
X159749266Y-116727448D01*
X159766483Y-116764354D01*
X159767096Y-116766854D01*
X159740780Y-116769715D01*
X159665811Y-116772351D01*
X159548161Y-116774689D01*
X159393800Y-116776653D01*
X159208700Y-116778170D01*
X158998832Y-116779165D01*
X158770167Y-116779565D01*
X158742903Y-116779570D01*
X157718709Y-116779570D01*
X157718709Y-116547419D01*
X157716963Y-116442507D01*
X157712302Y-116362271D01*
X157705596Y-116319251D01*
X157702632Y-116315269D01*
X157675523Y-116331950D01*
X157619731Y-116375731D01*
X157547215Y-116437216D01*
X157545589Y-116438638D01*
X157413257Y-116537160D01*
X157246133Y-116636089D01*
X157063100Y-116725706D01*
X156883043Y-116796293D01*
X156803763Y-116820414D01*
X156645991Y-116851051D01*
X156452397Y-116870602D01*
X156240704Y-116878787D01*
X156028632Y-116875327D01*
X155833904Y-116859945D01*
X155697634Y-116837811D01*
X155363454Y-116739676D01*
X155062603Y-116599819D01*
X154797039Y-116419974D01*
X154568721Y-116201876D01*
X154379606Y-115947261D01*
X154231653Y-115657864D01*
X154167825Y-115482258D01*
X154127823Y-115311576D01*
X154101313Y-115106678D01*
X154089047Y-114886464D01*
X154089450Y-114854420D01*
X155936612Y-114854420D01*
X155951930Y-115018053D01*
X156002935Y-115154042D01*
X156097204Y-115280208D01*
X156133411Y-115317203D01*
X156262120Y-115417221D01*
X156410885Y-115481294D01*
X156589113Y-115512309D01*
X156776798Y-115514593D01*
X156954814Y-115499514D01*
X157091112Y-115470021D01*
X157150306Y-115447869D01*
X157256995Y-115387496D01*
X157370037Y-115302589D01*
X157473175Y-115207295D01*
X157550151Y-115115760D01*
X157570591Y-115082181D01*
X157586481Y-115035157D01*
X157597778Y-114960333D01*
X157605009Y-114850560D01*
X157608700Y-114698692D01*
X157609462Y-114554155D01*
X157608946Y-114385644D01*
X157606860Y-114263799D01*
X157602402Y-114180666D01*
X157594765Y-114128292D01*
X157583146Y-114098726D01*
X157566740Y-114084013D01*
X157561666Y-114081670D01*
X157517570Y-114074453D01*
X157430600Y-114068550D01*
X157312500Y-114064493D01*
X157175014Y-114062815D01*
X157145161Y-114062813D01*
X156961386Y-114065746D01*
X156819407Y-114074469D01*
X156706591Y-114090177D01*
X156613402Y-114113118D01*
X156382246Y-114200535D01*
X156200973Y-114308010D01*
X156068014Y-114437262D01*
X155981801Y-114590010D01*
X155940762Y-114767972D01*
X155936612Y-114854420D01*
X154089450Y-114854420D01*
X154091776Y-114669834D01*
X154110252Y-114475689D01*
X154124664Y-114397252D01*
X154216690Y-114106017D01*
X154356623Y-113838054D01*
X154541823Y-113595932D01*
X154769648Y-113382221D01*
X155037457Y-113199492D01*
X155342607Y-113050314D01*
X155602043Y-112959727D01*
X155775434Y-112912136D01*
X155941282Y-112875155D01*
X156110329Y-112847585D01*
X156293317Y-112828224D01*
X156500989Y-112815871D01*
X156744087Y-112809326D01*
X156963872Y-112807483D01*
X157615594Y-112805699D01*
X157603109Y-112609798D01*
X157567657Y-112397243D01*
X157492241Y-112214543D01*
X157380073Y-112066262D01*
X157234364Y-111956960D01*
X157106064Y-111903624D01*
X156922235Y-111870010D01*
X156703394Y-111865183D01*
X156459800Y-111887363D01*
X156201710Y-111934772D01*
X155939385Y-112005629D01*
X155683082Y-112098155D01*
X155496824Y-112182778D01*
X155407211Y-112226231D01*
X155338858Y-112256580D01*
X155304097Y-112268423D01*
X155302211Y-112268043D01*
X155290215Y-112241518D01*
X155260262Y-112171210D01*
X155215170Y-112063855D01*
X155157757Y-111926190D01*
X155090842Y-111764949D01*
X155022824Y-111600395D01*
X154750897Y-110941328D01*
X154944319Y-110909559D01*
X155028154Y-110893619D01*
X155154183Y-110866847D01*
X155311608Y-110831673D01*
X155489633Y-110790528D01*
X155677463Y-110745842D01*
X155752258Y-110727683D01*
X156075838Y-110652631D01*
X156359132Y-110596362D01*
X156612715Y-110557738D01*
X156847162Y-110535623D01*
X157073049Y-110528878D01*
X157300951Y-110536368D01*
X157300951Y-110536368D01*
G37*
X157300951Y-110536368D02*
X157436272Y-110546611D01*
X157823442Y-110598122D01*
X158166321Y-110680283D01*
X158466580Y-110794222D01*
X158725888Y-110941072D01*
X158945916Y-111121962D01*
X159128334Y-111338022D01*
X159274811Y-111590384D01*
X159381771Y-111863441D01*
X159408921Y-111950541D01*
X159432564Y-112032107D01*
X159452977Y-112112529D01*
X159470439Y-112196199D01*
X159485230Y-112287508D01*
X159497627Y-112390847D01*
X159507911Y-112510609D01*
X159516358Y-112651183D01*
X159523248Y-112816962D01*
X159528861Y-113012336D01*
X159533473Y-113241698D01*
X159537365Y-113509437D01*
X159540815Y-113819947D01*
X159544102Y-114177618D01*
X159546451Y-114458064D01*
X159562258Y-116383548D01*
X159664677Y-116568843D01*
X159713175Y-116658111D01*
X159749266Y-116727448D01*
X159766483Y-116764354D01*
X159767096Y-116766854D01*
X159740780Y-116769715D01*
X159665811Y-116772351D01*
X159548161Y-116774689D01*
X159393800Y-116776653D01*
X159208700Y-116778170D01*
X158998832Y-116779165D01*
X158770167Y-116779565D01*
X158742903Y-116779570D01*
X157718709Y-116779570D01*
X157718709Y-116547419D01*
X157716963Y-116442507D01*
X157712302Y-116362271D01*
X157705596Y-116319251D01*
X157702632Y-116315269D01*
X157675523Y-116331950D01*
X157619731Y-116375731D01*
X157547215Y-116437216D01*
X157545589Y-116438638D01*
X157413257Y-116537160D01*
X157246133Y-116636089D01*
X157063100Y-116725706D01*
X156883043Y-116796293D01*
X156803763Y-116820414D01*
X156645991Y-116851051D01*
X156452397Y-116870602D01*
X156240704Y-116878787D01*
X156028632Y-116875327D01*
X155833904Y-116859945D01*
X155697634Y-116837811D01*
X155363454Y-116739676D01*
X155062603Y-116599819D01*
X154797039Y-116419974D01*
X154568721Y-116201876D01*
X154379606Y-115947261D01*
X154231653Y-115657864D01*
X154167825Y-115482258D01*
X154127823Y-115311576D01*
X154101313Y-115106678D01*
X154089047Y-114886464D01*
X154089450Y-114854420D01*
X155936612Y-114854420D01*
X155951930Y-115018053D01*
X156002935Y-115154042D01*
X156097204Y-115280208D01*
X156133411Y-115317203D01*
X156262120Y-115417221D01*
X156410885Y-115481294D01*
X156589113Y-115512309D01*
X156776798Y-115514593D01*
X156954814Y-115499514D01*
X157091112Y-115470021D01*
X157150306Y-115447869D01*
X157256995Y-115387496D01*
X157370037Y-115302589D01*
X157473175Y-115207295D01*
X157550151Y-115115760D01*
X157570591Y-115082181D01*
X157586481Y-115035157D01*
X157597778Y-114960333D01*
X157605009Y-114850560D01*
X157608700Y-114698692D01*
X157609462Y-114554155D01*
X157608946Y-114385644D01*
X157606860Y-114263799D01*
X157602402Y-114180666D01*
X157594765Y-114128292D01*
X157583146Y-114098726D01*
X157566740Y-114084013D01*
X157561666Y-114081670D01*
X157517570Y-114074453D01*
X157430600Y-114068550D01*
X157312500Y-114064493D01*
X157175014Y-114062815D01*
X157145161Y-114062813D01*
X156961386Y-114065746D01*
X156819407Y-114074469D01*
X156706591Y-114090177D01*
X156613402Y-114113118D01*
X156382246Y-114200535D01*
X156200973Y-114308010D01*
X156068014Y-114437262D01*
X155981801Y-114590010D01*
X155940762Y-114767972D01*
X155936612Y-114854420D01*
X154089450Y-114854420D01*
X154091776Y-114669834D01*
X154110252Y-114475689D01*
X154124664Y-114397252D01*
X154216690Y-114106017D01*
X154356623Y-113838054D01*
X154541823Y-113595932D01*
X154769648Y-113382221D01*
X155037457Y-113199492D01*
X155342607Y-113050314D01*
X155602043Y-112959727D01*
X155775434Y-112912136D01*
X155941282Y-112875155D01*
X156110329Y-112847585D01*
X156293317Y-112828224D01*
X156500989Y-112815871D01*
X156744087Y-112809326D01*
X156963872Y-112807483D01*
X157615594Y-112805699D01*
X157603109Y-112609798D01*
X157567657Y-112397243D01*
X157492241Y-112214543D01*
X157380073Y-112066262D01*
X157234364Y-111956960D01*
X157106064Y-111903624D01*
X156922235Y-111870010D01*
X156703394Y-111865183D01*
X156459800Y-111887363D01*
X156201710Y-111934772D01*
X155939385Y-112005629D01*
X155683082Y-112098155D01*
X155496824Y-112182778D01*
X155407211Y-112226231D01*
X155338858Y-112256580D01*
X155304097Y-112268423D01*
X155302211Y-112268043D01*
X155290215Y-112241518D01*
X155260262Y-112171210D01*
X155215170Y-112063855D01*
X155157757Y-111926190D01*
X155090842Y-111764949D01*
X155022824Y-111600395D01*
X154750897Y-110941328D01*
X154944319Y-110909559D01*
X155028154Y-110893619D01*
X155154183Y-110866847D01*
X155311608Y-110831673D01*
X155489633Y-110790528D01*
X155677463Y-110745842D01*
X155752258Y-110727683D01*
X156075838Y-110652631D01*
X156359132Y-110596362D01*
X156612715Y-110557738D01*
X156847162Y-110535623D01*
X157073049Y-110528878D01*
X157300951Y-110536368D01*
G36*
X164610967Y-107935618D02*
X164843254Y-107936571D01*
X164922204Y-107937052D01*
X166007849Y-107944193D01*
X166021505Y-112109247D01*
X166023308Y-112674041D01*
X166024908Y-113186864D01*
X166026406Y-113650371D01*
X166027906Y-114067214D01*
X166029509Y-114440045D01*
X166031320Y-114771519D01*
X166033440Y-115064286D01*
X166035972Y-115321002D01*
X166039020Y-115544318D01*
X166042685Y-115736887D01*
X166047071Y-115901363D01*
X166052280Y-116040398D01*
X166058416Y-116156644D01*
X166065580Y-116252756D01*
X166073875Y-116331386D01*
X166083405Y-116395187D01*
X166094272Y-116446811D01*
X166106579Y-116488912D01*
X166120428Y-116524143D01*
X166135923Y-116555156D01*
X166153165Y-116584604D01*
X166172258Y-116615141D01*
X166193305Y-116649418D01*
X166197619Y-116656720D01*
X166269996Y-116780221D01*
X165223976Y-116773068D01*
X164177956Y-116765914D01*
X164164301Y-116536142D01*
X164156865Y-116425873D01*
X164149117Y-116362122D01*
X164138603Y-116336827D01*
X164122872Y-116341922D01*
X164109677Y-116356498D01*
X164052197Y-116409591D01*
X163958513Y-116477837D01*
X163841825Y-116553080D01*
X163715331Y-116627167D01*
X163592231Y-116691943D01*
X163497713Y-116734561D01*
X163276274Y-116804595D01*
X163022207Y-116854204D01*
X162754266Y-116881494D01*
X162491211Y-116884569D01*
X162251795Y-116861532D01*
X162247853Y-116860873D01*
X161920253Y-116778669D01*
X161613587Y-116647700D01*
X161330814Y-116470780D01*
X161074892Y-116250726D01*
X160848778Y-115990351D01*
X160655430Y-115692472D01*
X160497806Y-115359904D01*
X160411984Y-115113548D01*
X160355389Y-114907445D01*
X160313418Y-114707867D01*
X160284789Y-114502690D01*
X160268218Y-114279791D01*
X160262423Y-114027045D01*
X160264989Y-113820662D01*
X162280325Y-113820662D01*
X162289862Y-114166732D01*
X162319946Y-114464467D01*
X162371503Y-114716510D01*
X162445458Y-114925502D01*
X162542738Y-115094086D01*
X162664266Y-115224906D01*
X162804546Y-115317385D01*
X162877540Y-115351909D01*
X162940847Y-115372607D01*
X163011427Y-115382077D01*
X163106242Y-115382915D01*
X163208387Y-115379228D01*
X163409261Y-115361510D01*
X163568134Y-115326813D01*
X163618064Y-115309433D01*
X163732075Y-115258102D01*
X163852323Y-115193643D01*
X163904838Y-115161376D01*
X164041397Y-115071805D01*
X164041397Y-112232706D01*
X163891182Y-112142665D01*
X163681692Y-112040923D01*
X163467658Y-111980751D01*
X163256909Y-111961796D01*
X163057273Y-111983701D01*
X162876577Y-112046113D01*
X162722649Y-112148676D01*
X162672981Y-112197906D01*
X162553262Y-112359211D01*
X162456364Y-112554471D01*
X162381477Y-112787031D01*
X162327793Y-113060239D01*
X162294500Y-113377441D01*
X162280789Y-113741984D01*
X162280325Y-113820662D01*
X160264989Y-113820662D01*
X160266058Y-113734756D01*
X160289082Y-113285158D01*
X160335378Y-112879628D01*
X160406164Y-112512257D01*
X160502661Y-112177137D01*
X160626087Y-111868363D01*
X160670131Y-111776822D01*
X160847540Y-111478296D01*
X161061930Y-111213007D01*
X161308259Y-110985237D01*
X161581487Y-110799268D01*
X161876574Y-110659382D01*
X162053459Y-110601678D01*
X162227178Y-110567422D01*
X162436205Y-110547041D01*
X162663014Y-110540525D01*
X162890084Y-110547866D01*
X163099892Y-110569055D01*
X163268352Y-110602295D01*
X163468857Y-110667482D01*
X163663195Y-110751307D01*
X163833224Y-110845280D01*
X163923721Y-110909058D01*
X163986144Y-110956484D01*
X164029853Y-110985361D01*
X164039796Y-110989462D01*
X164042879Y-110963041D01*
X164045753Y-110887339D01*
X164048355Y-110767698D01*
X164050621Y-110609462D01*
X164052488Y-110417973D01*
X164053891Y-110198574D01*
X164054767Y-109956607D01*
X164055053Y-109710147D01*
X164054894Y-109394476D01*
X164054108Y-109128337D01*
X164052238Y-108906641D01*
X164048825Y-108724296D01*
X164043409Y-108576212D01*
X164035531Y-108457299D01*
X164024733Y-108362465D01*
X164010555Y-108286620D01*
X163992539Y-108224674D01*
X163970225Y-108171536D01*
X163943154Y-108122115D01*
X163910867Y-108071321D01*
X163906713Y-108065031D01*
X163865071Y-107999245D01*
X163839929Y-107954008D01*
X163836559Y-107944466D01*
X163862903Y-107941455D01*
X163938069Y-107939006D01*
X164056257Y-107937158D01*
X164211669Y-107935951D01*
X164398506Y-107935424D01*
X164610967Y-107935618D01*
X164610967Y-107935618D01*
G37*
X164610967Y-107935618D02*
X164843254Y-107936571D01*
X164922204Y-107937052D01*
X166007849Y-107944193D01*
X166021505Y-112109247D01*
X166023308Y-112674041D01*
X166024908Y-113186864D01*
X166026406Y-113650371D01*
X166027906Y-114067214D01*
X166029509Y-114440045D01*
X166031320Y-114771519D01*
X166033440Y-115064286D01*
X166035972Y-115321002D01*
X166039020Y-115544318D01*
X166042685Y-115736887D01*
X166047071Y-115901363D01*
X166052280Y-116040398D01*
X166058416Y-116156644D01*
X166065580Y-116252756D01*
X166073875Y-116331386D01*
X166083405Y-116395187D01*
X166094272Y-116446811D01*
X166106579Y-116488912D01*
X166120428Y-116524143D01*
X166135923Y-116555156D01*
X166153165Y-116584604D01*
X166172258Y-116615141D01*
X166193305Y-116649418D01*
X166197619Y-116656720D01*
X166269996Y-116780221D01*
X165223976Y-116773068D01*
X164177956Y-116765914D01*
X164164301Y-116536142D01*
X164156865Y-116425873D01*
X164149117Y-116362122D01*
X164138603Y-116336827D01*
X164122872Y-116341922D01*
X164109677Y-116356498D01*
X164052197Y-116409591D01*
X163958513Y-116477837D01*
X163841825Y-116553080D01*
X163715331Y-116627167D01*
X163592231Y-116691943D01*
X163497713Y-116734561D01*
X163276274Y-116804595D01*
X163022207Y-116854204D01*
X162754266Y-116881494D01*
X162491211Y-116884569D01*
X162251795Y-116861532D01*
X162247853Y-116860873D01*
X161920253Y-116778669D01*
X161613587Y-116647700D01*
X161330814Y-116470780D01*
X161074892Y-116250726D01*
X160848778Y-115990351D01*
X160655430Y-115692472D01*
X160497806Y-115359904D01*
X160411984Y-115113548D01*
X160355389Y-114907445D01*
X160313418Y-114707867D01*
X160284789Y-114502690D01*
X160268218Y-114279791D01*
X160262423Y-114027045D01*
X160264989Y-113820662D01*
X162280325Y-113820662D01*
X162289862Y-114166732D01*
X162319946Y-114464467D01*
X162371503Y-114716510D01*
X162445458Y-114925502D01*
X162542738Y-115094086D01*
X162664266Y-115224906D01*
X162804546Y-115317385D01*
X162877540Y-115351909D01*
X162940847Y-115372607D01*
X163011427Y-115382077D01*
X163106242Y-115382915D01*
X163208387Y-115379228D01*
X163409261Y-115361510D01*
X163568134Y-115326813D01*
X163618064Y-115309433D01*
X163732075Y-115258102D01*
X163852323Y-115193643D01*
X163904838Y-115161376D01*
X164041397Y-115071805D01*
X164041397Y-112232706D01*
X163891182Y-112142665D01*
X163681692Y-112040923D01*
X163467658Y-111980751D01*
X163256909Y-111961796D01*
X163057273Y-111983701D01*
X162876577Y-112046113D01*
X162722649Y-112148676D01*
X162672981Y-112197906D01*
X162553262Y-112359211D01*
X162456364Y-112554471D01*
X162381477Y-112787031D01*
X162327793Y-113060239D01*
X162294500Y-113377441D01*
X162280789Y-113741984D01*
X162280325Y-113820662D01*
X160264989Y-113820662D01*
X160266058Y-113734756D01*
X160289082Y-113285158D01*
X160335378Y-112879628D01*
X160406164Y-112512257D01*
X160502661Y-112177137D01*
X160626087Y-111868363D01*
X160670131Y-111776822D01*
X160847540Y-111478296D01*
X161061930Y-111213007D01*
X161308259Y-110985237D01*
X161581487Y-110799268D01*
X161876574Y-110659382D01*
X162053459Y-110601678D01*
X162227178Y-110567422D01*
X162436205Y-110547041D01*
X162663014Y-110540525D01*
X162890084Y-110547866D01*
X163099892Y-110569055D01*
X163268352Y-110602295D01*
X163468857Y-110667482D01*
X163663195Y-110751307D01*
X163833224Y-110845280D01*
X163923721Y-110909058D01*
X163986144Y-110956484D01*
X164029853Y-110985361D01*
X164039796Y-110989462D01*
X164042879Y-110963041D01*
X164045753Y-110887339D01*
X164048355Y-110767698D01*
X164050621Y-110609462D01*
X164052488Y-110417973D01*
X164053891Y-110198574D01*
X164054767Y-109956607D01*
X164055053Y-109710147D01*
X164054894Y-109394476D01*
X164054108Y-109128337D01*
X164052238Y-108906641D01*
X164048825Y-108724296D01*
X164043409Y-108576212D01*
X164035531Y-108457299D01*
X164024733Y-108362465D01*
X164010555Y-108286620D01*
X163992539Y-108224674D01*
X163970225Y-108171536D01*
X163943154Y-108122115D01*
X163910867Y-108071321D01*
X163906713Y-108065031D01*
X163865071Y-107999245D01*
X163839929Y-107954008D01*
X163836559Y-107944466D01*
X163862903Y-107941455D01*
X163938069Y-107939006D01*
X164056257Y-107937158D01*
X164211669Y-107935951D01*
X164398506Y-107935424D01*
X164610967Y-107935618D01*
G36*
X145577156Y-106104844D02*
X145782258Y-106175957D01*
X145973215Y-106287889D01*
X146143757Y-106440625D01*
X146287613Y-106634151D01*
X146352232Y-106756129D01*
X146408158Y-106926743D01*
X146435265Y-107123711D01*
X146432262Y-107326205D01*
X146398933Y-107509699D01*
X146307838Y-107733924D01*
X146175742Y-107928422D01*
X146009358Y-108089367D01*
X145815402Y-108212933D01*
X145600586Y-108295292D01*
X145371625Y-108332617D01*
X145135233Y-108321082D01*
X145018709Y-108296430D01*
X144791615Y-108208091D01*
X144589919Y-108073290D01*
X144418485Y-107896183D01*
X144282180Y-107680927D01*
X144270648Y-107657419D01*
X144230783Y-107569205D01*
X144205751Y-107494910D01*
X144192161Y-107416535D01*
X144186618Y-107316080D01*
X144185698Y-107206774D01*
X144187220Y-107075448D01*
X144194086Y-106980509D01*
X144209750Y-106903753D01*
X144237667Y-106826974D01*
X144272127Y-106751223D01*
X144400662Y-106536190D01*
X144558948Y-106362080D01*
X144740713Y-106228876D01*
X144939687Y-106136566D01*
X145149600Y-106085134D01*
X145364179Y-106074565D01*
X145577156Y-106104844D01*
X145577156Y-106104844D01*
G37*
X145577156Y-106104844D02*
X145782258Y-106175957D01*
X145973215Y-106287889D01*
X146143757Y-106440625D01*
X146287613Y-106634151D01*
X146352232Y-106756129D01*
X146408158Y-106926743D01*
X146435265Y-107123711D01*
X146432262Y-107326205D01*
X146398933Y-107509699D01*
X146307838Y-107733924D01*
X146175742Y-107928422D01*
X146009358Y-108089367D01*
X145815402Y-108212933D01*
X145600586Y-108295292D01*
X145371625Y-108332617D01*
X145135233Y-108321082D01*
X145018709Y-108296430D01*
X144791615Y-108208091D01*
X144589919Y-108073290D01*
X144418485Y-107896183D01*
X144282180Y-107680927D01*
X144270648Y-107657419D01*
X144230783Y-107569205D01*
X144205751Y-107494910D01*
X144192161Y-107416535D01*
X144186618Y-107316080D01*
X144185698Y-107206774D01*
X144187220Y-107075448D01*
X144194086Y-106980509D01*
X144209750Y-106903753D01*
X144237667Y-106826974D01*
X144272127Y-106751223D01*
X144400662Y-106536190D01*
X144558948Y-106362080D01*
X144740713Y-106228876D01*
X144939687Y-106136566D01*
X145149600Y-106085134D01*
X145364179Y-106074565D01*
X145577156Y-106104844D01*
G36*
X138907623Y-118917114D02*
X138986940Y-118917920D01*
X139219351Y-118923528D01*
X139413994Y-118940185D01*
X139577504Y-118969680D01*
X139716514Y-119013797D01*
X139837659Y-119074325D01*
X139947571Y-119153050D01*
X139986829Y-119187248D01*
X140051951Y-119267265D01*
X140110672Y-119375846D01*
X140155931Y-119496203D01*
X140180665Y-119611547D01*
X140183235Y-119654169D01*
X140167130Y-119772322D01*
X140123973Y-119901382D01*
X140061496Y-120023542D01*
X139987433Y-120120992D01*
X139975403Y-120132750D01*
X139873501Y-120215394D01*
X139761912Y-120279909D01*
X139634202Y-120327983D01*
X139483938Y-120361307D01*
X139304686Y-120381572D01*
X139090013Y-120390469D01*
X138991683Y-120391223D01*
X138866660Y-120390621D01*
X138778738Y-120388104D01*
X138719667Y-120382604D01*
X138681200Y-120373055D01*
X138655088Y-120358389D01*
X138641092Y-120345866D01*
X138627871Y-120330652D01*
X138617500Y-120311025D01*
X138609635Y-120281728D01*
X138603929Y-120237503D01*
X138600039Y-120173092D01*
X138597620Y-120083237D01*
X138596326Y-119962682D01*
X138595814Y-119806167D01*
X138595735Y-119654169D01*
X138595235Y-119451440D01*
X138595343Y-119289491D01*
X138597272Y-119211937D01*
X138890556Y-119211937D01*
X138890556Y-120096402D01*
X139077654Y-120096230D01*
X139190236Y-120093001D01*
X139308148Y-120084683D01*
X139406527Y-120073048D01*
X139409520Y-120072569D01*
X139568520Y-120034127D01*
X139691846Y-119974256D01*
X139785657Y-119889058D01*
X139845263Y-119796814D01*
X139881990Y-119694489D01*
X139879142Y-119598409D01*
X139836518Y-119495419D01*
X139753146Y-119388876D01*
X139637614Y-119309927D01*
X139487443Y-119257156D01*
X139387081Y-119238481D01*
X139273157Y-119225366D01*
X139152415Y-119215873D01*
X139049719Y-119211927D01*
X139043636Y-119211908D01*
X138890556Y-119211937D01*
X138597272Y-119211937D01*
X138598471Y-119163782D01*
X138607034Y-119069771D01*
X138623442Y-119002920D01*
X138650110Y-118958686D01*
X138689449Y-118932529D01*
X138743872Y-118919909D01*
X138815793Y-118916284D01*
X138907623Y-118917114D01*
X138907623Y-118917114D01*
G37*
X138907623Y-118917114D02*
X138986940Y-118917920D01*
X139219351Y-118923528D01*
X139413994Y-118940185D01*
X139577504Y-118969680D01*
X139716514Y-119013797D01*
X139837659Y-119074325D01*
X139947571Y-119153050D01*
X139986829Y-119187248D01*
X140051951Y-119267265D01*
X140110672Y-119375846D01*
X140155931Y-119496203D01*
X140180665Y-119611547D01*
X140183235Y-119654169D01*
X140167130Y-119772322D01*
X140123973Y-119901382D01*
X140061496Y-120023542D01*
X139987433Y-120120992D01*
X139975403Y-120132750D01*
X139873501Y-120215394D01*
X139761912Y-120279909D01*
X139634202Y-120327983D01*
X139483938Y-120361307D01*
X139304686Y-120381572D01*
X139090013Y-120390469D01*
X138991683Y-120391223D01*
X138866660Y-120390621D01*
X138778738Y-120388104D01*
X138719667Y-120382604D01*
X138681200Y-120373055D01*
X138655088Y-120358389D01*
X138641092Y-120345866D01*
X138627871Y-120330652D01*
X138617500Y-120311025D01*
X138609635Y-120281728D01*
X138603929Y-120237503D01*
X138600039Y-120173092D01*
X138597620Y-120083237D01*
X138596326Y-119962682D01*
X138595814Y-119806167D01*
X138595735Y-119654169D01*
X138595235Y-119451440D01*
X138595343Y-119289491D01*
X138597272Y-119211937D01*
X138890556Y-119211937D01*
X138890556Y-120096402D01*
X139077654Y-120096230D01*
X139190236Y-120093001D01*
X139308148Y-120084683D01*
X139406527Y-120073048D01*
X139409520Y-120072569D01*
X139568520Y-120034127D01*
X139691846Y-119974256D01*
X139785657Y-119889058D01*
X139845263Y-119796814D01*
X139881990Y-119694489D01*
X139879142Y-119598409D01*
X139836518Y-119495419D01*
X139753146Y-119388876D01*
X139637614Y-119309927D01*
X139487443Y-119257156D01*
X139387081Y-119238481D01*
X139273157Y-119225366D01*
X139152415Y-119215873D01*
X139049719Y-119211927D01*
X139043636Y-119211908D01*
X138890556Y-119211937D01*
X138597272Y-119211937D01*
X138598471Y-119163782D01*
X138607034Y-119069771D01*
X138623442Y-119002920D01*
X138650110Y-118958686D01*
X138689449Y-118932529D01*
X138743872Y-118919909D01*
X138815793Y-118916284D01*
X138907623Y-118917114D01*
G36*
X141737354Y-118917275D02*
X141876790Y-118918023D01*
X141982037Y-118919763D01*
X142058676Y-118922900D01*
X142112290Y-118927836D01*
X142148463Y-118934976D01*
X142172779Y-118944724D01*
X142190819Y-118957484D01*
X142197351Y-118963356D01*
X142237078Y-119025750D01*
X142244231Y-119097441D01*
X142218097Y-119161087D01*
X142206013Y-119173950D01*
X142186468Y-119186421D01*
X142154997Y-119196043D01*
X142105764Y-119203282D01*
X142032934Y-119208606D01*
X141930671Y-119212485D01*
X141793138Y-119215387D01*
X141667397Y-119217152D01*
X141169752Y-119223277D01*
X141162951Y-119353678D01*
X141156150Y-119484080D01*
X141493945Y-119484080D01*
X141640594Y-119485345D01*
X141747956Y-119490637D01*
X141822063Y-119502201D01*
X141868951Y-119522281D01*
X141894653Y-119553121D01*
X141905204Y-119596967D01*
X141906806Y-119637660D01*
X141901827Y-119687591D01*
X141883036Y-119724383D01*
X141844653Y-119749958D01*
X141780900Y-119766239D01*
X141685996Y-119775149D01*
X141554162Y-119778610D01*
X141482206Y-119778902D01*
X141158413Y-119778902D01*
X141158413Y-120096402D01*
X141657342Y-120096402D01*
X141820887Y-120096629D01*
X141945183Y-120097652D01*
X142036334Y-120099979D01*
X142100448Y-120104118D01*
X142143630Y-120110580D01*
X142171987Y-120119871D01*
X142191625Y-120132502D01*
X142201627Y-120141759D01*
X142235938Y-120195786D01*
X142246985Y-120243812D01*
X142231211Y-120302474D01*
X142201627Y-120345866D01*
X142185844Y-120359526D01*
X142165469Y-120370133D01*
X142135022Y-120378071D01*
X142089023Y-120383726D01*
X142021990Y-120387482D01*
X141928442Y-120389723D01*
X141802900Y-120390834D01*
X141639882Y-120391199D01*
X141555288Y-120391223D01*
X141374132Y-120391063D01*
X141232852Y-120390325D01*
X141125968Y-120388627D01*
X141047998Y-120385582D01*
X140993461Y-120380806D01*
X140956878Y-120373915D01*
X140932767Y-120364524D01*
X140915647Y-120352248D01*
X140908949Y-120345866D01*
X140895692Y-120330605D01*
X140885301Y-120310916D01*
X140877429Y-120281524D01*
X140871727Y-120237153D01*
X140867848Y-120172526D01*
X140865443Y-120082367D01*
X140864164Y-119961401D01*
X140863665Y-119804351D01*
X140863592Y-119658123D01*
X140863659Y-119470857D01*
X140864130Y-119323651D01*
X140865407Y-119211205D01*
X140867891Y-119128222D01*
X140871984Y-119069403D01*
X140878089Y-119029450D01*
X140886608Y-119003064D01*
X140897942Y-118984948D01*
X140912495Y-118969803D01*
X140916080Y-118966426D01*
X140933479Y-118951478D01*
X140953695Y-118939903D01*
X140982336Y-118931268D01*
X141025011Y-118925145D01*
X141087325Y-118921102D01*
X141174888Y-118918709D01*
X141293307Y-118917534D01*
X141448189Y-118917148D01*
X141558143Y-118917116D01*
X141737354Y-118917275D01*
X141737354Y-118917275D01*
G37*
X141737354Y-118917275D02*
X141876790Y-118918023D01*
X141982037Y-118919763D01*
X142058676Y-118922900D01*
X142112290Y-118927836D01*
X142148463Y-118934976D01*
X142172779Y-118944724D01*
X142190819Y-118957484D01*
X142197351Y-118963356D01*
X142237078Y-119025750D01*
X142244231Y-119097441D01*
X142218097Y-119161087D01*
X142206013Y-119173950D01*
X142186468Y-119186421D01*
X142154997Y-119196043D01*
X142105764Y-119203282D01*
X142032934Y-119208606D01*
X141930671Y-119212485D01*
X141793138Y-119215387D01*
X141667397Y-119217152D01*
X141169752Y-119223277D01*
X141162951Y-119353678D01*
X141156150Y-119484080D01*
X141493945Y-119484080D01*
X141640594Y-119485345D01*
X141747956Y-119490637D01*
X141822063Y-119502201D01*
X141868951Y-119522281D01*
X141894653Y-119553121D01*
X141905204Y-119596967D01*
X141906806Y-119637660D01*
X141901827Y-119687591D01*
X141883036Y-119724383D01*
X141844653Y-119749958D01*
X141780900Y-119766239D01*
X141685996Y-119775149D01*
X141554162Y-119778610D01*
X141482206Y-119778902D01*
X141158413Y-119778902D01*
X141158413Y-120096402D01*
X141657342Y-120096402D01*
X141820887Y-120096629D01*
X141945183Y-120097652D01*
X142036334Y-120099979D01*
X142100448Y-120104118D01*
X142143630Y-120110580D01*
X142171987Y-120119871D01*
X142191625Y-120132502D01*
X142201627Y-120141759D01*
X142235938Y-120195786D01*
X142246985Y-120243812D01*
X142231211Y-120302474D01*
X142201627Y-120345866D01*
X142185844Y-120359526D01*
X142165469Y-120370133D01*
X142135022Y-120378071D01*
X142089023Y-120383726D01*
X142021990Y-120387482D01*
X141928442Y-120389723D01*
X141802900Y-120390834D01*
X141639882Y-120391199D01*
X141555288Y-120391223D01*
X141374132Y-120391063D01*
X141232852Y-120390325D01*
X141125968Y-120388627D01*
X141047998Y-120385582D01*
X140993461Y-120380806D01*
X140956878Y-120373915D01*
X140932767Y-120364524D01*
X140915647Y-120352248D01*
X140908949Y-120345866D01*
X140895692Y-120330605D01*
X140885301Y-120310916D01*
X140877429Y-120281524D01*
X140871727Y-120237153D01*
X140867848Y-120172526D01*
X140865443Y-120082367D01*
X140864164Y-119961401D01*
X140863665Y-119804351D01*
X140863592Y-119658123D01*
X140863659Y-119470857D01*
X140864130Y-119323651D01*
X140865407Y-119211205D01*
X140867891Y-119128222D01*
X140871984Y-119069403D01*
X140878089Y-119029450D01*
X140886608Y-119003064D01*
X140897942Y-118984948D01*
X140912495Y-118969803D01*
X140916080Y-118966426D01*
X140933479Y-118951478D01*
X140953695Y-118939903D01*
X140982336Y-118931268D01*
X141025011Y-118925145D01*
X141087325Y-118921102D01*
X141174888Y-118918709D01*
X141293307Y-118917534D01*
X141448189Y-118917148D01*
X141558143Y-118917116D01*
X141737354Y-118917275D01*
G36*
X143788654Y-118919696D02*
X143938952Y-118930203D01*
X144078737Y-118946614D01*
X144199883Y-118968310D01*
X144294266Y-118994673D01*
X144353759Y-119025087D01*
X144362891Y-119034040D01*
X144394645Y-119103511D01*
X144385016Y-119174831D01*
X144335763Y-119235850D01*
X144333413Y-119237598D01*
X144304443Y-119256399D01*
X144274201Y-119266285D01*
X144232019Y-119267486D01*
X144167228Y-119260230D01*
X144069159Y-119244747D01*
X144061270Y-119243444D01*
X143915143Y-119225492D01*
X143757486Y-119216636D01*
X143599364Y-119216550D01*
X143451840Y-119224908D01*
X143325980Y-119241382D01*
X143232848Y-119265646D01*
X143226729Y-119268085D01*
X143159165Y-119305940D01*
X143135427Y-119344250D01*
X143154010Y-119381927D01*
X143213409Y-119417883D01*
X143312119Y-119451029D01*
X143448635Y-119480277D01*
X143539663Y-119494359D01*
X143728882Y-119521446D01*
X143879375Y-119546207D01*
X143997554Y-119570786D01*
X144089829Y-119597328D01*
X144162610Y-119627976D01*
X144222310Y-119664875D01*
X144275338Y-119710168D01*
X144317951Y-119754646D01*
X144368506Y-119816618D01*
X144393385Y-119869907D01*
X144401166Y-119935562D01*
X144401449Y-119959606D01*
X144395605Y-120039394D01*
X144372249Y-120098753D01*
X144331827Y-120151439D01*
X144249676Y-120231977D01*
X144158068Y-120293397D01*
X144050196Y-120337702D01*
X143919255Y-120366895D01*
X143758436Y-120382979D01*
X143560934Y-120387956D01*
X143528324Y-120387872D01*
X143396619Y-120385142D01*
X143266005Y-120378939D01*
X143150719Y-120370153D01*
X143065000Y-120359673D01*
X143058067Y-120358470D01*
X142972841Y-120338281D01*
X142900553Y-120312778D01*
X142859630Y-120289462D01*
X142821546Y-120227952D01*
X142818895Y-120156325D01*
X142851725Y-120092494D01*
X142859070Y-120085276D01*
X142889432Y-120063830D01*
X142927402Y-120054590D01*
X142986168Y-120056163D01*
X143057508Y-120064336D01*
X143137223Y-120071637D01*
X143248971Y-120077797D01*
X143379428Y-120082267D01*
X143515274Y-120084499D01*
X143551002Y-120084646D01*
X143687354Y-120084096D01*
X143787144Y-120081449D01*
X143859152Y-120075786D01*
X143912160Y-120066189D01*
X143954947Y-120051740D01*
X143980660Y-120039705D01*
X144037163Y-120006288D01*
X144073187Y-119976024D01*
X144078452Y-119967445D01*
X144067345Y-119932019D01*
X144014543Y-119897724D01*
X143923704Y-119866117D01*
X143798488Y-119838754D01*
X143761596Y-119832659D01*
X143568902Y-119802393D01*
X143415116Y-119777096D01*
X143294303Y-119754929D01*
X143200525Y-119734053D01*
X143127849Y-119712630D01*
X143070337Y-119688822D01*
X143022055Y-119660791D01*
X142977067Y-119626698D01*
X142929437Y-119584705D01*
X142913409Y-119569982D01*
X142857214Y-119515037D01*
X142827468Y-119471504D01*
X142815831Y-119421688D01*
X142813949Y-119358912D01*
X142834669Y-119235808D01*
X142896591Y-119131214D01*
X142999361Y-119045468D01*
X143142622Y-118978907D01*
X143244842Y-118949052D01*
X143355937Y-118929770D01*
X143489021Y-118918862D01*
X143635968Y-118915710D01*
X143788654Y-118919696D01*
X143788654Y-118919696D01*
G37*
X143788654Y-118919696D02*
X143938952Y-118930203D01*
X144078737Y-118946614D01*
X144199883Y-118968310D01*
X144294266Y-118994673D01*
X144353759Y-119025087D01*
X144362891Y-119034040D01*
X144394645Y-119103511D01*
X144385016Y-119174831D01*
X144335763Y-119235850D01*
X144333413Y-119237598D01*
X144304443Y-119256399D01*
X144274201Y-119266285D01*
X144232019Y-119267486D01*
X144167228Y-119260230D01*
X144069159Y-119244747D01*
X144061270Y-119243444D01*
X143915143Y-119225492D01*
X143757486Y-119216636D01*
X143599364Y-119216550D01*
X143451840Y-119224908D01*
X143325980Y-119241382D01*
X143232848Y-119265646D01*
X143226729Y-119268085D01*
X143159165Y-119305940D01*
X143135427Y-119344250D01*
X143154010Y-119381927D01*
X143213409Y-119417883D01*
X143312119Y-119451029D01*
X143448635Y-119480277D01*
X143539663Y-119494359D01*
X143728882Y-119521446D01*
X143879375Y-119546207D01*
X143997554Y-119570786D01*
X144089829Y-119597328D01*
X144162610Y-119627976D01*
X144222310Y-119664875D01*
X144275338Y-119710168D01*
X144317951Y-119754646D01*
X144368506Y-119816618D01*
X144393385Y-119869907D01*
X144401166Y-119935562D01*
X144401449Y-119959606D01*
X144395605Y-120039394D01*
X144372249Y-120098753D01*
X144331827Y-120151439D01*
X144249676Y-120231977D01*
X144158068Y-120293397D01*
X144050196Y-120337702D01*
X143919255Y-120366895D01*
X143758436Y-120382979D01*
X143560934Y-120387956D01*
X143528324Y-120387872D01*
X143396619Y-120385142D01*
X143266005Y-120378939D01*
X143150719Y-120370153D01*
X143065000Y-120359673D01*
X143058067Y-120358470D01*
X142972841Y-120338281D01*
X142900553Y-120312778D01*
X142859630Y-120289462D01*
X142821546Y-120227952D01*
X142818895Y-120156325D01*
X142851725Y-120092494D01*
X142859070Y-120085276D01*
X142889432Y-120063830D01*
X142927402Y-120054590D01*
X142986168Y-120056163D01*
X143057508Y-120064336D01*
X143137223Y-120071637D01*
X143248971Y-120077797D01*
X143379428Y-120082267D01*
X143515274Y-120084499D01*
X143551002Y-120084646D01*
X143687354Y-120084096D01*
X143787144Y-120081449D01*
X143859152Y-120075786D01*
X143912160Y-120066189D01*
X143954947Y-120051740D01*
X143980660Y-120039705D01*
X144037163Y-120006288D01*
X144073187Y-119976024D01*
X144078452Y-119967445D01*
X144067345Y-119932019D01*
X144014543Y-119897724D01*
X143923704Y-119866117D01*
X143798488Y-119838754D01*
X143761596Y-119832659D01*
X143568902Y-119802393D01*
X143415116Y-119777096D01*
X143294303Y-119754929D01*
X143200525Y-119734053D01*
X143127849Y-119712630D01*
X143070337Y-119688822D01*
X143022055Y-119660791D01*
X142977067Y-119626698D01*
X142929437Y-119584705D01*
X142913409Y-119569982D01*
X142857214Y-119515037D01*
X142827468Y-119471504D01*
X142815831Y-119421688D01*
X142813949Y-119358912D01*
X142834669Y-119235808D01*
X142896591Y-119131214D01*
X142999361Y-119045468D01*
X143142622Y-118978907D01*
X143244842Y-118949052D01*
X143355937Y-118929770D01*
X143489021Y-118918862D01*
X143635968Y-118915710D01*
X143788654Y-118919696D01*
G36*
X145331270Y-118962473D02*
X145344491Y-118977687D01*
X145354861Y-118997314D01*
X145362727Y-119026611D01*
X145368433Y-119070836D01*
X145372323Y-119135247D01*
X145374742Y-119225101D01*
X145376036Y-119345657D01*
X145376548Y-119502171D01*
X145376627Y-119654169D01*
X145376487Y-119842701D01*
X145375838Y-119991133D01*
X145374334Y-120104724D01*
X145371631Y-120188732D01*
X145367384Y-120248413D01*
X145361248Y-120289025D01*
X145352879Y-120315827D01*
X145341931Y-120334076D01*
X145331270Y-120345866D01*
X145264969Y-120385403D01*
X145194324Y-120381854D01*
X145131116Y-120338734D01*
X145116593Y-120321900D01*
X145105243Y-120302367D01*
X145096675Y-120274738D01*
X145090498Y-120233612D01*
X145086322Y-120173591D01*
X145083755Y-120089274D01*
X145082408Y-119975263D01*
X145081888Y-119826157D01*
X145081806Y-119657346D01*
X145081806Y-119028447D01*
X145137472Y-118972781D01*
X145206086Y-118925948D01*
X145272643Y-118924261D01*
X145331270Y-118962473D01*
X145331270Y-118962473D01*
G37*
X145331270Y-118962473D02*
X145344491Y-118977687D01*
X145354861Y-118997314D01*
X145362727Y-119026611D01*
X145368433Y-119070836D01*
X145372323Y-119135247D01*
X145374742Y-119225101D01*
X145376036Y-119345657D01*
X145376548Y-119502171D01*
X145376627Y-119654169D01*
X145376487Y-119842701D01*
X145375838Y-119991133D01*
X145374334Y-120104724D01*
X145371631Y-120188732D01*
X145367384Y-120248413D01*
X145361248Y-120289025D01*
X145352879Y-120315827D01*
X145341931Y-120334076D01*
X145331270Y-120345866D01*
X145264969Y-120385403D01*
X145194324Y-120381854D01*
X145131116Y-120338734D01*
X145116593Y-120321900D01*
X145105243Y-120302367D01*
X145096675Y-120274738D01*
X145090498Y-120233612D01*
X145086322Y-120173591D01*
X145083755Y-120089274D01*
X145082408Y-119975263D01*
X145081888Y-119826157D01*
X145081806Y-119657346D01*
X145081806Y-119028447D01*
X145137472Y-118972781D01*
X145206086Y-118925948D01*
X145272643Y-118924261D01*
X145331270Y-118962473D01*
G36*
X147287447Y-118928229D02*
X147425092Y-118951325D01*
X147530806Y-118987228D01*
X147599580Y-119034501D01*
X147618321Y-119061471D01*
X147637379Y-119124198D01*
X147624554Y-119180945D01*
X147584067Y-119234758D01*
X147521158Y-119259933D01*
X147429877Y-119257888D01*
X147359276Y-119244249D01*
X147202394Y-119218263D01*
X147042066Y-119215793D01*
X146862611Y-119236886D01*
X146813042Y-119245823D01*
X146646177Y-119292869D01*
X146515634Y-119362852D01*
X146422844Y-119454579D01*
X146369239Y-119566857D01*
X146358152Y-119624905D01*
X146365409Y-119742676D01*
X146412261Y-119846873D01*
X146494438Y-119935465D01*
X146607671Y-120006421D01*
X146747691Y-120057710D01*
X146910229Y-120087302D01*
X147091015Y-120093166D01*
X147285782Y-120073271D01*
X147296779Y-120071395D01*
X147374246Y-120056966D01*
X147417198Y-120043029D01*
X147435815Y-120022349D01*
X147440276Y-119987693D01*
X147440377Y-119969341D01*
X147440377Y-119892294D01*
X147302815Y-119892294D01*
X147181338Y-119883973D01*
X147098439Y-119857455D01*
X147050206Y-119810412D01*
X147032724Y-119740513D01*
X147032510Y-119731390D01*
X147042739Y-119671645D01*
X147077812Y-119628984D01*
X147143090Y-119600752D01*
X147243930Y-119584294D01*
X147341605Y-119578243D01*
X147483569Y-119574771D01*
X147586543Y-119580069D01*
X147656773Y-119599616D01*
X147700506Y-119638896D01*
X147723990Y-119703389D01*
X147733471Y-119798577D01*
X147735199Y-119923598D01*
X147732368Y-120063146D01*
X147723853Y-120158070D01*
X147709614Y-120208747D01*
X147706851Y-120212716D01*
X147628670Y-120276039D01*
X147514045Y-120326185D01*
X147370240Y-120362085D01*
X147204524Y-120382667D01*
X147024162Y-120386860D01*
X146836422Y-120373592D01*
X146726002Y-120357295D01*
X146552812Y-120308274D01*
X146391846Y-120228133D01*
X146257076Y-120124121D01*
X146236592Y-120103332D01*
X146170039Y-120015936D01*
X146109989Y-119907621D01*
X146063456Y-119794063D01*
X146037457Y-119690940D01*
X146034324Y-119651334D01*
X146047664Y-119568717D01*
X146083120Y-119465926D01*
X146133889Y-119357729D01*
X146193168Y-119258892D01*
X146245541Y-119192875D01*
X146367994Y-119094675D01*
X146526288Y-119016515D01*
X146714751Y-118960162D01*
X146927710Y-118927386D01*
X147122877Y-118919377D01*
X147287447Y-118928229D01*
X147287447Y-118928229D01*
G37*
X147287447Y-118928229D02*
X147425092Y-118951325D01*
X147530806Y-118987228D01*
X147599580Y-119034501D01*
X147618321Y-119061471D01*
X147637379Y-119124198D01*
X147624554Y-119180945D01*
X147584067Y-119234758D01*
X147521158Y-119259933D01*
X147429877Y-119257888D01*
X147359276Y-119244249D01*
X147202394Y-119218263D01*
X147042066Y-119215793D01*
X146862611Y-119236886D01*
X146813042Y-119245823D01*
X146646177Y-119292869D01*
X146515634Y-119362852D01*
X146422844Y-119454579D01*
X146369239Y-119566857D01*
X146358152Y-119624905D01*
X146365409Y-119742676D01*
X146412261Y-119846873D01*
X146494438Y-119935465D01*
X146607671Y-120006421D01*
X146747691Y-120057710D01*
X146910229Y-120087302D01*
X147091015Y-120093166D01*
X147285782Y-120073271D01*
X147296779Y-120071395D01*
X147374246Y-120056966D01*
X147417198Y-120043029D01*
X147435815Y-120022349D01*
X147440276Y-119987693D01*
X147440377Y-119969341D01*
X147440377Y-119892294D01*
X147302815Y-119892294D01*
X147181338Y-119883973D01*
X147098439Y-119857455D01*
X147050206Y-119810412D01*
X147032724Y-119740513D01*
X147032510Y-119731390D01*
X147042739Y-119671645D01*
X147077812Y-119628984D01*
X147143090Y-119600752D01*
X147243930Y-119584294D01*
X147341605Y-119578243D01*
X147483569Y-119574771D01*
X147586543Y-119580069D01*
X147656773Y-119599616D01*
X147700506Y-119638896D01*
X147723990Y-119703389D01*
X147733471Y-119798577D01*
X147735199Y-119923598D01*
X147732368Y-120063146D01*
X147723853Y-120158070D01*
X147709614Y-120208747D01*
X147706851Y-120212716D01*
X147628670Y-120276039D01*
X147514045Y-120326185D01*
X147370240Y-120362085D01*
X147204524Y-120382667D01*
X147024162Y-120386860D01*
X146836422Y-120373592D01*
X146726002Y-120357295D01*
X146552812Y-120308274D01*
X146391846Y-120228133D01*
X146257076Y-120124121D01*
X146236592Y-120103332D01*
X146170039Y-120015936D01*
X146109989Y-119907621D01*
X146063456Y-119794063D01*
X146037457Y-119690940D01*
X146034324Y-119651334D01*
X146047664Y-119568717D01*
X146083120Y-119465926D01*
X146133889Y-119357729D01*
X146193168Y-119258892D01*
X146245541Y-119192875D01*
X146367994Y-119094675D01*
X146526288Y-119016515D01*
X146714751Y-118960162D01*
X146927710Y-118927386D01*
X147122877Y-118919377D01*
X147287447Y-118928229D01*
G36*
X148593185Y-118925918D02*
X148640527Y-118953690D01*
X148702428Y-118999108D01*
X148782097Y-119064312D01*
X148882740Y-119151440D01*
X149007568Y-119262633D01*
X149159788Y-119400030D01*
X149334038Y-119557999D01*
X149696895Y-119887050D01*
X149708235Y-119445388D01*
X149712329Y-119293357D01*
X149716278Y-119180140D01*
X149720958Y-119099203D01*
X149727241Y-119044016D01*
X149736002Y-119008045D01*
X149748114Y-118984758D01*
X149764451Y-118967622D01*
X149773113Y-118960421D01*
X149842483Y-118922346D01*
X149908493Y-118927913D01*
X149960856Y-118960440D01*
X150014395Y-119003765D01*
X150021054Y-119636482D01*
X150022897Y-119822564D01*
X150023835Y-119968744D01*
X150023543Y-120080474D01*
X150021697Y-120163205D01*
X150017970Y-120222389D01*
X150012040Y-120263476D01*
X150003580Y-120291919D01*
X149992267Y-120313168D01*
X149979720Y-120330211D01*
X149952576Y-120361818D01*
X149925567Y-120382769D01*
X149894950Y-120390811D01*
X149856977Y-120383688D01*
X149807902Y-120359149D01*
X149743980Y-120314937D01*
X149661465Y-120248799D01*
X149556610Y-120158482D01*
X149425669Y-120041731D01*
X149277342Y-119907582D01*
X148744395Y-119424152D01*
X148733056Y-119864370D01*
X148728955Y-120016124D01*
X148724995Y-120129077D01*
X148720299Y-120209775D01*
X148713987Y-120264764D01*
X148705183Y-120300588D01*
X148693008Y-120323793D01*
X148676583Y-120340924D01*
X148668177Y-120347906D01*
X148593886Y-120386257D01*
X148523688Y-120380472D01*
X148462559Y-120331468D01*
X148448575Y-120311753D01*
X148437676Y-120288729D01*
X148429479Y-120256872D01*
X148423600Y-120210658D01*
X148419656Y-120144563D01*
X148417264Y-120053062D01*
X148416041Y-119930634D01*
X148415602Y-119771752D01*
X148415556Y-119654169D01*
X148415703Y-119470256D01*
X148416401Y-119326175D01*
X148418033Y-119216403D01*
X148420981Y-119135416D01*
X148425631Y-119077691D01*
X148432363Y-119037704D01*
X148441563Y-119009930D01*
X148453614Y-118988846D01*
X148462559Y-118976871D01*
X148485234Y-118948503D01*
X148506425Y-118927085D01*
X148529342Y-118914755D01*
X148557192Y-118913653D01*
X148593185Y-118925918D01*
X148593185Y-118925918D01*
G37*
X148593185Y-118925918D02*
X148640527Y-118953690D01*
X148702428Y-118999108D01*
X148782097Y-119064312D01*
X148882740Y-119151440D01*
X149007568Y-119262633D01*
X149159788Y-119400030D01*
X149334038Y-119557999D01*
X149696895Y-119887050D01*
X149708235Y-119445388D01*
X149712329Y-119293357D01*
X149716278Y-119180140D01*
X149720958Y-119099203D01*
X149727241Y-119044016D01*
X149736002Y-119008045D01*
X149748114Y-118984758D01*
X149764451Y-118967622D01*
X149773113Y-118960421D01*
X149842483Y-118922346D01*
X149908493Y-118927913D01*
X149960856Y-118960440D01*
X150014395Y-119003765D01*
X150021054Y-119636482D01*
X150022897Y-119822564D01*
X150023835Y-119968744D01*
X150023543Y-120080474D01*
X150021697Y-120163205D01*
X150017970Y-120222389D01*
X150012040Y-120263476D01*
X150003580Y-120291919D01*
X149992267Y-120313168D01*
X149979720Y-120330211D01*
X149952576Y-120361818D01*
X149925567Y-120382769D01*
X149894950Y-120390811D01*
X149856977Y-120383688D01*
X149807902Y-120359149D01*
X149743980Y-120314937D01*
X149661465Y-120248799D01*
X149556610Y-120158482D01*
X149425669Y-120041731D01*
X149277342Y-119907582D01*
X148744395Y-119424152D01*
X148733056Y-119864370D01*
X148728955Y-120016124D01*
X148724995Y-120129077D01*
X148720299Y-120209775D01*
X148713987Y-120264764D01*
X148705183Y-120300588D01*
X148693008Y-120323793D01*
X148676583Y-120340924D01*
X148668177Y-120347906D01*
X148593886Y-120386257D01*
X148523688Y-120380472D01*
X148462559Y-120331468D01*
X148448575Y-120311753D01*
X148437676Y-120288729D01*
X148429479Y-120256872D01*
X148423600Y-120210658D01*
X148419656Y-120144563D01*
X148417264Y-120053062D01*
X148416041Y-119930634D01*
X148415602Y-119771752D01*
X148415556Y-119654169D01*
X148415703Y-119470256D01*
X148416401Y-119326175D01*
X148418033Y-119216403D01*
X148420981Y-119135416D01*
X148425631Y-119077691D01*
X148432363Y-119037704D01*
X148441563Y-119009930D01*
X148453614Y-118988846D01*
X148462559Y-118976871D01*
X148485234Y-118948503D01*
X148506425Y-118927085D01*
X148529342Y-118914755D01*
X148557192Y-118913653D01*
X148593185Y-118925918D01*
G36*
X151667763Y-118917503D02*
X151821162Y-118919340D01*
X151938715Y-118923634D01*
X152025176Y-118931395D01*
X152085300Y-118943633D01*
X152123840Y-118961358D01*
X152145552Y-118985579D01*
X152155190Y-119017305D01*
X152157508Y-119057546D01*
X152157520Y-119062298D01*
X152155508Y-119107814D01*
X152145995Y-119142992D01*
X152123771Y-119169251D01*
X152083622Y-119188012D01*
X152020336Y-119200696D01*
X151928702Y-119208722D01*
X151803507Y-119213512D01*
X151639539Y-119216484D01*
X151589283Y-119217143D01*
X151102967Y-119223277D01*
X151096165Y-119353678D01*
X151089364Y-119484080D01*
X151427159Y-119484080D01*
X151559127Y-119484567D01*
X151653357Y-119486626D01*
X151717465Y-119491155D01*
X151759064Y-119499053D01*
X151785770Y-119511218D01*
X151805198Y-119528548D01*
X151805322Y-119528686D01*
X151840557Y-119596224D01*
X151839283Y-119669221D01*
X151802304Y-119731448D01*
X151794985Y-119737844D01*
X151769010Y-119754328D01*
X151733417Y-119765796D01*
X151680273Y-119773111D01*
X151601648Y-119777138D01*
X151489610Y-119778740D01*
X151417954Y-119778902D01*
X151091627Y-119778902D01*
X151091627Y-120096402D01*
X151587041Y-120096402D01*
X151750606Y-120096688D01*
X151874817Y-120097857D01*
X151965675Y-120100377D01*
X152029180Y-120104715D01*
X152071333Y-120111337D01*
X152098136Y-120120710D01*
X152115589Y-120133302D01*
X152119987Y-120137875D01*
X152152460Y-120201249D01*
X152154836Y-120273347D01*
X152128195Y-120335858D01*
X152107117Y-120355919D01*
X152085190Y-120366963D01*
X152051215Y-120375508D01*
X151999818Y-120381852D01*
X151925625Y-120386295D01*
X151823261Y-120389136D01*
X151687353Y-120390675D01*
X151512525Y-120391210D01*
X151473000Y-120391223D01*
X151295244Y-120391107D01*
X151157262Y-120390465D01*
X151053476Y-120388857D01*
X150978303Y-120385844D01*
X150926161Y-120380986D01*
X150891471Y-120373844D01*
X150868650Y-120363977D01*
X150852117Y-120350946D01*
X150843047Y-120341589D01*
X150829394Y-120325017D01*
X150818728Y-120304487D01*
X150810680Y-120274616D01*
X150804884Y-120230021D01*
X150800973Y-120165317D01*
X150798577Y-120075120D01*
X150797330Y-119954047D01*
X150796864Y-119796713D01*
X150796806Y-119664291D01*
X150796949Y-119478735D01*
X150797626Y-119333065D01*
X150799212Y-119221811D01*
X150802081Y-119139501D01*
X150806607Y-119080666D01*
X150813164Y-119039834D01*
X150822126Y-119011535D01*
X150833867Y-118990298D01*
X150843809Y-118976871D01*
X150890812Y-118917116D01*
X151473763Y-118917116D01*
X151667763Y-118917503D01*
X151667763Y-118917503D01*
G37*
X151667763Y-118917503D02*
X151821162Y-118919340D01*
X151938715Y-118923634D01*
X152025176Y-118931395D01*
X152085300Y-118943633D01*
X152123840Y-118961358D01*
X152145552Y-118985579D01*
X152155190Y-119017305D01*
X152157508Y-119057546D01*
X152157520Y-119062298D01*
X152155508Y-119107814D01*
X152145995Y-119142992D01*
X152123771Y-119169251D01*
X152083622Y-119188012D01*
X152020336Y-119200696D01*
X151928702Y-119208722D01*
X151803507Y-119213512D01*
X151639539Y-119216484D01*
X151589283Y-119217143D01*
X151102967Y-119223277D01*
X151096165Y-119353678D01*
X151089364Y-119484080D01*
X151427159Y-119484080D01*
X151559127Y-119484567D01*
X151653357Y-119486626D01*
X151717465Y-119491155D01*
X151759064Y-119499053D01*
X151785770Y-119511218D01*
X151805198Y-119528548D01*
X151805322Y-119528686D01*
X151840557Y-119596224D01*
X151839283Y-119669221D01*
X151802304Y-119731448D01*
X151794985Y-119737844D01*
X151769010Y-119754328D01*
X151733417Y-119765796D01*
X151680273Y-119773111D01*
X151601648Y-119777138D01*
X151489610Y-119778740D01*
X151417954Y-119778902D01*
X151091627Y-119778902D01*
X151091627Y-120096402D01*
X151587041Y-120096402D01*
X151750606Y-120096688D01*
X151874817Y-120097857D01*
X151965675Y-120100377D01*
X152029180Y-120104715D01*
X152071333Y-120111337D01*
X152098136Y-120120710D01*
X152115589Y-120133302D01*
X152119987Y-120137875D01*
X152152460Y-120201249D01*
X152154836Y-120273347D01*
X152128195Y-120335858D01*
X152107117Y-120355919D01*
X152085190Y-120366963D01*
X152051215Y-120375508D01*
X151999818Y-120381852D01*
X151925625Y-120386295D01*
X151823261Y-120389136D01*
X151687353Y-120390675D01*
X151512525Y-120391210D01*
X151473000Y-120391223D01*
X151295244Y-120391107D01*
X151157262Y-120390465D01*
X151053476Y-120388857D01*
X150978303Y-120385844D01*
X150926161Y-120380986D01*
X150891471Y-120373844D01*
X150868650Y-120363977D01*
X150852117Y-120350946D01*
X150843047Y-120341589D01*
X150829394Y-120325017D01*
X150818728Y-120304487D01*
X150810680Y-120274616D01*
X150804884Y-120230021D01*
X150800973Y-120165317D01*
X150798577Y-120075120D01*
X150797330Y-119954047D01*
X150796864Y-119796713D01*
X150796806Y-119664291D01*
X150796949Y-119478735D01*
X150797626Y-119333065D01*
X150799212Y-119221811D01*
X150802081Y-119139501D01*
X150806607Y-119080666D01*
X150813164Y-119039834D01*
X150822126Y-119011535D01*
X150833867Y-118990298D01*
X150843809Y-118976871D01*
X150890812Y-118917116D01*
X151473763Y-118917116D01*
X151667763Y-118917503D01*
G36*
X153250730Y-118917534D02*
X153509841Y-118926295D01*
X153730226Y-118952863D01*
X153915519Y-118998828D01*
X154069355Y-119065783D01*
X154195366Y-119155316D01*
X154297187Y-119269019D01*
X154378451Y-119408482D01*
X154380050Y-119411883D01*
X154428549Y-119536702D01*
X154445829Y-119647246D01*
X154431825Y-119758497D01*
X154386468Y-119885433D01*
X154377866Y-119904749D01*
X154319206Y-120017806D01*
X154253280Y-120105165D01*
X154168194Y-120179427D01*
X154052054Y-120253191D01*
X154045307Y-120257042D01*
X153944204Y-120305608D01*
X153829929Y-120341879D01*
X153695141Y-120367106D01*
X153532495Y-120382539D01*
X153334649Y-120389431D01*
X153264747Y-120390030D01*
X152931884Y-120391223D01*
X152884881Y-120331468D01*
X152870938Y-120311819D01*
X152860061Y-120288873D01*
X152851871Y-120257129D01*
X152845987Y-120211082D01*
X152842031Y-120145233D01*
X152840741Y-120096402D01*
X153155377Y-120096402D01*
X153343980Y-120096402D01*
X153454345Y-120093174D01*
X153567641Y-120084681D01*
X153660625Y-120072703D01*
X153666238Y-120071694D01*
X153831390Y-120027388D01*
X153959490Y-119960822D01*
X154054590Y-119868907D01*
X154120743Y-119748555D01*
X154132247Y-119716658D01*
X154143522Y-119666980D01*
X154138640Y-119617900D01*
X154114887Y-119552607D01*
X154100569Y-119520532D01*
X154053682Y-119435297D01*
X153997191Y-119375499D01*
X153935035Y-119333857D01*
X153810532Y-119279668D01*
X153651194Y-119240415D01*
X153465573Y-119217812D01*
X153331136Y-119212837D01*
X153155377Y-119211937D01*
X153155377Y-120096402D01*
X152840741Y-120096402D01*
X152839622Y-120054078D01*
X152838381Y-119932115D01*
X152837928Y-119773841D01*
X152837877Y-119650080D01*
X152837877Y-119028447D01*
X152893543Y-118972781D01*
X152918248Y-118950218D01*
X152944961Y-118934766D01*
X152982264Y-118925098D01*
X153038743Y-118919887D01*
X153122978Y-118917805D01*
X153243555Y-118917524D01*
X153250730Y-118917534D01*
X153250730Y-118917534D01*
G37*
X153250730Y-118917534D02*
X153509841Y-118926295D01*
X153730226Y-118952863D01*
X153915519Y-118998828D01*
X154069355Y-119065783D01*
X154195366Y-119155316D01*
X154297187Y-119269019D01*
X154378451Y-119408482D01*
X154380050Y-119411883D01*
X154428549Y-119536702D01*
X154445829Y-119647246D01*
X154431825Y-119758497D01*
X154386468Y-119885433D01*
X154377866Y-119904749D01*
X154319206Y-120017806D01*
X154253280Y-120105165D01*
X154168194Y-120179427D01*
X154052054Y-120253191D01*
X154045307Y-120257042D01*
X153944204Y-120305608D01*
X153829929Y-120341879D01*
X153695141Y-120367106D01*
X153532495Y-120382539D01*
X153334649Y-120389431D01*
X153264747Y-120390030D01*
X152931884Y-120391223D01*
X152884881Y-120331468D01*
X152870938Y-120311819D01*
X152860061Y-120288873D01*
X152851871Y-120257129D01*
X152845987Y-120211082D01*
X152842031Y-120145233D01*
X152840741Y-120096402D01*
X153155377Y-120096402D01*
X153343980Y-120096402D01*
X153454345Y-120093174D01*
X153567641Y-120084681D01*
X153660625Y-120072703D01*
X153666238Y-120071694D01*
X153831390Y-120027388D01*
X153959490Y-119960822D01*
X154054590Y-119868907D01*
X154120743Y-119748555D01*
X154132247Y-119716658D01*
X154143522Y-119666980D01*
X154138640Y-119617900D01*
X154114887Y-119552607D01*
X154100569Y-119520532D01*
X154053682Y-119435297D01*
X153997191Y-119375499D01*
X153935035Y-119333857D01*
X153810532Y-119279668D01*
X153651194Y-119240415D01*
X153465573Y-119217812D01*
X153331136Y-119212837D01*
X153155377Y-119211937D01*
X153155377Y-120096402D01*
X152840741Y-120096402D01*
X152839622Y-120054078D01*
X152838381Y-119932115D01*
X152837928Y-119773841D01*
X152837877Y-119650080D01*
X152837877Y-119028447D01*
X152893543Y-118972781D01*
X152918248Y-118950218D01*
X152944961Y-118934766D01*
X152982264Y-118925098D01*
X153038743Y-118919887D01*
X153122978Y-118917805D01*
X153243555Y-118917524D01*
X153250730Y-118917534D01*
G36*
X158727785Y-118921068D02*
X158767139Y-118935132D01*
X158768658Y-118935820D01*
X158822100Y-118976604D01*
X158851545Y-119018555D01*
X158857307Y-119038224D01*
X158857022Y-119064360D01*
X158848915Y-119101591D01*
X158831208Y-119154551D01*
X158802124Y-119227868D01*
X158759887Y-119326174D01*
X158702720Y-119454099D01*
X158628846Y-119616275D01*
X158588184Y-119704916D01*
X158514759Y-119863158D01*
X158445831Y-120008680D01*
X158384032Y-120136160D01*
X158331991Y-120240279D01*
X158292341Y-120315716D01*
X158267711Y-120357151D01*
X158262837Y-120362875D01*
X158200478Y-120388125D01*
X158130040Y-120384743D01*
X158073548Y-120354033D01*
X158071246Y-120351535D01*
X158048774Y-120317515D01*
X158011078Y-120251251D01*
X157962806Y-120161272D01*
X157908608Y-120056109D01*
X157889130Y-120017356D01*
X157742102Y-119722863D01*
X157581843Y-120042772D01*
X157524641Y-120153306D01*
X157471571Y-120249167D01*
X157426969Y-120323016D01*
X157395170Y-120367516D01*
X157384393Y-120376952D01*
X157300626Y-120389732D01*
X157231504Y-120362875D01*
X157211171Y-120334172D01*
X157175986Y-120270381D01*
X157128819Y-120177779D01*
X157072540Y-120062643D01*
X157010019Y-119931249D01*
X156944127Y-119789875D01*
X156877734Y-119644797D01*
X156813710Y-119502293D01*
X156754926Y-119368640D01*
X156704252Y-119250114D01*
X156664558Y-119152992D01*
X156638715Y-119083552D01*
X156629592Y-119048070D01*
X156629685Y-119046785D01*
X156651881Y-119002137D01*
X156696246Y-118956663D01*
X156698859Y-118954685D01*
X156753386Y-118923863D01*
X156803821Y-118924161D01*
X156822724Y-118929972D01*
X156845759Y-118942530D01*
X156870220Y-118967234D01*
X156899042Y-119009207D01*
X156935160Y-119073575D01*
X156981508Y-119165463D01*
X157041019Y-119289994D01*
X157094687Y-119404946D01*
X157156432Y-119538195D01*
X157211760Y-119658023D01*
X157257797Y-119758171D01*
X157291670Y-119832378D01*
X157310502Y-119874384D01*
X157313249Y-119880955D01*
X157325602Y-119870213D01*
X157353993Y-119825236D01*
X157394645Y-119752588D01*
X157443779Y-119658834D01*
X157463331Y-119620152D01*
X157529565Y-119489535D01*
X157580644Y-119394411D01*
X157620760Y-119329252D01*
X157654104Y-119288525D01*
X157684869Y-119266701D01*
X157717245Y-119258249D01*
X157738344Y-119257294D01*
X157775562Y-119260592D01*
X157808176Y-119274232D01*
X157840582Y-119303834D01*
X157877176Y-119355016D01*
X157922354Y-119433398D01*
X157980512Y-119544600D01*
X158012600Y-119607858D01*
X158064648Y-119708675D01*
X158110044Y-119792280D01*
X158144780Y-119851620D01*
X158164853Y-119879639D01*
X158167583Y-119880806D01*
X158180546Y-119858754D01*
X158209569Y-119801493D01*
X158251745Y-119715016D01*
X158304168Y-119605316D01*
X158363931Y-119478386D01*
X158393329Y-119415339D01*
X158469808Y-119252630D01*
X158531392Y-119127429D01*
X158581278Y-119035651D01*
X158622663Y-118973210D01*
X158658744Y-118936023D01*
X158692719Y-118920004D01*
X158727785Y-118921068D01*
X158727785Y-118921068D01*
G37*
X158727785Y-118921068D02*
X158767139Y-118935132D01*
X158768658Y-118935820D01*
X158822100Y-118976604D01*
X158851545Y-119018555D01*
X158857307Y-119038224D01*
X158857022Y-119064360D01*
X158848915Y-119101591D01*
X158831208Y-119154551D01*
X158802124Y-119227868D01*
X158759887Y-119326174D01*
X158702720Y-119454099D01*
X158628846Y-119616275D01*
X158588184Y-119704916D01*
X158514759Y-119863158D01*
X158445831Y-120008680D01*
X158384032Y-120136160D01*
X158331991Y-120240279D01*
X158292341Y-120315716D01*
X158267711Y-120357151D01*
X158262837Y-120362875D01*
X158200478Y-120388125D01*
X158130040Y-120384743D01*
X158073548Y-120354033D01*
X158071246Y-120351535D01*
X158048774Y-120317515D01*
X158011078Y-120251251D01*
X157962806Y-120161272D01*
X157908608Y-120056109D01*
X157889130Y-120017356D01*
X157742102Y-119722863D01*
X157581843Y-120042772D01*
X157524641Y-120153306D01*
X157471571Y-120249167D01*
X157426969Y-120323016D01*
X157395170Y-120367516D01*
X157384393Y-120376952D01*
X157300626Y-120389732D01*
X157231504Y-120362875D01*
X157211171Y-120334172D01*
X157175986Y-120270381D01*
X157128819Y-120177779D01*
X157072540Y-120062643D01*
X157010019Y-119931249D01*
X156944127Y-119789875D01*
X156877734Y-119644797D01*
X156813710Y-119502293D01*
X156754926Y-119368640D01*
X156704252Y-119250114D01*
X156664558Y-119152992D01*
X156638715Y-119083552D01*
X156629592Y-119048070D01*
X156629685Y-119046785D01*
X156651881Y-119002137D01*
X156696246Y-118956663D01*
X156698859Y-118954685D01*
X156753386Y-118923863D01*
X156803821Y-118924161D01*
X156822724Y-118929972D01*
X156845759Y-118942530D01*
X156870220Y-118967234D01*
X156899042Y-119009207D01*
X156935160Y-119073575D01*
X156981508Y-119165463D01*
X157041019Y-119289994D01*
X157094687Y-119404946D01*
X157156432Y-119538195D01*
X157211760Y-119658023D01*
X157257797Y-119758171D01*
X157291670Y-119832378D01*
X157310502Y-119874384D01*
X157313249Y-119880955D01*
X157325602Y-119870213D01*
X157353993Y-119825236D01*
X157394645Y-119752588D01*
X157443779Y-119658834D01*
X157463331Y-119620152D01*
X157529565Y-119489535D01*
X157580644Y-119394411D01*
X157620760Y-119329252D01*
X157654104Y-119288525D01*
X157684869Y-119266701D01*
X157717245Y-119258249D01*
X157738344Y-119257294D01*
X157775562Y-119260592D01*
X157808176Y-119274232D01*
X157840582Y-119303834D01*
X157877176Y-119355016D01*
X157922354Y-119433398D01*
X157980512Y-119544600D01*
X158012600Y-119607858D01*
X158064648Y-119708675D01*
X158110044Y-119792280D01*
X158144780Y-119851620D01*
X158164853Y-119879639D01*
X158167583Y-119880806D01*
X158180546Y-119858754D01*
X158209569Y-119801493D01*
X158251745Y-119715016D01*
X158304168Y-119605316D01*
X158363931Y-119478386D01*
X158393329Y-119415339D01*
X158469808Y-119252630D01*
X158531392Y-119127429D01*
X158581278Y-119035651D01*
X158622663Y-118973210D01*
X158658744Y-118936023D01*
X158692719Y-118920004D01*
X158727785Y-118921068D01*
G36*
X159619647Y-118930797D02*
X159667285Y-118960469D01*
X159720824Y-119003823D01*
X159720824Y-119649785D01*
X159720653Y-119838738D01*
X159719923Y-119987604D01*
X159718305Y-120101655D01*
X159715471Y-120186159D01*
X159711092Y-120246386D01*
X159704841Y-120287608D01*
X159696389Y-120315093D01*
X159685408Y-120334113D01*
X159677621Y-120343485D01*
X159614463Y-120384654D01*
X159542543Y-120382975D01*
X159479542Y-120347870D01*
X159426002Y-120304516D01*
X159426002Y-119003823D01*
X159479542Y-118960469D01*
X159531215Y-118928933D01*
X159573413Y-118917116D01*
X159619647Y-118930797D01*
X159619647Y-118930797D01*
G37*
X159619647Y-118930797D02*
X159667285Y-118960469D01*
X159720824Y-119003823D01*
X159720824Y-119649785D01*
X159720653Y-119838738D01*
X159719923Y-119987604D01*
X159718305Y-120101655D01*
X159715471Y-120186159D01*
X159711092Y-120246386D01*
X159704841Y-120287608D01*
X159696389Y-120315093D01*
X159685408Y-120334113D01*
X159677621Y-120343485D01*
X159614463Y-120384654D01*
X159542543Y-120382975D01*
X159479542Y-120347870D01*
X159426002Y-120304516D01*
X159426002Y-119003823D01*
X159479542Y-118960469D01*
X159531215Y-118928933D01*
X159573413Y-118917116D01*
X159619647Y-118930797D01*
G36*
X161175463Y-118917310D02*
X161333581Y-118918070D01*
X161456308Y-118919660D01*
X161548626Y-118922345D01*
X161615519Y-118926390D01*
X161661968Y-118932060D01*
X161692957Y-118939620D01*
X161713468Y-118949335D01*
X161723394Y-118956803D01*
X161774911Y-119022165D01*
X161781143Y-119090028D01*
X161749307Y-119151677D01*
X161728488Y-119176312D01*
X161706085Y-119193110D01*
X161673617Y-119203570D01*
X161622606Y-119209195D01*
X161544570Y-119211483D01*
X161431030Y-119211935D01*
X161408731Y-119211937D01*
X161115556Y-119211937D01*
X161115556Y-119756223D01*
X161115363Y-119927782D01*
X161114486Y-120059789D01*
X161112478Y-120158045D01*
X161108894Y-120228356D01*
X161103287Y-120276523D01*
X161095211Y-120308351D01*
X161084218Y-120329642D01*
X161070199Y-120345866D01*
X161004039Y-120385734D01*
X160934974Y-120382592D01*
X160872340Y-120337105D01*
X160867738Y-120331468D01*
X160852757Y-120310158D01*
X160841343Y-120285225D01*
X160833014Y-120250609D01*
X160827287Y-120200253D01*
X160823679Y-120128098D01*
X160821706Y-120028086D01*
X160820886Y-119894158D01*
X160820735Y-119741825D01*
X160820735Y-119211937D01*
X160540767Y-119211937D01*
X160420622Y-119211124D01*
X160337445Y-119207956D01*
X160282863Y-119201339D01*
X160248506Y-119190179D01*
X160226000Y-119173384D01*
X160223267Y-119170464D01*
X160190406Y-119103690D01*
X160193312Y-119028200D01*
X160231092Y-118962473D01*
X160245702Y-118949724D01*
X160264540Y-118939615D01*
X160292628Y-118931840D01*
X160334990Y-118926095D01*
X160396650Y-118922074D01*
X160482632Y-118919472D01*
X160597958Y-118917982D01*
X160747652Y-118917299D01*
X160936738Y-118917119D01*
X160976972Y-118917116D01*
X161175463Y-118917310D01*
X161175463Y-118917310D01*
G37*
X161175463Y-118917310D02*
X161333581Y-118918070D01*
X161456308Y-118919660D01*
X161548626Y-118922345D01*
X161615519Y-118926390D01*
X161661968Y-118932060D01*
X161692957Y-118939620D01*
X161713468Y-118949335D01*
X161723394Y-118956803D01*
X161774911Y-119022165D01*
X161781143Y-119090028D01*
X161749307Y-119151677D01*
X161728488Y-119176312D01*
X161706085Y-119193110D01*
X161673617Y-119203570D01*
X161622606Y-119209195D01*
X161544570Y-119211483D01*
X161431030Y-119211935D01*
X161408731Y-119211937D01*
X161115556Y-119211937D01*
X161115556Y-119756223D01*
X161115363Y-119927782D01*
X161114486Y-120059789D01*
X161112478Y-120158045D01*
X161108894Y-120228356D01*
X161103287Y-120276523D01*
X161095211Y-120308351D01*
X161084218Y-120329642D01*
X161070199Y-120345866D01*
X161004039Y-120385734D01*
X160934974Y-120382592D01*
X160872340Y-120337105D01*
X160867738Y-120331468D01*
X160852757Y-120310158D01*
X160841343Y-120285225D01*
X160833014Y-120250609D01*
X160827287Y-120200253D01*
X160823679Y-120128098D01*
X160821706Y-120028086D01*
X160820886Y-119894158D01*
X160820735Y-119741825D01*
X160820735Y-119211937D01*
X160540767Y-119211937D01*
X160420622Y-119211124D01*
X160337445Y-119207956D01*
X160282863Y-119201339D01*
X160248506Y-119190179D01*
X160226000Y-119173384D01*
X160223267Y-119170464D01*
X160190406Y-119103690D01*
X160193312Y-119028200D01*
X160231092Y-118962473D01*
X160245702Y-118949724D01*
X160264540Y-118939615D01*
X160292628Y-118931840D01*
X160334990Y-118926095D01*
X160396650Y-118922074D01*
X160482632Y-118919472D01*
X160597958Y-118917982D01*
X160747652Y-118917299D01*
X160936738Y-118917119D01*
X160976972Y-118917116D01*
X161175463Y-118917310D01*
G36*
X163718282Y-118928097D02*
X163781319Y-118972781D01*
X163836985Y-119028447D01*
X163836985Y-119650080D01*
X163836839Y-119834659D01*
X163836150Y-119979383D01*
X163834537Y-120089755D01*
X163831620Y-120171276D01*
X163827022Y-120229449D01*
X163820361Y-120269777D01*
X163811258Y-120297760D01*
X163799334Y-120318903D01*
X163789981Y-120331468D01*
X163728245Y-120380835D01*
X163657357Y-120386193D01*
X163592566Y-120355919D01*
X163571157Y-120338046D01*
X163556846Y-120314305D01*
X163548214Y-120276075D01*
X163543842Y-120214733D01*
X163542310Y-120121660D01*
X163542163Y-120049758D01*
X163542163Y-119778902D01*
X162544306Y-119778902D01*
X162544306Y-120025307D01*
X162543274Y-120137982D01*
X162539146Y-120215418D01*
X162530371Y-120267708D01*
X162515402Y-120304944D01*
X162497303Y-120331468D01*
X162435221Y-120380696D01*
X162365012Y-120386525D01*
X162297799Y-120351535D01*
X162279448Y-120333193D01*
X162266488Y-120308877D01*
X162257939Y-120271001D01*
X162252825Y-120211978D01*
X162250169Y-120124222D01*
X162248991Y-120000146D01*
X162248854Y-119971669D01*
X162247882Y-119737892D01*
X162247381Y-119545228D01*
X162247544Y-119389435D01*
X162248565Y-119266271D01*
X162250637Y-119171493D01*
X162253953Y-119100859D01*
X162258707Y-119050126D01*
X162265091Y-119015052D01*
X162273300Y-118991393D01*
X162283527Y-118974909D01*
X162294842Y-118962473D01*
X162358849Y-118922694D01*
X162425603Y-118928097D01*
X162488640Y-118972781D01*
X162514149Y-119001610D01*
X162530409Y-119033455D01*
X162539481Y-119078808D01*
X162543426Y-119148166D01*
X162544305Y-119252022D01*
X162544306Y-119256264D01*
X162544306Y-119484080D01*
X163542163Y-119484080D01*
X163542163Y-119245955D01*
X163543181Y-119136251D01*
X163547271Y-119062176D01*
X163555985Y-119014027D01*
X163570875Y-118982101D01*
X163587520Y-118962473D01*
X163651527Y-118922694D01*
X163718282Y-118928097D01*
X163718282Y-118928097D01*
G37*
X163718282Y-118928097D02*
X163781319Y-118972781D01*
X163836985Y-119028447D01*
X163836985Y-119650080D01*
X163836839Y-119834659D01*
X163836150Y-119979383D01*
X163834537Y-120089755D01*
X163831620Y-120171276D01*
X163827022Y-120229449D01*
X163820361Y-120269777D01*
X163811258Y-120297760D01*
X163799334Y-120318903D01*
X163789981Y-120331468D01*
X163728245Y-120380835D01*
X163657357Y-120386193D01*
X163592566Y-120355919D01*
X163571157Y-120338046D01*
X163556846Y-120314305D01*
X163548214Y-120276075D01*
X163543842Y-120214733D01*
X163542310Y-120121660D01*
X163542163Y-120049758D01*
X163542163Y-119778902D01*
X162544306Y-119778902D01*
X162544306Y-120025307D01*
X162543274Y-120137982D01*
X162539146Y-120215418D01*
X162530371Y-120267708D01*
X162515402Y-120304944D01*
X162497303Y-120331468D01*
X162435221Y-120380696D01*
X162365012Y-120386525D01*
X162297799Y-120351535D01*
X162279448Y-120333193D01*
X162266488Y-120308877D01*
X162257939Y-120271001D01*
X162252825Y-120211978D01*
X162250169Y-120124222D01*
X162248991Y-120000146D01*
X162248854Y-119971669D01*
X162247882Y-119737892D01*
X162247381Y-119545228D01*
X162247544Y-119389435D01*
X162248565Y-119266271D01*
X162250637Y-119171493D01*
X162253953Y-119100859D01*
X162258707Y-119050126D01*
X162265091Y-119015052D01*
X162273300Y-118991393D01*
X162283527Y-118974909D01*
X162294842Y-118962473D01*
X162358849Y-118922694D01*
X162425603Y-118928097D01*
X162488640Y-118972781D01*
X162514149Y-119001610D01*
X162530409Y-119033455D01*
X162539481Y-119078808D01*
X162543426Y-119148166D01*
X162544305Y-119252022D01*
X162544306Y-119256264D01*
X162544306Y-119484080D01*
X163542163Y-119484080D01*
X163542163Y-119245955D01*
X163543181Y-119136251D01*
X163547271Y-119062176D01*
X163555985Y-119014027D01*
X163570875Y-118982101D01*
X163587520Y-118962473D01*
X163651527Y-118922694D01*
X163718282Y-118928097D01*
D15*
X174000000Y-88925000D02*
X176000000Y-88925000D01*
X176000000Y-91075000D02*
X174000000Y-91075000D01*
X175000000Y-62925000D02*
X177000000Y-62925000D01*
X177000000Y-65075000D02*
X175000000Y-65075000D01*
X175000000Y-42925000D02*
X177000000Y-42925000D01*
X177000000Y-45075000D02*
X175000000Y-45075000D01*
X184150000Y-62950000D02*
X180550000Y-62950000D01*
X184150000Y-65050000D02*
X180550000Y-65050000D01*
X182100000Y-64300000D02*
X182100000Y-63700000D01*
X182100000Y-63700000D02*
X182400000Y-64000000D01*
X182400000Y-64000000D02*
X182200000Y-64200000D01*
X182200000Y-64200000D02*
X182200000Y-63950000D01*
X182200000Y-63950000D02*
X182250000Y-64000000D01*
X182500000Y-64500000D02*
X182500000Y-63500000D01*
X182000000Y-64000000D02*
X181500000Y-64000000D01*
X182500000Y-64000000D02*
X182000000Y-64500000D01*
X182000000Y-64500000D02*
X182000000Y-63500000D01*
X182000000Y-63500000D02*
X182500000Y-64000000D01*
X184150000Y-42950000D02*
X180550000Y-42950000D01*
X184150000Y-45050000D02*
X180550000Y-45050000D01*
X182100000Y-44300000D02*
X182100000Y-43700000D01*
X182100000Y-43700000D02*
X182400000Y-44000000D01*
X182400000Y-44000000D02*
X182200000Y-44200000D01*
X182200000Y-44200000D02*
X182200000Y-43950000D01*
X182200000Y-43950000D02*
X182250000Y-44000000D01*
X182500000Y-44500000D02*
X182500000Y-43500000D01*
X182000000Y-44000000D02*
X181500000Y-44000000D01*
X182500000Y-44000000D02*
X182000000Y-44500000D01*
X182000000Y-44500000D02*
X182000000Y-43500000D01*
X182000000Y-43500000D02*
X182500000Y-44000000D01*
X183150000Y-88950000D02*
X179550000Y-88950000D01*
X183150000Y-91050000D02*
X179550000Y-91050000D01*
X181100000Y-90300000D02*
X181100000Y-89700000D01*
X181100000Y-89700000D02*
X181400000Y-90000000D01*
X181400000Y-90000000D02*
X181200000Y-90200000D01*
X181200000Y-90200000D02*
X181200000Y-89950000D01*
X181200000Y-89950000D02*
X181250000Y-90000000D01*
X181500000Y-90500000D02*
X181500000Y-89500000D01*
X181000000Y-90000000D02*
X180500000Y-90000000D01*
X181500000Y-90000000D02*
X181000000Y-90500000D01*
X181000000Y-90500000D02*
X181000000Y-89500000D01*
X181000000Y-89500000D02*
X181500000Y-90000000D01*
X128500000Y-129730000D02*
X128790000Y-130130000D01*
X128790000Y-130130000D02*
X129000000Y-129760000D01*
X129000000Y-129760000D02*
X128640000Y-129740000D01*
X128640000Y-129740000D02*
X128810000Y-129930000D01*
X128810000Y-129930000D02*
X128830000Y-129840000D01*
X128800000Y-130340000D02*
X128330000Y-129650000D01*
X128330000Y-129650000D02*
X129180000Y-129650000D01*
X129180000Y-129650000D02*
X128800000Y-130340000D01*
X167250000Y-64000000D02*
X166700000Y-64450000D01*
X166700000Y-64450000D02*
X166700000Y-63550000D01*
X166700000Y-63550000D02*
X167250000Y-64000000D01*
X167250000Y-64550000D02*
X167250000Y-63450000D01*
X168799140Y-62249940D02*
X168799140Y-62600460D01*
X168799140Y-65750060D02*
X168799140Y-65399540D01*
X164749560Y-62249940D02*
X164749560Y-62600460D01*
X169250440Y-62249940D02*
X169250440Y-62600460D01*
X169250440Y-65750060D02*
X169250440Y-65399540D01*
X164749560Y-65750060D02*
X164749560Y-65399540D01*
X169250440Y-62249940D02*
X164749560Y-62249940D01*
X169250440Y-65750060D02*
X164749560Y-65750060D01*
X167250000Y-44000000D02*
X166700000Y-44450000D01*
X166700000Y-44450000D02*
X166700000Y-43550000D01*
X166700000Y-43550000D02*
X167250000Y-44000000D01*
X167250000Y-44550000D02*
X167250000Y-43450000D01*
X168799140Y-42249940D02*
X168799140Y-42600460D01*
X168799140Y-45750060D02*
X168799140Y-45399540D01*
X164749560Y-42249940D02*
X164749560Y-42600460D01*
X169250440Y-42249940D02*
X169250440Y-42600460D01*
X169250440Y-45750060D02*
X169250440Y-45399540D01*
X164749560Y-45750060D02*
X164749560Y-45399540D01*
X169250440Y-42249940D02*
X164749560Y-42249940D01*
X169250440Y-45750060D02*
X164749560Y-45750060D01*
X167250000Y-90000000D02*
X166700000Y-90450000D01*
X166700000Y-90450000D02*
X166700000Y-89550000D01*
X166700000Y-89550000D02*
X167250000Y-90000000D01*
X167250000Y-90550000D02*
X167250000Y-89450000D01*
X168799140Y-88249940D02*
X168799140Y-88600460D01*
X168799140Y-91750060D02*
X168799140Y-91399540D01*
X164749560Y-88249940D02*
X164749560Y-88600460D01*
X169250440Y-88249940D02*
X169250440Y-88600460D01*
X169250440Y-91750060D02*
X169250440Y-91399540D01*
X164749560Y-91750060D02*
X164749560Y-91399540D01*
X169250440Y-88249940D02*
X164749560Y-88249940D01*
X169250440Y-91750060D02*
X164749560Y-91750060D01*
D16*
X126254000Y-77318000D02*
X126000000Y-76810000D01*
X125746000Y-77318000D02*
X126254000Y-77318000D01*
X126000000Y-76810000D02*
X125746000Y-77318000D01*
X114260000Y-67290000D02*
X186000000Y-67290000D01*
X114260000Y-67290000D02*
X114260000Y-76170000D01*
X186000000Y-76170000D02*
X186000000Y-67290000D01*
X186000000Y-76170000D02*
X114260000Y-76170000D01*
X126254000Y-58318000D02*
X126000000Y-57810000D01*
X125746000Y-58318000D02*
X126254000Y-58318000D01*
X126000000Y-57810000D02*
X125746000Y-58318000D01*
X114260000Y-48290000D02*
X186000000Y-48290000D01*
X114260000Y-48290000D02*
X114260000Y-57170000D01*
X186000000Y-57170000D02*
X186000000Y-48290000D01*
X186000000Y-57170000D02*
X114260000Y-57170000D01*
X172060000Y-99060000D02*
X172060000Y-94940000D01*
X130000000Y-99060000D02*
X172060000Y-99060000D01*
X127940000Y-94940000D02*
X172060000Y-94940000D01*
X130000000Y-99060000D02*
X130000000Y-97000000D01*
X130000000Y-97000000D02*
X127940000Y-97000000D01*
X127940000Y-97000000D02*
X127940000Y-94940000D01*
X129000000Y-99060000D02*
X127940000Y-99060000D01*
X127940000Y-99060000D02*
X127940000Y-98000000D01*
D15*
X181625000Y-83625000D02*
X181625000Y-83400000D01*
X178375000Y-83625000D02*
X178375000Y-83400000D01*
X178375000Y-80375000D02*
X178375000Y-80600000D01*
X181625000Y-80375000D02*
X181625000Y-80600000D01*
X181625000Y-83625000D02*
X178375000Y-83625000D01*
X181625000Y-80375000D02*
X178375000Y-80375000D01*
X181625000Y-83400000D02*
X182700000Y-83400000D01*
D14*
G36*
X146628886Y-88944505D02*
X146703539Y-88981727D01*
X146769431Y-89050261D01*
X146787577Y-89075648D01*
X146807345Y-89108866D01*
X146820172Y-89144945D01*
X146827510Y-89193098D01*
X146830813Y-89262536D01*
X146831538Y-89354206D01*
X146828263Y-89479830D01*
X146816877Y-89574154D01*
X146795041Y-89644523D01*
X146760419Y-89698286D01*
X146710670Y-89742788D01*
X146707014Y-89745423D01*
X146657985Y-89772377D01*
X146598945Y-89785712D01*
X146523859Y-89789000D01*
X146401795Y-89789000D01*
X146401744Y-89907497D01*
X146400608Y-89973492D01*
X146393686Y-90012202D01*
X146375598Y-90035419D01*
X146340962Y-90054933D01*
X146332645Y-90058920D01*
X146293720Y-90077603D01*
X146263583Y-90089403D01*
X146241174Y-90090422D01*
X146225433Y-90076761D01*
X146215302Y-90044522D01*
X146209723Y-89989804D01*
X146207635Y-89908711D01*
X146207981Y-89797344D01*
X146209700Y-89651802D01*
X146210237Y-89608269D01*
X146212172Y-89458205D01*
X146213904Y-89360042D01*
X146401692Y-89360042D01*
X146402748Y-89443364D01*
X146407438Y-89497880D01*
X146418051Y-89533837D01*
X146436872Y-89561482D01*
X146449650Y-89574965D01*
X146501890Y-89614417D01*
X146548142Y-89617628D01*
X146595867Y-89585049D01*
X146597077Y-89583846D01*
X146616494Y-89558668D01*
X146628307Y-89524447D01*
X146634265Y-89471748D01*
X146636120Y-89391131D01*
X146636154Y-89373271D01*
X146631670Y-89262175D01*
X146617074Y-89185161D01*
X146590650Y-89138147D01*
X146550683Y-89117050D01*
X146527584Y-89114923D01*
X146472762Y-89124900D01*
X146435158Y-89157752D01*
X146412523Y-89217857D01*
X146402606Y-89309598D01*
X146401692Y-89360042D01*
X146213904Y-89360042D01*
X146214222Y-89342060D01*
X146216873Y-89254679D01*
X146220606Y-89190905D01*
X146225907Y-89145582D01*
X146233258Y-89113555D01*
X146243143Y-89089668D01*
X146256046Y-89068764D01*
X146261579Y-89060898D01*
X146334969Y-88986595D01*
X146427760Y-88944467D01*
X146535096Y-88932722D01*
X146628886Y-88944505D01*
X146628886Y-88944505D01*
G37*
X146628886Y-88944505D02*
X146703539Y-88981727D01*
X146769431Y-89050261D01*
X146787577Y-89075648D01*
X146807345Y-89108866D01*
X146820172Y-89144945D01*
X146827510Y-89193098D01*
X146830813Y-89262536D01*
X146831538Y-89354206D01*
X146828263Y-89479830D01*
X146816877Y-89574154D01*
X146795041Y-89644523D01*
X146760419Y-89698286D01*
X146710670Y-89742788D01*
X146707014Y-89745423D01*
X146657985Y-89772377D01*
X146598945Y-89785712D01*
X146523859Y-89789000D01*
X146401795Y-89789000D01*
X146401744Y-89907497D01*
X146400608Y-89973492D01*
X146393686Y-90012202D01*
X146375598Y-90035419D01*
X146340962Y-90054933D01*
X146332645Y-90058920D01*
X146293720Y-90077603D01*
X146263583Y-90089403D01*
X146241174Y-90090422D01*
X146225433Y-90076761D01*
X146215302Y-90044522D01*
X146209723Y-89989804D01*
X146207635Y-89908711D01*
X146207981Y-89797344D01*
X146209700Y-89651802D01*
X146210237Y-89608269D01*
X146212172Y-89458205D01*
X146213904Y-89360042D01*
X146401692Y-89360042D01*
X146402748Y-89443364D01*
X146407438Y-89497880D01*
X146418051Y-89533837D01*
X146436872Y-89561482D01*
X146449650Y-89574965D01*
X146501890Y-89614417D01*
X146548142Y-89617628D01*
X146595867Y-89585049D01*
X146597077Y-89583846D01*
X146616494Y-89558668D01*
X146628307Y-89524447D01*
X146634265Y-89471748D01*
X146636120Y-89391131D01*
X146636154Y-89373271D01*
X146631670Y-89262175D01*
X146617074Y-89185161D01*
X146590650Y-89138147D01*
X146550683Y-89117050D01*
X146527584Y-89114923D01*
X146472762Y-89124900D01*
X146435158Y-89157752D01*
X146412523Y-89217857D01*
X146402606Y-89309598D01*
X146401692Y-89360042D01*
X146213904Y-89360042D01*
X146214222Y-89342060D01*
X146216873Y-89254679D01*
X146220606Y-89190905D01*
X146225907Y-89145582D01*
X146233258Y-89113555D01*
X146243143Y-89089668D01*
X146256046Y-89068764D01*
X146261579Y-89060898D01*
X146334969Y-88986595D01*
X146427760Y-88944467D01*
X146535096Y-88932722D01*
X146628886Y-88944505D01*
G36*
X148131664Y-88955089D02*
X148194367Y-88991358D01*
X148237961Y-89027358D01*
X148269845Y-89065075D01*
X148291810Y-89111199D01*
X148305649Y-89172421D01*
X148313153Y-89255431D01*
X148316117Y-89366919D01*
X148316461Y-89447062D01*
X148316461Y-89742065D01*
X148150385Y-89816515D01*
X148140615Y-89493402D01*
X148136579Y-89372729D01*
X148132344Y-89285141D01*
X148127097Y-89224650D01*
X148120025Y-89185268D01*
X148110311Y-89161007D01*
X148097144Y-89145880D01*
X148092919Y-89142606D01*
X148028909Y-89117034D01*
X147964208Y-89127153D01*
X147925692Y-89154000D01*
X147910025Y-89173024D01*
X147899180Y-89197988D01*
X147892288Y-89235834D01*
X147888479Y-89293502D01*
X147886883Y-89377935D01*
X147886615Y-89465928D01*
X147886563Y-89576323D01*
X147884672Y-89654463D01*
X147878345Y-89707165D01*
X147864983Y-89741242D01*
X147841985Y-89763511D01*
X147806754Y-89780787D01*
X147759697Y-89798738D01*
X147708303Y-89818278D01*
X147714421Y-89471485D01*
X147716884Y-89346468D01*
X147719767Y-89254082D01*
X147723898Y-89187881D01*
X147730107Y-89141420D01*
X147739226Y-89108256D01*
X147752083Y-89081944D01*
X147767584Y-89058729D01*
X147842371Y-88984569D01*
X147933628Y-88941684D01*
X148032883Y-88931412D01*
X148131664Y-88955089D01*
X148131664Y-88955089D01*
G37*
X148131664Y-88955089D02*
X148194367Y-88991358D01*
X148237961Y-89027358D01*
X148269845Y-89065075D01*
X148291810Y-89111199D01*
X148305649Y-89172421D01*
X148313153Y-89255431D01*
X148316117Y-89366919D01*
X148316461Y-89447062D01*
X148316461Y-89742065D01*
X148150385Y-89816515D01*
X148140615Y-89493402D01*
X148136579Y-89372729D01*
X148132344Y-89285141D01*
X148127097Y-89224650D01*
X148120025Y-89185268D01*
X148110311Y-89161007D01*
X148097144Y-89145880D01*
X148092919Y-89142606D01*
X148028909Y-89117034D01*
X147964208Y-89127153D01*
X147925692Y-89154000D01*
X147910025Y-89173024D01*
X147899180Y-89197988D01*
X147892288Y-89235834D01*
X147888479Y-89293502D01*
X147886883Y-89377935D01*
X147886615Y-89465928D01*
X147886563Y-89576323D01*
X147884672Y-89654463D01*
X147878345Y-89707165D01*
X147864983Y-89741242D01*
X147841985Y-89763511D01*
X147806754Y-89780787D01*
X147759697Y-89798738D01*
X147708303Y-89818278D01*
X147714421Y-89471485D01*
X147716884Y-89346468D01*
X147719767Y-89254082D01*
X147723898Y-89187881D01*
X147730107Y-89141420D01*
X147739226Y-89108256D01*
X147752083Y-89081944D01*
X147767584Y-89058729D01*
X147842371Y-88984569D01*
X147933628Y-88941684D01*
X148032883Y-88931412D01*
X148131664Y-88955089D01*
G36*
X145876886Y-88947256D02*
X145968464Y-88995409D01*
X146036049Y-89072905D01*
X146060057Y-89122727D01*
X146078738Y-89197533D01*
X146088301Y-89292052D01*
X146089208Y-89395210D01*
X146081921Y-89495935D01*
X146066903Y-89583153D01*
X146044615Y-89645791D01*
X146037765Y-89656579D01*
X145956632Y-89737105D01*
X145860266Y-89785336D01*
X145755701Y-89799450D01*
X145649968Y-89777629D01*
X145620543Y-89764547D01*
X145563241Y-89724231D01*
X145512950Y-89670775D01*
X145508197Y-89663995D01*
X145488878Y-89631321D01*
X145476108Y-89596394D01*
X145468564Y-89550414D01*
X145464924Y-89484584D01*
X145463865Y-89390105D01*
X145463846Y-89368923D01*
X145463894Y-89362182D01*
X145659231Y-89362182D01*
X145660368Y-89451349D01*
X145664841Y-89510520D01*
X145674246Y-89548741D01*
X145690176Y-89575053D01*
X145698308Y-89583846D01*
X145745058Y-89617261D01*
X145790447Y-89615737D01*
X145836340Y-89586752D01*
X145863712Y-89555809D01*
X145879923Y-89510643D01*
X145889026Y-89439420D01*
X145889651Y-89431114D01*
X145891204Y-89302037D01*
X145874965Y-89206172D01*
X145841152Y-89144107D01*
X145789984Y-89116432D01*
X145771720Y-89114923D01*
X145723760Y-89122513D01*
X145690953Y-89148808D01*
X145670895Y-89199095D01*
X145661178Y-89278664D01*
X145659231Y-89362182D01*
X145463894Y-89362182D01*
X145464574Y-89268249D01*
X145467629Y-89197906D01*
X145474322Y-89149163D01*
X145485960Y-89113288D01*
X145503853Y-89081548D01*
X145507808Y-89075648D01*
X145574267Y-88996104D01*
X145646685Y-88949929D01*
X145734849Y-88931599D01*
X145764787Y-88930703D01*
X145876886Y-88947256D01*
X145876886Y-88947256D01*
G37*
X145876886Y-88947256D02*
X145968464Y-88995409D01*
X146036049Y-89072905D01*
X146060057Y-89122727D01*
X146078738Y-89197533D01*
X146088301Y-89292052D01*
X146089208Y-89395210D01*
X146081921Y-89495935D01*
X146066903Y-89583153D01*
X146044615Y-89645791D01*
X146037765Y-89656579D01*
X145956632Y-89737105D01*
X145860266Y-89785336D01*
X145755701Y-89799450D01*
X145649968Y-89777629D01*
X145620543Y-89764547D01*
X145563241Y-89724231D01*
X145512950Y-89670775D01*
X145508197Y-89663995D01*
X145488878Y-89631321D01*
X145476108Y-89596394D01*
X145468564Y-89550414D01*
X145464924Y-89484584D01*
X145463865Y-89390105D01*
X145463846Y-89368923D01*
X145463894Y-89362182D01*
X145659231Y-89362182D01*
X145660368Y-89451349D01*
X145664841Y-89510520D01*
X145674246Y-89548741D01*
X145690176Y-89575053D01*
X145698308Y-89583846D01*
X145745058Y-89617261D01*
X145790447Y-89615737D01*
X145836340Y-89586752D01*
X145863712Y-89555809D01*
X145879923Y-89510643D01*
X145889026Y-89439420D01*
X145889651Y-89431114D01*
X145891204Y-89302037D01*
X145874965Y-89206172D01*
X145841152Y-89144107D01*
X145789984Y-89116432D01*
X145771720Y-89114923D01*
X145723760Y-89122513D01*
X145690953Y-89148808D01*
X145670895Y-89199095D01*
X145661178Y-89278664D01*
X145659231Y-89362182D01*
X145463894Y-89362182D01*
X145464574Y-89268249D01*
X145467629Y-89197906D01*
X145474322Y-89149163D01*
X145485960Y-89113288D01*
X145503853Y-89081548D01*
X145507808Y-89075648D01*
X145574267Y-88996104D01*
X145646685Y-88949929D01*
X145734849Y-88931599D01*
X145764787Y-88930703D01*
X145876886Y-88947256D01*
G36*
X147394254Y-88959745D02*
X147471286Y-89011567D01*
X147530816Y-89086412D01*
X147566378Y-89181654D01*
X147573571Y-89251756D01*
X147572754Y-89281009D01*
X147565914Y-89303407D01*
X147547112Y-89323474D01*
X147510408Y-89345733D01*
X147449862Y-89374709D01*
X147359534Y-89414927D01*
X147359077Y-89415129D01*
X147275933Y-89453210D01*
X147207753Y-89487025D01*
X147161505Y-89512933D01*
X147144158Y-89527295D01*
X147144154Y-89527411D01*
X147159443Y-89558685D01*
X147195196Y-89593157D01*
X147236242Y-89617990D01*
X147257037Y-89622923D01*
X147313770Y-89605862D01*
X147362627Y-89563133D01*
X147386465Y-89516155D01*
X147409397Y-89481522D01*
X147454318Y-89442081D01*
X147507123Y-89408009D01*
X147553710Y-89389480D01*
X147563452Y-89388462D01*
X147574418Y-89405215D01*
X147575079Y-89448039D01*
X147567020Y-89505781D01*
X147551827Y-89567289D01*
X147531086Y-89621409D01*
X147530038Y-89623510D01*
X147467621Y-89710660D01*
X147386726Y-89769939D01*
X147294856Y-89799034D01*
X147199513Y-89795634D01*
X147108198Y-89757428D01*
X147104138Y-89754741D01*
X147032306Y-89689642D01*
X146985073Y-89604705D01*
X146958934Y-89493021D01*
X146955426Y-89461643D01*
X146949213Y-89313536D01*
X146956661Y-89244468D01*
X147144154Y-89244468D01*
X147146590Y-89287552D01*
X147159914Y-89300126D01*
X147193132Y-89290719D01*
X147245494Y-89268483D01*
X147304024Y-89240610D01*
X147305479Y-89239872D01*
X147355089Y-89213777D01*
X147375000Y-89196363D01*
X147370090Y-89178107D01*
X147349416Y-89154120D01*
X147296819Y-89119406D01*
X147240177Y-89116856D01*
X147189369Y-89142119D01*
X147154276Y-89190847D01*
X147144154Y-89244468D01*
X146956661Y-89244468D01*
X146961992Y-89195036D01*
X146994778Y-89101055D01*
X147040421Y-89035215D01*
X147122802Y-88968681D01*
X147213546Y-88935676D01*
X147306185Y-88933573D01*
X147394254Y-88959745D01*
X147394254Y-88959745D01*
G37*
X147394254Y-88959745D02*
X147471286Y-89011567D01*
X147530816Y-89086412D01*
X147566378Y-89181654D01*
X147573571Y-89251756D01*
X147572754Y-89281009D01*
X147565914Y-89303407D01*
X147547112Y-89323474D01*
X147510408Y-89345733D01*
X147449862Y-89374709D01*
X147359534Y-89414927D01*
X147359077Y-89415129D01*
X147275933Y-89453210D01*
X147207753Y-89487025D01*
X147161505Y-89512933D01*
X147144158Y-89527295D01*
X147144154Y-89527411D01*
X147159443Y-89558685D01*
X147195196Y-89593157D01*
X147236242Y-89617990D01*
X147257037Y-89622923D01*
X147313770Y-89605862D01*
X147362627Y-89563133D01*
X147386465Y-89516155D01*
X147409397Y-89481522D01*
X147454318Y-89442081D01*
X147507123Y-89408009D01*
X147553710Y-89389480D01*
X147563452Y-89388462D01*
X147574418Y-89405215D01*
X147575079Y-89448039D01*
X147567020Y-89505781D01*
X147551827Y-89567289D01*
X147531086Y-89621409D01*
X147530038Y-89623510D01*
X147467621Y-89710660D01*
X147386726Y-89769939D01*
X147294856Y-89799034D01*
X147199513Y-89795634D01*
X147108198Y-89757428D01*
X147104138Y-89754741D01*
X147032306Y-89689642D01*
X146985073Y-89604705D01*
X146958934Y-89493021D01*
X146955426Y-89461643D01*
X146949213Y-89313536D01*
X146956661Y-89244468D01*
X147144154Y-89244468D01*
X147146590Y-89287552D01*
X147159914Y-89300126D01*
X147193132Y-89290719D01*
X147245494Y-89268483D01*
X147304024Y-89240610D01*
X147305479Y-89239872D01*
X147355089Y-89213777D01*
X147375000Y-89196363D01*
X147370090Y-89178107D01*
X147349416Y-89154120D01*
X147296819Y-89119406D01*
X147240177Y-89116856D01*
X147189369Y-89142119D01*
X147154276Y-89190847D01*
X147144154Y-89244468D01*
X146956661Y-89244468D01*
X146961992Y-89195036D01*
X146994778Y-89101055D01*
X147040421Y-89035215D01*
X147122802Y-88968681D01*
X147213546Y-88935676D01*
X147306185Y-88933573D01*
X147394254Y-88959745D01*
G36*
X149019846Y-88852120D02*
X149025572Y-88931980D01*
X149032149Y-88979039D01*
X149041262Y-88999566D01*
X149054598Y-88999829D01*
X149058923Y-88997378D01*
X149116444Y-88979636D01*
X149191268Y-88980672D01*
X149267339Y-88998910D01*
X149314918Y-89022505D01*
X149363702Y-89060198D01*
X149399364Y-89102855D01*
X149423845Y-89157057D01*
X149439087Y-89229384D01*
X149447030Y-89326419D01*
X149449616Y-89454742D01*
X149449662Y-89479358D01*
X149449692Y-89755870D01*
X149388161Y-89777320D01*
X149344459Y-89791912D01*
X149320482Y-89798706D01*
X149319777Y-89798769D01*
X149317415Y-89780345D01*
X149315406Y-89729526D01*
X149313901Y-89652993D01*
X149313053Y-89557430D01*
X149312923Y-89499329D01*
X149312651Y-89384771D01*
X149311252Y-89302667D01*
X149307849Y-89246393D01*
X149301567Y-89209326D01*
X149291529Y-89184844D01*
X149276861Y-89166325D01*
X149267702Y-89157406D01*
X149204789Y-89121466D01*
X149136136Y-89118775D01*
X149073848Y-89149170D01*
X149062329Y-89160144D01*
X149045433Y-89180779D01*
X149033714Y-89205256D01*
X149026233Y-89240647D01*
X149022054Y-89294026D01*
X149020237Y-89372466D01*
X149019846Y-89480617D01*
X149019846Y-89755870D01*
X148958315Y-89777320D01*
X148914613Y-89791912D01*
X148890636Y-89798706D01*
X148889930Y-89798769D01*
X148888126Y-89780069D01*
X148886500Y-89727322D01*
X148885117Y-89645557D01*
X148884042Y-89539805D01*
X148883340Y-89415094D01*
X148883077Y-89276455D01*
X148883077Y-88741806D01*
X149010077Y-88688236D01*
X149019846Y-88852120D01*
X149019846Y-88852120D01*
G37*
X149019846Y-88852120D02*
X149025572Y-88931980D01*
X149032149Y-88979039D01*
X149041262Y-88999566D01*
X149054598Y-88999829D01*
X149058923Y-88997378D01*
X149116444Y-88979636D01*
X149191268Y-88980672D01*
X149267339Y-88998910D01*
X149314918Y-89022505D01*
X149363702Y-89060198D01*
X149399364Y-89102855D01*
X149423845Y-89157057D01*
X149439087Y-89229384D01*
X149447030Y-89326419D01*
X149449616Y-89454742D01*
X149449662Y-89479358D01*
X149449692Y-89755870D01*
X149388161Y-89777320D01*
X149344459Y-89791912D01*
X149320482Y-89798706D01*
X149319777Y-89798769D01*
X149317415Y-89780345D01*
X149315406Y-89729526D01*
X149313901Y-89652993D01*
X149313053Y-89557430D01*
X149312923Y-89499329D01*
X149312651Y-89384771D01*
X149311252Y-89302667D01*
X149307849Y-89246393D01*
X149301567Y-89209326D01*
X149291529Y-89184844D01*
X149276861Y-89166325D01*
X149267702Y-89157406D01*
X149204789Y-89121466D01*
X149136136Y-89118775D01*
X149073848Y-89149170D01*
X149062329Y-89160144D01*
X149045433Y-89180779D01*
X149033714Y-89205256D01*
X149026233Y-89240647D01*
X149022054Y-89294026D01*
X149020237Y-89372466D01*
X149019846Y-89480617D01*
X149019846Y-89755870D01*
X148958315Y-89777320D01*
X148914613Y-89791912D01*
X148890636Y-89798706D01*
X148889930Y-89798769D01*
X148888126Y-89780069D01*
X148886500Y-89727322D01*
X148885117Y-89645557D01*
X148884042Y-89539805D01*
X148883340Y-89415094D01*
X148883077Y-89276455D01*
X148883077Y-88741806D01*
X149010077Y-88688236D01*
X149019846Y-88852120D01*
G36*
X149913501Y-88986303D02*
X149990060Y-89014733D01*
X149990936Y-89015279D01*
X150038285Y-89050127D01*
X150073241Y-89090852D01*
X150097825Y-89143925D01*
X150114062Y-89215814D01*
X150123975Y-89312992D01*
X150129586Y-89441928D01*
X150130077Y-89460298D01*
X150137141Y-89737287D01*
X150077695Y-89768028D01*
X150034681Y-89788802D01*
X150008710Y-89798646D01*
X150007509Y-89798769D01*
X150003014Y-89780606D01*
X149999444Y-89731612D01*
X149997248Y-89660031D01*
X149996769Y-89602068D01*
X149996758Y-89508170D01*
X149992466Y-89449203D01*
X149977503Y-89421079D01*
X149945482Y-89419706D01*
X149890014Y-89440998D01*
X149806269Y-89480136D01*
X149744689Y-89512643D01*
X149713017Y-89540845D01*
X149703706Y-89571582D01*
X149703692Y-89573104D01*
X149719057Y-89626054D01*
X149764547Y-89654660D01*
X149834166Y-89658803D01*
X149884313Y-89658084D01*
X149910754Y-89672527D01*
X149927243Y-89707218D01*
X149936733Y-89751416D01*
X149923057Y-89776493D01*
X149917907Y-89780082D01*
X149869425Y-89794496D01*
X149801531Y-89796537D01*
X149731612Y-89786983D01*
X149682068Y-89769522D01*
X149613570Y-89711364D01*
X149574634Y-89630408D01*
X149566923Y-89567160D01*
X149572807Y-89510111D01*
X149594101Y-89463542D01*
X149636265Y-89422181D01*
X149704759Y-89380755D01*
X149805044Y-89333993D01*
X149811154Y-89331350D01*
X149901490Y-89289617D01*
X149957235Y-89255391D01*
X149981129Y-89224635D01*
X149975913Y-89193311D01*
X149944328Y-89157383D01*
X149934883Y-89149116D01*
X149871617Y-89117058D01*
X149806064Y-89118407D01*
X149748972Y-89149838D01*
X149711093Y-89208024D01*
X149707574Y-89219446D01*
X149673300Y-89274837D01*
X149629809Y-89301518D01*
X149566923Y-89327960D01*
X149566923Y-89259548D01*
X149586052Y-89160110D01*
X149642831Y-89068902D01*
X149672378Y-89038389D01*
X149739542Y-88999228D01*
X149824956Y-88981500D01*
X149913501Y-88986303D01*
X149913501Y-88986303D01*
G37*
X149913501Y-88986303D02*
X149990060Y-89014733D01*
X149990936Y-89015279D01*
X150038285Y-89050127D01*
X150073241Y-89090852D01*
X150097825Y-89143925D01*
X150114062Y-89215814D01*
X150123975Y-89312992D01*
X150129586Y-89441928D01*
X150130077Y-89460298D01*
X150137141Y-89737287D01*
X150077695Y-89768028D01*
X150034681Y-89788802D01*
X150008710Y-89798646D01*
X150007509Y-89798769D01*
X150003014Y-89780606D01*
X149999444Y-89731612D01*
X149997248Y-89660031D01*
X149996769Y-89602068D01*
X149996758Y-89508170D01*
X149992466Y-89449203D01*
X149977503Y-89421079D01*
X149945482Y-89419706D01*
X149890014Y-89440998D01*
X149806269Y-89480136D01*
X149744689Y-89512643D01*
X149713017Y-89540845D01*
X149703706Y-89571582D01*
X149703692Y-89573104D01*
X149719057Y-89626054D01*
X149764547Y-89654660D01*
X149834166Y-89658803D01*
X149884313Y-89658084D01*
X149910754Y-89672527D01*
X149927243Y-89707218D01*
X149936733Y-89751416D01*
X149923057Y-89776493D01*
X149917907Y-89780082D01*
X149869425Y-89794496D01*
X149801531Y-89796537D01*
X149731612Y-89786983D01*
X149682068Y-89769522D01*
X149613570Y-89711364D01*
X149574634Y-89630408D01*
X149566923Y-89567160D01*
X149572807Y-89510111D01*
X149594101Y-89463542D01*
X149636265Y-89422181D01*
X149704759Y-89380755D01*
X149805044Y-89333993D01*
X149811154Y-89331350D01*
X149901490Y-89289617D01*
X149957235Y-89255391D01*
X149981129Y-89224635D01*
X149975913Y-89193311D01*
X149944328Y-89157383D01*
X149934883Y-89149116D01*
X149871617Y-89117058D01*
X149806064Y-89118407D01*
X149748972Y-89149838D01*
X149711093Y-89208024D01*
X149707574Y-89219446D01*
X149673300Y-89274837D01*
X149629809Y-89301518D01*
X149566923Y-89327960D01*
X149566923Y-89259548D01*
X149586052Y-89160110D01*
X149642831Y-89068902D01*
X149672378Y-89038389D01*
X149739542Y-88999228D01*
X149824956Y-88981500D01*
X149913501Y-88986303D01*
G36*
X150573362Y-88984670D02*
X150662117Y-89017421D01*
X150734022Y-89075350D01*
X150762144Y-89116128D01*
X150792802Y-89190954D01*
X150792165Y-89245058D01*
X150759987Y-89281446D01*
X150748081Y-89287633D01*
X150696675Y-89306925D01*
X150670422Y-89301982D01*
X150661530Y-89269587D01*
X150661077Y-89251692D01*
X150644797Y-89185859D01*
X150602365Y-89139807D01*
X150543388Y-89117564D01*
X150477475Y-89123161D01*
X150423895Y-89152229D01*
X150405798Y-89168810D01*
X150392971Y-89188925D01*
X150384306Y-89219332D01*
X150378696Y-89266788D01*
X150375035Y-89338050D01*
X150372215Y-89439875D01*
X150371484Y-89472115D01*
X150368820Y-89582410D01*
X150365792Y-89660036D01*
X150361250Y-89711396D01*
X150354046Y-89742890D01*
X150343033Y-89760920D01*
X150327060Y-89771888D01*
X150316834Y-89776733D01*
X150273406Y-89793301D01*
X150247842Y-89798769D01*
X150239395Y-89780507D01*
X150234239Y-89725296D01*
X150232346Y-89632499D01*
X150233689Y-89501478D01*
X150234107Y-89481269D01*
X150237058Y-89361733D01*
X150240548Y-89274449D01*
X150245514Y-89212591D01*
X150252893Y-89169336D01*
X150263624Y-89137860D01*
X150278645Y-89111339D01*
X150286502Y-89099975D01*
X150331553Y-89049692D01*
X150381940Y-89010581D01*
X150388108Y-89007167D01*
X150478458Y-88980212D01*
X150573362Y-88984670D01*
X150573362Y-88984670D01*
G37*
X150573362Y-88984670D02*
X150662117Y-89017421D01*
X150734022Y-89075350D01*
X150762144Y-89116128D01*
X150792802Y-89190954D01*
X150792165Y-89245058D01*
X150759987Y-89281446D01*
X150748081Y-89287633D01*
X150696675Y-89306925D01*
X150670422Y-89301982D01*
X150661530Y-89269587D01*
X150661077Y-89251692D01*
X150644797Y-89185859D01*
X150602365Y-89139807D01*
X150543388Y-89117564D01*
X150477475Y-89123161D01*
X150423895Y-89152229D01*
X150405798Y-89168810D01*
X150392971Y-89188925D01*
X150384306Y-89219332D01*
X150378696Y-89266788D01*
X150375035Y-89338050D01*
X150372215Y-89439875D01*
X150371484Y-89472115D01*
X150368820Y-89582410D01*
X150365792Y-89660036D01*
X150361250Y-89711396D01*
X150354046Y-89742890D01*
X150343033Y-89760920D01*
X150327060Y-89771888D01*
X150316834Y-89776733D01*
X150273406Y-89793301D01*
X150247842Y-89798769D01*
X150239395Y-89780507D01*
X150234239Y-89725296D01*
X150232346Y-89632499D01*
X150233689Y-89501478D01*
X150234107Y-89481269D01*
X150237058Y-89361733D01*
X150240548Y-89274449D01*
X150245514Y-89212591D01*
X150252893Y-89169336D01*
X150263624Y-89137860D01*
X150278645Y-89111339D01*
X150286502Y-89099975D01*
X150331553Y-89049692D01*
X150381940Y-89010581D01*
X150388108Y-89007167D01*
X150478458Y-88980212D01*
X150573362Y-88984670D01*
G36*
X151462081Y-89140289D02*
X151461833Y-89286320D01*
X151460872Y-89398655D01*
X151458794Y-89482678D01*
X151455193Y-89543769D01*
X151449665Y-89587309D01*
X151441804Y-89618679D01*
X151431207Y-89643262D01*
X151423182Y-89657294D01*
X151356728Y-89733388D01*
X151272470Y-89781084D01*
X151179249Y-89798199D01*
X151085900Y-89782546D01*
X151030312Y-89754418D01*
X150971957Y-89705760D01*
X150932186Y-89646333D01*
X150908190Y-89568507D01*
X150897161Y-89464652D01*
X150895599Y-89388462D01*
X150895809Y-89382986D01*
X151032308Y-89382986D01*
X151033141Y-89470355D01*
X151036961Y-89528192D01*
X151045746Y-89566029D01*
X151061474Y-89593398D01*
X151080266Y-89614042D01*
X151143375Y-89653890D01*
X151211137Y-89657295D01*
X151275179Y-89624025D01*
X151280164Y-89619517D01*
X151301439Y-89596067D01*
X151314779Y-89568166D01*
X151322001Y-89526641D01*
X151324923Y-89462316D01*
X151325385Y-89391200D01*
X151324383Y-89301858D01*
X151320238Y-89242258D01*
X151311236Y-89203089D01*
X151295667Y-89175040D01*
X151282902Y-89160144D01*
X151223600Y-89122575D01*
X151155301Y-89118057D01*
X151090110Y-89146753D01*
X151077528Y-89157406D01*
X151056111Y-89181063D01*
X151042744Y-89209251D01*
X151035566Y-89251245D01*
X151032719Y-89316319D01*
X151032308Y-89382986D01*
X150895809Y-89382986D01*
X150900322Y-89265765D01*
X150916362Y-89173577D01*
X150946528Y-89104269D01*
X150993629Y-89050211D01*
X151030312Y-89022505D01*
X151096990Y-88992572D01*
X151174272Y-88978678D01*
X151246110Y-88982397D01*
X151286308Y-88997400D01*
X151302082Y-89001670D01*
X151312550Y-88985750D01*
X151319856Y-88943089D01*
X151325385Y-88878106D01*
X151331437Y-88805732D01*
X151339844Y-88762187D01*
X151355141Y-88737287D01*
X151381864Y-88720845D01*
X151398654Y-88713564D01*
X151462154Y-88686963D01*
X151462081Y-89140289D01*
X151462081Y-89140289D01*
G37*
X151462081Y-89140289D02*
X151461833Y-89286320D01*
X151460872Y-89398655D01*
X151458794Y-89482678D01*
X151455193Y-89543769D01*
X151449665Y-89587309D01*
X151441804Y-89618679D01*
X151431207Y-89643262D01*
X151423182Y-89657294D01*
X151356728Y-89733388D01*
X151272470Y-89781084D01*
X151179249Y-89798199D01*
X151085900Y-89782546D01*
X151030312Y-89754418D01*
X150971957Y-89705760D01*
X150932186Y-89646333D01*
X150908190Y-89568507D01*
X150897161Y-89464652D01*
X150895599Y-89388462D01*
X150895809Y-89382986D01*
X151032308Y-89382986D01*
X151033141Y-89470355D01*
X151036961Y-89528192D01*
X151045746Y-89566029D01*
X151061474Y-89593398D01*
X151080266Y-89614042D01*
X151143375Y-89653890D01*
X151211137Y-89657295D01*
X151275179Y-89624025D01*
X151280164Y-89619517D01*
X151301439Y-89596067D01*
X151314779Y-89568166D01*
X151322001Y-89526641D01*
X151324923Y-89462316D01*
X151325385Y-89391200D01*
X151324383Y-89301858D01*
X151320238Y-89242258D01*
X151311236Y-89203089D01*
X151295667Y-89175040D01*
X151282902Y-89160144D01*
X151223600Y-89122575D01*
X151155301Y-89118057D01*
X151090110Y-89146753D01*
X151077528Y-89157406D01*
X151056111Y-89181063D01*
X151042744Y-89209251D01*
X151035566Y-89251245D01*
X151032719Y-89316319D01*
X151032308Y-89382986D01*
X150895809Y-89382986D01*
X150900322Y-89265765D01*
X150916362Y-89173577D01*
X150946528Y-89104269D01*
X150993629Y-89050211D01*
X151030312Y-89022505D01*
X151096990Y-88992572D01*
X151174272Y-88978678D01*
X151246110Y-88982397D01*
X151286308Y-88997400D01*
X151302082Y-89001670D01*
X151312550Y-88985750D01*
X151319856Y-88943089D01*
X151325385Y-88878106D01*
X151331437Y-88805732D01*
X151339844Y-88762187D01*
X151355141Y-88737287D01*
X151381864Y-88720845D01*
X151398654Y-88713564D01*
X151462154Y-88686963D01*
X151462081Y-89140289D01*
G36*
X152255929Y-88996662D02*
X152258911Y-89048068D01*
X152261247Y-89126192D01*
X152262749Y-89224857D01*
X152263231Y-89328343D01*
X152263231Y-89678533D01*
X152201401Y-89740363D01*
X152158793Y-89778462D01*
X152121390Y-89793895D01*
X152070270Y-89792918D01*
X152049978Y-89790433D01*
X151986554Y-89783200D01*
X151934095Y-89779055D01*
X151921308Y-89778672D01*
X151878199Y-89781176D01*
X151816544Y-89787462D01*
X151792638Y-89790433D01*
X151733922Y-89795028D01*
X151694464Y-89785046D01*
X151655338Y-89754228D01*
X151641215Y-89740363D01*
X151579385Y-89678533D01*
X151579385Y-89023503D01*
X151629150Y-89000829D01*
X151672002Y-88984034D01*
X151697073Y-88978154D01*
X151703501Y-88996736D01*
X151709509Y-89048655D01*
X151714697Y-89128172D01*
X151718664Y-89229546D01*
X151720577Y-89315192D01*
X151725923Y-89652231D01*
X151772560Y-89658825D01*
X151814976Y-89654214D01*
X151835760Y-89639287D01*
X151841570Y-89611377D01*
X151846530Y-89551925D01*
X151850246Y-89468466D01*
X151852324Y-89368532D01*
X151852624Y-89317104D01*
X151852923Y-89021054D01*
X151914454Y-88999604D01*
X151958004Y-88985020D01*
X151981694Y-88978219D01*
X151982377Y-88978154D01*
X151984754Y-88996642D01*
X151987366Y-89047906D01*
X151989995Y-89125649D01*
X151992421Y-89223574D01*
X151994115Y-89315192D01*
X151999461Y-89652231D01*
X152116692Y-89652231D01*
X152122072Y-89344746D01*
X152127451Y-89037261D01*
X152184601Y-89007707D01*
X152226797Y-88987413D01*
X152251770Y-88978204D01*
X152252491Y-88978154D01*
X152255929Y-88996662D01*
X152255929Y-88996662D01*
G37*
X152255929Y-88996662D02*
X152258911Y-89048068D01*
X152261247Y-89126192D01*
X152262749Y-89224857D01*
X152263231Y-89328343D01*
X152263231Y-89678533D01*
X152201401Y-89740363D01*
X152158793Y-89778462D01*
X152121390Y-89793895D01*
X152070270Y-89792918D01*
X152049978Y-89790433D01*
X151986554Y-89783200D01*
X151934095Y-89779055D01*
X151921308Y-89778672D01*
X151878199Y-89781176D01*
X151816544Y-89787462D01*
X151792638Y-89790433D01*
X151733922Y-89795028D01*
X151694464Y-89785046D01*
X151655338Y-89754228D01*
X151641215Y-89740363D01*
X151579385Y-89678533D01*
X151579385Y-89023503D01*
X151629150Y-89000829D01*
X151672002Y-88984034D01*
X151697073Y-88978154D01*
X151703501Y-88996736D01*
X151709509Y-89048655D01*
X151714697Y-89128172D01*
X151718664Y-89229546D01*
X151720577Y-89315192D01*
X151725923Y-89652231D01*
X151772560Y-89658825D01*
X151814976Y-89654214D01*
X151835760Y-89639287D01*
X151841570Y-89611377D01*
X151846530Y-89551925D01*
X151850246Y-89468466D01*
X151852324Y-89368532D01*
X151852624Y-89317104D01*
X151852923Y-89021054D01*
X151914454Y-88999604D01*
X151958004Y-88985020D01*
X151981694Y-88978219D01*
X151982377Y-88978154D01*
X151984754Y-88996642D01*
X151987366Y-89047906D01*
X151989995Y-89125649D01*
X151992421Y-89223574D01*
X151994115Y-89315192D01*
X151999461Y-89652231D01*
X152116692Y-89652231D01*
X152122072Y-89344746D01*
X152127451Y-89037261D01*
X152184601Y-89007707D01*
X152226797Y-88987413D01*
X152251770Y-88978204D01*
X152252491Y-88978154D01*
X152255929Y-88996662D01*
G36*
X152747333Y-88993528D02*
X152803590Y-89019117D01*
X152847747Y-89050124D01*
X152880101Y-89084795D01*
X152902438Y-89129520D01*
X152916546Y-89190692D01*
X152924211Y-89274701D01*
X152927220Y-89387940D01*
X152927538Y-89462509D01*
X152927538Y-89753420D01*
X152877773Y-89776095D01*
X152838576Y-89792667D01*
X152819157Y-89798769D01*
X152815442Y-89780610D01*
X152812495Y-89731648D01*
X152810691Y-89660153D01*
X152810308Y-89603385D01*
X152808661Y-89521371D01*
X152804222Y-89456309D01*
X152797740Y-89416467D01*
X152792590Y-89408000D01*
X152757977Y-89416646D01*
X152703640Y-89438823D01*
X152640722Y-89468886D01*
X152580368Y-89501192D01*
X152533721Y-89530098D01*
X152511926Y-89549961D01*
X152511839Y-89550175D01*
X152513714Y-89586935D01*
X152530525Y-89622026D01*
X152560039Y-89650528D01*
X152603116Y-89660061D01*
X152639932Y-89658950D01*
X152692074Y-89658133D01*
X152719444Y-89670349D01*
X152735882Y-89702624D01*
X152737955Y-89708710D01*
X152745081Y-89754739D01*
X152726024Y-89782687D01*
X152676353Y-89796007D01*
X152622697Y-89798470D01*
X152526142Y-89780210D01*
X152476159Y-89754131D01*
X152414429Y-89692868D01*
X152381690Y-89617670D01*
X152378753Y-89538211D01*
X152406424Y-89464167D01*
X152448047Y-89417769D01*
X152489604Y-89391793D01*
X152554922Y-89358907D01*
X152631038Y-89325557D01*
X152643726Y-89320461D01*
X152727333Y-89283565D01*
X152775530Y-89251046D01*
X152791030Y-89218718D01*
X152776550Y-89182394D01*
X152751692Y-89154000D01*
X152692939Y-89119039D01*
X152628293Y-89116417D01*
X152569008Y-89143358D01*
X152526339Y-89197088D01*
X152520739Y-89210950D01*
X152488133Y-89261936D01*
X152440530Y-89299787D01*
X152380461Y-89330850D01*
X152380461Y-89242768D01*
X152383997Y-89188951D01*
X152399156Y-89146534D01*
X152432768Y-89101279D01*
X152465035Y-89066420D01*
X152515209Y-89017062D01*
X152554193Y-88990547D01*
X152596064Y-88979911D01*
X152643460Y-88978154D01*
X152747333Y-88993528D01*
X152747333Y-88993528D01*
G37*
X152747333Y-88993528D02*
X152803590Y-89019117D01*
X152847747Y-89050124D01*
X152880101Y-89084795D01*
X152902438Y-89129520D01*
X152916546Y-89190692D01*
X152924211Y-89274701D01*
X152927220Y-89387940D01*
X152927538Y-89462509D01*
X152927538Y-89753420D01*
X152877773Y-89776095D01*
X152838576Y-89792667D01*
X152819157Y-89798769D01*
X152815442Y-89780610D01*
X152812495Y-89731648D01*
X152810691Y-89660153D01*
X152810308Y-89603385D01*
X152808661Y-89521371D01*
X152804222Y-89456309D01*
X152797740Y-89416467D01*
X152792590Y-89408000D01*
X152757977Y-89416646D01*
X152703640Y-89438823D01*
X152640722Y-89468886D01*
X152580368Y-89501192D01*
X152533721Y-89530098D01*
X152511926Y-89549961D01*
X152511839Y-89550175D01*
X152513714Y-89586935D01*
X152530525Y-89622026D01*
X152560039Y-89650528D01*
X152603116Y-89660061D01*
X152639932Y-89658950D01*
X152692074Y-89658133D01*
X152719444Y-89670349D01*
X152735882Y-89702624D01*
X152737955Y-89708710D01*
X152745081Y-89754739D01*
X152726024Y-89782687D01*
X152676353Y-89796007D01*
X152622697Y-89798470D01*
X152526142Y-89780210D01*
X152476159Y-89754131D01*
X152414429Y-89692868D01*
X152381690Y-89617670D01*
X152378753Y-89538211D01*
X152406424Y-89464167D01*
X152448047Y-89417769D01*
X152489604Y-89391793D01*
X152554922Y-89358907D01*
X152631038Y-89325557D01*
X152643726Y-89320461D01*
X152727333Y-89283565D01*
X152775530Y-89251046D01*
X152791030Y-89218718D01*
X152776550Y-89182394D01*
X152751692Y-89154000D01*
X152692939Y-89119039D01*
X152628293Y-89116417D01*
X152569008Y-89143358D01*
X152526339Y-89197088D01*
X152520739Y-89210950D01*
X152488133Y-89261936D01*
X152440530Y-89299787D01*
X152380461Y-89330850D01*
X152380461Y-89242768D01*
X152383997Y-89188951D01*
X152399156Y-89146534D01*
X152432768Y-89101279D01*
X152465035Y-89066420D01*
X152515209Y-89017062D01*
X152554193Y-88990547D01*
X152596064Y-88979911D01*
X152643460Y-88978154D01*
X152747333Y-88993528D01*
G36*
X153430807Y-88996782D02*
X153454161Y-89006988D01*
X153509902Y-89051134D01*
X153557569Y-89114967D01*
X153587048Y-89183087D01*
X153591846Y-89216670D01*
X153575760Y-89263556D01*
X153540475Y-89288365D01*
X153502644Y-89303387D01*
X153485321Y-89306155D01*
X153476886Y-89286066D01*
X153460230Y-89242351D01*
X153452923Y-89222598D01*
X153411948Y-89154271D01*
X153352622Y-89120191D01*
X153276552Y-89121239D01*
X153270918Y-89122581D01*
X153230305Y-89141836D01*
X153200448Y-89179375D01*
X153180055Y-89239809D01*
X153167836Y-89327751D01*
X153162500Y-89447813D01*
X153162000Y-89511698D01*
X153161752Y-89612403D01*
X153160126Y-89681054D01*
X153155801Y-89724673D01*
X153147454Y-89750282D01*
X153133765Y-89764903D01*
X153113411Y-89775558D01*
X153112234Y-89776095D01*
X153073038Y-89792667D01*
X153053619Y-89798769D01*
X153050635Y-89780319D01*
X153048081Y-89729323D01*
X153046140Y-89652308D01*
X153044997Y-89555805D01*
X153044769Y-89485184D01*
X153045932Y-89348525D01*
X153050479Y-89244851D01*
X153059999Y-89168108D01*
X153076081Y-89112246D01*
X153100313Y-89071212D01*
X153134286Y-89038954D01*
X153167833Y-89016440D01*
X153248499Y-88986476D01*
X153342381Y-88979718D01*
X153430807Y-88996782D01*
X153430807Y-88996782D01*
G37*
X153430807Y-88996782D02*
X153454161Y-89006988D01*
X153509902Y-89051134D01*
X153557569Y-89114967D01*
X153587048Y-89183087D01*
X153591846Y-89216670D01*
X153575760Y-89263556D01*
X153540475Y-89288365D01*
X153502644Y-89303387D01*
X153485321Y-89306155D01*
X153476886Y-89286066D01*
X153460230Y-89242351D01*
X153452923Y-89222598D01*
X153411948Y-89154271D01*
X153352622Y-89120191D01*
X153276552Y-89121239D01*
X153270918Y-89122581D01*
X153230305Y-89141836D01*
X153200448Y-89179375D01*
X153180055Y-89239809D01*
X153167836Y-89327751D01*
X153162500Y-89447813D01*
X153162000Y-89511698D01*
X153161752Y-89612403D01*
X153160126Y-89681054D01*
X153155801Y-89724673D01*
X153147454Y-89750282D01*
X153133765Y-89764903D01*
X153113411Y-89775558D01*
X153112234Y-89776095D01*
X153073038Y-89792667D01*
X153053619Y-89798769D01*
X153050635Y-89780319D01*
X153048081Y-89729323D01*
X153046140Y-89652308D01*
X153044997Y-89555805D01*
X153044769Y-89485184D01*
X153045932Y-89348525D01*
X153050479Y-89244851D01*
X153059999Y-89168108D01*
X153076081Y-89112246D01*
X153100313Y-89071212D01*
X153134286Y-89038954D01*
X153167833Y-89016440D01*
X153248499Y-88986476D01*
X153342381Y-88979718D01*
X153430807Y-88996782D01*
G36*
X154105224Y-89007838D02*
X154182528Y-89058361D01*
X154219814Y-89103590D01*
X154249353Y-89185663D01*
X154251699Y-89250607D01*
X154246385Y-89337445D01*
X154046115Y-89425103D01*
X153948739Y-89469887D01*
X153885113Y-89505913D01*
X153852029Y-89537117D01*
X153846280Y-89567436D01*
X153864658Y-89600805D01*
X153884923Y-89622923D01*
X153943889Y-89658393D01*
X154008024Y-89660879D01*
X154066926Y-89633235D01*
X154110197Y-89578320D01*
X154117936Y-89558928D01*
X154155006Y-89498364D01*
X154197654Y-89472552D01*
X154256154Y-89450471D01*
X154256154Y-89534184D01*
X154250982Y-89591150D01*
X154230723Y-89639189D01*
X154188262Y-89694346D01*
X154181951Y-89701514D01*
X154134720Y-89750585D01*
X154094121Y-89776920D01*
X154043328Y-89789035D01*
X154001220Y-89793003D01*
X153925902Y-89793991D01*
X153872286Y-89781466D01*
X153838838Y-89762869D01*
X153786268Y-89721975D01*
X153749879Y-89677748D01*
X153726850Y-89622126D01*
X153714359Y-89547047D01*
X153709587Y-89444449D01*
X153709206Y-89392376D01*
X153710501Y-89329948D01*
X153828471Y-89329948D01*
X153829839Y-89363438D01*
X153833249Y-89368923D01*
X153855753Y-89361472D01*
X153904182Y-89341753D01*
X153968908Y-89313718D01*
X153982443Y-89307692D01*
X154064244Y-89266096D01*
X154109312Y-89229538D01*
X154119217Y-89195296D01*
X154095526Y-89160648D01*
X154075960Y-89145339D01*
X154005360Y-89114721D01*
X153939280Y-89119780D01*
X153883959Y-89157151D01*
X153845636Y-89223473D01*
X153833349Y-89276116D01*
X153828471Y-89329948D01*
X153710501Y-89329948D01*
X153711730Y-89270720D01*
X153721032Y-89180710D01*
X153739460Y-89115167D01*
X153769360Y-89066912D01*
X153813080Y-89028767D01*
X153832141Y-89016440D01*
X153918726Y-88984336D01*
X154013522Y-88982316D01*
X154105224Y-89007838D01*
X154105224Y-89007838D01*
G37*
X154105224Y-89007838D02*
X154182528Y-89058361D01*
X154219814Y-89103590D01*
X154249353Y-89185663D01*
X154251699Y-89250607D01*
X154246385Y-89337445D01*
X154046115Y-89425103D01*
X153948739Y-89469887D01*
X153885113Y-89505913D01*
X153852029Y-89537117D01*
X153846280Y-89567436D01*
X153864658Y-89600805D01*
X153884923Y-89622923D01*
X153943889Y-89658393D01*
X154008024Y-89660879D01*
X154066926Y-89633235D01*
X154110197Y-89578320D01*
X154117936Y-89558928D01*
X154155006Y-89498364D01*
X154197654Y-89472552D01*
X154256154Y-89450471D01*
X154256154Y-89534184D01*
X154250982Y-89591150D01*
X154230723Y-89639189D01*
X154188262Y-89694346D01*
X154181951Y-89701514D01*
X154134720Y-89750585D01*
X154094121Y-89776920D01*
X154043328Y-89789035D01*
X154001220Y-89793003D01*
X153925902Y-89793991D01*
X153872286Y-89781466D01*
X153838838Y-89762869D01*
X153786268Y-89721975D01*
X153749879Y-89677748D01*
X153726850Y-89622126D01*
X153714359Y-89547047D01*
X153709587Y-89444449D01*
X153709206Y-89392376D01*
X153710501Y-89329948D01*
X153828471Y-89329948D01*
X153829839Y-89363438D01*
X153833249Y-89368923D01*
X153855753Y-89361472D01*
X153904182Y-89341753D01*
X153968908Y-89313718D01*
X153982443Y-89307692D01*
X154064244Y-89266096D01*
X154109312Y-89229538D01*
X154119217Y-89195296D01*
X154095526Y-89160648D01*
X154075960Y-89145339D01*
X154005360Y-89114721D01*
X153939280Y-89119780D01*
X153883959Y-89157151D01*
X153845636Y-89223473D01*
X153833349Y-89276116D01*
X153828471Y-89329948D01*
X153710501Y-89329948D01*
X153711730Y-89270720D01*
X153721032Y-89180710D01*
X153739460Y-89115167D01*
X153769360Y-89066912D01*
X153813080Y-89028767D01*
X153832141Y-89016440D01*
X153918726Y-88984336D01*
X154013522Y-88982316D01*
X154105224Y-89007838D01*
G36*
X149999878Y-82647776D02*
X150105612Y-82648355D01*
X150182132Y-82649922D01*
X150234372Y-82652972D01*
X150267263Y-82657996D01*
X150285737Y-82665489D01*
X150294727Y-82675944D01*
X150299163Y-82689853D01*
X150299594Y-82691654D01*
X150306333Y-82724145D01*
X150318808Y-82788252D01*
X150335719Y-82877151D01*
X150355771Y-82984019D01*
X150377664Y-83102033D01*
X150378429Y-83106178D01*
X150400359Y-83221831D01*
X150420877Y-83324014D01*
X150438659Y-83406598D01*
X150452381Y-83463456D01*
X150460718Y-83488458D01*
X150461116Y-83488901D01*
X150485677Y-83501110D01*
X150536315Y-83521456D01*
X150602095Y-83545545D01*
X150602461Y-83545674D01*
X150685317Y-83576818D01*
X150783000Y-83616491D01*
X150875077Y-83656381D01*
X150879434Y-83658353D01*
X151029407Y-83726420D01*
X151361498Y-83499639D01*
X151463374Y-83430504D01*
X151555657Y-83368697D01*
X151633003Y-83317733D01*
X151690064Y-83281127D01*
X151721495Y-83262394D01*
X151724479Y-83261004D01*
X151747321Y-83267190D01*
X151789982Y-83297035D01*
X151854128Y-83351947D01*
X151941421Y-83433334D01*
X152030535Y-83519922D01*
X152116441Y-83605247D01*
X152193327Y-83683108D01*
X152256564Y-83748697D01*
X152301523Y-83797205D01*
X152323576Y-83823825D01*
X152324396Y-83825195D01*
X152326834Y-83843463D01*
X152317650Y-83873295D01*
X152294574Y-83918721D01*
X152255337Y-83983770D01*
X152197670Y-84072470D01*
X152120795Y-84186657D01*
X152052570Y-84287162D01*
X151991582Y-84377303D01*
X151941356Y-84451849D01*
X151905416Y-84505565D01*
X151887287Y-84533218D01*
X151886146Y-84535095D01*
X151888359Y-84561590D01*
X151905138Y-84613086D01*
X151933142Y-84679851D01*
X151943122Y-84701172D01*
X151986672Y-84796159D01*
X152033134Y-84903937D01*
X152070877Y-84997192D01*
X152098073Y-85066406D01*
X152119675Y-85119006D01*
X152132158Y-85146497D01*
X152133709Y-85148616D01*
X152156668Y-85152124D01*
X152210786Y-85161738D01*
X152288868Y-85176089D01*
X152383719Y-85193807D01*
X152488143Y-85213525D01*
X152594944Y-85233874D01*
X152696926Y-85253486D01*
X152786894Y-85270991D01*
X152857653Y-85285022D01*
X152902006Y-85294209D01*
X152912885Y-85296807D01*
X152924122Y-85303218D01*
X152932605Y-85317697D01*
X152938714Y-85345133D01*
X152942832Y-85390411D01*
X152945341Y-85458420D01*
X152946621Y-85554047D01*
X152947054Y-85682180D01*
X152947077Y-85734701D01*
X152947077Y-86161845D01*
X152844500Y-86182091D01*
X152787431Y-86193070D01*
X152702269Y-86209095D01*
X152599372Y-86228233D01*
X152489096Y-86248551D01*
X152458615Y-86254132D01*
X152356855Y-86273917D01*
X152268205Y-86293373D01*
X152200108Y-86310697D01*
X152160004Y-86324088D01*
X152153323Y-86328079D01*
X152136919Y-86356342D01*
X152113399Y-86411109D01*
X152087316Y-86481588D01*
X152082142Y-86496769D01*
X152047956Y-86590896D01*
X152005523Y-86697101D01*
X151963997Y-86792473D01*
X151963792Y-86792916D01*
X151894640Y-86942525D01*
X152349512Y-87611617D01*
X152057500Y-87904116D01*
X151969180Y-87991170D01*
X151888625Y-88067909D01*
X151820360Y-88130237D01*
X151768908Y-88174056D01*
X151738794Y-88195270D01*
X151734474Y-88196616D01*
X151709111Y-88186016D01*
X151657358Y-88156547D01*
X151584868Y-88111705D01*
X151497294Y-88054984D01*
X151402612Y-87991462D01*
X151306516Y-87926668D01*
X151220837Y-87870287D01*
X151151016Y-87825788D01*
X151102494Y-87796639D01*
X151080782Y-87786308D01*
X151054293Y-87795050D01*
X151004062Y-87818087D01*
X150940451Y-87850631D01*
X150933708Y-87854249D01*
X150848046Y-87897210D01*
X150789306Y-87918279D01*
X150752772Y-87918503D01*
X150733731Y-87898928D01*
X150733620Y-87898654D01*
X150724102Y-87875472D01*
X150701403Y-87820441D01*
X150667282Y-87737822D01*
X150623500Y-87631872D01*
X150571816Y-87506852D01*
X150513992Y-87367020D01*
X150457991Y-87231637D01*
X150396447Y-87082234D01*
X150339939Y-86943832D01*
X150290161Y-86820673D01*
X150248806Y-86717002D01*
X150217568Y-86637059D01*
X150198141Y-86585088D01*
X150192154Y-86565692D01*
X150207168Y-86543443D01*
X150246439Y-86507982D01*
X150298807Y-86468887D01*
X150447941Y-86345245D01*
X150564511Y-86203522D01*
X150647118Y-86046704D01*
X150694366Y-85877775D01*
X150704857Y-85699722D01*
X150697231Y-85617539D01*
X150655682Y-85447031D01*
X150584123Y-85296459D01*
X150486995Y-85167309D01*
X150368734Y-85061064D01*
X150233780Y-84979210D01*
X150086571Y-84923232D01*
X149931544Y-84894615D01*
X149773139Y-84894844D01*
X149615794Y-84925405D01*
X149463946Y-84987782D01*
X149322035Y-85083460D01*
X149262803Y-85137572D01*
X149149203Y-85276520D01*
X149070106Y-85428361D01*
X149024986Y-85588667D01*
X149013316Y-85753012D01*
X149034569Y-85916971D01*
X149088220Y-86076118D01*
X149173740Y-86226025D01*
X149290605Y-86362267D01*
X149421193Y-86468887D01*
X149475588Y-86509642D01*
X149514014Y-86544718D01*
X149527846Y-86565726D01*
X149520603Y-86588635D01*
X149500005Y-86643365D01*
X149467746Y-86725672D01*
X149425521Y-86831315D01*
X149375023Y-86956050D01*
X149317948Y-87095636D01*
X149261854Y-87231670D01*
X149199967Y-87381201D01*
X149142644Y-87519767D01*
X149091644Y-87643107D01*
X149048727Y-87746964D01*
X149015653Y-87827080D01*
X148994181Y-87879195D01*
X148986225Y-87898654D01*
X148967429Y-87918423D01*
X148931074Y-87918365D01*
X148872479Y-87897441D01*
X148786968Y-87854613D01*
X148786292Y-87854249D01*
X148721907Y-87821012D01*
X148669861Y-87796802D01*
X148640512Y-87786404D01*
X148639217Y-87786308D01*
X148617124Y-87796855D01*
X148568348Y-87826184D01*
X148498331Y-87870827D01*
X148412514Y-87927314D01*
X148317388Y-87991462D01*
X148220540Y-88056411D01*
X148133253Y-88112896D01*
X148061181Y-88157421D01*
X148009977Y-88186490D01*
X147985526Y-88196616D01*
X147963010Y-88183307D01*
X147917742Y-88146112D01*
X147854244Y-88089128D01*
X147777039Y-88016449D01*
X147690651Y-87932171D01*
X147662399Y-87904016D01*
X147370287Y-87611416D01*
X147592631Y-87285104D01*
X147660202Y-87184897D01*
X147719507Y-87094963D01*
X147767217Y-87020510D01*
X147800007Y-86966751D01*
X147814548Y-86938894D01*
X147814974Y-86936912D01*
X147807308Y-86910655D01*
X147786689Y-86857837D01*
X147756685Y-86787310D01*
X147735625Y-86740093D01*
X147696248Y-86649694D01*
X147659165Y-86558366D01*
X147630415Y-86481200D01*
X147622605Y-86457692D01*
X147600417Y-86394916D01*
X147578727Y-86346411D01*
X147566813Y-86328079D01*
X147540523Y-86316859D01*
X147483142Y-86300954D01*
X147402118Y-86282167D01*
X147304895Y-86262299D01*
X147261385Y-86254132D01*
X147150896Y-86233829D01*
X147044916Y-86214170D01*
X146953801Y-86197088D01*
X146887908Y-86184518D01*
X146875500Y-86182091D01*
X146772923Y-86161845D01*
X146772923Y-85734701D01*
X146773153Y-85594246D01*
X146774099Y-85487979D01*
X146776141Y-85411013D01*
X146779662Y-85358460D01*
X146785043Y-85325433D01*
X146792666Y-85307045D01*
X146802912Y-85298408D01*
X146807115Y-85296807D01*
X146832470Y-85291127D01*
X146888484Y-85279795D01*
X146967964Y-85264179D01*
X147063712Y-85245647D01*
X147168533Y-85225569D01*
X147275232Y-85205312D01*
X147376613Y-85186246D01*
X147465479Y-85169739D01*
X147534637Y-85157159D01*
X147576889Y-85149875D01*
X147586290Y-85148616D01*
X147594807Y-85131763D01*
X147613660Y-85086870D01*
X147639324Y-85022430D01*
X147649123Y-84997192D01*
X147688648Y-84899686D01*
X147735192Y-84791959D01*
X147776877Y-84701172D01*
X147807550Y-84631753D01*
X147827956Y-84574710D01*
X147834768Y-84539777D01*
X147833682Y-84535095D01*
X147819285Y-84512991D01*
X147786412Y-84463831D01*
X147738590Y-84392848D01*
X147679348Y-84305278D01*
X147612215Y-84206357D01*
X147598941Y-84186830D01*
X147521046Y-84071140D01*
X147463787Y-83983044D01*
X147424881Y-83918486D01*
X147402044Y-83873411D01*
X147392994Y-83843763D01*
X147395448Y-83825485D01*
X147395511Y-83825369D01*
X147414827Y-83801361D01*
X147457551Y-83754947D01*
X147519051Y-83690937D01*
X147594698Y-83614145D01*
X147679861Y-83529382D01*
X147689465Y-83519922D01*
X147796790Y-83415989D01*
X147879615Y-83339675D01*
X147939605Y-83289571D01*
X147978423Y-83264270D01*
X147995520Y-83261004D01*
X148020473Y-83275250D01*
X148072255Y-83308156D01*
X148145520Y-83356208D01*
X148234920Y-83415890D01*
X148335111Y-83483688D01*
X148358501Y-83499639D01*
X148690593Y-83726420D01*
X148840565Y-83658353D01*
X148931770Y-83618685D01*
X149029669Y-83578791D01*
X149113831Y-83546983D01*
X149117538Y-83545674D01*
X149183369Y-83521576D01*
X149234116Y-83501200D01*
X149258842Y-83488936D01*
X149258884Y-83488901D01*
X149266729Y-83466734D01*
X149280066Y-83412217D01*
X149297570Y-83331480D01*
X149317917Y-83230650D01*
X149339782Y-83115856D01*
X149341571Y-83106178D01*
X149363504Y-82987904D01*
X149383640Y-82880542D01*
X149400680Y-82790917D01*
X149413328Y-82725851D01*
X149420284Y-82692168D01*
X149420406Y-82691654D01*
X149424639Y-82677325D01*
X149432871Y-82666507D01*
X149450033Y-82658706D01*
X149481058Y-82653429D01*
X149530878Y-82650182D01*
X149604424Y-82648472D01*
X149706629Y-82647807D01*
X149842425Y-82647693D01*
X149860000Y-82647692D01*
X149999878Y-82647776D01*
X149999878Y-82647776D01*
G37*
X149999878Y-82647776D02*
X150105612Y-82648355D01*
X150182132Y-82649922D01*
X150234372Y-82652972D01*
X150267263Y-82657996D01*
X150285737Y-82665489D01*
X150294727Y-82675944D01*
X150299163Y-82689853D01*
X150299594Y-82691654D01*
X150306333Y-82724145D01*
X150318808Y-82788252D01*
X150335719Y-82877151D01*
X150355771Y-82984019D01*
X150377664Y-83102033D01*
X150378429Y-83106178D01*
X150400359Y-83221831D01*
X150420877Y-83324014D01*
X150438659Y-83406598D01*
X150452381Y-83463456D01*
X150460718Y-83488458D01*
X150461116Y-83488901D01*
X150485677Y-83501110D01*
X150536315Y-83521456D01*
X150602095Y-83545545D01*
X150602461Y-83545674D01*
X150685317Y-83576818D01*
X150783000Y-83616491D01*
X150875077Y-83656381D01*
X150879434Y-83658353D01*
X151029407Y-83726420D01*
X151361498Y-83499639D01*
X151463374Y-83430504D01*
X151555657Y-83368697D01*
X151633003Y-83317733D01*
X151690064Y-83281127D01*
X151721495Y-83262394D01*
X151724479Y-83261004D01*
X151747321Y-83267190D01*
X151789982Y-83297035D01*
X151854128Y-83351947D01*
X151941421Y-83433334D01*
X152030535Y-83519922D01*
X152116441Y-83605247D01*
X152193327Y-83683108D01*
X152256564Y-83748697D01*
X152301523Y-83797205D01*
X152323576Y-83823825D01*
X152324396Y-83825195D01*
X152326834Y-83843463D01*
X152317650Y-83873295D01*
X152294574Y-83918721D01*
X152255337Y-83983770D01*
X152197670Y-84072470D01*
X152120795Y-84186657D01*
X152052570Y-84287162D01*
X151991582Y-84377303D01*
X151941356Y-84451849D01*
X151905416Y-84505565D01*
X151887287Y-84533218D01*
X151886146Y-84535095D01*
X151888359Y-84561590D01*
X151905138Y-84613086D01*
X151933142Y-84679851D01*
X151943122Y-84701172D01*
X151986672Y-84796159D01*
X152033134Y-84903937D01*
X152070877Y-84997192D01*
X152098073Y-85066406D01*
X152119675Y-85119006D01*
X152132158Y-85146497D01*
X152133709Y-85148616D01*
X152156668Y-85152124D01*
X152210786Y-85161738D01*
X152288868Y-85176089D01*
X152383719Y-85193807D01*
X152488143Y-85213525D01*
X152594944Y-85233874D01*
X152696926Y-85253486D01*
X152786894Y-85270991D01*
X152857653Y-85285022D01*
X152902006Y-85294209D01*
X152912885Y-85296807D01*
X152924122Y-85303218D01*
X152932605Y-85317697D01*
X152938714Y-85345133D01*
X152942832Y-85390411D01*
X152945341Y-85458420D01*
X152946621Y-85554047D01*
X152947054Y-85682180D01*
X152947077Y-85734701D01*
X152947077Y-86161845D01*
X152844500Y-86182091D01*
X152787431Y-86193070D01*
X152702269Y-86209095D01*
X152599372Y-86228233D01*
X152489096Y-86248551D01*
X152458615Y-86254132D01*
X152356855Y-86273917D01*
X152268205Y-86293373D01*
X152200108Y-86310697D01*
X152160004Y-86324088D01*
X152153323Y-86328079D01*
X152136919Y-86356342D01*
X152113399Y-86411109D01*
X152087316Y-86481588D01*
X152082142Y-86496769D01*
X152047956Y-86590896D01*
X152005523Y-86697101D01*
X151963997Y-86792473D01*
X151963792Y-86792916D01*
X151894640Y-86942525D01*
X152349512Y-87611617D01*
X152057500Y-87904116D01*
X151969180Y-87991170D01*
X151888625Y-88067909D01*
X151820360Y-88130237D01*
X151768908Y-88174056D01*
X151738794Y-88195270D01*
X151734474Y-88196616D01*
X151709111Y-88186016D01*
X151657358Y-88156547D01*
X151584868Y-88111705D01*
X151497294Y-88054984D01*
X151402612Y-87991462D01*
X151306516Y-87926668D01*
X151220837Y-87870287D01*
X151151016Y-87825788D01*
X151102494Y-87796639D01*
X151080782Y-87786308D01*
X151054293Y-87795050D01*
X151004062Y-87818087D01*
X150940451Y-87850631D01*
X150933708Y-87854249D01*
X150848046Y-87897210D01*
X150789306Y-87918279D01*
X150752772Y-87918503D01*
X150733731Y-87898928D01*
X150733620Y-87898654D01*
X150724102Y-87875472D01*
X150701403Y-87820441D01*
X150667282Y-87737822D01*
X150623500Y-87631872D01*
X150571816Y-87506852D01*
X150513992Y-87367020D01*
X150457991Y-87231637D01*
X150396447Y-87082234D01*
X150339939Y-86943832D01*
X150290161Y-86820673D01*
X150248806Y-86717002D01*
X150217568Y-86637059D01*
X150198141Y-86585088D01*
X150192154Y-86565692D01*
X150207168Y-86543443D01*
X150246439Y-86507982D01*
X150298807Y-86468887D01*
X150447941Y-86345245D01*
X150564511Y-86203522D01*
X150647118Y-86046704D01*
X150694366Y-85877775D01*
X150704857Y-85699722D01*
X150697231Y-85617539D01*
X150655682Y-85447031D01*
X150584123Y-85296459D01*
X150486995Y-85167309D01*
X150368734Y-85061064D01*
X150233780Y-84979210D01*
X150086571Y-84923232D01*
X149931544Y-84894615D01*
X149773139Y-84894844D01*
X149615794Y-84925405D01*
X149463946Y-84987782D01*
X149322035Y-85083460D01*
X149262803Y-85137572D01*
X149149203Y-85276520D01*
X149070106Y-85428361D01*
X149024986Y-85588667D01*
X149013316Y-85753012D01*
X149034569Y-85916971D01*
X149088220Y-86076118D01*
X149173740Y-86226025D01*
X149290605Y-86362267D01*
X149421193Y-86468887D01*
X149475588Y-86509642D01*
X149514014Y-86544718D01*
X149527846Y-86565726D01*
X149520603Y-86588635D01*
X149500005Y-86643365D01*
X149467746Y-86725672D01*
X149425521Y-86831315D01*
X149375023Y-86956050D01*
X149317948Y-87095636D01*
X149261854Y-87231670D01*
X149199967Y-87381201D01*
X149142644Y-87519767D01*
X149091644Y-87643107D01*
X149048727Y-87746964D01*
X149015653Y-87827080D01*
X148994181Y-87879195D01*
X148986225Y-87898654D01*
X148967429Y-87918423D01*
X148931074Y-87918365D01*
X148872479Y-87897441D01*
X148786968Y-87854613D01*
X148786292Y-87854249D01*
X148721907Y-87821012D01*
X148669861Y-87796802D01*
X148640512Y-87786404D01*
X148639217Y-87786308D01*
X148617124Y-87796855D01*
X148568348Y-87826184D01*
X148498331Y-87870827D01*
X148412514Y-87927314D01*
X148317388Y-87991462D01*
X148220540Y-88056411D01*
X148133253Y-88112896D01*
X148061181Y-88157421D01*
X148009977Y-88186490D01*
X147985526Y-88196616D01*
X147963010Y-88183307D01*
X147917742Y-88146112D01*
X147854244Y-88089128D01*
X147777039Y-88016449D01*
X147690651Y-87932171D01*
X147662399Y-87904016D01*
X147370287Y-87611416D01*
X147592631Y-87285104D01*
X147660202Y-87184897D01*
X147719507Y-87094963D01*
X147767217Y-87020510D01*
X147800007Y-86966751D01*
X147814548Y-86938894D01*
X147814974Y-86936912D01*
X147807308Y-86910655D01*
X147786689Y-86857837D01*
X147756685Y-86787310D01*
X147735625Y-86740093D01*
X147696248Y-86649694D01*
X147659165Y-86558366D01*
X147630415Y-86481200D01*
X147622605Y-86457692D01*
X147600417Y-86394916D01*
X147578727Y-86346411D01*
X147566813Y-86328079D01*
X147540523Y-86316859D01*
X147483142Y-86300954D01*
X147402118Y-86282167D01*
X147304895Y-86262299D01*
X147261385Y-86254132D01*
X147150896Y-86233829D01*
X147044916Y-86214170D01*
X146953801Y-86197088D01*
X146887908Y-86184518D01*
X146875500Y-86182091D01*
X146772923Y-86161845D01*
X146772923Y-85734701D01*
X146773153Y-85594246D01*
X146774099Y-85487979D01*
X146776141Y-85411013D01*
X146779662Y-85358460D01*
X146785043Y-85325433D01*
X146792666Y-85307045D01*
X146802912Y-85298408D01*
X146807115Y-85296807D01*
X146832470Y-85291127D01*
X146888484Y-85279795D01*
X146967964Y-85264179D01*
X147063712Y-85245647D01*
X147168533Y-85225569D01*
X147275232Y-85205312D01*
X147376613Y-85186246D01*
X147465479Y-85169739D01*
X147534637Y-85157159D01*
X147576889Y-85149875D01*
X147586290Y-85148616D01*
X147594807Y-85131763D01*
X147613660Y-85086870D01*
X147639324Y-85022430D01*
X147649123Y-84997192D01*
X147688648Y-84899686D01*
X147735192Y-84791959D01*
X147776877Y-84701172D01*
X147807550Y-84631753D01*
X147827956Y-84574710D01*
X147834768Y-84539777D01*
X147833682Y-84535095D01*
X147819285Y-84512991D01*
X147786412Y-84463831D01*
X147738590Y-84392848D01*
X147679348Y-84305278D01*
X147612215Y-84206357D01*
X147598941Y-84186830D01*
X147521046Y-84071140D01*
X147463787Y-83983044D01*
X147424881Y-83918486D01*
X147402044Y-83873411D01*
X147392994Y-83843763D01*
X147395448Y-83825485D01*
X147395511Y-83825369D01*
X147414827Y-83801361D01*
X147457551Y-83754947D01*
X147519051Y-83690937D01*
X147594698Y-83614145D01*
X147679861Y-83529382D01*
X147689465Y-83519922D01*
X147796790Y-83415989D01*
X147879615Y-83339675D01*
X147939605Y-83289571D01*
X147978423Y-83264270D01*
X147995520Y-83261004D01*
X148020473Y-83275250D01*
X148072255Y-83308156D01*
X148145520Y-83356208D01*
X148234920Y-83415890D01*
X148335111Y-83483688D01*
X148358501Y-83499639D01*
X148690593Y-83726420D01*
X148840565Y-83658353D01*
X148931770Y-83618685D01*
X149029669Y-83578791D01*
X149113831Y-83546983D01*
X149117538Y-83545674D01*
X149183369Y-83521576D01*
X149234116Y-83501200D01*
X149258842Y-83488936D01*
X149258884Y-83488901D01*
X149266729Y-83466734D01*
X149280066Y-83412217D01*
X149297570Y-83331480D01*
X149317917Y-83230650D01*
X149339782Y-83115856D01*
X149341571Y-83106178D01*
X149363504Y-82987904D01*
X149383640Y-82880542D01*
X149400680Y-82790917D01*
X149413328Y-82725851D01*
X149420284Y-82692168D01*
X149420406Y-82691654D01*
X149424639Y-82677325D01*
X149432871Y-82666507D01*
X149450033Y-82658706D01*
X149481058Y-82653429D01*
X149530878Y-82650182D01*
X149604424Y-82648472D01*
X149706629Y-82647807D01*
X149842425Y-82647693D01*
X149860000Y-82647692D01*
X149999878Y-82647776D01*
D15*
X174833334Y-92752381D02*
X174500000Y-92276190D01*
X174261905Y-92752381D02*
X174261905Y-91752381D01*
X174642858Y-91752381D01*
X174738096Y-91800000D01*
X174785715Y-91847619D01*
X174833334Y-91942857D01*
X174833334Y-92085714D01*
X174785715Y-92180952D01*
X174738096Y-92228571D01*
X174642858Y-92276190D01*
X174261905Y-92276190D01*
X175166667Y-91752381D02*
X175785715Y-91752381D01*
X175452381Y-92133333D01*
X175595239Y-92133333D01*
X175690477Y-92180952D01*
X175738096Y-92228571D01*
X175785715Y-92323810D01*
X175785715Y-92561905D01*
X175738096Y-92657143D01*
X175690477Y-92704762D01*
X175595239Y-92752381D01*
X175309524Y-92752381D01*
X175214286Y-92704762D01*
X175166667Y-92657143D01*
X175833334Y-66752381D02*
X175500000Y-66276190D01*
X175261905Y-66752381D02*
X175261905Y-65752381D01*
X175642858Y-65752381D01*
X175738096Y-65800000D01*
X175785715Y-65847619D01*
X175833334Y-65942857D01*
X175833334Y-66085714D01*
X175785715Y-66180952D01*
X175738096Y-66228571D01*
X175642858Y-66276190D01*
X175261905Y-66276190D01*
X176785715Y-66752381D02*
X176214286Y-66752381D01*
X176500000Y-66752381D02*
X176500000Y-65752381D01*
X176404762Y-65895238D01*
X176309524Y-65990476D01*
X176214286Y-66038095D01*
X175833334Y-46752381D02*
X175500000Y-46276190D01*
X175261905Y-46752381D02*
X175261905Y-45752381D01*
X175642858Y-45752381D01*
X175738096Y-45800000D01*
X175785715Y-45847619D01*
X175833334Y-45942857D01*
X175833334Y-46085714D01*
X175785715Y-46180952D01*
X175738096Y-46228571D01*
X175642858Y-46276190D01*
X175261905Y-46276190D01*
X176214286Y-45847619D02*
X176261905Y-45800000D01*
X176357143Y-45752381D01*
X176595239Y-45752381D01*
X176690477Y-45800000D01*
X176738096Y-45847619D01*
X176785715Y-45942857D01*
X176785715Y-46038095D01*
X176738096Y-46180952D01*
X176166667Y-46752381D01*
X176785715Y-46752381D01*
X180166667Y-66166667D02*
X180642858Y-66166667D01*
X180071429Y-66452381D02*
X180404762Y-65452381D01*
X180738096Y-66452381D01*
X181642858Y-66357143D02*
X181595239Y-66404762D01*
X181452382Y-66452381D01*
X181357144Y-66452381D01*
X181214286Y-66404762D01*
X181119048Y-66309524D01*
X181071429Y-66214286D01*
X181023810Y-66023810D01*
X181023810Y-65880952D01*
X181071429Y-65690476D01*
X181119048Y-65595238D01*
X181214286Y-65500000D01*
X181357144Y-65452381D01*
X181452382Y-65452381D01*
X181595239Y-65500000D01*
X181642858Y-65547619D01*
X181928572Y-65452381D02*
X182500001Y-65452381D01*
X182214286Y-66452381D02*
X182214286Y-65452381D01*
X182833334Y-66357143D02*
X182880953Y-66404762D01*
X182833334Y-66452381D01*
X182785715Y-66404762D01*
X182833334Y-66357143D01*
X182833334Y-66452381D01*
X183833334Y-66452381D02*
X183261905Y-66452381D01*
X183547619Y-66452381D02*
X183547619Y-65452381D01*
X183452381Y-65595238D01*
X183357143Y-65690476D01*
X183261905Y-65738095D01*
X180166667Y-46166667D02*
X180642858Y-46166667D01*
X180071429Y-46452381D02*
X180404762Y-45452381D01*
X180738096Y-46452381D01*
X181642858Y-46357143D02*
X181595239Y-46404762D01*
X181452382Y-46452381D01*
X181357144Y-46452381D01*
X181214286Y-46404762D01*
X181119048Y-46309524D01*
X181071429Y-46214286D01*
X181023810Y-46023810D01*
X181023810Y-45880952D01*
X181071429Y-45690476D01*
X181119048Y-45595238D01*
X181214286Y-45500000D01*
X181357144Y-45452381D01*
X181452382Y-45452381D01*
X181595239Y-45500000D01*
X181642858Y-45547619D01*
X181928572Y-45452381D02*
X182500001Y-45452381D01*
X182214286Y-46452381D02*
X182214286Y-45452381D01*
X182833334Y-46357143D02*
X182880953Y-46404762D01*
X182833334Y-46452381D01*
X182785715Y-46404762D01*
X182833334Y-46357143D01*
X182833334Y-46452381D01*
X183261905Y-45547619D02*
X183309524Y-45500000D01*
X183404762Y-45452381D01*
X183642858Y-45452381D01*
X183738096Y-45500000D01*
X183785715Y-45547619D01*
X183833334Y-45642857D01*
X183833334Y-45738095D01*
X183785715Y-45880952D01*
X183214286Y-46452381D01*
X183833334Y-46452381D01*
X179166667Y-92166667D02*
X179642858Y-92166667D01*
X179071429Y-92452381D02*
X179404762Y-91452381D01*
X179738096Y-92452381D01*
X180642858Y-92357143D02*
X180595239Y-92404762D01*
X180452382Y-92452381D01*
X180357144Y-92452381D01*
X180214286Y-92404762D01*
X180119048Y-92309524D01*
X180071429Y-92214286D01*
X180023810Y-92023810D01*
X180023810Y-91880952D01*
X180071429Y-91690476D01*
X180119048Y-91595238D01*
X180214286Y-91500000D01*
X180357144Y-91452381D01*
X180452382Y-91452381D01*
X180595239Y-91500000D01*
X180642858Y-91547619D01*
X180928572Y-91452381D02*
X181500001Y-91452381D01*
X181214286Y-92452381D02*
X181214286Y-91452381D01*
X181833334Y-92357143D02*
X181880953Y-92404762D01*
X181833334Y-92452381D01*
X181785715Y-92404762D01*
X181833334Y-92357143D01*
X181833334Y-92452381D01*
X182214286Y-91452381D02*
X182833334Y-91452381D01*
X182500000Y-91833333D01*
X182642858Y-91833333D01*
X182738096Y-91880952D01*
X182785715Y-91928571D01*
X182833334Y-92023810D01*
X182833334Y-92261905D01*
X182785715Y-92357143D01*
X182738096Y-92404762D01*
X182642858Y-92452381D01*
X182357143Y-92452381D01*
X182261905Y-92404762D01*
X182214286Y-92357143D01*
X141240952Y-129786667D02*
X141717143Y-129786667D01*
X141145714Y-130072381D02*
X141479047Y-129072381D01*
X141812381Y-130072381D01*
X142145714Y-130072381D02*
X142145714Y-129072381D01*
X142479048Y-129786667D01*
X142812381Y-129072381D01*
X142812381Y-130072381D01*
X143288571Y-130072381D02*
X143288571Y-129072381D01*
X144288571Y-129120000D02*
X144193333Y-129072381D01*
X144050476Y-129072381D01*
X143907618Y-129120000D01*
X143812380Y-129215238D01*
X143764761Y-129310476D01*
X143717142Y-129500952D01*
X143717142Y-129643810D01*
X143764761Y-129834286D01*
X143812380Y-129929524D01*
X143907618Y-130024762D01*
X144050476Y-130072381D01*
X144145714Y-130072381D01*
X144288571Y-130024762D01*
X144336190Y-129977143D01*
X144336190Y-129643810D01*
X144145714Y-129643810D01*
X144717142Y-129786667D02*
X145193333Y-129786667D01*
X144621904Y-130072381D02*
X144955237Y-129072381D01*
X145288571Y-130072381D01*
X145383809Y-130167619D02*
X146145714Y-130167619D01*
X146383809Y-130072381D02*
X146383809Y-129072381D01*
X146717143Y-129786667D01*
X147050476Y-129072381D01*
X147050476Y-130072381D01*
X147717142Y-129072381D02*
X147907619Y-129072381D01*
X148002857Y-129120000D01*
X148098095Y-129215238D01*
X148145714Y-129405714D01*
X148145714Y-129739048D01*
X148098095Y-129929524D01*
X148002857Y-130024762D01*
X147907619Y-130072381D01*
X147717142Y-130072381D01*
X147621904Y-130024762D01*
X147526666Y-129929524D01*
X147479047Y-129739048D01*
X147479047Y-129405714D01*
X147526666Y-129215238D01*
X147621904Y-129120000D01*
X147717142Y-129072381D01*
X148431428Y-129072381D02*
X149002857Y-129072381D01*
X148717142Y-130072381D02*
X148717142Y-129072381D01*
X149336190Y-130072381D02*
X149336190Y-129072381D01*
X149336190Y-129548571D02*
X149907619Y-129548571D01*
X149907619Y-130072381D02*
X149907619Y-129072381D01*
X150383809Y-129548571D02*
X150717143Y-129548571D01*
X150860000Y-130072381D02*
X150383809Y-130072381D01*
X150383809Y-129072381D01*
X150860000Y-129072381D01*
X151860000Y-130072381D02*
X151526666Y-129596190D01*
X151288571Y-130072381D02*
X151288571Y-129072381D01*
X151669524Y-129072381D01*
X151764762Y-129120000D01*
X151812381Y-129167619D01*
X151860000Y-129262857D01*
X151860000Y-129405714D01*
X151812381Y-129500952D01*
X151764762Y-129548571D01*
X151669524Y-129596190D01*
X151288571Y-129596190D01*
X152621905Y-129548571D02*
X152764762Y-129596190D01*
X152812381Y-129643810D01*
X152860000Y-129739048D01*
X152860000Y-129881905D01*
X152812381Y-129977143D01*
X152764762Y-130024762D01*
X152669524Y-130072381D01*
X152288571Y-130072381D01*
X152288571Y-129072381D01*
X152621905Y-129072381D01*
X152717143Y-129120000D01*
X152764762Y-129167619D01*
X152812381Y-129262857D01*
X152812381Y-129358095D01*
X152764762Y-129453333D01*
X152717143Y-129500952D01*
X152621905Y-129548571D01*
X152288571Y-129548571D01*
X153479047Y-129072381D02*
X153669524Y-129072381D01*
X153764762Y-129120000D01*
X153860000Y-129215238D01*
X153907619Y-129405714D01*
X153907619Y-129739048D01*
X153860000Y-129929524D01*
X153764762Y-130024762D01*
X153669524Y-130072381D01*
X153479047Y-130072381D01*
X153383809Y-130024762D01*
X153288571Y-129929524D01*
X153240952Y-129739048D01*
X153240952Y-129405714D01*
X153288571Y-129215238D01*
X153383809Y-129120000D01*
X153479047Y-129072381D01*
X154288571Y-129786667D02*
X154764762Y-129786667D01*
X154193333Y-130072381D02*
X154526666Y-129072381D01*
X154860000Y-130072381D01*
X155764762Y-130072381D02*
X155431428Y-129596190D01*
X155193333Y-130072381D02*
X155193333Y-129072381D01*
X155574286Y-129072381D01*
X155669524Y-129120000D01*
X155717143Y-129167619D01*
X155764762Y-129262857D01*
X155764762Y-129405714D01*
X155717143Y-129500952D01*
X155669524Y-129548571D01*
X155574286Y-129596190D01*
X155193333Y-129596190D01*
X156193333Y-130072381D02*
X156193333Y-129072381D01*
X156431428Y-129072381D01*
X156574286Y-129120000D01*
X156669524Y-129215238D01*
X156717143Y-129310476D01*
X156764762Y-129500952D01*
X156764762Y-129643810D01*
X156717143Y-129834286D01*
X156669524Y-129929524D01*
X156574286Y-130024762D01*
X156431428Y-130072381D01*
X156193333Y-130072381D01*
X156955238Y-130167619D02*
X157717143Y-130167619D01*
X158479048Y-130072381D02*
X157907619Y-130072381D01*
X158193333Y-130072381D02*
X158193333Y-129072381D01*
X158098095Y-129215238D01*
X158002857Y-129310476D01*
X157907619Y-129358095D01*
X166261905Y-67302381D02*
X166261905Y-66302381D01*
X166500000Y-66302381D01*
X166642858Y-66350000D01*
X166738096Y-66445238D01*
X166785715Y-66540476D01*
X166833334Y-66730952D01*
X166833334Y-66873810D01*
X166785715Y-67064286D01*
X166738096Y-67159524D01*
X166642858Y-67254762D01*
X166500000Y-67302381D01*
X166261905Y-67302381D01*
X167785715Y-67302381D02*
X167214286Y-67302381D01*
X167500000Y-67302381D02*
X167500000Y-66302381D01*
X167404762Y-66445238D01*
X167309524Y-66540476D01*
X167214286Y-66588095D01*
X169988095Y-61552381D02*
X169988095Y-60552381D01*
X170559524Y-61552381D02*
X170130952Y-60980952D01*
X170559524Y-60552381D02*
X169988095Y-61123810D01*
X163711905Y-61316667D02*
X164188096Y-61316667D01*
X163616667Y-61602381D02*
X163950000Y-60602381D01*
X164283334Y-61602381D01*
X166261905Y-47302381D02*
X166261905Y-46302381D01*
X166500000Y-46302381D01*
X166642858Y-46350000D01*
X166738096Y-46445238D01*
X166785715Y-46540476D01*
X166833334Y-46730952D01*
X166833334Y-46873810D01*
X166785715Y-47064286D01*
X166738096Y-47159524D01*
X166642858Y-47254762D01*
X166500000Y-47302381D01*
X166261905Y-47302381D01*
X167214286Y-46397619D02*
X167261905Y-46350000D01*
X167357143Y-46302381D01*
X167595239Y-46302381D01*
X167690477Y-46350000D01*
X167738096Y-46397619D01*
X167785715Y-46492857D01*
X167785715Y-46588095D01*
X167738096Y-46730952D01*
X167166667Y-47302381D01*
X167785715Y-47302381D01*
X169988095Y-41552381D02*
X169988095Y-40552381D01*
X170559524Y-41552381D02*
X170130952Y-40980952D01*
X170559524Y-40552381D02*
X169988095Y-41123810D01*
X163711905Y-41316667D02*
X164188096Y-41316667D01*
X163616667Y-41602381D02*
X163950000Y-40602381D01*
X164283334Y-41602381D01*
X166261905Y-93302381D02*
X166261905Y-92302381D01*
X166500000Y-92302381D01*
X166642858Y-92350000D01*
X166738096Y-92445238D01*
X166785715Y-92540476D01*
X166833334Y-92730952D01*
X166833334Y-92873810D01*
X166785715Y-93064286D01*
X166738096Y-93159524D01*
X166642858Y-93254762D01*
X166500000Y-93302381D01*
X166261905Y-93302381D01*
X167166667Y-92302381D02*
X167785715Y-92302381D01*
X167452381Y-92683333D01*
X167595239Y-92683333D01*
X167690477Y-92730952D01*
X167738096Y-92778571D01*
X167785715Y-92873810D01*
X167785715Y-93111905D01*
X167738096Y-93207143D01*
X167690477Y-93254762D01*
X167595239Y-93302381D01*
X167309524Y-93302381D01*
X167214286Y-93254762D01*
X167166667Y-93207143D01*
X169988095Y-87552381D02*
X169988095Y-86552381D01*
X170559524Y-87552381D02*
X170130952Y-86980952D01*
X170559524Y-86552381D02*
X169988095Y-87123810D01*
X163711905Y-87316667D02*
X164188096Y-87316667D01*
X163616667Y-87602381D02*
X163950000Y-86602381D01*
X164283334Y-87602381D01*
X144241143Y-66546762D02*
X144336381Y-66594381D01*
X144526857Y-66594381D01*
X144622096Y-66546762D01*
X144669715Y-66451524D01*
X144669715Y-66403905D01*
X144622096Y-66308667D01*
X144526857Y-66261048D01*
X144384000Y-66261048D01*
X144288762Y-66213429D01*
X144241143Y-66118190D01*
X144241143Y-66070571D01*
X144288762Y-65975333D01*
X144384000Y-65927714D01*
X144526857Y-65927714D01*
X144622096Y-65975333D01*
X145526858Y-66546762D02*
X145431620Y-66594381D01*
X145241143Y-66594381D01*
X145145905Y-66546762D01*
X145098286Y-66499143D01*
X145050667Y-66403905D01*
X145050667Y-66118190D01*
X145098286Y-66022952D01*
X145145905Y-65975333D01*
X145241143Y-65927714D01*
X145431620Y-65927714D01*
X145526858Y-65975333D01*
X145907810Y-66546762D02*
X146003048Y-66594381D01*
X146193524Y-66594381D01*
X146288763Y-66546762D01*
X146336382Y-66451524D01*
X146336382Y-66403905D01*
X146288763Y-66308667D01*
X146193524Y-66261048D01*
X146050667Y-66261048D01*
X145955429Y-66213429D01*
X145907810Y-66118190D01*
X145907810Y-66070571D01*
X145955429Y-65975333D01*
X146050667Y-65927714D01*
X146193524Y-65927714D01*
X146288763Y-65975333D01*
X146764953Y-66594381D02*
X146764953Y-65927714D01*
X146764953Y-65594381D02*
X146717334Y-65642000D01*
X146764953Y-65689619D01*
X146812572Y-65642000D01*
X146764953Y-65594381D01*
X146764953Y-65689619D01*
X147241143Y-66499143D02*
X147288762Y-66546762D01*
X147241143Y-66594381D01*
X147193524Y-66546762D01*
X147241143Y-66499143D01*
X147241143Y-66594381D01*
X148145905Y-66594381D02*
X148145905Y-65594381D01*
X148145905Y-66546762D02*
X148050667Y-66594381D01*
X147860190Y-66594381D01*
X147764952Y-66546762D01*
X147717333Y-66499143D01*
X147669714Y-66403905D01*
X147669714Y-66118190D01*
X147717333Y-66022952D01*
X147764952Y-65975333D01*
X147860190Y-65927714D01*
X148050667Y-65927714D01*
X148145905Y-65975333D01*
X149003048Y-66546762D02*
X148907810Y-66594381D01*
X148717333Y-66594381D01*
X148622095Y-66546762D01*
X148574476Y-66451524D01*
X148574476Y-66070571D01*
X148622095Y-65975333D01*
X148717333Y-65927714D01*
X148907810Y-65927714D01*
X149003048Y-65975333D01*
X149050667Y-66070571D01*
X149050667Y-66165810D01*
X148574476Y-66261048D01*
X149384000Y-65927714D02*
X149622095Y-66594381D01*
X149860191Y-65927714D01*
X150241143Y-66594381D02*
X150241143Y-65927714D01*
X150241143Y-65594381D02*
X150193524Y-65642000D01*
X150241143Y-65689619D01*
X150288762Y-65642000D01*
X150241143Y-65594381D01*
X150241143Y-65689619D01*
X151145905Y-66546762D02*
X151050667Y-66594381D01*
X150860190Y-66594381D01*
X150764952Y-66546762D01*
X150717333Y-66499143D01*
X150669714Y-66403905D01*
X150669714Y-66118190D01*
X150717333Y-66022952D01*
X150764952Y-65975333D01*
X150860190Y-65927714D01*
X151050667Y-65927714D01*
X151145905Y-65975333D01*
X151955429Y-66546762D02*
X151860191Y-66594381D01*
X151669714Y-66594381D01*
X151574476Y-66546762D01*
X151526857Y-66451524D01*
X151526857Y-66070571D01*
X151574476Y-65975333D01*
X151669714Y-65927714D01*
X151860191Y-65927714D01*
X151955429Y-65975333D01*
X152003048Y-66070571D01*
X152003048Y-66165810D01*
X151526857Y-66261048D01*
X152431619Y-66499143D02*
X152479238Y-66546762D01*
X152431619Y-66594381D01*
X152384000Y-66546762D01*
X152431619Y-66499143D01*
X152431619Y-66594381D01*
X152907809Y-66594381D02*
X152907809Y-65594381D01*
X152907809Y-65975333D02*
X153003047Y-65927714D01*
X153193524Y-65927714D01*
X153288762Y-65975333D01*
X153336381Y-66022952D01*
X153384000Y-66118190D01*
X153384000Y-66403905D01*
X153336381Y-66499143D01*
X153288762Y-66546762D01*
X153193524Y-66594381D01*
X153003047Y-66594381D01*
X152907809Y-66546762D01*
X154241143Y-65927714D02*
X154241143Y-66594381D01*
X153812571Y-65927714D02*
X153812571Y-66451524D01*
X153860190Y-66546762D01*
X153955428Y-66594381D01*
X154098286Y-66594381D01*
X154193524Y-66546762D01*
X154241143Y-66499143D01*
X154669714Y-66546762D02*
X154764952Y-66594381D01*
X154955428Y-66594381D01*
X155050667Y-66546762D01*
X155098286Y-66451524D01*
X155098286Y-66403905D01*
X155050667Y-66308667D01*
X154955428Y-66261048D01*
X154812571Y-66261048D01*
X154717333Y-66213429D01*
X154669714Y-66118190D01*
X154669714Y-66070571D01*
X154717333Y-65975333D01*
X154812571Y-65927714D01*
X154955428Y-65927714D01*
X155050667Y-65975333D01*
X155526857Y-66499143D02*
X155574476Y-66546762D01*
X155526857Y-66594381D01*
X155479238Y-66546762D01*
X155526857Y-66499143D01*
X155526857Y-66594381D01*
X156526857Y-66594381D02*
X155955428Y-66594381D01*
X156241142Y-66594381D02*
X156241142Y-65594381D01*
X156145904Y-65737238D01*
X156050666Y-65832476D01*
X155955428Y-65880095D01*
X144241143Y-47546762D02*
X144336381Y-47594381D01*
X144526857Y-47594381D01*
X144622096Y-47546762D01*
X144669715Y-47451524D01*
X144669715Y-47403905D01*
X144622096Y-47308667D01*
X144526857Y-47261048D01*
X144384000Y-47261048D01*
X144288762Y-47213429D01*
X144241143Y-47118190D01*
X144241143Y-47070571D01*
X144288762Y-46975333D01*
X144384000Y-46927714D01*
X144526857Y-46927714D01*
X144622096Y-46975333D01*
X145526858Y-47546762D02*
X145431620Y-47594381D01*
X145241143Y-47594381D01*
X145145905Y-47546762D01*
X145098286Y-47499143D01*
X145050667Y-47403905D01*
X145050667Y-47118190D01*
X145098286Y-47022952D01*
X145145905Y-46975333D01*
X145241143Y-46927714D01*
X145431620Y-46927714D01*
X145526858Y-46975333D01*
X145907810Y-47546762D02*
X146003048Y-47594381D01*
X146193524Y-47594381D01*
X146288763Y-47546762D01*
X146336382Y-47451524D01*
X146336382Y-47403905D01*
X146288763Y-47308667D01*
X146193524Y-47261048D01*
X146050667Y-47261048D01*
X145955429Y-47213429D01*
X145907810Y-47118190D01*
X145907810Y-47070571D01*
X145955429Y-46975333D01*
X146050667Y-46927714D01*
X146193524Y-46927714D01*
X146288763Y-46975333D01*
X146764953Y-47594381D02*
X146764953Y-46927714D01*
X146764953Y-46594381D02*
X146717334Y-46642000D01*
X146764953Y-46689619D01*
X146812572Y-46642000D01*
X146764953Y-46594381D01*
X146764953Y-46689619D01*
X147241143Y-47499143D02*
X147288762Y-47546762D01*
X147241143Y-47594381D01*
X147193524Y-47546762D01*
X147241143Y-47499143D01*
X147241143Y-47594381D01*
X148145905Y-47594381D02*
X148145905Y-46594381D01*
X148145905Y-47546762D02*
X148050667Y-47594381D01*
X147860190Y-47594381D01*
X147764952Y-47546762D01*
X147717333Y-47499143D01*
X147669714Y-47403905D01*
X147669714Y-47118190D01*
X147717333Y-47022952D01*
X147764952Y-46975333D01*
X147860190Y-46927714D01*
X148050667Y-46927714D01*
X148145905Y-46975333D01*
X149003048Y-47546762D02*
X148907810Y-47594381D01*
X148717333Y-47594381D01*
X148622095Y-47546762D01*
X148574476Y-47451524D01*
X148574476Y-47070571D01*
X148622095Y-46975333D01*
X148717333Y-46927714D01*
X148907810Y-46927714D01*
X149003048Y-46975333D01*
X149050667Y-47070571D01*
X149050667Y-47165810D01*
X148574476Y-47261048D01*
X149384000Y-46927714D02*
X149622095Y-47594381D01*
X149860191Y-46927714D01*
X150241143Y-47594381D02*
X150241143Y-46927714D01*
X150241143Y-46594381D02*
X150193524Y-46642000D01*
X150241143Y-46689619D01*
X150288762Y-46642000D01*
X150241143Y-46594381D01*
X150241143Y-46689619D01*
X151145905Y-47546762D02*
X151050667Y-47594381D01*
X150860190Y-47594381D01*
X150764952Y-47546762D01*
X150717333Y-47499143D01*
X150669714Y-47403905D01*
X150669714Y-47118190D01*
X150717333Y-47022952D01*
X150764952Y-46975333D01*
X150860190Y-46927714D01*
X151050667Y-46927714D01*
X151145905Y-46975333D01*
X151955429Y-47546762D02*
X151860191Y-47594381D01*
X151669714Y-47594381D01*
X151574476Y-47546762D01*
X151526857Y-47451524D01*
X151526857Y-47070571D01*
X151574476Y-46975333D01*
X151669714Y-46927714D01*
X151860191Y-46927714D01*
X151955429Y-46975333D01*
X152003048Y-47070571D01*
X152003048Y-47165810D01*
X151526857Y-47261048D01*
X152431619Y-47499143D02*
X152479238Y-47546762D01*
X152431619Y-47594381D01*
X152384000Y-47546762D01*
X152431619Y-47499143D01*
X152431619Y-47594381D01*
X152907809Y-47594381D02*
X152907809Y-46594381D01*
X152907809Y-46975333D02*
X153003047Y-46927714D01*
X153193524Y-46927714D01*
X153288762Y-46975333D01*
X153336381Y-47022952D01*
X153384000Y-47118190D01*
X153384000Y-47403905D01*
X153336381Y-47499143D01*
X153288762Y-47546762D01*
X153193524Y-47594381D01*
X153003047Y-47594381D01*
X152907809Y-47546762D01*
X154241143Y-46927714D02*
X154241143Y-47594381D01*
X153812571Y-46927714D02*
X153812571Y-47451524D01*
X153860190Y-47546762D01*
X153955428Y-47594381D01*
X154098286Y-47594381D01*
X154193524Y-47546762D01*
X154241143Y-47499143D01*
X154669714Y-47546762D02*
X154764952Y-47594381D01*
X154955428Y-47594381D01*
X155050667Y-47546762D01*
X155098286Y-47451524D01*
X155098286Y-47403905D01*
X155050667Y-47308667D01*
X154955428Y-47261048D01*
X154812571Y-47261048D01*
X154717333Y-47213429D01*
X154669714Y-47118190D01*
X154669714Y-47070571D01*
X154717333Y-46975333D01*
X154812571Y-46927714D01*
X154955428Y-46927714D01*
X155050667Y-46975333D01*
X155526857Y-47499143D02*
X155574476Y-47546762D01*
X155526857Y-47594381D01*
X155479238Y-47546762D01*
X155526857Y-47499143D01*
X155526857Y-47594381D01*
X155955428Y-46689619D02*
X156003047Y-46642000D01*
X156098285Y-46594381D01*
X156336381Y-46594381D01*
X156431619Y-46642000D01*
X156479238Y-46689619D01*
X156526857Y-46784857D01*
X156526857Y-46880095D01*
X156479238Y-47022952D01*
X155907809Y-47594381D01*
X156526857Y-47594381D01*
X144071429Y-93404762D02*
X144166667Y-93452381D01*
X144357143Y-93452381D01*
X144452382Y-93404762D01*
X144500001Y-93309524D01*
X144500001Y-93261905D01*
X144452382Y-93166667D01*
X144357143Y-93119048D01*
X144214286Y-93119048D01*
X144119048Y-93071429D01*
X144071429Y-92976190D01*
X144071429Y-92928571D01*
X144119048Y-92833333D01*
X144214286Y-92785714D01*
X144357143Y-92785714D01*
X144452382Y-92833333D01*
X145357144Y-93404762D02*
X145261906Y-93452381D01*
X145071429Y-93452381D01*
X144976191Y-93404762D01*
X144928572Y-93357143D01*
X144880953Y-93261905D01*
X144880953Y-92976190D01*
X144928572Y-92880952D01*
X144976191Y-92833333D01*
X145071429Y-92785714D01*
X145261906Y-92785714D01*
X145357144Y-92833333D01*
X145738096Y-93404762D02*
X145833334Y-93452381D01*
X146023810Y-93452381D01*
X146119049Y-93404762D01*
X146166668Y-93309524D01*
X146166668Y-93261905D01*
X146119049Y-93166667D01*
X146023810Y-93119048D01*
X145880953Y-93119048D01*
X145785715Y-93071429D01*
X145738096Y-92976190D01*
X145738096Y-92928571D01*
X145785715Y-92833333D01*
X145880953Y-92785714D01*
X146023810Y-92785714D01*
X146119049Y-92833333D01*
X146595239Y-93452381D02*
X146595239Y-92785714D01*
X146595239Y-92452381D02*
X146547620Y-92500000D01*
X146595239Y-92547619D01*
X146642858Y-92500000D01*
X146595239Y-92452381D01*
X146595239Y-92547619D01*
X147071429Y-93357143D02*
X147119048Y-93404762D01*
X147071429Y-93452381D01*
X147023810Y-93404762D01*
X147071429Y-93357143D01*
X147071429Y-93452381D01*
X147976191Y-93452381D02*
X147976191Y-92452381D01*
X147976191Y-93404762D02*
X147880953Y-93452381D01*
X147690476Y-93452381D01*
X147595238Y-93404762D01*
X147547619Y-93357143D01*
X147500000Y-93261905D01*
X147500000Y-92976190D01*
X147547619Y-92880952D01*
X147595238Y-92833333D01*
X147690476Y-92785714D01*
X147880953Y-92785714D01*
X147976191Y-92833333D01*
X148833334Y-93404762D02*
X148738096Y-93452381D01*
X148547619Y-93452381D01*
X148452381Y-93404762D01*
X148404762Y-93309524D01*
X148404762Y-92928571D01*
X148452381Y-92833333D01*
X148547619Y-92785714D01*
X148738096Y-92785714D01*
X148833334Y-92833333D01*
X148880953Y-92928571D01*
X148880953Y-93023810D01*
X148404762Y-93119048D01*
X149214286Y-92785714D02*
X149452381Y-93452381D01*
X149690477Y-92785714D01*
X150071429Y-93452381D02*
X150071429Y-92785714D01*
X150071429Y-92452381D02*
X150023810Y-92500000D01*
X150071429Y-92547619D01*
X150119048Y-92500000D01*
X150071429Y-92452381D01*
X150071429Y-92547619D01*
X150976191Y-93404762D02*
X150880953Y-93452381D01*
X150690476Y-93452381D01*
X150595238Y-93404762D01*
X150547619Y-93357143D01*
X150500000Y-93261905D01*
X150500000Y-92976190D01*
X150547619Y-92880952D01*
X150595238Y-92833333D01*
X150690476Y-92785714D01*
X150880953Y-92785714D01*
X150976191Y-92833333D01*
X151785715Y-93404762D02*
X151690477Y-93452381D01*
X151500000Y-93452381D01*
X151404762Y-93404762D01*
X151357143Y-93309524D01*
X151357143Y-92928571D01*
X151404762Y-92833333D01*
X151500000Y-92785714D01*
X151690477Y-92785714D01*
X151785715Y-92833333D01*
X151833334Y-92928571D01*
X151833334Y-93023810D01*
X151357143Y-93119048D01*
X152261905Y-93357143D02*
X152309524Y-93404762D01*
X152261905Y-93452381D01*
X152214286Y-93404762D01*
X152261905Y-93357143D01*
X152261905Y-93452381D01*
X153166667Y-92785714D02*
X153166667Y-93452381D01*
X152928571Y-92404762D02*
X152690476Y-93119048D01*
X153309524Y-93119048D01*
X154119048Y-92785714D02*
X154119048Y-93452381D01*
X153880952Y-92404762D02*
X153642857Y-93119048D01*
X154261905Y-93119048D01*
X154642857Y-92785714D02*
X154642857Y-93785714D01*
X154642857Y-92833333D02*
X154738095Y-92785714D01*
X154928572Y-92785714D01*
X155023810Y-92833333D01*
X155071429Y-92880952D01*
X155119048Y-92976190D01*
X155119048Y-93261905D01*
X155071429Y-93357143D01*
X155023810Y-93404762D01*
X154928572Y-93452381D01*
X154738095Y-93452381D01*
X154642857Y-93404762D01*
X155547619Y-93452381D02*
X155547619Y-92785714D01*
X155547619Y-92452381D02*
X155500000Y-92500000D01*
X155547619Y-92547619D01*
X155595238Y-92500000D01*
X155547619Y-92452381D01*
X155547619Y-92547619D01*
X156023809Y-92785714D02*
X156023809Y-93452381D01*
X156023809Y-92880952D02*
X156071428Y-92833333D01*
X156166666Y-92785714D01*
X156309524Y-92785714D01*
X156404762Y-92833333D01*
X156452381Y-92928571D01*
X156452381Y-93452381D01*
X156928571Y-93357143D02*
X156976190Y-93404762D01*
X156928571Y-93452381D01*
X156880952Y-93404762D01*
X156928571Y-93357143D01*
X156928571Y-93452381D01*
X157928571Y-93452381D02*
X157357142Y-93452381D01*
X157642856Y-93452381D02*
X157642856Y-92452381D01*
X157547618Y-92595238D01*
X157452380Y-92690476D01*
X157357142Y-92738095D01*
X179238095Y-84002381D02*
X179238095Y-84811905D01*
X179285714Y-84907143D01*
X179333333Y-84954762D01*
X179428571Y-85002381D01*
X179619048Y-85002381D01*
X179714286Y-84954762D01*
X179761905Y-84907143D01*
X179809524Y-84811905D01*
X179809524Y-84002381D01*
X180809524Y-85002381D02*
X180238095Y-85002381D01*
X180523809Y-85002381D02*
X180523809Y-84002381D01*
X180428571Y-84145238D01*
X180333333Y-84240476D01*
X180238095Y-84288095D01*
M02*
