M48
;DRILL file {KiCad 4.0.2+dfsg1-stable} date Fri 01 Mar 2019 18:56:57 CET
;FORMAT={-:-/ absolute / metric / decimal}
FMAT,2
METRIC,TZ
T1C0.400
T2C0.910
%
G90
G05
M71
T1
X133.215Y-92.053
X135.316Y-91.562
X141.781Y-127.656
X142.24Y-91.074
X144.78Y-91.357
X144.78Y-128.115
X146.05Y-126.808
X147.146Y-119.829
X147.754Y-128.5
X149.124Y-88.818
X149.668Y-120.814
X151.13Y-120.436
X152.4Y-91.26
X152.994Y-128.811
X154.264Y-127.694
X155.533Y-128.811
X156.801Y-127.531
X157.48Y-91.072
X158.067Y-128.811
X159.861Y-127.479
X160.718Y-128.532
X161.155Y-92.039
X167.005Y-126.904
X167.64Y-91.4
X167.64Y-127.858
X167.697Y-104.387
X171.016Y-104.962
X176.395Y-94.328
T2
X132.08Y-68.58
X132.08Y-71.12
X132.08Y-92.71
X132.08Y-95.25
X134.62Y-68.58
X134.62Y-71.12
X134.62Y-92.71
X134.62Y-95.25
X137.16Y-68.58
X137.16Y-71.12
X137.16Y-92.71
X137.16Y-95.25
X139.7Y-68.58
X139.7Y-71.12
X139.7Y-92.71
X139.7Y-95.25
X142.24Y-68.58
X142.24Y-71.12
X142.24Y-92.71
X142.24Y-95.25
X144.78Y-68.58
X144.78Y-71.12
X144.78Y-92.71
X144.78Y-95.25
X147.32Y-68.58
X147.32Y-71.12
X147.32Y-92.71
X147.32Y-95.25
X149.86Y-68.58
X149.86Y-71.12
X149.86Y-92.71
X149.86Y-95.25
X152.4Y-68.58
X152.4Y-71.12
X152.4Y-92.71
X152.4Y-95.25
X154.94Y-68.58
X154.94Y-71.12
X154.94Y-92.71
X154.94Y-95.25
X157.48Y-68.58
X157.48Y-71.12
X157.48Y-92.71
X157.48Y-95.25
X160.02Y-68.58
X160.02Y-71.12
X160.02Y-92.71
X160.02Y-95.25
X162.56Y-68.58
X162.56Y-71.12
X162.56Y-92.71
X162.56Y-95.25
X165.1Y-68.58
X165.1Y-71.12
X165.1Y-92.71
X165.1Y-95.25
X167.64Y-68.58
X167.64Y-71.12
X167.64Y-92.71
X167.64Y-95.25
X170.18Y-68.58
X170.18Y-71.12
X170.18Y-92.71
X170.18Y-95.25
X172.72Y-68.58
X172.72Y-71.12
X172.72Y-92.71
X172.72Y-95.25
X175.26Y-68.58
X175.26Y-71.12
X175.26Y-92.71
X175.26Y-95.25
X177.8Y-68.58
X177.8Y-71.12
X177.8Y-92.71
X177.8Y-95.25
X180.34Y-68.58
X180.34Y-71.12
X180.34Y-92.71
X180.34Y-95.25
T0
M30
