G04 #@! TF.FileFunction,Soldermask,Top*
%FSLAX46Y46*%
G04 Gerber Fmt 4.6, Leading zero omitted, Abs format (unit mm)*
G04 Created by KiCad (PCBNEW 4.0.2+dfsg1-stable) date Sat 12 Oct 2019 23:15:48 CEST*
%MOMM*%
G01*
G04 APERTURE LIST*
%ADD10C,0.100000*%
%ADD11R,2.400000X2.100000*%
%ADD12R,1.997660X2.200860*%
%ADD13R,1.400000X5.400000*%
%ADD14R,3.900120X2.200860*%
%ADD15R,1.920000X1.920000*%
%ADD16C,1.920000*%
%ADD17R,1.750000X1.750000*%
%ADD18O,1.750000X1.750000*%
%ADD19R,1.500000X0.800000*%
%ADD20C,1.000000*%
G04 APERTURE END LIST*
D10*
D11*
X177000000Y-90000000D03*
X173000000Y-90000000D03*
X178000000Y-64000000D03*
X174000000Y-64000000D03*
X178000000Y-44000000D03*
X174000000Y-44000000D03*
D12*
X180580140Y-64000000D03*
X183419860Y-64000000D03*
X180580140Y-44000000D03*
X183419860Y-44000000D03*
X179580140Y-90000000D03*
X182419860Y-90000000D03*
D13*
X128860000Y-133620000D03*
X130860000Y-133620000D03*
X132860000Y-133620000D03*
X134860000Y-133620000D03*
X136860000Y-133620000D03*
X138860000Y-133620000D03*
X140860000Y-133620000D03*
X142860000Y-133620000D03*
X144860000Y-133620000D03*
X146860000Y-133620000D03*
X148860000Y-133620000D03*
X150860000Y-133620000D03*
X152860000Y-133620000D03*
X154860000Y-133620000D03*
X156860000Y-133620000D03*
X158860000Y-133620000D03*
X160860000Y-133620000D03*
X162860000Y-133620000D03*
X164860000Y-133620000D03*
X166860000Y-133620000D03*
X168860000Y-133620000D03*
X170860000Y-133620000D03*
D14*
X169499360Y-64000000D03*
X164500640Y-64000000D03*
X169499360Y-44000000D03*
X164500640Y-44000000D03*
X169499360Y-90000000D03*
X164500640Y-90000000D03*
D15*
X126000000Y-73000000D03*
D16*
X126000000Y-70460000D03*
X128540000Y-73000000D03*
X128540000Y-70460000D03*
X131080000Y-73000000D03*
X131080000Y-70460000D03*
X133620000Y-73000000D03*
X133620000Y-70460000D03*
X136160000Y-73000000D03*
X136160000Y-70460000D03*
X138700000Y-73000000D03*
X138700000Y-70460000D03*
X141240000Y-73000000D03*
X141240000Y-70460000D03*
X143780000Y-73000000D03*
X143780000Y-70460000D03*
X146320000Y-73000000D03*
X146320000Y-70460000D03*
X148860000Y-73000000D03*
X148860000Y-70460000D03*
X151400000Y-73000000D03*
X151400000Y-70460000D03*
X153940000Y-73000000D03*
X153940000Y-70460000D03*
X156480000Y-73000000D03*
X156480000Y-70460000D03*
X159020000Y-73000000D03*
X159020000Y-70460000D03*
X161560000Y-73000000D03*
X161560000Y-70460000D03*
X164100000Y-73000000D03*
X164100000Y-70460000D03*
X166640000Y-73000000D03*
X166640000Y-70460000D03*
X169180000Y-73000000D03*
X169180000Y-70460000D03*
X171720000Y-73000000D03*
X171720000Y-70460000D03*
X174260000Y-73000000D03*
X174260000Y-70460000D03*
D15*
X126000000Y-54000000D03*
D16*
X126000000Y-51460000D03*
X128540000Y-54000000D03*
X128540000Y-51460000D03*
X131080000Y-54000000D03*
X131080000Y-51460000D03*
X133620000Y-54000000D03*
X133620000Y-51460000D03*
X136160000Y-54000000D03*
X136160000Y-51460000D03*
X138700000Y-54000000D03*
X138700000Y-51460000D03*
X141240000Y-54000000D03*
X141240000Y-51460000D03*
X143780000Y-54000000D03*
X143780000Y-51460000D03*
X146320000Y-54000000D03*
X146320000Y-51460000D03*
X148860000Y-54000000D03*
X148860000Y-51460000D03*
X151400000Y-54000000D03*
X151400000Y-51460000D03*
X153940000Y-54000000D03*
X153940000Y-51460000D03*
X156480000Y-54000000D03*
X156480000Y-51460000D03*
X159020000Y-54000000D03*
X159020000Y-51460000D03*
X161560000Y-54000000D03*
X161560000Y-51460000D03*
X164100000Y-54000000D03*
X164100000Y-51460000D03*
X166640000Y-54000000D03*
X166640000Y-51460000D03*
X169180000Y-54000000D03*
X169180000Y-51460000D03*
X171720000Y-54000000D03*
X171720000Y-51460000D03*
X174260000Y-54000000D03*
X174260000Y-51460000D03*
D17*
X129000000Y-98000000D03*
D18*
X129000000Y-96000000D03*
X131000000Y-98000000D03*
X131000000Y-96000000D03*
X133000000Y-98000000D03*
X133000000Y-96000000D03*
X135000000Y-98000000D03*
X135000000Y-96000000D03*
X137000000Y-98000000D03*
X137000000Y-96000000D03*
X139000000Y-98000000D03*
X139000000Y-96000000D03*
X141000000Y-98000000D03*
X141000000Y-96000000D03*
X143000000Y-98000000D03*
X143000000Y-96000000D03*
X145000000Y-98000000D03*
X145000000Y-96000000D03*
X147000000Y-98000000D03*
X147000000Y-96000000D03*
X149000000Y-98000000D03*
X149000000Y-96000000D03*
X151000000Y-98000000D03*
X151000000Y-96000000D03*
X153000000Y-98000000D03*
X153000000Y-96000000D03*
X155000000Y-98000000D03*
X155000000Y-96000000D03*
X157000000Y-98000000D03*
X157000000Y-96000000D03*
X159000000Y-98000000D03*
X159000000Y-96000000D03*
X161000000Y-98000000D03*
X161000000Y-96000000D03*
X163000000Y-98000000D03*
X163000000Y-96000000D03*
X165000000Y-98000000D03*
X165000000Y-96000000D03*
X167000000Y-98000000D03*
X167000000Y-96000000D03*
X169000000Y-98000000D03*
X169000000Y-96000000D03*
X171000000Y-98000000D03*
X171000000Y-96000000D03*
D19*
X182150000Y-82975000D03*
X182150000Y-82325000D03*
X182150000Y-81675000D03*
X182150000Y-81025000D03*
X177850000Y-81025000D03*
X177850000Y-81675000D03*
X177850000Y-82325000D03*
X177850000Y-82975000D03*
D20*
X127632000Y-130518800D03*
X128986900Y-124845900D03*
X129267400Y-117698100D03*
X130458400Y-115924900D03*
X133087600Y-117534600D03*
X134487800Y-117434000D03*
X138015400Y-119101600D03*
X140832100Y-94006500D03*
X142940900Y-93394900D03*
X146320000Y-92729200D03*
X148361800Y-92035200D03*
X151400000Y-90932200D03*
X150860000Y-103469800D03*
X152860000Y-102161200D03*
X172870700Y-86720000D03*
X169519500Y-65422800D03*
X159257500Y-104611100D03*
X170200500Y-61898400D03*
X163000000Y-102303000D03*
X175808300Y-91371700D03*
X175408700Y-52267700D03*
X174623500Y-55932900D03*
X173687900Y-99907700D03*
X168699900Y-129101500D03*
X168203000Y-129866300D03*
X169259000Y-119351900D03*
X130419400Y-76612900D03*
X143271900Y-74961200D03*
X174450400Y-97505100D03*
X175821200Y-111546500D03*
X162365600Y-93380600D03*
X174464000Y-99191900D03*
X174509200Y-115958500D03*
X165825000Y-93963300D03*
X173689800Y-98616500D03*
X167225700Y-127565100D03*
X163602300Y-66843100D03*
X166316700Y-88365700D03*
X177728900Y-70115400D03*
X180363700Y-83115300D03*
X175151300Y-98039800D03*
M02*
