G04 #@! TF.FileFunction,Copper,L1,Top,Signal*
%FSLAX46Y46*%
G04 Gerber Fmt 4.6, Leading zero omitted, Abs format (unit mm)*
G04 Created by KiCad (PCBNEW 4.0.2+dfsg1-stable) date Sat 02 Mar 2019 14:04:28 CET*
%MOMM*%
G01*
G04 APERTURE LIST*
%ADD10C,0.100000*%
%ADD11R,2.000000X1.700000*%
%ADD12R,1.597660X1.800860*%
%ADD13R,1.000000X5.000000*%
%ADD14R,3.500120X1.800860*%
%ADD15R,1.520000X1.520000*%
%ADD16C,1.520000*%
%ADD17R,1.350000X1.350000*%
%ADD18O,1.350000X1.350000*%
%ADD19C,0.600000*%
%ADD20C,0.300000*%
%ADD21C,0.254000*%
G04 APERTURE END LIST*
D10*
D11*
X177000000Y-90000000D03*
X173000000Y-90000000D03*
X178000000Y-64000000D03*
X174000000Y-64000000D03*
X178000000Y-44000000D03*
X174000000Y-44000000D03*
D12*
X180580140Y-64000000D03*
X183419860Y-64000000D03*
X180580140Y-44000000D03*
X183419860Y-44000000D03*
X179580140Y-90000000D03*
X182419860Y-90000000D03*
D13*
X128860000Y-133620000D03*
X130860000Y-133620000D03*
X132860000Y-133620000D03*
X134860000Y-133620000D03*
X136860000Y-133620000D03*
X138860000Y-133620000D03*
X140860000Y-133620000D03*
X142860000Y-133620000D03*
X144860000Y-133620000D03*
X146860000Y-133620000D03*
X148860000Y-133620000D03*
X150860000Y-133620000D03*
X152860000Y-133620000D03*
X154860000Y-133620000D03*
X156860000Y-133620000D03*
X158860000Y-133620000D03*
X160860000Y-133620000D03*
X162860000Y-133620000D03*
X164860000Y-133620000D03*
X166860000Y-133620000D03*
X168860000Y-133620000D03*
X170860000Y-133620000D03*
D14*
X169499360Y-64000000D03*
X164500640Y-64000000D03*
X169499360Y-44000000D03*
X164500640Y-44000000D03*
X169499360Y-90000000D03*
X164500640Y-90000000D03*
D15*
X126000000Y-73000000D03*
D16*
X126000000Y-70460000D03*
X128540000Y-73000000D03*
X128540000Y-70460000D03*
X131080000Y-73000000D03*
X131080000Y-70460000D03*
X133620000Y-73000000D03*
X133620000Y-70460000D03*
X136160000Y-73000000D03*
X136160000Y-70460000D03*
X138700000Y-73000000D03*
X138700000Y-70460000D03*
X141240000Y-73000000D03*
X141240000Y-70460000D03*
X143780000Y-73000000D03*
X143780000Y-70460000D03*
X146320000Y-73000000D03*
X146320000Y-70460000D03*
X148860000Y-73000000D03*
X148860000Y-70460000D03*
X151400000Y-73000000D03*
X151400000Y-70460000D03*
X153940000Y-73000000D03*
X153940000Y-70460000D03*
X156480000Y-73000000D03*
X156480000Y-70460000D03*
X159020000Y-73000000D03*
X159020000Y-70460000D03*
X161560000Y-73000000D03*
X161560000Y-70460000D03*
X164100000Y-73000000D03*
X164100000Y-70460000D03*
X166640000Y-73000000D03*
X166640000Y-70460000D03*
X169180000Y-73000000D03*
X169180000Y-70460000D03*
X171720000Y-73000000D03*
X171720000Y-70460000D03*
X174260000Y-73000000D03*
X174260000Y-70460000D03*
D15*
X126000000Y-54000000D03*
D16*
X126000000Y-51460000D03*
X128540000Y-54000000D03*
X128540000Y-51460000D03*
X131080000Y-54000000D03*
X131080000Y-51460000D03*
X133620000Y-54000000D03*
X133620000Y-51460000D03*
X136160000Y-54000000D03*
X136160000Y-51460000D03*
X138700000Y-54000000D03*
X138700000Y-51460000D03*
X141240000Y-54000000D03*
X141240000Y-51460000D03*
X143780000Y-54000000D03*
X143780000Y-51460000D03*
X146320000Y-54000000D03*
X146320000Y-51460000D03*
X148860000Y-54000000D03*
X148860000Y-51460000D03*
X151400000Y-54000000D03*
X151400000Y-51460000D03*
X153940000Y-54000000D03*
X153940000Y-51460000D03*
X156480000Y-54000000D03*
X156480000Y-51460000D03*
X159020000Y-54000000D03*
X159020000Y-51460000D03*
X161560000Y-54000000D03*
X161560000Y-51460000D03*
X164100000Y-54000000D03*
X164100000Y-51460000D03*
X166640000Y-54000000D03*
X166640000Y-51460000D03*
X169180000Y-54000000D03*
X169180000Y-51460000D03*
X171720000Y-54000000D03*
X171720000Y-51460000D03*
X174260000Y-54000000D03*
X174260000Y-51460000D03*
D17*
X129000000Y-98000000D03*
D18*
X129000000Y-96000000D03*
X131000000Y-98000000D03*
X131000000Y-96000000D03*
X133000000Y-98000000D03*
X133000000Y-96000000D03*
X135000000Y-98000000D03*
X135000000Y-96000000D03*
X137000000Y-98000000D03*
X137000000Y-96000000D03*
X139000000Y-98000000D03*
X139000000Y-96000000D03*
X141000000Y-98000000D03*
X141000000Y-96000000D03*
X143000000Y-98000000D03*
X143000000Y-96000000D03*
X145000000Y-98000000D03*
X145000000Y-96000000D03*
X147000000Y-98000000D03*
X147000000Y-96000000D03*
X149000000Y-98000000D03*
X149000000Y-96000000D03*
X151000000Y-98000000D03*
X151000000Y-96000000D03*
X153000000Y-98000000D03*
X153000000Y-96000000D03*
X155000000Y-98000000D03*
X155000000Y-96000000D03*
X157000000Y-98000000D03*
X157000000Y-96000000D03*
X159000000Y-98000000D03*
X159000000Y-96000000D03*
X161000000Y-98000000D03*
X161000000Y-96000000D03*
X163000000Y-98000000D03*
X163000000Y-96000000D03*
X165000000Y-98000000D03*
X165000000Y-96000000D03*
X167000000Y-98000000D03*
X167000000Y-96000000D03*
X169000000Y-98000000D03*
X169000000Y-96000000D03*
X171000000Y-98000000D03*
X171000000Y-96000000D03*
D19*
X171833300Y-98888700D03*
X168579700Y-75684400D03*
X129658000Y-94911100D03*
X130366600Y-93357200D03*
X133620000Y-92393900D03*
X135244500Y-91018700D03*
X138645100Y-90533200D03*
X141073000Y-85617400D03*
X143656200Y-82326800D03*
X146309300Y-79573900D03*
X148666600Y-78923500D03*
X151720900Y-76135000D03*
X159020000Y-76231800D03*
X161560000Y-79613200D03*
X157967500Y-116939900D03*
X171461900Y-87429700D03*
X166640000Y-85584300D03*
X168065700Y-88564900D03*
X170889700Y-92448800D03*
X168786600Y-130571000D03*
X170049100Y-129906700D03*
X169482900Y-119279300D03*
X128513000Y-79328400D03*
X131016900Y-77585100D03*
X167251200Y-86123100D03*
D20*
X178000000Y-64000000D02*
X180580100Y-64000000D01*
X167000000Y-130629700D02*
X166860000Y-130769700D01*
X167000000Y-98000000D02*
X167000000Y-130629700D01*
X166860000Y-133620000D02*
X166860000Y-130769700D01*
X183419900Y-64000000D02*
X182270800Y-64000000D01*
X182419900Y-90000000D02*
X182102500Y-90000000D01*
X182270800Y-64989200D02*
X182270800Y-64000000D01*
X174260000Y-73000000D02*
X182270800Y-64989200D01*
X182102500Y-80842500D02*
X182102500Y-90000000D01*
X174260000Y-73000000D02*
X182102500Y-80842500D01*
X173213800Y-98888700D02*
X171833300Y-98888700D01*
X182102500Y-90000000D02*
X173213800Y-98888700D01*
X178000000Y-44000000D02*
X180580100Y-44000000D01*
X182270800Y-45989200D02*
X174260000Y-54000000D01*
X182270800Y-44000000D02*
X182270800Y-45989200D01*
X183419900Y-44000000D02*
X182270800Y-44000000D01*
X124889600Y-69349600D02*
X126000000Y-70460000D01*
X124889600Y-52570400D02*
X124889600Y-69349600D01*
X126000000Y-51460000D02*
X124889600Y-52570400D01*
X127110400Y-93085100D02*
X129000000Y-94974700D01*
X127110400Y-71570400D02*
X127110400Y-93085100D01*
X126000000Y-70460000D02*
X127110400Y-71570400D01*
X129000000Y-96000000D02*
X129000000Y-94974700D01*
X126000000Y-73000000D02*
X126000000Y-74110300D01*
X129000000Y-130629700D02*
X129000000Y-98000000D01*
X128860000Y-130769700D02*
X129000000Y-130629700D01*
X128860000Y-133620000D02*
X128860000Y-130769700D01*
X126000000Y-95000000D02*
X129000000Y-98000000D01*
X126000000Y-74110300D02*
X126000000Y-95000000D01*
X165000000Y-96000000D02*
X165000000Y-94974700D01*
X168579700Y-87101000D02*
X168579700Y-75684400D01*
X167258800Y-88421900D02*
X168579700Y-87101000D01*
X167258800Y-92715900D02*
X167258800Y-88421900D01*
X165000000Y-94974700D02*
X167258800Y-92715900D01*
X171720000Y-58096200D02*
X171720000Y-70460000D01*
X170593700Y-56969900D02*
X171720000Y-58096200D01*
X170593700Y-52586300D02*
X170593700Y-56969900D01*
X171720000Y-51460000D02*
X170593700Y-52586300D01*
X131000000Y-130629700D02*
X131000000Y-98000000D01*
X130860000Y-130769700D02*
X131000000Y-130629700D01*
X130860000Y-133620000D02*
X130860000Y-130769700D01*
X127862700Y-93115800D02*
X129658000Y-94911100D01*
X127862700Y-73677300D02*
X127862700Y-93115800D01*
X128540000Y-73000000D02*
X127862700Y-73677300D01*
X133000000Y-130629700D02*
X133000000Y-98000000D01*
X132860000Y-130769700D02*
X133000000Y-130629700D01*
X132860000Y-133620000D02*
X132860000Y-130769700D01*
X130366600Y-73713400D02*
X130366600Y-93357200D01*
X131080000Y-73000000D02*
X130366600Y-73713400D01*
X135000000Y-130629700D02*
X135000000Y-98000000D01*
X134860000Y-130769700D02*
X135000000Y-130629700D01*
X134860000Y-133620000D02*
X134860000Y-130769700D01*
X133620000Y-73000000D02*
X133620000Y-92393900D01*
X137000000Y-130629700D02*
X137000000Y-98000000D01*
X136860000Y-130769700D02*
X137000000Y-130629700D01*
X136860000Y-133620000D02*
X136860000Y-130769700D01*
X136160000Y-90103200D02*
X136160000Y-73000000D01*
X135244500Y-91018700D02*
X136160000Y-90103200D01*
X139000000Y-130629700D02*
X139000000Y-98000000D01*
X138860000Y-130769700D02*
X139000000Y-130629700D01*
X138860000Y-133620000D02*
X138860000Y-130769700D01*
X138700000Y-90478300D02*
X138645100Y-90533200D01*
X138700000Y-73000000D02*
X138700000Y-90478300D01*
X141000000Y-130629700D02*
X141000000Y-98000000D01*
X140860000Y-130769700D02*
X141000000Y-130629700D01*
X140860000Y-133620000D02*
X140860000Y-130769700D01*
X141073000Y-73167000D02*
X141073000Y-85617400D01*
X141240000Y-73000000D02*
X141073000Y-73167000D01*
X142860000Y-133620000D02*
X142860000Y-130769700D01*
X142860000Y-99165300D02*
X142860000Y-130769700D01*
X143000000Y-99025300D02*
X142860000Y-99165300D01*
X143000000Y-98000000D02*
X143000000Y-99025300D01*
X143780000Y-82203000D02*
X143656200Y-82326800D01*
X143780000Y-73000000D02*
X143780000Y-82203000D01*
X144860000Y-133620000D02*
X144860000Y-130769700D01*
X145000000Y-130629700D02*
X145000000Y-99025300D01*
X144860000Y-130769700D02*
X145000000Y-130629700D01*
X145000000Y-98000000D02*
X145000000Y-99025300D01*
X146320000Y-79563200D02*
X146309300Y-79573900D01*
X146320000Y-73000000D02*
X146320000Y-79563200D01*
X147000000Y-130629700D02*
X147000000Y-98000000D01*
X146860000Y-130769700D02*
X147000000Y-130629700D01*
X146860000Y-133620000D02*
X146860000Y-130769700D01*
X148860000Y-78730100D02*
X148666600Y-78923500D01*
X148860000Y-73000000D02*
X148860000Y-78730100D01*
X149000000Y-130629700D02*
X149000000Y-98000000D01*
X148860000Y-130769700D02*
X149000000Y-130629700D01*
X148860000Y-133620000D02*
X148860000Y-130769700D01*
X151400000Y-75814100D02*
X151400000Y-73000000D01*
X151720900Y-76135000D02*
X151400000Y-75814100D01*
X151000000Y-130629700D02*
X151000000Y-98000000D01*
X150860000Y-130769700D02*
X151000000Y-130629700D01*
X150860000Y-133620000D02*
X150860000Y-130769700D01*
X153000000Y-130629700D02*
X153000000Y-98000000D01*
X152860000Y-130769700D02*
X153000000Y-130629700D01*
X152860000Y-133620000D02*
X152860000Y-130769700D01*
X155368700Y-55111300D02*
X156480000Y-54000000D01*
X155368700Y-71888700D02*
X155368700Y-55111300D01*
X156480000Y-73000000D02*
X155368700Y-71888700D01*
X155000000Y-130629700D02*
X155000000Y-98000000D01*
X154860000Y-130769700D02*
X155000000Y-130629700D01*
X154860000Y-133620000D02*
X154860000Y-130769700D01*
X159020000Y-76231800D02*
X159020000Y-73000000D01*
X156860000Y-133620000D02*
X156860000Y-130769700D01*
X157000000Y-130629700D02*
X156860000Y-130769700D01*
X157000000Y-98000000D02*
X157000000Y-130629700D01*
X161560000Y-73000000D02*
X161560000Y-79613200D01*
X157967500Y-129877200D02*
X157967500Y-116939900D01*
X158860000Y-130769700D02*
X157967500Y-129877200D01*
X169499400Y-90000000D02*
X169499400Y-88749300D01*
X158860000Y-133620000D02*
X158860000Y-130769700D01*
X168069100Y-46681000D02*
X169499400Y-45250700D01*
X168069100Y-61319000D02*
X168069100Y-46681000D01*
X169499400Y-62749300D02*
X168069100Y-61319000D01*
X169499400Y-64000000D02*
X169499400Y-62749300D01*
X169499400Y-44000000D02*
X169499400Y-45250700D01*
X169499400Y-64000000D02*
X169499400Y-65250700D01*
X170501100Y-87429700D02*
X171461900Y-87429700D01*
X170501100Y-87747600D02*
X170501100Y-87429700D01*
X169499400Y-88749300D02*
X170501100Y-87747600D01*
X170501100Y-66252400D02*
X169499400Y-65250700D01*
X170501100Y-87429700D02*
X170501100Y-66252400D01*
X160860000Y-133620000D02*
X160860000Y-130769700D01*
X161000000Y-130629700D02*
X161000000Y-99025300D01*
X160860000Y-130769700D02*
X161000000Y-130629700D01*
X161000000Y-98000000D02*
X161000000Y-99025300D01*
X166640000Y-73000000D02*
X166640000Y-85584300D01*
X162860000Y-133620000D02*
X162860000Y-130769700D01*
X163000000Y-130629700D02*
X163000000Y-99025300D01*
X162860000Y-130769700D02*
X163000000Y-130629700D01*
X163000000Y-98000000D02*
X163000000Y-99025300D01*
X169267300Y-87363300D02*
X168065700Y-88564900D01*
X169267300Y-73087300D02*
X169267300Y-87363300D01*
X169180000Y-73000000D02*
X169267300Y-73087300D01*
X164860000Y-133620000D02*
X164860000Y-130769700D01*
X165000000Y-98000000D02*
X165000000Y-99025300D01*
X164860000Y-99165300D02*
X165000000Y-99025300D01*
X164860000Y-130769700D02*
X164860000Y-99165300D01*
X172137300Y-73417300D02*
X171720000Y-73000000D01*
X172137300Y-87876500D02*
X172137300Y-73417300D01*
X171599900Y-88413900D02*
X172137300Y-87876500D01*
X171599900Y-91738600D02*
X171599900Y-88413900D01*
X170889700Y-92448800D02*
X171599900Y-91738600D01*
X169000000Y-96000000D02*
X169000000Y-94974700D01*
X174000000Y-44000000D02*
X174000000Y-43149700D01*
X173000000Y-91258200D02*
X173000000Y-90000000D01*
X169283500Y-94974700D02*
X173000000Y-91258200D01*
X169000000Y-94974700D02*
X169283500Y-94974700D01*
X173000000Y-90000000D02*
X173000000Y-89149700D01*
X174417800Y-42731900D02*
X174000000Y-43149700D01*
X184352300Y-42731900D02*
X174417800Y-42731900D01*
X184569100Y-42948700D02*
X184352300Y-42731900D01*
X184569100Y-54653700D02*
X184569100Y-42948700D01*
X176073200Y-63149600D02*
X184569100Y-54653700D01*
X176073200Y-70251300D02*
X176073200Y-63149600D01*
X174686900Y-71637600D02*
X176073200Y-70251300D01*
X173125000Y-71637600D02*
X174686900Y-71637600D01*
X173125000Y-89024700D02*
X173125000Y-71637600D01*
X173000000Y-89149700D02*
X173125000Y-89024700D01*
X173125000Y-65725300D02*
X174000000Y-64850300D01*
X173125000Y-71637600D02*
X173125000Y-65725300D01*
X174000000Y-64000000D02*
X174000000Y-64850300D01*
X169000000Y-96000000D02*
X169000000Y-98000000D01*
X169000000Y-98000000D02*
X169000000Y-99025300D01*
X168860000Y-133620000D02*
X168860000Y-130769700D01*
X168786600Y-99238700D02*
X168786600Y-130571000D01*
X169000000Y-99025300D02*
X168786600Y-99238700D01*
X168786600Y-130696300D02*
X168860000Y-130769700D01*
X168786600Y-130571000D02*
X168786600Y-130696300D01*
X160448700Y-52571300D02*
X161560000Y-51460000D01*
X160448700Y-69348700D02*
X160448700Y-52571300D01*
X161560000Y-70460000D02*
X160448700Y-69348700D01*
X170860000Y-133620000D02*
X170860000Y-130769700D01*
X160290000Y-71730000D02*
X161560000Y-70460000D01*
X160290000Y-79718100D02*
X160290000Y-71730000D01*
X158090800Y-81917300D02*
X160290000Y-79718100D01*
X158090800Y-93883900D02*
X158090800Y-81917300D01*
X157000000Y-94974700D02*
X158090800Y-93883900D01*
X157000000Y-96000000D02*
X157000000Y-94974700D01*
X170049100Y-129958800D02*
X170049100Y-129906700D01*
X170860000Y-130769700D02*
X170049100Y-129958800D01*
X171000000Y-98000000D02*
X171000000Y-99025300D01*
X175350400Y-69369600D02*
X174260000Y-70460000D01*
X175350400Y-61018900D02*
X175350400Y-69369600D01*
X173149700Y-58818200D02*
X175350400Y-61018900D01*
X173149700Y-52570300D02*
X173149700Y-58818200D01*
X174260000Y-51460000D02*
X173149700Y-52570300D01*
X170049100Y-119279300D02*
X169482900Y-119279300D01*
X170049100Y-129906700D02*
X170049100Y-119279300D01*
X170049100Y-99976200D02*
X171000000Y-99025300D01*
X170049100Y-119279300D02*
X170049100Y-99976200D01*
X127424500Y-52575500D02*
X128540000Y-51460000D01*
X127424500Y-69344500D02*
X127424500Y-52575500D01*
X128540000Y-70460000D02*
X127424500Y-69344500D01*
X131000000Y-96000000D02*
X131000000Y-94974700D01*
X128889700Y-92864400D02*
X128889700Y-79659200D01*
X131000000Y-94974700D02*
X128889700Y-92864400D01*
X128843800Y-79659200D02*
X128889700Y-79659200D01*
X128513000Y-79328400D02*
X128843800Y-79659200D01*
X129650300Y-71570300D02*
X128540000Y-70460000D01*
X129650300Y-78898600D02*
X129650300Y-71570300D01*
X128889700Y-79659200D02*
X129650300Y-78898600D01*
X129968700Y-52571300D02*
X131080000Y-51460000D01*
X129968700Y-69348700D02*
X129968700Y-52571300D01*
X131080000Y-70460000D02*
X129968700Y-69348700D01*
X133000000Y-96000000D02*
X133000000Y-94974700D01*
X131016900Y-92991600D02*
X131016900Y-77585100D01*
X133000000Y-94974700D02*
X131016900Y-92991600D01*
X132508700Y-52571300D02*
X133620000Y-51460000D01*
X132508700Y-69348700D02*
X132508700Y-52571300D01*
X133620000Y-70460000D02*
X132508700Y-69348700D01*
X135000000Y-96000000D02*
X135000000Y-94974700D01*
X132503300Y-92478000D02*
X135000000Y-94974700D01*
X132503300Y-71576700D02*
X132503300Y-92478000D01*
X133620000Y-70460000D02*
X132503300Y-71576700D01*
X135048700Y-52571300D02*
X136160000Y-51460000D01*
X135048700Y-69348700D02*
X135048700Y-52571300D01*
X136160000Y-70460000D02*
X135048700Y-69348700D01*
X137000000Y-96000000D02*
X137000000Y-94974700D01*
X134990700Y-92965400D02*
X137000000Y-94974700D01*
X134990700Y-91684400D02*
X134990700Y-92965400D01*
X134990600Y-91684400D02*
X134990700Y-91684400D01*
X134594200Y-91288000D02*
X134990600Y-91684400D01*
X134594200Y-90749400D02*
X134594200Y-91288000D01*
X134990700Y-90352900D02*
X134594200Y-90749400D01*
X134990700Y-71629300D02*
X134990700Y-90352900D01*
X136160000Y-70460000D02*
X134990700Y-71629300D01*
X137588700Y-52571300D02*
X138700000Y-51460000D01*
X137588700Y-69348700D02*
X137588700Y-52571300D01*
X138700000Y-70460000D02*
X137588700Y-69348700D01*
X139000000Y-96000000D02*
X139000000Y-94974700D01*
X137589200Y-93563900D02*
X139000000Y-94974700D01*
X137589200Y-71570800D02*
X137589200Y-93563900D01*
X138700000Y-70460000D02*
X137589200Y-71570800D01*
X140128700Y-52571300D02*
X141240000Y-51460000D01*
X140128700Y-69348700D02*
X140128700Y-52571300D01*
X141240000Y-70460000D02*
X140128700Y-69348700D01*
X141000000Y-96000000D02*
X141000000Y-94974700D01*
X140082700Y-94057400D02*
X141000000Y-94974700D01*
X140082700Y-71617300D02*
X140082700Y-94057400D01*
X141240000Y-70460000D02*
X140082700Y-71617300D01*
X142668700Y-69348700D02*
X143780000Y-70460000D01*
X142668700Y-52571300D02*
X142668700Y-69348700D01*
X143780000Y-51460000D02*
X142668700Y-52571300D01*
X143000000Y-96000000D02*
X143000000Y-94974700D01*
X142652100Y-94626800D02*
X143000000Y-94974700D01*
X142652100Y-71587900D02*
X142652100Y-94626800D01*
X143780000Y-70460000D02*
X142652100Y-71587900D01*
X145000000Y-96000000D02*
X145000000Y-94974700D01*
X145208700Y-70460000D02*
X146320000Y-70460000D01*
X145208700Y-52571300D02*
X145208700Y-70460000D01*
X146320000Y-51460000D02*
X145208700Y-52571300D01*
X145208700Y-94766000D02*
X145000000Y-94974700D01*
X145208700Y-70460000D02*
X145208700Y-94766000D01*
X147749600Y-94225100D02*
X147000000Y-94974700D01*
X147749600Y-71570400D02*
X147749600Y-94225100D01*
X148860000Y-70460000D02*
X147749600Y-71570400D01*
X147743700Y-52576300D02*
X148860000Y-51460000D01*
X147743700Y-69343700D02*
X147743700Y-52576300D01*
X148860000Y-70460000D02*
X147743700Y-69343700D01*
X147000000Y-96000000D02*
X147000000Y-94974700D01*
X150288700Y-69348700D02*
X151400000Y-70460000D01*
X150288700Y-52571300D02*
X150288700Y-69348700D01*
X151400000Y-51460000D02*
X150288700Y-52571300D01*
X149000000Y-96000000D02*
X149000000Y-94974700D01*
X149974600Y-94000100D02*
X149000000Y-94974700D01*
X149974600Y-71885400D02*
X149974600Y-94000100D01*
X151400000Y-70460000D02*
X149974600Y-71885400D01*
X151000000Y-96000000D02*
X151000000Y-94974700D01*
X152828700Y-70460000D02*
X153940000Y-70460000D01*
X152828700Y-52571300D02*
X152828700Y-70460000D01*
X153940000Y-51460000D02*
X152828700Y-52571300D01*
X152828700Y-93146000D02*
X151000000Y-94974700D01*
X152828700Y-70460000D02*
X152828700Y-93146000D01*
X157591200Y-69348800D02*
X156480000Y-70460000D01*
X157591200Y-52571200D02*
X157591200Y-69348800D01*
X156480000Y-51460000D02*
X157591200Y-52571200D01*
X155000000Y-96000000D02*
X155000000Y-94974700D01*
X157590400Y-92384300D02*
X155000000Y-94974700D01*
X157590400Y-71889600D02*
X157590400Y-92384300D01*
X159020000Y-70460000D02*
X157590400Y-71889600D01*
X162830000Y-71730000D02*
X164100000Y-70460000D01*
X162830000Y-79348200D02*
X162830000Y-71730000D01*
X159000000Y-83178200D02*
X162830000Y-79348200D01*
X159000000Y-96000000D02*
X159000000Y-83178200D01*
X161000000Y-85487900D02*
X161000000Y-96000000D01*
X165370000Y-81117900D02*
X161000000Y-85487900D01*
X165370000Y-71730000D02*
X165370000Y-81117900D01*
X166640000Y-70460000D02*
X165370000Y-71730000D01*
X163000000Y-96000000D02*
X163000000Y-94974700D01*
X167910000Y-71730000D02*
X169180000Y-70460000D01*
X167910000Y-86384000D02*
X167910000Y-71730000D01*
X166601000Y-87693000D02*
X167910000Y-86384000D01*
X166601000Y-91373700D02*
X166601000Y-87693000D01*
X163000000Y-94974700D02*
X166601000Y-91373700D01*
X164100000Y-72161400D02*
X164100000Y-73000000D01*
X165211000Y-71050400D02*
X164100000Y-72161400D01*
X165211000Y-65961100D02*
X165211000Y-71050400D01*
X164500600Y-65250700D02*
X165211000Y-65961100D01*
X164500600Y-64000000D02*
X164500600Y-65250700D01*
X165261300Y-52838700D02*
X164100000Y-54000000D01*
X165261300Y-46011400D02*
X165261300Y-52838700D01*
X164500600Y-45250700D02*
X165261300Y-46011400D01*
X164500600Y-44000000D02*
X164500600Y-45250700D01*
X177000000Y-90000000D02*
X179580100Y-90000000D01*
X164625000Y-88749300D02*
X167251200Y-86123100D01*
X164500600Y-88749300D02*
X164625000Y-88749300D01*
X164500600Y-90000000D02*
X164500600Y-88749300D01*
D21*
G36*
X186873000Y-110873000D02*
X183500000Y-110873000D01*
X183450590Y-110883006D01*
X183407925Y-110912529D01*
X173907925Y-120912529D01*
X173881148Y-120955243D01*
X173873000Y-121000000D01*
X173873000Y-135290000D01*
X171995000Y-135290000D01*
X171995000Y-133905750D01*
X171836250Y-133747000D01*
X170987000Y-133747000D01*
X170987000Y-133767000D01*
X170733000Y-133767000D01*
X170733000Y-133747000D01*
X170713000Y-133747000D01*
X170713000Y-133493000D01*
X170733000Y-133493000D01*
X170733000Y-130643750D01*
X170987000Y-130643750D01*
X170987000Y-133493000D01*
X171836250Y-133493000D01*
X171995000Y-133334250D01*
X171995000Y-130993690D01*
X171898327Y-130760301D01*
X171719698Y-130581673D01*
X171486309Y-130485000D01*
X171145750Y-130485000D01*
X170987000Y-130643750D01*
X170733000Y-130643750D01*
X170574250Y-130485000D01*
X170233691Y-130485000D01*
X170000302Y-130581673D01*
X169859064Y-130722910D01*
X169824090Y-130668559D01*
X169721577Y-130598515D01*
X169721762Y-130385833D01*
X169579717Y-130042057D01*
X169571600Y-130033926D01*
X169571600Y-99555654D01*
X169725245Y-99325707D01*
X169780161Y-99049627D01*
X169926310Y-98951974D01*
X170004928Y-98834314D01*
X170336367Y-99129478D01*
X170670600Y-99267910D01*
X170872998Y-99144225D01*
X170872998Y-99310000D01*
X170995706Y-99310000D01*
X171040183Y-99417643D01*
X171302973Y-99680892D01*
X171646501Y-99823538D01*
X172018467Y-99823862D01*
X172362243Y-99681817D01*
X172370374Y-99673700D01*
X173213800Y-99673700D01*
X173514207Y-99613945D01*
X173768879Y-99443779D01*
X181664788Y-91547870D01*
X183218690Y-91547870D01*
X183454007Y-91503592D01*
X183670131Y-91364520D01*
X183815121Y-91152320D01*
X183866130Y-90900430D01*
X183866130Y-89099570D01*
X183821852Y-88864253D01*
X183682780Y-88648129D01*
X183470580Y-88503139D01*
X183218690Y-88452130D01*
X182887500Y-88452130D01*
X182887500Y-80842500D01*
X182827745Y-80542094D01*
X182657579Y-80287421D01*
X175653027Y-73282869D01*
X175654758Y-73278700D01*
X175655242Y-72723735D01*
X175652663Y-72717495D01*
X182822288Y-65547870D01*
X184218690Y-65547870D01*
X184454007Y-65503592D01*
X184670131Y-65364520D01*
X184815121Y-65152320D01*
X184866130Y-64900430D01*
X184866130Y-63099570D01*
X184821852Y-62864253D01*
X184682780Y-62648129D01*
X184470580Y-62503139D01*
X184218690Y-62452130D01*
X182621030Y-62452130D01*
X182385713Y-62496408D01*
X182169589Y-62635480D01*
X182024599Y-62847680D01*
X182000970Y-62964366D01*
X181982132Y-62864253D01*
X181843060Y-62648129D01*
X181630860Y-62503139D01*
X181378970Y-62452130D01*
X179781310Y-62452130D01*
X179545993Y-62496408D01*
X179329869Y-62635480D01*
X179184879Y-62847680D01*
X179176647Y-62888332D01*
X179000000Y-62852560D01*
X177480398Y-62852560D01*
X185124179Y-55208779D01*
X185294345Y-54954107D01*
X185354100Y-54653700D01*
X185354100Y-42948705D01*
X185354101Y-42948700D01*
X185294345Y-42648294D01*
X185197356Y-42503139D01*
X185124179Y-42393621D01*
X185124176Y-42393619D01*
X184907379Y-42176821D01*
X184652707Y-42006655D01*
X184352300Y-41946900D01*
X174417800Y-41946900D01*
X174117394Y-42006655D01*
X174117392Y-42006656D01*
X174117393Y-42006656D01*
X173862721Y-42176821D01*
X173444921Y-42594621D01*
X173274755Y-42849293D01*
X173274755Y-42849294D01*
X173274105Y-42852560D01*
X173000000Y-42852560D01*
X172764683Y-42896838D01*
X172548559Y-43035910D01*
X172403569Y-43248110D01*
X172352560Y-43500000D01*
X172352560Y-44500000D01*
X172396838Y-44735317D01*
X172535910Y-44951441D01*
X172748110Y-45096431D01*
X173000000Y-45147440D01*
X175000000Y-45147440D01*
X175235317Y-45103162D01*
X175451441Y-44964090D01*
X175596431Y-44751890D01*
X175647440Y-44500000D01*
X175647440Y-43516900D01*
X176352560Y-43516900D01*
X176352560Y-44500000D01*
X176396838Y-44735317D01*
X176535910Y-44951441D01*
X176748110Y-45096431D01*
X177000000Y-45147440D01*
X179000000Y-45147440D01*
X179174181Y-45114666D01*
X179178148Y-45135747D01*
X179317220Y-45351871D01*
X179529420Y-45496861D01*
X179781310Y-45547870D01*
X181378970Y-45547870D01*
X181485800Y-45527769D01*
X181485800Y-45664042D01*
X175658337Y-51491505D01*
X175639341Y-51112951D01*
X175480742Y-50730059D01*
X175238764Y-50660841D01*
X174439605Y-51460000D01*
X174453748Y-51474143D01*
X174274143Y-51653748D01*
X174260000Y-51639605D01*
X173460841Y-52438764D01*
X173530059Y-52680742D01*
X173674862Y-52732382D01*
X173470828Y-52816687D01*
X173078066Y-53208764D01*
X172990046Y-53420738D01*
X172903313Y-53210828D01*
X172511236Y-52818066D01*
X172299262Y-52730046D01*
X172509172Y-52643313D01*
X172901934Y-52251236D01*
X172983391Y-52055066D01*
X173039258Y-52189941D01*
X173281236Y-52259159D01*
X174080395Y-51460000D01*
X173281236Y-50660841D01*
X173039258Y-50730059D01*
X172987618Y-50874862D01*
X172903313Y-50670828D01*
X172714052Y-50481236D01*
X173460841Y-50481236D01*
X174260000Y-51280395D01*
X175059159Y-50481236D01*
X174989941Y-50239258D01*
X174467220Y-50052845D01*
X173912951Y-50080659D01*
X173530059Y-50239258D01*
X173460841Y-50481236D01*
X172714052Y-50481236D01*
X172511236Y-50278066D01*
X171998700Y-50065242D01*
X171443735Y-50064758D01*
X170930828Y-50276687D01*
X170538066Y-50668764D01*
X170450046Y-50880738D01*
X170363313Y-50670828D01*
X169971236Y-50278066D01*
X169458700Y-50065242D01*
X168903735Y-50064758D01*
X168854100Y-50085267D01*
X168854100Y-47006158D01*
X170054479Y-45805779D01*
X170224645Y-45551106D01*
X170225289Y-45547870D01*
X171249420Y-45547870D01*
X171484737Y-45503592D01*
X171700861Y-45364520D01*
X171845851Y-45152320D01*
X171896860Y-44900430D01*
X171896860Y-43099570D01*
X171852582Y-42864253D01*
X171713510Y-42648129D01*
X171501310Y-42503139D01*
X171249420Y-42452130D01*
X167749300Y-42452130D01*
X167513983Y-42496408D01*
X167297859Y-42635480D01*
X167152869Y-42847680D01*
X167101860Y-43099570D01*
X167101860Y-44900430D01*
X167146138Y-45135747D01*
X167285210Y-45351871D01*
X167497410Y-45496861D01*
X167749300Y-45547870D01*
X168092072Y-45547870D01*
X167514021Y-46125921D01*
X167343855Y-46380593D01*
X167343855Y-46380594D01*
X167284100Y-46681000D01*
X167284100Y-50216970D01*
X166918700Y-50065242D01*
X166363735Y-50064758D01*
X166046300Y-50195920D01*
X166046300Y-46011400D01*
X166041884Y-45989200D01*
X165986545Y-45710993D01*
X165877550Y-45547870D01*
X166250700Y-45547870D01*
X166486017Y-45503592D01*
X166702141Y-45364520D01*
X166847131Y-45152320D01*
X166898140Y-44900430D01*
X166898140Y-43099570D01*
X166853862Y-42864253D01*
X166714790Y-42648129D01*
X166502590Y-42503139D01*
X166250700Y-42452130D01*
X162750580Y-42452130D01*
X162515263Y-42496408D01*
X162299139Y-42635480D01*
X162154149Y-42847680D01*
X162103140Y-43099570D01*
X162103140Y-44900430D01*
X162147418Y-45135747D01*
X162286490Y-45351871D01*
X162498690Y-45496861D01*
X162750580Y-45547870D01*
X163774711Y-45547870D01*
X163775355Y-45551107D01*
X163945521Y-45805779D01*
X164476300Y-46336558D01*
X164476300Y-50105769D01*
X164378700Y-50065242D01*
X163823735Y-50064758D01*
X163310828Y-50276687D01*
X162918066Y-50668764D01*
X162836609Y-50864934D01*
X162780742Y-50730059D01*
X162538764Y-50660841D01*
X161739605Y-51460000D01*
X162538764Y-52259159D01*
X162780742Y-52189941D01*
X162832382Y-52045138D01*
X162916687Y-52249172D01*
X163308764Y-52641934D01*
X163520738Y-52729954D01*
X163310828Y-52816687D01*
X162918066Y-53208764D01*
X162830046Y-53420738D01*
X162743313Y-53210828D01*
X162351236Y-52818066D01*
X162155066Y-52736609D01*
X162289941Y-52680742D01*
X162359159Y-52438764D01*
X161560000Y-51639605D01*
X160760841Y-52438764D01*
X160830059Y-52680742D01*
X160974862Y-52732382D01*
X160770828Y-52816687D01*
X160378066Y-53208764D01*
X160290046Y-53420738D01*
X160203313Y-53210828D01*
X159811236Y-52818066D01*
X159599262Y-52730046D01*
X159809172Y-52643313D01*
X160201934Y-52251236D01*
X160283391Y-52055066D01*
X160339258Y-52189941D01*
X160581236Y-52259159D01*
X161380395Y-51460000D01*
X160581236Y-50660841D01*
X160339258Y-50730059D01*
X160287618Y-50874862D01*
X160203313Y-50670828D01*
X160014052Y-50481236D01*
X160760841Y-50481236D01*
X161560000Y-51280395D01*
X162359159Y-50481236D01*
X162289941Y-50239258D01*
X161767220Y-50052845D01*
X161212951Y-50080659D01*
X160830059Y-50239258D01*
X160760841Y-50481236D01*
X160014052Y-50481236D01*
X159811236Y-50278066D01*
X159298700Y-50065242D01*
X158743735Y-50064758D01*
X158230828Y-50276687D01*
X157838066Y-50668764D01*
X157750046Y-50880738D01*
X157663313Y-50670828D01*
X157271236Y-50278066D01*
X156758700Y-50065242D01*
X156203735Y-50064758D01*
X155690828Y-50276687D01*
X155298066Y-50668764D01*
X155210046Y-50880738D01*
X155123313Y-50670828D01*
X154731236Y-50278066D01*
X154218700Y-50065242D01*
X153663735Y-50064758D01*
X153150828Y-50276687D01*
X152758066Y-50668764D01*
X152670046Y-50880738D01*
X152583313Y-50670828D01*
X152191236Y-50278066D01*
X151678700Y-50065242D01*
X151123735Y-50064758D01*
X150610828Y-50276687D01*
X150218066Y-50668764D01*
X150130046Y-50880738D01*
X150043313Y-50670828D01*
X149651236Y-50278066D01*
X149138700Y-50065242D01*
X148583735Y-50064758D01*
X148070828Y-50276687D01*
X147678066Y-50668764D01*
X147590046Y-50880738D01*
X147503313Y-50670828D01*
X147111236Y-50278066D01*
X146598700Y-50065242D01*
X146043735Y-50064758D01*
X145530828Y-50276687D01*
X145138066Y-50668764D01*
X145050046Y-50880738D01*
X144963313Y-50670828D01*
X144571236Y-50278066D01*
X144058700Y-50065242D01*
X143503735Y-50064758D01*
X142990828Y-50276687D01*
X142598066Y-50668764D01*
X142510046Y-50880738D01*
X142423313Y-50670828D01*
X142031236Y-50278066D01*
X141518700Y-50065242D01*
X140963735Y-50064758D01*
X140450828Y-50276687D01*
X140058066Y-50668764D01*
X139970046Y-50880738D01*
X139883313Y-50670828D01*
X139491236Y-50278066D01*
X138978700Y-50065242D01*
X138423735Y-50064758D01*
X137910828Y-50276687D01*
X137518066Y-50668764D01*
X137430046Y-50880738D01*
X137343313Y-50670828D01*
X136951236Y-50278066D01*
X136438700Y-50065242D01*
X135883735Y-50064758D01*
X135370828Y-50276687D01*
X134978066Y-50668764D01*
X134890046Y-50880738D01*
X134803313Y-50670828D01*
X134411236Y-50278066D01*
X133898700Y-50065242D01*
X133343735Y-50064758D01*
X132830828Y-50276687D01*
X132438066Y-50668764D01*
X132350046Y-50880738D01*
X132263313Y-50670828D01*
X131871236Y-50278066D01*
X131358700Y-50065242D01*
X130803735Y-50064758D01*
X130290828Y-50276687D01*
X129898066Y-50668764D01*
X129810046Y-50880738D01*
X129723313Y-50670828D01*
X129331236Y-50278066D01*
X128818700Y-50065242D01*
X128263735Y-50064758D01*
X127750828Y-50276687D01*
X127358066Y-50668764D01*
X127270046Y-50880738D01*
X127183313Y-50670828D01*
X126791236Y-50278066D01*
X126278700Y-50065242D01*
X125723735Y-50064758D01*
X125210828Y-50276687D01*
X124818066Y-50668764D01*
X124605242Y-51181300D01*
X124604758Y-51736265D01*
X124607337Y-51742505D01*
X124334521Y-52015321D01*
X124164355Y-52269993D01*
X124163181Y-52275894D01*
X124104600Y-52570400D01*
X124104600Y-69349600D01*
X124164355Y-69650007D01*
X124334521Y-69904679D01*
X124606973Y-70177131D01*
X124605242Y-70181300D01*
X124604758Y-70736265D01*
X124816687Y-71249172D01*
X125172210Y-71605316D01*
X125004683Y-71636838D01*
X124788559Y-71775910D01*
X124643569Y-71988110D01*
X124592560Y-72240000D01*
X124592560Y-73760000D01*
X124636838Y-73995317D01*
X124775910Y-74211441D01*
X124988110Y-74356431D01*
X125215000Y-74402377D01*
X125215000Y-95000000D01*
X125274755Y-95300407D01*
X125444921Y-95555079D01*
X127677560Y-97787718D01*
X127677560Y-98675000D01*
X127721838Y-98910317D01*
X127860910Y-99126441D01*
X128073110Y-99271431D01*
X128215000Y-99300164D01*
X128215000Y-130349198D01*
X128134755Y-130469293D01*
X128134755Y-130469294D01*
X128125322Y-130516718D01*
X128124683Y-130516838D01*
X127908559Y-130655910D01*
X127763569Y-130868110D01*
X127712560Y-131120000D01*
X127712560Y-135290000D01*
X126127000Y-135290000D01*
X126127000Y-120000000D01*
X126116994Y-119950590D01*
X126089803Y-119910197D01*
X117089803Y-110910197D01*
X117047789Y-110882334D01*
X117000000Y-110873000D01*
X113127000Y-110873000D01*
X113127000Y-37127000D01*
X186873000Y-37127000D01*
X186873000Y-110873000D01*
X186873000Y-110873000D01*
G37*
X186873000Y-110873000D02*
X183500000Y-110873000D01*
X183450590Y-110883006D01*
X183407925Y-110912529D01*
X173907925Y-120912529D01*
X173881148Y-120955243D01*
X173873000Y-121000000D01*
X173873000Y-135290000D01*
X171995000Y-135290000D01*
X171995000Y-133905750D01*
X171836250Y-133747000D01*
X170987000Y-133747000D01*
X170987000Y-133767000D01*
X170733000Y-133767000D01*
X170733000Y-133747000D01*
X170713000Y-133747000D01*
X170713000Y-133493000D01*
X170733000Y-133493000D01*
X170733000Y-130643750D01*
X170987000Y-130643750D01*
X170987000Y-133493000D01*
X171836250Y-133493000D01*
X171995000Y-133334250D01*
X171995000Y-130993690D01*
X171898327Y-130760301D01*
X171719698Y-130581673D01*
X171486309Y-130485000D01*
X171145750Y-130485000D01*
X170987000Y-130643750D01*
X170733000Y-130643750D01*
X170574250Y-130485000D01*
X170233691Y-130485000D01*
X170000302Y-130581673D01*
X169859064Y-130722910D01*
X169824090Y-130668559D01*
X169721577Y-130598515D01*
X169721762Y-130385833D01*
X169579717Y-130042057D01*
X169571600Y-130033926D01*
X169571600Y-99555654D01*
X169725245Y-99325707D01*
X169780161Y-99049627D01*
X169926310Y-98951974D01*
X170004928Y-98834314D01*
X170336367Y-99129478D01*
X170670600Y-99267910D01*
X170872998Y-99144225D01*
X170872998Y-99310000D01*
X170995706Y-99310000D01*
X171040183Y-99417643D01*
X171302973Y-99680892D01*
X171646501Y-99823538D01*
X172018467Y-99823862D01*
X172362243Y-99681817D01*
X172370374Y-99673700D01*
X173213800Y-99673700D01*
X173514207Y-99613945D01*
X173768879Y-99443779D01*
X181664788Y-91547870D01*
X183218690Y-91547870D01*
X183454007Y-91503592D01*
X183670131Y-91364520D01*
X183815121Y-91152320D01*
X183866130Y-90900430D01*
X183866130Y-89099570D01*
X183821852Y-88864253D01*
X183682780Y-88648129D01*
X183470580Y-88503139D01*
X183218690Y-88452130D01*
X182887500Y-88452130D01*
X182887500Y-80842500D01*
X182827745Y-80542094D01*
X182657579Y-80287421D01*
X175653027Y-73282869D01*
X175654758Y-73278700D01*
X175655242Y-72723735D01*
X175652663Y-72717495D01*
X182822288Y-65547870D01*
X184218690Y-65547870D01*
X184454007Y-65503592D01*
X184670131Y-65364520D01*
X184815121Y-65152320D01*
X184866130Y-64900430D01*
X184866130Y-63099570D01*
X184821852Y-62864253D01*
X184682780Y-62648129D01*
X184470580Y-62503139D01*
X184218690Y-62452130D01*
X182621030Y-62452130D01*
X182385713Y-62496408D01*
X182169589Y-62635480D01*
X182024599Y-62847680D01*
X182000970Y-62964366D01*
X181982132Y-62864253D01*
X181843060Y-62648129D01*
X181630860Y-62503139D01*
X181378970Y-62452130D01*
X179781310Y-62452130D01*
X179545993Y-62496408D01*
X179329869Y-62635480D01*
X179184879Y-62847680D01*
X179176647Y-62888332D01*
X179000000Y-62852560D01*
X177480398Y-62852560D01*
X185124179Y-55208779D01*
X185294345Y-54954107D01*
X185354100Y-54653700D01*
X185354100Y-42948705D01*
X185354101Y-42948700D01*
X185294345Y-42648294D01*
X185197356Y-42503139D01*
X185124179Y-42393621D01*
X185124176Y-42393619D01*
X184907379Y-42176821D01*
X184652707Y-42006655D01*
X184352300Y-41946900D01*
X174417800Y-41946900D01*
X174117394Y-42006655D01*
X174117392Y-42006656D01*
X174117393Y-42006656D01*
X173862721Y-42176821D01*
X173444921Y-42594621D01*
X173274755Y-42849293D01*
X173274755Y-42849294D01*
X173274105Y-42852560D01*
X173000000Y-42852560D01*
X172764683Y-42896838D01*
X172548559Y-43035910D01*
X172403569Y-43248110D01*
X172352560Y-43500000D01*
X172352560Y-44500000D01*
X172396838Y-44735317D01*
X172535910Y-44951441D01*
X172748110Y-45096431D01*
X173000000Y-45147440D01*
X175000000Y-45147440D01*
X175235317Y-45103162D01*
X175451441Y-44964090D01*
X175596431Y-44751890D01*
X175647440Y-44500000D01*
X175647440Y-43516900D01*
X176352560Y-43516900D01*
X176352560Y-44500000D01*
X176396838Y-44735317D01*
X176535910Y-44951441D01*
X176748110Y-45096431D01*
X177000000Y-45147440D01*
X179000000Y-45147440D01*
X179174181Y-45114666D01*
X179178148Y-45135747D01*
X179317220Y-45351871D01*
X179529420Y-45496861D01*
X179781310Y-45547870D01*
X181378970Y-45547870D01*
X181485800Y-45527769D01*
X181485800Y-45664042D01*
X175658337Y-51491505D01*
X175639341Y-51112951D01*
X175480742Y-50730059D01*
X175238764Y-50660841D01*
X174439605Y-51460000D01*
X174453748Y-51474143D01*
X174274143Y-51653748D01*
X174260000Y-51639605D01*
X173460841Y-52438764D01*
X173530059Y-52680742D01*
X173674862Y-52732382D01*
X173470828Y-52816687D01*
X173078066Y-53208764D01*
X172990046Y-53420738D01*
X172903313Y-53210828D01*
X172511236Y-52818066D01*
X172299262Y-52730046D01*
X172509172Y-52643313D01*
X172901934Y-52251236D01*
X172983391Y-52055066D01*
X173039258Y-52189941D01*
X173281236Y-52259159D01*
X174080395Y-51460000D01*
X173281236Y-50660841D01*
X173039258Y-50730059D01*
X172987618Y-50874862D01*
X172903313Y-50670828D01*
X172714052Y-50481236D01*
X173460841Y-50481236D01*
X174260000Y-51280395D01*
X175059159Y-50481236D01*
X174989941Y-50239258D01*
X174467220Y-50052845D01*
X173912951Y-50080659D01*
X173530059Y-50239258D01*
X173460841Y-50481236D01*
X172714052Y-50481236D01*
X172511236Y-50278066D01*
X171998700Y-50065242D01*
X171443735Y-50064758D01*
X170930828Y-50276687D01*
X170538066Y-50668764D01*
X170450046Y-50880738D01*
X170363313Y-50670828D01*
X169971236Y-50278066D01*
X169458700Y-50065242D01*
X168903735Y-50064758D01*
X168854100Y-50085267D01*
X168854100Y-47006158D01*
X170054479Y-45805779D01*
X170224645Y-45551106D01*
X170225289Y-45547870D01*
X171249420Y-45547870D01*
X171484737Y-45503592D01*
X171700861Y-45364520D01*
X171845851Y-45152320D01*
X171896860Y-44900430D01*
X171896860Y-43099570D01*
X171852582Y-42864253D01*
X171713510Y-42648129D01*
X171501310Y-42503139D01*
X171249420Y-42452130D01*
X167749300Y-42452130D01*
X167513983Y-42496408D01*
X167297859Y-42635480D01*
X167152869Y-42847680D01*
X167101860Y-43099570D01*
X167101860Y-44900430D01*
X167146138Y-45135747D01*
X167285210Y-45351871D01*
X167497410Y-45496861D01*
X167749300Y-45547870D01*
X168092072Y-45547870D01*
X167514021Y-46125921D01*
X167343855Y-46380593D01*
X167343855Y-46380594D01*
X167284100Y-46681000D01*
X167284100Y-50216970D01*
X166918700Y-50065242D01*
X166363735Y-50064758D01*
X166046300Y-50195920D01*
X166046300Y-46011400D01*
X166041884Y-45989200D01*
X165986545Y-45710993D01*
X165877550Y-45547870D01*
X166250700Y-45547870D01*
X166486017Y-45503592D01*
X166702141Y-45364520D01*
X166847131Y-45152320D01*
X166898140Y-44900430D01*
X166898140Y-43099570D01*
X166853862Y-42864253D01*
X166714790Y-42648129D01*
X166502590Y-42503139D01*
X166250700Y-42452130D01*
X162750580Y-42452130D01*
X162515263Y-42496408D01*
X162299139Y-42635480D01*
X162154149Y-42847680D01*
X162103140Y-43099570D01*
X162103140Y-44900430D01*
X162147418Y-45135747D01*
X162286490Y-45351871D01*
X162498690Y-45496861D01*
X162750580Y-45547870D01*
X163774711Y-45547870D01*
X163775355Y-45551107D01*
X163945521Y-45805779D01*
X164476300Y-46336558D01*
X164476300Y-50105769D01*
X164378700Y-50065242D01*
X163823735Y-50064758D01*
X163310828Y-50276687D01*
X162918066Y-50668764D01*
X162836609Y-50864934D01*
X162780742Y-50730059D01*
X162538764Y-50660841D01*
X161739605Y-51460000D01*
X162538764Y-52259159D01*
X162780742Y-52189941D01*
X162832382Y-52045138D01*
X162916687Y-52249172D01*
X163308764Y-52641934D01*
X163520738Y-52729954D01*
X163310828Y-52816687D01*
X162918066Y-53208764D01*
X162830046Y-53420738D01*
X162743313Y-53210828D01*
X162351236Y-52818066D01*
X162155066Y-52736609D01*
X162289941Y-52680742D01*
X162359159Y-52438764D01*
X161560000Y-51639605D01*
X160760841Y-52438764D01*
X160830059Y-52680742D01*
X160974862Y-52732382D01*
X160770828Y-52816687D01*
X160378066Y-53208764D01*
X160290046Y-53420738D01*
X160203313Y-53210828D01*
X159811236Y-52818066D01*
X159599262Y-52730046D01*
X159809172Y-52643313D01*
X160201934Y-52251236D01*
X160283391Y-52055066D01*
X160339258Y-52189941D01*
X160581236Y-52259159D01*
X161380395Y-51460000D01*
X160581236Y-50660841D01*
X160339258Y-50730059D01*
X160287618Y-50874862D01*
X160203313Y-50670828D01*
X160014052Y-50481236D01*
X160760841Y-50481236D01*
X161560000Y-51280395D01*
X162359159Y-50481236D01*
X162289941Y-50239258D01*
X161767220Y-50052845D01*
X161212951Y-50080659D01*
X160830059Y-50239258D01*
X160760841Y-50481236D01*
X160014052Y-50481236D01*
X159811236Y-50278066D01*
X159298700Y-50065242D01*
X158743735Y-50064758D01*
X158230828Y-50276687D01*
X157838066Y-50668764D01*
X157750046Y-50880738D01*
X157663313Y-50670828D01*
X157271236Y-50278066D01*
X156758700Y-50065242D01*
X156203735Y-50064758D01*
X155690828Y-50276687D01*
X155298066Y-50668764D01*
X155210046Y-50880738D01*
X155123313Y-50670828D01*
X154731236Y-50278066D01*
X154218700Y-50065242D01*
X153663735Y-50064758D01*
X153150828Y-50276687D01*
X152758066Y-50668764D01*
X152670046Y-50880738D01*
X152583313Y-50670828D01*
X152191236Y-50278066D01*
X151678700Y-50065242D01*
X151123735Y-50064758D01*
X150610828Y-50276687D01*
X150218066Y-50668764D01*
X150130046Y-50880738D01*
X150043313Y-50670828D01*
X149651236Y-50278066D01*
X149138700Y-50065242D01*
X148583735Y-50064758D01*
X148070828Y-50276687D01*
X147678066Y-50668764D01*
X147590046Y-50880738D01*
X147503313Y-50670828D01*
X147111236Y-50278066D01*
X146598700Y-50065242D01*
X146043735Y-50064758D01*
X145530828Y-50276687D01*
X145138066Y-50668764D01*
X145050046Y-50880738D01*
X144963313Y-50670828D01*
X144571236Y-50278066D01*
X144058700Y-50065242D01*
X143503735Y-50064758D01*
X142990828Y-50276687D01*
X142598066Y-50668764D01*
X142510046Y-50880738D01*
X142423313Y-50670828D01*
X142031236Y-50278066D01*
X141518700Y-50065242D01*
X140963735Y-50064758D01*
X140450828Y-50276687D01*
X140058066Y-50668764D01*
X139970046Y-50880738D01*
X139883313Y-50670828D01*
X139491236Y-50278066D01*
X138978700Y-50065242D01*
X138423735Y-50064758D01*
X137910828Y-50276687D01*
X137518066Y-50668764D01*
X137430046Y-50880738D01*
X137343313Y-50670828D01*
X136951236Y-50278066D01*
X136438700Y-50065242D01*
X135883735Y-50064758D01*
X135370828Y-50276687D01*
X134978066Y-50668764D01*
X134890046Y-50880738D01*
X134803313Y-50670828D01*
X134411236Y-50278066D01*
X133898700Y-50065242D01*
X133343735Y-50064758D01*
X132830828Y-50276687D01*
X132438066Y-50668764D01*
X132350046Y-50880738D01*
X132263313Y-50670828D01*
X131871236Y-50278066D01*
X131358700Y-50065242D01*
X130803735Y-50064758D01*
X130290828Y-50276687D01*
X129898066Y-50668764D01*
X129810046Y-50880738D01*
X129723313Y-50670828D01*
X129331236Y-50278066D01*
X128818700Y-50065242D01*
X128263735Y-50064758D01*
X127750828Y-50276687D01*
X127358066Y-50668764D01*
X127270046Y-50880738D01*
X127183313Y-50670828D01*
X126791236Y-50278066D01*
X126278700Y-50065242D01*
X125723735Y-50064758D01*
X125210828Y-50276687D01*
X124818066Y-50668764D01*
X124605242Y-51181300D01*
X124604758Y-51736265D01*
X124607337Y-51742505D01*
X124334521Y-52015321D01*
X124164355Y-52269993D01*
X124163181Y-52275894D01*
X124104600Y-52570400D01*
X124104600Y-69349600D01*
X124164355Y-69650007D01*
X124334521Y-69904679D01*
X124606973Y-70177131D01*
X124605242Y-70181300D01*
X124604758Y-70736265D01*
X124816687Y-71249172D01*
X125172210Y-71605316D01*
X125004683Y-71636838D01*
X124788559Y-71775910D01*
X124643569Y-71988110D01*
X124592560Y-72240000D01*
X124592560Y-73760000D01*
X124636838Y-73995317D01*
X124775910Y-74211441D01*
X124988110Y-74356431D01*
X125215000Y-74402377D01*
X125215000Y-95000000D01*
X125274755Y-95300407D01*
X125444921Y-95555079D01*
X127677560Y-97787718D01*
X127677560Y-98675000D01*
X127721838Y-98910317D01*
X127860910Y-99126441D01*
X128073110Y-99271431D01*
X128215000Y-99300164D01*
X128215000Y-130349198D01*
X128134755Y-130469293D01*
X128134755Y-130469294D01*
X128125322Y-130516718D01*
X128124683Y-130516838D01*
X127908559Y-130655910D01*
X127763569Y-130868110D01*
X127712560Y-131120000D01*
X127712560Y-135290000D01*
X126127000Y-135290000D01*
X126127000Y-120000000D01*
X126116994Y-119950590D01*
X126089803Y-119910197D01*
X117089803Y-110910197D01*
X117047789Y-110882334D01*
X117000000Y-110873000D01*
X113127000Y-110873000D01*
X113127000Y-37127000D01*
X186873000Y-37127000D01*
X186873000Y-110873000D01*
G36*
X173981300Y-74394758D02*
X174536265Y-74395242D01*
X174542505Y-74392663D01*
X181317500Y-81167658D01*
X181317500Y-88540302D01*
X181169589Y-88635480D01*
X181024599Y-88847680D01*
X181000970Y-88964366D01*
X180982132Y-88864253D01*
X180843060Y-88648129D01*
X180630860Y-88503139D01*
X180378970Y-88452130D01*
X178781310Y-88452130D01*
X178545993Y-88496408D01*
X178329869Y-88635480D01*
X178184879Y-88847680D01*
X178176647Y-88888332D01*
X178000000Y-88852560D01*
X176000000Y-88852560D01*
X175764683Y-88896838D01*
X175548559Y-89035910D01*
X175403569Y-89248110D01*
X175352560Y-89500000D01*
X175352560Y-90500000D01*
X175396838Y-90735317D01*
X175535910Y-90951441D01*
X175748110Y-91096431D01*
X176000000Y-91147440D01*
X178000000Y-91147440D01*
X178174181Y-91114666D01*
X178178148Y-91135747D01*
X178317220Y-91351871D01*
X178529420Y-91496861D01*
X178781310Y-91547870D01*
X179444472Y-91547870D01*
X172888642Y-98103700D01*
X172370806Y-98103700D01*
X172363627Y-98096508D01*
X172020099Y-97953862D01*
X171648133Y-97953538D01*
X171304357Y-98095583D01*
X171272885Y-98127000D01*
X171127000Y-98127000D01*
X171127000Y-98147000D01*
X170873000Y-98147000D01*
X170873000Y-98127000D01*
X170853000Y-98127000D01*
X170853000Y-97873000D01*
X170873000Y-97873000D01*
X170873000Y-97853000D01*
X171127000Y-97853000D01*
X171127000Y-97873000D01*
X172145090Y-97873000D01*
X172267920Y-97670598D01*
X172045349Y-97210460D01*
X171828490Y-97017335D01*
X171926310Y-96951974D01*
X172210282Y-96526979D01*
X172310000Y-96025664D01*
X172310000Y-95974336D01*
X172210282Y-95473021D01*
X171926310Y-95048026D01*
X171501315Y-94764054D01*
X171000000Y-94664336D01*
X170630530Y-94737828D01*
X173555079Y-91813279D01*
X173725245Y-91558606D01*
X173785000Y-91258200D01*
X173785000Y-91147440D01*
X174000000Y-91147440D01*
X174235317Y-91103162D01*
X174451441Y-90964090D01*
X174596431Y-90751890D01*
X174647440Y-90500000D01*
X174647440Y-89500000D01*
X174603162Y-89264683D01*
X174464090Y-89048559D01*
X174251890Y-88903569D01*
X174000000Y-88852560D01*
X173910000Y-88852560D01*
X173910000Y-74365152D01*
X173981300Y-74394758D01*
X173981300Y-74394758D01*
G37*
X173981300Y-74394758D02*
X174536265Y-74395242D01*
X174542505Y-74392663D01*
X181317500Y-81167658D01*
X181317500Y-88540302D01*
X181169589Y-88635480D01*
X181024599Y-88847680D01*
X181000970Y-88964366D01*
X180982132Y-88864253D01*
X180843060Y-88648129D01*
X180630860Y-88503139D01*
X180378970Y-88452130D01*
X178781310Y-88452130D01*
X178545993Y-88496408D01*
X178329869Y-88635480D01*
X178184879Y-88847680D01*
X178176647Y-88888332D01*
X178000000Y-88852560D01*
X176000000Y-88852560D01*
X175764683Y-88896838D01*
X175548559Y-89035910D01*
X175403569Y-89248110D01*
X175352560Y-89500000D01*
X175352560Y-90500000D01*
X175396838Y-90735317D01*
X175535910Y-90951441D01*
X175748110Y-91096431D01*
X176000000Y-91147440D01*
X178000000Y-91147440D01*
X178174181Y-91114666D01*
X178178148Y-91135747D01*
X178317220Y-91351871D01*
X178529420Y-91496861D01*
X178781310Y-91547870D01*
X179444472Y-91547870D01*
X172888642Y-98103700D01*
X172370806Y-98103700D01*
X172363627Y-98096508D01*
X172020099Y-97953862D01*
X171648133Y-97953538D01*
X171304357Y-98095583D01*
X171272885Y-98127000D01*
X171127000Y-98127000D01*
X171127000Y-98147000D01*
X170873000Y-98147000D01*
X170873000Y-98127000D01*
X170853000Y-98127000D01*
X170853000Y-97873000D01*
X170873000Y-97873000D01*
X170873000Y-97853000D01*
X171127000Y-97853000D01*
X171127000Y-97873000D01*
X172145090Y-97873000D01*
X172267920Y-97670598D01*
X172045349Y-97210460D01*
X171828490Y-97017335D01*
X171926310Y-96951974D01*
X172210282Y-96526979D01*
X172310000Y-96025664D01*
X172310000Y-95974336D01*
X172210282Y-95473021D01*
X171926310Y-95048026D01*
X171501315Y-94764054D01*
X171000000Y-94664336D01*
X170630530Y-94737828D01*
X173555079Y-91813279D01*
X173725245Y-91558606D01*
X173785000Y-91258200D01*
X173785000Y-91147440D01*
X174000000Y-91147440D01*
X174235317Y-91103162D01*
X174451441Y-90964090D01*
X174596431Y-90751890D01*
X174647440Y-90500000D01*
X174647440Y-89500000D01*
X174603162Y-89264683D01*
X174464090Y-89048559D01*
X174251890Y-88903569D01*
X174000000Y-88852560D01*
X173910000Y-88852560D01*
X173910000Y-74365152D01*
X173981300Y-74394758D01*
G36*
X170360757Y-91655683D02*
X170097508Y-91918473D01*
X169954862Y-92262001D01*
X169954538Y-92633967D01*
X170096583Y-92977743D01*
X170133409Y-93014633D01*
X168947998Y-94200044D01*
X168699594Y-94249455D01*
X168444921Y-94419621D01*
X168274755Y-94674294D01*
X168219839Y-94950373D01*
X168073690Y-95048026D01*
X167995072Y-95165686D01*
X167663633Y-94870522D01*
X167329400Y-94732090D01*
X167127000Y-94855776D01*
X167127000Y-95873000D01*
X167147000Y-95873000D01*
X167147000Y-96127000D01*
X167127000Y-96127000D01*
X167127000Y-96147000D01*
X166873000Y-96147000D01*
X166873000Y-96127000D01*
X166853000Y-96127000D01*
X166853000Y-95873000D01*
X166873000Y-95873000D01*
X166873000Y-94855776D01*
X166670600Y-94732090D01*
X166336367Y-94870522D01*
X166004928Y-95165686D01*
X165970579Y-95114279D01*
X167813879Y-93270979D01*
X167984045Y-93016306D01*
X168043801Y-92715900D01*
X168043800Y-92715895D01*
X168043800Y-91547870D01*
X170621685Y-91547870D01*
X170360757Y-91655683D01*
X170360757Y-91655683D01*
G37*
X170360757Y-91655683D02*
X170097508Y-91918473D01*
X169954862Y-92262001D01*
X169954538Y-92633967D01*
X170096583Y-92977743D01*
X170133409Y-93014633D01*
X168947998Y-94200044D01*
X168699594Y-94249455D01*
X168444921Y-94419621D01*
X168274755Y-94674294D01*
X168219839Y-94950373D01*
X168073690Y-95048026D01*
X167995072Y-95165686D01*
X167663633Y-94870522D01*
X167329400Y-94732090D01*
X167127000Y-94855776D01*
X167127000Y-95873000D01*
X167147000Y-95873000D01*
X167147000Y-96127000D01*
X167127000Y-96127000D01*
X167127000Y-96147000D01*
X166873000Y-96147000D01*
X166873000Y-96127000D01*
X166853000Y-96127000D01*
X166853000Y-95873000D01*
X166873000Y-95873000D01*
X166873000Y-94855776D01*
X166670600Y-94732090D01*
X166336367Y-94870522D01*
X166004928Y-95165686D01*
X165970579Y-95114279D01*
X167813879Y-93270979D01*
X167984045Y-93016306D01*
X168043801Y-92715900D01*
X168043800Y-92715895D01*
X168043800Y-91547870D01*
X170621685Y-91547870D01*
X170360757Y-91655683D01*
G36*
X158215000Y-94953606D02*
X158073690Y-95048026D01*
X157995072Y-95165686D01*
X157663633Y-94870522D01*
X157329400Y-94732090D01*
X157127000Y-94855776D01*
X157127000Y-95873000D01*
X157147000Y-95873000D01*
X157147000Y-96127000D01*
X157127000Y-96127000D01*
X157127000Y-96147000D01*
X156873000Y-96147000D01*
X156873000Y-96127000D01*
X156853000Y-96127000D01*
X156853000Y-95873000D01*
X156873000Y-95873000D01*
X156873000Y-94855776D01*
X156670600Y-94732090D01*
X156336367Y-94870522D01*
X156004928Y-95165686D01*
X155970579Y-95114279D01*
X158145479Y-92939379D01*
X158215000Y-92835333D01*
X158215000Y-94953606D01*
X158215000Y-94953606D01*
G37*
X158215000Y-94953606D02*
X158073690Y-95048026D01*
X157995072Y-95165686D01*
X157663633Y-94870522D01*
X157329400Y-94732090D01*
X157127000Y-94855776D01*
X157127000Y-95873000D01*
X157147000Y-95873000D01*
X157147000Y-96127000D01*
X157127000Y-96127000D01*
X157127000Y-96147000D01*
X156873000Y-96147000D01*
X156873000Y-96127000D01*
X156853000Y-96127000D01*
X156853000Y-95873000D01*
X156873000Y-95873000D01*
X156873000Y-94855776D01*
X156670600Y-94732090D01*
X156336367Y-94870522D01*
X156004928Y-95165686D01*
X155970579Y-95114279D01*
X158145479Y-92939379D01*
X158215000Y-92835333D01*
X158215000Y-94953606D01*
G36*
X160376687Y-73789172D02*
X160768764Y-74181934D01*
X160775000Y-74184523D01*
X160775000Y-79075694D01*
X160767808Y-79082873D01*
X160625162Y-79426401D01*
X160624838Y-79798367D01*
X160766883Y-80142143D01*
X160846322Y-80221720D01*
X158444921Y-82623121D01*
X158375400Y-82727167D01*
X158375400Y-76909519D01*
X158489673Y-77023992D01*
X158833201Y-77166638D01*
X159205167Y-77166962D01*
X159548943Y-77024917D01*
X159812192Y-76762127D01*
X159954838Y-76418599D01*
X159955162Y-76046633D01*
X159813117Y-75702857D01*
X159805000Y-75694726D01*
X159805000Y-74185037D01*
X159809172Y-74183313D01*
X160201934Y-73791236D01*
X160289954Y-73579262D01*
X160376687Y-73789172D01*
X160376687Y-73789172D01*
G37*
X160376687Y-73789172D02*
X160768764Y-74181934D01*
X160775000Y-74184523D01*
X160775000Y-79075694D01*
X160767808Y-79082873D01*
X160625162Y-79426401D01*
X160624838Y-79798367D01*
X160766883Y-80142143D01*
X160846322Y-80221720D01*
X158444921Y-82623121D01*
X158375400Y-82727167D01*
X158375400Y-76909519D01*
X158489673Y-77023992D01*
X158833201Y-77166638D01*
X159205167Y-77166962D01*
X159548943Y-77024917D01*
X159812192Y-76762127D01*
X159954838Y-76418599D01*
X159955162Y-76046633D01*
X159813117Y-75702857D01*
X159805000Y-75694726D01*
X159805000Y-74185037D01*
X159809172Y-74183313D01*
X160201934Y-73791236D01*
X160289954Y-73579262D01*
X160376687Y-73789172D01*
G36*
X165456687Y-54789172D02*
X165848764Y-55181934D01*
X166361300Y-55394758D01*
X166916265Y-55395242D01*
X167284100Y-55243256D01*
X167284100Y-61319000D01*
X167343855Y-61619407D01*
X167514021Y-61874079D01*
X168092072Y-62452130D01*
X167749300Y-62452130D01*
X167513983Y-62496408D01*
X167297859Y-62635480D01*
X167152869Y-62847680D01*
X167101860Y-63099570D01*
X167101860Y-64900430D01*
X167146138Y-65135747D01*
X167285210Y-65351871D01*
X167497410Y-65496861D01*
X167749300Y-65547870D01*
X168773511Y-65547870D01*
X168774155Y-65551107D01*
X168944321Y-65805779D01*
X169716100Y-66577558D01*
X169716100Y-69172124D01*
X169458700Y-69065242D01*
X168903735Y-69064758D01*
X168390828Y-69276687D01*
X167998066Y-69668764D01*
X167910046Y-69880738D01*
X167823313Y-69670828D01*
X167431236Y-69278066D01*
X166918700Y-69065242D01*
X166363735Y-69064758D01*
X165996000Y-69216703D01*
X165996000Y-65961100D01*
X165994189Y-65951994D01*
X165936245Y-65660693D01*
X165860859Y-65547870D01*
X166250700Y-65547870D01*
X166486017Y-65503592D01*
X166702141Y-65364520D01*
X166847131Y-65152320D01*
X166898140Y-64900430D01*
X166898140Y-63099570D01*
X166853862Y-62864253D01*
X166714790Y-62648129D01*
X166502590Y-62503139D01*
X166250700Y-62452130D01*
X162750580Y-62452130D01*
X162515263Y-62496408D01*
X162299139Y-62635480D01*
X162154149Y-62847680D01*
X162103140Y-63099570D01*
X162103140Y-64900430D01*
X162147418Y-65135747D01*
X162286490Y-65351871D01*
X162498690Y-65496861D01*
X162750580Y-65547870D01*
X163774711Y-65547870D01*
X163775355Y-65551107D01*
X163945521Y-65805779D01*
X164426000Y-66286258D01*
X164426000Y-69084883D01*
X164378700Y-69065242D01*
X163823735Y-69064758D01*
X163310828Y-69276687D01*
X162918066Y-69668764D01*
X162836609Y-69864934D01*
X162780742Y-69730059D01*
X162538764Y-69660841D01*
X161739605Y-70460000D01*
X161753748Y-70474143D01*
X161574143Y-70653748D01*
X161560000Y-70639605D01*
X160760841Y-71438764D01*
X160830059Y-71680742D01*
X160974862Y-71732382D01*
X160770828Y-71816687D01*
X160378066Y-72208764D01*
X160290046Y-72420738D01*
X160203313Y-72210828D01*
X159811236Y-71818066D01*
X159599262Y-71730046D01*
X159809172Y-71643313D01*
X160201934Y-71251236D01*
X160283391Y-71055066D01*
X160339258Y-71189941D01*
X160581236Y-71259159D01*
X161380395Y-70460000D01*
X160581236Y-69660841D01*
X160339258Y-69730059D01*
X160287618Y-69874862D01*
X160203313Y-69670828D01*
X160014052Y-69481236D01*
X160760841Y-69481236D01*
X161560000Y-70280395D01*
X162359159Y-69481236D01*
X162289941Y-69239258D01*
X161767220Y-69052845D01*
X161212951Y-69080659D01*
X160830059Y-69239258D01*
X160760841Y-69481236D01*
X160014052Y-69481236D01*
X159811236Y-69278066D01*
X159298700Y-69065242D01*
X158743735Y-69064758D01*
X158376200Y-69216620D01*
X158376200Y-55243155D01*
X158741300Y-55394758D01*
X159296265Y-55395242D01*
X159809172Y-55183313D01*
X160201934Y-54791236D01*
X160289954Y-54579262D01*
X160376687Y-54789172D01*
X160768764Y-55181934D01*
X161281300Y-55394758D01*
X161836265Y-55395242D01*
X162349172Y-55183313D01*
X162741934Y-54791236D01*
X162829954Y-54579262D01*
X162916687Y-54789172D01*
X163308764Y-55181934D01*
X163821300Y-55394758D01*
X164376265Y-55395242D01*
X164889172Y-55183313D01*
X165281934Y-54791236D01*
X165369954Y-54579262D01*
X165456687Y-54789172D01*
X165456687Y-54789172D01*
G37*
X165456687Y-54789172D02*
X165848764Y-55181934D01*
X166361300Y-55394758D01*
X166916265Y-55395242D01*
X167284100Y-55243256D01*
X167284100Y-61319000D01*
X167343855Y-61619407D01*
X167514021Y-61874079D01*
X168092072Y-62452130D01*
X167749300Y-62452130D01*
X167513983Y-62496408D01*
X167297859Y-62635480D01*
X167152869Y-62847680D01*
X167101860Y-63099570D01*
X167101860Y-64900430D01*
X167146138Y-65135747D01*
X167285210Y-65351871D01*
X167497410Y-65496861D01*
X167749300Y-65547870D01*
X168773511Y-65547870D01*
X168774155Y-65551107D01*
X168944321Y-65805779D01*
X169716100Y-66577558D01*
X169716100Y-69172124D01*
X169458700Y-69065242D01*
X168903735Y-69064758D01*
X168390828Y-69276687D01*
X167998066Y-69668764D01*
X167910046Y-69880738D01*
X167823313Y-69670828D01*
X167431236Y-69278066D01*
X166918700Y-69065242D01*
X166363735Y-69064758D01*
X165996000Y-69216703D01*
X165996000Y-65961100D01*
X165994189Y-65951994D01*
X165936245Y-65660693D01*
X165860859Y-65547870D01*
X166250700Y-65547870D01*
X166486017Y-65503592D01*
X166702141Y-65364520D01*
X166847131Y-65152320D01*
X166898140Y-64900430D01*
X166898140Y-63099570D01*
X166853862Y-62864253D01*
X166714790Y-62648129D01*
X166502590Y-62503139D01*
X166250700Y-62452130D01*
X162750580Y-62452130D01*
X162515263Y-62496408D01*
X162299139Y-62635480D01*
X162154149Y-62847680D01*
X162103140Y-63099570D01*
X162103140Y-64900430D01*
X162147418Y-65135747D01*
X162286490Y-65351871D01*
X162498690Y-65496861D01*
X162750580Y-65547870D01*
X163774711Y-65547870D01*
X163775355Y-65551107D01*
X163945521Y-65805779D01*
X164426000Y-66286258D01*
X164426000Y-69084883D01*
X164378700Y-69065242D01*
X163823735Y-69064758D01*
X163310828Y-69276687D01*
X162918066Y-69668764D01*
X162836609Y-69864934D01*
X162780742Y-69730059D01*
X162538764Y-69660841D01*
X161739605Y-70460000D01*
X161753748Y-70474143D01*
X161574143Y-70653748D01*
X161560000Y-70639605D01*
X160760841Y-71438764D01*
X160830059Y-71680742D01*
X160974862Y-71732382D01*
X160770828Y-71816687D01*
X160378066Y-72208764D01*
X160290046Y-72420738D01*
X160203313Y-72210828D01*
X159811236Y-71818066D01*
X159599262Y-71730046D01*
X159809172Y-71643313D01*
X160201934Y-71251236D01*
X160283391Y-71055066D01*
X160339258Y-71189941D01*
X160581236Y-71259159D01*
X161380395Y-70460000D01*
X160581236Y-69660841D01*
X160339258Y-69730059D01*
X160287618Y-69874862D01*
X160203313Y-69670828D01*
X160014052Y-69481236D01*
X160760841Y-69481236D01*
X161560000Y-70280395D01*
X162359159Y-69481236D01*
X162289941Y-69239258D01*
X161767220Y-69052845D01*
X161212951Y-69080659D01*
X160830059Y-69239258D01*
X160760841Y-69481236D01*
X160014052Y-69481236D01*
X159811236Y-69278066D01*
X159298700Y-69065242D01*
X158743735Y-69064758D01*
X158376200Y-69216620D01*
X158376200Y-55243155D01*
X158741300Y-55394758D01*
X159296265Y-55395242D01*
X159809172Y-55183313D01*
X160201934Y-54791236D01*
X160289954Y-54579262D01*
X160376687Y-54789172D01*
X160768764Y-55181934D01*
X161281300Y-55394758D01*
X161836265Y-55395242D01*
X162349172Y-55183313D01*
X162741934Y-54791236D01*
X162829954Y-54579262D01*
X162916687Y-54789172D01*
X163308764Y-55181934D01*
X163821300Y-55394758D01*
X164376265Y-55395242D01*
X164889172Y-55183313D01*
X165281934Y-54791236D01*
X165369954Y-54579262D01*
X165456687Y-54789172D01*
G36*
X175288200Y-69674982D02*
X175238764Y-69660841D01*
X174439605Y-70460000D01*
X174453748Y-70474143D01*
X174274143Y-70653748D01*
X174260000Y-70639605D01*
X174245858Y-70653748D01*
X174066253Y-70474143D01*
X174080395Y-70460000D01*
X174066253Y-70445858D01*
X174245858Y-70266253D01*
X174260000Y-70280395D01*
X175059159Y-69481236D01*
X174989941Y-69239258D01*
X174467220Y-69052845D01*
X173912951Y-69080659D01*
X173910000Y-69081881D01*
X173910000Y-66050458D01*
X174555079Y-65405379D01*
X174725245Y-65150706D01*
X174725895Y-65147440D01*
X175000000Y-65147440D01*
X175235317Y-65103162D01*
X175288200Y-65069133D01*
X175288200Y-69674982D01*
X175288200Y-69674982D01*
G37*
X175288200Y-69674982D02*
X175238764Y-69660841D01*
X174439605Y-70460000D01*
X174453748Y-70474143D01*
X174274143Y-70653748D01*
X174260000Y-70639605D01*
X174245858Y-70653748D01*
X174066253Y-70474143D01*
X174080395Y-70460000D01*
X174066253Y-70445858D01*
X174245858Y-70266253D01*
X174260000Y-70280395D01*
X175059159Y-69481236D01*
X174989941Y-69239258D01*
X174467220Y-69052845D01*
X173912951Y-69080659D01*
X173910000Y-69081881D01*
X173910000Y-66050458D01*
X174555079Y-65405379D01*
X174725245Y-65150706D01*
X174725895Y-65147440D01*
X175000000Y-65147440D01*
X175235317Y-65103162D01*
X175288200Y-65069133D01*
X175288200Y-69674982D01*
G36*
X183784100Y-54328542D02*
X175518121Y-62594521D01*
X175347955Y-62849193D01*
X175326939Y-62954848D01*
X175251890Y-62903569D01*
X175000000Y-62852560D01*
X173000000Y-62852560D01*
X172764683Y-62896838D01*
X172548559Y-63035910D01*
X172505000Y-63099661D01*
X172505000Y-58096200D01*
X172445245Y-57795794D01*
X172275079Y-57541121D01*
X171378700Y-56644742D01*
X171378700Y-55368764D01*
X171441300Y-55394758D01*
X171996265Y-55395242D01*
X172509172Y-55183313D01*
X172901934Y-54791236D01*
X172989954Y-54579262D01*
X173076687Y-54789172D01*
X173468764Y-55181934D01*
X173981300Y-55394758D01*
X174536265Y-55395242D01*
X175049172Y-55183313D01*
X175441934Y-54791236D01*
X175654758Y-54278700D01*
X175655242Y-53723735D01*
X175652663Y-53717495D01*
X182825879Y-46544279D01*
X182996045Y-46289607D01*
X183055800Y-45989200D01*
X183055800Y-45547870D01*
X183784100Y-45547870D01*
X183784100Y-54328542D01*
X183784100Y-54328542D01*
G37*
X183784100Y-54328542D02*
X175518121Y-62594521D01*
X175347955Y-62849193D01*
X175326939Y-62954848D01*
X175251890Y-62903569D01*
X175000000Y-62852560D01*
X173000000Y-62852560D01*
X172764683Y-62896838D01*
X172548559Y-63035910D01*
X172505000Y-63099661D01*
X172505000Y-58096200D01*
X172445245Y-57795794D01*
X172275079Y-57541121D01*
X171378700Y-56644742D01*
X171378700Y-55368764D01*
X171441300Y-55394758D01*
X171996265Y-55395242D01*
X172509172Y-55183313D01*
X172901934Y-54791236D01*
X172989954Y-54579262D01*
X173076687Y-54789172D01*
X173468764Y-55181934D01*
X173981300Y-55394758D01*
X174536265Y-55395242D01*
X175049172Y-55183313D01*
X175441934Y-54791236D01*
X175654758Y-54278700D01*
X175655242Y-53723735D01*
X175652663Y-53717495D01*
X182825879Y-46544279D01*
X182996045Y-46289607D01*
X183055800Y-45989200D01*
X183055800Y-45547870D01*
X183784100Y-45547870D01*
X183784100Y-54328542D01*
M02*
