G04 #@! TF.FileFunction,Copper,L2,Bot,Signal*
%FSLAX46Y46*%
G04 Gerber Fmt 4.6, Leading zero omitted, Abs format (unit mm)*
G04 Created by KiCad (PCBNEW 4.0.2+dfsg1-stable) date Fri 01 Mar 2019 22:17:21 CET*
%MOMM*%
G01*
G04 APERTURE LIST*
%ADD10C,0.100000*%
%ADD11R,1.520000X1.520000*%
%ADD12C,1.520000*%
%ADD13R,0.635000X3.000000*%
%ADD14R,1.597660X1.800860*%
%ADD15R,2.000000X2.500000*%
%ADD16R,1.000000X1.000000*%
%ADD17O,1.000000X1.000000*%
%ADD18R,3.500120X1.800860*%
%ADD19C,0.600000*%
%ADD20C,0.300000*%
%ADD21C,0.254000*%
G04 APERTURE END LIST*
D10*
D11*
X132080000Y-71120000D03*
D12*
X132080000Y-68580000D03*
X134620000Y-71120000D03*
X134620000Y-68580000D03*
X137160000Y-71120000D03*
X137160000Y-68580000D03*
X139700000Y-71120000D03*
X139700000Y-68580000D03*
X142240000Y-71120000D03*
X142240000Y-68580000D03*
X144780000Y-71120000D03*
X144780000Y-68580000D03*
X147320000Y-71120000D03*
X147320000Y-68580000D03*
X149860000Y-71120000D03*
X149860000Y-68580000D03*
X152400000Y-71120000D03*
X152400000Y-68580000D03*
X154940000Y-71120000D03*
X154940000Y-68580000D03*
X157480000Y-71120000D03*
X157480000Y-68580000D03*
X160020000Y-71120000D03*
X160020000Y-68580000D03*
X162560000Y-71120000D03*
X162560000Y-68580000D03*
X165100000Y-71120000D03*
X165100000Y-68580000D03*
X167640000Y-71120000D03*
X167640000Y-68580000D03*
X170180000Y-71120000D03*
X170180000Y-68580000D03*
X172720000Y-71120000D03*
X172720000Y-68580000D03*
X175260000Y-71120000D03*
X175260000Y-68580000D03*
X177800000Y-71120000D03*
X177800000Y-68580000D03*
X180340000Y-71120000D03*
X180340000Y-68580000D03*
D13*
X142240000Y-130810000D03*
X143510000Y-130810000D03*
X144780000Y-130810000D03*
X146050000Y-130810000D03*
X147320000Y-130810000D03*
X148590000Y-130810000D03*
X149860000Y-130810000D03*
X151130000Y-130810000D03*
X152400000Y-130810000D03*
X153670000Y-130810000D03*
X154940000Y-130810000D03*
X156210000Y-130810000D03*
X157480000Y-130810000D03*
X158750000Y-130810000D03*
X160020000Y-130810000D03*
X161290000Y-130810000D03*
X162560000Y-130810000D03*
X163830000Y-130810000D03*
X165100000Y-130810000D03*
X166370000Y-130810000D03*
X167640000Y-130810000D03*
X168910000Y-130810000D03*
D11*
X132080000Y-95250000D03*
D12*
X132080000Y-92710000D03*
X134620000Y-95250000D03*
X134620000Y-92710000D03*
X137160000Y-95250000D03*
X137160000Y-92710000D03*
X139700000Y-95250000D03*
X139700000Y-92710000D03*
X142240000Y-95250000D03*
X142240000Y-92710000D03*
X144780000Y-95250000D03*
X144780000Y-92710000D03*
X147320000Y-95250000D03*
X147320000Y-92710000D03*
X149860000Y-95250000D03*
X149860000Y-92710000D03*
X152400000Y-95250000D03*
X152400000Y-92710000D03*
X154940000Y-95250000D03*
X154940000Y-92710000D03*
X157480000Y-95250000D03*
X157480000Y-92710000D03*
X160020000Y-95250000D03*
X160020000Y-92710000D03*
X162560000Y-95250000D03*
X162560000Y-92710000D03*
X165100000Y-95250000D03*
X165100000Y-92710000D03*
X167640000Y-95250000D03*
X167640000Y-92710000D03*
X170180000Y-95250000D03*
X170180000Y-92710000D03*
X172720000Y-95250000D03*
X172720000Y-92710000D03*
X175260000Y-95250000D03*
X175260000Y-92710000D03*
X177800000Y-95250000D03*
X177800000Y-92710000D03*
X180340000Y-95250000D03*
X180340000Y-92710000D03*
D14*
X189379860Y-77470000D03*
X186540140Y-77470000D03*
D15*
X183610000Y-77470000D03*
X179610000Y-77470000D03*
D16*
X143510000Y-82550000D03*
D17*
X143510000Y-83820000D03*
X144780000Y-82550000D03*
X144780000Y-83820000D03*
X146050000Y-82550000D03*
X146050000Y-83820000D03*
X147320000Y-82550000D03*
X147320000Y-83820000D03*
X148590000Y-82550000D03*
X148590000Y-83820000D03*
X149860000Y-82550000D03*
X149860000Y-83820000D03*
X151130000Y-82550000D03*
X151130000Y-83820000D03*
X152400000Y-82550000D03*
X152400000Y-83820000D03*
X153670000Y-82550000D03*
X153670000Y-83820000D03*
X154940000Y-82550000D03*
X154940000Y-83820000D03*
X156210000Y-82550000D03*
X156210000Y-83820000D03*
X157480000Y-82550000D03*
X157480000Y-83820000D03*
X158750000Y-82550000D03*
X158750000Y-83820000D03*
X160020000Y-82550000D03*
X160020000Y-83820000D03*
X161290000Y-82550000D03*
X161290000Y-83820000D03*
X162560000Y-82550000D03*
X162560000Y-83820000D03*
X163830000Y-82550000D03*
X163830000Y-83820000D03*
X165100000Y-82550000D03*
X165100000Y-83820000D03*
X166370000Y-82550000D03*
X166370000Y-83820000D03*
X167640000Y-82550000D03*
X167640000Y-83820000D03*
X168910000Y-82550000D03*
X168910000Y-83820000D03*
X170180000Y-82550000D03*
X170180000Y-83820000D03*
D18*
X170220640Y-78740000D03*
X175219360Y-78740000D03*
D19*
X170934700Y-81874400D03*
X131665800Y-91427400D03*
X142006200Y-128787600D03*
X162351700Y-84885400D03*
X143510000Y-128248500D03*
X144780000Y-127454200D03*
X144335600Y-85995400D03*
X136662500Y-75021900D03*
X131469900Y-89771800D03*
X146167000Y-128088200D03*
X147210600Y-123794900D03*
X148590000Y-122860700D03*
X137072900Y-88469300D03*
X142204100Y-81373900D03*
X150316800Y-127390600D03*
X151552800Y-128049000D03*
X129211900Y-96325700D03*
X153017200Y-128853600D03*
X154284700Y-127694200D03*
X155557000Y-128853600D03*
X156824200Y-101985800D03*
X157494200Y-66637700D03*
X160102400Y-127418900D03*
X167098000Y-106321700D03*
X174957300Y-104517900D03*
X186242600Y-82915100D03*
X160585400Y-128563300D03*
X167827300Y-90042200D03*
X166461500Y-90993900D03*
X170378200Y-80148300D03*
X168907000Y-92430400D03*
X162733600Y-128786100D03*
X166989600Y-75980600D03*
X172358800Y-75980600D03*
X174065200Y-82730600D03*
X176371100Y-80639100D03*
X182753600Y-93804500D03*
X181498100Y-96959000D03*
X167640000Y-128798000D03*
X179000700Y-79429700D03*
X179083200Y-100054900D03*
X186892900Y-81224100D03*
X178432400Y-89783300D03*
X164570800Y-97030800D03*
X168102900Y-127363500D03*
X176511600Y-99317500D03*
X134722300Y-85542800D03*
X152681300Y-79220300D03*
X155416700Y-80127100D03*
X129338500Y-95197600D03*
X129338500Y-65944200D03*
X160436900Y-99169900D03*
X130163000Y-99557800D03*
X126973300Y-64949500D03*
X169173800Y-90123800D03*
X169971600Y-90811900D03*
X173857600Y-76750700D03*
X165701300Y-76750700D03*
D20*
X170743400Y-81683100D02*
X170934700Y-81874400D01*
X168506900Y-81683100D02*
X170743400Y-81683100D01*
X167640000Y-82550000D02*
X168506900Y-81683100D01*
X186540100Y-77470000D02*
X186540100Y-78720700D01*
X185592300Y-89997700D02*
X180340000Y-95250000D01*
X185592300Y-79668500D02*
X185592300Y-89997700D01*
X186540100Y-78720700D02*
X185592300Y-79668500D01*
X130921500Y-92710000D02*
X132080000Y-92710000D01*
X140212200Y-128782200D02*
X142240000Y-130810000D01*
X140212200Y-125661900D02*
X140212200Y-128782200D01*
X132831400Y-118281100D02*
X140212200Y-125661900D01*
X132831400Y-115557400D02*
X132831400Y-118281100D01*
X130921500Y-113647500D02*
X132831400Y-115557400D01*
X130921500Y-92710000D02*
X130921500Y-113647500D01*
X130763600Y-92552100D02*
X130921500Y-92710000D01*
X130763600Y-81848400D02*
X130763600Y-92552100D01*
X130424800Y-81509600D02*
X130763600Y-81848400D01*
X130424800Y-70013700D02*
X130424800Y-81509600D01*
X131858500Y-68580000D02*
X130424800Y-70013700D01*
X132080000Y-68580000D02*
X131858500Y-68580000D01*
X134624700Y-90165300D02*
X132080000Y-92710000D01*
X136314400Y-90165300D02*
X134624700Y-90165300D01*
X142659700Y-83820000D02*
X136314400Y-90165300D01*
X143510000Y-83820000D02*
X142659700Y-83820000D01*
X177782100Y-92692100D02*
X177800000Y-92710000D01*
X177782100Y-77876100D02*
X177782100Y-92692100D01*
X176637400Y-76731400D02*
X177782100Y-77876100D01*
X176637400Y-69742600D02*
X176637400Y-76731400D01*
X177800000Y-68580000D02*
X176637400Y-69742600D01*
X132080000Y-71120000D02*
X133190300Y-71120000D01*
X142173500Y-80363200D02*
X141806700Y-80363200D01*
X143510000Y-81699700D02*
X142173500Y-80363200D01*
X143510000Y-82550000D02*
X143510000Y-81699700D01*
X140712600Y-127494000D02*
X142006200Y-128787600D01*
X140712600Y-125435600D02*
X140712600Y-127494000D01*
X133832000Y-118555000D02*
X140712600Y-125435600D01*
X133832000Y-115850400D02*
X133832000Y-118555000D01*
X132080000Y-114098400D02*
X133832000Y-115850400D01*
X132080000Y-96360300D02*
X132080000Y-114098400D01*
X132080000Y-95250000D02*
X132080000Y-96360300D01*
X131665800Y-90504100D02*
X131665800Y-91427400D01*
X141806700Y-80363200D02*
X131665800Y-90504100D01*
X141806700Y-79207000D02*
X141806700Y-80363200D01*
X134830000Y-72230300D02*
X141806700Y-79207000D01*
X134022900Y-72230300D02*
X134830000Y-72230300D01*
X133190300Y-71397700D02*
X134022900Y-72230300D01*
X133190300Y-71120000D02*
X133190300Y-71397700D01*
X165304600Y-84885400D02*
X162351700Y-84885400D01*
X166370000Y-83820000D02*
X165304600Y-84885400D01*
X135333000Y-95963000D02*
X134620000Y-95250000D01*
X135333000Y-117849100D02*
X135333000Y-95963000D01*
X142380800Y-124896900D02*
X135333000Y-117849100D01*
X142380800Y-127119300D02*
X142380800Y-124896900D01*
X143510000Y-128248500D02*
X142380800Y-127119300D01*
X144780000Y-81280000D02*
X134620000Y-71120000D01*
X144780000Y-82550000D02*
X144780000Y-81280000D01*
X137160000Y-72809700D02*
X137160000Y-71120000D01*
X146050000Y-81699700D02*
X137160000Y-72809700D01*
X146050000Y-82550000D02*
X146050000Y-81699700D01*
X138270400Y-92060600D02*
X144335600Y-85995400D01*
X138270400Y-93431900D02*
X138270400Y-92060600D01*
X137160000Y-94542300D02*
X138270400Y-93431900D01*
X137160000Y-95250000D02*
X137160000Y-94542300D01*
X137160000Y-118011100D02*
X137160000Y-95250000D01*
X144780000Y-125631100D02*
X137160000Y-118011100D01*
X144780000Y-127454200D02*
X144780000Y-125631100D01*
X136662500Y-84579200D02*
X131469900Y-89771800D01*
X136662500Y-75021900D02*
X136662500Y-84579200D01*
X146167000Y-125125200D02*
X146167000Y-128088200D01*
X139700000Y-118658200D02*
X146167000Y-125125200D01*
X139700000Y-95250000D02*
X139700000Y-118658200D01*
X139700000Y-74079700D02*
X139700000Y-71120000D01*
X147320000Y-81699700D02*
X139700000Y-74079700D01*
X147320000Y-82550000D02*
X147320000Y-81699700D01*
X148590000Y-82550000D02*
X148590000Y-81699700D01*
X142240000Y-118824300D02*
X147210600Y-123794900D01*
X142240000Y-95250000D02*
X142240000Y-118824300D01*
X142240000Y-75349700D02*
X142240000Y-71120000D01*
X148590000Y-81699700D02*
X142240000Y-75349700D01*
X149860000Y-76200000D02*
X144780000Y-71120000D01*
X149860000Y-82550000D02*
X149860000Y-76200000D01*
X144780000Y-119050700D02*
X148590000Y-122860700D01*
X144780000Y-95250000D02*
X144780000Y-119050700D01*
X151130000Y-82550000D02*
X151130000Y-81699700D01*
X150316800Y-119150600D02*
X150316800Y-127390600D01*
X147320000Y-116153800D02*
X150316800Y-119150600D01*
X147320000Y-95250000D02*
X147320000Y-116153800D01*
X151130000Y-74930000D02*
X151130000Y-81699700D01*
X147320000Y-71120000D02*
X151130000Y-74930000D01*
X142204100Y-83338100D02*
X142204100Y-81373900D01*
X137072900Y-88469300D02*
X142204100Y-83338100D01*
X151552800Y-113291000D02*
X151552800Y-128049000D01*
X149860000Y-111598200D02*
X151552800Y-113291000D01*
X149860000Y-95250000D02*
X149860000Y-111598200D01*
X129993100Y-95544500D02*
X129211900Y-96325700D01*
X129993100Y-82493100D02*
X129993100Y-95544500D01*
X129904300Y-82404300D02*
X129993100Y-82493100D01*
X129904300Y-69162400D02*
X129904300Y-82404300D01*
X131621200Y-67445500D02*
X129904300Y-69162400D01*
X145299200Y-67445500D02*
X131621200Y-67445500D01*
X146050000Y-68196300D02*
X145299200Y-67445500D01*
X146050000Y-68923100D02*
X146050000Y-68196300D01*
X146817300Y-69690400D02*
X146050000Y-68923100D01*
X148430400Y-69690400D02*
X146817300Y-69690400D01*
X149860000Y-71120000D02*
X148430400Y-69690400D01*
X152001200Y-73261200D02*
X149860000Y-71120000D01*
X152001200Y-81300900D02*
X152001200Y-73261200D01*
X152400000Y-81699700D02*
X152001200Y-81300900D01*
X152400000Y-82550000D02*
X152400000Y-81699700D01*
X153017200Y-95867200D02*
X152400000Y-95250000D01*
X153017200Y-128853600D02*
X153017200Y-95867200D01*
X153670000Y-82550000D02*
X153670000Y-81699700D01*
X153670000Y-72390000D02*
X152400000Y-71120000D01*
X153670000Y-81699700D02*
X153670000Y-72390000D01*
X154284700Y-95905300D02*
X154940000Y-95250000D01*
X154284700Y-127694200D02*
X154284700Y-95905300D01*
X154763000Y-71297000D02*
X154940000Y-71120000D01*
X154763000Y-81522700D02*
X154763000Y-71297000D01*
X154940000Y-81699700D02*
X154763000Y-81522700D01*
X154940000Y-82550000D02*
X154940000Y-81699700D01*
X157480000Y-98432900D02*
X157480000Y-95250000D01*
X155557000Y-100355900D02*
X157480000Y-98432900D01*
X155557000Y-128853600D02*
X155557000Y-100355900D01*
X156210000Y-82550000D02*
X156210000Y-81699700D01*
X156210000Y-72390000D02*
X157480000Y-71120000D01*
X156210000Y-81699700D02*
X156210000Y-72390000D01*
X157480000Y-82550000D02*
X157480000Y-81699700D01*
X157480000Y-73660000D02*
X160020000Y-71120000D01*
X157480000Y-81699700D02*
X157480000Y-73660000D01*
X158750000Y-67893500D02*
X157494200Y-66637700D01*
X158750000Y-69850000D02*
X158750000Y-67893500D01*
X160020000Y-71120000D02*
X158750000Y-69850000D01*
X156824200Y-101395700D02*
X156824200Y-101985800D01*
X160020000Y-98199900D02*
X156824200Y-101395700D01*
X160020000Y-95250000D02*
X160020000Y-98199900D01*
X158750000Y-82550000D02*
X158750000Y-81699700D01*
X159250300Y-74429700D02*
X162560000Y-71120000D01*
X159250300Y-81199400D02*
X159250300Y-74429700D01*
X158750000Y-81699700D02*
X159250300Y-81199400D01*
X186242600Y-93134200D02*
X186242600Y-82915100D01*
X180817800Y-98559000D02*
X186242600Y-93134200D01*
X176350500Y-98559000D02*
X180817800Y-98559000D01*
X175455000Y-99454500D02*
X176350500Y-98559000D01*
X175455000Y-104020200D02*
X175455000Y-99454500D01*
X174957300Y-104517900D02*
X175455000Y-104020200D01*
X165221100Y-106321700D02*
X167098000Y-106321700D01*
X165221000Y-106321700D02*
X165221100Y-106321700D01*
X165221000Y-122300300D02*
X165221000Y-106321700D01*
X160102400Y-127418900D02*
X165221000Y-122300300D01*
X165221100Y-95371100D02*
X165100000Y-95250000D01*
X165221100Y-106321700D02*
X165221100Y-95371100D01*
X160020000Y-76200000D02*
X165100000Y-71120000D01*
X160020000Y-82550000D02*
X160020000Y-76200000D01*
X161290000Y-77470000D02*
X161290000Y-82550000D01*
X167640000Y-71120000D02*
X161290000Y-77470000D01*
X167827300Y-89334700D02*
X167827300Y-90042200D01*
X171604600Y-85557400D02*
X167827300Y-89334700D01*
X171604600Y-81551600D02*
X171604600Y-85557400D01*
X171043700Y-80990700D02*
X171604600Y-81551600D01*
X169266800Y-80990700D02*
X171043700Y-80990700D01*
X167640000Y-79363900D02*
X169266800Y-80990700D01*
X167640000Y-71120000D02*
X167640000Y-79363900D01*
X166461500Y-94071500D02*
X166461500Y-90993900D01*
X167640000Y-95250000D02*
X166461500Y-94071500D01*
X167748300Y-95358300D02*
X167640000Y-95250000D01*
X167748300Y-120692900D02*
X167748300Y-95358300D01*
X160585400Y-127855800D02*
X167748300Y-120692900D01*
X160585400Y-128563300D02*
X160585400Y-127855800D01*
X170220600Y-78740000D02*
X170220600Y-79990700D01*
X170220600Y-79990700D02*
X170378200Y-80148300D01*
X168907000Y-90776500D02*
X168907000Y-92430400D01*
X168906900Y-90776500D02*
X168907000Y-90776500D01*
X168523500Y-90393100D02*
X168906900Y-90776500D01*
X168523500Y-89854500D02*
X168523500Y-90393100D01*
X172108600Y-86269400D02*
X168523500Y-89854500D01*
X172108600Y-81309600D02*
X172108600Y-86269400D01*
X170947300Y-80148300D02*
X172108600Y-81309600D01*
X170378200Y-80148300D02*
X170947300Y-80148300D01*
X172358800Y-71481200D02*
X172358800Y-75980600D01*
X172720000Y-71120000D02*
X172358800Y-71481200D01*
X163830000Y-82550000D02*
X163830000Y-81699700D01*
X172720000Y-118799700D02*
X162733600Y-128786100D01*
X172720000Y-95250000D02*
X172720000Y-118799700D01*
X166989600Y-78540100D02*
X163830000Y-81699700D01*
X166989600Y-75980600D02*
X166989600Y-78540100D01*
X172720000Y-94411400D02*
X172720000Y-95250000D01*
X174065200Y-93066200D02*
X172720000Y-94411400D01*
X174065200Y-82730600D02*
X174065200Y-93066200D01*
X176371100Y-94138900D02*
X176371100Y-80639100D01*
X175260000Y-95250000D02*
X176371100Y-94138900D01*
X181498100Y-95060000D02*
X182753600Y-93804500D01*
X181498100Y-96959000D02*
X181498100Y-95060000D01*
X168910000Y-83820000D02*
X168910000Y-82550000D01*
X167640000Y-130810000D02*
X167640000Y-128798000D01*
X179610000Y-77470000D02*
X179610000Y-79070300D01*
X179360100Y-79070300D02*
X179000700Y-79429700D01*
X179610000Y-79070300D02*
X179360100Y-79070300D01*
X179083200Y-117354800D02*
X167640000Y-128798000D01*
X179083200Y-100054900D02*
X179083200Y-117354800D01*
X178432400Y-79998000D02*
X179000700Y-79429700D01*
X178432400Y-89783300D02*
X178432400Y-79998000D01*
X186892900Y-93191400D02*
X186892900Y-81224100D01*
X180029400Y-100054900D02*
X186892900Y-93191400D01*
X179083200Y-100054900D02*
X180029400Y-100054900D01*
X167640000Y-83820000D02*
X167640000Y-84670300D01*
X181501500Y-69741500D02*
X180340000Y-68580000D01*
X181501500Y-91548500D02*
X181501500Y-69741500D01*
X180340000Y-92710000D02*
X181501500Y-91548500D01*
X166370000Y-130810000D02*
X166370000Y-128959700D01*
X160020000Y-130810000D02*
X160020000Y-128959700D01*
X166506700Y-128959700D02*
X168102900Y-127363500D01*
X166370000Y-128959700D02*
X166506700Y-128959700D01*
X176511600Y-118954800D02*
X168102900Y-127363500D01*
X176511600Y-99317500D02*
X176511600Y-118954800D01*
X167894300Y-84924500D02*
X167177000Y-85641800D01*
X167894300Y-84924600D02*
X167894300Y-84924500D01*
X170291200Y-84924600D02*
X167894300Y-84924600D01*
X171058600Y-84157200D02*
X170291200Y-84924600D01*
X171058600Y-83428600D02*
X171058600Y-84157200D01*
X170180000Y-82550000D02*
X171058600Y-83428600D01*
X167894300Y-84924500D02*
X167640000Y-84670300D01*
X167177000Y-92247000D02*
X167177000Y-85641800D01*
X167640000Y-92710000D02*
X167177000Y-92247000D01*
X162140200Y-85641800D02*
X167177000Y-85641800D01*
X161290000Y-84791600D02*
X162140200Y-85641800D01*
X161290000Y-83820000D02*
X161290000Y-84791600D01*
X159452100Y-102149500D02*
X164570800Y-97030800D01*
X159452100Y-128391800D02*
X159452100Y-102149500D01*
X160020000Y-128959700D02*
X159452100Y-128391800D01*
X136415800Y-90914200D02*
X134620000Y-92710000D01*
X137685800Y-90914200D02*
X136415800Y-90914200D01*
X144780000Y-83820000D02*
X137685800Y-90914200D01*
X143301400Y-128959700D02*
X143510000Y-128959700D01*
X141263700Y-126922000D02*
X143301400Y-128959700D01*
X141263700Y-124632900D02*
X141263700Y-126922000D01*
X134582600Y-117951800D02*
X141263700Y-124632900D01*
X134582600Y-112570500D02*
X134582600Y-117951800D01*
X133490300Y-111478200D02*
X134582600Y-112570500D01*
X133490300Y-93839700D02*
X133490300Y-111478200D01*
X134620000Y-92710000D02*
X133490300Y-93839700D01*
X143510000Y-130810000D02*
X143510000Y-128959700D01*
X134722300Y-84495900D02*
X134722300Y-85542800D01*
X130925900Y-80699500D02*
X134722300Y-84495900D01*
X130925900Y-70251200D02*
X130925900Y-80699500D01*
X131327100Y-69850000D02*
X130925900Y-70251200D01*
X135890000Y-69850000D02*
X131327100Y-69850000D01*
X137160000Y-68580000D02*
X135890000Y-69850000D01*
X136048700Y-93821300D02*
X137160000Y-92710000D01*
X136048700Y-117607400D02*
X136048700Y-93821300D01*
X142881100Y-124439800D02*
X136048700Y-117607400D01*
X142881100Y-126474900D02*
X142881100Y-124439800D01*
X144780000Y-128373800D02*
X142881100Y-126474900D01*
X144780000Y-130810000D02*
X144780000Y-128373800D01*
X137160000Y-92226700D02*
X137160000Y-92710000D01*
X144716300Y-84670400D02*
X137160000Y-92226700D01*
X145199600Y-84670400D02*
X144716300Y-84670400D01*
X146050000Y-83820000D02*
X145199600Y-84670400D01*
X147320000Y-83820000D02*
X147320000Y-84670300D01*
X139700000Y-92290300D02*
X139700000Y-92710000D01*
X147320000Y-84670300D02*
X139700000Y-92290300D01*
X145516700Y-128426400D02*
X146050000Y-128959700D01*
X145516700Y-125660300D02*
X145516700Y-128426400D01*
X138538400Y-118682000D02*
X145516700Y-125660300D01*
X138538400Y-93871600D02*
X138538400Y-118682000D01*
X139700000Y-92710000D02*
X138538400Y-93871600D01*
X146050000Y-130810000D02*
X146050000Y-128959700D01*
X148590000Y-83820000D02*
X148590000Y-84670300D01*
X148590000Y-86360000D02*
X142240000Y-92710000D01*
X148590000Y-84670300D02*
X148590000Y-86360000D01*
X147320000Y-124823900D02*
X147320000Y-130810000D01*
X141097500Y-118601400D02*
X147320000Y-124823900D01*
X141097500Y-93852500D02*
X141097500Y-118601400D01*
X142240000Y-92710000D02*
X141097500Y-93852500D01*
X149860000Y-83820000D02*
X149860000Y-84670300D01*
X149860000Y-87630000D02*
X144780000Y-92710000D01*
X149860000Y-84670300D02*
X149860000Y-87630000D01*
X148590000Y-123780700D02*
X148590000Y-130810000D01*
X143668100Y-118858800D02*
X148590000Y-123780700D01*
X143668100Y-93821900D02*
X143668100Y-118858800D01*
X144780000Y-92710000D02*
X143668100Y-93821900D01*
X151130000Y-83820000D02*
X151130000Y-84670300D01*
X151130000Y-88900000D02*
X147320000Y-92710000D01*
X151130000Y-84670300D02*
X151130000Y-88900000D01*
X149860000Y-130810000D02*
X149860000Y-128959700D01*
X149666500Y-128766200D02*
X149860000Y-128959700D01*
X149666500Y-122373000D02*
X149666500Y-128766200D01*
X146177500Y-118884000D02*
X149666500Y-122373000D01*
X146177500Y-93852500D02*
X146177500Y-118884000D01*
X147320000Y-92710000D02*
X146177500Y-93852500D01*
X151130000Y-130810000D02*
X151130000Y-128959700D01*
X152400000Y-83820000D02*
X152400000Y-84670300D01*
X151899700Y-90670300D02*
X149860000Y-92710000D01*
X151899700Y-85170600D02*
X151899700Y-90670300D01*
X152400000Y-84670300D02*
X151899700Y-85170600D01*
X148748700Y-93821300D02*
X149860000Y-92710000D01*
X148748700Y-116167400D02*
X148748700Y-93821300D01*
X151031600Y-118450300D02*
X148748700Y-116167400D01*
X151031600Y-127595500D02*
X151031600Y-118450300D01*
X150902500Y-127724600D02*
X151031600Y-127595500D01*
X150902500Y-128732200D02*
X150902500Y-127724600D01*
X151130000Y-128959700D02*
X150902500Y-128732200D01*
X152366900Y-130776900D02*
X152400000Y-130810000D01*
X152366900Y-108756400D02*
X152366900Y-130776900D01*
X151288700Y-107678200D02*
X152366900Y-108756400D01*
X151288700Y-93821300D02*
X151288700Y-107678200D01*
X152400000Y-92710000D02*
X151288700Y-93821300D01*
X153670000Y-83820000D02*
X153670000Y-84670300D01*
X153670000Y-91440000D02*
X152400000Y-92710000D01*
X153670000Y-84670300D02*
X153670000Y-91440000D01*
X153670000Y-130810000D02*
X153670000Y-128959700D01*
X153634400Y-94015600D02*
X154940000Y-92710000D01*
X153634400Y-128551100D02*
X153634400Y-94015600D01*
X153670000Y-128586700D02*
X153634400Y-128551100D01*
X153670000Y-128959700D02*
X153670000Y-128586700D01*
X154940000Y-83820000D02*
X154940000Y-84670300D01*
X154940000Y-92710000D02*
X154940000Y-84670300D01*
X152681300Y-72990500D02*
X152681300Y-79220300D01*
X151237200Y-71546400D02*
X152681300Y-72990500D01*
X151237200Y-70657400D02*
X151237200Y-71546400D01*
X151913000Y-69981600D02*
X151237200Y-70657400D01*
X153538400Y-69981600D02*
X151913000Y-69981600D01*
X154940000Y-68580000D02*
X153538400Y-69981600D01*
X156210000Y-83820000D02*
X156210000Y-84670300D01*
X156052800Y-94137200D02*
X157480000Y-92710000D01*
X156052800Y-99152600D02*
X156052800Y-94137200D01*
X154935000Y-100270400D02*
X156052800Y-99152600D01*
X154935000Y-127963600D02*
X154935000Y-100270400D01*
X154906700Y-127991900D02*
X154935000Y-127963600D01*
X154906700Y-130776700D02*
X154906700Y-127991900D01*
X154940000Y-130810000D02*
X154906700Y-130776700D01*
X156210000Y-91440000D02*
X157480000Y-92710000D01*
X156210000Y-84670300D02*
X156210000Y-91440000D01*
X155416700Y-72475600D02*
X155416700Y-80127100D01*
X156210000Y-71682300D02*
X155416700Y-72475600D01*
X156210000Y-69850000D02*
X156210000Y-71682300D01*
X157480000Y-68580000D02*
X156210000Y-69850000D01*
X156210000Y-130810000D02*
X156210000Y-128959700D01*
X158750000Y-93980000D02*
X160020000Y-92710000D01*
X158750000Y-97956000D02*
X158750000Y-93980000D01*
X156173900Y-100532100D02*
X158750000Y-97956000D01*
X156173900Y-128550800D02*
X156173900Y-100532100D01*
X156210000Y-128586900D02*
X156173900Y-128550800D01*
X156210000Y-128959700D02*
X156210000Y-128586900D01*
X157480000Y-83820000D02*
X157480000Y-84670300D01*
X157480000Y-90170000D02*
X157480000Y-84670300D01*
X160020000Y-92710000D02*
X157480000Y-90170000D01*
X129338500Y-65944200D02*
X129338500Y-95197600D01*
X158750000Y-88900000D02*
X158750000Y-83820000D01*
X162560000Y-92710000D02*
X158750000Y-88900000D01*
X161290000Y-98316800D02*
X160436900Y-99169900D01*
X161290000Y-93980000D02*
X161290000Y-98316800D01*
X162560000Y-92710000D02*
X161290000Y-93980000D01*
X157480000Y-102126800D02*
X160436900Y-99169900D01*
X157480000Y-130810000D02*
X157480000Y-102126800D01*
X126973300Y-96368100D02*
X130163000Y-99557800D01*
X126973300Y-64949500D02*
X126973300Y-96368100D01*
X160020000Y-87630000D02*
X165100000Y-92710000D01*
X160020000Y-83820000D02*
X160020000Y-87630000D01*
X163830000Y-93980000D02*
X165100000Y-92710000D01*
X163830000Y-96851800D02*
X163830000Y-93980000D01*
X158750000Y-101931800D02*
X163830000Y-96851800D01*
X158750000Y-130810000D02*
X158750000Y-101931800D01*
X168750400Y-94139600D02*
X170180000Y-92710000D01*
X168750400Y-120752000D02*
X168750400Y-94139600D01*
X161290000Y-128212400D02*
X168750400Y-120752000D01*
X161290000Y-130810000D02*
X161290000Y-128212400D01*
X171450100Y-69850100D02*
X170180000Y-68580000D01*
X171450100Y-76759500D02*
X171450100Y-69850100D01*
X172358800Y-77668200D02*
X171450100Y-76759500D01*
X172358800Y-80032900D02*
X172358800Y-77668200D01*
X172658100Y-80332200D02*
X172358800Y-80032900D01*
X172658100Y-86639500D02*
X172658100Y-80332200D01*
X169173800Y-90123800D02*
X172658100Y-86639500D01*
X171312400Y-92152700D02*
X169971600Y-90811900D01*
X171312400Y-118937300D02*
X171312400Y-92152700D01*
X162083200Y-128166500D02*
X171312400Y-118937300D01*
X162083200Y-130333200D02*
X162083200Y-128166500D01*
X162560000Y-130810000D02*
X162083200Y-130333200D01*
X174149600Y-69690400D02*
X175260000Y-68580000D01*
X174149600Y-72486100D02*
X174149600Y-69690400D01*
X173117400Y-73518300D02*
X174149600Y-72486100D01*
X173117400Y-80084000D02*
X173117400Y-73518300D01*
X175260000Y-82226600D02*
X173117400Y-80084000D01*
X175260000Y-92710000D02*
X175260000Y-82226600D01*
X163830000Y-128610500D02*
X163830000Y-130810000D01*
X173806700Y-118633800D02*
X163830000Y-128610500D01*
X173806700Y-104041400D02*
X173806700Y-118633800D01*
X173990000Y-103858100D02*
X173806700Y-104041400D01*
X173990000Y-93980000D02*
X173990000Y-103858100D01*
X175260000Y-92710000D02*
X173990000Y-93980000D01*
X165100000Y-128497100D02*
X165100000Y-130810000D01*
X174307000Y-119290100D02*
X165100000Y-128497100D01*
X174307000Y-104248600D02*
X174307000Y-119290100D01*
X174778000Y-103777600D02*
X174307000Y-104248600D01*
X174778000Y-99424000D02*
X174778000Y-103777600D01*
X176620100Y-97581900D02*
X174778000Y-99424000D01*
X177062300Y-97581900D02*
X176620100Y-97581900D01*
X179082700Y-95561500D02*
X177062300Y-97581900D01*
X179082700Y-83038600D02*
X179082700Y-95561500D01*
X180960400Y-81160900D02*
X179082700Y-83038600D01*
X180960400Y-74280400D02*
X180960400Y-81160900D01*
X177800000Y-71120000D02*
X180960400Y-74280400D01*
X184960300Y-76836700D02*
X184960300Y-77470000D01*
X185593400Y-76203600D02*
X184960300Y-76836700D01*
X187538900Y-76203600D02*
X185593400Y-76203600D01*
X188230800Y-76895500D02*
X187538900Y-76203600D01*
X188230800Y-77470000D02*
X188230800Y-76895500D01*
X189379900Y-77470000D02*
X188230800Y-77470000D01*
X183610000Y-77470000D02*
X184960300Y-77470000D01*
X162560000Y-79892000D02*
X162560000Y-82550000D01*
X165701300Y-76750700D02*
X162560000Y-79892000D01*
X174596200Y-77489300D02*
X173857600Y-76750700D01*
X175219400Y-77489300D02*
X174596200Y-77489300D01*
X175219400Y-78740000D02*
X175219400Y-77489300D01*
D21*
G36*
X178291008Y-99524573D02*
X178148362Y-99868101D01*
X178148038Y-100240067D01*
X178290083Y-100583843D01*
X178298200Y-100591974D01*
X178298200Y-117029642D01*
X167464995Y-127862847D01*
X167454833Y-127862838D01*
X167111057Y-128004883D01*
X166847808Y-128267673D01*
X166705162Y-128611201D01*
X166705106Y-128675000D01*
X166655750Y-128675000D01*
X166497000Y-128833750D01*
X166497000Y-130683000D01*
X166243000Y-130683000D01*
X166243000Y-128833750D01*
X166084250Y-128675000D01*
X166032258Y-128675000D01*
X174862079Y-119845179D01*
X175032245Y-119590507D01*
X175092000Y-119290100D01*
X175092000Y-105453018D01*
X175142467Y-105453062D01*
X175486243Y-105311017D01*
X175749492Y-105048227D01*
X175892138Y-104704699D01*
X175892148Y-104693210D01*
X176010079Y-104575279D01*
X176180245Y-104320607D01*
X176240000Y-104020200D01*
X176240000Y-99779658D01*
X176675658Y-99344000D01*
X178471896Y-99344000D01*
X178291008Y-99524573D01*
X178291008Y-99524573D01*
G37*
X178291008Y-99524573D02*
X178148362Y-99868101D01*
X178148038Y-100240067D01*
X178290083Y-100583843D01*
X178298200Y-100591974D01*
X178298200Y-117029642D01*
X167464995Y-127862847D01*
X167454833Y-127862838D01*
X167111057Y-128004883D01*
X166847808Y-128267673D01*
X166705162Y-128611201D01*
X166705106Y-128675000D01*
X166655750Y-128675000D01*
X166497000Y-128833750D01*
X166497000Y-130683000D01*
X166243000Y-130683000D01*
X166243000Y-128833750D01*
X166084250Y-128675000D01*
X166032258Y-128675000D01*
X174862079Y-119845179D01*
X175032245Y-119590507D01*
X175092000Y-119290100D01*
X175092000Y-105453018D01*
X175142467Y-105453062D01*
X175486243Y-105311017D01*
X175749492Y-105048227D01*
X175892138Y-104704699D01*
X175892148Y-104693210D01*
X176010079Y-104575279D01*
X176180245Y-104320607D01*
X176240000Y-104020200D01*
X176240000Y-99779658D01*
X176675658Y-99344000D01*
X178471896Y-99344000D01*
X178291008Y-99524573D01*
G36*
X194183000Y-100277394D02*
X179868200Y-114592194D01*
X179868200Y-100839900D01*
X180029400Y-100839900D01*
X180329807Y-100780145D01*
X180584479Y-100609979D01*
X187447979Y-93746479D01*
X187618145Y-93491806D01*
X187677900Y-93191400D01*
X187677900Y-81761606D01*
X187685092Y-81754427D01*
X187827738Y-81410899D01*
X187828062Y-81038933D01*
X187686017Y-80695157D01*
X187423227Y-80431908D01*
X187079699Y-80289262D01*
X186707733Y-80288938D01*
X186377300Y-80425470D01*
X186377300Y-79993658D01*
X187095179Y-79275779D01*
X187265345Y-79021106D01*
X187265989Y-79017870D01*
X187338970Y-79017870D01*
X187574287Y-78973592D01*
X187790411Y-78834520D01*
X187935401Y-78622320D01*
X187959030Y-78505634D01*
X187977868Y-78605747D01*
X188116940Y-78821871D01*
X188329140Y-78966861D01*
X188581030Y-79017870D01*
X190178690Y-79017870D01*
X190414007Y-78973592D01*
X190630131Y-78834520D01*
X190775121Y-78622320D01*
X190826130Y-78370430D01*
X190826130Y-76569570D01*
X190781852Y-76334253D01*
X190642780Y-76118129D01*
X190430580Y-75973139D01*
X190178690Y-75922130D01*
X188581030Y-75922130D01*
X188401390Y-75955932D01*
X188093979Y-75648521D01*
X187839307Y-75478355D01*
X187538900Y-75418600D01*
X185593405Y-75418600D01*
X185593400Y-75418599D01*
X185292994Y-75478355D01*
X185038321Y-75648521D01*
X184981528Y-75705314D01*
X184861890Y-75623569D01*
X184610000Y-75572560D01*
X182610000Y-75572560D01*
X182374683Y-75616838D01*
X182158559Y-75755910D01*
X182013569Y-75968110D01*
X181962560Y-76220000D01*
X181962560Y-78720000D01*
X182006838Y-78955317D01*
X182145910Y-79171441D01*
X182358110Y-79316431D01*
X182610000Y-79367440D01*
X184610000Y-79367440D01*
X184845317Y-79323162D01*
X184936117Y-79264734D01*
X184867055Y-79368093D01*
X184821292Y-79598157D01*
X184807300Y-79668500D01*
X184807300Y-89672542D01*
X181738337Y-92741505D01*
X181719341Y-92362951D01*
X181560742Y-91980059D01*
X181318764Y-91910841D01*
X180519605Y-92710000D01*
X180533748Y-92724143D01*
X180354143Y-92903748D01*
X180340000Y-92889605D01*
X180325858Y-92903748D01*
X180146253Y-92724143D01*
X180160395Y-92710000D01*
X180146253Y-92695858D01*
X180325858Y-92516253D01*
X180340000Y-92530395D01*
X181139159Y-91731236D01*
X181069941Y-91489258D01*
X180547220Y-91302845D01*
X179992951Y-91330659D01*
X179867700Y-91382540D01*
X179867700Y-83363758D01*
X181515479Y-81715979D01*
X181685645Y-81461306D01*
X181745400Y-81160900D01*
X181745400Y-74280405D01*
X181745401Y-74280400D01*
X181685645Y-73979994D01*
X181577877Y-73818707D01*
X181515479Y-73725321D01*
X181515476Y-73725319D01*
X180305128Y-72514971D01*
X180616265Y-72515242D01*
X181129172Y-72303313D01*
X181521934Y-71911236D01*
X181734758Y-71398700D01*
X181735242Y-70843735D01*
X181523313Y-70330828D01*
X181131236Y-69938066D01*
X180935066Y-69856609D01*
X181069941Y-69800742D01*
X181139159Y-69558764D01*
X180340000Y-68759605D01*
X179540841Y-69558764D01*
X179610059Y-69800742D01*
X179754862Y-69852382D01*
X179550828Y-69936687D01*
X179158066Y-70328764D01*
X179070046Y-70540738D01*
X178983313Y-70330828D01*
X178591236Y-69938066D01*
X178379262Y-69850046D01*
X178589172Y-69763313D01*
X178981934Y-69371236D01*
X179063391Y-69175066D01*
X179119258Y-69309941D01*
X179361236Y-69379159D01*
X180160395Y-68580000D01*
X180519605Y-68580000D01*
X181318764Y-69379159D01*
X181560742Y-69309941D01*
X181747155Y-68787220D01*
X181719341Y-68232951D01*
X181560742Y-67850059D01*
X181318764Y-67780841D01*
X180519605Y-68580000D01*
X180160395Y-68580000D01*
X179361236Y-67780841D01*
X179119258Y-67850059D01*
X179067618Y-67994862D01*
X178983313Y-67790828D01*
X178794052Y-67601236D01*
X179540841Y-67601236D01*
X180340000Y-68400395D01*
X181139159Y-67601236D01*
X181069941Y-67359258D01*
X180547220Y-67172845D01*
X179992951Y-67200659D01*
X179610059Y-67359258D01*
X179540841Y-67601236D01*
X178794052Y-67601236D01*
X178591236Y-67398066D01*
X178078700Y-67185242D01*
X177523735Y-67184758D01*
X177010828Y-67396687D01*
X176618066Y-67788764D01*
X176530046Y-68000738D01*
X176443313Y-67790828D01*
X176051236Y-67398066D01*
X175538700Y-67185242D01*
X174983735Y-67184758D01*
X174470828Y-67396687D01*
X174078066Y-67788764D01*
X173990046Y-68000738D01*
X173903313Y-67790828D01*
X173511236Y-67398066D01*
X172998700Y-67185242D01*
X172443735Y-67184758D01*
X171930828Y-67396687D01*
X171538066Y-67788764D01*
X171450046Y-68000738D01*
X171363313Y-67790828D01*
X170971236Y-67398066D01*
X170458700Y-67185242D01*
X169903735Y-67184758D01*
X169390828Y-67396687D01*
X168998066Y-67788764D01*
X168916609Y-67984934D01*
X168860742Y-67850059D01*
X168618764Y-67780841D01*
X167819605Y-68580000D01*
X168618764Y-69379159D01*
X168860742Y-69309941D01*
X168912382Y-69165138D01*
X168996687Y-69369172D01*
X169388764Y-69761934D01*
X169600738Y-69849954D01*
X169390828Y-69936687D01*
X168998066Y-70328764D01*
X168910046Y-70540738D01*
X168823313Y-70330828D01*
X168431236Y-69938066D01*
X168235066Y-69856609D01*
X168369941Y-69800742D01*
X168439159Y-69558764D01*
X167640000Y-68759605D01*
X166840841Y-69558764D01*
X166910059Y-69800742D01*
X167054862Y-69852382D01*
X166850828Y-69936687D01*
X166458066Y-70328764D01*
X166370046Y-70540738D01*
X166283313Y-70330828D01*
X165891236Y-69938066D01*
X165679262Y-69850046D01*
X165889172Y-69763313D01*
X166281934Y-69371236D01*
X166363391Y-69175066D01*
X166419258Y-69309941D01*
X166661236Y-69379159D01*
X167460395Y-68580000D01*
X166661236Y-67780841D01*
X166419258Y-67850059D01*
X166367618Y-67994862D01*
X166283313Y-67790828D01*
X166094052Y-67601236D01*
X166840841Y-67601236D01*
X167640000Y-68400395D01*
X168439159Y-67601236D01*
X168369941Y-67359258D01*
X167847220Y-67172845D01*
X167292951Y-67200659D01*
X166910059Y-67359258D01*
X166840841Y-67601236D01*
X166094052Y-67601236D01*
X165891236Y-67398066D01*
X165378700Y-67185242D01*
X164823735Y-67184758D01*
X164310828Y-67396687D01*
X163918066Y-67788764D01*
X163830046Y-68000738D01*
X163743313Y-67790828D01*
X163351236Y-67398066D01*
X162838700Y-67185242D01*
X162283735Y-67184758D01*
X161770828Y-67396687D01*
X161378066Y-67788764D01*
X161290046Y-68000738D01*
X161203313Y-67790828D01*
X160811236Y-67398066D01*
X160298700Y-67185242D01*
X159743735Y-67184758D01*
X159319523Y-67360039D01*
X159305079Y-67338421D01*
X158429353Y-66462695D01*
X158429362Y-66452533D01*
X158287317Y-66108757D01*
X158024527Y-65845508D01*
X157680999Y-65702862D01*
X157309033Y-65702538D01*
X156965257Y-65844583D01*
X156702008Y-66107373D01*
X156559362Y-66450901D01*
X156559038Y-66822867D01*
X156701083Y-67166643D01*
X156860671Y-67326509D01*
X156690828Y-67396687D01*
X156298066Y-67788764D01*
X156210046Y-68000738D01*
X156123313Y-67790828D01*
X155731236Y-67398066D01*
X155218700Y-67185242D01*
X154663735Y-67184758D01*
X154150828Y-67396687D01*
X153758066Y-67788764D01*
X153670046Y-68000738D01*
X153583313Y-67790828D01*
X153191236Y-67398066D01*
X152678700Y-67185242D01*
X152123735Y-67184758D01*
X151610828Y-67396687D01*
X151218066Y-67788764D01*
X151130046Y-68000738D01*
X151043313Y-67790828D01*
X150651236Y-67398066D01*
X150138700Y-67185242D01*
X149583735Y-67184758D01*
X149070828Y-67396687D01*
X148678066Y-67788764D01*
X148590046Y-68000738D01*
X148503313Y-67790828D01*
X148111236Y-67398066D01*
X147598700Y-67185242D01*
X147043735Y-67184758D01*
X146530828Y-67396687D01*
X146445612Y-67481755D01*
X145854279Y-66890421D01*
X145599607Y-66720255D01*
X145299200Y-66660500D01*
X131621200Y-66660500D01*
X131320793Y-66720255D01*
X131066121Y-66890421D01*
X130123500Y-67833042D01*
X130123500Y-66481706D01*
X130130692Y-66474527D01*
X130273338Y-66130999D01*
X130273662Y-65759033D01*
X130131617Y-65415257D01*
X129868827Y-65152008D01*
X129525299Y-65009362D01*
X129153333Y-65009038D01*
X128809557Y-65151083D01*
X128546308Y-65413873D01*
X128403662Y-65757401D01*
X128403338Y-66129367D01*
X128545383Y-66473143D01*
X128553500Y-66481274D01*
X128553500Y-94660094D01*
X128546308Y-94667273D01*
X128403662Y-95010801D01*
X128403338Y-95382767D01*
X128528818Y-95686453D01*
X128419708Y-95795373D01*
X128277062Y-96138901D01*
X128276738Y-96510867D01*
X128312306Y-96596948D01*
X127758300Y-96042942D01*
X127758300Y-65487006D01*
X127765492Y-65479827D01*
X127908138Y-65136299D01*
X127908346Y-64897000D01*
X194183000Y-64897000D01*
X194183000Y-100277394D01*
X194183000Y-100277394D01*
G37*
X194183000Y-100277394D02*
X179868200Y-114592194D01*
X179868200Y-100839900D01*
X180029400Y-100839900D01*
X180329807Y-100780145D01*
X180584479Y-100609979D01*
X187447979Y-93746479D01*
X187618145Y-93491806D01*
X187677900Y-93191400D01*
X187677900Y-81761606D01*
X187685092Y-81754427D01*
X187827738Y-81410899D01*
X187828062Y-81038933D01*
X187686017Y-80695157D01*
X187423227Y-80431908D01*
X187079699Y-80289262D01*
X186707733Y-80288938D01*
X186377300Y-80425470D01*
X186377300Y-79993658D01*
X187095179Y-79275779D01*
X187265345Y-79021106D01*
X187265989Y-79017870D01*
X187338970Y-79017870D01*
X187574287Y-78973592D01*
X187790411Y-78834520D01*
X187935401Y-78622320D01*
X187959030Y-78505634D01*
X187977868Y-78605747D01*
X188116940Y-78821871D01*
X188329140Y-78966861D01*
X188581030Y-79017870D01*
X190178690Y-79017870D01*
X190414007Y-78973592D01*
X190630131Y-78834520D01*
X190775121Y-78622320D01*
X190826130Y-78370430D01*
X190826130Y-76569570D01*
X190781852Y-76334253D01*
X190642780Y-76118129D01*
X190430580Y-75973139D01*
X190178690Y-75922130D01*
X188581030Y-75922130D01*
X188401390Y-75955932D01*
X188093979Y-75648521D01*
X187839307Y-75478355D01*
X187538900Y-75418600D01*
X185593405Y-75418600D01*
X185593400Y-75418599D01*
X185292994Y-75478355D01*
X185038321Y-75648521D01*
X184981528Y-75705314D01*
X184861890Y-75623569D01*
X184610000Y-75572560D01*
X182610000Y-75572560D01*
X182374683Y-75616838D01*
X182158559Y-75755910D01*
X182013569Y-75968110D01*
X181962560Y-76220000D01*
X181962560Y-78720000D01*
X182006838Y-78955317D01*
X182145910Y-79171441D01*
X182358110Y-79316431D01*
X182610000Y-79367440D01*
X184610000Y-79367440D01*
X184845317Y-79323162D01*
X184936117Y-79264734D01*
X184867055Y-79368093D01*
X184821292Y-79598157D01*
X184807300Y-79668500D01*
X184807300Y-89672542D01*
X181738337Y-92741505D01*
X181719341Y-92362951D01*
X181560742Y-91980059D01*
X181318764Y-91910841D01*
X180519605Y-92710000D01*
X180533748Y-92724143D01*
X180354143Y-92903748D01*
X180340000Y-92889605D01*
X180325858Y-92903748D01*
X180146253Y-92724143D01*
X180160395Y-92710000D01*
X180146253Y-92695858D01*
X180325858Y-92516253D01*
X180340000Y-92530395D01*
X181139159Y-91731236D01*
X181069941Y-91489258D01*
X180547220Y-91302845D01*
X179992951Y-91330659D01*
X179867700Y-91382540D01*
X179867700Y-83363758D01*
X181515479Y-81715979D01*
X181685645Y-81461306D01*
X181745400Y-81160900D01*
X181745400Y-74280405D01*
X181745401Y-74280400D01*
X181685645Y-73979994D01*
X181577877Y-73818707D01*
X181515479Y-73725321D01*
X181515476Y-73725319D01*
X180305128Y-72514971D01*
X180616265Y-72515242D01*
X181129172Y-72303313D01*
X181521934Y-71911236D01*
X181734758Y-71398700D01*
X181735242Y-70843735D01*
X181523313Y-70330828D01*
X181131236Y-69938066D01*
X180935066Y-69856609D01*
X181069941Y-69800742D01*
X181139159Y-69558764D01*
X180340000Y-68759605D01*
X179540841Y-69558764D01*
X179610059Y-69800742D01*
X179754862Y-69852382D01*
X179550828Y-69936687D01*
X179158066Y-70328764D01*
X179070046Y-70540738D01*
X178983313Y-70330828D01*
X178591236Y-69938066D01*
X178379262Y-69850046D01*
X178589172Y-69763313D01*
X178981934Y-69371236D01*
X179063391Y-69175066D01*
X179119258Y-69309941D01*
X179361236Y-69379159D01*
X180160395Y-68580000D01*
X180519605Y-68580000D01*
X181318764Y-69379159D01*
X181560742Y-69309941D01*
X181747155Y-68787220D01*
X181719341Y-68232951D01*
X181560742Y-67850059D01*
X181318764Y-67780841D01*
X180519605Y-68580000D01*
X180160395Y-68580000D01*
X179361236Y-67780841D01*
X179119258Y-67850059D01*
X179067618Y-67994862D01*
X178983313Y-67790828D01*
X178794052Y-67601236D01*
X179540841Y-67601236D01*
X180340000Y-68400395D01*
X181139159Y-67601236D01*
X181069941Y-67359258D01*
X180547220Y-67172845D01*
X179992951Y-67200659D01*
X179610059Y-67359258D01*
X179540841Y-67601236D01*
X178794052Y-67601236D01*
X178591236Y-67398066D01*
X178078700Y-67185242D01*
X177523735Y-67184758D01*
X177010828Y-67396687D01*
X176618066Y-67788764D01*
X176530046Y-68000738D01*
X176443313Y-67790828D01*
X176051236Y-67398066D01*
X175538700Y-67185242D01*
X174983735Y-67184758D01*
X174470828Y-67396687D01*
X174078066Y-67788764D01*
X173990046Y-68000738D01*
X173903313Y-67790828D01*
X173511236Y-67398066D01*
X172998700Y-67185242D01*
X172443735Y-67184758D01*
X171930828Y-67396687D01*
X171538066Y-67788764D01*
X171450046Y-68000738D01*
X171363313Y-67790828D01*
X170971236Y-67398066D01*
X170458700Y-67185242D01*
X169903735Y-67184758D01*
X169390828Y-67396687D01*
X168998066Y-67788764D01*
X168916609Y-67984934D01*
X168860742Y-67850059D01*
X168618764Y-67780841D01*
X167819605Y-68580000D01*
X168618764Y-69379159D01*
X168860742Y-69309941D01*
X168912382Y-69165138D01*
X168996687Y-69369172D01*
X169388764Y-69761934D01*
X169600738Y-69849954D01*
X169390828Y-69936687D01*
X168998066Y-70328764D01*
X168910046Y-70540738D01*
X168823313Y-70330828D01*
X168431236Y-69938066D01*
X168235066Y-69856609D01*
X168369941Y-69800742D01*
X168439159Y-69558764D01*
X167640000Y-68759605D01*
X166840841Y-69558764D01*
X166910059Y-69800742D01*
X167054862Y-69852382D01*
X166850828Y-69936687D01*
X166458066Y-70328764D01*
X166370046Y-70540738D01*
X166283313Y-70330828D01*
X165891236Y-69938066D01*
X165679262Y-69850046D01*
X165889172Y-69763313D01*
X166281934Y-69371236D01*
X166363391Y-69175066D01*
X166419258Y-69309941D01*
X166661236Y-69379159D01*
X167460395Y-68580000D01*
X166661236Y-67780841D01*
X166419258Y-67850059D01*
X166367618Y-67994862D01*
X166283313Y-67790828D01*
X166094052Y-67601236D01*
X166840841Y-67601236D01*
X167640000Y-68400395D01*
X168439159Y-67601236D01*
X168369941Y-67359258D01*
X167847220Y-67172845D01*
X167292951Y-67200659D01*
X166910059Y-67359258D01*
X166840841Y-67601236D01*
X166094052Y-67601236D01*
X165891236Y-67398066D01*
X165378700Y-67185242D01*
X164823735Y-67184758D01*
X164310828Y-67396687D01*
X163918066Y-67788764D01*
X163830046Y-68000738D01*
X163743313Y-67790828D01*
X163351236Y-67398066D01*
X162838700Y-67185242D01*
X162283735Y-67184758D01*
X161770828Y-67396687D01*
X161378066Y-67788764D01*
X161290046Y-68000738D01*
X161203313Y-67790828D01*
X160811236Y-67398066D01*
X160298700Y-67185242D01*
X159743735Y-67184758D01*
X159319523Y-67360039D01*
X159305079Y-67338421D01*
X158429353Y-66462695D01*
X158429362Y-66452533D01*
X158287317Y-66108757D01*
X158024527Y-65845508D01*
X157680999Y-65702862D01*
X157309033Y-65702538D01*
X156965257Y-65844583D01*
X156702008Y-66107373D01*
X156559362Y-66450901D01*
X156559038Y-66822867D01*
X156701083Y-67166643D01*
X156860671Y-67326509D01*
X156690828Y-67396687D01*
X156298066Y-67788764D01*
X156210046Y-68000738D01*
X156123313Y-67790828D01*
X155731236Y-67398066D01*
X155218700Y-67185242D01*
X154663735Y-67184758D01*
X154150828Y-67396687D01*
X153758066Y-67788764D01*
X153670046Y-68000738D01*
X153583313Y-67790828D01*
X153191236Y-67398066D01*
X152678700Y-67185242D01*
X152123735Y-67184758D01*
X151610828Y-67396687D01*
X151218066Y-67788764D01*
X151130046Y-68000738D01*
X151043313Y-67790828D01*
X150651236Y-67398066D01*
X150138700Y-67185242D01*
X149583735Y-67184758D01*
X149070828Y-67396687D01*
X148678066Y-67788764D01*
X148590046Y-68000738D01*
X148503313Y-67790828D01*
X148111236Y-67398066D01*
X147598700Y-67185242D01*
X147043735Y-67184758D01*
X146530828Y-67396687D01*
X146445612Y-67481755D01*
X145854279Y-66890421D01*
X145599607Y-66720255D01*
X145299200Y-66660500D01*
X131621200Y-66660500D01*
X131320793Y-66720255D01*
X131066121Y-66890421D01*
X130123500Y-67833042D01*
X130123500Y-66481706D01*
X130130692Y-66474527D01*
X130273338Y-66130999D01*
X130273662Y-65759033D01*
X130131617Y-65415257D01*
X129868827Y-65152008D01*
X129525299Y-65009362D01*
X129153333Y-65009038D01*
X128809557Y-65151083D01*
X128546308Y-65413873D01*
X128403662Y-65757401D01*
X128403338Y-66129367D01*
X128545383Y-66473143D01*
X128553500Y-66481274D01*
X128553500Y-94660094D01*
X128546308Y-94667273D01*
X128403662Y-95010801D01*
X128403338Y-95382767D01*
X128528818Y-95686453D01*
X128419708Y-95795373D01*
X128277062Y-96138901D01*
X128276738Y-96510867D01*
X128312306Y-96596948D01*
X127758300Y-96042942D01*
X127758300Y-65487006D01*
X127765492Y-65479827D01*
X127908138Y-65136299D01*
X127908346Y-64897000D01*
X194183000Y-64897000D01*
X194183000Y-100277394D01*
G36*
X167833748Y-92695858D02*
X167819605Y-92710000D01*
X167833748Y-92724143D01*
X167654143Y-92903748D01*
X167640000Y-92889605D01*
X167625858Y-92903748D01*
X167446253Y-92724143D01*
X167460395Y-92710000D01*
X167446253Y-92695858D01*
X167625858Y-92516253D01*
X167640000Y-92530395D01*
X167654143Y-92516253D01*
X167833748Y-92695858D01*
X167833748Y-92695858D01*
G37*
X167833748Y-92695858D02*
X167819605Y-92710000D01*
X167833748Y-92724143D01*
X167654143Y-92903748D01*
X167640000Y-92889605D01*
X167625858Y-92903748D01*
X167446253Y-92724143D01*
X167460395Y-92710000D01*
X167446253Y-92695858D01*
X167625858Y-92516253D01*
X167640000Y-92530395D01*
X167654143Y-92516253D01*
X167833748Y-92695858D01*
G36*
X167767000Y-83693000D02*
X167787000Y-83693000D01*
X167787000Y-83737436D01*
X167775000Y-83797764D01*
X167775000Y-83842236D01*
X167787000Y-83902564D01*
X167787000Y-83947000D01*
X167767000Y-83947000D01*
X167767000Y-84787954D01*
X167941874Y-84914119D01*
X168200209Y-84807127D01*
X168265696Y-84750549D01*
X168475654Y-84890839D01*
X168910000Y-84977236D01*
X169344346Y-84890839D01*
X169545000Y-84756766D01*
X169745654Y-84890839D01*
X170180000Y-84977236D01*
X170614346Y-84890839D01*
X170819600Y-84753693D01*
X170819600Y-85232242D01*
X167272221Y-88779621D01*
X167102055Y-89034293D01*
X167065768Y-89216721D01*
X167042300Y-89334700D01*
X167042300Y-89504694D01*
X167035108Y-89511873D01*
X166892462Y-89855401D01*
X166892196Y-90160338D01*
X166648299Y-90059062D01*
X166276333Y-90058738D01*
X165932557Y-90200783D01*
X165669308Y-90463573D01*
X165526662Y-90807101D01*
X165526338Y-91179067D01*
X165624834Y-91417446D01*
X165378700Y-91315242D01*
X164823735Y-91314758D01*
X164817495Y-91317337D01*
X160805000Y-87304842D01*
X160805000Y-84838276D01*
X160988126Y-84914119D01*
X161163000Y-84787954D01*
X161163000Y-83947000D01*
X161143000Y-83947000D01*
X161143000Y-83902564D01*
X161155000Y-83842236D01*
X161155000Y-83797764D01*
X161143000Y-83737436D01*
X161143000Y-83693000D01*
X161163000Y-83693000D01*
X161163000Y-83681974D01*
X161290000Y-83707236D01*
X161417000Y-83681974D01*
X161417000Y-83693000D01*
X161437000Y-83693000D01*
X161437000Y-83737436D01*
X161425000Y-83797764D01*
X161425000Y-83842236D01*
X161437000Y-83902564D01*
X161437000Y-83947000D01*
X161417000Y-83947000D01*
X161417000Y-84698269D01*
X161416862Y-84698601D01*
X161416538Y-85070567D01*
X161558583Y-85414343D01*
X161821373Y-85677592D01*
X162164901Y-85820238D01*
X162536867Y-85820562D01*
X162880643Y-85678517D01*
X162888774Y-85670400D01*
X165304600Y-85670400D01*
X165605007Y-85610645D01*
X165859679Y-85440479D01*
X166330733Y-84969425D01*
X166370000Y-84977236D01*
X166804346Y-84890839D01*
X167014304Y-84750549D01*
X167079791Y-84807127D01*
X167338126Y-84914119D01*
X167513000Y-84787954D01*
X167513000Y-83947000D01*
X167493000Y-83947000D01*
X167493000Y-83902564D01*
X167505000Y-83842236D01*
X167505000Y-83797764D01*
X167493000Y-83737436D01*
X167493000Y-83693000D01*
X167513000Y-83693000D01*
X167513000Y-83681974D01*
X167640000Y-83707236D01*
X167767000Y-83681974D01*
X167767000Y-83693000D01*
X167767000Y-83693000D01*
G37*
X167767000Y-83693000D02*
X167787000Y-83693000D01*
X167787000Y-83737436D01*
X167775000Y-83797764D01*
X167775000Y-83842236D01*
X167787000Y-83902564D01*
X167787000Y-83947000D01*
X167767000Y-83947000D01*
X167767000Y-84787954D01*
X167941874Y-84914119D01*
X168200209Y-84807127D01*
X168265696Y-84750549D01*
X168475654Y-84890839D01*
X168910000Y-84977236D01*
X169344346Y-84890839D01*
X169545000Y-84756766D01*
X169745654Y-84890839D01*
X170180000Y-84977236D01*
X170614346Y-84890839D01*
X170819600Y-84753693D01*
X170819600Y-85232242D01*
X167272221Y-88779621D01*
X167102055Y-89034293D01*
X167065768Y-89216721D01*
X167042300Y-89334700D01*
X167042300Y-89504694D01*
X167035108Y-89511873D01*
X166892462Y-89855401D01*
X166892196Y-90160338D01*
X166648299Y-90059062D01*
X166276333Y-90058738D01*
X165932557Y-90200783D01*
X165669308Y-90463573D01*
X165526662Y-90807101D01*
X165526338Y-91179067D01*
X165624834Y-91417446D01*
X165378700Y-91315242D01*
X164823735Y-91314758D01*
X164817495Y-91317337D01*
X160805000Y-87304842D01*
X160805000Y-84838276D01*
X160988126Y-84914119D01*
X161163000Y-84787954D01*
X161163000Y-83947000D01*
X161143000Y-83947000D01*
X161143000Y-83902564D01*
X161155000Y-83842236D01*
X161155000Y-83797764D01*
X161143000Y-83737436D01*
X161143000Y-83693000D01*
X161163000Y-83693000D01*
X161163000Y-83681974D01*
X161290000Y-83707236D01*
X161417000Y-83681974D01*
X161417000Y-83693000D01*
X161437000Y-83693000D01*
X161437000Y-83737436D01*
X161425000Y-83797764D01*
X161425000Y-83842236D01*
X161437000Y-83902564D01*
X161437000Y-83947000D01*
X161417000Y-83947000D01*
X161417000Y-84698269D01*
X161416862Y-84698601D01*
X161416538Y-85070567D01*
X161558583Y-85414343D01*
X161821373Y-85677592D01*
X162164901Y-85820238D01*
X162536867Y-85820562D01*
X162880643Y-85678517D01*
X162888774Y-85670400D01*
X165304600Y-85670400D01*
X165605007Y-85610645D01*
X165859679Y-85440479D01*
X166330733Y-84969425D01*
X166370000Y-84977236D01*
X166804346Y-84890839D01*
X167014304Y-84750549D01*
X167079791Y-84807127D01*
X167338126Y-84914119D01*
X167513000Y-84787954D01*
X167513000Y-83947000D01*
X167493000Y-83947000D01*
X167493000Y-83902564D01*
X167505000Y-83842236D01*
X167505000Y-83797764D01*
X167493000Y-83737436D01*
X167493000Y-83693000D01*
X167513000Y-83693000D01*
X167513000Y-83681974D01*
X167640000Y-83707236D01*
X167767000Y-83681974D01*
X167767000Y-83693000D01*
G36*
X170327000Y-82589084D02*
X170327000Y-82677000D01*
X170307000Y-82677000D01*
X170307000Y-82688026D01*
X170180000Y-82662764D01*
X170053000Y-82688026D01*
X170053000Y-82677000D01*
X170033000Y-82677000D01*
X170033000Y-82632564D01*
X170045000Y-82572236D01*
X170045000Y-82527764D01*
X170033132Y-82468100D01*
X170206227Y-82468100D01*
X170327000Y-82589084D01*
X170327000Y-82589084D01*
G37*
X170327000Y-82589084D02*
X170327000Y-82677000D01*
X170307000Y-82677000D01*
X170307000Y-82688026D01*
X170180000Y-82662764D01*
X170053000Y-82688026D01*
X170053000Y-82677000D01*
X170033000Y-82677000D01*
X170033000Y-82632564D01*
X170045000Y-82572236D01*
X170045000Y-82527764D01*
X170033132Y-82468100D01*
X170206227Y-82468100D01*
X170327000Y-82589084D01*
M02*
