G04 #@! TF.FileFunction,Legend,Bot*
%FSLAX46Y46*%
G04 Gerber Fmt 4.6, Leading zero omitted, Abs format (unit mm)*
G04 Created by KiCad (PCBNEW 4.0.2+dfsg1-stable) date Fri 01 Mar 2019 22:17:21 CET*
%MOMM*%
G01*
G04 APERTURE LIST*
%ADD10C,0.100000*%
%ADD11C,0.200000*%
%ADD12C,0.300000*%
%ADD13C,0.150000*%
%ADD14C,0.120000*%
%ADD15C,0.010000*%
G04 APERTURE END LIST*
D10*
D11*
X142398654Y-82550000D02*
G75*
G03X142398654Y-82550000I-209454J0D01*
G01*
D12*
X193718571Y-69692857D02*
X192718571Y-69692857D01*
X192218571Y-69692857D02*
X192290000Y-69621428D01*
X192361429Y-69692857D01*
X192290000Y-69764285D01*
X192218571Y-69692857D01*
X192361429Y-69692857D01*
X192718571Y-70407143D02*
X193718571Y-70407143D01*
X192861429Y-70407143D02*
X192790000Y-70478571D01*
X192718571Y-70621429D01*
X192718571Y-70835714D01*
X192790000Y-70978571D01*
X192932857Y-71050000D01*
X193718571Y-71050000D01*
X193718571Y-72907143D02*
X192718571Y-72907143D01*
X192861429Y-72907143D02*
X192790000Y-72978571D01*
X192718571Y-73121429D01*
X192718571Y-73335714D01*
X192790000Y-73478571D01*
X192932857Y-73550000D01*
X193718571Y-73550000D01*
X192932857Y-73550000D02*
X192790000Y-73621429D01*
X192718571Y-73764286D01*
X192718571Y-73978571D01*
X192790000Y-74121429D01*
X192932857Y-74192857D01*
X193718571Y-74192857D01*
X193647143Y-75478571D02*
X193718571Y-75335714D01*
X193718571Y-75050000D01*
X193647143Y-74907143D01*
X193504286Y-74835714D01*
X192932857Y-74835714D01*
X192790000Y-74907143D01*
X192718571Y-75050000D01*
X192718571Y-75335714D01*
X192790000Y-75478571D01*
X192932857Y-75550000D01*
X193075714Y-75550000D01*
X193218571Y-74835714D01*
X193718571Y-76192857D02*
X192718571Y-76192857D01*
X192861429Y-76192857D02*
X192790000Y-76264285D01*
X192718571Y-76407143D01*
X192718571Y-76621428D01*
X192790000Y-76764285D01*
X192932857Y-76835714D01*
X193718571Y-76835714D01*
X192932857Y-76835714D02*
X192790000Y-76907143D01*
X192718571Y-77050000D01*
X192718571Y-77264285D01*
X192790000Y-77407143D01*
X192932857Y-77478571D01*
X193718571Y-77478571D01*
X193718571Y-78407143D02*
X193647143Y-78264285D01*
X193575714Y-78192857D01*
X193432857Y-78121428D01*
X193004286Y-78121428D01*
X192861429Y-78192857D01*
X192790000Y-78264285D01*
X192718571Y-78407143D01*
X192718571Y-78621428D01*
X192790000Y-78764285D01*
X192861429Y-78835714D01*
X193004286Y-78907143D01*
X193432857Y-78907143D01*
X193575714Y-78835714D01*
X193647143Y-78764285D01*
X193718571Y-78621428D01*
X193718571Y-78407143D01*
X193718571Y-79550000D02*
X192718571Y-79550000D01*
X193004286Y-79550000D02*
X192861429Y-79621428D01*
X192790000Y-79692857D01*
X192718571Y-79835714D01*
X192718571Y-79978571D01*
X193718571Y-80478571D02*
X192718571Y-80478571D01*
X192218571Y-80478571D02*
X192290000Y-80407142D01*
X192361429Y-80478571D01*
X192290000Y-80549999D01*
X192218571Y-80478571D01*
X192361429Y-80478571D01*
X193718571Y-81835714D02*
X192932857Y-81835714D01*
X192790000Y-81764285D01*
X192718571Y-81621428D01*
X192718571Y-81335714D01*
X192790000Y-81192857D01*
X193647143Y-81835714D02*
X193718571Y-81692857D01*
X193718571Y-81335714D01*
X193647143Y-81192857D01*
X193504286Y-81121428D01*
X193361429Y-81121428D01*
X193218571Y-81192857D01*
X193147143Y-81335714D01*
X193147143Y-81692857D01*
X193075714Y-81835714D01*
X193718571Y-82550000D02*
X192718571Y-82550000D01*
X192861429Y-82550000D02*
X192790000Y-82621428D01*
X192718571Y-82764286D01*
X192718571Y-82978571D01*
X192790000Y-83121428D01*
X192932857Y-83192857D01*
X193718571Y-83192857D01*
X192932857Y-83192857D02*
X192790000Y-83264286D01*
X192718571Y-83407143D01*
X192718571Y-83621428D01*
X192790000Y-83764286D01*
X192932857Y-83835714D01*
X193718571Y-83835714D01*
X193290000Y-85621428D02*
X193290000Y-86335714D01*
X193718571Y-85478571D02*
X192218571Y-85978571D01*
X193718571Y-86478571D01*
X193575714Y-86978571D02*
X193647143Y-87049999D01*
X193718571Y-86978571D01*
X193647143Y-86907142D01*
X193575714Y-86978571D01*
X193718571Y-86978571D01*
X193647143Y-87621428D02*
X193718571Y-87835714D01*
X193718571Y-88192857D01*
X193647143Y-88335714D01*
X193575714Y-88407143D01*
X193432857Y-88478571D01*
X193290000Y-88478571D01*
X193147143Y-88407143D01*
X193075714Y-88335714D01*
X193004286Y-88192857D01*
X192932857Y-87907143D01*
X192861429Y-87764285D01*
X192790000Y-87692857D01*
X192647143Y-87621428D01*
X192504286Y-87621428D01*
X192361429Y-87692857D01*
X192290000Y-87764285D01*
X192218571Y-87907143D01*
X192218571Y-88264285D01*
X192290000Y-88478571D01*
X193575714Y-89121428D02*
X193647143Y-89192856D01*
X193718571Y-89121428D01*
X193647143Y-89049999D01*
X193575714Y-89121428D01*
X193718571Y-89121428D01*
X193147143Y-89835714D02*
X193147143Y-90978571D01*
X192290000Y-92478571D02*
X192218571Y-92335714D01*
X192218571Y-92121428D01*
X192290000Y-91907143D01*
X192432857Y-91764285D01*
X192575714Y-91692857D01*
X192861429Y-91621428D01*
X193075714Y-91621428D01*
X193361429Y-91692857D01*
X193504286Y-91764285D01*
X193647143Y-91907143D01*
X193718571Y-92121428D01*
X193718571Y-92264285D01*
X193647143Y-92478571D01*
X193575714Y-92550000D01*
X193075714Y-92550000D01*
X193075714Y-92264285D01*
X193575714Y-93192857D02*
X193647143Y-93264285D01*
X193718571Y-93192857D01*
X193647143Y-93121428D01*
X193575714Y-93192857D01*
X193718571Y-93192857D01*
X193718571Y-93907143D02*
X192218571Y-93907143D01*
X192218571Y-94264286D01*
X192290000Y-94478571D01*
X192432857Y-94621429D01*
X192575714Y-94692857D01*
X192861429Y-94764286D01*
X193075714Y-94764286D01*
X193361429Y-94692857D01*
X193504286Y-94621429D01*
X193647143Y-94478571D01*
X193718571Y-94264286D01*
X193718571Y-93907143D01*
X193575714Y-95407143D02*
X193647143Y-95478571D01*
X193718571Y-95407143D01*
X193647143Y-95335714D01*
X193575714Y-95407143D01*
X193718571Y-95407143D01*
X120328571Y-98745714D02*
X121828571Y-98745714D01*
X120400000Y-98745714D02*
X120328571Y-98602857D01*
X120328571Y-98317143D01*
X120400000Y-98174286D01*
X120471429Y-98102857D01*
X120614286Y-98031428D01*
X121042857Y-98031428D01*
X121185714Y-98102857D01*
X121257143Y-98174286D01*
X121328571Y-98317143D01*
X121328571Y-98602857D01*
X121257143Y-98745714D01*
X121328571Y-97174285D02*
X121257143Y-97317143D01*
X121185714Y-97388571D01*
X121042857Y-97460000D01*
X120614286Y-97460000D01*
X120471429Y-97388571D01*
X120400000Y-97317143D01*
X120328571Y-97174285D01*
X120328571Y-96960000D01*
X120400000Y-96817143D01*
X120471429Y-96745714D01*
X120614286Y-96674285D01*
X121042857Y-96674285D01*
X121185714Y-96745714D01*
X121257143Y-96817143D01*
X121328571Y-96960000D01*
X121328571Y-97174285D01*
X120328571Y-96174285D02*
X121328571Y-95888571D01*
X120614286Y-95602857D01*
X121328571Y-95317142D01*
X120328571Y-95031428D01*
X121257143Y-93888571D02*
X121328571Y-94031428D01*
X121328571Y-94317142D01*
X121257143Y-94459999D01*
X121114286Y-94531428D01*
X120542857Y-94531428D01*
X120400000Y-94459999D01*
X120328571Y-94317142D01*
X120328571Y-94031428D01*
X120400000Y-93888571D01*
X120542857Y-93817142D01*
X120685714Y-93817142D01*
X120828571Y-94531428D01*
X121328571Y-93174285D02*
X120328571Y-93174285D01*
X120614286Y-93174285D02*
X120471429Y-93102857D01*
X120400000Y-93031428D01*
X120328571Y-92888571D01*
X120328571Y-92745714D01*
X121257143Y-91674286D02*
X121328571Y-91817143D01*
X121328571Y-92102857D01*
X121257143Y-92245714D01*
X121114286Y-92317143D01*
X120542857Y-92317143D01*
X120400000Y-92245714D01*
X120328571Y-92102857D01*
X120328571Y-91817143D01*
X120400000Y-91674286D01*
X120542857Y-91602857D01*
X120685714Y-91602857D01*
X120828571Y-92317143D01*
X121328571Y-90317143D02*
X119828571Y-90317143D01*
X121257143Y-90317143D02*
X121328571Y-90460000D01*
X121328571Y-90745714D01*
X121257143Y-90888572D01*
X121185714Y-90960000D01*
X121042857Y-91031429D01*
X120614286Y-91031429D01*
X120471429Y-90960000D01*
X120400000Y-90888572D01*
X120328571Y-90745714D01*
X120328571Y-90460000D01*
X120400000Y-90317143D01*
X121328571Y-88460000D02*
X119828571Y-88460000D01*
X120400000Y-88460000D02*
X120328571Y-88317143D01*
X120328571Y-88031429D01*
X120400000Y-87888572D01*
X120471429Y-87817143D01*
X120614286Y-87745714D01*
X121042857Y-87745714D01*
X121185714Y-87817143D01*
X121257143Y-87888572D01*
X121328571Y-88031429D01*
X121328571Y-88317143D01*
X121257143Y-88460000D01*
X120328571Y-87245714D02*
X121328571Y-86888571D01*
X120328571Y-86531429D02*
X121328571Y-86888571D01*
X121685714Y-87031429D01*
X121757143Y-87102857D01*
X121828571Y-87245714D01*
D13*
X185810000Y-76420000D02*
X189410000Y-76420000D01*
X185810000Y-78520000D02*
X189410000Y-78520000D01*
X187860000Y-77770000D02*
X187860000Y-77170000D01*
X187860000Y-77170000D02*
X187560000Y-77470000D01*
X187560000Y-77470000D02*
X187760000Y-77670000D01*
X187760000Y-77670000D02*
X187760000Y-77420000D01*
X187760000Y-77420000D02*
X187710000Y-77470000D01*
X187460000Y-77970000D02*
X187460000Y-76970000D01*
X187960000Y-77470000D02*
X188460000Y-77470000D01*
X187460000Y-77470000D02*
X187960000Y-77970000D01*
X187960000Y-77970000D02*
X187960000Y-76970000D01*
X187960000Y-76970000D02*
X187460000Y-77470000D01*
X180610000Y-78945000D02*
X182610000Y-78945000D01*
X182610000Y-75995000D02*
X180610000Y-75995000D01*
D14*
X170875000Y-81420000D02*
X170875000Y-82242470D01*
X170875000Y-84127530D02*
X170875000Y-84950000D01*
X170875000Y-82857530D02*
X170875000Y-83512470D01*
X144270000Y-81420000D02*
X170875000Y-81420000D01*
X142815000Y-84950000D02*
X170875000Y-84950000D01*
X144270000Y-81420000D02*
X144270000Y-81986529D01*
X144270000Y-83113471D02*
X144270000Y-83256529D01*
X144216529Y-83310000D02*
X144073471Y-83310000D01*
X142946529Y-83310000D02*
X142815000Y-83310000D01*
X142815000Y-83310000D02*
X142815000Y-83512470D01*
X142815000Y-84127530D02*
X142815000Y-84950000D01*
X143510000Y-81420000D02*
X142750000Y-81420000D01*
X142750000Y-81420000D02*
X142750000Y-82550000D01*
D13*
X172470000Y-78740000D02*
X173020000Y-79190000D01*
X173020000Y-79190000D02*
X173020000Y-78290000D01*
X173020000Y-78290000D02*
X172470000Y-78740000D01*
X172470000Y-79290000D02*
X172470000Y-78190000D01*
X170920860Y-76989940D02*
X170920860Y-77340460D01*
X170920860Y-80490060D02*
X170920860Y-80139540D01*
X174970440Y-76989940D02*
X174970440Y-77340460D01*
X170469560Y-76989940D02*
X170469560Y-77340460D01*
X170469560Y-80490060D02*
X170469560Y-80139540D01*
X174970440Y-80490060D02*
X174970440Y-80139540D01*
X170469560Y-76989940D02*
X174970440Y-76989940D01*
X170469560Y-80490060D02*
X174970440Y-80490060D01*
D15*
G36*
X122442284Y-79511556D02*
X122530311Y-80057166D01*
X122690106Y-80520860D01*
X122723859Y-80586782D01*
X123101184Y-81121771D01*
X123608116Y-81602255D01*
X124206053Y-81993193D01*
X124356424Y-82068672D01*
X124609285Y-82183896D01*
X124819674Y-82260588D01*
X125033505Y-82306556D01*
X125296688Y-82329611D01*
X125655135Y-82337563D01*
X125941666Y-82338333D01*
X126388607Y-82335041D01*
X126710638Y-82320690D01*
X126952126Y-82288570D01*
X127157438Y-82231969D01*
X127370941Y-82144176D01*
X127441796Y-82111422D01*
X127990582Y-81779509D01*
X128492998Y-81336294D01*
X128895895Y-80831218D01*
X128993158Y-80668205D01*
X129113303Y-80427477D01*
X129189389Y-80202794D01*
X129233294Y-79939042D01*
X129256896Y-79581105D01*
X129262749Y-79417333D01*
X129260960Y-78874435D01*
X129218119Y-78472373D01*
X129173853Y-78306700D01*
X128879196Y-77723302D01*
X128482774Y-77261220D01*
X127999752Y-76931754D01*
X127445292Y-76746208D01*
X127028877Y-76708000D01*
X126746000Y-76708000D01*
X126746000Y-77935667D01*
X126748417Y-78423298D01*
X126757317Y-78765535D01*
X126775172Y-78986268D01*
X126804452Y-79109388D01*
X126847629Y-79158787D01*
X126873000Y-79163333D01*
X126946743Y-79124320D01*
X126986335Y-78986019D01*
X126999749Y-78716541D01*
X127000000Y-78655333D01*
X127000000Y-78147333D01*
X127613833Y-78147465D01*
X128168387Y-78192758D01*
X128584332Y-78327644D01*
X128858855Y-78551032D01*
X128923740Y-78655333D01*
X128981645Y-78855045D01*
X129020585Y-79149381D01*
X129030751Y-79383646D01*
X128977205Y-79863649D01*
X128801784Y-80241618D01*
X128486241Y-80548690D01*
X128266723Y-80687333D01*
X128131952Y-80758893D01*
X128000494Y-80812755D01*
X127845758Y-80851945D01*
X127641157Y-80879488D01*
X127360101Y-80898407D01*
X126976002Y-80911728D01*
X126462271Y-80922476D01*
X126153333Y-80927749D01*
X125417259Y-80934975D01*
X124827543Y-80927357D01*
X124361603Y-80901537D01*
X123996855Y-80854160D01*
X123710713Y-80781867D01*
X123480594Y-80681302D01*
X123283914Y-80549108D01*
X123214394Y-80490892D01*
X122907676Y-80143013D01*
X122735901Y-79739656D01*
X122682002Y-79240618D01*
X122681999Y-79236991D01*
X122759609Y-78731106D01*
X122989498Y-78294484D01*
X123367254Y-77932187D01*
X123888464Y-77649276D01*
X124147319Y-77555905D01*
X124362240Y-77465868D01*
X124443492Y-77360451D01*
X124443653Y-77283129D01*
X124413503Y-77194589D01*
X124331929Y-77143833D01*
X124161669Y-77121213D01*
X123865462Y-77117085D01*
X123803833Y-77117496D01*
X123493264Y-77120492D01*
X123250064Y-77123771D01*
X123123062Y-77126663D01*
X123119071Y-77126877D01*
X123038573Y-77203438D01*
X122922005Y-77398375D01*
X122788883Y-77670112D01*
X122658724Y-77977076D01*
X122551045Y-78277693D01*
X122507215Y-78430240D01*
X122432445Y-78947943D01*
X122442284Y-79511556D01*
X122442284Y-79511556D01*
G37*
X122442284Y-79511556D02*
X122530311Y-80057166D01*
X122690106Y-80520860D01*
X122723859Y-80586782D01*
X123101184Y-81121771D01*
X123608116Y-81602255D01*
X124206053Y-81993193D01*
X124356424Y-82068672D01*
X124609285Y-82183896D01*
X124819674Y-82260588D01*
X125033505Y-82306556D01*
X125296688Y-82329611D01*
X125655135Y-82337563D01*
X125941666Y-82338333D01*
X126388607Y-82335041D01*
X126710638Y-82320690D01*
X126952126Y-82288570D01*
X127157438Y-82231969D01*
X127370941Y-82144176D01*
X127441796Y-82111422D01*
X127990582Y-81779509D01*
X128492998Y-81336294D01*
X128895895Y-80831218D01*
X128993158Y-80668205D01*
X129113303Y-80427477D01*
X129189389Y-80202794D01*
X129233294Y-79939042D01*
X129256896Y-79581105D01*
X129262749Y-79417333D01*
X129260960Y-78874435D01*
X129218119Y-78472373D01*
X129173853Y-78306700D01*
X128879196Y-77723302D01*
X128482774Y-77261220D01*
X127999752Y-76931754D01*
X127445292Y-76746208D01*
X127028877Y-76708000D01*
X126746000Y-76708000D01*
X126746000Y-77935667D01*
X126748417Y-78423298D01*
X126757317Y-78765535D01*
X126775172Y-78986268D01*
X126804452Y-79109388D01*
X126847629Y-79158787D01*
X126873000Y-79163333D01*
X126946743Y-79124320D01*
X126986335Y-78986019D01*
X126999749Y-78716541D01*
X127000000Y-78655333D01*
X127000000Y-78147333D01*
X127613833Y-78147465D01*
X128168387Y-78192758D01*
X128584332Y-78327644D01*
X128858855Y-78551032D01*
X128923740Y-78655333D01*
X128981645Y-78855045D01*
X129020585Y-79149381D01*
X129030751Y-79383646D01*
X128977205Y-79863649D01*
X128801784Y-80241618D01*
X128486241Y-80548690D01*
X128266723Y-80687333D01*
X128131952Y-80758893D01*
X128000494Y-80812755D01*
X127845758Y-80851945D01*
X127641157Y-80879488D01*
X127360101Y-80898407D01*
X126976002Y-80911728D01*
X126462271Y-80922476D01*
X126153333Y-80927749D01*
X125417259Y-80934975D01*
X124827543Y-80927357D01*
X124361603Y-80901537D01*
X123996855Y-80854160D01*
X123710713Y-80781867D01*
X123480594Y-80681302D01*
X123283914Y-80549108D01*
X123214394Y-80490892D01*
X122907676Y-80143013D01*
X122735901Y-79739656D01*
X122682002Y-79240618D01*
X122681999Y-79236991D01*
X122759609Y-78731106D01*
X122989498Y-78294484D01*
X123367254Y-77932187D01*
X123888464Y-77649276D01*
X124147319Y-77555905D01*
X124362240Y-77465868D01*
X124443492Y-77360451D01*
X124443653Y-77283129D01*
X124413503Y-77194589D01*
X124331929Y-77143833D01*
X124161669Y-77121213D01*
X123865462Y-77117085D01*
X123803833Y-77117496D01*
X123493264Y-77120492D01*
X123250064Y-77123771D01*
X123123062Y-77126663D01*
X123119071Y-77126877D01*
X123038573Y-77203438D01*
X122922005Y-77398375D01*
X122788883Y-77670112D01*
X122658724Y-77977076D01*
X122551045Y-78277693D01*
X122507215Y-78430240D01*
X122432445Y-78947943D01*
X122442284Y-79511556D01*
G36*
X122474869Y-73899271D02*
X122560047Y-73962930D01*
X122713281Y-74045031D01*
X122947629Y-74150936D01*
X123276147Y-74286011D01*
X123711892Y-74455619D01*
X124267923Y-74665125D01*
X124957295Y-74919893D01*
X125793067Y-75225287D01*
X125814666Y-75233150D01*
X126527695Y-75492553D01*
X127189763Y-75733153D01*
X127784305Y-75948949D01*
X128294756Y-76133941D01*
X128704552Y-76282129D01*
X128997129Y-76387512D01*
X129155921Y-76444091D01*
X129180166Y-76452238D01*
X129197938Y-76383553D01*
X129200902Y-76305833D01*
X129160274Y-76226010D01*
X129025292Y-76134499D01*
X128775635Y-76021184D01*
X128390983Y-75875950D01*
X128206069Y-75810594D01*
X127211666Y-75463521D01*
X127211666Y-73299065D01*
X128206500Y-72950783D01*
X129201333Y-72602502D01*
X129201333Y-71649584D01*
X129197514Y-71224356D01*
X129183859Y-70942592D01*
X129157068Y-70778545D01*
X129113841Y-70706473D01*
X129079201Y-70696667D01*
X128985479Y-70772772D01*
X128934759Y-71005673D01*
X128931034Y-71049706D01*
X128911378Y-71237317D01*
X128862222Y-71357369D01*
X128746737Y-71444761D01*
X128528091Y-71534392D01*
X128354666Y-71595831D01*
X128136747Y-71672115D01*
X127783810Y-71795452D01*
X127320734Y-71957158D01*
X126851833Y-72120821D01*
X126851833Y-73485199D01*
X126877508Y-73566437D01*
X126898206Y-73782335D01*
X126911548Y-74098240D01*
X126915333Y-74410695D01*
X126915333Y-75330724D01*
X125603310Y-74855195D01*
X125166239Y-74694291D01*
X124791233Y-74551475D01*
X124504553Y-74437138D01*
X124332462Y-74361668D01*
X124294241Y-74337333D01*
X124370465Y-74299423D01*
X124575019Y-74221690D01*
X124874725Y-74115188D01*
X125236404Y-73990972D01*
X125626876Y-73860096D01*
X126012964Y-73733614D01*
X126361488Y-73622582D01*
X126639269Y-73538053D01*
X126813129Y-73491082D01*
X126851833Y-73485199D01*
X126851833Y-72120821D01*
X126772399Y-72148547D01*
X126163682Y-72360934D01*
X125519465Y-72585636D01*
X125264333Y-72674605D01*
X124636586Y-72893725D01*
X124055664Y-73096933D01*
X123542113Y-73277008D01*
X123116480Y-73426730D01*
X122799310Y-73538877D01*
X122611151Y-73606229D01*
X122571690Y-73620922D01*
X122452866Y-73746683D01*
X122444690Y-73848688D01*
X122474869Y-73899271D01*
X122474869Y-73899271D01*
G37*
X122474869Y-73899271D02*
X122560047Y-73962930D01*
X122713281Y-74045031D01*
X122947629Y-74150936D01*
X123276147Y-74286011D01*
X123711892Y-74455619D01*
X124267923Y-74665125D01*
X124957295Y-74919893D01*
X125793067Y-75225287D01*
X125814666Y-75233150D01*
X126527695Y-75492553D01*
X127189763Y-75733153D01*
X127784305Y-75948949D01*
X128294756Y-76133941D01*
X128704552Y-76282129D01*
X128997129Y-76387512D01*
X129155921Y-76444091D01*
X129180166Y-76452238D01*
X129197938Y-76383553D01*
X129200902Y-76305833D01*
X129160274Y-76226010D01*
X129025292Y-76134499D01*
X128775635Y-76021184D01*
X128390983Y-75875950D01*
X128206069Y-75810594D01*
X127211666Y-75463521D01*
X127211666Y-73299065D01*
X128206500Y-72950783D01*
X129201333Y-72602502D01*
X129201333Y-71649584D01*
X129197514Y-71224356D01*
X129183859Y-70942592D01*
X129157068Y-70778545D01*
X129113841Y-70706473D01*
X129079201Y-70696667D01*
X128985479Y-70772772D01*
X128934759Y-71005673D01*
X128931034Y-71049706D01*
X128911378Y-71237317D01*
X128862222Y-71357369D01*
X128746737Y-71444761D01*
X128528091Y-71534392D01*
X128354666Y-71595831D01*
X128136747Y-71672115D01*
X127783810Y-71795452D01*
X127320734Y-71957158D01*
X126851833Y-72120821D01*
X126851833Y-73485199D01*
X126877508Y-73566437D01*
X126898206Y-73782335D01*
X126911548Y-74098240D01*
X126915333Y-74410695D01*
X126915333Y-75330724D01*
X125603310Y-74855195D01*
X125166239Y-74694291D01*
X124791233Y-74551475D01*
X124504553Y-74437138D01*
X124332462Y-74361668D01*
X124294241Y-74337333D01*
X124370465Y-74299423D01*
X124575019Y-74221690D01*
X124874725Y-74115188D01*
X125236404Y-73990972D01*
X125626876Y-73860096D01*
X126012964Y-73733614D01*
X126361488Y-73622582D01*
X126639269Y-73538053D01*
X126813129Y-73491082D01*
X126851833Y-73485199D01*
X126851833Y-72120821D01*
X126772399Y-72148547D01*
X126163682Y-72360934D01*
X125519465Y-72585636D01*
X125264333Y-72674605D01*
X124636586Y-72893725D01*
X124055664Y-73096933D01*
X123542113Y-73277008D01*
X123116480Y-73426730D01*
X122799310Y-73538877D01*
X122611151Y-73606229D01*
X122571690Y-73620922D01*
X122452866Y-73746683D01*
X122444690Y-73848688D01*
X122474869Y-73899271D01*
G36*
X125751166Y-85194803D02*
X128905000Y-85217000D01*
X128930591Y-85661500D01*
X128962795Y-85944905D01*
X129022637Y-86083125D01*
X129078757Y-86106000D01*
X129122729Y-86081996D01*
X129155093Y-85995997D01*
X129177491Y-85827024D01*
X129191566Y-85554098D01*
X129198959Y-85156240D01*
X129201311Y-84612469D01*
X129201333Y-84539667D01*
X129199462Y-83977914D01*
X129192752Y-83564463D01*
X129179556Y-83278312D01*
X129158229Y-83098459D01*
X129127124Y-83003903D01*
X129084594Y-82973641D01*
X129078558Y-82973333D01*
X129001046Y-83025630D01*
X128953290Y-83199515D01*
X128930391Y-83460167D01*
X128905000Y-83947000D01*
X125878166Y-83969236D01*
X122851333Y-83991472D01*
X122851333Y-83482403D01*
X122841616Y-83187078D01*
X122807161Y-83028369D01*
X122740015Y-82974389D01*
X122724333Y-82973333D01*
X122671418Y-82997873D01*
X122635159Y-83088199D01*
X122612661Y-83269367D01*
X122601031Y-83566435D01*
X122597374Y-84004461D01*
X122597333Y-84072969D01*
X122597333Y-85172606D01*
X125751166Y-85194803D01*
X125751166Y-85194803D01*
G37*
X125751166Y-85194803D02*
X128905000Y-85217000D01*
X128930591Y-85661500D01*
X128962795Y-85944905D01*
X129022637Y-86083125D01*
X129078757Y-86106000D01*
X129122729Y-86081996D01*
X129155093Y-85995997D01*
X129177491Y-85827024D01*
X129191566Y-85554098D01*
X129198959Y-85156240D01*
X129201311Y-84612469D01*
X129201333Y-84539667D01*
X129199462Y-83977914D01*
X129192752Y-83564463D01*
X129179556Y-83278312D01*
X129158229Y-83098459D01*
X129127124Y-83003903D01*
X129084594Y-82973641D01*
X129078558Y-82973333D01*
X129001046Y-83025630D01*
X128953290Y-83199515D01*
X128930391Y-83460167D01*
X128905000Y-83947000D01*
X125878166Y-83969236D01*
X122851333Y-83991472D01*
X122851333Y-83482403D01*
X122841616Y-83187078D01*
X122807161Y-83028369D01*
X122740015Y-82974389D01*
X122724333Y-82973333D01*
X122671418Y-82997873D01*
X122635159Y-83088199D01*
X122612661Y-83269367D01*
X122601031Y-83566435D01*
X122597374Y-84004461D01*
X122597333Y-84072969D01*
X122597333Y-85172606D01*
X125751166Y-85194803D01*
G36*
X122615322Y-88239948D02*
X122639666Y-89019230D01*
X124731004Y-89700448D01*
X125295674Y-89885668D01*
X125806184Y-90055584D01*
X126240709Y-90202734D01*
X126577427Y-90319653D01*
X126794514Y-90398879D01*
X126869622Y-90431841D01*
X126804925Y-90468848D01*
X126598492Y-90547722D01*
X126270745Y-90661561D01*
X125842106Y-90803462D01*
X125332998Y-90966521D01*
X124763843Y-91143836D01*
X124757118Y-91145903D01*
X122597333Y-91809791D01*
X122597333Y-93113618D01*
X122600462Y-93631237D01*
X122610890Y-93998304D01*
X122630174Y-94233502D01*
X122659872Y-94355516D01*
X122701543Y-94383029D01*
X122703166Y-94382533D01*
X122771244Y-94279249D01*
X122819517Y-94042603D01*
X122834391Y-93867477D01*
X122859783Y-93387333D01*
X126030558Y-93387333D01*
X126846128Y-93387108D01*
X127508332Y-93385862D01*
X128033137Y-93382745D01*
X128436512Y-93376902D01*
X128734423Y-93367481D01*
X128942838Y-93353630D01*
X129077725Y-93334496D01*
X129155051Y-93309225D01*
X129190783Y-93276966D01*
X129200889Y-93236865D01*
X129201333Y-93218000D01*
X129196904Y-93173512D01*
X129172725Y-93137541D01*
X129112453Y-93109139D01*
X128999748Y-93087355D01*
X128818268Y-93071241D01*
X128551672Y-93059848D01*
X128183620Y-93052227D01*
X127697769Y-93047429D01*
X127077780Y-93044505D01*
X126307310Y-93042506D01*
X126174500Y-93042221D01*
X123147666Y-93035775D01*
X124671666Y-92541037D01*
X125301993Y-92337007D01*
X126019110Y-92105845D01*
X126751525Y-91870540D01*
X127427744Y-91654079D01*
X127703386Y-91566167D01*
X128234666Y-91395267D01*
X128624609Y-91264241D01*
X128893954Y-91163924D01*
X129063442Y-91085151D01*
X129153812Y-91018757D01*
X129185805Y-90955578D01*
X129185052Y-90911441D01*
X129160361Y-90859951D01*
X129091479Y-90802436D01*
X128963664Y-90733352D01*
X128762175Y-90647160D01*
X128472270Y-90538315D01*
X128079207Y-90401276D01*
X127568245Y-90230501D01*
X126924643Y-90020447D01*
X126157538Y-89773239D01*
X125477692Y-89554281D01*
X124849686Y-89350680D01*
X124291536Y-89168379D01*
X123821257Y-89013319D01*
X123456862Y-88891444D01*
X123216366Y-88808694D01*
X123117785Y-88771014D01*
X123116593Y-88770149D01*
X123188862Y-88761122D01*
X123411938Y-88752820D01*
X123767295Y-88745485D01*
X124236407Y-88739361D01*
X124800750Y-88734688D01*
X125441797Y-88731710D01*
X126139222Y-88730667D01*
X129201333Y-88730667D01*
X129201333Y-87630000D01*
X129198502Y-87171593D01*
X129188085Y-86857408D01*
X129167190Y-86662395D01*
X129132927Y-86561509D01*
X129082406Y-86529701D01*
X129074333Y-86529333D01*
X128997744Y-86571140D01*
X128958313Y-86717836D01*
X128947333Y-86995000D01*
X128947333Y-87460667D01*
X122590978Y-87460667D01*
X122615322Y-88239948D01*
X122615322Y-88239948D01*
G37*
X122615322Y-88239948D02*
X122639666Y-89019230D01*
X124731004Y-89700448D01*
X125295674Y-89885668D01*
X125806184Y-90055584D01*
X126240709Y-90202734D01*
X126577427Y-90319653D01*
X126794514Y-90398879D01*
X126869622Y-90431841D01*
X126804925Y-90468848D01*
X126598492Y-90547722D01*
X126270745Y-90661561D01*
X125842106Y-90803462D01*
X125332998Y-90966521D01*
X124763843Y-91143836D01*
X124757118Y-91145903D01*
X122597333Y-91809791D01*
X122597333Y-93113618D01*
X122600462Y-93631237D01*
X122610890Y-93998304D01*
X122630174Y-94233502D01*
X122659872Y-94355516D01*
X122701543Y-94383029D01*
X122703166Y-94382533D01*
X122771244Y-94279249D01*
X122819517Y-94042603D01*
X122834391Y-93867477D01*
X122859783Y-93387333D01*
X126030558Y-93387333D01*
X126846128Y-93387108D01*
X127508332Y-93385862D01*
X128033137Y-93382745D01*
X128436512Y-93376902D01*
X128734423Y-93367481D01*
X128942838Y-93353630D01*
X129077725Y-93334496D01*
X129155051Y-93309225D01*
X129190783Y-93276966D01*
X129200889Y-93236865D01*
X129201333Y-93218000D01*
X129196904Y-93173512D01*
X129172725Y-93137541D01*
X129112453Y-93109139D01*
X128999748Y-93087355D01*
X128818268Y-93071241D01*
X128551672Y-93059848D01*
X128183620Y-93052227D01*
X127697769Y-93047429D01*
X127077780Y-93044505D01*
X126307310Y-93042506D01*
X126174500Y-93042221D01*
X123147666Y-93035775D01*
X124671666Y-92541037D01*
X125301993Y-92337007D01*
X126019110Y-92105845D01*
X126751525Y-91870540D01*
X127427744Y-91654079D01*
X127703386Y-91566167D01*
X128234666Y-91395267D01*
X128624609Y-91264241D01*
X128893954Y-91163924D01*
X129063442Y-91085151D01*
X129153812Y-91018757D01*
X129185805Y-90955578D01*
X129185052Y-90911441D01*
X129160361Y-90859951D01*
X129091479Y-90802436D01*
X128963664Y-90733352D01*
X128762175Y-90647160D01*
X128472270Y-90538315D01*
X128079207Y-90401276D01*
X127568245Y-90230501D01*
X126924643Y-90020447D01*
X126157538Y-89773239D01*
X125477692Y-89554281D01*
X124849686Y-89350680D01*
X124291536Y-89168379D01*
X123821257Y-89013319D01*
X123456862Y-88891444D01*
X123216366Y-88808694D01*
X123117785Y-88771014D01*
X123116593Y-88770149D01*
X123188862Y-88761122D01*
X123411938Y-88752820D01*
X123767295Y-88745485D01*
X124236407Y-88739361D01*
X124800750Y-88734688D01*
X125441797Y-88731710D01*
X126139222Y-88730667D01*
X129201333Y-88730667D01*
X129201333Y-87630000D01*
X129198502Y-87171593D01*
X129188085Y-86857408D01*
X129167190Y-86662395D01*
X129132927Y-86561509D01*
X129082406Y-86529701D01*
X129074333Y-86529333D01*
X128997744Y-86571140D01*
X128958313Y-86717836D01*
X128947333Y-86995000D01*
X128947333Y-87460667D01*
X122590978Y-87460667D01*
X122615322Y-88239948D01*
G36*
X122440117Y-96946351D02*
X122444732Y-96969565D01*
X122471842Y-97021077D01*
X122548048Y-97082993D01*
X122687017Y-97160979D01*
X122902415Y-97260701D01*
X123207907Y-97387824D01*
X123617161Y-97548014D01*
X124143841Y-97746938D01*
X124801615Y-97990262D01*
X125604149Y-98283650D01*
X125687666Y-98314059D01*
X126533883Y-98622294D01*
X127234313Y-98877490D01*
X127802484Y-99083985D01*
X128251924Y-99246117D01*
X128596162Y-99368227D01*
X128848726Y-99454652D01*
X129023144Y-99509732D01*
X129132946Y-99537805D01*
X129191658Y-99543210D01*
X129212810Y-99530286D01*
X129209930Y-99503372D01*
X129196546Y-99466806D01*
X129187949Y-99436674D01*
X129109427Y-99342847D01*
X128898643Y-99223729D01*
X128543891Y-99073524D01*
X128185333Y-98940213D01*
X127211666Y-98591430D01*
X127164442Y-96457816D01*
X128182887Y-96090567D01*
X129201333Y-95723318D01*
X129201333Y-94766992D01*
X129197535Y-94340905D01*
X129183951Y-94058317D01*
X129157298Y-93893517D01*
X129114293Y-93820797D01*
X129079201Y-93810667D01*
X128986631Y-93884995D01*
X128935884Y-94113945D01*
X128931034Y-94170500D01*
X128905000Y-94530333D01*
X126851933Y-95245811D01*
X126851933Y-96604667D01*
X126877441Y-96683621D01*
X126898045Y-96897671D01*
X126911410Y-97212600D01*
X126915333Y-97533479D01*
X126915333Y-98462292D01*
X125962833Y-98117419D01*
X125547959Y-97967563D01*
X125153555Y-97825730D01*
X124828389Y-97709422D01*
X124643806Y-97644034D01*
X124442651Y-97556654D01*
X124344677Y-97479473D01*
X124347472Y-97451654D01*
X124445401Y-97406768D01*
X124669682Y-97322042D01*
X124985407Y-97209282D01*
X125357663Y-97080296D01*
X125751539Y-96946890D01*
X126132124Y-96820871D01*
X126464507Y-96714045D01*
X126713776Y-96638220D01*
X126845021Y-96605201D01*
X126851933Y-96604667D01*
X126851933Y-95245811D01*
X126788333Y-95267976D01*
X125840787Y-95598086D01*
X125040679Y-95876965D01*
X124375665Y-96109448D01*
X123833403Y-96300371D01*
X123401547Y-96454570D01*
X123067755Y-96576880D01*
X122819683Y-96672136D01*
X122644987Y-96745175D01*
X122531323Y-96800832D01*
X122466348Y-96843942D01*
X122437718Y-96879342D01*
X122433089Y-96911866D01*
X122440117Y-96946351D01*
X122440117Y-96946351D01*
G37*
X122440117Y-96946351D02*
X122444732Y-96969565D01*
X122471842Y-97021077D01*
X122548048Y-97082993D01*
X122687017Y-97160979D01*
X122902415Y-97260701D01*
X123207907Y-97387824D01*
X123617161Y-97548014D01*
X124143841Y-97746938D01*
X124801615Y-97990262D01*
X125604149Y-98283650D01*
X125687666Y-98314059D01*
X126533883Y-98622294D01*
X127234313Y-98877490D01*
X127802484Y-99083985D01*
X128251924Y-99246117D01*
X128596162Y-99368227D01*
X128848726Y-99454652D01*
X129023144Y-99509732D01*
X129132946Y-99537805D01*
X129191658Y-99543210D01*
X129212810Y-99530286D01*
X129209930Y-99503372D01*
X129196546Y-99466806D01*
X129187949Y-99436674D01*
X129109427Y-99342847D01*
X128898643Y-99223729D01*
X128543891Y-99073524D01*
X128185333Y-98940213D01*
X127211666Y-98591430D01*
X127164442Y-96457816D01*
X128182887Y-96090567D01*
X129201333Y-95723318D01*
X129201333Y-94766992D01*
X129197535Y-94340905D01*
X129183951Y-94058317D01*
X129157298Y-93893517D01*
X129114293Y-93820797D01*
X129079201Y-93810667D01*
X128986631Y-93884995D01*
X128935884Y-94113945D01*
X128931034Y-94170500D01*
X128905000Y-94530333D01*
X126851933Y-95245811D01*
X126851933Y-96604667D01*
X126877441Y-96683621D01*
X126898045Y-96897671D01*
X126911410Y-97212600D01*
X126915333Y-97533479D01*
X126915333Y-98462292D01*
X125962833Y-98117419D01*
X125547959Y-97967563D01*
X125153555Y-97825730D01*
X124828389Y-97709422D01*
X124643806Y-97644034D01*
X124442651Y-97556654D01*
X124344677Y-97479473D01*
X124347472Y-97451654D01*
X124445401Y-97406768D01*
X124669682Y-97322042D01*
X124985407Y-97209282D01*
X125357663Y-97080296D01*
X125751539Y-96946890D01*
X126132124Y-96820871D01*
X126464507Y-96714045D01*
X126713776Y-96638220D01*
X126845021Y-96605201D01*
X126851933Y-96604667D01*
X126851933Y-95245811D01*
X126788333Y-95267976D01*
X125840787Y-95598086D01*
X125040679Y-95876965D01*
X124375665Y-96109448D01*
X123833403Y-96300371D01*
X123401547Y-96454570D01*
X123067755Y-96576880D01*
X122819683Y-96672136D01*
X122644987Y-96745175D01*
X122531323Y-96800832D01*
X122466348Y-96843942D01*
X122437718Y-96879342D01*
X122433089Y-96911866D01*
X122440117Y-96946351D01*
G36*
X119658306Y-83969349D02*
X119721446Y-84178049D01*
X119808747Y-84454668D01*
X119905538Y-84753886D01*
X119997147Y-85030380D01*
X120068903Y-85238830D01*
X120106133Y-85333914D01*
X120107034Y-85335118D01*
X120196597Y-85329354D01*
X120402418Y-85285496D01*
X120679133Y-85215980D01*
X120981381Y-85133243D01*
X121263802Y-85049720D01*
X121481032Y-84977848D01*
X121587711Y-84930064D01*
X121589068Y-84928799D01*
X121589433Y-84830327D01*
X121547916Y-84609861D01*
X121472674Y-84307176D01*
X121431122Y-84158667D01*
X121334651Y-83833454D01*
X121253552Y-83575728D01*
X121200381Y-83424739D01*
X121189178Y-83402346D01*
X121103384Y-83412684D01*
X120900967Y-83463222D01*
X120625138Y-83540858D01*
X120319109Y-83632490D01*
X120026091Y-83725017D01*
X119789293Y-83805335D01*
X119651928Y-83860344D01*
X119634000Y-83873889D01*
X119658306Y-83969349D01*
X119658306Y-83969349D01*
G37*
X119658306Y-83969349D02*
X119721446Y-84178049D01*
X119808747Y-84454668D01*
X119905538Y-84753886D01*
X119997147Y-85030380D01*
X120068903Y-85238830D01*
X120106133Y-85333914D01*
X120107034Y-85335118D01*
X120196597Y-85329354D01*
X120402418Y-85285496D01*
X120679133Y-85215980D01*
X120981381Y-85133243D01*
X121263802Y-85049720D01*
X121481032Y-84977848D01*
X121587711Y-84930064D01*
X121589068Y-84928799D01*
X121589433Y-84830327D01*
X121547916Y-84609861D01*
X121472674Y-84307176D01*
X121431122Y-84158667D01*
X121334651Y-83833454D01*
X121253552Y-83575728D01*
X121200381Y-83424739D01*
X121189178Y-83402346D01*
X121103384Y-83412684D01*
X120900967Y-83463222D01*
X120625138Y-83540858D01*
X120319109Y-83632490D01*
X120026091Y-83725017D01*
X119789293Y-83805335D01*
X119651928Y-83860344D01*
X119634000Y-83873889D01*
X119658306Y-83969349D01*
G36*
X153632597Y-121351226D02*
X153609020Y-121390833D01*
X153502445Y-121487774D01*
X153451278Y-121496667D01*
X153393433Y-121531090D01*
X153356822Y-121652169D01*
X153337461Y-121886613D01*
X153331367Y-122261133D01*
X153331333Y-122301000D01*
X153335466Y-122646633D01*
X153346576Y-122917866D01*
X153362726Y-123077927D01*
X153373666Y-123105333D01*
X153392856Y-123027175D01*
X153407507Y-122818702D01*
X153415310Y-122518921D01*
X153416000Y-122390467D01*
X153420473Y-122034113D01*
X153439774Y-121806791D01*
X153482723Y-121668311D01*
X153558142Y-121578478D01*
X153601392Y-121545748D01*
X153714227Y-121430527D01*
X153716800Y-121350447D01*
X153632597Y-121351226D01*
X153632597Y-121351226D01*
G37*
X153632597Y-121351226D02*
X153609020Y-121390833D01*
X153502445Y-121487774D01*
X153451278Y-121496667D01*
X153393433Y-121531090D01*
X153356822Y-121652169D01*
X153337461Y-121886613D01*
X153331367Y-122261133D01*
X153331333Y-122301000D01*
X153335466Y-122646633D01*
X153346576Y-122917866D01*
X153362726Y-123077927D01*
X153373666Y-123105333D01*
X153392856Y-123027175D01*
X153407507Y-122818702D01*
X153415310Y-122518921D01*
X153416000Y-122390467D01*
X153420473Y-122034113D01*
X153439774Y-121806791D01*
X153482723Y-121668311D01*
X153558142Y-121578478D01*
X153601392Y-121545748D01*
X153714227Y-121430527D01*
X153716800Y-121350447D01*
X153632597Y-121351226D01*
G36*
X145137817Y-113397855D02*
X145105915Y-113440112D01*
X145078835Y-113506984D01*
X145056099Y-113612012D01*
X145037229Y-113768740D01*
X145021748Y-113990707D01*
X145009176Y-114291456D01*
X144999037Y-114684529D01*
X144990851Y-115183467D01*
X144984141Y-115801811D01*
X144978430Y-116553104D01*
X144973238Y-117450887D01*
X144969725Y-118159433D01*
X144965760Y-119343391D01*
X144965933Y-120358544D01*
X144970250Y-121205370D01*
X144978717Y-121884349D01*
X144991342Y-122395958D01*
X145008130Y-122740676D01*
X145029088Y-122918980D01*
X145036203Y-122940117D01*
X145061998Y-122978722D01*
X145104137Y-123010797D01*
X145177296Y-123036944D01*
X145296155Y-123057770D01*
X145475392Y-123073878D01*
X145729686Y-123085873D01*
X146073714Y-123094359D01*
X146522155Y-123099941D01*
X147089688Y-123103223D01*
X147790990Y-123104809D01*
X148640741Y-123105305D01*
X149048278Y-123105333D01*
X150003151Y-123104442D01*
X150801336Y-123101538D01*
X151455471Y-123096273D01*
X151978193Y-123088300D01*
X152382139Y-123077274D01*
X152679948Y-123062845D01*
X152884256Y-123044669D01*
X153007702Y-123022397D01*
X153062922Y-122995683D01*
X153063425Y-122995091D01*
X153107223Y-122864663D01*
X153145865Y-122610727D01*
X153173178Y-122279103D01*
X153179626Y-122132629D01*
X153204333Y-121380410D01*
X153633654Y-121163372D01*
X153938091Y-120961571D01*
X154258072Y-120673698D01*
X154544638Y-120350868D01*
X154748833Y-120044194D01*
X154789105Y-119957005D01*
X154878536Y-119829303D01*
X154937272Y-119803333D01*
X155010054Y-119733640D01*
X155021991Y-119655167D01*
X155009689Y-119595003D01*
X154965990Y-119599592D01*
X154875970Y-119684592D01*
X154724705Y-119865660D01*
X154497273Y-120158453D01*
X154319981Y-120391714D01*
X154133155Y-120614905D01*
X153969463Y-120769631D01*
X153875481Y-120819333D01*
X153766687Y-120855584D01*
X153754666Y-120883332D01*
X153683395Y-120965163D01*
X153516908Y-121051311D01*
X153326198Y-121113703D01*
X153182258Y-121124270D01*
X153163980Y-121116890D01*
X153085167Y-121032687D01*
X153139414Y-120943025D01*
X153340160Y-120831150D01*
X153422775Y-120794289D01*
X153646081Y-120665701D01*
X153891049Y-120477557D01*
X154116779Y-120267849D01*
X154282373Y-120074572D01*
X154346929Y-119935790D01*
X154399879Y-119821187D01*
X154510390Y-119681790D01*
X154658168Y-119460145D01*
X154731235Y-119274167D01*
X154755628Y-119112442D01*
X154688165Y-119050656D01*
X154526843Y-119041333D01*
X154344177Y-119021865D01*
X154282953Y-118939460D01*
X154284831Y-118850833D01*
X154256387Y-118694700D01*
X154135666Y-118648166D01*
X153955418Y-118633719D01*
X153885900Y-118627000D01*
X153864764Y-118573267D01*
X153907066Y-118516400D01*
X154001929Y-118376971D01*
X153966537Y-118305402D01*
X153853478Y-118317177D01*
X153709383Y-118303154D01*
X153597778Y-118145835D01*
X153533765Y-118028996D01*
X153446785Y-117965800D01*
X153292242Y-117943494D01*
X153025543Y-117949323D01*
X152927467Y-117954119D01*
X152614078Y-117958239D01*
X152415138Y-117935902D01*
X152357666Y-117898333D01*
X152427867Y-117840852D01*
X152541805Y-117837041D01*
X152711048Y-117820705D01*
X152779636Y-117773541D01*
X152898359Y-117704550D01*
X153026406Y-117686667D01*
X153222094Y-117607307D01*
X153239340Y-117581758D01*
X152701945Y-117581758D01*
X152618722Y-117595316D01*
X152508908Y-117579749D01*
X152507998Y-117559667D01*
X152400000Y-117559667D01*
X152357666Y-117602000D01*
X152315333Y-117559667D01*
X152357666Y-117517333D01*
X152400000Y-117559667D01*
X152507998Y-117559667D01*
X152507597Y-117550847D01*
X152620914Y-117530636D01*
X152669875Y-117544163D01*
X152701945Y-117581758D01*
X153239340Y-117581758D01*
X153325324Y-117454378D01*
X153377882Y-117306153D01*
X152092137Y-117306153D01*
X152088032Y-117414886D01*
X152005018Y-117421105D01*
X151937949Y-117353850D01*
X151945800Y-117244955D01*
X151966414Y-117227336D01*
X152057241Y-117249103D01*
X152092137Y-117306153D01*
X153377882Y-117306153D01*
X153380532Y-117298680D01*
X153352523Y-117182671D01*
X153218560Y-117045403D01*
X153151612Y-116988711D01*
X152911894Y-116842570D01*
X152650233Y-116762237D01*
X152420357Y-116756806D01*
X152275996Y-116835371D01*
X152273000Y-116840000D01*
X152158788Y-116900510D01*
X151966559Y-116924667D01*
X151801204Y-116937550D01*
X151735915Y-117009412D01*
X151734721Y-117190073D01*
X151738722Y-117240220D01*
X151798471Y-117496622D01*
X151940639Y-117642276D01*
X151960374Y-117652624D01*
X152085127Y-117730579D01*
X152062357Y-117783053D01*
X152023874Y-117800080D01*
X151946636Y-117875652D01*
X151905216Y-118049763D01*
X151892058Y-118355942D01*
X151892000Y-118385401D01*
X151887522Y-118663824D01*
X151856920Y-118853447D01*
X151774442Y-119010582D01*
X151614336Y-119191544D01*
X151447500Y-119357417D01*
X151204968Y-119586627D01*
X151022290Y-119720492D01*
X150843685Y-119787372D01*
X150613375Y-119815628D01*
X150537333Y-119820192D01*
X150071666Y-119845667D01*
X150048453Y-121263833D01*
X150025239Y-122682000D01*
X152654000Y-122682000D01*
X152654000Y-121882663D01*
X152661465Y-121531574D01*
X152681507Y-121248428D01*
X152710593Y-121073014D01*
X152729073Y-121036929D01*
X152830587Y-121031832D01*
X152895792Y-121169624D01*
X152925915Y-121457300D01*
X152922181Y-121901852D01*
X152913451Y-122089333D01*
X152865666Y-122978333D01*
X145245666Y-122978333D01*
X145223161Y-120628833D01*
X145213214Y-119897789D01*
X145198801Y-119290163D01*
X145180370Y-118815966D01*
X145158374Y-118485212D01*
X145133264Y-118307911D01*
X145117327Y-118279333D01*
X145090087Y-118196283D01*
X145067799Y-117953473D01*
X145050833Y-117560416D01*
X145039554Y-117026624D01*
X145034332Y-116361608D01*
X145034000Y-116122908D01*
X145034774Y-115457999D01*
X145038145Y-114940094D01*
X145045683Y-114546865D01*
X145058960Y-114255988D01*
X145079546Y-114045136D01*
X145109013Y-113891982D01*
X145148932Y-113774199D01*
X145200874Y-113669462D01*
X145207482Y-113657613D01*
X145312500Y-113432076D01*
X145327095Y-113307736D01*
X145255989Y-113302191D01*
X145137817Y-113397855D01*
X145137817Y-113397855D01*
G37*
X145137817Y-113397855D02*
X145105915Y-113440112D01*
X145078835Y-113506984D01*
X145056099Y-113612012D01*
X145037229Y-113768740D01*
X145021748Y-113990707D01*
X145009176Y-114291456D01*
X144999037Y-114684529D01*
X144990851Y-115183467D01*
X144984141Y-115801811D01*
X144978430Y-116553104D01*
X144973238Y-117450887D01*
X144969725Y-118159433D01*
X144965760Y-119343391D01*
X144965933Y-120358544D01*
X144970250Y-121205370D01*
X144978717Y-121884349D01*
X144991342Y-122395958D01*
X145008130Y-122740676D01*
X145029088Y-122918980D01*
X145036203Y-122940117D01*
X145061998Y-122978722D01*
X145104137Y-123010797D01*
X145177296Y-123036944D01*
X145296155Y-123057770D01*
X145475392Y-123073878D01*
X145729686Y-123085873D01*
X146073714Y-123094359D01*
X146522155Y-123099941D01*
X147089688Y-123103223D01*
X147790990Y-123104809D01*
X148640741Y-123105305D01*
X149048278Y-123105333D01*
X150003151Y-123104442D01*
X150801336Y-123101538D01*
X151455471Y-123096273D01*
X151978193Y-123088300D01*
X152382139Y-123077274D01*
X152679948Y-123062845D01*
X152884256Y-123044669D01*
X153007702Y-123022397D01*
X153062922Y-122995683D01*
X153063425Y-122995091D01*
X153107223Y-122864663D01*
X153145865Y-122610727D01*
X153173178Y-122279103D01*
X153179626Y-122132629D01*
X153204333Y-121380410D01*
X153633654Y-121163372D01*
X153938091Y-120961571D01*
X154258072Y-120673698D01*
X154544638Y-120350868D01*
X154748833Y-120044194D01*
X154789105Y-119957005D01*
X154878536Y-119829303D01*
X154937272Y-119803333D01*
X155010054Y-119733640D01*
X155021991Y-119655167D01*
X155009689Y-119595003D01*
X154965990Y-119599592D01*
X154875970Y-119684592D01*
X154724705Y-119865660D01*
X154497273Y-120158453D01*
X154319981Y-120391714D01*
X154133155Y-120614905D01*
X153969463Y-120769631D01*
X153875481Y-120819333D01*
X153766687Y-120855584D01*
X153754666Y-120883332D01*
X153683395Y-120965163D01*
X153516908Y-121051311D01*
X153326198Y-121113703D01*
X153182258Y-121124270D01*
X153163980Y-121116890D01*
X153085167Y-121032687D01*
X153139414Y-120943025D01*
X153340160Y-120831150D01*
X153422775Y-120794289D01*
X153646081Y-120665701D01*
X153891049Y-120477557D01*
X154116779Y-120267849D01*
X154282373Y-120074572D01*
X154346929Y-119935790D01*
X154399879Y-119821187D01*
X154510390Y-119681790D01*
X154658168Y-119460145D01*
X154731235Y-119274167D01*
X154755628Y-119112442D01*
X154688165Y-119050656D01*
X154526843Y-119041333D01*
X154344177Y-119021865D01*
X154282953Y-118939460D01*
X154284831Y-118850833D01*
X154256387Y-118694700D01*
X154135666Y-118648166D01*
X153955418Y-118633719D01*
X153885900Y-118627000D01*
X153864764Y-118573267D01*
X153907066Y-118516400D01*
X154001929Y-118376971D01*
X153966537Y-118305402D01*
X153853478Y-118317177D01*
X153709383Y-118303154D01*
X153597778Y-118145835D01*
X153533765Y-118028996D01*
X153446785Y-117965800D01*
X153292242Y-117943494D01*
X153025543Y-117949323D01*
X152927467Y-117954119D01*
X152614078Y-117958239D01*
X152415138Y-117935902D01*
X152357666Y-117898333D01*
X152427867Y-117840852D01*
X152541805Y-117837041D01*
X152711048Y-117820705D01*
X152779636Y-117773541D01*
X152898359Y-117704550D01*
X153026406Y-117686667D01*
X153222094Y-117607307D01*
X153239340Y-117581758D01*
X152701945Y-117581758D01*
X152618722Y-117595316D01*
X152508908Y-117579749D01*
X152507998Y-117559667D01*
X152400000Y-117559667D01*
X152357666Y-117602000D01*
X152315333Y-117559667D01*
X152357666Y-117517333D01*
X152400000Y-117559667D01*
X152507998Y-117559667D01*
X152507597Y-117550847D01*
X152620914Y-117530636D01*
X152669875Y-117544163D01*
X152701945Y-117581758D01*
X153239340Y-117581758D01*
X153325324Y-117454378D01*
X153377882Y-117306153D01*
X152092137Y-117306153D01*
X152088032Y-117414886D01*
X152005018Y-117421105D01*
X151937949Y-117353850D01*
X151945800Y-117244955D01*
X151966414Y-117227336D01*
X152057241Y-117249103D01*
X152092137Y-117306153D01*
X153377882Y-117306153D01*
X153380532Y-117298680D01*
X153352523Y-117182671D01*
X153218560Y-117045403D01*
X153151612Y-116988711D01*
X152911894Y-116842570D01*
X152650233Y-116762237D01*
X152420357Y-116756806D01*
X152275996Y-116835371D01*
X152273000Y-116840000D01*
X152158788Y-116900510D01*
X151966559Y-116924667D01*
X151801204Y-116937550D01*
X151735915Y-117009412D01*
X151734721Y-117190073D01*
X151738722Y-117240220D01*
X151798471Y-117496622D01*
X151940639Y-117642276D01*
X151960374Y-117652624D01*
X152085127Y-117730579D01*
X152062357Y-117783053D01*
X152023874Y-117800080D01*
X151946636Y-117875652D01*
X151905216Y-118049763D01*
X151892058Y-118355942D01*
X151892000Y-118385401D01*
X151887522Y-118663824D01*
X151856920Y-118853447D01*
X151774442Y-119010582D01*
X151614336Y-119191544D01*
X151447500Y-119357417D01*
X151204968Y-119586627D01*
X151022290Y-119720492D01*
X150843685Y-119787372D01*
X150613375Y-119815628D01*
X150537333Y-119820192D01*
X150071666Y-119845667D01*
X150048453Y-121263833D01*
X150025239Y-122682000D01*
X152654000Y-122682000D01*
X152654000Y-121882663D01*
X152661465Y-121531574D01*
X152681507Y-121248428D01*
X152710593Y-121073014D01*
X152729073Y-121036929D01*
X152830587Y-121031832D01*
X152895792Y-121169624D01*
X152925915Y-121457300D01*
X152922181Y-121901852D01*
X152913451Y-122089333D01*
X152865666Y-122978333D01*
X145245666Y-122978333D01*
X145223161Y-120628833D01*
X145213214Y-119897789D01*
X145198801Y-119290163D01*
X145180370Y-118815966D01*
X145158374Y-118485212D01*
X145133264Y-118307911D01*
X145117327Y-118279333D01*
X145090087Y-118196283D01*
X145067799Y-117953473D01*
X145050833Y-117560416D01*
X145039554Y-117026624D01*
X145034332Y-116361608D01*
X145034000Y-116122908D01*
X145034774Y-115457999D01*
X145038145Y-114940094D01*
X145045683Y-114546865D01*
X145058960Y-114255988D01*
X145079546Y-114045136D01*
X145109013Y-113891982D01*
X145148932Y-113774199D01*
X145200874Y-113669462D01*
X145207482Y-113657613D01*
X145312500Y-113432076D01*
X145327095Y-113307736D01*
X145255989Y-113302191D01*
X145137817Y-113397855D01*
G36*
X151824329Y-109862561D02*
X151718612Y-110003035D01*
X151601347Y-110275823D01*
X151561591Y-110382740D01*
X151404016Y-110813846D01*
X151720057Y-111122452D01*
X151919869Y-111302894D01*
X152086161Y-111390401D01*
X152294710Y-111412670D01*
X152493216Y-111405029D01*
X152950333Y-111379000D01*
X152975528Y-110800476D01*
X152993588Y-110498400D01*
X153020202Y-110338070D01*
X153063948Y-110291898D01*
X153123695Y-110324010D01*
X153193617Y-110467006D01*
X153235451Y-110717255D01*
X153248175Y-111014854D01*
X153230762Y-111299899D01*
X153182190Y-111512488D01*
X153145067Y-111573733D01*
X153006618Y-111629152D01*
X152749659Y-111665410D01*
X152493533Y-111675333D01*
X152175655Y-111666018D01*
X151968292Y-111627065D01*
X151813133Y-111541961D01*
X151712834Y-111454246D01*
X151482069Y-111233160D01*
X151160661Y-111475413D01*
X150938570Y-111644767D01*
X150756867Y-111786653D01*
X150709460Y-111824955D01*
X150284327Y-112166189D01*
X149964601Y-112397412D01*
X149735054Y-112527445D01*
X149580460Y-112565112D01*
X149494418Y-112528951D01*
X149342363Y-112438277D01*
X149228623Y-112465057D01*
X149204493Y-112595154D01*
X149207548Y-112608002D01*
X149203341Y-112732005D01*
X149094269Y-112838853D01*
X148899923Y-112939677D01*
X148590407Y-113098788D01*
X148278056Y-113285061D01*
X148226407Y-113319341D01*
X148019390Y-113450570D01*
X147868861Y-113528591D01*
X147834607Y-113538000D01*
X147727477Y-113595745D01*
X147659440Y-113664068D01*
X147533320Y-113742489D01*
X147428257Y-113710995D01*
X147405245Y-113638836D01*
X147469199Y-113559386D01*
X147628862Y-113430228D01*
X147701578Y-113378919D01*
X147865861Y-113232076D01*
X147973124Y-113073735D01*
X148009976Y-112942416D01*
X147963031Y-112876637D01*
X147871194Y-112890954D01*
X147754191Y-112869735D01*
X147594917Y-112773332D01*
X147443920Y-112643588D01*
X147351747Y-112522347D01*
X147352340Y-112461438D01*
X147451472Y-112462101D01*
X147623457Y-112521588D01*
X147797905Y-112608420D01*
X147904421Y-112691120D01*
X147912666Y-112712001D01*
X147982513Y-112767579D01*
X148154914Y-112766424D01*
X148374165Y-112712028D01*
X148459016Y-112677743D01*
X148674666Y-112579486D01*
X148674666Y-111280743D01*
X148671930Y-110770099D01*
X148662416Y-110406943D01*
X148644169Y-110169499D01*
X148615233Y-110035990D01*
X148573654Y-109984641D01*
X148558033Y-109982000D01*
X148410056Y-110041744D01*
X148334703Y-110110562D01*
X148188265Y-110232228D01*
X147969942Y-110361135D01*
X147938207Y-110376643D01*
X147766461Y-110486860D01*
X147609369Y-110662571D01*
X147439140Y-110939482D01*
X147314871Y-111177535D01*
X147164177Y-111489522D01*
X147048913Y-111751523D01*
X146987079Y-111921635D01*
X146981333Y-111953947D01*
X146918821Y-112088368D01*
X146761170Y-112273256D01*
X146553212Y-112463776D01*
X146339777Y-112615090D01*
X146296863Y-112638500D01*
X146163076Y-112750707D01*
X145972911Y-112964874D01*
X145761481Y-113240469D01*
X145701037Y-113326333D01*
X145292479Y-113919000D01*
X145290239Y-115967170D01*
X145292975Y-116649577D01*
X145302487Y-117211949D01*
X145318316Y-117642525D01*
X145340000Y-117929546D01*
X145367077Y-118061249D01*
X145372666Y-118067667D01*
X145399636Y-118168620D01*
X145421900Y-118428471D01*
X145439081Y-118836839D01*
X145450803Y-119383344D01*
X145456689Y-120057604D01*
X145457333Y-120400997D01*
X145457333Y-122682000D01*
X149771597Y-122682000D01*
X149794632Y-121094500D01*
X149817666Y-119507000D01*
X150452344Y-119481703D01*
X150796211Y-119460482D01*
X151022487Y-119420414D01*
X151182867Y-119346686D01*
X151320178Y-119233030D01*
X151553333Y-119009652D01*
X151550333Y-117522659D01*
X151545482Y-116933462D01*
X151532562Y-116491507D01*
X151509972Y-116174829D01*
X151476106Y-115961458D01*
X151429362Y-115829430D01*
X151426333Y-115824000D01*
X151352278Y-115584002D01*
X151311112Y-115183758D01*
X151302333Y-114837034D01*
X151303243Y-114469615D01*
X151317024Y-114227851D01*
X151355092Y-114068066D01*
X151428863Y-113946587D01*
X151480420Y-113892489D01*
X147399911Y-113892489D01*
X147334644Y-113938813D01*
X147204306Y-114021665D01*
X147023662Y-114174946D01*
X146981333Y-114215333D01*
X146755948Y-114408552D01*
X146567192Y-114522676D01*
X146441839Y-114547905D01*
X146406662Y-114474440D01*
X146421941Y-114420075D01*
X146466770Y-114285107D01*
X146473333Y-114250742D01*
X146542457Y-114219249D01*
X146600333Y-114215333D01*
X146713122Y-114178092D01*
X146727333Y-114146589D01*
X146789246Y-114056579D01*
X146942721Y-113919709D01*
X146989611Y-113883934D01*
X147179976Y-113764462D01*
X147298353Y-113755584D01*
X147349445Y-113793928D01*
X147399911Y-113892489D01*
X151480420Y-113892489D01*
X151549752Y-113819741D01*
X151574500Y-113795768D01*
X151808870Y-113577874D01*
X152123151Y-113297168D01*
X152475487Y-112989827D01*
X152824024Y-112692028D01*
X153126908Y-112439948D01*
X153325002Y-112282727D01*
X153585333Y-112085787D01*
X153585333Y-111170631D01*
X153583702Y-110766553D01*
X153573892Y-110497115D01*
X153548527Y-110327626D01*
X153500232Y-110223394D01*
X153421631Y-110149730D01*
X153359277Y-110107357D01*
X153165442Y-110012814D01*
X153014675Y-110035085D01*
X152982202Y-110053553D01*
X152831009Y-110100147D01*
X152779928Y-110064933D01*
X152663909Y-110000292D01*
X152525987Y-109982000D01*
X152290977Y-109945964D01*
X152105354Y-109882696D01*
X151944556Y-109830436D01*
X151824329Y-109862561D01*
X151824329Y-109862561D01*
G37*
X151824329Y-109862561D02*
X151718612Y-110003035D01*
X151601347Y-110275823D01*
X151561591Y-110382740D01*
X151404016Y-110813846D01*
X151720057Y-111122452D01*
X151919869Y-111302894D01*
X152086161Y-111390401D01*
X152294710Y-111412670D01*
X152493216Y-111405029D01*
X152950333Y-111379000D01*
X152975528Y-110800476D01*
X152993588Y-110498400D01*
X153020202Y-110338070D01*
X153063948Y-110291898D01*
X153123695Y-110324010D01*
X153193617Y-110467006D01*
X153235451Y-110717255D01*
X153248175Y-111014854D01*
X153230762Y-111299899D01*
X153182190Y-111512488D01*
X153145067Y-111573733D01*
X153006618Y-111629152D01*
X152749659Y-111665410D01*
X152493533Y-111675333D01*
X152175655Y-111666018D01*
X151968292Y-111627065D01*
X151813133Y-111541961D01*
X151712834Y-111454246D01*
X151482069Y-111233160D01*
X151160661Y-111475413D01*
X150938570Y-111644767D01*
X150756867Y-111786653D01*
X150709460Y-111824955D01*
X150284327Y-112166189D01*
X149964601Y-112397412D01*
X149735054Y-112527445D01*
X149580460Y-112565112D01*
X149494418Y-112528951D01*
X149342363Y-112438277D01*
X149228623Y-112465057D01*
X149204493Y-112595154D01*
X149207548Y-112608002D01*
X149203341Y-112732005D01*
X149094269Y-112838853D01*
X148899923Y-112939677D01*
X148590407Y-113098788D01*
X148278056Y-113285061D01*
X148226407Y-113319341D01*
X148019390Y-113450570D01*
X147868861Y-113528591D01*
X147834607Y-113538000D01*
X147727477Y-113595745D01*
X147659440Y-113664068D01*
X147533320Y-113742489D01*
X147428257Y-113710995D01*
X147405245Y-113638836D01*
X147469199Y-113559386D01*
X147628862Y-113430228D01*
X147701578Y-113378919D01*
X147865861Y-113232076D01*
X147973124Y-113073735D01*
X148009976Y-112942416D01*
X147963031Y-112876637D01*
X147871194Y-112890954D01*
X147754191Y-112869735D01*
X147594917Y-112773332D01*
X147443920Y-112643588D01*
X147351747Y-112522347D01*
X147352340Y-112461438D01*
X147451472Y-112462101D01*
X147623457Y-112521588D01*
X147797905Y-112608420D01*
X147904421Y-112691120D01*
X147912666Y-112712001D01*
X147982513Y-112767579D01*
X148154914Y-112766424D01*
X148374165Y-112712028D01*
X148459016Y-112677743D01*
X148674666Y-112579486D01*
X148674666Y-111280743D01*
X148671930Y-110770099D01*
X148662416Y-110406943D01*
X148644169Y-110169499D01*
X148615233Y-110035990D01*
X148573654Y-109984641D01*
X148558033Y-109982000D01*
X148410056Y-110041744D01*
X148334703Y-110110562D01*
X148188265Y-110232228D01*
X147969942Y-110361135D01*
X147938207Y-110376643D01*
X147766461Y-110486860D01*
X147609369Y-110662571D01*
X147439140Y-110939482D01*
X147314871Y-111177535D01*
X147164177Y-111489522D01*
X147048913Y-111751523D01*
X146987079Y-111921635D01*
X146981333Y-111953947D01*
X146918821Y-112088368D01*
X146761170Y-112273256D01*
X146553212Y-112463776D01*
X146339777Y-112615090D01*
X146296863Y-112638500D01*
X146163076Y-112750707D01*
X145972911Y-112964874D01*
X145761481Y-113240469D01*
X145701037Y-113326333D01*
X145292479Y-113919000D01*
X145290239Y-115967170D01*
X145292975Y-116649577D01*
X145302487Y-117211949D01*
X145318316Y-117642525D01*
X145340000Y-117929546D01*
X145367077Y-118061249D01*
X145372666Y-118067667D01*
X145399636Y-118168620D01*
X145421900Y-118428471D01*
X145439081Y-118836839D01*
X145450803Y-119383344D01*
X145456689Y-120057604D01*
X145457333Y-120400997D01*
X145457333Y-122682000D01*
X149771597Y-122682000D01*
X149794632Y-121094500D01*
X149817666Y-119507000D01*
X150452344Y-119481703D01*
X150796211Y-119460482D01*
X151022487Y-119420414D01*
X151182867Y-119346686D01*
X151320178Y-119233030D01*
X151553333Y-119009652D01*
X151550333Y-117522659D01*
X151545482Y-116933462D01*
X151532562Y-116491507D01*
X151509972Y-116174829D01*
X151476106Y-115961458D01*
X151429362Y-115829430D01*
X151426333Y-115824000D01*
X151352278Y-115584002D01*
X151311112Y-115183758D01*
X151302333Y-114837034D01*
X151303243Y-114469615D01*
X151317024Y-114227851D01*
X151355092Y-114068066D01*
X151428863Y-113946587D01*
X151480420Y-113892489D01*
X147399911Y-113892489D01*
X147334644Y-113938813D01*
X147204306Y-114021665D01*
X147023662Y-114174946D01*
X146981333Y-114215333D01*
X146755948Y-114408552D01*
X146567192Y-114522676D01*
X146441839Y-114547905D01*
X146406662Y-114474440D01*
X146421941Y-114420075D01*
X146466770Y-114285107D01*
X146473333Y-114250742D01*
X146542457Y-114219249D01*
X146600333Y-114215333D01*
X146713122Y-114178092D01*
X146727333Y-114146589D01*
X146789246Y-114056579D01*
X146942721Y-113919709D01*
X146989611Y-113883934D01*
X147179976Y-113764462D01*
X147298353Y-113755584D01*
X147349445Y-113793928D01*
X147399911Y-113892489D01*
X151480420Y-113892489D01*
X151549752Y-113819741D01*
X151574500Y-113795768D01*
X151808870Y-113577874D01*
X152123151Y-113297168D01*
X152475487Y-112989827D01*
X152824024Y-112692028D01*
X153126908Y-112439948D01*
X153325002Y-112282727D01*
X153585333Y-112085787D01*
X153585333Y-111170631D01*
X153583702Y-110766553D01*
X153573892Y-110497115D01*
X153548527Y-110327626D01*
X153500232Y-110223394D01*
X153421631Y-110149730D01*
X153359277Y-110107357D01*
X153165442Y-110012814D01*
X153014675Y-110035085D01*
X152982202Y-110053553D01*
X152831009Y-110100147D01*
X152779928Y-110064933D01*
X152663909Y-110000292D01*
X152525987Y-109982000D01*
X152290977Y-109945964D01*
X152105354Y-109882696D01*
X151944556Y-109830436D01*
X151824329Y-109862561D01*
G36*
X153841793Y-121307096D02*
X153839333Y-121327333D01*
X153903762Y-121409540D01*
X153924000Y-121412000D01*
X154006206Y-121347571D01*
X154008666Y-121327333D01*
X153944237Y-121245127D01*
X153924000Y-121242667D01*
X153841793Y-121307096D01*
X153841793Y-121307096D01*
G37*
X153841793Y-121307096D02*
X153839333Y-121327333D01*
X153903762Y-121409540D01*
X153924000Y-121412000D01*
X154006206Y-121347571D01*
X154008666Y-121327333D01*
X153944237Y-121245127D01*
X153924000Y-121242667D01*
X153841793Y-121307096D01*
G36*
X154825254Y-120329778D02*
X154804776Y-120349795D01*
X154706023Y-120475111D01*
X154686000Y-120528122D01*
X154629498Y-120616282D01*
X154485908Y-120773140D01*
X154389666Y-120867150D01*
X154216452Y-121039631D01*
X154109731Y-121163466D01*
X154093333Y-121194648D01*
X154140266Y-121242606D01*
X154264175Y-121169328D01*
X154409572Y-121023694D01*
X154568198Y-120889319D01*
X154692167Y-120865909D01*
X154697820Y-120868972D01*
X154757087Y-120880248D01*
X154736510Y-120832563D01*
X154730907Y-120713620D01*
X154794329Y-120569997D01*
X154887718Y-120463585D01*
X154972016Y-120456274D01*
X154973236Y-120457458D01*
X154999267Y-120446624D01*
X154978585Y-120374428D01*
X154917353Y-120278908D01*
X154825254Y-120329778D01*
X154825254Y-120329778D01*
G37*
X154825254Y-120329778D02*
X154804776Y-120349795D01*
X154706023Y-120475111D01*
X154686000Y-120528122D01*
X154629498Y-120616282D01*
X154485908Y-120773140D01*
X154389666Y-120867150D01*
X154216452Y-121039631D01*
X154109731Y-121163466D01*
X154093333Y-121194648D01*
X154140266Y-121242606D01*
X154264175Y-121169328D01*
X154409572Y-121023694D01*
X154568198Y-120889319D01*
X154692167Y-120865909D01*
X154697820Y-120868972D01*
X154757087Y-120880248D01*
X154736510Y-120832563D01*
X154730907Y-120713620D01*
X154794329Y-120569997D01*
X154887718Y-120463585D01*
X154972016Y-120456274D01*
X154973236Y-120457458D01*
X154999267Y-120446624D01*
X154978585Y-120374428D01*
X154917353Y-120278908D01*
X154825254Y-120329778D01*
G36*
X155067000Y-119942049D02*
X154954962Y-120025155D01*
X154940000Y-120066392D01*
X154996744Y-120137776D01*
X155111824Y-120107466D01*
X155137555Y-120085555D01*
X155193996Y-119973008D01*
X155124806Y-119928302D01*
X155067000Y-119942049D01*
X155067000Y-119942049D01*
G37*
X155067000Y-119942049D02*
X154954962Y-120025155D01*
X154940000Y-120066392D01*
X154996744Y-120137776D01*
X155111824Y-120107466D01*
X155137555Y-120085555D01*
X155193996Y-119973008D01*
X155124806Y-119928302D01*
X155067000Y-119942049D01*
G36*
X155222222Y-119662222D02*
X155212089Y-119762702D01*
X155222222Y-119775111D01*
X155272556Y-119763489D01*
X155278666Y-119718667D01*
X155247688Y-119648976D01*
X155222222Y-119662222D01*
X155222222Y-119662222D01*
G37*
X155222222Y-119662222D02*
X155212089Y-119762702D01*
X155222222Y-119775111D01*
X155272556Y-119763489D01*
X155278666Y-119718667D01*
X155247688Y-119648976D01*
X155222222Y-119662222D01*
G36*
X155391555Y-119492889D02*
X155403178Y-119543223D01*
X155448000Y-119549333D01*
X155517690Y-119518355D01*
X155504444Y-119492889D01*
X155403965Y-119482756D01*
X155391555Y-119492889D01*
X155391555Y-119492889D01*
G37*
X155391555Y-119492889D02*
X155403178Y-119543223D01*
X155448000Y-119549333D01*
X155517690Y-119518355D01*
X155504444Y-119492889D01*
X155403965Y-119482756D01*
X155391555Y-119492889D01*
G36*
X156186407Y-118840894D02*
X156040170Y-118954037D01*
X155868725Y-119110860D01*
X155716013Y-119270185D01*
X155625975Y-119390834D01*
X155617333Y-119418137D01*
X155666065Y-119461940D01*
X155808160Y-119372563D01*
X156030110Y-119161478D01*
X156185441Y-118980604D01*
X156263989Y-118848820D01*
X156263497Y-118812608D01*
X156186407Y-118840894D01*
X156186407Y-118840894D01*
G37*
X156186407Y-118840894D02*
X156040170Y-118954037D01*
X155868725Y-119110860D01*
X155716013Y-119270185D01*
X155625975Y-119390834D01*
X155617333Y-119418137D01*
X155666065Y-119461940D01*
X155808160Y-119372563D01*
X156030110Y-119161478D01*
X156185441Y-118980604D01*
X156263989Y-118848820D01*
X156263497Y-118812608D01*
X156186407Y-118840894D01*
G36*
X154918833Y-116808071D02*
X154634682Y-117094611D01*
X154400947Y-117341015D01*
X154240990Y-117521883D01*
X154178172Y-117611815D01*
X154178000Y-117613569D01*
X154248122Y-117676904D01*
X154326166Y-117689359D01*
X154428004Y-117700334D01*
X154392438Y-117752874D01*
X154326166Y-117804526D01*
X154205785Y-117984331D01*
X154207223Y-118204660D01*
X154308726Y-118416251D01*
X154488543Y-118569842D01*
X154685370Y-118618000D01*
X154879070Y-118654809D01*
X155022635Y-118741969D01*
X155075272Y-118844581D01*
X155028778Y-118911792D01*
X154938608Y-119013625D01*
X154989427Y-119081805D01*
X155144058Y-119078011D01*
X155310686Y-119071116D01*
X155376892Y-119171656D01*
X155420050Y-119220551D01*
X155523294Y-119165491D01*
X155704974Y-118994320D01*
X155807833Y-118886219D01*
X156009950Y-118651468D01*
X156154352Y-118448459D01*
X156209996Y-118320871D01*
X156210000Y-118320297D01*
X156169848Y-118229884D01*
X156125333Y-118237000D01*
X156045185Y-118360400D01*
X156040666Y-118398208D01*
X155966699Y-118576027D01*
X155787377Y-118707025D01*
X155566571Y-118750447D01*
X155503762Y-118740805D01*
X155281802Y-118649104D01*
X155155073Y-118526970D01*
X155150192Y-118407558D01*
X155198853Y-118361001D01*
X155315581Y-118348523D01*
X155381180Y-118452120D01*
X155454754Y-118584306D01*
X155546093Y-118591262D01*
X155673776Y-118463443D01*
X155841060Y-118215833D01*
X155903163Y-118110000D01*
X155532666Y-118110000D01*
X155503780Y-118192465D01*
X155495330Y-118194667D01*
X155423044Y-118135338D01*
X155405666Y-118110000D01*
X155412379Y-118031981D01*
X155443003Y-118025333D01*
X155529221Y-118086794D01*
X155532666Y-118110000D01*
X155903163Y-118110000D01*
X156031385Y-117891492D01*
X155322655Y-117891492D01*
X155237773Y-117891400D01*
X155197519Y-117881452D01*
X155034691Y-117812378D01*
X154976017Y-117761113D01*
X154979473Y-117694846D01*
X155074702Y-117692665D01*
X155200915Y-117745181D01*
X155273138Y-117807005D01*
X155322655Y-117891492D01*
X156031385Y-117891492D01*
X156155147Y-117680586D01*
X156194390Y-117602000D01*
X154855333Y-117602000D01*
X154786757Y-117677114D01*
X154728333Y-117686667D01*
X154615661Y-117640949D01*
X154601333Y-117602000D01*
X154669910Y-117526885D01*
X154728333Y-117517333D01*
X154841005Y-117563051D01*
X154855333Y-117602000D01*
X156194390Y-117602000D01*
X156396360Y-117197549D01*
X156554476Y-116790491D01*
X156619273Y-116483184D01*
X156618466Y-116408044D01*
X156595261Y-116243244D01*
X156536800Y-116155222D01*
X156398979Y-116116249D01*
X156137691Y-116098595D01*
X156125333Y-116098002D01*
X155659666Y-116075671D01*
X154918833Y-116808071D01*
X154918833Y-116808071D01*
G37*
X154918833Y-116808071D02*
X154634682Y-117094611D01*
X154400947Y-117341015D01*
X154240990Y-117521883D01*
X154178172Y-117611815D01*
X154178000Y-117613569D01*
X154248122Y-117676904D01*
X154326166Y-117689359D01*
X154428004Y-117700334D01*
X154392438Y-117752874D01*
X154326166Y-117804526D01*
X154205785Y-117984331D01*
X154207223Y-118204660D01*
X154308726Y-118416251D01*
X154488543Y-118569842D01*
X154685370Y-118618000D01*
X154879070Y-118654809D01*
X155022635Y-118741969D01*
X155075272Y-118844581D01*
X155028778Y-118911792D01*
X154938608Y-119013625D01*
X154989427Y-119081805D01*
X155144058Y-119078011D01*
X155310686Y-119071116D01*
X155376892Y-119171656D01*
X155420050Y-119220551D01*
X155523294Y-119165491D01*
X155704974Y-118994320D01*
X155807833Y-118886219D01*
X156009950Y-118651468D01*
X156154352Y-118448459D01*
X156209996Y-118320871D01*
X156210000Y-118320297D01*
X156169848Y-118229884D01*
X156125333Y-118237000D01*
X156045185Y-118360400D01*
X156040666Y-118398208D01*
X155966699Y-118576027D01*
X155787377Y-118707025D01*
X155566571Y-118750447D01*
X155503762Y-118740805D01*
X155281802Y-118649104D01*
X155155073Y-118526970D01*
X155150192Y-118407558D01*
X155198853Y-118361001D01*
X155315581Y-118348523D01*
X155381180Y-118452120D01*
X155454754Y-118584306D01*
X155546093Y-118591262D01*
X155673776Y-118463443D01*
X155841060Y-118215833D01*
X155903163Y-118110000D01*
X155532666Y-118110000D01*
X155503780Y-118192465D01*
X155495330Y-118194667D01*
X155423044Y-118135338D01*
X155405666Y-118110000D01*
X155412379Y-118031981D01*
X155443003Y-118025333D01*
X155529221Y-118086794D01*
X155532666Y-118110000D01*
X155903163Y-118110000D01*
X156031385Y-117891492D01*
X155322655Y-117891492D01*
X155237773Y-117891400D01*
X155197519Y-117881452D01*
X155034691Y-117812378D01*
X154976017Y-117761113D01*
X154979473Y-117694846D01*
X155074702Y-117692665D01*
X155200915Y-117745181D01*
X155273138Y-117807005D01*
X155322655Y-117891492D01*
X156031385Y-117891492D01*
X156155147Y-117680586D01*
X156194390Y-117602000D01*
X154855333Y-117602000D01*
X154786757Y-117677114D01*
X154728333Y-117686667D01*
X154615661Y-117640949D01*
X154601333Y-117602000D01*
X154669910Y-117526885D01*
X154728333Y-117517333D01*
X154841005Y-117563051D01*
X154855333Y-117602000D01*
X156194390Y-117602000D01*
X156396360Y-117197549D01*
X156554476Y-116790491D01*
X156619273Y-116483184D01*
X156618466Y-116408044D01*
X156595261Y-116243244D01*
X156536800Y-116155222D01*
X156398979Y-116116249D01*
X156137691Y-116098595D01*
X156125333Y-116098002D01*
X155659666Y-116075671D01*
X154918833Y-116808071D01*
G36*
X156297127Y-118597762D02*
X156294666Y-118618000D01*
X156359096Y-118700206D01*
X156379333Y-118702667D01*
X156461540Y-118638237D01*
X156464000Y-118618000D01*
X156399571Y-118535793D01*
X156379333Y-118533333D01*
X156297127Y-118597762D01*
X156297127Y-118597762D01*
G37*
X156297127Y-118597762D02*
X156294666Y-118618000D01*
X156359096Y-118700206D01*
X156379333Y-118702667D01*
X156461540Y-118638237D01*
X156464000Y-118618000D01*
X156399571Y-118535793D01*
X156379333Y-118533333D01*
X156297127Y-118597762D01*
G36*
X156818731Y-116978450D02*
X156699969Y-117158988D01*
X156546229Y-117466815D01*
X156543357Y-117473141D01*
X156395341Y-117810906D01*
X156319236Y-118024607D01*
X156310797Y-118141425D01*
X156365783Y-118188540D01*
X156430725Y-118194667D01*
X156527144Y-118246278D01*
X156525011Y-118303524D01*
X156554618Y-118394473D01*
X156636736Y-118412381D01*
X156744244Y-118381917D01*
X156746828Y-118342148D01*
X156758054Y-118228183D01*
X156812545Y-118140431D01*
X156846788Y-118074722D01*
X156718000Y-118074722D01*
X156668646Y-118167440D01*
X156567096Y-118152656D01*
X156483403Y-118041208D01*
X156520252Y-117954842D01*
X156583944Y-117940667D01*
X156700576Y-118008836D01*
X156718000Y-118074722D01*
X156846788Y-118074722D01*
X156874366Y-118021805D01*
X156789682Y-117935207D01*
X156777500Y-117928266D01*
X156670708Y-117819013D01*
X156632605Y-117689245D01*
X156677782Y-117607155D01*
X156707701Y-117602000D01*
X156772635Y-117528217D01*
X156845563Y-117343505D01*
X156868032Y-117263333D01*
X156912474Y-117024347D01*
X156892803Y-116931478D01*
X156818731Y-116978450D01*
X156818731Y-116978450D01*
G37*
X156818731Y-116978450D02*
X156699969Y-117158988D01*
X156546229Y-117466815D01*
X156543357Y-117473141D01*
X156395341Y-117810906D01*
X156319236Y-118024607D01*
X156310797Y-118141425D01*
X156365783Y-118188540D01*
X156430725Y-118194667D01*
X156527144Y-118246278D01*
X156525011Y-118303524D01*
X156554618Y-118394473D01*
X156636736Y-118412381D01*
X156744244Y-118381917D01*
X156746828Y-118342148D01*
X156758054Y-118228183D01*
X156812545Y-118140431D01*
X156846788Y-118074722D01*
X156718000Y-118074722D01*
X156668646Y-118167440D01*
X156567096Y-118152656D01*
X156483403Y-118041208D01*
X156520252Y-117954842D01*
X156583944Y-117940667D01*
X156700576Y-118008836D01*
X156718000Y-118074722D01*
X156846788Y-118074722D01*
X156874366Y-118021805D01*
X156789682Y-117935207D01*
X156777500Y-117928266D01*
X156670708Y-117819013D01*
X156632605Y-117689245D01*
X156677782Y-117607155D01*
X156707701Y-117602000D01*
X156772635Y-117528217D01*
X156845563Y-117343505D01*
X156868032Y-117263333D01*
X156912474Y-117024347D01*
X156892803Y-116931478D01*
X156818731Y-116978450D01*
G36*
X156972041Y-117483857D02*
X156972000Y-117493344D01*
X156933302Y-117650957D01*
X156878049Y-117703872D01*
X156856289Y-117770314D01*
X156936635Y-117859094D01*
X157035754Y-117924754D01*
X157023297Y-117873458D01*
X157015675Y-117725094D01*
X157062723Y-117637036D01*
X157123579Y-117502864D01*
X157070012Y-117412145D01*
X156994268Y-117373147D01*
X156972041Y-117483857D01*
X156972041Y-117483857D01*
G37*
X156972041Y-117483857D02*
X156972000Y-117493344D01*
X156933302Y-117650957D01*
X156878049Y-117703872D01*
X156856289Y-117770314D01*
X156936635Y-117859094D01*
X157035754Y-117924754D01*
X157023297Y-117873458D01*
X157015675Y-117725094D01*
X157062723Y-117637036D01*
X157123579Y-117502864D01*
X157070012Y-117412145D01*
X156994268Y-117373147D01*
X156972041Y-117483857D01*
G36*
X153039417Y-116079934D02*
X152712940Y-116097757D01*
X152473159Y-116126197D01*
X152356613Y-116165469D01*
X152353427Y-116169527D01*
X152237828Y-116221358D01*
X152094430Y-116210247D01*
X151944373Y-116197444D01*
X151894893Y-116294917D01*
X151892000Y-116372720D01*
X151945186Y-116542388D01*
X152083780Y-116583777D01*
X152276332Y-116491159D01*
X152323766Y-116451369D01*
X152487258Y-116365621D01*
X152683738Y-116392670D01*
X152934035Y-116541010D01*
X153258979Y-116819137D01*
X153284541Y-116843196D01*
X153712333Y-117247709D01*
X154243443Y-116768688D01*
X154486270Y-116537674D01*
X154670276Y-116339744D01*
X154765662Y-116207837D01*
X154772610Y-116183833D01*
X154693312Y-116142497D01*
X154481467Y-116110480D01*
X154173614Y-116088000D01*
X153806295Y-116075271D01*
X153416049Y-116072510D01*
X153039417Y-116079934D01*
X153039417Y-116079934D01*
G37*
X153039417Y-116079934D02*
X152712940Y-116097757D01*
X152473159Y-116126197D01*
X152356613Y-116165469D01*
X152353427Y-116169527D01*
X152237828Y-116221358D01*
X152094430Y-116210247D01*
X151944373Y-116197444D01*
X151894893Y-116294917D01*
X151892000Y-116372720D01*
X151945186Y-116542388D01*
X152083780Y-116583777D01*
X152276332Y-116491159D01*
X152323766Y-116451369D01*
X152487258Y-116365621D01*
X152683738Y-116392670D01*
X152934035Y-116541010D01*
X153258979Y-116819137D01*
X153284541Y-116843196D01*
X153712333Y-117247709D01*
X154243443Y-116768688D01*
X154486270Y-116537674D01*
X154670276Y-116339744D01*
X154765662Y-116207837D01*
X154772610Y-116183833D01*
X154693312Y-116142497D01*
X154481467Y-116110480D01*
X154173614Y-116088000D01*
X153806295Y-116075271D01*
X153416049Y-116072510D01*
X153039417Y-116079934D01*
G36*
X163136283Y-103084000D02*
X163248749Y-103241983D01*
X163435490Y-103447883D01*
X163540194Y-103549666D01*
X163971282Y-103956576D01*
X164302195Y-104286531D01*
X164563475Y-104570219D01*
X164613775Y-104628451D01*
X164847217Y-104901900D01*
X164825442Y-110468783D01*
X164803666Y-116035667D01*
X156972000Y-116079691D01*
X156972000Y-116459845D01*
X156980433Y-116686859D01*
X157001763Y-116822784D01*
X157014333Y-116840000D01*
X157043159Y-116765853D01*
X157056521Y-116585294D01*
X157056636Y-116564833D01*
X157056605Y-116289667D01*
X160993636Y-116313271D01*
X164930666Y-116336875D01*
X164930666Y-104772112D01*
X163990050Y-103842223D01*
X163678490Y-103539248D01*
X163421371Y-103298974D01*
X163236384Y-103137113D01*
X163141221Y-103069374D01*
X163136283Y-103084000D01*
X163136283Y-103084000D01*
G37*
X163136283Y-103084000D02*
X163248749Y-103241983D01*
X163435490Y-103447883D01*
X163540194Y-103549666D01*
X163971282Y-103956576D01*
X164302195Y-104286531D01*
X164563475Y-104570219D01*
X164613775Y-104628451D01*
X164847217Y-104901900D01*
X164825442Y-110468783D01*
X164803666Y-116035667D01*
X156972000Y-116079691D01*
X156972000Y-116459845D01*
X156980433Y-116686859D01*
X157001763Y-116822784D01*
X157014333Y-116840000D01*
X157043159Y-116765853D01*
X157056521Y-116585294D01*
X157056636Y-116564833D01*
X157056605Y-116289667D01*
X160993636Y-116313271D01*
X164930666Y-116336875D01*
X164930666Y-104772112D01*
X163990050Y-103842223D01*
X163678490Y-103539248D01*
X163421371Y-103298974D01*
X163236384Y-103137113D01*
X163141221Y-103069374D01*
X163136283Y-103084000D01*
G36*
X160602287Y-116512954D02*
X159790602Y-116516275D01*
X159104027Y-116522596D01*
X158805767Y-116527327D01*
X158669592Y-116531754D01*
X158688252Y-116535788D01*
X158854500Y-116539340D01*
X159161085Y-116542321D01*
X159600760Y-116544639D01*
X160166276Y-116546207D01*
X160850384Y-116546935D01*
X161078333Y-116546976D01*
X161794767Y-116546508D01*
X162393211Y-116545177D01*
X162866643Y-116543072D01*
X163208043Y-116540283D01*
X163410389Y-116536898D01*
X163466660Y-116533007D01*
X163369833Y-116528700D01*
X163112888Y-116524064D01*
X162998694Y-116522564D01*
X162273039Y-116516098D01*
X161452001Y-116512895D01*
X160602287Y-116512954D01*
X160602287Y-116512954D01*
G37*
X160602287Y-116512954D02*
X159790602Y-116516275D01*
X159104027Y-116522596D01*
X158805767Y-116527327D01*
X158669592Y-116531754D01*
X158688252Y-116535788D01*
X158854500Y-116539340D01*
X159161085Y-116542321D01*
X159600760Y-116544639D01*
X160166276Y-116546207D01*
X160850384Y-116546935D01*
X161078333Y-116546976D01*
X161794767Y-116546508D01*
X162393211Y-116545177D01*
X162866643Y-116543072D01*
X163208043Y-116540283D01*
X163410389Y-116536898D01*
X163466660Y-116533007D01*
X163369833Y-116528700D01*
X163112888Y-116524064D01*
X162998694Y-116522564D01*
X162273039Y-116516098D01*
X161452001Y-116512895D01*
X160602287Y-116512954D01*
G36*
X153839333Y-112182271D02*
X153479500Y-112438731D01*
X153239012Y-112624764D01*
X152937755Y-112878081D01*
X152636136Y-113147686D01*
X152601307Y-113180095D01*
X152321516Y-113435628D01*
X152052762Y-113670633D01*
X151845853Y-113840875D01*
X151818140Y-113861939D01*
X151693934Y-113960191D01*
X151616292Y-114057077D01*
X151574276Y-114192992D01*
X151556946Y-114408333D01*
X151553363Y-114743495D01*
X151553333Y-114839839D01*
X151565069Y-115269285D01*
X151598825Y-115568891D01*
X151652424Y-115719744D01*
X151654933Y-115722400D01*
X151718383Y-115744027D01*
X151868524Y-115762658D01*
X152114581Y-115778462D01*
X152465781Y-115791605D01*
X152931351Y-115802256D01*
X153520518Y-115810583D01*
X154242507Y-115816752D01*
X155106546Y-115820933D01*
X156121861Y-115823293D01*
X157242933Y-115824000D01*
X162729333Y-115824000D01*
X162729333Y-114402717D01*
X161622515Y-114402717D01*
X161524559Y-114486974D01*
X161458472Y-114511940D01*
X161318569Y-114598046D01*
X161109440Y-114774244D01*
X160874199Y-115003924D01*
X160853524Y-115025645D01*
X160635315Y-115247372D01*
X160458628Y-115410429D01*
X160357244Y-115483939D01*
X160350610Y-115485333D01*
X160309948Y-115408568D01*
X160274820Y-115209802D01*
X160257058Y-114999323D01*
X160231922Y-114713304D01*
X160185174Y-114556910D01*
X160102751Y-114490599D01*
X160073500Y-114483189D01*
X159933610Y-114523061D01*
X159735960Y-114655240D01*
X159519417Y-114842546D01*
X159322849Y-115047797D01*
X159185122Y-115233814D01*
X159145105Y-115363414D01*
X159146995Y-115369485D01*
X159129206Y-115450129D01*
X158977325Y-115483115D01*
X158886058Y-115485333D01*
X158683012Y-115472228D01*
X158598130Y-115404781D01*
X158580680Y-115240797D01*
X158580666Y-115231333D01*
X158562173Y-115052910D01*
X158517623Y-114977350D01*
X158516892Y-114977333D01*
X158423885Y-115033588D01*
X158269000Y-115174144D01*
X158213381Y-115231333D01*
X157972405Y-115423147D01*
X157709224Y-115485012D01*
X157684490Y-115485333D01*
X157491355Y-115476662D01*
X157397144Y-115455411D01*
X157395333Y-115451642D01*
X157433719Y-115365163D01*
X157531736Y-115181520D01*
X157605980Y-115049475D01*
X157760345Y-114749207D01*
X157809739Y-114564351D01*
X157756469Y-114479305D01*
X157691666Y-114469333D01*
X157578995Y-114423616D01*
X157564666Y-114384667D01*
X157310666Y-114384667D01*
X157247495Y-114466886D01*
X157227721Y-114469333D01*
X157132959Y-114541372D01*
X157019070Y-114719566D01*
X156912675Y-114947036D01*
X156840392Y-115166899D01*
X156828738Y-115321885D01*
X156819909Y-115436489D01*
X156690615Y-115495560D01*
X156603016Y-115509435D01*
X156399342Y-115536849D01*
X156279274Y-115556272D01*
X156278497Y-115556450D01*
X156186854Y-115509789D01*
X156164144Y-115479634D01*
X156184337Y-115388517D01*
X156264981Y-115346905D01*
X156391160Y-115249985D01*
X156536728Y-115050782D01*
X156607795Y-114920201D01*
X156639486Y-114852322D01*
X156194231Y-114852322D01*
X156072282Y-115071261D01*
X156001507Y-115143685D01*
X155617909Y-115431098D01*
X155252958Y-115558209D01*
X154914514Y-115522331D01*
X154904591Y-115518608D01*
X154791602Y-115400754D01*
X154770666Y-115306941D01*
X154797795Y-115170836D01*
X154891059Y-115173308D01*
X155044952Y-115292025D01*
X155176255Y-115385478D01*
X155303087Y-115375594D01*
X155432619Y-115310521D01*
X155611367Y-115141328D01*
X155689024Y-114924065D01*
X155670188Y-114707290D01*
X155559457Y-114539558D01*
X155361429Y-114469424D01*
X155352966Y-114469333D01*
X155218046Y-114516784D01*
X155178770Y-114677172D01*
X155187680Y-114786833D01*
X155123740Y-114865619D01*
X154943711Y-114892667D01*
X154740922Y-114863299D01*
X154696459Y-114777633D01*
X154812205Y-114639327D01*
X154813000Y-114638667D01*
X154920591Y-114494519D01*
X154940000Y-114416633D01*
X154952061Y-114402717D01*
X154595181Y-114402717D01*
X154497226Y-114486974D01*
X154431139Y-114511940D01*
X154291235Y-114598046D01*
X154082106Y-114774244D01*
X153846865Y-115003924D01*
X153826190Y-115025645D01*
X153607350Y-115247473D01*
X153429225Y-115410555D01*
X153325932Y-115483967D01*
X153319052Y-115485333D01*
X153279504Y-115408742D01*
X153253213Y-115211071D01*
X153246666Y-115017009D01*
X153230411Y-114712329D01*
X153177087Y-114546423D01*
X153119666Y-114499951D01*
X152997915Y-114420969D01*
X153027781Y-114351190D01*
X153191712Y-114307197D01*
X153331333Y-114300000D01*
X153566818Y-114320971D01*
X153663853Y-114390488D01*
X153670000Y-114427000D01*
X153743601Y-114529143D01*
X153881666Y-114554000D01*
X154051905Y-114509839D01*
X154093333Y-114427000D01*
X154169061Y-114326174D01*
X154347333Y-114300000D01*
X154541339Y-114330583D01*
X154595181Y-114402717D01*
X154952061Y-114402717D01*
X155012415Y-114333081D01*
X155197103Y-114299124D01*
X155445231Y-114312220D01*
X155707965Y-114369828D01*
X155934833Y-114468405D01*
X156148674Y-114653993D01*
X156194231Y-114852322D01*
X156639486Y-114852322D01*
X156714049Y-114692617D01*
X156747332Y-114573360D01*
X156709795Y-114519000D01*
X156628962Y-114492722D01*
X156478863Y-114428884D01*
X156480761Y-114367039D01*
X156617657Y-114319867D01*
X156872555Y-114300046D01*
X156887333Y-114300000D01*
X157128821Y-114315229D01*
X157282098Y-114354168D01*
X157310666Y-114384667D01*
X157564666Y-114384667D01*
X157640813Y-114336369D01*
X157835509Y-114305714D01*
X157988000Y-114300000D01*
X158229569Y-114306835D01*
X158382837Y-114324310D01*
X158411333Y-114337971D01*
X158359636Y-114419031D01*
X158232804Y-114568314D01*
X158208919Y-114594351D01*
X158057439Y-114789913D01*
X157966673Y-114965684D01*
X157964484Y-114973446D01*
X157970535Y-115087266D01*
X158060730Y-115091301D01*
X158206451Y-115002094D01*
X158379080Y-114836186D01*
X158523493Y-114650321D01*
X158702342Y-114425089D01*
X158826460Y-114359536D01*
X158898028Y-114453861D01*
X158919333Y-114685997D01*
X158936433Y-114894513D01*
X159000332Y-114961314D01*
X159129928Y-114888250D01*
X159300333Y-114723333D01*
X159441400Y-114561276D01*
X159462986Y-114484897D01*
X159400840Y-114469333D01*
X159278352Y-114428089D01*
X159258000Y-114384667D01*
X159337666Y-114343579D01*
X159557097Y-114314436D01*
X159886935Y-114300649D01*
X159986725Y-114300000D01*
X160341390Y-114304257D01*
X160555041Y-114320538D01*
X160655866Y-114354106D01*
X160672049Y-114410227D01*
X160666715Y-114427000D01*
X160674343Y-114519438D01*
X160813294Y-114552865D01*
X160869324Y-114554000D01*
X161069017Y-114515801D01*
X161120666Y-114427000D01*
X161196395Y-114326174D01*
X161374666Y-114300000D01*
X161568672Y-114330583D01*
X161622515Y-114402717D01*
X162729333Y-114402717D01*
X162729333Y-113284000D01*
X160358666Y-113284000D01*
X160341116Y-113547598D01*
X160293388Y-113690904D01*
X160264130Y-113707333D01*
X160205284Y-113636217D01*
X160211331Y-113488993D01*
X160195749Y-113294077D01*
X160084335Y-113209781D01*
X159918281Y-113263887D01*
X159899459Y-113278639D01*
X159774278Y-113329064D01*
X159726207Y-113288111D01*
X159601927Y-113208228D01*
X159538753Y-113199333D01*
X159449548Y-113240881D01*
X159445453Y-113390694D01*
X159454967Y-113443338D01*
X159471485Y-113664738D01*
X159416235Y-113763085D01*
X159334297Y-113744494D01*
X159297504Y-113642114D01*
X159280771Y-113428687D01*
X159282607Y-113281160D01*
X159289045Y-113230277D01*
X158792693Y-113230277D01*
X158695464Y-113388968D01*
X158549133Y-113452037D01*
X158500453Y-113429199D01*
X158518081Y-113415008D01*
X158141435Y-113415008D01*
X158121049Y-113413016D01*
X158014813Y-113338830D01*
X157953618Y-113260124D01*
X157927435Y-113157000D01*
X157353000Y-113157000D01*
X157319532Y-113360809D01*
X157238411Y-113459605D01*
X157138560Y-113425525D01*
X157126846Y-113409700D01*
X155987407Y-113409700D01*
X155970027Y-113712865D01*
X155961090Y-113787767D01*
X155928298Y-113817054D01*
X155872714Y-113732682D01*
X155817422Y-113583994D01*
X155785504Y-113420331D01*
X155784830Y-113411000D01*
X155775768Y-113114667D01*
X155415249Y-113114667D01*
X155410429Y-113167015D01*
X155321000Y-113284000D01*
X155176922Y-113410570D01*
X155080246Y-113453333D01*
X155070670Y-113405718D01*
X155167601Y-113290482D01*
X155174495Y-113284000D01*
X155323389Y-113162170D01*
X155415249Y-113114667D01*
X155775768Y-113114667D01*
X155775364Y-113101478D01*
X155786394Y-113024487D01*
X155257908Y-113024487D01*
X155246327Y-113030000D01*
X155169061Y-112970396D01*
X155151666Y-112945333D01*
X155130092Y-112866179D01*
X155141673Y-112860667D01*
X155218938Y-112920270D01*
X155236333Y-112945333D01*
X155257908Y-113024487D01*
X155786394Y-113024487D01*
X155800072Y-112929022D01*
X155864799Y-112863751D01*
X155892500Y-112860604D01*
X155945205Y-112937085D01*
X155977987Y-113135612D01*
X155987407Y-113409700D01*
X157126846Y-113409700D01*
X157111783Y-113389351D01*
X157091623Y-113252853D01*
X157093656Y-113241667D01*
X156548666Y-113241667D01*
X156502949Y-113354338D01*
X156464000Y-113368667D01*
X156388885Y-113300090D01*
X156379333Y-113241667D01*
X156425051Y-113128995D01*
X156464000Y-113114667D01*
X156539114Y-113183243D01*
X156548666Y-113241667D01*
X157093656Y-113241667D01*
X157125082Y-113068771D01*
X157191219Y-112913333D01*
X157257037Y-112860667D01*
X157320882Y-112935266D01*
X157352263Y-113119863D01*
X157353000Y-113157000D01*
X157927435Y-113157000D01*
X157913459Y-113101957D01*
X157968736Y-113015397D01*
X158044387Y-112972209D01*
X158071317Y-113068958D01*
X158072666Y-113133011D01*
X158094248Y-113311063D01*
X158136166Y-113389833D01*
X158141435Y-113415008D01*
X158518081Y-113415008D01*
X158550964Y-113388537D01*
X158639067Y-113263422D01*
X158684234Y-113114667D01*
X158717587Y-112977126D01*
X158758373Y-112994211D01*
X158786909Y-113052245D01*
X158792693Y-113230277D01*
X159289045Y-113230277D01*
X159318980Y-112993724D01*
X159397586Y-112869623D01*
X159519374Y-112907967D01*
X159596666Y-112987667D01*
X159758101Y-113096086D01*
X159850666Y-113114667D01*
X160028207Y-113053599D01*
X160104666Y-112987667D01*
X160233164Y-112874215D01*
X160314066Y-112909829D01*
X160353040Y-113101120D01*
X160358666Y-113284000D01*
X162729333Y-113284000D01*
X162729333Y-112131617D01*
X160986302Y-112131617D01*
X160952200Y-112241491D01*
X160920187Y-112243907D01*
X160862596Y-112148727D01*
X160816466Y-111937463D01*
X160798316Y-111753345D01*
X160798416Y-111633000D01*
X160189333Y-111633000D01*
X160162999Y-111780137D01*
X160104666Y-111802333D01*
X160025906Y-111679476D01*
X160020636Y-111637997D01*
X159596666Y-111637997D01*
X159567047Y-111794705D01*
X159512000Y-111844667D01*
X159452997Y-111770981D01*
X159452136Y-111764997D01*
X158834666Y-111764997D01*
X158770088Y-111842386D01*
X158750000Y-111844667D01*
X158675695Y-111775751D01*
X158665333Y-111712670D01*
X158702648Y-111633000D01*
X158242000Y-111633000D01*
X158220734Y-111828867D01*
X158168445Y-111926774D01*
X158157333Y-111929333D01*
X158101371Y-111854904D01*
X158073398Y-111671890D01*
X158072666Y-111633000D01*
X158076719Y-111595663D01*
X157480000Y-111595663D01*
X157455023Y-111771833D01*
X157395333Y-111844667D01*
X156167666Y-111844667D01*
X156163796Y-111922810D01*
X156135327Y-111929333D01*
X156015635Y-111867547D01*
X155998333Y-111844667D01*
X156000350Y-111803928D01*
X155325507Y-111803928D01*
X155313557Y-112084053D01*
X155273736Y-112227902D01*
X155240840Y-112241398D01*
X155188870Y-112146988D01*
X155156729Y-111940016D01*
X155151666Y-111802798D01*
X155166104Y-111582417D01*
X154576758Y-111582417D01*
X154538485Y-111755112D01*
X154481606Y-111775015D01*
X154438402Y-111650842D01*
X154432000Y-111543336D01*
X154460435Y-111386610D01*
X154513258Y-111336667D01*
X154565604Y-111409533D01*
X154576758Y-111582417D01*
X155166104Y-111582417D01*
X155167631Y-111559119D01*
X155208250Y-111398035D01*
X155236333Y-111365327D01*
X155285592Y-111425282D01*
X155317465Y-111619046D01*
X155325507Y-111803928D01*
X156000350Y-111803928D01*
X156002203Y-111766523D01*
X156030673Y-111760000D01*
X156150364Y-111821786D01*
X156167666Y-111844667D01*
X157395333Y-111844667D01*
X157339744Y-111770149D01*
X157319323Y-111637202D01*
X156871498Y-111637202D01*
X156858899Y-111711975D01*
X156786855Y-111834187D01*
X156736067Y-111795187D01*
X156718000Y-111616067D01*
X156735019Y-111466035D01*
X156794343Y-111465521D01*
X156813909Y-111483375D01*
X156871498Y-111637202D01*
X157319323Y-111637202D01*
X157311540Y-111586538D01*
X157310666Y-111543336D01*
X157327774Y-111379000D01*
X156125333Y-111379000D01*
X156083000Y-111421333D01*
X156040666Y-111379000D01*
X156083000Y-111336667D01*
X156125333Y-111379000D01*
X157327774Y-111379000D01*
X157330722Y-111350688D01*
X157383776Y-111289414D01*
X157395333Y-111294333D01*
X157456333Y-111408789D01*
X157480000Y-111595663D01*
X158076719Y-111595663D01*
X158093932Y-111437132D01*
X158146222Y-111339226D01*
X158157333Y-111336667D01*
X158213295Y-111411095D01*
X158241269Y-111594110D01*
X158242000Y-111633000D01*
X158702648Y-111633000D01*
X158706379Y-111625035D01*
X158750000Y-111633000D01*
X158831437Y-111741243D01*
X158834666Y-111764997D01*
X159452136Y-111764997D01*
X159427367Y-111592962D01*
X159427333Y-111585670D01*
X159450263Y-111416413D01*
X159509095Y-111377330D01*
X159512000Y-111379000D01*
X159577539Y-111495707D01*
X159596666Y-111637997D01*
X160020636Y-111637997D01*
X160020000Y-111633000D01*
X160073677Y-111490981D01*
X160104666Y-111463667D01*
X160167084Y-111494034D01*
X160189333Y-111633000D01*
X160798416Y-111633000D01*
X160798536Y-111489263D01*
X160829504Y-111380043D01*
X160878123Y-111416990D01*
X160931295Y-111591407D01*
X160973370Y-111869562D01*
X160986302Y-112131617D01*
X162729333Y-112131617D01*
X162729333Y-110320667D01*
X153839333Y-110320667D01*
X153839333Y-112182271D01*
X153839333Y-112182271D01*
G37*
X153839333Y-112182271D02*
X153479500Y-112438731D01*
X153239012Y-112624764D01*
X152937755Y-112878081D01*
X152636136Y-113147686D01*
X152601307Y-113180095D01*
X152321516Y-113435628D01*
X152052762Y-113670633D01*
X151845853Y-113840875D01*
X151818140Y-113861939D01*
X151693934Y-113960191D01*
X151616292Y-114057077D01*
X151574276Y-114192992D01*
X151556946Y-114408333D01*
X151553363Y-114743495D01*
X151553333Y-114839839D01*
X151565069Y-115269285D01*
X151598825Y-115568891D01*
X151652424Y-115719744D01*
X151654933Y-115722400D01*
X151718383Y-115744027D01*
X151868524Y-115762658D01*
X152114581Y-115778462D01*
X152465781Y-115791605D01*
X152931351Y-115802256D01*
X153520518Y-115810583D01*
X154242507Y-115816752D01*
X155106546Y-115820933D01*
X156121861Y-115823293D01*
X157242933Y-115824000D01*
X162729333Y-115824000D01*
X162729333Y-114402717D01*
X161622515Y-114402717D01*
X161524559Y-114486974D01*
X161458472Y-114511940D01*
X161318569Y-114598046D01*
X161109440Y-114774244D01*
X160874199Y-115003924D01*
X160853524Y-115025645D01*
X160635315Y-115247372D01*
X160458628Y-115410429D01*
X160357244Y-115483939D01*
X160350610Y-115485333D01*
X160309948Y-115408568D01*
X160274820Y-115209802D01*
X160257058Y-114999323D01*
X160231922Y-114713304D01*
X160185174Y-114556910D01*
X160102751Y-114490599D01*
X160073500Y-114483189D01*
X159933610Y-114523061D01*
X159735960Y-114655240D01*
X159519417Y-114842546D01*
X159322849Y-115047797D01*
X159185122Y-115233814D01*
X159145105Y-115363414D01*
X159146995Y-115369485D01*
X159129206Y-115450129D01*
X158977325Y-115483115D01*
X158886058Y-115485333D01*
X158683012Y-115472228D01*
X158598130Y-115404781D01*
X158580680Y-115240797D01*
X158580666Y-115231333D01*
X158562173Y-115052910D01*
X158517623Y-114977350D01*
X158516892Y-114977333D01*
X158423885Y-115033588D01*
X158269000Y-115174144D01*
X158213381Y-115231333D01*
X157972405Y-115423147D01*
X157709224Y-115485012D01*
X157684490Y-115485333D01*
X157491355Y-115476662D01*
X157397144Y-115455411D01*
X157395333Y-115451642D01*
X157433719Y-115365163D01*
X157531736Y-115181520D01*
X157605980Y-115049475D01*
X157760345Y-114749207D01*
X157809739Y-114564351D01*
X157756469Y-114479305D01*
X157691666Y-114469333D01*
X157578995Y-114423616D01*
X157564666Y-114384667D01*
X157310666Y-114384667D01*
X157247495Y-114466886D01*
X157227721Y-114469333D01*
X157132959Y-114541372D01*
X157019070Y-114719566D01*
X156912675Y-114947036D01*
X156840392Y-115166899D01*
X156828738Y-115321885D01*
X156819909Y-115436489D01*
X156690615Y-115495560D01*
X156603016Y-115509435D01*
X156399342Y-115536849D01*
X156279274Y-115556272D01*
X156278497Y-115556450D01*
X156186854Y-115509789D01*
X156164144Y-115479634D01*
X156184337Y-115388517D01*
X156264981Y-115346905D01*
X156391160Y-115249985D01*
X156536728Y-115050782D01*
X156607795Y-114920201D01*
X156639486Y-114852322D01*
X156194231Y-114852322D01*
X156072282Y-115071261D01*
X156001507Y-115143685D01*
X155617909Y-115431098D01*
X155252958Y-115558209D01*
X154914514Y-115522331D01*
X154904591Y-115518608D01*
X154791602Y-115400754D01*
X154770666Y-115306941D01*
X154797795Y-115170836D01*
X154891059Y-115173308D01*
X155044952Y-115292025D01*
X155176255Y-115385478D01*
X155303087Y-115375594D01*
X155432619Y-115310521D01*
X155611367Y-115141328D01*
X155689024Y-114924065D01*
X155670188Y-114707290D01*
X155559457Y-114539558D01*
X155361429Y-114469424D01*
X155352966Y-114469333D01*
X155218046Y-114516784D01*
X155178770Y-114677172D01*
X155187680Y-114786833D01*
X155123740Y-114865619D01*
X154943711Y-114892667D01*
X154740922Y-114863299D01*
X154696459Y-114777633D01*
X154812205Y-114639327D01*
X154813000Y-114638667D01*
X154920591Y-114494519D01*
X154940000Y-114416633D01*
X154952061Y-114402717D01*
X154595181Y-114402717D01*
X154497226Y-114486974D01*
X154431139Y-114511940D01*
X154291235Y-114598046D01*
X154082106Y-114774244D01*
X153846865Y-115003924D01*
X153826190Y-115025645D01*
X153607350Y-115247473D01*
X153429225Y-115410555D01*
X153325932Y-115483967D01*
X153319052Y-115485333D01*
X153279504Y-115408742D01*
X153253213Y-115211071D01*
X153246666Y-115017009D01*
X153230411Y-114712329D01*
X153177087Y-114546423D01*
X153119666Y-114499951D01*
X152997915Y-114420969D01*
X153027781Y-114351190D01*
X153191712Y-114307197D01*
X153331333Y-114300000D01*
X153566818Y-114320971D01*
X153663853Y-114390488D01*
X153670000Y-114427000D01*
X153743601Y-114529143D01*
X153881666Y-114554000D01*
X154051905Y-114509839D01*
X154093333Y-114427000D01*
X154169061Y-114326174D01*
X154347333Y-114300000D01*
X154541339Y-114330583D01*
X154595181Y-114402717D01*
X154952061Y-114402717D01*
X155012415Y-114333081D01*
X155197103Y-114299124D01*
X155445231Y-114312220D01*
X155707965Y-114369828D01*
X155934833Y-114468405D01*
X156148674Y-114653993D01*
X156194231Y-114852322D01*
X156639486Y-114852322D01*
X156714049Y-114692617D01*
X156747332Y-114573360D01*
X156709795Y-114519000D01*
X156628962Y-114492722D01*
X156478863Y-114428884D01*
X156480761Y-114367039D01*
X156617657Y-114319867D01*
X156872555Y-114300046D01*
X156887333Y-114300000D01*
X157128821Y-114315229D01*
X157282098Y-114354168D01*
X157310666Y-114384667D01*
X157564666Y-114384667D01*
X157640813Y-114336369D01*
X157835509Y-114305714D01*
X157988000Y-114300000D01*
X158229569Y-114306835D01*
X158382837Y-114324310D01*
X158411333Y-114337971D01*
X158359636Y-114419031D01*
X158232804Y-114568314D01*
X158208919Y-114594351D01*
X158057439Y-114789913D01*
X157966673Y-114965684D01*
X157964484Y-114973446D01*
X157970535Y-115087266D01*
X158060730Y-115091301D01*
X158206451Y-115002094D01*
X158379080Y-114836186D01*
X158523493Y-114650321D01*
X158702342Y-114425089D01*
X158826460Y-114359536D01*
X158898028Y-114453861D01*
X158919333Y-114685997D01*
X158936433Y-114894513D01*
X159000332Y-114961314D01*
X159129928Y-114888250D01*
X159300333Y-114723333D01*
X159441400Y-114561276D01*
X159462986Y-114484897D01*
X159400840Y-114469333D01*
X159278352Y-114428089D01*
X159258000Y-114384667D01*
X159337666Y-114343579D01*
X159557097Y-114314436D01*
X159886935Y-114300649D01*
X159986725Y-114300000D01*
X160341390Y-114304257D01*
X160555041Y-114320538D01*
X160655866Y-114354106D01*
X160672049Y-114410227D01*
X160666715Y-114427000D01*
X160674343Y-114519438D01*
X160813294Y-114552865D01*
X160869324Y-114554000D01*
X161069017Y-114515801D01*
X161120666Y-114427000D01*
X161196395Y-114326174D01*
X161374666Y-114300000D01*
X161568672Y-114330583D01*
X161622515Y-114402717D01*
X162729333Y-114402717D01*
X162729333Y-113284000D01*
X160358666Y-113284000D01*
X160341116Y-113547598D01*
X160293388Y-113690904D01*
X160264130Y-113707333D01*
X160205284Y-113636217D01*
X160211331Y-113488993D01*
X160195749Y-113294077D01*
X160084335Y-113209781D01*
X159918281Y-113263887D01*
X159899459Y-113278639D01*
X159774278Y-113329064D01*
X159726207Y-113288111D01*
X159601927Y-113208228D01*
X159538753Y-113199333D01*
X159449548Y-113240881D01*
X159445453Y-113390694D01*
X159454967Y-113443338D01*
X159471485Y-113664738D01*
X159416235Y-113763085D01*
X159334297Y-113744494D01*
X159297504Y-113642114D01*
X159280771Y-113428687D01*
X159282607Y-113281160D01*
X159289045Y-113230277D01*
X158792693Y-113230277D01*
X158695464Y-113388968D01*
X158549133Y-113452037D01*
X158500453Y-113429199D01*
X158518081Y-113415008D01*
X158141435Y-113415008D01*
X158121049Y-113413016D01*
X158014813Y-113338830D01*
X157953618Y-113260124D01*
X157927435Y-113157000D01*
X157353000Y-113157000D01*
X157319532Y-113360809D01*
X157238411Y-113459605D01*
X157138560Y-113425525D01*
X157126846Y-113409700D01*
X155987407Y-113409700D01*
X155970027Y-113712865D01*
X155961090Y-113787767D01*
X155928298Y-113817054D01*
X155872714Y-113732682D01*
X155817422Y-113583994D01*
X155785504Y-113420331D01*
X155784830Y-113411000D01*
X155775768Y-113114667D01*
X155415249Y-113114667D01*
X155410429Y-113167015D01*
X155321000Y-113284000D01*
X155176922Y-113410570D01*
X155080246Y-113453333D01*
X155070670Y-113405718D01*
X155167601Y-113290482D01*
X155174495Y-113284000D01*
X155323389Y-113162170D01*
X155415249Y-113114667D01*
X155775768Y-113114667D01*
X155775364Y-113101478D01*
X155786394Y-113024487D01*
X155257908Y-113024487D01*
X155246327Y-113030000D01*
X155169061Y-112970396D01*
X155151666Y-112945333D01*
X155130092Y-112866179D01*
X155141673Y-112860667D01*
X155218938Y-112920270D01*
X155236333Y-112945333D01*
X155257908Y-113024487D01*
X155786394Y-113024487D01*
X155800072Y-112929022D01*
X155864799Y-112863751D01*
X155892500Y-112860604D01*
X155945205Y-112937085D01*
X155977987Y-113135612D01*
X155987407Y-113409700D01*
X157126846Y-113409700D01*
X157111783Y-113389351D01*
X157091623Y-113252853D01*
X157093656Y-113241667D01*
X156548666Y-113241667D01*
X156502949Y-113354338D01*
X156464000Y-113368667D01*
X156388885Y-113300090D01*
X156379333Y-113241667D01*
X156425051Y-113128995D01*
X156464000Y-113114667D01*
X156539114Y-113183243D01*
X156548666Y-113241667D01*
X157093656Y-113241667D01*
X157125082Y-113068771D01*
X157191219Y-112913333D01*
X157257037Y-112860667D01*
X157320882Y-112935266D01*
X157352263Y-113119863D01*
X157353000Y-113157000D01*
X157927435Y-113157000D01*
X157913459Y-113101957D01*
X157968736Y-113015397D01*
X158044387Y-112972209D01*
X158071317Y-113068958D01*
X158072666Y-113133011D01*
X158094248Y-113311063D01*
X158136166Y-113389833D01*
X158141435Y-113415008D01*
X158518081Y-113415008D01*
X158550964Y-113388537D01*
X158639067Y-113263422D01*
X158684234Y-113114667D01*
X158717587Y-112977126D01*
X158758373Y-112994211D01*
X158786909Y-113052245D01*
X158792693Y-113230277D01*
X159289045Y-113230277D01*
X159318980Y-112993724D01*
X159397586Y-112869623D01*
X159519374Y-112907967D01*
X159596666Y-112987667D01*
X159758101Y-113096086D01*
X159850666Y-113114667D01*
X160028207Y-113053599D01*
X160104666Y-112987667D01*
X160233164Y-112874215D01*
X160314066Y-112909829D01*
X160353040Y-113101120D01*
X160358666Y-113284000D01*
X162729333Y-113284000D01*
X162729333Y-112131617D01*
X160986302Y-112131617D01*
X160952200Y-112241491D01*
X160920187Y-112243907D01*
X160862596Y-112148727D01*
X160816466Y-111937463D01*
X160798316Y-111753345D01*
X160798416Y-111633000D01*
X160189333Y-111633000D01*
X160162999Y-111780137D01*
X160104666Y-111802333D01*
X160025906Y-111679476D01*
X160020636Y-111637997D01*
X159596666Y-111637997D01*
X159567047Y-111794705D01*
X159512000Y-111844667D01*
X159452997Y-111770981D01*
X159452136Y-111764997D01*
X158834666Y-111764997D01*
X158770088Y-111842386D01*
X158750000Y-111844667D01*
X158675695Y-111775751D01*
X158665333Y-111712670D01*
X158702648Y-111633000D01*
X158242000Y-111633000D01*
X158220734Y-111828867D01*
X158168445Y-111926774D01*
X158157333Y-111929333D01*
X158101371Y-111854904D01*
X158073398Y-111671890D01*
X158072666Y-111633000D01*
X158076719Y-111595663D01*
X157480000Y-111595663D01*
X157455023Y-111771833D01*
X157395333Y-111844667D01*
X156167666Y-111844667D01*
X156163796Y-111922810D01*
X156135327Y-111929333D01*
X156015635Y-111867547D01*
X155998333Y-111844667D01*
X156000350Y-111803928D01*
X155325507Y-111803928D01*
X155313557Y-112084053D01*
X155273736Y-112227902D01*
X155240840Y-112241398D01*
X155188870Y-112146988D01*
X155156729Y-111940016D01*
X155151666Y-111802798D01*
X155166104Y-111582417D01*
X154576758Y-111582417D01*
X154538485Y-111755112D01*
X154481606Y-111775015D01*
X154438402Y-111650842D01*
X154432000Y-111543336D01*
X154460435Y-111386610D01*
X154513258Y-111336667D01*
X154565604Y-111409533D01*
X154576758Y-111582417D01*
X155166104Y-111582417D01*
X155167631Y-111559119D01*
X155208250Y-111398035D01*
X155236333Y-111365327D01*
X155285592Y-111425282D01*
X155317465Y-111619046D01*
X155325507Y-111803928D01*
X156000350Y-111803928D01*
X156002203Y-111766523D01*
X156030673Y-111760000D01*
X156150364Y-111821786D01*
X156167666Y-111844667D01*
X157395333Y-111844667D01*
X157339744Y-111770149D01*
X157319323Y-111637202D01*
X156871498Y-111637202D01*
X156858899Y-111711975D01*
X156786855Y-111834187D01*
X156736067Y-111795187D01*
X156718000Y-111616067D01*
X156735019Y-111466035D01*
X156794343Y-111465521D01*
X156813909Y-111483375D01*
X156871498Y-111637202D01*
X157319323Y-111637202D01*
X157311540Y-111586538D01*
X157310666Y-111543336D01*
X157327774Y-111379000D01*
X156125333Y-111379000D01*
X156083000Y-111421333D01*
X156040666Y-111379000D01*
X156083000Y-111336667D01*
X156125333Y-111379000D01*
X157327774Y-111379000D01*
X157330722Y-111350688D01*
X157383776Y-111289414D01*
X157395333Y-111294333D01*
X157456333Y-111408789D01*
X157480000Y-111595663D01*
X158076719Y-111595663D01*
X158093932Y-111437132D01*
X158146222Y-111339226D01*
X158157333Y-111336667D01*
X158213295Y-111411095D01*
X158241269Y-111594110D01*
X158242000Y-111633000D01*
X158702648Y-111633000D01*
X158706379Y-111625035D01*
X158750000Y-111633000D01*
X158831437Y-111741243D01*
X158834666Y-111764997D01*
X159452136Y-111764997D01*
X159427367Y-111592962D01*
X159427333Y-111585670D01*
X159450263Y-111416413D01*
X159509095Y-111377330D01*
X159512000Y-111379000D01*
X159577539Y-111495707D01*
X159596666Y-111637997D01*
X160020636Y-111637997D01*
X160020000Y-111633000D01*
X160073677Y-111490981D01*
X160104666Y-111463667D01*
X160167084Y-111494034D01*
X160189333Y-111633000D01*
X160798416Y-111633000D01*
X160798536Y-111489263D01*
X160829504Y-111380043D01*
X160878123Y-111416990D01*
X160931295Y-111591407D01*
X160973370Y-111869562D01*
X160986302Y-112131617D01*
X162729333Y-112131617D01*
X162729333Y-110320667D01*
X153839333Y-110320667D01*
X153839333Y-112182271D01*
G36*
X161186251Y-104732667D02*
X161199019Y-105365192D01*
X161211876Y-105836903D01*
X161224530Y-106146622D01*
X161236686Y-106293167D01*
X161248053Y-106275360D01*
X161258336Y-106092021D01*
X161267241Y-105741970D01*
X161274475Y-105224028D01*
X161275767Y-105092500D01*
X161290000Y-103547333D01*
X162775405Y-103547333D01*
X163472036Y-104247602D01*
X164168667Y-104947870D01*
X164168667Y-110258935D01*
X164168666Y-115570000D01*
X163406666Y-115570000D01*
X163389095Y-112754833D01*
X163384364Y-112123038D01*
X163378755Y-111583105D01*
X163372535Y-111148167D01*
X163365969Y-110831360D01*
X163359325Y-110645818D01*
X163352868Y-110604673D01*
X163347447Y-110701667D01*
X163339738Y-111004970D01*
X163331159Y-111442974D01*
X163322256Y-111981050D01*
X163313580Y-112584571D01*
X163305678Y-113218909D01*
X163301519Y-113601575D01*
X163279666Y-115739484D01*
X164295666Y-115739334D01*
X164258354Y-104873918D01*
X163538891Y-104151214D01*
X162819427Y-103428509D01*
X161991214Y-103424421D01*
X161163000Y-103420333D01*
X161186251Y-104732667D01*
X161186251Y-104732667D01*
G37*
X161186251Y-104732667D02*
X161199019Y-105365192D01*
X161211876Y-105836903D01*
X161224530Y-106146622D01*
X161236686Y-106293167D01*
X161248053Y-106275360D01*
X161258336Y-106092021D01*
X161267241Y-105741970D01*
X161274475Y-105224028D01*
X161275767Y-105092500D01*
X161290000Y-103547333D01*
X162775405Y-103547333D01*
X163472036Y-104247602D01*
X164168667Y-104947870D01*
X164168667Y-110258935D01*
X164168666Y-115570000D01*
X163406666Y-115570000D01*
X163389095Y-112754833D01*
X163384364Y-112123038D01*
X163378755Y-111583105D01*
X163372535Y-111148167D01*
X163365969Y-110831360D01*
X163359325Y-110645818D01*
X163352868Y-110604673D01*
X163347447Y-110701667D01*
X163339738Y-111004970D01*
X163331159Y-111442974D01*
X163322256Y-111981050D01*
X163313580Y-112584571D01*
X163305678Y-113218909D01*
X163301519Y-113601575D01*
X163279666Y-115739484D01*
X164295666Y-115739334D01*
X164258354Y-104873918D01*
X163538891Y-104151214D01*
X162819427Y-103428509D01*
X161991214Y-103424421D01*
X161163000Y-103420333D01*
X161186251Y-104732667D01*
G36*
X145743115Y-112153020D02*
X145762559Y-112197721D01*
X145766720Y-112260892D01*
X145678492Y-112241024D01*
X145580187Y-112228065D01*
X145583024Y-112265881D01*
X145565428Y-112370861D01*
X145464766Y-112511265D01*
X145334795Y-112628474D01*
X145229273Y-112663865D01*
X145221412Y-112660213D01*
X145172566Y-112702973D01*
X145148101Y-112837518D01*
X145096676Y-113029042D01*
X145021101Y-113124430D01*
X144953962Y-113184639D01*
X145015490Y-113198037D01*
X145131937Y-113130051D01*
X145177209Y-113051167D01*
X145264670Y-112913472D01*
X145435112Y-112712219D01*
X145591406Y-112550799D01*
X145809145Y-112318044D01*
X145891763Y-112172804D01*
X145843071Y-112105786D01*
X145776892Y-112098667D01*
X145743115Y-112153020D01*
X145743115Y-112153020D01*
G37*
X145743115Y-112153020D02*
X145762559Y-112197721D01*
X145766720Y-112260892D01*
X145678492Y-112241024D01*
X145580187Y-112228065D01*
X145583024Y-112265881D01*
X145565428Y-112370861D01*
X145464766Y-112511265D01*
X145334795Y-112628474D01*
X145229273Y-112663865D01*
X145221412Y-112660213D01*
X145172566Y-112702973D01*
X145148101Y-112837518D01*
X145096676Y-113029042D01*
X145021101Y-113124430D01*
X144953962Y-113184639D01*
X145015490Y-113198037D01*
X145131937Y-113130051D01*
X145177209Y-113051167D01*
X145264670Y-112913472D01*
X145435112Y-112712219D01*
X145591406Y-112550799D01*
X145809145Y-112318044D01*
X145891763Y-112172804D01*
X145843071Y-112105786D01*
X145776892Y-112098667D01*
X145743115Y-112153020D01*
G36*
X146367557Y-112218537D02*
X146192687Y-112296654D01*
X146134666Y-112321528D01*
X146019684Y-112403032D01*
X145859599Y-112554081D01*
X145687297Y-112737708D01*
X145535659Y-112916946D01*
X145437571Y-113054828D01*
X145425915Y-113114386D01*
X145429148Y-113114667D01*
X145527209Y-113058453D01*
X145697182Y-112913580D01*
X145838333Y-112776000D01*
X146037643Y-112589134D01*
X146201121Y-112466134D01*
X146269791Y-112437333D01*
X146383667Y-112369092D01*
X146421999Y-112303258D01*
X146427182Y-112209133D01*
X146367557Y-112218537D01*
X146367557Y-112218537D01*
G37*
X146367557Y-112218537D02*
X146192687Y-112296654D01*
X146134666Y-112321528D01*
X146019684Y-112403032D01*
X145859599Y-112554081D01*
X145687297Y-112737708D01*
X145535659Y-112916946D01*
X145437571Y-113054828D01*
X145425915Y-113114386D01*
X145429148Y-113114667D01*
X145527209Y-113058453D01*
X145697182Y-112913580D01*
X145838333Y-112776000D01*
X146037643Y-112589134D01*
X146201121Y-112466134D01*
X146269791Y-112437333D01*
X146383667Y-112369092D01*
X146421999Y-112303258D01*
X146427182Y-112209133D01*
X146367557Y-112218537D01*
G36*
X150705746Y-103433836D02*
X149265598Y-103447340D01*
X149245299Y-107815346D01*
X149241807Y-108918550D01*
X149242285Y-109865010D01*
X149246706Y-110652731D01*
X149255038Y-111279718D01*
X149267254Y-111743976D01*
X149283323Y-112043508D01*
X149303217Y-112176321D01*
X149309666Y-112183367D01*
X149331033Y-112099159D01*
X149349391Y-111848295D01*
X149364687Y-111433424D01*
X149376871Y-110857199D01*
X149385888Y-110122269D01*
X149391688Y-109231286D01*
X149394218Y-108186900D01*
X149394333Y-107886525D01*
X149394333Y-103589667D01*
X150770166Y-103566403D01*
X151231336Y-103555035D01*
X151626754Y-103538477D01*
X151928303Y-103518460D01*
X152107867Y-103496712D01*
X152145947Y-103481736D01*
X152065857Y-103462343D01*
X151843942Y-103447056D01*
X151507680Y-103436788D01*
X151084549Y-103432454D01*
X150705746Y-103433836D01*
X150705746Y-103433836D01*
G37*
X150705746Y-103433836D02*
X149265598Y-103447340D01*
X149245299Y-107815346D01*
X149241807Y-108918550D01*
X149242285Y-109865010D01*
X149246706Y-110652731D01*
X149255038Y-111279718D01*
X149267254Y-111743976D01*
X149283323Y-112043508D01*
X149303217Y-112176321D01*
X149309666Y-112183367D01*
X149331033Y-112099159D01*
X149349391Y-111848295D01*
X149364687Y-111433424D01*
X149376871Y-110857199D01*
X149385888Y-110122269D01*
X149391688Y-109231286D01*
X149394218Y-108186900D01*
X149394333Y-107886525D01*
X149394333Y-103589667D01*
X150770166Y-103566403D01*
X151231336Y-103555035D01*
X151626754Y-103538477D01*
X151928303Y-103518460D01*
X152107867Y-103496712D01*
X152145947Y-103481736D01*
X152065857Y-103462343D01*
X151843942Y-103447056D01*
X151507680Y-103436788D01*
X151084549Y-103432454D01*
X150705746Y-103433836D01*
G36*
X145993555Y-112042222D02*
X146005178Y-112092556D01*
X146050000Y-112098667D01*
X146119690Y-112067688D01*
X146106444Y-112042222D01*
X146005965Y-112032089D01*
X145993555Y-112042222D01*
X145993555Y-112042222D01*
G37*
X145993555Y-112042222D02*
X146005178Y-112092556D01*
X146050000Y-112098667D01*
X146119690Y-112067688D01*
X146106444Y-112042222D01*
X146005965Y-112032089D01*
X145993555Y-112042222D01*
G36*
X146388666Y-111971667D02*
X146431000Y-112014000D01*
X146473333Y-111971667D01*
X146431000Y-111929333D01*
X146388666Y-111971667D01*
X146388666Y-111971667D01*
G37*
X146388666Y-111971667D02*
X146431000Y-112014000D01*
X146473333Y-111971667D01*
X146431000Y-111929333D01*
X146388666Y-111971667D01*
G36*
X146219333Y-111971667D02*
X146261666Y-112014000D01*
X146304000Y-111971667D01*
X146261666Y-111929333D01*
X146219333Y-111971667D01*
X146219333Y-111971667D01*
G37*
X146219333Y-111971667D02*
X146261666Y-112014000D01*
X146304000Y-111971667D01*
X146261666Y-111929333D01*
X146219333Y-111971667D01*
G36*
X149622154Y-111804204D02*
X149606000Y-111844667D01*
X149666767Y-111926910D01*
X149685670Y-111929333D01*
X149800337Y-111867789D01*
X149817666Y-111844667D01*
X149798473Y-111772183D01*
X149737997Y-111760000D01*
X149622154Y-111804204D01*
X149622154Y-111804204D01*
G37*
X149622154Y-111804204D02*
X149606000Y-111844667D01*
X149666767Y-111926910D01*
X149685670Y-111929333D01*
X149800337Y-111867789D01*
X149817666Y-111844667D01*
X149798473Y-111772183D01*
X149737997Y-111760000D01*
X149622154Y-111804204D01*
G36*
X146650302Y-111777632D02*
X146660679Y-111856371D01*
X146707311Y-111920105D01*
X146762643Y-111856030D01*
X146793711Y-111731385D01*
X146778145Y-111697922D01*
X146694445Y-111684019D01*
X146650302Y-111777632D01*
X146650302Y-111777632D01*
G37*
X146650302Y-111777632D02*
X146660679Y-111856371D01*
X146707311Y-111920105D01*
X146762643Y-111856030D01*
X146793711Y-111731385D01*
X146778145Y-111697922D01*
X146694445Y-111684019D01*
X146650302Y-111777632D01*
G36*
X150042415Y-111540248D02*
X149951521Y-111625499D01*
X149970167Y-111674509D01*
X149982003Y-111675333D01*
X150053616Y-111615196D01*
X150079751Y-111577585D01*
X150089731Y-111519648D01*
X150042415Y-111540248D01*
X150042415Y-111540248D01*
G37*
X150042415Y-111540248D02*
X149951521Y-111625499D01*
X149970167Y-111674509D01*
X149982003Y-111675333D01*
X150053616Y-111615196D01*
X150079751Y-111577585D01*
X150089731Y-111519648D01*
X150042415Y-111540248D01*
G36*
X146462998Y-111364183D02*
X146406906Y-111504480D01*
X146412779Y-111558335D01*
X146470532Y-111528150D01*
X146505207Y-111460393D01*
X146553176Y-111299626D01*
X146533481Y-111267551D01*
X146462998Y-111364183D01*
X146462998Y-111364183D01*
G37*
X146462998Y-111364183D02*
X146406906Y-111504480D01*
X146412779Y-111558335D01*
X146470532Y-111528150D01*
X146505207Y-111460393D01*
X146553176Y-111299626D01*
X146533481Y-111267551D01*
X146462998Y-111364183D01*
G36*
X146890026Y-111178904D02*
X146845697Y-111238636D01*
X146761190Y-111392778D01*
X146754171Y-111476393D01*
X146821522Y-111448050D01*
X146889807Y-111349484D01*
X146970115Y-111170798D01*
X146967969Y-111108362D01*
X146890026Y-111178904D01*
X146890026Y-111178904D01*
G37*
X146890026Y-111178904D02*
X146845697Y-111238636D01*
X146761190Y-111392778D01*
X146754171Y-111476393D01*
X146821522Y-111448050D01*
X146889807Y-111349484D01*
X146970115Y-111170798D01*
X146967969Y-111108362D01*
X146890026Y-111178904D01*
G36*
X150300252Y-110189728D02*
X150276851Y-110486419D01*
X150260278Y-110765167D01*
X150250460Y-111144788D01*
X150272199Y-111361867D01*
X150317216Y-111421531D01*
X150365193Y-111344441D01*
X150386062Y-111109780D01*
X150380213Y-110712849D01*
X150378891Y-110680697D01*
X150359857Y-110307448D01*
X150340946Y-110100819D01*
X150321347Y-110061387D01*
X150300252Y-110189728D01*
X150300252Y-110189728D01*
G37*
X150300252Y-110189728D02*
X150276851Y-110486419D01*
X150260278Y-110765167D01*
X150250460Y-111144788D01*
X150272199Y-111361867D01*
X150317216Y-111421531D01*
X150365193Y-111344441D01*
X150386062Y-111109780D01*
X150380213Y-110712849D01*
X150378891Y-110680697D01*
X150359857Y-110307448D01*
X150340946Y-110100819D01*
X150321347Y-110061387D01*
X150300252Y-110189728D01*
G36*
X146516266Y-111083636D02*
X146606822Y-111153822D01*
X146703867Y-111165600D01*
X146727333Y-111134058D01*
X146660920Y-111079682D01*
X146595936Y-111050361D01*
X146508536Y-111044444D01*
X146516266Y-111083636D01*
X146516266Y-111083636D01*
G37*
X146516266Y-111083636D02*
X146606822Y-111153822D01*
X146703867Y-111165600D01*
X146727333Y-111134058D01*
X146660920Y-111079682D01*
X146595936Y-111050361D01*
X146508536Y-111044444D01*
X146516266Y-111083636D01*
G36*
X147446112Y-110151430D02*
X147247720Y-110359332D01*
X147124334Y-110649869D01*
X147117287Y-110683714D01*
X147090320Y-110884801D01*
X147096850Y-110992359D01*
X147104497Y-110998000D01*
X147149502Y-110932712D01*
X147150666Y-110913977D01*
X147208451Y-110786830D01*
X147366497Y-110573579D01*
X147601848Y-110304270D01*
X147679833Y-110221488D01*
X147779227Y-110107587D01*
X147758500Y-110071265D01*
X147679833Y-110069483D01*
X147446112Y-110151430D01*
X147446112Y-110151430D01*
G37*
X147446112Y-110151430D02*
X147247720Y-110359332D01*
X147124334Y-110649869D01*
X147117287Y-110683714D01*
X147090320Y-110884801D01*
X147096850Y-110992359D01*
X147104497Y-110998000D01*
X147149502Y-110932712D01*
X147150666Y-110913977D01*
X147208451Y-110786830D01*
X147366497Y-110573579D01*
X147601848Y-110304270D01*
X147679833Y-110221488D01*
X147779227Y-110107587D01*
X147758500Y-110071265D01*
X147679833Y-110069483D01*
X147446112Y-110151430D01*
G36*
X150997215Y-110370275D02*
X150960666Y-110532333D01*
X150992598Y-110708168D01*
X151088267Y-110727142D01*
X151197733Y-110642400D01*
X151293076Y-110481255D01*
X151255412Y-110359093D01*
X151130000Y-110320667D01*
X150997215Y-110370275D01*
X150997215Y-110370275D01*
G37*
X150997215Y-110370275D02*
X150960666Y-110532333D01*
X150992598Y-110708168D01*
X151088267Y-110727142D01*
X151197733Y-110642400D01*
X151293076Y-110481255D01*
X151255412Y-110359093D01*
X151130000Y-110320667D01*
X150997215Y-110370275D01*
G36*
X147165065Y-109952320D02*
X147055123Y-110101503D01*
X146957068Y-110306810D01*
X146887932Y-110516691D01*
X146864746Y-110679599D01*
X146903491Y-110744000D01*
X146964168Y-110672167D01*
X146981333Y-110552635D01*
X147037136Y-110365490D01*
X147174189Y-110154765D01*
X147201567Y-110123757D01*
X147337479Y-109948713D01*
X147372212Y-109846176D01*
X147311045Y-109840947D01*
X147165065Y-109952320D01*
X147165065Y-109952320D01*
G37*
X147165065Y-109952320D02*
X147055123Y-110101503D01*
X146957068Y-110306810D01*
X146887932Y-110516691D01*
X146864746Y-110679599D01*
X146903491Y-110744000D01*
X146964168Y-110672167D01*
X146981333Y-110552635D01*
X147037136Y-110365490D01*
X147174189Y-110154765D01*
X147201567Y-110123757D01*
X147337479Y-109948713D01*
X147372212Y-109846176D01*
X147311045Y-109840947D01*
X147165065Y-109952320D01*
G36*
X152357666Y-109488613D02*
X151989284Y-109493842D01*
X151777984Y-109501275D01*
X151711513Y-109513279D01*
X151777620Y-109532221D01*
X151964053Y-109560466D01*
X151976666Y-109562214D01*
X152344294Y-109602596D01*
X152731927Y-109629825D01*
X152876466Y-109634960D01*
X153198915Y-109668639D01*
X153395257Y-109749765D01*
X153416000Y-109770333D01*
X153456138Y-109797718D01*
X153535962Y-109820949D01*
X153668211Y-109840354D01*
X153865627Y-109856262D01*
X154140949Y-109869001D01*
X154506918Y-109878902D01*
X154976275Y-109886291D01*
X155561760Y-109891499D01*
X156276114Y-109894854D01*
X157132078Y-109896685D01*
X158142390Y-109897320D01*
X158337033Y-109897333D01*
X159493672Y-109895851D01*
X160496003Y-109891432D01*
X161341780Y-109884116D01*
X162028752Y-109873941D01*
X162554673Y-109860947D01*
X162917293Y-109845174D01*
X163114364Y-109826662D01*
X163152666Y-109812667D01*
X163068386Y-109792320D01*
X162817045Y-109774690D01*
X162400898Y-109759815D01*
X161822195Y-109747736D01*
X161083189Y-109738491D01*
X160186134Y-109732121D01*
X159133281Y-109728665D01*
X158342849Y-109728000D01*
X157298980Y-109727483D01*
X156411678Y-109725721D01*
X155668180Y-109722395D01*
X155055722Y-109717185D01*
X154561541Y-109709773D01*
X154172872Y-109699839D01*
X153876953Y-109687064D01*
X153661019Y-109671131D01*
X153512307Y-109651719D01*
X153418054Y-109628510D01*
X153368682Y-109603693D01*
X153228741Y-109540704D01*
X152993311Y-109503320D01*
X152634121Y-109488321D01*
X152357666Y-109488613D01*
X152357666Y-109488613D01*
G37*
X152357666Y-109488613D02*
X151989284Y-109493842D01*
X151777984Y-109501275D01*
X151711513Y-109513279D01*
X151777620Y-109532221D01*
X151964053Y-109560466D01*
X151976666Y-109562214D01*
X152344294Y-109602596D01*
X152731927Y-109629825D01*
X152876466Y-109634960D01*
X153198915Y-109668639D01*
X153395257Y-109749765D01*
X153416000Y-109770333D01*
X153456138Y-109797718D01*
X153535962Y-109820949D01*
X153668211Y-109840354D01*
X153865627Y-109856262D01*
X154140949Y-109869001D01*
X154506918Y-109878902D01*
X154976275Y-109886291D01*
X155561760Y-109891499D01*
X156276114Y-109894854D01*
X157132078Y-109896685D01*
X158142390Y-109897320D01*
X158337033Y-109897333D01*
X159493672Y-109895851D01*
X160496003Y-109891432D01*
X161341780Y-109884116D01*
X162028752Y-109873941D01*
X162554673Y-109860947D01*
X162917293Y-109845174D01*
X163114364Y-109826662D01*
X163152666Y-109812667D01*
X163068386Y-109792320D01*
X162817045Y-109774690D01*
X162400898Y-109759815D01*
X161822195Y-109747736D01*
X161083189Y-109738491D01*
X160186134Y-109732121D01*
X159133281Y-109728665D01*
X158342849Y-109728000D01*
X157298980Y-109727483D01*
X156411678Y-109725721D01*
X155668180Y-109722395D01*
X155055722Y-109717185D01*
X154561541Y-109709773D01*
X154172872Y-109699839D01*
X153876953Y-109687064D01*
X153661019Y-109671131D01*
X153512307Y-109651719D01*
X153418054Y-109628510D01*
X153368682Y-109603693D01*
X153228741Y-109540704D01*
X152993311Y-109503320D01*
X152634121Y-109488321D01*
X152357666Y-109488613D01*
G36*
X150747985Y-109741918D02*
X150578843Y-109777822D01*
X150537333Y-109812667D01*
X150613885Y-109859033D01*
X150811358Y-109889786D01*
X151003000Y-109897333D01*
X151258015Y-109883415D01*
X151427156Y-109847511D01*
X151468666Y-109812667D01*
X151392115Y-109766300D01*
X151194642Y-109735547D01*
X151003000Y-109728000D01*
X150747985Y-109741918D01*
X150747985Y-109741918D01*
G37*
X150747985Y-109741918D02*
X150578843Y-109777822D01*
X150537333Y-109812667D01*
X150613885Y-109859033D01*
X150811358Y-109889786D01*
X151003000Y-109897333D01*
X151258015Y-109883415D01*
X151427156Y-109847511D01*
X151468666Y-109812667D01*
X151392115Y-109766300D01*
X151194642Y-109735547D01*
X151003000Y-109728000D01*
X150747985Y-109741918D01*
G36*
X148082000Y-109855000D02*
X148124333Y-109897333D01*
X148166666Y-109855000D01*
X148124333Y-109812667D01*
X148082000Y-109855000D01*
X148082000Y-109855000D01*
G37*
X148082000Y-109855000D02*
X148124333Y-109897333D01*
X148166666Y-109855000D01*
X148124333Y-109812667D01*
X148082000Y-109855000D01*
G36*
X148585504Y-102992745D02*
X148562206Y-103115066D01*
X148542708Y-103333687D01*
X148526558Y-103660681D01*
X148513303Y-104108121D01*
X148502491Y-104688079D01*
X148493668Y-105412629D01*
X148486381Y-106293843D01*
X148486055Y-106341363D01*
X148481107Y-107222218D01*
X148479589Y-107946595D01*
X148481815Y-108527322D01*
X148488097Y-108977226D01*
X148498750Y-109309134D01*
X148514087Y-109535873D01*
X148534421Y-109670270D01*
X148560067Y-109725152D01*
X148568833Y-109728029D01*
X148667736Y-109687610D01*
X148675240Y-109664500D01*
X148686155Y-108377210D01*
X148694106Y-107250779D01*
X148699016Y-106276754D01*
X148700806Y-105446687D01*
X148699397Y-104752125D01*
X148694712Y-104184619D01*
X148686672Y-103735717D01*
X148675199Y-103396969D01*
X148660214Y-103159924D01*
X148641639Y-103016132D01*
X148619396Y-102957142D01*
X148613055Y-102954653D01*
X148585504Y-102992745D01*
X148585504Y-102992745D01*
G37*
X148585504Y-102992745D02*
X148562206Y-103115066D01*
X148542708Y-103333687D01*
X148526558Y-103660681D01*
X148513303Y-104108121D01*
X148502491Y-104688079D01*
X148493668Y-105412629D01*
X148486381Y-106293843D01*
X148486055Y-106341363D01*
X148481107Y-107222218D01*
X148479589Y-107946595D01*
X148481815Y-108527322D01*
X148488097Y-108977226D01*
X148498750Y-109309134D01*
X148514087Y-109535873D01*
X148534421Y-109670270D01*
X148560067Y-109725152D01*
X148568833Y-109728029D01*
X148667736Y-109687610D01*
X148675240Y-109664500D01*
X148686155Y-108377210D01*
X148694106Y-107250779D01*
X148699016Y-106276754D01*
X148700806Y-105446687D01*
X148699397Y-104752125D01*
X148694712Y-104184619D01*
X148686672Y-103735717D01*
X148675199Y-103396969D01*
X148660214Y-103159924D01*
X148641639Y-103016132D01*
X148619396Y-102957142D01*
X148613055Y-102954653D01*
X148585504Y-102992745D01*
G36*
X148278121Y-103949416D02*
X148275430Y-104055333D01*
X148258540Y-104959356D01*
X148245551Y-105822986D01*
X148236472Y-106630979D01*
X148231312Y-107368089D01*
X148230077Y-108019071D01*
X148232778Y-108568680D01*
X148239422Y-109001669D01*
X148250016Y-109302795D01*
X148264570Y-109456810D01*
X148272500Y-109474063D01*
X148286101Y-109392421D01*
X148297766Y-109159662D01*
X148307245Y-108793996D01*
X148314290Y-108313630D01*
X148318650Y-107736773D01*
X148320077Y-107081634D01*
X148318321Y-106366420D01*
X148317429Y-106193167D01*
X148312919Y-105518715D01*
X148307694Y-104944552D01*
X148301961Y-104481288D01*
X148295929Y-104139533D01*
X148289806Y-103929896D01*
X148283801Y-103862987D01*
X148278121Y-103949416D01*
X148278121Y-103949416D01*
G37*
X148278121Y-103949416D02*
X148275430Y-104055333D01*
X148258540Y-104959356D01*
X148245551Y-105822986D01*
X148236472Y-106630979D01*
X148231312Y-107368089D01*
X148230077Y-108019071D01*
X148232778Y-108568680D01*
X148239422Y-109001669D01*
X148250016Y-109302795D01*
X148264570Y-109456810D01*
X148272500Y-109474063D01*
X148286101Y-109392421D01*
X148297766Y-109159662D01*
X148307245Y-108793996D01*
X148314290Y-108313630D01*
X148318650Y-107736773D01*
X148320077Y-107081634D01*
X148318321Y-106366420D01*
X148317429Y-106193167D01*
X148312919Y-105518715D01*
X148307694Y-104944552D01*
X148301961Y-104481288D01*
X148295929Y-104139533D01*
X148289806Y-103929896D01*
X148283801Y-103862987D01*
X148278121Y-103949416D01*
G36*
X155499040Y-106778911D02*
X154735793Y-106784611D01*
X154616603Y-106785915D01*
X154301734Y-106790415D01*
X154149255Y-106794642D01*
X154152220Y-106798517D01*
X154303686Y-106801963D01*
X154596707Y-106804902D01*
X155024340Y-106807255D01*
X155579640Y-106808943D01*
X156255663Y-106809889D01*
X156760333Y-106810069D01*
X157509803Y-106809642D01*
X158141630Y-106808426D01*
X158649072Y-106806497D01*
X159025386Y-106803934D01*
X159263828Y-106800816D01*
X159357656Y-106797219D01*
X159300126Y-106793222D01*
X159084496Y-106788903D01*
X158849936Y-106785887D01*
X158095811Y-106779676D01*
X157243192Y-106776443D01*
X156356220Y-106776188D01*
X155499040Y-106778911D01*
X155499040Y-106778911D01*
G37*
X155499040Y-106778911D02*
X154735793Y-106784611D01*
X154616603Y-106785915D01*
X154301734Y-106790415D01*
X154149255Y-106794642D01*
X154152220Y-106798517D01*
X154303686Y-106801963D01*
X154596707Y-106804902D01*
X155024340Y-106807255D01*
X155579640Y-106808943D01*
X156255663Y-106809889D01*
X156760333Y-106810069D01*
X157509803Y-106809642D01*
X158141630Y-106808426D01*
X158649072Y-106806497D01*
X159025386Y-106803934D01*
X159263828Y-106800816D01*
X159357656Y-106797219D01*
X159300126Y-106793222D01*
X159084496Y-106788903D01*
X158849936Y-106785887D01*
X158095811Y-106779676D01*
X157243192Y-106776443D01*
X156356220Y-106776188D01*
X155499040Y-106778911D01*
G36*
X152283612Y-103460849D02*
X152258807Y-103702366D01*
X152241474Y-104092003D01*
X152232168Y-104619215D01*
X152230666Y-104986667D01*
X152235027Y-105589369D01*
X152247738Y-106060657D01*
X152268246Y-106389986D01*
X152295994Y-106566809D01*
X152315333Y-106595333D01*
X152347054Y-106512484D01*
X152371859Y-106270967D01*
X152389192Y-105881330D01*
X152398499Y-105354118D01*
X152400000Y-104986667D01*
X152395639Y-104383964D01*
X152382928Y-103912676D01*
X152362421Y-103583347D01*
X152334673Y-103406524D01*
X152315333Y-103378000D01*
X152283612Y-103460849D01*
X152283612Y-103460849D01*
G37*
X152283612Y-103460849D02*
X152258807Y-103702366D01*
X152241474Y-104092003D01*
X152232168Y-104619215D01*
X152230666Y-104986667D01*
X152235027Y-105589369D01*
X152247738Y-106060657D01*
X152268246Y-106389986D01*
X152295994Y-106566809D01*
X152315333Y-106595333D01*
X152347054Y-106512484D01*
X152371859Y-106270967D01*
X152389192Y-105881330D01*
X152398499Y-105354118D01*
X152400000Y-104986667D01*
X152395639Y-104383964D01*
X152382928Y-103912676D01*
X152362421Y-103583347D01*
X152334673Y-103406524D01*
X152315333Y-103378000D01*
X152283612Y-103460849D01*
G36*
X152992666Y-106341333D02*
X156762990Y-106341333D01*
X157695146Y-106340420D01*
X158470640Y-106337438D01*
X159102134Y-106332024D01*
X159602289Y-106323818D01*
X159983770Y-106312456D01*
X160259237Y-106297576D01*
X160441354Y-106278816D01*
X160542782Y-106255814D01*
X160575174Y-106232250D01*
X160587870Y-106114248D01*
X160596150Y-105857876D01*
X160599632Y-105494049D01*
X160597946Y-105056082D01*
X160092145Y-105056082D01*
X160090788Y-105411778D01*
X160082750Y-105673639D01*
X160068616Y-105804912D01*
X160067729Y-105807470D01*
X159992063Y-105862771D01*
X159802212Y-105897769D01*
X159477560Y-105915048D01*
X159185049Y-105918000D01*
X158786959Y-105913348D01*
X158527758Y-105896360D01*
X158377179Y-105862491D01*
X158304958Y-105807196D01*
X158293392Y-105784075D01*
X158272692Y-105648647D01*
X158255979Y-105384210D01*
X158245154Y-105031077D01*
X158242000Y-104693775D01*
X158248023Y-104237518D01*
X158267915Y-103925900D01*
X158304407Y-103734595D01*
X158360233Y-103639276D01*
X158360473Y-103639077D01*
X158519186Y-103587842D01*
X158832041Y-103563019D01*
X159270639Y-103565210D01*
X160062333Y-103589667D01*
X160086238Y-104643303D01*
X160092145Y-105056082D01*
X160597946Y-105056082D01*
X160597936Y-105053680D01*
X160593683Y-104729416D01*
X160570333Y-103335667D01*
X156781500Y-103313628D01*
X152992666Y-103291590D01*
X152992666Y-106341333D01*
X152992666Y-106341333D01*
G37*
X152992666Y-106341333D02*
X156762990Y-106341333D01*
X157695146Y-106340420D01*
X158470640Y-106337438D01*
X159102134Y-106332024D01*
X159602289Y-106323818D01*
X159983770Y-106312456D01*
X160259237Y-106297576D01*
X160441354Y-106278816D01*
X160542782Y-106255814D01*
X160575174Y-106232250D01*
X160587870Y-106114248D01*
X160596150Y-105857876D01*
X160599632Y-105494049D01*
X160597946Y-105056082D01*
X160092145Y-105056082D01*
X160090788Y-105411778D01*
X160082750Y-105673639D01*
X160068616Y-105804912D01*
X160067729Y-105807470D01*
X159992063Y-105862771D01*
X159802212Y-105897769D01*
X159477560Y-105915048D01*
X159185049Y-105918000D01*
X158786959Y-105913348D01*
X158527758Y-105896360D01*
X158377179Y-105862491D01*
X158304958Y-105807196D01*
X158293392Y-105784075D01*
X158272692Y-105648647D01*
X158255979Y-105384210D01*
X158245154Y-105031077D01*
X158242000Y-104693775D01*
X158248023Y-104237518D01*
X158267915Y-103925900D01*
X158304407Y-103734595D01*
X158360233Y-103639276D01*
X158360473Y-103639077D01*
X158519186Y-103587842D01*
X158832041Y-103563019D01*
X159270639Y-103565210D01*
X160062333Y-103589667D01*
X160086238Y-104643303D01*
X160092145Y-105056082D01*
X160597946Y-105056082D01*
X160597936Y-105053680D01*
X160593683Y-104729416D01*
X160570333Y-103335667D01*
X156781500Y-103313628D01*
X152992666Y-103291590D01*
X152992666Y-106341333D01*
G36*
X164689765Y-104189710D02*
X164724318Y-104290973D01*
X164822876Y-104371992D01*
X164830182Y-104374616D01*
X164893931Y-104348164D01*
X164879332Y-104274075D01*
X164792818Y-104157620D01*
X164745219Y-104140000D01*
X164689765Y-104189710D01*
X164689765Y-104189710D01*
G37*
X164689765Y-104189710D02*
X164724318Y-104290973D01*
X164822876Y-104371992D01*
X164830182Y-104374616D01*
X164893931Y-104348164D01*
X164879332Y-104274075D01*
X164792818Y-104157620D01*
X164745219Y-104140000D01*
X164689765Y-104189710D01*
G36*
X163494725Y-102986811D02*
X163566222Y-103095478D01*
X163747719Y-103299015D01*
X163776497Y-103329638D01*
X163988542Y-103539985D01*
X164113091Y-103623602D01*
X164164943Y-103588705D01*
X164168666Y-103547333D01*
X164103579Y-103465920D01*
X164079003Y-103462667D01*
X164028147Y-103410930D01*
X164041067Y-103378970D01*
X164025348Y-103331842D01*
X163940231Y-103350126D01*
X163843306Y-103366647D01*
X163849627Y-103336585D01*
X163831929Y-103249910D01*
X163735064Y-103117067D01*
X163611260Y-102998701D01*
X163520712Y-102954667D01*
X163494725Y-102986811D01*
X163494725Y-102986811D01*
G37*
X163494725Y-102986811D02*
X163566222Y-103095478D01*
X163747719Y-103299015D01*
X163776497Y-103329638D01*
X163988542Y-103539985D01*
X164113091Y-103623602D01*
X164164943Y-103588705D01*
X164168666Y-103547333D01*
X164103579Y-103465920D01*
X164079003Y-103462667D01*
X164028147Y-103410930D01*
X164041067Y-103378970D01*
X164025348Y-103331842D01*
X163940231Y-103350126D01*
X163843306Y-103366647D01*
X163849627Y-103336585D01*
X163831929Y-103249910D01*
X163735064Y-103117067D01*
X163611260Y-102998701D01*
X163520712Y-102954667D01*
X163494725Y-102986811D01*
G36*
X160591509Y-114827542D02*
X160585225Y-114842056D01*
X160584146Y-114993706D01*
X160679463Y-115061612D01*
X160810222Y-115005555D01*
X160863415Y-114877144D01*
X160866666Y-114836222D01*
X160810047Y-114739189D01*
X160692282Y-114736835D01*
X160591509Y-114827542D01*
X160591509Y-114827542D01*
G37*
X160591509Y-114827542D02*
X160585225Y-114842056D01*
X160584146Y-114993706D01*
X160679463Y-115061612D01*
X160810222Y-115005555D01*
X160863415Y-114877144D01*
X160866666Y-114836222D01*
X160810047Y-114739189D01*
X160692282Y-114736835D01*
X160591509Y-114827542D01*
G36*
X153608905Y-114793919D02*
X153585333Y-114892667D01*
X153627704Y-115040166D01*
X153733121Y-115044966D01*
X153782889Y-115005555D01*
X153839873Y-114869952D01*
X153790907Y-114751765D01*
X153712333Y-114723333D01*
X153608905Y-114793919D01*
X153608905Y-114793919D01*
G37*
X153608905Y-114793919D02*
X153585333Y-114892667D01*
X153627704Y-115040166D01*
X153733121Y-115044966D01*
X153782889Y-115005555D01*
X153839873Y-114869952D01*
X153790907Y-114751765D01*
X153712333Y-114723333D01*
X153608905Y-114793919D01*
G36*
X158834688Y-104711500D02*
X158834709Y-105452333D01*
X159215688Y-105460452D01*
X159596666Y-105468571D01*
X159596666Y-104732667D01*
X159427333Y-104732667D01*
X159424221Y-105042302D01*
X159406097Y-105219513D01*
X159359786Y-105301198D01*
X159272108Y-105324254D01*
X159215666Y-105325333D01*
X159105082Y-105316618D01*
X159041793Y-105265873D01*
X159012620Y-105136201D01*
X159004385Y-104890702D01*
X159004000Y-104732667D01*
X159007112Y-104423031D01*
X159025236Y-104245820D01*
X159071547Y-104164135D01*
X159159225Y-104141079D01*
X159215666Y-104140000D01*
X159326251Y-104148715D01*
X159389540Y-104199460D01*
X159418713Y-104329132D01*
X159426948Y-104574631D01*
X159427333Y-104732667D01*
X159596666Y-104732667D01*
X159596666Y-103970667D01*
X158834666Y-103970667D01*
X158834688Y-104711500D01*
X158834688Y-104711500D01*
G37*
X158834688Y-104711500D02*
X158834709Y-105452333D01*
X159215688Y-105460452D01*
X159596666Y-105468571D01*
X159596666Y-104732667D01*
X159427333Y-104732667D01*
X159424221Y-105042302D01*
X159406097Y-105219513D01*
X159359786Y-105301198D01*
X159272108Y-105324254D01*
X159215666Y-105325333D01*
X159105082Y-105316618D01*
X159041793Y-105265873D01*
X159012620Y-105136201D01*
X159004385Y-104890702D01*
X159004000Y-104732667D01*
X159007112Y-104423031D01*
X159025236Y-104245820D01*
X159071547Y-104164135D01*
X159159225Y-104141079D01*
X159215666Y-104140000D01*
X159326251Y-104148715D01*
X159389540Y-104199460D01*
X159418713Y-104329132D01*
X159426948Y-104574631D01*
X159427333Y-104732667D01*
X159596666Y-104732667D01*
X159596666Y-103970667D01*
X158834666Y-103970667D01*
X158834688Y-104711500D01*
D13*
X189793333Y-79636667D02*
X189317142Y-79636667D01*
X189888571Y-79922381D02*
X189555238Y-78922381D01*
X189221904Y-79922381D01*
X188317142Y-79827143D02*
X188364761Y-79874762D01*
X188507618Y-79922381D01*
X188602856Y-79922381D01*
X188745714Y-79874762D01*
X188840952Y-79779524D01*
X188888571Y-79684286D01*
X188936190Y-79493810D01*
X188936190Y-79350952D01*
X188888571Y-79160476D01*
X188840952Y-79065238D01*
X188745714Y-78970000D01*
X188602856Y-78922381D01*
X188507618Y-78922381D01*
X188364761Y-78970000D01*
X188317142Y-79017619D01*
X188031428Y-78922381D02*
X187459999Y-78922381D01*
X187745714Y-79922381D02*
X187745714Y-78922381D01*
X187126666Y-79827143D02*
X187079047Y-79874762D01*
X187126666Y-79922381D01*
X187174285Y-79874762D01*
X187126666Y-79827143D01*
X187126666Y-79922381D01*
X186745714Y-78922381D02*
X186126666Y-78922381D01*
X186460000Y-79303333D01*
X186317142Y-79303333D01*
X186221904Y-79350952D01*
X186174285Y-79398571D01*
X186126666Y-79493810D01*
X186126666Y-79731905D01*
X186174285Y-79827143D01*
X186221904Y-79874762D01*
X186317142Y-79922381D01*
X186602857Y-79922381D01*
X186698095Y-79874762D01*
X186745714Y-79827143D01*
X181776666Y-80462381D02*
X182110000Y-79986190D01*
X182348095Y-80462381D02*
X182348095Y-79462381D01*
X181967142Y-79462381D01*
X181871904Y-79510000D01*
X181824285Y-79557619D01*
X181776666Y-79652857D01*
X181776666Y-79795714D01*
X181824285Y-79890952D01*
X181871904Y-79938571D01*
X181967142Y-79986190D01*
X182348095Y-79986190D01*
X181443333Y-79462381D02*
X180824285Y-79462381D01*
X181157619Y-79843333D01*
X181014761Y-79843333D01*
X180919523Y-79890952D01*
X180871904Y-79938571D01*
X180824285Y-80033810D01*
X180824285Y-80271905D01*
X180871904Y-80367143D01*
X180919523Y-80414762D01*
X181014761Y-80462381D01*
X181300476Y-80462381D01*
X181395714Y-80414762D01*
X181443333Y-80367143D01*
X163138571Y-86764762D02*
X163043333Y-86812381D01*
X162852857Y-86812381D01*
X162757618Y-86764762D01*
X162709999Y-86669524D01*
X162709999Y-86621905D01*
X162757618Y-86526667D01*
X162852857Y-86479048D01*
X162995714Y-86479048D01*
X163090952Y-86431429D01*
X163138571Y-86336190D01*
X163138571Y-86288571D01*
X163090952Y-86193333D01*
X162995714Y-86145714D01*
X162852857Y-86145714D01*
X162757618Y-86193333D01*
X161852856Y-86764762D02*
X161948094Y-86812381D01*
X162138571Y-86812381D01*
X162233809Y-86764762D01*
X162281428Y-86717143D01*
X162329047Y-86621905D01*
X162329047Y-86336190D01*
X162281428Y-86240952D01*
X162233809Y-86193333D01*
X162138571Y-86145714D01*
X161948094Y-86145714D01*
X161852856Y-86193333D01*
X161471904Y-86764762D02*
X161376666Y-86812381D01*
X161186190Y-86812381D01*
X161090951Y-86764762D01*
X161043332Y-86669524D01*
X161043332Y-86621905D01*
X161090951Y-86526667D01*
X161186190Y-86479048D01*
X161329047Y-86479048D01*
X161424285Y-86431429D01*
X161471904Y-86336190D01*
X161471904Y-86288571D01*
X161424285Y-86193333D01*
X161329047Y-86145714D01*
X161186190Y-86145714D01*
X161090951Y-86193333D01*
X160614761Y-86812381D02*
X160614761Y-86145714D01*
X160614761Y-85812381D02*
X160662380Y-85860000D01*
X160614761Y-85907619D01*
X160567142Y-85860000D01*
X160614761Y-85812381D01*
X160614761Y-85907619D01*
X160138571Y-86717143D02*
X160090952Y-86764762D01*
X160138571Y-86812381D01*
X160186190Y-86764762D01*
X160138571Y-86717143D01*
X160138571Y-86812381D01*
X159233809Y-86812381D02*
X159233809Y-85812381D01*
X159233809Y-86764762D02*
X159329047Y-86812381D01*
X159519524Y-86812381D01*
X159614762Y-86764762D01*
X159662381Y-86717143D01*
X159710000Y-86621905D01*
X159710000Y-86336190D01*
X159662381Y-86240952D01*
X159614762Y-86193333D01*
X159519524Y-86145714D01*
X159329047Y-86145714D01*
X159233809Y-86193333D01*
X158376666Y-86764762D02*
X158471904Y-86812381D01*
X158662381Y-86812381D01*
X158757619Y-86764762D01*
X158805238Y-86669524D01*
X158805238Y-86288571D01*
X158757619Y-86193333D01*
X158662381Y-86145714D01*
X158471904Y-86145714D01*
X158376666Y-86193333D01*
X158329047Y-86288571D01*
X158329047Y-86383810D01*
X158805238Y-86479048D01*
X157995714Y-86145714D02*
X157757619Y-86812381D01*
X157519523Y-86145714D01*
X157138571Y-86812381D02*
X157138571Y-86145714D01*
X157138571Y-85812381D02*
X157186190Y-85860000D01*
X157138571Y-85907619D01*
X157090952Y-85860000D01*
X157138571Y-85812381D01*
X157138571Y-85907619D01*
X156233809Y-86764762D02*
X156329047Y-86812381D01*
X156519524Y-86812381D01*
X156614762Y-86764762D01*
X156662381Y-86717143D01*
X156710000Y-86621905D01*
X156710000Y-86336190D01*
X156662381Y-86240952D01*
X156614762Y-86193333D01*
X156519524Y-86145714D01*
X156329047Y-86145714D01*
X156233809Y-86193333D01*
X155424285Y-86764762D02*
X155519523Y-86812381D01*
X155710000Y-86812381D01*
X155805238Y-86764762D01*
X155852857Y-86669524D01*
X155852857Y-86288571D01*
X155805238Y-86193333D01*
X155710000Y-86145714D01*
X155519523Y-86145714D01*
X155424285Y-86193333D01*
X155376666Y-86288571D01*
X155376666Y-86383810D01*
X155852857Y-86479048D01*
X154948095Y-86717143D02*
X154900476Y-86764762D01*
X154948095Y-86812381D01*
X154995714Y-86764762D01*
X154948095Y-86717143D01*
X154948095Y-86812381D01*
X154043333Y-86145714D02*
X154043333Y-86812381D01*
X154281429Y-85764762D02*
X154519524Y-86479048D01*
X153900476Y-86479048D01*
X153090952Y-86145714D02*
X153090952Y-86812381D01*
X153329048Y-85764762D02*
X153567143Y-86479048D01*
X152948095Y-86479048D01*
X152567143Y-86145714D02*
X152567143Y-87145714D01*
X152567143Y-86193333D02*
X152471905Y-86145714D01*
X152281428Y-86145714D01*
X152186190Y-86193333D01*
X152138571Y-86240952D01*
X152090952Y-86336190D01*
X152090952Y-86621905D01*
X152138571Y-86717143D01*
X152186190Y-86764762D01*
X152281428Y-86812381D01*
X152471905Y-86812381D01*
X152567143Y-86764762D01*
X151662381Y-86812381D02*
X151662381Y-86145714D01*
X151662381Y-85812381D02*
X151710000Y-85860000D01*
X151662381Y-85907619D01*
X151614762Y-85860000D01*
X151662381Y-85812381D01*
X151662381Y-85907619D01*
X151186191Y-86145714D02*
X151186191Y-86812381D01*
X151186191Y-86240952D02*
X151138572Y-86193333D01*
X151043334Y-86145714D01*
X150900476Y-86145714D01*
X150805238Y-86193333D01*
X150757619Y-86288571D01*
X150757619Y-86812381D01*
X150281429Y-86717143D02*
X150233810Y-86764762D01*
X150281429Y-86812381D01*
X150329048Y-86764762D01*
X150281429Y-86717143D01*
X150281429Y-86812381D01*
X149281429Y-86812381D02*
X149852858Y-86812381D01*
X149567144Y-86812381D02*
X149567144Y-85812381D01*
X149662382Y-85955238D01*
X149757620Y-86050476D01*
X149852858Y-86098095D01*
X173458095Y-76398381D02*
X173458095Y-75398381D01*
X173220000Y-75398381D01*
X173077142Y-75446000D01*
X172981904Y-75541238D01*
X172934285Y-75636476D01*
X172886666Y-75826952D01*
X172886666Y-75969810D01*
X172934285Y-76160286D01*
X172981904Y-76255524D01*
X173077142Y-76350762D01*
X173220000Y-76398381D01*
X173458095Y-76398381D01*
X172553333Y-75398381D02*
X171934285Y-75398381D01*
X172267619Y-75779333D01*
X172124761Y-75779333D01*
X172029523Y-75826952D01*
X171981904Y-75874571D01*
X171934285Y-75969810D01*
X171934285Y-76207905D01*
X171981904Y-76303143D01*
X172029523Y-76350762D01*
X172124761Y-76398381D01*
X172410476Y-76398381D01*
X172505714Y-76350762D01*
X172553333Y-76303143D01*
X169731905Y-76292381D02*
X169731905Y-75292381D01*
X169160476Y-76292381D02*
X169589048Y-75720952D01*
X169160476Y-75292381D02*
X169731905Y-75863810D01*
X176008095Y-76056667D02*
X175531904Y-76056667D01*
X176103333Y-76342381D02*
X175770000Y-75342381D01*
X175436666Y-76342381D01*
M02*
