G04 #@! TF.FileFunction,Legend,Top*
%FSLAX46Y46*%
G04 Gerber Fmt 4.6, Leading zero omitted, Abs format (unit mm)*
G04 Created by KiCad (PCBNEW 4.0.2+dfsg1-stable) date Sat 12 Oct 2019 23:15:48 CEST*
%MOMM*%
G01*
G04 APERTURE LIST*
%ADD10C,0.100000*%
%ADD11C,0.200000*%
%ADD12C,0.500000*%
%ADD13C,0.300000*%
%ADD14C,0.010000*%
%ADD15C,0.150000*%
%ADD16C,0.120000*%
G04 APERTURE END LIST*
D10*
D11*
X117434110Y-110945921D02*
X117999795Y-110380235D01*
X117461047Y-110918983D02*
X117380235Y-110892046D01*
X117272486Y-110784297D01*
X117245548Y-110703484D01*
X117245548Y-110649609D01*
X117272486Y-110568797D01*
X117434110Y-110407172D01*
X117514922Y-110380235D01*
X117568797Y-110380235D01*
X117649610Y-110407172D01*
X117757359Y-110514922D01*
X117784296Y-110595735D01*
X117945921Y-111403857D02*
X117865109Y-111376920D01*
X117757359Y-111269170D01*
X117730421Y-111188358D01*
X117757359Y-111107545D01*
X117972859Y-110892046D01*
X118053670Y-110865109D01*
X118134483Y-110892046D01*
X118242233Y-110999796D01*
X118269170Y-111080608D01*
X118242232Y-111161420D01*
X118188357Y-111215295D01*
X117865109Y-110999796D01*
X118188357Y-111646294D02*
X118215294Y-111727105D01*
X118323044Y-111834855D01*
X118403856Y-111861793D01*
X118484669Y-111834855D01*
X118511606Y-111807918D01*
X118538544Y-111727105D01*
X118511606Y-111646293D01*
X118430794Y-111565481D01*
X118403856Y-111484669D01*
X118430794Y-111403856D01*
X118457732Y-111376919D01*
X118538543Y-111349982D01*
X118619356Y-111376919D01*
X118700168Y-111457731D01*
X118727105Y-111538544D01*
X118646293Y-112158104D02*
X119023417Y-111780980D01*
X119211978Y-111592418D02*
X119158104Y-111592418D01*
X119158104Y-111646293D01*
X119211978Y-111646293D01*
X119211978Y-111592418D01*
X119158104Y-111646293D01*
X119535227Y-112292790D02*
X119077291Y-112750726D01*
X118996479Y-112777664D01*
X118942605Y-112777664D01*
X118861792Y-112750726D01*
X118780981Y-112669914D01*
X118754043Y-112589102D01*
X119185040Y-112642977D02*
X119104229Y-112616040D01*
X118996479Y-112508290D01*
X118969541Y-112427478D01*
X118969542Y-112373602D01*
X118996479Y-112292791D01*
X119158104Y-112131166D01*
X119238916Y-112104229D01*
X119292790Y-112104229D01*
X119373603Y-112131166D01*
X119481353Y-112238916D01*
X119508289Y-112319728D01*
X119804602Y-112562165D02*
X119427478Y-112939289D01*
X119750727Y-112616040D02*
X119804601Y-112616040D01*
X119885414Y-112642977D01*
X119966227Y-112723789D01*
X119993163Y-112804602D01*
X119966226Y-112885413D01*
X119669914Y-113181725D01*
X120181725Y-113639662D02*
X120100913Y-113612724D01*
X119993164Y-113504975D01*
X119966226Y-113424162D01*
X119993164Y-113343350D01*
X120208663Y-113127851D01*
X120289475Y-113100913D01*
X120370288Y-113127851D01*
X120478038Y-113235600D01*
X120504974Y-113316413D01*
X120478037Y-113397224D01*
X120424162Y-113451100D01*
X120100913Y-113235600D01*
X120666598Y-114178409D02*
X121232284Y-113612724D01*
X120693535Y-114151472D02*
X120612724Y-114124535D01*
X120504974Y-114016785D01*
X120478036Y-113935973D01*
X120478037Y-113882097D01*
X120504974Y-113801286D01*
X120666599Y-113639661D01*
X120747411Y-113612724D01*
X120801285Y-113612724D01*
X120882098Y-113639661D01*
X120989848Y-113747411D01*
X121016784Y-113828223D01*
X121366971Y-114878782D02*
X121932657Y-114313097D01*
X121717157Y-114528596D02*
X121797970Y-114555533D01*
X121905720Y-114663283D01*
X121932657Y-114744095D01*
X121932657Y-114797970D01*
X121905720Y-114878782D01*
X121744095Y-115040407D01*
X121663283Y-115067343D01*
X121609408Y-115067344D01*
X121528596Y-115040407D01*
X121420846Y-114932657D01*
X121393908Y-114851845D01*
X122202032Y-114959595D02*
X121959595Y-115471405D01*
X122471405Y-115228968D02*
X121959595Y-115471405D01*
X121771032Y-115552217D01*
X121717158Y-115552217D01*
X121636346Y-115525280D01*
X123064028Y-116575839D02*
X123144841Y-116117903D01*
X122740779Y-116252590D02*
X123306465Y-115686905D01*
X123521964Y-115902404D01*
X123548902Y-115983216D01*
X123548902Y-116037091D01*
X123521964Y-116117903D01*
X123441152Y-116198715D01*
X123360340Y-116225653D01*
X123306465Y-116225653D01*
X123225653Y-116198715D01*
X123010154Y-115983216D01*
X123360340Y-116764400D02*
X123360339Y-116818276D01*
X123306465Y-116818276D01*
X123306465Y-116764401D01*
X123360340Y-116764400D01*
X123306465Y-116818276D01*
X124410898Y-116845213D02*
X124383960Y-116764400D01*
X124303149Y-116683589D01*
X124195399Y-116629714D01*
X124087649Y-116629713D01*
X124006837Y-116656651D01*
X123872150Y-116737463D01*
X123791338Y-116818276D01*
X123710525Y-116952962D01*
X123683588Y-117033774D01*
X123683588Y-117141525D01*
X123737463Y-117249274D01*
X123791338Y-117303149D01*
X123899087Y-117357024D01*
X123952962Y-117357023D01*
X124141524Y-117168462D01*
X124033774Y-117060712D01*
X124195399Y-117599460D02*
X124195398Y-117653335D01*
X124141524Y-117653335D01*
X124141524Y-117599460D01*
X124195399Y-117599460D01*
X124141524Y-117653335D01*
X124895771Y-117383960D02*
X124949646Y-117383960D01*
X125030458Y-117410898D01*
X125165145Y-117545585D01*
X125192082Y-117626397D01*
X125192083Y-117680272D01*
X125165145Y-117761084D01*
X125111271Y-117814959D01*
X125003521Y-117868834D01*
X124357023Y-117868834D01*
X124707209Y-118219020D01*
X125623081Y-118003521D02*
X125676956Y-118057396D01*
X125703893Y-118138208D01*
X125703893Y-118192082D01*
X125676956Y-118272895D01*
X125596144Y-118407582D01*
X125461457Y-118542269D01*
X125326770Y-118623082D01*
X125245957Y-118650018D01*
X125192082Y-118650019D01*
X125111271Y-118623082D01*
X125057395Y-118569206D01*
X125030458Y-118488395D01*
X125030458Y-118434519D01*
X125057395Y-118353707D01*
X125138208Y-118219020D01*
X125272895Y-118084333D01*
X125407582Y-118003521D01*
X125488394Y-117976583D01*
X125542269Y-117976584D01*
X125623081Y-118003521D01*
X125784706Y-119296517D02*
X125461457Y-118973268D01*
X125623081Y-119134892D02*
X126188766Y-118569206D01*
X126054080Y-118596144D01*
X125946330Y-118596144D01*
X125865518Y-118569206D01*
X126054079Y-119565890D02*
X126161829Y-119673640D01*
X126242641Y-119700578D01*
X126296517Y-119700577D01*
X126431203Y-119673641D01*
X126565890Y-119592828D01*
X126781390Y-119377329D01*
X126808328Y-119296517D01*
X126808327Y-119242641D01*
X126781390Y-119161830D01*
X126673640Y-119054080D01*
X126592828Y-119027142D01*
X126538953Y-119027142D01*
X126458141Y-119054080D01*
X126323454Y-119188767D01*
X126296517Y-119269579D01*
X126296516Y-119323454D01*
X126323454Y-119404266D01*
X126431203Y-119512016D01*
X126512015Y-119538953D01*
X126565891Y-119538953D01*
X126646703Y-119512016D01*
D12*
X130285715Y-126904762D02*
X128785715Y-125952381D01*
X127714287Y-126904762D02*
X127714287Y-124904762D01*
X129428572Y-124904762D01*
X129857144Y-125000000D01*
X130071429Y-125095238D01*
X130285715Y-125285714D01*
X130285715Y-125571429D01*
X130071429Y-125761905D01*
X129857144Y-125857143D01*
X129428572Y-125952381D01*
X127714287Y-125952381D01*
X132214287Y-125857143D02*
X133714287Y-125857143D01*
X134357144Y-126904762D02*
X132214287Y-126904762D01*
X132214287Y-124904762D01*
X134357144Y-124904762D01*
X135642858Y-124904762D02*
X138214287Y-124904762D01*
X136928573Y-126904762D02*
X136928573Y-124904762D01*
X142285715Y-126904762D02*
X140785715Y-125952381D01*
X139714287Y-126904762D02*
X139714287Y-124904762D01*
X141428572Y-124904762D01*
X141857144Y-125000000D01*
X142071429Y-125095238D01*
X142285715Y-125285714D01*
X142285715Y-125571429D01*
X142071429Y-125761905D01*
X141857144Y-125857143D01*
X141428572Y-125952381D01*
X139714287Y-125952381D01*
X145071429Y-124904762D02*
X145928572Y-124904762D01*
X146357144Y-125000000D01*
X146785715Y-125190476D01*
X147000001Y-125571429D01*
X147000001Y-126238095D01*
X146785715Y-126619048D01*
X146357144Y-126809524D01*
X145928572Y-126904762D01*
X145071429Y-126904762D01*
X144642858Y-126809524D01*
X144214287Y-126619048D01*
X144000001Y-126238095D01*
X144000001Y-125571429D01*
X144214287Y-125190476D01*
X144642858Y-125000000D01*
X145071429Y-124904762D01*
X150428573Y-125857143D02*
X151071430Y-125952381D01*
X151285715Y-126047619D01*
X151500001Y-126238095D01*
X151500001Y-126523810D01*
X151285715Y-126714286D01*
X151071430Y-126809524D01*
X150642858Y-126904762D01*
X148928573Y-126904762D01*
X148928573Y-124904762D01*
X150428573Y-124904762D01*
X150857144Y-125000000D01*
X151071430Y-125095238D01*
X151285715Y-125285714D01*
X151285715Y-125476190D01*
X151071430Y-125666667D01*
X150857144Y-125761905D01*
X150428573Y-125857143D01*
X148928573Y-125857143D01*
X153428573Y-126904762D02*
X153428573Y-124904762D01*
X154928572Y-124904762D02*
X157500001Y-124904762D01*
X156214287Y-126904762D02*
X156214287Y-124904762D01*
X164571429Y-126904762D02*
X162428572Y-126904762D01*
X162428572Y-124904762D01*
X165857143Y-126333333D02*
X168000000Y-126333333D01*
X165428571Y-126904762D02*
X166928571Y-124904762D01*
X168428571Y-126904762D01*
X171428572Y-125857143D02*
X172071429Y-125952381D01*
X172285714Y-126047619D01*
X172500000Y-126238095D01*
X172500000Y-126523810D01*
X172285714Y-126714286D01*
X172071429Y-126809524D01*
X171642857Y-126904762D01*
X169928572Y-126904762D01*
X169928572Y-124904762D01*
X171428572Y-124904762D01*
X171857143Y-125000000D01*
X172071429Y-125095238D01*
X172285714Y-125285714D01*
X172285714Y-125476190D01*
X172071429Y-125666667D01*
X171857143Y-125761905D01*
X171428572Y-125857143D01*
X169928572Y-125857143D01*
D13*
X122892857Y-62678571D02*
X122892857Y-61178571D01*
X123607143Y-62678571D02*
X123607143Y-61178571D01*
X124464286Y-62678571D01*
X124464286Y-61178571D01*
X124964286Y-61178571D02*
X125821429Y-61178571D01*
X125392858Y-62678571D02*
X125392858Y-61178571D01*
X126321429Y-61892857D02*
X126821429Y-61892857D01*
X127035715Y-62678571D02*
X126321429Y-62678571D01*
X126321429Y-61178571D01*
X127035715Y-61178571D01*
X128535715Y-62678571D02*
X128035715Y-61964286D01*
X127678572Y-62678571D02*
X127678572Y-61178571D01*
X128250000Y-61178571D01*
X128392858Y-61250000D01*
X128464286Y-61321429D01*
X128535715Y-61464286D01*
X128535715Y-61678571D01*
X128464286Y-61821429D01*
X128392858Y-61892857D01*
X128250000Y-61964286D01*
X127678572Y-61964286D01*
X129178572Y-62678571D02*
X129178572Y-61178571D01*
X130035715Y-62678571D01*
X130035715Y-61178571D01*
X130678572Y-62250000D02*
X131392858Y-62250000D01*
X130535715Y-62678571D02*
X131035715Y-61178571D01*
X131535715Y-62678571D01*
X132750001Y-62678571D02*
X132035715Y-62678571D01*
X132035715Y-61178571D01*
X135035715Y-61678571D02*
X135035715Y-62678571D01*
X134678572Y-61107143D02*
X134321429Y-62178571D01*
X135250001Y-62178571D01*
X135821429Y-62678571D02*
X135821429Y-61178571D01*
X136535715Y-62678571D02*
X136535715Y-61178571D01*
X136892858Y-61178571D01*
X137107143Y-61250000D01*
X137250001Y-61392857D01*
X137321429Y-61535714D01*
X137392858Y-61821429D01*
X137392858Y-62035714D01*
X137321429Y-62321429D01*
X137250001Y-62464286D01*
X137107143Y-62607143D01*
X136892858Y-62678571D01*
X136535715Y-62678571D01*
X138035715Y-61892857D02*
X138535715Y-61892857D01*
X138750001Y-62678571D02*
X138035715Y-62678571D01*
X138035715Y-61178571D01*
X138750001Y-61178571D01*
X139321429Y-62250000D02*
X140035715Y-62250000D01*
X139178572Y-62678571D02*
X139678572Y-61178571D01*
X140178572Y-62678571D01*
X141321429Y-62678571D02*
X141321429Y-61178571D01*
X141321429Y-62607143D02*
X141178572Y-62678571D01*
X140892858Y-62678571D01*
X140750000Y-62607143D01*
X140678572Y-62535714D01*
X140607143Y-62392857D01*
X140607143Y-61964286D01*
X140678572Y-61821429D01*
X140750000Y-61750000D01*
X140892858Y-61678571D01*
X141178572Y-61678571D01*
X141321429Y-61750000D01*
X142678572Y-62678571D02*
X142678572Y-61892857D01*
X142607143Y-61750000D01*
X142464286Y-61678571D01*
X142178572Y-61678571D01*
X142035715Y-61750000D01*
X142678572Y-62607143D02*
X142535715Y-62678571D01*
X142178572Y-62678571D01*
X142035715Y-62607143D01*
X141964286Y-62464286D01*
X141964286Y-62321429D01*
X142035715Y-62178571D01*
X142178572Y-62107143D01*
X142535715Y-62107143D01*
X142678572Y-62035714D01*
X143392858Y-61678571D02*
X143392858Y-63178571D01*
X143392858Y-61750000D02*
X143535715Y-61678571D01*
X143821429Y-61678571D01*
X143964286Y-61750000D01*
X144035715Y-61821429D01*
X144107144Y-61964286D01*
X144107144Y-62392857D01*
X144035715Y-62535714D01*
X143964286Y-62607143D01*
X143821429Y-62678571D01*
X143535715Y-62678571D01*
X143392858Y-62607143D01*
X144535715Y-61678571D02*
X145107144Y-61678571D01*
X144750001Y-61178571D02*
X144750001Y-62464286D01*
X144821429Y-62607143D01*
X144964287Y-62678571D01*
X145107144Y-62678571D01*
X146178572Y-62607143D02*
X146035715Y-62678571D01*
X145750001Y-62678571D01*
X145607144Y-62607143D01*
X145535715Y-62464286D01*
X145535715Y-61892857D01*
X145607144Y-61750000D01*
X145750001Y-61678571D01*
X146035715Y-61678571D01*
X146178572Y-61750000D01*
X146250001Y-61892857D01*
X146250001Y-62035714D01*
X145535715Y-62178571D01*
X146892858Y-62678571D02*
X146892858Y-61678571D01*
X146892858Y-61964286D02*
X146964286Y-61821429D01*
X147035715Y-61750000D01*
X147178572Y-61678571D01*
X147321429Y-61678571D01*
D11*
X129500000Y-100600000D02*
X129400000Y-100600000D01*
X129600000Y-100700000D02*
X129500000Y-100600000D01*
X129500000Y-100500000D02*
X129100000Y-100500000D01*
X129100000Y-100100000D02*
X129500000Y-100500000D01*
X129100000Y-100300000D02*
X129100000Y-100100000D01*
X128800000Y-100300000D02*
X129100000Y-100300000D01*
X128800000Y-100700000D02*
X128800000Y-100300000D01*
X129800000Y-100700000D02*
X128800000Y-100700000D01*
X129000000Y-99900000D02*
X129800000Y-100700000D01*
X129100000Y-100300000D02*
X128900000Y-100500000D01*
X129400000Y-100600000D02*
X129100000Y-100300000D01*
X128500000Y-100600000D02*
X129400000Y-100600000D01*
X129100000Y-100000000D02*
X128500000Y-100600000D01*
X129800000Y-100700000D02*
X129100000Y-100000000D01*
X128200000Y-100700000D02*
X129800000Y-100700000D01*
X129000000Y-99900000D02*
X128200000Y-100700000D01*
D14*
G36*
X146768886Y-88584505D02*
X146843539Y-88621727D01*
X146909431Y-88690261D01*
X146927577Y-88715648D01*
X146947345Y-88748866D01*
X146960172Y-88784945D01*
X146967510Y-88833098D01*
X146970813Y-88902536D01*
X146971538Y-88994206D01*
X146968263Y-89119830D01*
X146956877Y-89214154D01*
X146935041Y-89284523D01*
X146900419Y-89338286D01*
X146850670Y-89382788D01*
X146847014Y-89385423D01*
X146797985Y-89412377D01*
X146738945Y-89425712D01*
X146663859Y-89429000D01*
X146541795Y-89429000D01*
X146541744Y-89547497D01*
X146540608Y-89613492D01*
X146533686Y-89652202D01*
X146515598Y-89675419D01*
X146480962Y-89694933D01*
X146472645Y-89698920D01*
X146433720Y-89717603D01*
X146403583Y-89729403D01*
X146381174Y-89730422D01*
X146365433Y-89716761D01*
X146355302Y-89684522D01*
X146349723Y-89629804D01*
X146347635Y-89548711D01*
X146347981Y-89437344D01*
X146349700Y-89291802D01*
X146350237Y-89248269D01*
X146352172Y-89098205D01*
X146353904Y-89000042D01*
X146541692Y-89000042D01*
X146542748Y-89083364D01*
X146547438Y-89137880D01*
X146558051Y-89173837D01*
X146576872Y-89201482D01*
X146589650Y-89214965D01*
X146641890Y-89254417D01*
X146688142Y-89257628D01*
X146735867Y-89225049D01*
X146737077Y-89223846D01*
X146756494Y-89198668D01*
X146768307Y-89164447D01*
X146774265Y-89111748D01*
X146776120Y-89031131D01*
X146776154Y-89013271D01*
X146771670Y-88902175D01*
X146757074Y-88825161D01*
X146730650Y-88778147D01*
X146690683Y-88757050D01*
X146667584Y-88754923D01*
X146612762Y-88764900D01*
X146575158Y-88797752D01*
X146552523Y-88857857D01*
X146542606Y-88949598D01*
X146541692Y-89000042D01*
X146353904Y-89000042D01*
X146354222Y-88982060D01*
X146356873Y-88894679D01*
X146360606Y-88830905D01*
X146365907Y-88785582D01*
X146373258Y-88753555D01*
X146383143Y-88729668D01*
X146396046Y-88708764D01*
X146401579Y-88700898D01*
X146474969Y-88626595D01*
X146567760Y-88584467D01*
X146675096Y-88572722D01*
X146768886Y-88584505D01*
X146768886Y-88584505D01*
G37*
X146768886Y-88584505D02*
X146843539Y-88621727D01*
X146909431Y-88690261D01*
X146927577Y-88715648D01*
X146947345Y-88748866D01*
X146960172Y-88784945D01*
X146967510Y-88833098D01*
X146970813Y-88902536D01*
X146971538Y-88994206D01*
X146968263Y-89119830D01*
X146956877Y-89214154D01*
X146935041Y-89284523D01*
X146900419Y-89338286D01*
X146850670Y-89382788D01*
X146847014Y-89385423D01*
X146797985Y-89412377D01*
X146738945Y-89425712D01*
X146663859Y-89429000D01*
X146541795Y-89429000D01*
X146541744Y-89547497D01*
X146540608Y-89613492D01*
X146533686Y-89652202D01*
X146515598Y-89675419D01*
X146480962Y-89694933D01*
X146472645Y-89698920D01*
X146433720Y-89717603D01*
X146403583Y-89729403D01*
X146381174Y-89730422D01*
X146365433Y-89716761D01*
X146355302Y-89684522D01*
X146349723Y-89629804D01*
X146347635Y-89548711D01*
X146347981Y-89437344D01*
X146349700Y-89291802D01*
X146350237Y-89248269D01*
X146352172Y-89098205D01*
X146353904Y-89000042D01*
X146541692Y-89000042D01*
X146542748Y-89083364D01*
X146547438Y-89137880D01*
X146558051Y-89173837D01*
X146576872Y-89201482D01*
X146589650Y-89214965D01*
X146641890Y-89254417D01*
X146688142Y-89257628D01*
X146735867Y-89225049D01*
X146737077Y-89223846D01*
X146756494Y-89198668D01*
X146768307Y-89164447D01*
X146774265Y-89111748D01*
X146776120Y-89031131D01*
X146776154Y-89013271D01*
X146771670Y-88902175D01*
X146757074Y-88825161D01*
X146730650Y-88778147D01*
X146690683Y-88757050D01*
X146667584Y-88754923D01*
X146612762Y-88764900D01*
X146575158Y-88797752D01*
X146552523Y-88857857D01*
X146542606Y-88949598D01*
X146541692Y-89000042D01*
X146353904Y-89000042D01*
X146354222Y-88982060D01*
X146356873Y-88894679D01*
X146360606Y-88830905D01*
X146365907Y-88785582D01*
X146373258Y-88753555D01*
X146383143Y-88729668D01*
X146396046Y-88708764D01*
X146401579Y-88700898D01*
X146474969Y-88626595D01*
X146567760Y-88584467D01*
X146675096Y-88572722D01*
X146768886Y-88584505D01*
G36*
X148271664Y-88595089D02*
X148334367Y-88631358D01*
X148377961Y-88667358D01*
X148409845Y-88705075D01*
X148431810Y-88751199D01*
X148445649Y-88812421D01*
X148453153Y-88895431D01*
X148456117Y-89006919D01*
X148456461Y-89087062D01*
X148456461Y-89382065D01*
X148290385Y-89456515D01*
X148280615Y-89133402D01*
X148276579Y-89012729D01*
X148272344Y-88925141D01*
X148267097Y-88864650D01*
X148260025Y-88825268D01*
X148250311Y-88801007D01*
X148237144Y-88785880D01*
X148232919Y-88782606D01*
X148168909Y-88757034D01*
X148104208Y-88767153D01*
X148065692Y-88794000D01*
X148050025Y-88813024D01*
X148039180Y-88837988D01*
X148032288Y-88875834D01*
X148028479Y-88933502D01*
X148026883Y-89017935D01*
X148026615Y-89105928D01*
X148026563Y-89216323D01*
X148024672Y-89294463D01*
X148018345Y-89347165D01*
X148004983Y-89381242D01*
X147981985Y-89403511D01*
X147946754Y-89420787D01*
X147899697Y-89438738D01*
X147848303Y-89458278D01*
X147854421Y-89111485D01*
X147856884Y-88986468D01*
X147859767Y-88894082D01*
X147863898Y-88827881D01*
X147870107Y-88781420D01*
X147879226Y-88748256D01*
X147892083Y-88721944D01*
X147907584Y-88698729D01*
X147982371Y-88624569D01*
X148073628Y-88581684D01*
X148172883Y-88571412D01*
X148271664Y-88595089D01*
X148271664Y-88595089D01*
G37*
X148271664Y-88595089D02*
X148334367Y-88631358D01*
X148377961Y-88667358D01*
X148409845Y-88705075D01*
X148431810Y-88751199D01*
X148445649Y-88812421D01*
X148453153Y-88895431D01*
X148456117Y-89006919D01*
X148456461Y-89087062D01*
X148456461Y-89382065D01*
X148290385Y-89456515D01*
X148280615Y-89133402D01*
X148276579Y-89012729D01*
X148272344Y-88925141D01*
X148267097Y-88864650D01*
X148260025Y-88825268D01*
X148250311Y-88801007D01*
X148237144Y-88785880D01*
X148232919Y-88782606D01*
X148168909Y-88757034D01*
X148104208Y-88767153D01*
X148065692Y-88794000D01*
X148050025Y-88813024D01*
X148039180Y-88837988D01*
X148032288Y-88875834D01*
X148028479Y-88933502D01*
X148026883Y-89017935D01*
X148026615Y-89105928D01*
X148026563Y-89216323D01*
X148024672Y-89294463D01*
X148018345Y-89347165D01*
X148004983Y-89381242D01*
X147981985Y-89403511D01*
X147946754Y-89420787D01*
X147899697Y-89438738D01*
X147848303Y-89458278D01*
X147854421Y-89111485D01*
X147856884Y-88986468D01*
X147859767Y-88894082D01*
X147863898Y-88827881D01*
X147870107Y-88781420D01*
X147879226Y-88748256D01*
X147892083Y-88721944D01*
X147907584Y-88698729D01*
X147982371Y-88624569D01*
X148073628Y-88581684D01*
X148172883Y-88571412D01*
X148271664Y-88595089D01*
G36*
X146016886Y-88587256D02*
X146108464Y-88635409D01*
X146176049Y-88712905D01*
X146200057Y-88762727D01*
X146218738Y-88837533D01*
X146228301Y-88932052D01*
X146229208Y-89035210D01*
X146221921Y-89135935D01*
X146206903Y-89223153D01*
X146184615Y-89285791D01*
X146177765Y-89296579D01*
X146096632Y-89377105D01*
X146000266Y-89425336D01*
X145895701Y-89439450D01*
X145789968Y-89417629D01*
X145760543Y-89404547D01*
X145703241Y-89364231D01*
X145652950Y-89310775D01*
X145648197Y-89303995D01*
X145628878Y-89271321D01*
X145616108Y-89236394D01*
X145608564Y-89190414D01*
X145604924Y-89124584D01*
X145603865Y-89030105D01*
X145603846Y-89008923D01*
X145603894Y-89002182D01*
X145799231Y-89002182D01*
X145800368Y-89091349D01*
X145804841Y-89150520D01*
X145814246Y-89188741D01*
X145830176Y-89215053D01*
X145838308Y-89223846D01*
X145885058Y-89257261D01*
X145930447Y-89255737D01*
X145976340Y-89226752D01*
X146003712Y-89195809D01*
X146019923Y-89150643D01*
X146029026Y-89079420D01*
X146029651Y-89071114D01*
X146031204Y-88942037D01*
X146014965Y-88846172D01*
X145981152Y-88784107D01*
X145929984Y-88756432D01*
X145911720Y-88754923D01*
X145863760Y-88762513D01*
X145830953Y-88788808D01*
X145810895Y-88839095D01*
X145801178Y-88918664D01*
X145799231Y-89002182D01*
X145603894Y-89002182D01*
X145604574Y-88908249D01*
X145607629Y-88837906D01*
X145614322Y-88789163D01*
X145625960Y-88753288D01*
X145643853Y-88721548D01*
X145647808Y-88715648D01*
X145714267Y-88636104D01*
X145786685Y-88589929D01*
X145874849Y-88571599D01*
X145904787Y-88570703D01*
X146016886Y-88587256D01*
X146016886Y-88587256D01*
G37*
X146016886Y-88587256D02*
X146108464Y-88635409D01*
X146176049Y-88712905D01*
X146200057Y-88762727D01*
X146218738Y-88837533D01*
X146228301Y-88932052D01*
X146229208Y-89035210D01*
X146221921Y-89135935D01*
X146206903Y-89223153D01*
X146184615Y-89285791D01*
X146177765Y-89296579D01*
X146096632Y-89377105D01*
X146000266Y-89425336D01*
X145895701Y-89439450D01*
X145789968Y-89417629D01*
X145760543Y-89404547D01*
X145703241Y-89364231D01*
X145652950Y-89310775D01*
X145648197Y-89303995D01*
X145628878Y-89271321D01*
X145616108Y-89236394D01*
X145608564Y-89190414D01*
X145604924Y-89124584D01*
X145603865Y-89030105D01*
X145603846Y-89008923D01*
X145603894Y-89002182D01*
X145799231Y-89002182D01*
X145800368Y-89091349D01*
X145804841Y-89150520D01*
X145814246Y-89188741D01*
X145830176Y-89215053D01*
X145838308Y-89223846D01*
X145885058Y-89257261D01*
X145930447Y-89255737D01*
X145976340Y-89226752D01*
X146003712Y-89195809D01*
X146019923Y-89150643D01*
X146029026Y-89079420D01*
X146029651Y-89071114D01*
X146031204Y-88942037D01*
X146014965Y-88846172D01*
X145981152Y-88784107D01*
X145929984Y-88756432D01*
X145911720Y-88754923D01*
X145863760Y-88762513D01*
X145830953Y-88788808D01*
X145810895Y-88839095D01*
X145801178Y-88918664D01*
X145799231Y-89002182D01*
X145603894Y-89002182D01*
X145604574Y-88908249D01*
X145607629Y-88837906D01*
X145614322Y-88789163D01*
X145625960Y-88753288D01*
X145643853Y-88721548D01*
X145647808Y-88715648D01*
X145714267Y-88636104D01*
X145786685Y-88589929D01*
X145874849Y-88571599D01*
X145904787Y-88570703D01*
X146016886Y-88587256D01*
G36*
X147534254Y-88599745D02*
X147611286Y-88651567D01*
X147670816Y-88726412D01*
X147706378Y-88821654D01*
X147713571Y-88891756D01*
X147712754Y-88921009D01*
X147705914Y-88943407D01*
X147687112Y-88963474D01*
X147650408Y-88985733D01*
X147589862Y-89014709D01*
X147499534Y-89054927D01*
X147499077Y-89055129D01*
X147415933Y-89093210D01*
X147347753Y-89127025D01*
X147301505Y-89152933D01*
X147284158Y-89167295D01*
X147284154Y-89167411D01*
X147299443Y-89198685D01*
X147335196Y-89233157D01*
X147376242Y-89257990D01*
X147397037Y-89262923D01*
X147453770Y-89245862D01*
X147502627Y-89203133D01*
X147526465Y-89156155D01*
X147549397Y-89121522D01*
X147594318Y-89082081D01*
X147647123Y-89048009D01*
X147693710Y-89029480D01*
X147703452Y-89028462D01*
X147714418Y-89045215D01*
X147715079Y-89088039D01*
X147707020Y-89145781D01*
X147691827Y-89207289D01*
X147671086Y-89261409D01*
X147670038Y-89263510D01*
X147607621Y-89350660D01*
X147526726Y-89409939D01*
X147434856Y-89439034D01*
X147339513Y-89435634D01*
X147248198Y-89397428D01*
X147244138Y-89394741D01*
X147172306Y-89329642D01*
X147125073Y-89244705D01*
X147098934Y-89133021D01*
X147095426Y-89101643D01*
X147089213Y-88953536D01*
X147096661Y-88884468D01*
X147284154Y-88884468D01*
X147286590Y-88927552D01*
X147299914Y-88940126D01*
X147333132Y-88930719D01*
X147385494Y-88908483D01*
X147444024Y-88880610D01*
X147445479Y-88879872D01*
X147495089Y-88853777D01*
X147515000Y-88836363D01*
X147510090Y-88818107D01*
X147489416Y-88794120D01*
X147436819Y-88759406D01*
X147380177Y-88756856D01*
X147329369Y-88782119D01*
X147294276Y-88830847D01*
X147284154Y-88884468D01*
X147096661Y-88884468D01*
X147101992Y-88835036D01*
X147134778Y-88741055D01*
X147180421Y-88675215D01*
X147262802Y-88608681D01*
X147353546Y-88575676D01*
X147446185Y-88573573D01*
X147534254Y-88599745D01*
X147534254Y-88599745D01*
G37*
X147534254Y-88599745D02*
X147611286Y-88651567D01*
X147670816Y-88726412D01*
X147706378Y-88821654D01*
X147713571Y-88891756D01*
X147712754Y-88921009D01*
X147705914Y-88943407D01*
X147687112Y-88963474D01*
X147650408Y-88985733D01*
X147589862Y-89014709D01*
X147499534Y-89054927D01*
X147499077Y-89055129D01*
X147415933Y-89093210D01*
X147347753Y-89127025D01*
X147301505Y-89152933D01*
X147284158Y-89167295D01*
X147284154Y-89167411D01*
X147299443Y-89198685D01*
X147335196Y-89233157D01*
X147376242Y-89257990D01*
X147397037Y-89262923D01*
X147453770Y-89245862D01*
X147502627Y-89203133D01*
X147526465Y-89156155D01*
X147549397Y-89121522D01*
X147594318Y-89082081D01*
X147647123Y-89048009D01*
X147693710Y-89029480D01*
X147703452Y-89028462D01*
X147714418Y-89045215D01*
X147715079Y-89088039D01*
X147707020Y-89145781D01*
X147691827Y-89207289D01*
X147671086Y-89261409D01*
X147670038Y-89263510D01*
X147607621Y-89350660D01*
X147526726Y-89409939D01*
X147434856Y-89439034D01*
X147339513Y-89435634D01*
X147248198Y-89397428D01*
X147244138Y-89394741D01*
X147172306Y-89329642D01*
X147125073Y-89244705D01*
X147098934Y-89133021D01*
X147095426Y-89101643D01*
X147089213Y-88953536D01*
X147096661Y-88884468D01*
X147284154Y-88884468D01*
X147286590Y-88927552D01*
X147299914Y-88940126D01*
X147333132Y-88930719D01*
X147385494Y-88908483D01*
X147444024Y-88880610D01*
X147445479Y-88879872D01*
X147495089Y-88853777D01*
X147515000Y-88836363D01*
X147510090Y-88818107D01*
X147489416Y-88794120D01*
X147436819Y-88759406D01*
X147380177Y-88756856D01*
X147329369Y-88782119D01*
X147294276Y-88830847D01*
X147284154Y-88884468D01*
X147096661Y-88884468D01*
X147101992Y-88835036D01*
X147134778Y-88741055D01*
X147180421Y-88675215D01*
X147262802Y-88608681D01*
X147353546Y-88575676D01*
X147446185Y-88573573D01*
X147534254Y-88599745D01*
G36*
X149159846Y-88492120D02*
X149165572Y-88571980D01*
X149172149Y-88619039D01*
X149181262Y-88639566D01*
X149194598Y-88639829D01*
X149198923Y-88637378D01*
X149256444Y-88619636D01*
X149331268Y-88620672D01*
X149407339Y-88638910D01*
X149454918Y-88662505D01*
X149503702Y-88700198D01*
X149539364Y-88742855D01*
X149563845Y-88797057D01*
X149579087Y-88869384D01*
X149587030Y-88966419D01*
X149589616Y-89094742D01*
X149589662Y-89119358D01*
X149589692Y-89395870D01*
X149528161Y-89417320D01*
X149484459Y-89431912D01*
X149460482Y-89438706D01*
X149459777Y-89438769D01*
X149457415Y-89420345D01*
X149455406Y-89369526D01*
X149453901Y-89292993D01*
X149453053Y-89197430D01*
X149452923Y-89139329D01*
X149452651Y-89024771D01*
X149451252Y-88942667D01*
X149447849Y-88886393D01*
X149441567Y-88849326D01*
X149431529Y-88824844D01*
X149416861Y-88806325D01*
X149407702Y-88797406D01*
X149344789Y-88761466D01*
X149276136Y-88758775D01*
X149213848Y-88789170D01*
X149202329Y-88800144D01*
X149185433Y-88820779D01*
X149173714Y-88845256D01*
X149166233Y-88880647D01*
X149162054Y-88934026D01*
X149160237Y-89012466D01*
X149159846Y-89120617D01*
X149159846Y-89395870D01*
X149098315Y-89417320D01*
X149054613Y-89431912D01*
X149030636Y-89438706D01*
X149029930Y-89438769D01*
X149028126Y-89420069D01*
X149026500Y-89367322D01*
X149025117Y-89285557D01*
X149024042Y-89179805D01*
X149023340Y-89055094D01*
X149023077Y-88916455D01*
X149023077Y-88381806D01*
X149150077Y-88328236D01*
X149159846Y-88492120D01*
X149159846Y-88492120D01*
G37*
X149159846Y-88492120D02*
X149165572Y-88571980D01*
X149172149Y-88619039D01*
X149181262Y-88639566D01*
X149194598Y-88639829D01*
X149198923Y-88637378D01*
X149256444Y-88619636D01*
X149331268Y-88620672D01*
X149407339Y-88638910D01*
X149454918Y-88662505D01*
X149503702Y-88700198D01*
X149539364Y-88742855D01*
X149563845Y-88797057D01*
X149579087Y-88869384D01*
X149587030Y-88966419D01*
X149589616Y-89094742D01*
X149589662Y-89119358D01*
X149589692Y-89395870D01*
X149528161Y-89417320D01*
X149484459Y-89431912D01*
X149460482Y-89438706D01*
X149459777Y-89438769D01*
X149457415Y-89420345D01*
X149455406Y-89369526D01*
X149453901Y-89292993D01*
X149453053Y-89197430D01*
X149452923Y-89139329D01*
X149452651Y-89024771D01*
X149451252Y-88942667D01*
X149447849Y-88886393D01*
X149441567Y-88849326D01*
X149431529Y-88824844D01*
X149416861Y-88806325D01*
X149407702Y-88797406D01*
X149344789Y-88761466D01*
X149276136Y-88758775D01*
X149213848Y-88789170D01*
X149202329Y-88800144D01*
X149185433Y-88820779D01*
X149173714Y-88845256D01*
X149166233Y-88880647D01*
X149162054Y-88934026D01*
X149160237Y-89012466D01*
X149159846Y-89120617D01*
X149159846Y-89395870D01*
X149098315Y-89417320D01*
X149054613Y-89431912D01*
X149030636Y-89438706D01*
X149029930Y-89438769D01*
X149028126Y-89420069D01*
X149026500Y-89367322D01*
X149025117Y-89285557D01*
X149024042Y-89179805D01*
X149023340Y-89055094D01*
X149023077Y-88916455D01*
X149023077Y-88381806D01*
X149150077Y-88328236D01*
X149159846Y-88492120D01*
G36*
X150053501Y-88626303D02*
X150130060Y-88654733D01*
X150130936Y-88655279D01*
X150178285Y-88690127D01*
X150213241Y-88730852D01*
X150237825Y-88783925D01*
X150254062Y-88855814D01*
X150263975Y-88952992D01*
X150269586Y-89081928D01*
X150270077Y-89100298D01*
X150277141Y-89377287D01*
X150217695Y-89408028D01*
X150174681Y-89428802D01*
X150148710Y-89438646D01*
X150147509Y-89438769D01*
X150143014Y-89420606D01*
X150139444Y-89371612D01*
X150137248Y-89300031D01*
X150136769Y-89242068D01*
X150136758Y-89148170D01*
X150132466Y-89089203D01*
X150117503Y-89061079D01*
X150085482Y-89059706D01*
X150030014Y-89080998D01*
X149946269Y-89120136D01*
X149884689Y-89152643D01*
X149853017Y-89180845D01*
X149843706Y-89211582D01*
X149843692Y-89213104D01*
X149859057Y-89266054D01*
X149904547Y-89294660D01*
X149974166Y-89298803D01*
X150024313Y-89298084D01*
X150050754Y-89312527D01*
X150067243Y-89347218D01*
X150076733Y-89391416D01*
X150063057Y-89416493D01*
X150057907Y-89420082D01*
X150009425Y-89434496D01*
X149941531Y-89436537D01*
X149871612Y-89426983D01*
X149822068Y-89409522D01*
X149753570Y-89351364D01*
X149714634Y-89270408D01*
X149706923Y-89207160D01*
X149712807Y-89150111D01*
X149734101Y-89103542D01*
X149776265Y-89062181D01*
X149844759Y-89020755D01*
X149945044Y-88973993D01*
X149951154Y-88971350D01*
X150041490Y-88929617D01*
X150097235Y-88895391D01*
X150121129Y-88864635D01*
X150115913Y-88833311D01*
X150084328Y-88797383D01*
X150074883Y-88789116D01*
X150011617Y-88757058D01*
X149946064Y-88758407D01*
X149888972Y-88789838D01*
X149851093Y-88848024D01*
X149847574Y-88859446D01*
X149813300Y-88914837D01*
X149769809Y-88941518D01*
X149706923Y-88967960D01*
X149706923Y-88899548D01*
X149726052Y-88800110D01*
X149782831Y-88708902D01*
X149812378Y-88678389D01*
X149879542Y-88639228D01*
X149964956Y-88621500D01*
X150053501Y-88626303D01*
X150053501Y-88626303D01*
G37*
X150053501Y-88626303D02*
X150130060Y-88654733D01*
X150130936Y-88655279D01*
X150178285Y-88690127D01*
X150213241Y-88730852D01*
X150237825Y-88783925D01*
X150254062Y-88855814D01*
X150263975Y-88952992D01*
X150269586Y-89081928D01*
X150270077Y-89100298D01*
X150277141Y-89377287D01*
X150217695Y-89408028D01*
X150174681Y-89428802D01*
X150148710Y-89438646D01*
X150147509Y-89438769D01*
X150143014Y-89420606D01*
X150139444Y-89371612D01*
X150137248Y-89300031D01*
X150136769Y-89242068D01*
X150136758Y-89148170D01*
X150132466Y-89089203D01*
X150117503Y-89061079D01*
X150085482Y-89059706D01*
X150030014Y-89080998D01*
X149946269Y-89120136D01*
X149884689Y-89152643D01*
X149853017Y-89180845D01*
X149843706Y-89211582D01*
X149843692Y-89213104D01*
X149859057Y-89266054D01*
X149904547Y-89294660D01*
X149974166Y-89298803D01*
X150024313Y-89298084D01*
X150050754Y-89312527D01*
X150067243Y-89347218D01*
X150076733Y-89391416D01*
X150063057Y-89416493D01*
X150057907Y-89420082D01*
X150009425Y-89434496D01*
X149941531Y-89436537D01*
X149871612Y-89426983D01*
X149822068Y-89409522D01*
X149753570Y-89351364D01*
X149714634Y-89270408D01*
X149706923Y-89207160D01*
X149712807Y-89150111D01*
X149734101Y-89103542D01*
X149776265Y-89062181D01*
X149844759Y-89020755D01*
X149945044Y-88973993D01*
X149951154Y-88971350D01*
X150041490Y-88929617D01*
X150097235Y-88895391D01*
X150121129Y-88864635D01*
X150115913Y-88833311D01*
X150084328Y-88797383D01*
X150074883Y-88789116D01*
X150011617Y-88757058D01*
X149946064Y-88758407D01*
X149888972Y-88789838D01*
X149851093Y-88848024D01*
X149847574Y-88859446D01*
X149813300Y-88914837D01*
X149769809Y-88941518D01*
X149706923Y-88967960D01*
X149706923Y-88899548D01*
X149726052Y-88800110D01*
X149782831Y-88708902D01*
X149812378Y-88678389D01*
X149879542Y-88639228D01*
X149964956Y-88621500D01*
X150053501Y-88626303D01*
G36*
X150713362Y-88624670D02*
X150802117Y-88657421D01*
X150874022Y-88715350D01*
X150902144Y-88756128D01*
X150932802Y-88830954D01*
X150932165Y-88885058D01*
X150899987Y-88921446D01*
X150888081Y-88927633D01*
X150836675Y-88946925D01*
X150810422Y-88941982D01*
X150801530Y-88909587D01*
X150801077Y-88891692D01*
X150784797Y-88825859D01*
X150742365Y-88779807D01*
X150683388Y-88757564D01*
X150617475Y-88763161D01*
X150563895Y-88792229D01*
X150545798Y-88808810D01*
X150532971Y-88828925D01*
X150524306Y-88859332D01*
X150518696Y-88906788D01*
X150515035Y-88978050D01*
X150512215Y-89079875D01*
X150511484Y-89112115D01*
X150508820Y-89222410D01*
X150505792Y-89300036D01*
X150501250Y-89351396D01*
X150494046Y-89382890D01*
X150483033Y-89400920D01*
X150467060Y-89411888D01*
X150456834Y-89416733D01*
X150413406Y-89433301D01*
X150387842Y-89438769D01*
X150379395Y-89420507D01*
X150374239Y-89365296D01*
X150372346Y-89272499D01*
X150373689Y-89141478D01*
X150374107Y-89121269D01*
X150377058Y-89001733D01*
X150380548Y-88914449D01*
X150385514Y-88852591D01*
X150392893Y-88809336D01*
X150403624Y-88777860D01*
X150418645Y-88751339D01*
X150426502Y-88739975D01*
X150471553Y-88689692D01*
X150521940Y-88650581D01*
X150528108Y-88647167D01*
X150618458Y-88620212D01*
X150713362Y-88624670D01*
X150713362Y-88624670D01*
G37*
X150713362Y-88624670D02*
X150802117Y-88657421D01*
X150874022Y-88715350D01*
X150902144Y-88756128D01*
X150932802Y-88830954D01*
X150932165Y-88885058D01*
X150899987Y-88921446D01*
X150888081Y-88927633D01*
X150836675Y-88946925D01*
X150810422Y-88941982D01*
X150801530Y-88909587D01*
X150801077Y-88891692D01*
X150784797Y-88825859D01*
X150742365Y-88779807D01*
X150683388Y-88757564D01*
X150617475Y-88763161D01*
X150563895Y-88792229D01*
X150545798Y-88808810D01*
X150532971Y-88828925D01*
X150524306Y-88859332D01*
X150518696Y-88906788D01*
X150515035Y-88978050D01*
X150512215Y-89079875D01*
X150511484Y-89112115D01*
X150508820Y-89222410D01*
X150505792Y-89300036D01*
X150501250Y-89351396D01*
X150494046Y-89382890D01*
X150483033Y-89400920D01*
X150467060Y-89411888D01*
X150456834Y-89416733D01*
X150413406Y-89433301D01*
X150387842Y-89438769D01*
X150379395Y-89420507D01*
X150374239Y-89365296D01*
X150372346Y-89272499D01*
X150373689Y-89141478D01*
X150374107Y-89121269D01*
X150377058Y-89001733D01*
X150380548Y-88914449D01*
X150385514Y-88852591D01*
X150392893Y-88809336D01*
X150403624Y-88777860D01*
X150418645Y-88751339D01*
X150426502Y-88739975D01*
X150471553Y-88689692D01*
X150521940Y-88650581D01*
X150528108Y-88647167D01*
X150618458Y-88620212D01*
X150713362Y-88624670D01*
G36*
X151602081Y-88780289D02*
X151601833Y-88926320D01*
X151600872Y-89038655D01*
X151598794Y-89122678D01*
X151595193Y-89183769D01*
X151589665Y-89227309D01*
X151581804Y-89258679D01*
X151571207Y-89283262D01*
X151563182Y-89297294D01*
X151496728Y-89373388D01*
X151412470Y-89421084D01*
X151319249Y-89438199D01*
X151225900Y-89422546D01*
X151170312Y-89394418D01*
X151111957Y-89345760D01*
X151072186Y-89286333D01*
X151048190Y-89208507D01*
X151037161Y-89104652D01*
X151035599Y-89028462D01*
X151035809Y-89022986D01*
X151172308Y-89022986D01*
X151173141Y-89110355D01*
X151176961Y-89168192D01*
X151185746Y-89206029D01*
X151201474Y-89233398D01*
X151220266Y-89254042D01*
X151283375Y-89293890D01*
X151351137Y-89297295D01*
X151415179Y-89264025D01*
X151420164Y-89259517D01*
X151441439Y-89236067D01*
X151454779Y-89208166D01*
X151462001Y-89166641D01*
X151464923Y-89102316D01*
X151465385Y-89031200D01*
X151464383Y-88941858D01*
X151460238Y-88882258D01*
X151451236Y-88843089D01*
X151435667Y-88815040D01*
X151422902Y-88800144D01*
X151363600Y-88762575D01*
X151295301Y-88758057D01*
X151230110Y-88786753D01*
X151217528Y-88797406D01*
X151196111Y-88821063D01*
X151182744Y-88849251D01*
X151175566Y-88891245D01*
X151172719Y-88956319D01*
X151172308Y-89022986D01*
X151035809Y-89022986D01*
X151040322Y-88905765D01*
X151056362Y-88813577D01*
X151086528Y-88744269D01*
X151133629Y-88690211D01*
X151170312Y-88662505D01*
X151236990Y-88632572D01*
X151314272Y-88618678D01*
X151386110Y-88622397D01*
X151426308Y-88637400D01*
X151442082Y-88641670D01*
X151452550Y-88625750D01*
X151459856Y-88583089D01*
X151465385Y-88518106D01*
X151471437Y-88445732D01*
X151479844Y-88402187D01*
X151495141Y-88377287D01*
X151521864Y-88360845D01*
X151538654Y-88353564D01*
X151602154Y-88326963D01*
X151602081Y-88780289D01*
X151602081Y-88780289D01*
G37*
X151602081Y-88780289D02*
X151601833Y-88926320D01*
X151600872Y-89038655D01*
X151598794Y-89122678D01*
X151595193Y-89183769D01*
X151589665Y-89227309D01*
X151581804Y-89258679D01*
X151571207Y-89283262D01*
X151563182Y-89297294D01*
X151496728Y-89373388D01*
X151412470Y-89421084D01*
X151319249Y-89438199D01*
X151225900Y-89422546D01*
X151170312Y-89394418D01*
X151111957Y-89345760D01*
X151072186Y-89286333D01*
X151048190Y-89208507D01*
X151037161Y-89104652D01*
X151035599Y-89028462D01*
X151035809Y-89022986D01*
X151172308Y-89022986D01*
X151173141Y-89110355D01*
X151176961Y-89168192D01*
X151185746Y-89206029D01*
X151201474Y-89233398D01*
X151220266Y-89254042D01*
X151283375Y-89293890D01*
X151351137Y-89297295D01*
X151415179Y-89264025D01*
X151420164Y-89259517D01*
X151441439Y-89236067D01*
X151454779Y-89208166D01*
X151462001Y-89166641D01*
X151464923Y-89102316D01*
X151465385Y-89031200D01*
X151464383Y-88941858D01*
X151460238Y-88882258D01*
X151451236Y-88843089D01*
X151435667Y-88815040D01*
X151422902Y-88800144D01*
X151363600Y-88762575D01*
X151295301Y-88758057D01*
X151230110Y-88786753D01*
X151217528Y-88797406D01*
X151196111Y-88821063D01*
X151182744Y-88849251D01*
X151175566Y-88891245D01*
X151172719Y-88956319D01*
X151172308Y-89022986D01*
X151035809Y-89022986D01*
X151040322Y-88905765D01*
X151056362Y-88813577D01*
X151086528Y-88744269D01*
X151133629Y-88690211D01*
X151170312Y-88662505D01*
X151236990Y-88632572D01*
X151314272Y-88618678D01*
X151386110Y-88622397D01*
X151426308Y-88637400D01*
X151442082Y-88641670D01*
X151452550Y-88625750D01*
X151459856Y-88583089D01*
X151465385Y-88518106D01*
X151471437Y-88445732D01*
X151479844Y-88402187D01*
X151495141Y-88377287D01*
X151521864Y-88360845D01*
X151538654Y-88353564D01*
X151602154Y-88326963D01*
X151602081Y-88780289D01*
G36*
X152395929Y-88636662D02*
X152398911Y-88688068D01*
X152401247Y-88766192D01*
X152402749Y-88864857D01*
X152403231Y-88968343D01*
X152403231Y-89318533D01*
X152341401Y-89380363D01*
X152298793Y-89418462D01*
X152261390Y-89433895D01*
X152210270Y-89432918D01*
X152189978Y-89430433D01*
X152126554Y-89423200D01*
X152074095Y-89419055D01*
X152061308Y-89418672D01*
X152018199Y-89421176D01*
X151956544Y-89427462D01*
X151932638Y-89430433D01*
X151873922Y-89435028D01*
X151834464Y-89425046D01*
X151795338Y-89394228D01*
X151781215Y-89380363D01*
X151719385Y-89318533D01*
X151719385Y-88663503D01*
X151769150Y-88640829D01*
X151812002Y-88624034D01*
X151837073Y-88618154D01*
X151843501Y-88636736D01*
X151849509Y-88688655D01*
X151854697Y-88768172D01*
X151858664Y-88869546D01*
X151860577Y-88955192D01*
X151865923Y-89292231D01*
X151912560Y-89298825D01*
X151954976Y-89294214D01*
X151975760Y-89279287D01*
X151981570Y-89251377D01*
X151986530Y-89191925D01*
X151990246Y-89108466D01*
X151992324Y-89008532D01*
X151992624Y-88957104D01*
X151992923Y-88661054D01*
X152054454Y-88639604D01*
X152098004Y-88625020D01*
X152121694Y-88618219D01*
X152122377Y-88618154D01*
X152124754Y-88636642D01*
X152127366Y-88687906D01*
X152129995Y-88765649D01*
X152132421Y-88863574D01*
X152134115Y-88955192D01*
X152139461Y-89292231D01*
X152256692Y-89292231D01*
X152262072Y-88984746D01*
X152267451Y-88677261D01*
X152324601Y-88647707D01*
X152366797Y-88627413D01*
X152391770Y-88618204D01*
X152392491Y-88618154D01*
X152395929Y-88636662D01*
X152395929Y-88636662D01*
G37*
X152395929Y-88636662D02*
X152398911Y-88688068D01*
X152401247Y-88766192D01*
X152402749Y-88864857D01*
X152403231Y-88968343D01*
X152403231Y-89318533D01*
X152341401Y-89380363D01*
X152298793Y-89418462D01*
X152261390Y-89433895D01*
X152210270Y-89432918D01*
X152189978Y-89430433D01*
X152126554Y-89423200D01*
X152074095Y-89419055D01*
X152061308Y-89418672D01*
X152018199Y-89421176D01*
X151956544Y-89427462D01*
X151932638Y-89430433D01*
X151873922Y-89435028D01*
X151834464Y-89425046D01*
X151795338Y-89394228D01*
X151781215Y-89380363D01*
X151719385Y-89318533D01*
X151719385Y-88663503D01*
X151769150Y-88640829D01*
X151812002Y-88624034D01*
X151837073Y-88618154D01*
X151843501Y-88636736D01*
X151849509Y-88688655D01*
X151854697Y-88768172D01*
X151858664Y-88869546D01*
X151860577Y-88955192D01*
X151865923Y-89292231D01*
X151912560Y-89298825D01*
X151954976Y-89294214D01*
X151975760Y-89279287D01*
X151981570Y-89251377D01*
X151986530Y-89191925D01*
X151990246Y-89108466D01*
X151992324Y-89008532D01*
X151992624Y-88957104D01*
X151992923Y-88661054D01*
X152054454Y-88639604D01*
X152098004Y-88625020D01*
X152121694Y-88618219D01*
X152122377Y-88618154D01*
X152124754Y-88636642D01*
X152127366Y-88687906D01*
X152129995Y-88765649D01*
X152132421Y-88863574D01*
X152134115Y-88955192D01*
X152139461Y-89292231D01*
X152256692Y-89292231D01*
X152262072Y-88984746D01*
X152267451Y-88677261D01*
X152324601Y-88647707D01*
X152366797Y-88627413D01*
X152391770Y-88618204D01*
X152392491Y-88618154D01*
X152395929Y-88636662D01*
G36*
X152887333Y-88633528D02*
X152943590Y-88659117D01*
X152987747Y-88690124D01*
X153020101Y-88724795D01*
X153042438Y-88769520D01*
X153056546Y-88830692D01*
X153064211Y-88914701D01*
X153067220Y-89027940D01*
X153067538Y-89102509D01*
X153067538Y-89393420D01*
X153017773Y-89416095D01*
X152978576Y-89432667D01*
X152959157Y-89438769D01*
X152955442Y-89420610D01*
X152952495Y-89371648D01*
X152950691Y-89300153D01*
X152950308Y-89243385D01*
X152948661Y-89161371D01*
X152944222Y-89096309D01*
X152937740Y-89056467D01*
X152932590Y-89048000D01*
X152897977Y-89056646D01*
X152843640Y-89078823D01*
X152780722Y-89108886D01*
X152720368Y-89141192D01*
X152673721Y-89170098D01*
X152651926Y-89189961D01*
X152651839Y-89190175D01*
X152653714Y-89226935D01*
X152670525Y-89262026D01*
X152700039Y-89290528D01*
X152743116Y-89300061D01*
X152779932Y-89298950D01*
X152832074Y-89298133D01*
X152859444Y-89310349D01*
X152875882Y-89342624D01*
X152877955Y-89348710D01*
X152885081Y-89394739D01*
X152866024Y-89422687D01*
X152816353Y-89436007D01*
X152762697Y-89438470D01*
X152666142Y-89420210D01*
X152616159Y-89394131D01*
X152554429Y-89332868D01*
X152521690Y-89257670D01*
X152518753Y-89178211D01*
X152546424Y-89104167D01*
X152588047Y-89057769D01*
X152629604Y-89031793D01*
X152694922Y-88998907D01*
X152771038Y-88965557D01*
X152783726Y-88960461D01*
X152867333Y-88923565D01*
X152915530Y-88891046D01*
X152931030Y-88858718D01*
X152916550Y-88822394D01*
X152891692Y-88794000D01*
X152832939Y-88759039D01*
X152768293Y-88756417D01*
X152709008Y-88783358D01*
X152666339Y-88837088D01*
X152660739Y-88850950D01*
X152628133Y-88901936D01*
X152580530Y-88939787D01*
X152520461Y-88970850D01*
X152520461Y-88882768D01*
X152523997Y-88828951D01*
X152539156Y-88786534D01*
X152572768Y-88741279D01*
X152605035Y-88706420D01*
X152655209Y-88657062D01*
X152694193Y-88630547D01*
X152736064Y-88619911D01*
X152783460Y-88618154D01*
X152887333Y-88633528D01*
X152887333Y-88633528D01*
G37*
X152887333Y-88633528D02*
X152943590Y-88659117D01*
X152987747Y-88690124D01*
X153020101Y-88724795D01*
X153042438Y-88769520D01*
X153056546Y-88830692D01*
X153064211Y-88914701D01*
X153067220Y-89027940D01*
X153067538Y-89102509D01*
X153067538Y-89393420D01*
X153017773Y-89416095D01*
X152978576Y-89432667D01*
X152959157Y-89438769D01*
X152955442Y-89420610D01*
X152952495Y-89371648D01*
X152950691Y-89300153D01*
X152950308Y-89243385D01*
X152948661Y-89161371D01*
X152944222Y-89096309D01*
X152937740Y-89056467D01*
X152932590Y-89048000D01*
X152897977Y-89056646D01*
X152843640Y-89078823D01*
X152780722Y-89108886D01*
X152720368Y-89141192D01*
X152673721Y-89170098D01*
X152651926Y-89189961D01*
X152651839Y-89190175D01*
X152653714Y-89226935D01*
X152670525Y-89262026D01*
X152700039Y-89290528D01*
X152743116Y-89300061D01*
X152779932Y-89298950D01*
X152832074Y-89298133D01*
X152859444Y-89310349D01*
X152875882Y-89342624D01*
X152877955Y-89348710D01*
X152885081Y-89394739D01*
X152866024Y-89422687D01*
X152816353Y-89436007D01*
X152762697Y-89438470D01*
X152666142Y-89420210D01*
X152616159Y-89394131D01*
X152554429Y-89332868D01*
X152521690Y-89257670D01*
X152518753Y-89178211D01*
X152546424Y-89104167D01*
X152588047Y-89057769D01*
X152629604Y-89031793D01*
X152694922Y-88998907D01*
X152771038Y-88965557D01*
X152783726Y-88960461D01*
X152867333Y-88923565D01*
X152915530Y-88891046D01*
X152931030Y-88858718D01*
X152916550Y-88822394D01*
X152891692Y-88794000D01*
X152832939Y-88759039D01*
X152768293Y-88756417D01*
X152709008Y-88783358D01*
X152666339Y-88837088D01*
X152660739Y-88850950D01*
X152628133Y-88901936D01*
X152580530Y-88939787D01*
X152520461Y-88970850D01*
X152520461Y-88882768D01*
X152523997Y-88828951D01*
X152539156Y-88786534D01*
X152572768Y-88741279D01*
X152605035Y-88706420D01*
X152655209Y-88657062D01*
X152694193Y-88630547D01*
X152736064Y-88619911D01*
X152783460Y-88618154D01*
X152887333Y-88633528D01*
G36*
X153570807Y-88636782D02*
X153594161Y-88646988D01*
X153649902Y-88691134D01*
X153697569Y-88754967D01*
X153727048Y-88823087D01*
X153731846Y-88856670D01*
X153715760Y-88903556D01*
X153680475Y-88928365D01*
X153642644Y-88943387D01*
X153625321Y-88946155D01*
X153616886Y-88926066D01*
X153600230Y-88882351D01*
X153592923Y-88862598D01*
X153551948Y-88794271D01*
X153492622Y-88760191D01*
X153416552Y-88761239D01*
X153410918Y-88762581D01*
X153370305Y-88781836D01*
X153340448Y-88819375D01*
X153320055Y-88879809D01*
X153307836Y-88967751D01*
X153302500Y-89087813D01*
X153302000Y-89151698D01*
X153301752Y-89252403D01*
X153300126Y-89321054D01*
X153295801Y-89364673D01*
X153287454Y-89390282D01*
X153273765Y-89404903D01*
X153253411Y-89415558D01*
X153252234Y-89416095D01*
X153213038Y-89432667D01*
X153193619Y-89438769D01*
X153190635Y-89420319D01*
X153188081Y-89369323D01*
X153186140Y-89292308D01*
X153184997Y-89195805D01*
X153184769Y-89125184D01*
X153185932Y-88988525D01*
X153190479Y-88884851D01*
X153199999Y-88808108D01*
X153216081Y-88752246D01*
X153240313Y-88711212D01*
X153274286Y-88678954D01*
X153307833Y-88656440D01*
X153388499Y-88626476D01*
X153482381Y-88619718D01*
X153570807Y-88636782D01*
X153570807Y-88636782D01*
G37*
X153570807Y-88636782D02*
X153594161Y-88646988D01*
X153649902Y-88691134D01*
X153697569Y-88754967D01*
X153727048Y-88823087D01*
X153731846Y-88856670D01*
X153715760Y-88903556D01*
X153680475Y-88928365D01*
X153642644Y-88943387D01*
X153625321Y-88946155D01*
X153616886Y-88926066D01*
X153600230Y-88882351D01*
X153592923Y-88862598D01*
X153551948Y-88794271D01*
X153492622Y-88760191D01*
X153416552Y-88761239D01*
X153410918Y-88762581D01*
X153370305Y-88781836D01*
X153340448Y-88819375D01*
X153320055Y-88879809D01*
X153307836Y-88967751D01*
X153302500Y-89087813D01*
X153302000Y-89151698D01*
X153301752Y-89252403D01*
X153300126Y-89321054D01*
X153295801Y-89364673D01*
X153287454Y-89390282D01*
X153273765Y-89404903D01*
X153253411Y-89415558D01*
X153252234Y-89416095D01*
X153213038Y-89432667D01*
X153193619Y-89438769D01*
X153190635Y-89420319D01*
X153188081Y-89369323D01*
X153186140Y-89292308D01*
X153184997Y-89195805D01*
X153184769Y-89125184D01*
X153185932Y-88988525D01*
X153190479Y-88884851D01*
X153199999Y-88808108D01*
X153216081Y-88752246D01*
X153240313Y-88711212D01*
X153274286Y-88678954D01*
X153307833Y-88656440D01*
X153388499Y-88626476D01*
X153482381Y-88619718D01*
X153570807Y-88636782D01*
G36*
X154245224Y-88647838D02*
X154322528Y-88698361D01*
X154359814Y-88743590D01*
X154389353Y-88825663D01*
X154391699Y-88890607D01*
X154386385Y-88977445D01*
X154186115Y-89065103D01*
X154088739Y-89109887D01*
X154025113Y-89145913D01*
X153992029Y-89177117D01*
X153986280Y-89207436D01*
X154004658Y-89240805D01*
X154024923Y-89262923D01*
X154083889Y-89298393D01*
X154148024Y-89300879D01*
X154206926Y-89273235D01*
X154250197Y-89218320D01*
X154257936Y-89198928D01*
X154295006Y-89138364D01*
X154337654Y-89112552D01*
X154396154Y-89090471D01*
X154396154Y-89174184D01*
X154390982Y-89231150D01*
X154370723Y-89279189D01*
X154328262Y-89334346D01*
X154321951Y-89341514D01*
X154274720Y-89390585D01*
X154234121Y-89416920D01*
X154183328Y-89429035D01*
X154141220Y-89433003D01*
X154065902Y-89433991D01*
X154012286Y-89421466D01*
X153978838Y-89402869D01*
X153926268Y-89361975D01*
X153889879Y-89317748D01*
X153866850Y-89262126D01*
X153854359Y-89187047D01*
X153849587Y-89084449D01*
X153849206Y-89032376D01*
X153850501Y-88969948D01*
X153968471Y-88969948D01*
X153969839Y-89003438D01*
X153973249Y-89008923D01*
X153995753Y-89001472D01*
X154044182Y-88981753D01*
X154108908Y-88953718D01*
X154122443Y-88947692D01*
X154204244Y-88906096D01*
X154249312Y-88869538D01*
X154259217Y-88835296D01*
X154235526Y-88800648D01*
X154215960Y-88785339D01*
X154145360Y-88754721D01*
X154079280Y-88759780D01*
X154023959Y-88797151D01*
X153985636Y-88863473D01*
X153973349Y-88916116D01*
X153968471Y-88969948D01*
X153850501Y-88969948D01*
X153851730Y-88910720D01*
X153861032Y-88820710D01*
X153879460Y-88755167D01*
X153909360Y-88706912D01*
X153953080Y-88668767D01*
X153972141Y-88656440D01*
X154058726Y-88624336D01*
X154153522Y-88622316D01*
X154245224Y-88647838D01*
X154245224Y-88647838D01*
G37*
X154245224Y-88647838D02*
X154322528Y-88698361D01*
X154359814Y-88743590D01*
X154389353Y-88825663D01*
X154391699Y-88890607D01*
X154386385Y-88977445D01*
X154186115Y-89065103D01*
X154088739Y-89109887D01*
X154025113Y-89145913D01*
X153992029Y-89177117D01*
X153986280Y-89207436D01*
X154004658Y-89240805D01*
X154024923Y-89262923D01*
X154083889Y-89298393D01*
X154148024Y-89300879D01*
X154206926Y-89273235D01*
X154250197Y-89218320D01*
X154257936Y-89198928D01*
X154295006Y-89138364D01*
X154337654Y-89112552D01*
X154396154Y-89090471D01*
X154396154Y-89174184D01*
X154390982Y-89231150D01*
X154370723Y-89279189D01*
X154328262Y-89334346D01*
X154321951Y-89341514D01*
X154274720Y-89390585D01*
X154234121Y-89416920D01*
X154183328Y-89429035D01*
X154141220Y-89433003D01*
X154065902Y-89433991D01*
X154012286Y-89421466D01*
X153978838Y-89402869D01*
X153926268Y-89361975D01*
X153889879Y-89317748D01*
X153866850Y-89262126D01*
X153854359Y-89187047D01*
X153849587Y-89084449D01*
X153849206Y-89032376D01*
X153850501Y-88969948D01*
X153968471Y-88969948D01*
X153969839Y-89003438D01*
X153973249Y-89008923D01*
X153995753Y-89001472D01*
X154044182Y-88981753D01*
X154108908Y-88953718D01*
X154122443Y-88947692D01*
X154204244Y-88906096D01*
X154249312Y-88869538D01*
X154259217Y-88835296D01*
X154235526Y-88800648D01*
X154215960Y-88785339D01*
X154145360Y-88754721D01*
X154079280Y-88759780D01*
X154023959Y-88797151D01*
X153985636Y-88863473D01*
X153973349Y-88916116D01*
X153968471Y-88969948D01*
X153850501Y-88969948D01*
X153851730Y-88910720D01*
X153861032Y-88820710D01*
X153879460Y-88755167D01*
X153909360Y-88706912D01*
X153953080Y-88668767D01*
X153972141Y-88656440D01*
X154058726Y-88624336D01*
X154153522Y-88622316D01*
X154245224Y-88647838D01*
G36*
X150139878Y-82287776D02*
X150245612Y-82288355D01*
X150322132Y-82289922D01*
X150374372Y-82292972D01*
X150407263Y-82297996D01*
X150425737Y-82305489D01*
X150434727Y-82315944D01*
X150439163Y-82329853D01*
X150439594Y-82331654D01*
X150446333Y-82364145D01*
X150458808Y-82428252D01*
X150475719Y-82517151D01*
X150495771Y-82624019D01*
X150517664Y-82742033D01*
X150518429Y-82746178D01*
X150540359Y-82861831D01*
X150560877Y-82964014D01*
X150578659Y-83046598D01*
X150592381Y-83103456D01*
X150600718Y-83128458D01*
X150601116Y-83128901D01*
X150625677Y-83141110D01*
X150676315Y-83161456D01*
X150742095Y-83185545D01*
X150742461Y-83185674D01*
X150825317Y-83216818D01*
X150923000Y-83256491D01*
X151015077Y-83296381D01*
X151019434Y-83298353D01*
X151169407Y-83366420D01*
X151501498Y-83139639D01*
X151603374Y-83070504D01*
X151695657Y-83008697D01*
X151773003Y-82957733D01*
X151830064Y-82921127D01*
X151861495Y-82902394D01*
X151864479Y-82901004D01*
X151887321Y-82907190D01*
X151929982Y-82937035D01*
X151994128Y-82991947D01*
X152081421Y-83073334D01*
X152170535Y-83159922D01*
X152256441Y-83245247D01*
X152333327Y-83323108D01*
X152396564Y-83388697D01*
X152441523Y-83437205D01*
X152463576Y-83463825D01*
X152464396Y-83465195D01*
X152466834Y-83483463D01*
X152457650Y-83513295D01*
X152434574Y-83558721D01*
X152395337Y-83623770D01*
X152337670Y-83712470D01*
X152260795Y-83826657D01*
X152192570Y-83927162D01*
X152131582Y-84017303D01*
X152081356Y-84091849D01*
X152045416Y-84145565D01*
X152027287Y-84173218D01*
X152026146Y-84175095D01*
X152028359Y-84201590D01*
X152045138Y-84253086D01*
X152073142Y-84319851D01*
X152083122Y-84341172D01*
X152126672Y-84436159D01*
X152173134Y-84543937D01*
X152210877Y-84637192D01*
X152238073Y-84706406D01*
X152259675Y-84759006D01*
X152272158Y-84786497D01*
X152273709Y-84788616D01*
X152296668Y-84792124D01*
X152350786Y-84801738D01*
X152428868Y-84816089D01*
X152523719Y-84833807D01*
X152628143Y-84853525D01*
X152734944Y-84873874D01*
X152836926Y-84893486D01*
X152926894Y-84910991D01*
X152997653Y-84925022D01*
X153042006Y-84934209D01*
X153052885Y-84936807D01*
X153064122Y-84943218D01*
X153072605Y-84957697D01*
X153078714Y-84985133D01*
X153082832Y-85030411D01*
X153085341Y-85098420D01*
X153086621Y-85194047D01*
X153087054Y-85322180D01*
X153087077Y-85374701D01*
X153087077Y-85801845D01*
X152984500Y-85822091D01*
X152927431Y-85833070D01*
X152842269Y-85849095D01*
X152739372Y-85868233D01*
X152629096Y-85888551D01*
X152598615Y-85894132D01*
X152496855Y-85913917D01*
X152408205Y-85933373D01*
X152340108Y-85950697D01*
X152300004Y-85964088D01*
X152293323Y-85968079D01*
X152276919Y-85996342D01*
X152253399Y-86051109D01*
X152227316Y-86121588D01*
X152222142Y-86136769D01*
X152187956Y-86230896D01*
X152145523Y-86337101D01*
X152103997Y-86432473D01*
X152103792Y-86432916D01*
X152034640Y-86582525D01*
X152489512Y-87251617D01*
X152197500Y-87544116D01*
X152109180Y-87631170D01*
X152028625Y-87707909D01*
X151960360Y-87770237D01*
X151908908Y-87814056D01*
X151878794Y-87835270D01*
X151874474Y-87836616D01*
X151849111Y-87826016D01*
X151797358Y-87796547D01*
X151724868Y-87751705D01*
X151637294Y-87694984D01*
X151542612Y-87631462D01*
X151446516Y-87566668D01*
X151360837Y-87510287D01*
X151291016Y-87465788D01*
X151242494Y-87436639D01*
X151220782Y-87426308D01*
X151194293Y-87435050D01*
X151144062Y-87458087D01*
X151080451Y-87490631D01*
X151073708Y-87494249D01*
X150988046Y-87537210D01*
X150929306Y-87558279D01*
X150892772Y-87558503D01*
X150873731Y-87538928D01*
X150873620Y-87538654D01*
X150864102Y-87515472D01*
X150841403Y-87460441D01*
X150807282Y-87377822D01*
X150763500Y-87271872D01*
X150711816Y-87146852D01*
X150653992Y-87007020D01*
X150597991Y-86871637D01*
X150536447Y-86722234D01*
X150479939Y-86583832D01*
X150430161Y-86460673D01*
X150388806Y-86357002D01*
X150357568Y-86277059D01*
X150338141Y-86225088D01*
X150332154Y-86205692D01*
X150347168Y-86183443D01*
X150386439Y-86147982D01*
X150438807Y-86108887D01*
X150587941Y-85985245D01*
X150704511Y-85843522D01*
X150787118Y-85686704D01*
X150834366Y-85517775D01*
X150844857Y-85339722D01*
X150837231Y-85257539D01*
X150795682Y-85087031D01*
X150724123Y-84936459D01*
X150626995Y-84807309D01*
X150508734Y-84701064D01*
X150373780Y-84619210D01*
X150226571Y-84563232D01*
X150071544Y-84534615D01*
X149913139Y-84534844D01*
X149755794Y-84565405D01*
X149603946Y-84627782D01*
X149462035Y-84723460D01*
X149402803Y-84777572D01*
X149289203Y-84916520D01*
X149210106Y-85068361D01*
X149164986Y-85228667D01*
X149153316Y-85393012D01*
X149174569Y-85556971D01*
X149228220Y-85716118D01*
X149313740Y-85866025D01*
X149430605Y-86002267D01*
X149561193Y-86108887D01*
X149615588Y-86149642D01*
X149654014Y-86184718D01*
X149667846Y-86205726D01*
X149660603Y-86228635D01*
X149640005Y-86283365D01*
X149607746Y-86365672D01*
X149565521Y-86471315D01*
X149515023Y-86596050D01*
X149457948Y-86735636D01*
X149401854Y-86871670D01*
X149339967Y-87021201D01*
X149282644Y-87159767D01*
X149231644Y-87283107D01*
X149188727Y-87386964D01*
X149155653Y-87467080D01*
X149134181Y-87519195D01*
X149126225Y-87538654D01*
X149107429Y-87558423D01*
X149071074Y-87558365D01*
X149012479Y-87537441D01*
X148926968Y-87494613D01*
X148926292Y-87494249D01*
X148861907Y-87461012D01*
X148809861Y-87436802D01*
X148780512Y-87426404D01*
X148779217Y-87426308D01*
X148757124Y-87436855D01*
X148708348Y-87466184D01*
X148638331Y-87510827D01*
X148552514Y-87567314D01*
X148457388Y-87631462D01*
X148360540Y-87696411D01*
X148273253Y-87752896D01*
X148201181Y-87797421D01*
X148149977Y-87826490D01*
X148125526Y-87836616D01*
X148103010Y-87823307D01*
X148057742Y-87786112D01*
X147994244Y-87729128D01*
X147917039Y-87656449D01*
X147830651Y-87572171D01*
X147802399Y-87544016D01*
X147510287Y-87251416D01*
X147732631Y-86925104D01*
X147800202Y-86824897D01*
X147859507Y-86734963D01*
X147907217Y-86660510D01*
X147940007Y-86606751D01*
X147954548Y-86578894D01*
X147954974Y-86576912D01*
X147947308Y-86550655D01*
X147926689Y-86497837D01*
X147896685Y-86427310D01*
X147875625Y-86380093D01*
X147836248Y-86289694D01*
X147799165Y-86198366D01*
X147770415Y-86121200D01*
X147762605Y-86097692D01*
X147740417Y-86034916D01*
X147718727Y-85986411D01*
X147706813Y-85968079D01*
X147680523Y-85956859D01*
X147623142Y-85940954D01*
X147542118Y-85922167D01*
X147444895Y-85902299D01*
X147401385Y-85894132D01*
X147290896Y-85873829D01*
X147184916Y-85854170D01*
X147093801Y-85837088D01*
X147027908Y-85824518D01*
X147015500Y-85822091D01*
X146912923Y-85801845D01*
X146912923Y-85374701D01*
X146913153Y-85234246D01*
X146914099Y-85127979D01*
X146916141Y-85051013D01*
X146919662Y-84998460D01*
X146925043Y-84965433D01*
X146932666Y-84947045D01*
X146942912Y-84938408D01*
X146947115Y-84936807D01*
X146972470Y-84931127D01*
X147028484Y-84919795D01*
X147107964Y-84904179D01*
X147203712Y-84885647D01*
X147308533Y-84865569D01*
X147415232Y-84845312D01*
X147516613Y-84826246D01*
X147605479Y-84809739D01*
X147674637Y-84797159D01*
X147716889Y-84789875D01*
X147726290Y-84788616D01*
X147734807Y-84771763D01*
X147753660Y-84726870D01*
X147779324Y-84662430D01*
X147789123Y-84637192D01*
X147828648Y-84539686D01*
X147875192Y-84431959D01*
X147916877Y-84341172D01*
X147947550Y-84271753D01*
X147967956Y-84214710D01*
X147974768Y-84179777D01*
X147973682Y-84175095D01*
X147959285Y-84152991D01*
X147926412Y-84103831D01*
X147878590Y-84032848D01*
X147819348Y-83945278D01*
X147752215Y-83846357D01*
X147738941Y-83826830D01*
X147661046Y-83711140D01*
X147603787Y-83623044D01*
X147564881Y-83558486D01*
X147542044Y-83513411D01*
X147532994Y-83483763D01*
X147535448Y-83465485D01*
X147535511Y-83465369D01*
X147554827Y-83441361D01*
X147597551Y-83394947D01*
X147659051Y-83330937D01*
X147734698Y-83254145D01*
X147819861Y-83169382D01*
X147829465Y-83159922D01*
X147936790Y-83055989D01*
X148019615Y-82979675D01*
X148079605Y-82929571D01*
X148118423Y-82904270D01*
X148135520Y-82901004D01*
X148160473Y-82915250D01*
X148212255Y-82948156D01*
X148285520Y-82996208D01*
X148374920Y-83055890D01*
X148475111Y-83123688D01*
X148498501Y-83139639D01*
X148830593Y-83366420D01*
X148980565Y-83298353D01*
X149071770Y-83258685D01*
X149169669Y-83218791D01*
X149253831Y-83186983D01*
X149257538Y-83185674D01*
X149323369Y-83161576D01*
X149374116Y-83141200D01*
X149398842Y-83128936D01*
X149398884Y-83128901D01*
X149406729Y-83106734D01*
X149420066Y-83052217D01*
X149437570Y-82971480D01*
X149457917Y-82870650D01*
X149479782Y-82755856D01*
X149481571Y-82746178D01*
X149503504Y-82627904D01*
X149523640Y-82520542D01*
X149540680Y-82430917D01*
X149553328Y-82365851D01*
X149560284Y-82332168D01*
X149560406Y-82331654D01*
X149564639Y-82317325D01*
X149572871Y-82306507D01*
X149590033Y-82298706D01*
X149621058Y-82293429D01*
X149670878Y-82290182D01*
X149744424Y-82288472D01*
X149846629Y-82287807D01*
X149982425Y-82287693D01*
X150000000Y-82287692D01*
X150139878Y-82287776D01*
X150139878Y-82287776D01*
G37*
X150139878Y-82287776D02*
X150245612Y-82288355D01*
X150322132Y-82289922D01*
X150374372Y-82292972D01*
X150407263Y-82297996D01*
X150425737Y-82305489D01*
X150434727Y-82315944D01*
X150439163Y-82329853D01*
X150439594Y-82331654D01*
X150446333Y-82364145D01*
X150458808Y-82428252D01*
X150475719Y-82517151D01*
X150495771Y-82624019D01*
X150517664Y-82742033D01*
X150518429Y-82746178D01*
X150540359Y-82861831D01*
X150560877Y-82964014D01*
X150578659Y-83046598D01*
X150592381Y-83103456D01*
X150600718Y-83128458D01*
X150601116Y-83128901D01*
X150625677Y-83141110D01*
X150676315Y-83161456D01*
X150742095Y-83185545D01*
X150742461Y-83185674D01*
X150825317Y-83216818D01*
X150923000Y-83256491D01*
X151015077Y-83296381D01*
X151019434Y-83298353D01*
X151169407Y-83366420D01*
X151501498Y-83139639D01*
X151603374Y-83070504D01*
X151695657Y-83008697D01*
X151773003Y-82957733D01*
X151830064Y-82921127D01*
X151861495Y-82902394D01*
X151864479Y-82901004D01*
X151887321Y-82907190D01*
X151929982Y-82937035D01*
X151994128Y-82991947D01*
X152081421Y-83073334D01*
X152170535Y-83159922D01*
X152256441Y-83245247D01*
X152333327Y-83323108D01*
X152396564Y-83388697D01*
X152441523Y-83437205D01*
X152463576Y-83463825D01*
X152464396Y-83465195D01*
X152466834Y-83483463D01*
X152457650Y-83513295D01*
X152434574Y-83558721D01*
X152395337Y-83623770D01*
X152337670Y-83712470D01*
X152260795Y-83826657D01*
X152192570Y-83927162D01*
X152131582Y-84017303D01*
X152081356Y-84091849D01*
X152045416Y-84145565D01*
X152027287Y-84173218D01*
X152026146Y-84175095D01*
X152028359Y-84201590D01*
X152045138Y-84253086D01*
X152073142Y-84319851D01*
X152083122Y-84341172D01*
X152126672Y-84436159D01*
X152173134Y-84543937D01*
X152210877Y-84637192D01*
X152238073Y-84706406D01*
X152259675Y-84759006D01*
X152272158Y-84786497D01*
X152273709Y-84788616D01*
X152296668Y-84792124D01*
X152350786Y-84801738D01*
X152428868Y-84816089D01*
X152523719Y-84833807D01*
X152628143Y-84853525D01*
X152734944Y-84873874D01*
X152836926Y-84893486D01*
X152926894Y-84910991D01*
X152997653Y-84925022D01*
X153042006Y-84934209D01*
X153052885Y-84936807D01*
X153064122Y-84943218D01*
X153072605Y-84957697D01*
X153078714Y-84985133D01*
X153082832Y-85030411D01*
X153085341Y-85098420D01*
X153086621Y-85194047D01*
X153087054Y-85322180D01*
X153087077Y-85374701D01*
X153087077Y-85801845D01*
X152984500Y-85822091D01*
X152927431Y-85833070D01*
X152842269Y-85849095D01*
X152739372Y-85868233D01*
X152629096Y-85888551D01*
X152598615Y-85894132D01*
X152496855Y-85913917D01*
X152408205Y-85933373D01*
X152340108Y-85950697D01*
X152300004Y-85964088D01*
X152293323Y-85968079D01*
X152276919Y-85996342D01*
X152253399Y-86051109D01*
X152227316Y-86121588D01*
X152222142Y-86136769D01*
X152187956Y-86230896D01*
X152145523Y-86337101D01*
X152103997Y-86432473D01*
X152103792Y-86432916D01*
X152034640Y-86582525D01*
X152489512Y-87251617D01*
X152197500Y-87544116D01*
X152109180Y-87631170D01*
X152028625Y-87707909D01*
X151960360Y-87770237D01*
X151908908Y-87814056D01*
X151878794Y-87835270D01*
X151874474Y-87836616D01*
X151849111Y-87826016D01*
X151797358Y-87796547D01*
X151724868Y-87751705D01*
X151637294Y-87694984D01*
X151542612Y-87631462D01*
X151446516Y-87566668D01*
X151360837Y-87510287D01*
X151291016Y-87465788D01*
X151242494Y-87436639D01*
X151220782Y-87426308D01*
X151194293Y-87435050D01*
X151144062Y-87458087D01*
X151080451Y-87490631D01*
X151073708Y-87494249D01*
X150988046Y-87537210D01*
X150929306Y-87558279D01*
X150892772Y-87558503D01*
X150873731Y-87538928D01*
X150873620Y-87538654D01*
X150864102Y-87515472D01*
X150841403Y-87460441D01*
X150807282Y-87377822D01*
X150763500Y-87271872D01*
X150711816Y-87146852D01*
X150653992Y-87007020D01*
X150597991Y-86871637D01*
X150536447Y-86722234D01*
X150479939Y-86583832D01*
X150430161Y-86460673D01*
X150388806Y-86357002D01*
X150357568Y-86277059D01*
X150338141Y-86225088D01*
X150332154Y-86205692D01*
X150347168Y-86183443D01*
X150386439Y-86147982D01*
X150438807Y-86108887D01*
X150587941Y-85985245D01*
X150704511Y-85843522D01*
X150787118Y-85686704D01*
X150834366Y-85517775D01*
X150844857Y-85339722D01*
X150837231Y-85257539D01*
X150795682Y-85087031D01*
X150724123Y-84936459D01*
X150626995Y-84807309D01*
X150508734Y-84701064D01*
X150373780Y-84619210D01*
X150226571Y-84563232D01*
X150071544Y-84534615D01*
X149913139Y-84534844D01*
X149755794Y-84565405D01*
X149603946Y-84627782D01*
X149462035Y-84723460D01*
X149402803Y-84777572D01*
X149289203Y-84916520D01*
X149210106Y-85068361D01*
X149164986Y-85228667D01*
X149153316Y-85393012D01*
X149174569Y-85556971D01*
X149228220Y-85716118D01*
X149313740Y-85866025D01*
X149430605Y-86002267D01*
X149561193Y-86108887D01*
X149615588Y-86149642D01*
X149654014Y-86184718D01*
X149667846Y-86205726D01*
X149660603Y-86228635D01*
X149640005Y-86283365D01*
X149607746Y-86365672D01*
X149565521Y-86471315D01*
X149515023Y-86596050D01*
X149457948Y-86735636D01*
X149401854Y-86871670D01*
X149339967Y-87021201D01*
X149282644Y-87159767D01*
X149231644Y-87283107D01*
X149188727Y-87386964D01*
X149155653Y-87467080D01*
X149134181Y-87519195D01*
X149126225Y-87538654D01*
X149107429Y-87558423D01*
X149071074Y-87558365D01*
X149012479Y-87537441D01*
X148926968Y-87494613D01*
X148926292Y-87494249D01*
X148861907Y-87461012D01*
X148809861Y-87436802D01*
X148780512Y-87426404D01*
X148779217Y-87426308D01*
X148757124Y-87436855D01*
X148708348Y-87466184D01*
X148638331Y-87510827D01*
X148552514Y-87567314D01*
X148457388Y-87631462D01*
X148360540Y-87696411D01*
X148273253Y-87752896D01*
X148201181Y-87797421D01*
X148149977Y-87826490D01*
X148125526Y-87836616D01*
X148103010Y-87823307D01*
X148057742Y-87786112D01*
X147994244Y-87729128D01*
X147917039Y-87656449D01*
X147830651Y-87572171D01*
X147802399Y-87544016D01*
X147510287Y-87251416D01*
X147732631Y-86925104D01*
X147800202Y-86824897D01*
X147859507Y-86734963D01*
X147907217Y-86660510D01*
X147940007Y-86606751D01*
X147954548Y-86578894D01*
X147954974Y-86576912D01*
X147947308Y-86550655D01*
X147926689Y-86497837D01*
X147896685Y-86427310D01*
X147875625Y-86380093D01*
X147836248Y-86289694D01*
X147799165Y-86198366D01*
X147770415Y-86121200D01*
X147762605Y-86097692D01*
X147740417Y-86034916D01*
X147718727Y-85986411D01*
X147706813Y-85968079D01*
X147680523Y-85956859D01*
X147623142Y-85940954D01*
X147542118Y-85922167D01*
X147444895Y-85902299D01*
X147401385Y-85894132D01*
X147290896Y-85873829D01*
X147184916Y-85854170D01*
X147093801Y-85837088D01*
X147027908Y-85824518D01*
X147015500Y-85822091D01*
X146912923Y-85801845D01*
X146912923Y-85374701D01*
X146913153Y-85234246D01*
X146914099Y-85127979D01*
X146916141Y-85051013D01*
X146919662Y-84998460D01*
X146925043Y-84965433D01*
X146932666Y-84947045D01*
X146942912Y-84938408D01*
X146947115Y-84936807D01*
X146972470Y-84931127D01*
X147028484Y-84919795D01*
X147107964Y-84904179D01*
X147203712Y-84885647D01*
X147308533Y-84865569D01*
X147415232Y-84845312D01*
X147516613Y-84826246D01*
X147605479Y-84809739D01*
X147674637Y-84797159D01*
X147716889Y-84789875D01*
X147726290Y-84788616D01*
X147734807Y-84771763D01*
X147753660Y-84726870D01*
X147779324Y-84662430D01*
X147789123Y-84637192D01*
X147828648Y-84539686D01*
X147875192Y-84431959D01*
X147916877Y-84341172D01*
X147947550Y-84271753D01*
X147967956Y-84214710D01*
X147974768Y-84179777D01*
X147973682Y-84175095D01*
X147959285Y-84152991D01*
X147926412Y-84103831D01*
X147878590Y-84032848D01*
X147819348Y-83945278D01*
X147752215Y-83846357D01*
X147738941Y-83826830D01*
X147661046Y-83711140D01*
X147603787Y-83623044D01*
X147564881Y-83558486D01*
X147542044Y-83513411D01*
X147532994Y-83483763D01*
X147535448Y-83465485D01*
X147535511Y-83465369D01*
X147554827Y-83441361D01*
X147597551Y-83394947D01*
X147659051Y-83330937D01*
X147734698Y-83254145D01*
X147819861Y-83169382D01*
X147829465Y-83159922D01*
X147936790Y-83055989D01*
X148019615Y-82979675D01*
X148079605Y-82929571D01*
X148118423Y-82904270D01*
X148135520Y-82901004D01*
X148160473Y-82915250D01*
X148212255Y-82948156D01*
X148285520Y-82996208D01*
X148374920Y-83055890D01*
X148475111Y-83123688D01*
X148498501Y-83139639D01*
X148830593Y-83366420D01*
X148980565Y-83298353D01*
X149071770Y-83258685D01*
X149169669Y-83218791D01*
X149253831Y-83186983D01*
X149257538Y-83185674D01*
X149323369Y-83161576D01*
X149374116Y-83141200D01*
X149398842Y-83128936D01*
X149398884Y-83128901D01*
X149406729Y-83106734D01*
X149420066Y-83052217D01*
X149437570Y-82971480D01*
X149457917Y-82870650D01*
X149479782Y-82755856D01*
X149481571Y-82746178D01*
X149503504Y-82627904D01*
X149523640Y-82520542D01*
X149540680Y-82430917D01*
X149553328Y-82365851D01*
X149560284Y-82332168D01*
X149560406Y-82331654D01*
X149564639Y-82317325D01*
X149572871Y-82306507D01*
X149590033Y-82298706D01*
X149621058Y-82293429D01*
X149670878Y-82290182D01*
X149744424Y-82288472D01*
X149846629Y-82287807D01*
X149982425Y-82287693D01*
X150000000Y-82287692D01*
X150139878Y-82287776D01*
G36*
X139152554Y-106974541D02*
X139678756Y-106974613D01*
X139923697Y-106974623D01*
X143844301Y-106974623D01*
X143844301Y-107205734D01*
X143868968Y-107486976D01*
X143943416Y-107746359D01*
X144068314Y-107985424D01*
X144244330Y-108205714D01*
X144303882Y-108265210D01*
X144518105Y-108433971D01*
X144754310Y-108557052D01*
X145005483Y-108634510D01*
X145264607Y-108666399D01*
X145524667Y-108652776D01*
X145778647Y-108593697D01*
X146019531Y-108489217D01*
X146240304Y-108339393D01*
X146339457Y-108249001D01*
X146524227Y-108027376D01*
X146659716Y-107783661D01*
X146744744Y-107520643D01*
X146778128Y-107241106D01*
X146778572Y-107213606D01*
X146780322Y-106974632D01*
X146885355Y-106974628D01*
X146978530Y-106987273D01*
X147063644Y-107018040D01*
X147069269Y-107021219D01*
X147088492Y-107031194D01*
X147106145Y-107038962D01*
X147122292Y-107046787D01*
X147136995Y-107056930D01*
X147150319Y-107071655D01*
X147162328Y-107093225D01*
X147173085Y-107123901D01*
X147182654Y-107165947D01*
X147191099Y-107221626D01*
X147198484Y-107293199D01*
X147204873Y-107382930D01*
X147210329Y-107493082D01*
X147214916Y-107625916D01*
X147218698Y-107783696D01*
X147221740Y-107968684D01*
X147224103Y-108183144D01*
X147225853Y-108429337D01*
X147227053Y-108709527D01*
X147227768Y-109025975D01*
X147228060Y-109380946D01*
X147227993Y-109776700D01*
X147227632Y-110215502D01*
X147227040Y-110699614D01*
X147226281Y-111231298D01*
X147225419Y-111812817D01*
X147224518Y-112446433D01*
X147224413Y-112523629D01*
X147223605Y-113161287D01*
X147222919Y-113746582D01*
X147222283Y-114281778D01*
X147221624Y-114769136D01*
X147220869Y-115210917D01*
X147219947Y-115609382D01*
X147218784Y-115966795D01*
X147217307Y-116285415D01*
X147215445Y-116567506D01*
X147213124Y-116815328D01*
X147210271Y-117031143D01*
X147206815Y-117217213D01*
X147202682Y-117375800D01*
X147197800Y-117509164D01*
X147192096Y-117619569D01*
X147185498Y-117709275D01*
X147177932Y-117780544D01*
X147169327Y-117835638D01*
X147159610Y-117876818D01*
X147148707Y-117906346D01*
X147136547Y-117926484D01*
X147123057Y-117939493D01*
X147108163Y-117947636D01*
X147091794Y-117953173D01*
X147073877Y-117958366D01*
X147054339Y-117965477D01*
X147049566Y-117967642D01*
X147034566Y-117972506D01*
X147009459Y-117976976D01*
X146972054Y-117981066D01*
X146920158Y-117984793D01*
X146851580Y-117988173D01*
X146764127Y-117991221D01*
X146655606Y-117993954D01*
X146523826Y-117996387D01*
X146366594Y-117998537D01*
X146181719Y-118000419D01*
X145967007Y-118002049D01*
X145720266Y-118003443D01*
X145439306Y-118004617D01*
X145121932Y-118005587D01*
X144765953Y-118006369D01*
X144369178Y-118006979D01*
X143929412Y-118007432D01*
X143444465Y-118007745D01*
X142912144Y-118007934D01*
X142330257Y-118008013D01*
X141696611Y-118008000D01*
X141491356Y-118007980D01*
X140843653Y-118007876D01*
X140248356Y-118007706D01*
X139703245Y-118007453D01*
X139206103Y-118007098D01*
X138754710Y-118006626D01*
X138346849Y-118006018D01*
X137980300Y-118005258D01*
X137652846Y-118004327D01*
X137362268Y-118003209D01*
X137106348Y-118001886D01*
X136882867Y-118000341D01*
X136689606Y-117998557D01*
X136524348Y-117996516D01*
X136384873Y-117994201D01*
X136268963Y-117991594D01*
X136174400Y-117988678D01*
X136098966Y-117985436D01*
X136040442Y-117981851D01*
X135996609Y-117977905D01*
X135965248Y-117973581D01*
X135944143Y-117968862D01*
X135932637Y-117964540D01*
X135912188Y-117955916D01*
X135893413Y-117949557D01*
X135876240Y-117943203D01*
X135860598Y-117934597D01*
X135846416Y-117921480D01*
X135833623Y-117901594D01*
X135822148Y-117872679D01*
X135811920Y-117832479D01*
X135802867Y-117778733D01*
X135794920Y-117709185D01*
X135788006Y-117621574D01*
X135782055Y-117513644D01*
X135776995Y-117383135D01*
X135772755Y-117227789D01*
X135769265Y-117045348D01*
X135766453Y-116833553D01*
X135765717Y-116752258D01*
X136494639Y-116752258D01*
X139071013Y-116752258D01*
X139021439Y-116677150D01*
X138972122Y-116599968D01*
X138930360Y-116526469D01*
X138895559Y-116451512D01*
X138867123Y-116369953D01*
X138844460Y-116276648D01*
X138826975Y-116166453D01*
X138814074Y-116034225D01*
X138805163Y-115874820D01*
X138799648Y-115683095D01*
X138796936Y-115453907D01*
X138796431Y-115182112D01*
X138797541Y-114862566D01*
X138798170Y-114743932D01*
X138805268Y-113472123D01*
X139610967Y-114569010D01*
X139839221Y-114880183D01*
X140036975Y-115151143D01*
X140206365Y-115385478D01*
X140349527Y-115586780D01*
X140468595Y-115758637D01*
X140565705Y-115904640D01*
X140642993Y-116028378D01*
X140702593Y-116133441D01*
X140746641Y-116223420D01*
X140777272Y-116301903D01*
X140796622Y-116372480D01*
X140806825Y-116438742D01*
X140810017Y-116504277D01*
X140808333Y-116572677D01*
X140807903Y-116581274D01*
X140799032Y-116752372D01*
X142210764Y-116752315D01*
X143622495Y-116752258D01*
X143412484Y-116540500D01*
X143355496Y-116482582D01*
X143301434Y-116426225D01*
X143247924Y-116368322D01*
X143192596Y-116305764D01*
X143133075Y-116235443D01*
X143066989Y-116154251D01*
X142991966Y-116059081D01*
X142905633Y-115946823D01*
X142805617Y-115814370D01*
X142689546Y-115658614D01*
X142555048Y-115476446D01*
X142399749Y-115264760D01*
X142221278Y-115020446D01*
X142017260Y-114740397D01*
X141785325Y-114421504D01*
X141595218Y-114159920D01*
X141356628Y-113831292D01*
X141148492Y-113543957D01*
X140968925Y-113295187D01*
X140816043Y-113082254D01*
X140687959Y-112902430D01*
X140582788Y-112752986D01*
X140498645Y-112631196D01*
X140433643Y-112534331D01*
X140385897Y-112459662D01*
X140353523Y-112404463D01*
X140334634Y-112366004D01*
X140327345Y-112341559D01*
X140329536Y-112328706D01*
X140356087Y-112294504D01*
X140413492Y-112222108D01*
X140498287Y-112115820D01*
X140607008Y-111979945D01*
X140736192Y-111818784D01*
X140882374Y-111636643D01*
X141042091Y-111437822D01*
X141211879Y-111226627D01*
X141388274Y-111007359D01*
X141567813Y-110784323D01*
X141666565Y-110661720D01*
X144118452Y-110661720D01*
X144322258Y-111030430D01*
X144322258Y-116383548D01*
X144118452Y-116752258D01*
X145323889Y-116752258D01*
X145611659Y-116752174D01*
X145849353Y-116751797D01*
X146041518Y-116750935D01*
X146192702Y-116749400D01*
X146307452Y-116747000D01*
X146390315Y-116743546D01*
X146445838Y-116738849D01*
X146478570Y-116732717D01*
X146493057Y-116724961D01*
X146493847Y-116715391D01*
X146485487Y-116703817D01*
X146485401Y-116703721D01*
X146450964Y-116653907D01*
X146405363Y-116572910D01*
X146365092Y-116492055D01*
X146288709Y-116328925D01*
X146280919Y-113495322D01*
X146273129Y-110661720D01*
X144118452Y-110661720D01*
X141666565Y-110661720D01*
X141747031Y-110561821D01*
X141922464Y-110344157D01*
X142090650Y-110135633D01*
X142248123Y-109940554D01*
X142391421Y-109763221D01*
X142517079Y-109607939D01*
X142621634Y-109479010D01*
X142701621Y-109380738D01*
X142748602Y-109323441D01*
X142931037Y-109109180D01*
X143106548Y-108915830D01*
X143268984Y-108749720D01*
X143412195Y-108617180D01*
X143513829Y-108535921D01*
X143634002Y-108449462D01*
X140870160Y-108449462D01*
X140870936Y-108611646D01*
X140863212Y-108730883D01*
X140834172Y-108841426D01*
X140789218Y-108946216D01*
X140759996Y-109005416D01*
X140728577Y-109064074D01*
X140692091Y-109126086D01*
X140647669Y-109195345D01*
X140592439Y-109275746D01*
X140523531Y-109371181D01*
X140438077Y-109485547D01*
X140333204Y-109622735D01*
X140206045Y-109786642D01*
X140053727Y-109981160D01*
X139873382Y-110210185D01*
X139662138Y-110477609D01*
X139638279Y-110507783D01*
X138805268Y-111561195D01*
X138797204Y-110394522D01*
X138795580Y-110045069D01*
X138795926Y-109749230D01*
X138798258Y-109506030D01*
X138802593Y-109314493D01*
X138808949Y-109173644D01*
X138817341Y-109082508D01*
X138820162Y-109065220D01*
X138864416Y-108883117D01*
X138922398Y-108718950D01*
X138988563Y-108586954D01*
X139028313Y-108530972D01*
X139096898Y-108449462D01*
X137795547Y-108449462D01*
X137485115Y-108449728D01*
X137225523Y-108450591D01*
X137012986Y-108452154D01*
X136843724Y-108454517D01*
X136713952Y-108457780D01*
X136619889Y-108462045D01*
X136557752Y-108467413D01*
X136523759Y-108473983D01*
X136514126Y-108481858D01*
X136514792Y-108483602D01*
X136542380Y-108525243D01*
X136588436Y-108591248D01*
X136612265Y-108624631D01*
X136636901Y-108657944D01*
X136659045Y-108687734D01*
X136678836Y-108716933D01*
X136696414Y-108748474D01*
X136711919Y-108785286D01*
X136725489Y-108830303D01*
X136737264Y-108886455D01*
X136747384Y-108956675D01*
X136755987Y-109043894D01*
X136763214Y-109151043D01*
X136769204Y-109281055D01*
X136774096Y-109436861D01*
X136778029Y-109621393D01*
X136781143Y-109837581D01*
X136783578Y-110088359D01*
X136785473Y-110376658D01*
X136786967Y-110705409D01*
X136788199Y-111077543D01*
X136789310Y-111495994D01*
X136790438Y-111963691D01*
X136791492Y-112393354D01*
X136792488Y-112872353D01*
X136793006Y-113329362D01*
X136793059Y-113761464D01*
X136792662Y-114165738D01*
X136791828Y-114539265D01*
X136790571Y-114879127D01*
X136788906Y-115182404D01*
X136786844Y-115446177D01*
X136784401Y-115667527D01*
X136781590Y-115843535D01*
X136778424Y-115971283D01*
X136774918Y-116047849D01*
X136774255Y-116055941D01*
X136750095Y-116241568D01*
X136712376Y-116390647D01*
X136654936Y-116520750D01*
X136571611Y-116649452D01*
X136561189Y-116663494D01*
X136494639Y-116752258D01*
X135765717Y-116752258D01*
X135764248Y-116590145D01*
X135762579Y-116312867D01*
X135761375Y-115999459D01*
X135760565Y-115647664D01*
X135760078Y-115255223D01*
X135759844Y-114819877D01*
X135759789Y-114339368D01*
X135759844Y-113811438D01*
X135759938Y-113233828D01*
X135759998Y-112604279D01*
X135760000Y-112479301D01*
X135760035Y-111843122D01*
X135760153Y-111259325D01*
X135760372Y-110725668D01*
X135760708Y-110239909D01*
X135761178Y-109799805D01*
X135761802Y-109403116D01*
X135762594Y-109047599D01*
X135763574Y-108731012D01*
X135764758Y-108451113D01*
X135766164Y-108205661D01*
X135767810Y-107992413D01*
X135769712Y-107809128D01*
X135771887Y-107653564D01*
X135774355Y-107523478D01*
X135777131Y-107416629D01*
X135780233Y-107330775D01*
X135783679Y-107263674D01*
X135787485Y-107213084D01*
X135791670Y-107176764D01*
X135796251Y-107152470D01*
X135801245Y-107137962D01*
X135801430Y-107137600D01*
X135811715Y-107115437D01*
X135820282Y-107095372D01*
X135829759Y-107077301D01*
X135842774Y-107061121D01*
X135861957Y-107046726D01*
X135889935Y-107034014D01*
X135929337Y-107022880D01*
X135982792Y-107013221D01*
X136052929Y-107004932D01*
X136142376Y-106997910D01*
X136253762Y-106992050D01*
X136389716Y-106987250D01*
X136552865Y-106983404D01*
X136745839Y-106980409D01*
X136971267Y-106978161D01*
X137231776Y-106976556D01*
X137529996Y-106975491D01*
X137868555Y-106974860D01*
X138250082Y-106974561D01*
X138677206Y-106974490D01*
X139152554Y-106974541D01*
X139152554Y-106974541D01*
G37*
X139152554Y-106974541D02*
X139678756Y-106974613D01*
X139923697Y-106974623D01*
X143844301Y-106974623D01*
X143844301Y-107205734D01*
X143868968Y-107486976D01*
X143943416Y-107746359D01*
X144068314Y-107985424D01*
X144244330Y-108205714D01*
X144303882Y-108265210D01*
X144518105Y-108433971D01*
X144754310Y-108557052D01*
X145005483Y-108634510D01*
X145264607Y-108666399D01*
X145524667Y-108652776D01*
X145778647Y-108593697D01*
X146019531Y-108489217D01*
X146240304Y-108339393D01*
X146339457Y-108249001D01*
X146524227Y-108027376D01*
X146659716Y-107783661D01*
X146744744Y-107520643D01*
X146778128Y-107241106D01*
X146778572Y-107213606D01*
X146780322Y-106974632D01*
X146885355Y-106974628D01*
X146978530Y-106987273D01*
X147063644Y-107018040D01*
X147069269Y-107021219D01*
X147088492Y-107031194D01*
X147106145Y-107038962D01*
X147122292Y-107046787D01*
X147136995Y-107056930D01*
X147150319Y-107071655D01*
X147162328Y-107093225D01*
X147173085Y-107123901D01*
X147182654Y-107165947D01*
X147191099Y-107221626D01*
X147198484Y-107293199D01*
X147204873Y-107382930D01*
X147210329Y-107493082D01*
X147214916Y-107625916D01*
X147218698Y-107783696D01*
X147221740Y-107968684D01*
X147224103Y-108183144D01*
X147225853Y-108429337D01*
X147227053Y-108709527D01*
X147227768Y-109025975D01*
X147228060Y-109380946D01*
X147227993Y-109776700D01*
X147227632Y-110215502D01*
X147227040Y-110699614D01*
X147226281Y-111231298D01*
X147225419Y-111812817D01*
X147224518Y-112446433D01*
X147224413Y-112523629D01*
X147223605Y-113161287D01*
X147222919Y-113746582D01*
X147222283Y-114281778D01*
X147221624Y-114769136D01*
X147220869Y-115210917D01*
X147219947Y-115609382D01*
X147218784Y-115966795D01*
X147217307Y-116285415D01*
X147215445Y-116567506D01*
X147213124Y-116815328D01*
X147210271Y-117031143D01*
X147206815Y-117217213D01*
X147202682Y-117375800D01*
X147197800Y-117509164D01*
X147192096Y-117619569D01*
X147185498Y-117709275D01*
X147177932Y-117780544D01*
X147169327Y-117835638D01*
X147159610Y-117876818D01*
X147148707Y-117906346D01*
X147136547Y-117926484D01*
X147123057Y-117939493D01*
X147108163Y-117947636D01*
X147091794Y-117953173D01*
X147073877Y-117958366D01*
X147054339Y-117965477D01*
X147049566Y-117967642D01*
X147034566Y-117972506D01*
X147009459Y-117976976D01*
X146972054Y-117981066D01*
X146920158Y-117984793D01*
X146851580Y-117988173D01*
X146764127Y-117991221D01*
X146655606Y-117993954D01*
X146523826Y-117996387D01*
X146366594Y-117998537D01*
X146181719Y-118000419D01*
X145967007Y-118002049D01*
X145720266Y-118003443D01*
X145439306Y-118004617D01*
X145121932Y-118005587D01*
X144765953Y-118006369D01*
X144369178Y-118006979D01*
X143929412Y-118007432D01*
X143444465Y-118007745D01*
X142912144Y-118007934D01*
X142330257Y-118008013D01*
X141696611Y-118008000D01*
X141491356Y-118007980D01*
X140843653Y-118007876D01*
X140248356Y-118007706D01*
X139703245Y-118007453D01*
X139206103Y-118007098D01*
X138754710Y-118006626D01*
X138346849Y-118006018D01*
X137980300Y-118005258D01*
X137652846Y-118004327D01*
X137362268Y-118003209D01*
X137106348Y-118001886D01*
X136882867Y-118000341D01*
X136689606Y-117998557D01*
X136524348Y-117996516D01*
X136384873Y-117994201D01*
X136268963Y-117991594D01*
X136174400Y-117988678D01*
X136098966Y-117985436D01*
X136040442Y-117981851D01*
X135996609Y-117977905D01*
X135965248Y-117973581D01*
X135944143Y-117968862D01*
X135932637Y-117964540D01*
X135912188Y-117955916D01*
X135893413Y-117949557D01*
X135876240Y-117943203D01*
X135860598Y-117934597D01*
X135846416Y-117921480D01*
X135833623Y-117901594D01*
X135822148Y-117872679D01*
X135811920Y-117832479D01*
X135802867Y-117778733D01*
X135794920Y-117709185D01*
X135788006Y-117621574D01*
X135782055Y-117513644D01*
X135776995Y-117383135D01*
X135772755Y-117227789D01*
X135769265Y-117045348D01*
X135766453Y-116833553D01*
X135765717Y-116752258D01*
X136494639Y-116752258D01*
X139071013Y-116752258D01*
X139021439Y-116677150D01*
X138972122Y-116599968D01*
X138930360Y-116526469D01*
X138895559Y-116451512D01*
X138867123Y-116369953D01*
X138844460Y-116276648D01*
X138826975Y-116166453D01*
X138814074Y-116034225D01*
X138805163Y-115874820D01*
X138799648Y-115683095D01*
X138796936Y-115453907D01*
X138796431Y-115182112D01*
X138797541Y-114862566D01*
X138798170Y-114743932D01*
X138805268Y-113472123D01*
X139610967Y-114569010D01*
X139839221Y-114880183D01*
X140036975Y-115151143D01*
X140206365Y-115385478D01*
X140349527Y-115586780D01*
X140468595Y-115758637D01*
X140565705Y-115904640D01*
X140642993Y-116028378D01*
X140702593Y-116133441D01*
X140746641Y-116223420D01*
X140777272Y-116301903D01*
X140796622Y-116372480D01*
X140806825Y-116438742D01*
X140810017Y-116504277D01*
X140808333Y-116572677D01*
X140807903Y-116581274D01*
X140799032Y-116752372D01*
X142210764Y-116752315D01*
X143622495Y-116752258D01*
X143412484Y-116540500D01*
X143355496Y-116482582D01*
X143301434Y-116426225D01*
X143247924Y-116368322D01*
X143192596Y-116305764D01*
X143133075Y-116235443D01*
X143066989Y-116154251D01*
X142991966Y-116059081D01*
X142905633Y-115946823D01*
X142805617Y-115814370D01*
X142689546Y-115658614D01*
X142555048Y-115476446D01*
X142399749Y-115264760D01*
X142221278Y-115020446D01*
X142017260Y-114740397D01*
X141785325Y-114421504D01*
X141595218Y-114159920D01*
X141356628Y-113831292D01*
X141148492Y-113543957D01*
X140968925Y-113295187D01*
X140816043Y-113082254D01*
X140687959Y-112902430D01*
X140582788Y-112752986D01*
X140498645Y-112631196D01*
X140433643Y-112534331D01*
X140385897Y-112459662D01*
X140353523Y-112404463D01*
X140334634Y-112366004D01*
X140327345Y-112341559D01*
X140329536Y-112328706D01*
X140356087Y-112294504D01*
X140413492Y-112222108D01*
X140498287Y-112115820D01*
X140607008Y-111979945D01*
X140736192Y-111818784D01*
X140882374Y-111636643D01*
X141042091Y-111437822D01*
X141211879Y-111226627D01*
X141388274Y-111007359D01*
X141567813Y-110784323D01*
X141666565Y-110661720D01*
X144118452Y-110661720D01*
X144322258Y-111030430D01*
X144322258Y-116383548D01*
X144118452Y-116752258D01*
X145323889Y-116752258D01*
X145611659Y-116752174D01*
X145849353Y-116751797D01*
X146041518Y-116750935D01*
X146192702Y-116749400D01*
X146307452Y-116747000D01*
X146390315Y-116743546D01*
X146445838Y-116738849D01*
X146478570Y-116732717D01*
X146493057Y-116724961D01*
X146493847Y-116715391D01*
X146485487Y-116703817D01*
X146485401Y-116703721D01*
X146450964Y-116653907D01*
X146405363Y-116572910D01*
X146365092Y-116492055D01*
X146288709Y-116328925D01*
X146280919Y-113495322D01*
X146273129Y-110661720D01*
X144118452Y-110661720D01*
X141666565Y-110661720D01*
X141747031Y-110561821D01*
X141922464Y-110344157D01*
X142090650Y-110135633D01*
X142248123Y-109940554D01*
X142391421Y-109763221D01*
X142517079Y-109607939D01*
X142621634Y-109479010D01*
X142701621Y-109380738D01*
X142748602Y-109323441D01*
X142931037Y-109109180D01*
X143106548Y-108915830D01*
X143268984Y-108749720D01*
X143412195Y-108617180D01*
X143513829Y-108535921D01*
X143634002Y-108449462D01*
X140870160Y-108449462D01*
X140870936Y-108611646D01*
X140863212Y-108730883D01*
X140834172Y-108841426D01*
X140789218Y-108946216D01*
X140759996Y-109005416D01*
X140728577Y-109064074D01*
X140692091Y-109126086D01*
X140647669Y-109195345D01*
X140592439Y-109275746D01*
X140523531Y-109371181D01*
X140438077Y-109485547D01*
X140333204Y-109622735D01*
X140206045Y-109786642D01*
X140053727Y-109981160D01*
X139873382Y-110210185D01*
X139662138Y-110477609D01*
X139638279Y-110507783D01*
X138805268Y-111561195D01*
X138797204Y-110394522D01*
X138795580Y-110045069D01*
X138795926Y-109749230D01*
X138798258Y-109506030D01*
X138802593Y-109314493D01*
X138808949Y-109173644D01*
X138817341Y-109082508D01*
X138820162Y-109065220D01*
X138864416Y-108883117D01*
X138922398Y-108718950D01*
X138988563Y-108586954D01*
X139028313Y-108530972D01*
X139096898Y-108449462D01*
X137795547Y-108449462D01*
X137485115Y-108449728D01*
X137225523Y-108450591D01*
X137012986Y-108452154D01*
X136843724Y-108454517D01*
X136713952Y-108457780D01*
X136619889Y-108462045D01*
X136557752Y-108467413D01*
X136523759Y-108473983D01*
X136514126Y-108481858D01*
X136514792Y-108483602D01*
X136542380Y-108525243D01*
X136588436Y-108591248D01*
X136612265Y-108624631D01*
X136636901Y-108657944D01*
X136659045Y-108687734D01*
X136678836Y-108716933D01*
X136696414Y-108748474D01*
X136711919Y-108785286D01*
X136725489Y-108830303D01*
X136737264Y-108886455D01*
X136747384Y-108956675D01*
X136755987Y-109043894D01*
X136763214Y-109151043D01*
X136769204Y-109281055D01*
X136774096Y-109436861D01*
X136778029Y-109621393D01*
X136781143Y-109837581D01*
X136783578Y-110088359D01*
X136785473Y-110376658D01*
X136786967Y-110705409D01*
X136788199Y-111077543D01*
X136789310Y-111495994D01*
X136790438Y-111963691D01*
X136791492Y-112393354D01*
X136792488Y-112872353D01*
X136793006Y-113329362D01*
X136793059Y-113761464D01*
X136792662Y-114165738D01*
X136791828Y-114539265D01*
X136790571Y-114879127D01*
X136788906Y-115182404D01*
X136786844Y-115446177D01*
X136784401Y-115667527D01*
X136781590Y-115843535D01*
X136778424Y-115971283D01*
X136774918Y-116047849D01*
X136774255Y-116055941D01*
X136750095Y-116241568D01*
X136712376Y-116390647D01*
X136654936Y-116520750D01*
X136571611Y-116649452D01*
X136561189Y-116663494D01*
X136494639Y-116752258D01*
X135765717Y-116752258D01*
X135764248Y-116590145D01*
X135762579Y-116312867D01*
X135761375Y-115999459D01*
X135760565Y-115647664D01*
X135760078Y-115255223D01*
X135759844Y-114819877D01*
X135759789Y-114339368D01*
X135759844Y-113811438D01*
X135759938Y-113233828D01*
X135759998Y-112604279D01*
X135760000Y-112479301D01*
X135760035Y-111843122D01*
X135760153Y-111259325D01*
X135760372Y-110725668D01*
X135760708Y-110239909D01*
X135761178Y-109799805D01*
X135761802Y-109403116D01*
X135762594Y-109047599D01*
X135763574Y-108731012D01*
X135764758Y-108451113D01*
X135766164Y-108205661D01*
X135767810Y-107992413D01*
X135769712Y-107809128D01*
X135771887Y-107653564D01*
X135774355Y-107523478D01*
X135777131Y-107416629D01*
X135780233Y-107330775D01*
X135783679Y-107263674D01*
X135787485Y-107213084D01*
X135791670Y-107176764D01*
X135796251Y-107152470D01*
X135801245Y-107137962D01*
X135801430Y-107137600D01*
X135811715Y-107115437D01*
X135820282Y-107095372D01*
X135829759Y-107077301D01*
X135842774Y-107061121D01*
X135861957Y-107046726D01*
X135889935Y-107034014D01*
X135929337Y-107022880D01*
X135982792Y-107013221D01*
X136052929Y-107004932D01*
X136142376Y-106997910D01*
X136253762Y-106992050D01*
X136389716Y-106987250D01*
X136552865Y-106983404D01*
X136745839Y-106980409D01*
X136971267Y-106978161D01*
X137231776Y-106976556D01*
X137529996Y-106975491D01*
X137868555Y-106974860D01*
X138250082Y-106974561D01*
X138677206Y-106974490D01*
X139152554Y-106974541D01*
G36*
X151875193Y-108340777D02*
X152169706Y-108373019D01*
X152455039Y-108430729D01*
X152742800Y-108516917D01*
X153044596Y-108634593D01*
X153372034Y-108786767D01*
X153431001Y-108816243D01*
X153566324Y-108882910D01*
X153693951Y-108942939D01*
X153801287Y-108990599D01*
X153875736Y-109020155D01*
X153887173Y-109023876D01*
X153996774Y-109056714D01*
X153506155Y-109770453D01*
X153386206Y-109944895D01*
X153276539Y-110104270D01*
X153180883Y-110243168D01*
X153102969Y-110356178D01*
X153046525Y-110437890D01*
X153015281Y-110482891D01*
X153010205Y-110490018D01*
X152989588Y-110475117D01*
X152938839Y-110430320D01*
X152867034Y-110363765D01*
X152827406Y-110326147D01*
X152602882Y-110147568D01*
X152350726Y-110011868D01*
X152133440Y-109937537D01*
X152003007Y-109914193D01*
X151839693Y-109899967D01*
X151662707Y-109895124D01*
X151491256Y-109899926D01*
X151344548Y-109914638D01*
X151286007Y-109925905D01*
X151022147Y-110016685D01*
X150784378Y-110155296D01*
X150572876Y-110341485D01*
X150387816Y-110574999D01*
X150229375Y-110855584D01*
X150097729Y-111182987D01*
X149993054Y-111556955D01*
X149930845Y-111877097D01*
X149914614Y-112018426D01*
X149903556Y-112201004D01*
X149897563Y-112411709D01*
X149896527Y-112637422D01*
X149900343Y-112865022D01*
X149908903Y-113081389D01*
X149922101Y-113273402D01*
X149939830Y-113427943D01*
X149943667Y-113451786D01*
X150028251Y-113835860D01*
X150143495Y-114175783D01*
X150290103Y-114473078D01*
X150468774Y-114729268D01*
X150595600Y-114867775D01*
X150823525Y-115055828D01*
X151073488Y-115195220D01*
X151341270Y-115285195D01*
X151622656Y-115324994D01*
X151913429Y-115313857D01*
X152209373Y-115251026D01*
X152384340Y-115189547D01*
X152626466Y-115066436D01*
X152876020Y-114889837D01*
X153015809Y-114770412D01*
X153094301Y-114701291D01*
X153155970Y-114650579D01*
X153191072Y-114626144D01*
X153195430Y-114625398D01*
X153211097Y-114650367D01*
X153251692Y-114716348D01*
X153313757Y-114817685D01*
X153393833Y-114948721D01*
X153488462Y-115103800D01*
X153594186Y-115277265D01*
X153653033Y-115373896D01*
X154102526Y-116112201D01*
X153541317Y-116389549D01*
X153338404Y-116489172D01*
X153174027Y-116567729D01*
X153038139Y-116629122D01*
X152920691Y-116677253D01*
X152811636Y-116716023D01*
X152700926Y-116749333D01*
X152578513Y-116781086D01*
X152461182Y-116808969D01*
X152356895Y-116830546D01*
X152247832Y-116846851D01*
X152123073Y-116858791D01*
X151971703Y-116867270D01*
X151782801Y-116873192D01*
X151655483Y-116875749D01*
X151473823Y-116877494D01*
X151299633Y-116876614D01*
X151144443Y-116873360D01*
X151019777Y-116867984D01*
X150937166Y-116860735D01*
X150932270Y-116860012D01*
X150503291Y-116767205D01*
X150100449Y-116626449D01*
X149723888Y-116437839D01*
X149373748Y-116201466D01*
X149050172Y-115917424D01*
X148753300Y-115585805D01*
X148538299Y-115291075D01*
X148309411Y-114905298D01*
X148124389Y-114497895D01*
X147982338Y-114065600D01*
X147882364Y-113605146D01*
X147823572Y-113113267D01*
X147805049Y-112613799D01*
X147820283Y-112130634D01*
X147868156Y-111684842D01*
X147950189Y-111268905D01*
X148067903Y-110875304D01*
X148222819Y-110496518D01*
X148241317Y-110457275D01*
X148445106Y-110090440D01*
X148695402Y-109741360D01*
X148985115Y-109417260D01*
X149307154Y-109125366D01*
X149654426Y-108872904D01*
X149978013Y-108687714D01*
X150304904Y-108542670D01*
X150632489Y-108437603D01*
X150973448Y-108369653D01*
X151340465Y-108335960D01*
X151559892Y-108330992D01*
X151875193Y-108340777D01*
X151875193Y-108340777D01*
G37*
X151875193Y-108340777D02*
X152169706Y-108373019D01*
X152455039Y-108430729D01*
X152742800Y-108516917D01*
X153044596Y-108634593D01*
X153372034Y-108786767D01*
X153431001Y-108816243D01*
X153566324Y-108882910D01*
X153693951Y-108942939D01*
X153801287Y-108990599D01*
X153875736Y-109020155D01*
X153887173Y-109023876D01*
X153996774Y-109056714D01*
X153506155Y-109770453D01*
X153386206Y-109944895D01*
X153276539Y-110104270D01*
X153180883Y-110243168D01*
X153102969Y-110356178D01*
X153046525Y-110437890D01*
X153015281Y-110482891D01*
X153010205Y-110490018D01*
X152989588Y-110475117D01*
X152938839Y-110430320D01*
X152867034Y-110363765D01*
X152827406Y-110326147D01*
X152602882Y-110147568D01*
X152350726Y-110011868D01*
X152133440Y-109937537D01*
X152003007Y-109914193D01*
X151839693Y-109899967D01*
X151662707Y-109895124D01*
X151491256Y-109899926D01*
X151344548Y-109914638D01*
X151286007Y-109925905D01*
X151022147Y-110016685D01*
X150784378Y-110155296D01*
X150572876Y-110341485D01*
X150387816Y-110574999D01*
X150229375Y-110855584D01*
X150097729Y-111182987D01*
X149993054Y-111556955D01*
X149930845Y-111877097D01*
X149914614Y-112018426D01*
X149903556Y-112201004D01*
X149897563Y-112411709D01*
X149896527Y-112637422D01*
X149900343Y-112865022D01*
X149908903Y-113081389D01*
X149922101Y-113273402D01*
X149939830Y-113427943D01*
X149943667Y-113451786D01*
X150028251Y-113835860D01*
X150143495Y-114175783D01*
X150290103Y-114473078D01*
X150468774Y-114729268D01*
X150595600Y-114867775D01*
X150823525Y-115055828D01*
X151073488Y-115195220D01*
X151341270Y-115285195D01*
X151622656Y-115324994D01*
X151913429Y-115313857D01*
X152209373Y-115251026D01*
X152384340Y-115189547D01*
X152626466Y-115066436D01*
X152876020Y-114889837D01*
X153015809Y-114770412D01*
X153094301Y-114701291D01*
X153155970Y-114650579D01*
X153191072Y-114626144D01*
X153195430Y-114625398D01*
X153211097Y-114650367D01*
X153251692Y-114716348D01*
X153313757Y-114817685D01*
X153393833Y-114948721D01*
X153488462Y-115103800D01*
X153594186Y-115277265D01*
X153653033Y-115373896D01*
X154102526Y-116112201D01*
X153541317Y-116389549D01*
X153338404Y-116489172D01*
X153174027Y-116567729D01*
X153038139Y-116629122D01*
X152920691Y-116677253D01*
X152811636Y-116716023D01*
X152700926Y-116749333D01*
X152578513Y-116781086D01*
X152461182Y-116808969D01*
X152356895Y-116830546D01*
X152247832Y-116846851D01*
X152123073Y-116858791D01*
X151971703Y-116867270D01*
X151782801Y-116873192D01*
X151655483Y-116875749D01*
X151473823Y-116877494D01*
X151299633Y-116876614D01*
X151144443Y-116873360D01*
X151019777Y-116867984D01*
X150937166Y-116860735D01*
X150932270Y-116860012D01*
X150503291Y-116767205D01*
X150100449Y-116626449D01*
X149723888Y-116437839D01*
X149373748Y-116201466D01*
X149050172Y-115917424D01*
X148753300Y-115585805D01*
X148538299Y-115291075D01*
X148309411Y-114905298D01*
X148124389Y-114497895D01*
X147982338Y-114065600D01*
X147882364Y-113605146D01*
X147823572Y-113113267D01*
X147805049Y-112613799D01*
X147820283Y-112130634D01*
X147868156Y-111684842D01*
X147950189Y-111268905D01*
X148067903Y-110875304D01*
X148222819Y-110496518D01*
X148241317Y-110457275D01*
X148445106Y-110090440D01*
X148695402Y-109741360D01*
X148985115Y-109417260D01*
X149307154Y-109125366D01*
X149654426Y-108872904D01*
X149978013Y-108687714D01*
X150304904Y-108542670D01*
X150632489Y-108437603D01*
X150973448Y-108369653D01*
X151340465Y-108335960D01*
X151559892Y-108330992D01*
X151875193Y-108340777D01*
G36*
X157300951Y-110536368D02*
X157436272Y-110546611D01*
X157823442Y-110598122D01*
X158166321Y-110680283D01*
X158466580Y-110794222D01*
X158725888Y-110941072D01*
X158945916Y-111121962D01*
X159128334Y-111338022D01*
X159274811Y-111590384D01*
X159381771Y-111863441D01*
X159408921Y-111950541D01*
X159432564Y-112032107D01*
X159452977Y-112112529D01*
X159470439Y-112196199D01*
X159485230Y-112287508D01*
X159497627Y-112390847D01*
X159507911Y-112510609D01*
X159516358Y-112651183D01*
X159523248Y-112816962D01*
X159528861Y-113012336D01*
X159533473Y-113241698D01*
X159537365Y-113509437D01*
X159540815Y-113819947D01*
X159544102Y-114177618D01*
X159546451Y-114458064D01*
X159562258Y-116383548D01*
X159664677Y-116568843D01*
X159713175Y-116658111D01*
X159749266Y-116727448D01*
X159766483Y-116764354D01*
X159767096Y-116766854D01*
X159740780Y-116769715D01*
X159665811Y-116772351D01*
X159548161Y-116774689D01*
X159393800Y-116776653D01*
X159208700Y-116778170D01*
X158998832Y-116779165D01*
X158770167Y-116779565D01*
X158742903Y-116779570D01*
X157718709Y-116779570D01*
X157718709Y-116547419D01*
X157716963Y-116442507D01*
X157712302Y-116362271D01*
X157705596Y-116319251D01*
X157702632Y-116315269D01*
X157675523Y-116331950D01*
X157619731Y-116375731D01*
X157547215Y-116437216D01*
X157545589Y-116438638D01*
X157413257Y-116537160D01*
X157246133Y-116636089D01*
X157063100Y-116725706D01*
X156883043Y-116796293D01*
X156803763Y-116820414D01*
X156645991Y-116851051D01*
X156452397Y-116870602D01*
X156240704Y-116878787D01*
X156028632Y-116875327D01*
X155833904Y-116859945D01*
X155697634Y-116837811D01*
X155363454Y-116739676D01*
X155062603Y-116599819D01*
X154797039Y-116419974D01*
X154568721Y-116201876D01*
X154379606Y-115947261D01*
X154231653Y-115657864D01*
X154167825Y-115482258D01*
X154127823Y-115311576D01*
X154101313Y-115106678D01*
X154089047Y-114886464D01*
X154089450Y-114854420D01*
X155936612Y-114854420D01*
X155951930Y-115018053D01*
X156002935Y-115154042D01*
X156097204Y-115280208D01*
X156133411Y-115317203D01*
X156262120Y-115417221D01*
X156410885Y-115481294D01*
X156589113Y-115512309D01*
X156776798Y-115514593D01*
X156954814Y-115499514D01*
X157091112Y-115470021D01*
X157150306Y-115447869D01*
X157256995Y-115387496D01*
X157370037Y-115302589D01*
X157473175Y-115207295D01*
X157550151Y-115115760D01*
X157570591Y-115082181D01*
X157586481Y-115035157D01*
X157597778Y-114960333D01*
X157605009Y-114850560D01*
X157608700Y-114698692D01*
X157609462Y-114554155D01*
X157608946Y-114385644D01*
X157606860Y-114263799D01*
X157602402Y-114180666D01*
X157594765Y-114128292D01*
X157583146Y-114098726D01*
X157566740Y-114084013D01*
X157561666Y-114081670D01*
X157517570Y-114074453D01*
X157430600Y-114068550D01*
X157312500Y-114064493D01*
X157175014Y-114062815D01*
X157145161Y-114062813D01*
X156961386Y-114065746D01*
X156819407Y-114074469D01*
X156706591Y-114090177D01*
X156613402Y-114113118D01*
X156382246Y-114200535D01*
X156200973Y-114308010D01*
X156068014Y-114437262D01*
X155981801Y-114590010D01*
X155940762Y-114767972D01*
X155936612Y-114854420D01*
X154089450Y-114854420D01*
X154091776Y-114669834D01*
X154110252Y-114475689D01*
X154124664Y-114397252D01*
X154216690Y-114106017D01*
X154356623Y-113838054D01*
X154541823Y-113595932D01*
X154769648Y-113382221D01*
X155037457Y-113199492D01*
X155342607Y-113050314D01*
X155602043Y-112959727D01*
X155775434Y-112912136D01*
X155941282Y-112875155D01*
X156110329Y-112847585D01*
X156293317Y-112828224D01*
X156500989Y-112815871D01*
X156744087Y-112809326D01*
X156963872Y-112807483D01*
X157615594Y-112805699D01*
X157603109Y-112609798D01*
X157567657Y-112397243D01*
X157492241Y-112214543D01*
X157380073Y-112066262D01*
X157234364Y-111956960D01*
X157106064Y-111903624D01*
X156922235Y-111870010D01*
X156703394Y-111865183D01*
X156459800Y-111887363D01*
X156201710Y-111934772D01*
X155939385Y-112005629D01*
X155683082Y-112098155D01*
X155496824Y-112182778D01*
X155407211Y-112226231D01*
X155338858Y-112256580D01*
X155304097Y-112268423D01*
X155302211Y-112268043D01*
X155290215Y-112241518D01*
X155260262Y-112171210D01*
X155215170Y-112063855D01*
X155157757Y-111926190D01*
X155090842Y-111764949D01*
X155022824Y-111600395D01*
X154750897Y-110941328D01*
X154944319Y-110909559D01*
X155028154Y-110893619D01*
X155154183Y-110866847D01*
X155311608Y-110831673D01*
X155489633Y-110790528D01*
X155677463Y-110745842D01*
X155752258Y-110727683D01*
X156075838Y-110652631D01*
X156359132Y-110596362D01*
X156612715Y-110557738D01*
X156847162Y-110535623D01*
X157073049Y-110528878D01*
X157300951Y-110536368D01*
X157300951Y-110536368D01*
G37*
X157300951Y-110536368D02*
X157436272Y-110546611D01*
X157823442Y-110598122D01*
X158166321Y-110680283D01*
X158466580Y-110794222D01*
X158725888Y-110941072D01*
X158945916Y-111121962D01*
X159128334Y-111338022D01*
X159274811Y-111590384D01*
X159381771Y-111863441D01*
X159408921Y-111950541D01*
X159432564Y-112032107D01*
X159452977Y-112112529D01*
X159470439Y-112196199D01*
X159485230Y-112287508D01*
X159497627Y-112390847D01*
X159507911Y-112510609D01*
X159516358Y-112651183D01*
X159523248Y-112816962D01*
X159528861Y-113012336D01*
X159533473Y-113241698D01*
X159537365Y-113509437D01*
X159540815Y-113819947D01*
X159544102Y-114177618D01*
X159546451Y-114458064D01*
X159562258Y-116383548D01*
X159664677Y-116568843D01*
X159713175Y-116658111D01*
X159749266Y-116727448D01*
X159766483Y-116764354D01*
X159767096Y-116766854D01*
X159740780Y-116769715D01*
X159665811Y-116772351D01*
X159548161Y-116774689D01*
X159393800Y-116776653D01*
X159208700Y-116778170D01*
X158998832Y-116779165D01*
X158770167Y-116779565D01*
X158742903Y-116779570D01*
X157718709Y-116779570D01*
X157718709Y-116547419D01*
X157716963Y-116442507D01*
X157712302Y-116362271D01*
X157705596Y-116319251D01*
X157702632Y-116315269D01*
X157675523Y-116331950D01*
X157619731Y-116375731D01*
X157547215Y-116437216D01*
X157545589Y-116438638D01*
X157413257Y-116537160D01*
X157246133Y-116636089D01*
X157063100Y-116725706D01*
X156883043Y-116796293D01*
X156803763Y-116820414D01*
X156645991Y-116851051D01*
X156452397Y-116870602D01*
X156240704Y-116878787D01*
X156028632Y-116875327D01*
X155833904Y-116859945D01*
X155697634Y-116837811D01*
X155363454Y-116739676D01*
X155062603Y-116599819D01*
X154797039Y-116419974D01*
X154568721Y-116201876D01*
X154379606Y-115947261D01*
X154231653Y-115657864D01*
X154167825Y-115482258D01*
X154127823Y-115311576D01*
X154101313Y-115106678D01*
X154089047Y-114886464D01*
X154089450Y-114854420D01*
X155936612Y-114854420D01*
X155951930Y-115018053D01*
X156002935Y-115154042D01*
X156097204Y-115280208D01*
X156133411Y-115317203D01*
X156262120Y-115417221D01*
X156410885Y-115481294D01*
X156589113Y-115512309D01*
X156776798Y-115514593D01*
X156954814Y-115499514D01*
X157091112Y-115470021D01*
X157150306Y-115447869D01*
X157256995Y-115387496D01*
X157370037Y-115302589D01*
X157473175Y-115207295D01*
X157550151Y-115115760D01*
X157570591Y-115082181D01*
X157586481Y-115035157D01*
X157597778Y-114960333D01*
X157605009Y-114850560D01*
X157608700Y-114698692D01*
X157609462Y-114554155D01*
X157608946Y-114385644D01*
X157606860Y-114263799D01*
X157602402Y-114180666D01*
X157594765Y-114128292D01*
X157583146Y-114098726D01*
X157566740Y-114084013D01*
X157561666Y-114081670D01*
X157517570Y-114074453D01*
X157430600Y-114068550D01*
X157312500Y-114064493D01*
X157175014Y-114062815D01*
X157145161Y-114062813D01*
X156961386Y-114065746D01*
X156819407Y-114074469D01*
X156706591Y-114090177D01*
X156613402Y-114113118D01*
X156382246Y-114200535D01*
X156200973Y-114308010D01*
X156068014Y-114437262D01*
X155981801Y-114590010D01*
X155940762Y-114767972D01*
X155936612Y-114854420D01*
X154089450Y-114854420D01*
X154091776Y-114669834D01*
X154110252Y-114475689D01*
X154124664Y-114397252D01*
X154216690Y-114106017D01*
X154356623Y-113838054D01*
X154541823Y-113595932D01*
X154769648Y-113382221D01*
X155037457Y-113199492D01*
X155342607Y-113050314D01*
X155602043Y-112959727D01*
X155775434Y-112912136D01*
X155941282Y-112875155D01*
X156110329Y-112847585D01*
X156293317Y-112828224D01*
X156500989Y-112815871D01*
X156744087Y-112809326D01*
X156963872Y-112807483D01*
X157615594Y-112805699D01*
X157603109Y-112609798D01*
X157567657Y-112397243D01*
X157492241Y-112214543D01*
X157380073Y-112066262D01*
X157234364Y-111956960D01*
X157106064Y-111903624D01*
X156922235Y-111870010D01*
X156703394Y-111865183D01*
X156459800Y-111887363D01*
X156201710Y-111934772D01*
X155939385Y-112005629D01*
X155683082Y-112098155D01*
X155496824Y-112182778D01*
X155407211Y-112226231D01*
X155338858Y-112256580D01*
X155304097Y-112268423D01*
X155302211Y-112268043D01*
X155290215Y-112241518D01*
X155260262Y-112171210D01*
X155215170Y-112063855D01*
X155157757Y-111926190D01*
X155090842Y-111764949D01*
X155022824Y-111600395D01*
X154750897Y-110941328D01*
X154944319Y-110909559D01*
X155028154Y-110893619D01*
X155154183Y-110866847D01*
X155311608Y-110831673D01*
X155489633Y-110790528D01*
X155677463Y-110745842D01*
X155752258Y-110727683D01*
X156075838Y-110652631D01*
X156359132Y-110596362D01*
X156612715Y-110557738D01*
X156847162Y-110535623D01*
X157073049Y-110528878D01*
X157300951Y-110536368D01*
G36*
X164610967Y-107935618D02*
X164843254Y-107936571D01*
X164922204Y-107937052D01*
X166007849Y-107944193D01*
X166021505Y-112109247D01*
X166023308Y-112674041D01*
X166024908Y-113186864D01*
X166026406Y-113650371D01*
X166027906Y-114067214D01*
X166029509Y-114440045D01*
X166031320Y-114771519D01*
X166033440Y-115064286D01*
X166035972Y-115321002D01*
X166039020Y-115544318D01*
X166042685Y-115736887D01*
X166047071Y-115901363D01*
X166052280Y-116040398D01*
X166058416Y-116156644D01*
X166065580Y-116252756D01*
X166073875Y-116331386D01*
X166083405Y-116395187D01*
X166094272Y-116446811D01*
X166106579Y-116488912D01*
X166120428Y-116524143D01*
X166135923Y-116555156D01*
X166153165Y-116584604D01*
X166172258Y-116615141D01*
X166193305Y-116649418D01*
X166197619Y-116656720D01*
X166269996Y-116780221D01*
X165223976Y-116773068D01*
X164177956Y-116765914D01*
X164164301Y-116536142D01*
X164156865Y-116425873D01*
X164149117Y-116362122D01*
X164138603Y-116336827D01*
X164122872Y-116341922D01*
X164109677Y-116356498D01*
X164052197Y-116409591D01*
X163958513Y-116477837D01*
X163841825Y-116553080D01*
X163715331Y-116627167D01*
X163592231Y-116691943D01*
X163497713Y-116734561D01*
X163276274Y-116804595D01*
X163022207Y-116854204D01*
X162754266Y-116881494D01*
X162491211Y-116884569D01*
X162251795Y-116861532D01*
X162247853Y-116860873D01*
X161920253Y-116778669D01*
X161613587Y-116647700D01*
X161330814Y-116470780D01*
X161074892Y-116250726D01*
X160848778Y-115990351D01*
X160655430Y-115692472D01*
X160497806Y-115359904D01*
X160411984Y-115113548D01*
X160355389Y-114907445D01*
X160313418Y-114707867D01*
X160284789Y-114502690D01*
X160268218Y-114279791D01*
X160262423Y-114027045D01*
X160264989Y-113820662D01*
X162280325Y-113820662D01*
X162289862Y-114166732D01*
X162319946Y-114464467D01*
X162371503Y-114716510D01*
X162445458Y-114925502D01*
X162542738Y-115094086D01*
X162664266Y-115224906D01*
X162804546Y-115317385D01*
X162877540Y-115351909D01*
X162940847Y-115372607D01*
X163011427Y-115382077D01*
X163106242Y-115382915D01*
X163208387Y-115379228D01*
X163409261Y-115361510D01*
X163568134Y-115326813D01*
X163618064Y-115309433D01*
X163732075Y-115258102D01*
X163852323Y-115193643D01*
X163904838Y-115161376D01*
X164041397Y-115071805D01*
X164041397Y-112232706D01*
X163891182Y-112142665D01*
X163681692Y-112040923D01*
X163467658Y-111980751D01*
X163256909Y-111961796D01*
X163057273Y-111983701D01*
X162876577Y-112046113D01*
X162722649Y-112148676D01*
X162672981Y-112197906D01*
X162553262Y-112359211D01*
X162456364Y-112554471D01*
X162381477Y-112787031D01*
X162327793Y-113060239D01*
X162294500Y-113377441D01*
X162280789Y-113741984D01*
X162280325Y-113820662D01*
X160264989Y-113820662D01*
X160266058Y-113734756D01*
X160289082Y-113285158D01*
X160335378Y-112879628D01*
X160406164Y-112512257D01*
X160502661Y-112177137D01*
X160626087Y-111868363D01*
X160670131Y-111776822D01*
X160847540Y-111478296D01*
X161061930Y-111213007D01*
X161308259Y-110985237D01*
X161581487Y-110799268D01*
X161876574Y-110659382D01*
X162053459Y-110601678D01*
X162227178Y-110567422D01*
X162436205Y-110547041D01*
X162663014Y-110540525D01*
X162890084Y-110547866D01*
X163099892Y-110569055D01*
X163268352Y-110602295D01*
X163468857Y-110667482D01*
X163663195Y-110751307D01*
X163833224Y-110845280D01*
X163923721Y-110909058D01*
X163986144Y-110956484D01*
X164029853Y-110985361D01*
X164039796Y-110989462D01*
X164042879Y-110963041D01*
X164045753Y-110887339D01*
X164048355Y-110767698D01*
X164050621Y-110609462D01*
X164052488Y-110417973D01*
X164053891Y-110198574D01*
X164054767Y-109956607D01*
X164055053Y-109710147D01*
X164054894Y-109394476D01*
X164054108Y-109128337D01*
X164052238Y-108906641D01*
X164048825Y-108724296D01*
X164043409Y-108576212D01*
X164035531Y-108457299D01*
X164024733Y-108362465D01*
X164010555Y-108286620D01*
X163992539Y-108224674D01*
X163970225Y-108171536D01*
X163943154Y-108122115D01*
X163910867Y-108071321D01*
X163906713Y-108065031D01*
X163865071Y-107999245D01*
X163839929Y-107954008D01*
X163836559Y-107944466D01*
X163862903Y-107941455D01*
X163938069Y-107939006D01*
X164056257Y-107937158D01*
X164211669Y-107935951D01*
X164398506Y-107935424D01*
X164610967Y-107935618D01*
X164610967Y-107935618D01*
G37*
X164610967Y-107935618D02*
X164843254Y-107936571D01*
X164922204Y-107937052D01*
X166007849Y-107944193D01*
X166021505Y-112109247D01*
X166023308Y-112674041D01*
X166024908Y-113186864D01*
X166026406Y-113650371D01*
X166027906Y-114067214D01*
X166029509Y-114440045D01*
X166031320Y-114771519D01*
X166033440Y-115064286D01*
X166035972Y-115321002D01*
X166039020Y-115544318D01*
X166042685Y-115736887D01*
X166047071Y-115901363D01*
X166052280Y-116040398D01*
X166058416Y-116156644D01*
X166065580Y-116252756D01*
X166073875Y-116331386D01*
X166083405Y-116395187D01*
X166094272Y-116446811D01*
X166106579Y-116488912D01*
X166120428Y-116524143D01*
X166135923Y-116555156D01*
X166153165Y-116584604D01*
X166172258Y-116615141D01*
X166193305Y-116649418D01*
X166197619Y-116656720D01*
X166269996Y-116780221D01*
X165223976Y-116773068D01*
X164177956Y-116765914D01*
X164164301Y-116536142D01*
X164156865Y-116425873D01*
X164149117Y-116362122D01*
X164138603Y-116336827D01*
X164122872Y-116341922D01*
X164109677Y-116356498D01*
X164052197Y-116409591D01*
X163958513Y-116477837D01*
X163841825Y-116553080D01*
X163715331Y-116627167D01*
X163592231Y-116691943D01*
X163497713Y-116734561D01*
X163276274Y-116804595D01*
X163022207Y-116854204D01*
X162754266Y-116881494D01*
X162491211Y-116884569D01*
X162251795Y-116861532D01*
X162247853Y-116860873D01*
X161920253Y-116778669D01*
X161613587Y-116647700D01*
X161330814Y-116470780D01*
X161074892Y-116250726D01*
X160848778Y-115990351D01*
X160655430Y-115692472D01*
X160497806Y-115359904D01*
X160411984Y-115113548D01*
X160355389Y-114907445D01*
X160313418Y-114707867D01*
X160284789Y-114502690D01*
X160268218Y-114279791D01*
X160262423Y-114027045D01*
X160264989Y-113820662D01*
X162280325Y-113820662D01*
X162289862Y-114166732D01*
X162319946Y-114464467D01*
X162371503Y-114716510D01*
X162445458Y-114925502D01*
X162542738Y-115094086D01*
X162664266Y-115224906D01*
X162804546Y-115317385D01*
X162877540Y-115351909D01*
X162940847Y-115372607D01*
X163011427Y-115382077D01*
X163106242Y-115382915D01*
X163208387Y-115379228D01*
X163409261Y-115361510D01*
X163568134Y-115326813D01*
X163618064Y-115309433D01*
X163732075Y-115258102D01*
X163852323Y-115193643D01*
X163904838Y-115161376D01*
X164041397Y-115071805D01*
X164041397Y-112232706D01*
X163891182Y-112142665D01*
X163681692Y-112040923D01*
X163467658Y-111980751D01*
X163256909Y-111961796D01*
X163057273Y-111983701D01*
X162876577Y-112046113D01*
X162722649Y-112148676D01*
X162672981Y-112197906D01*
X162553262Y-112359211D01*
X162456364Y-112554471D01*
X162381477Y-112787031D01*
X162327793Y-113060239D01*
X162294500Y-113377441D01*
X162280789Y-113741984D01*
X162280325Y-113820662D01*
X160264989Y-113820662D01*
X160266058Y-113734756D01*
X160289082Y-113285158D01*
X160335378Y-112879628D01*
X160406164Y-112512257D01*
X160502661Y-112177137D01*
X160626087Y-111868363D01*
X160670131Y-111776822D01*
X160847540Y-111478296D01*
X161061930Y-111213007D01*
X161308259Y-110985237D01*
X161581487Y-110799268D01*
X161876574Y-110659382D01*
X162053459Y-110601678D01*
X162227178Y-110567422D01*
X162436205Y-110547041D01*
X162663014Y-110540525D01*
X162890084Y-110547866D01*
X163099892Y-110569055D01*
X163268352Y-110602295D01*
X163468857Y-110667482D01*
X163663195Y-110751307D01*
X163833224Y-110845280D01*
X163923721Y-110909058D01*
X163986144Y-110956484D01*
X164029853Y-110985361D01*
X164039796Y-110989462D01*
X164042879Y-110963041D01*
X164045753Y-110887339D01*
X164048355Y-110767698D01*
X164050621Y-110609462D01*
X164052488Y-110417973D01*
X164053891Y-110198574D01*
X164054767Y-109956607D01*
X164055053Y-109710147D01*
X164054894Y-109394476D01*
X164054108Y-109128337D01*
X164052238Y-108906641D01*
X164048825Y-108724296D01*
X164043409Y-108576212D01*
X164035531Y-108457299D01*
X164024733Y-108362465D01*
X164010555Y-108286620D01*
X163992539Y-108224674D01*
X163970225Y-108171536D01*
X163943154Y-108122115D01*
X163910867Y-108071321D01*
X163906713Y-108065031D01*
X163865071Y-107999245D01*
X163839929Y-107954008D01*
X163836559Y-107944466D01*
X163862903Y-107941455D01*
X163938069Y-107939006D01*
X164056257Y-107937158D01*
X164211669Y-107935951D01*
X164398506Y-107935424D01*
X164610967Y-107935618D01*
G36*
X145577156Y-106104844D02*
X145782258Y-106175957D01*
X145973215Y-106287889D01*
X146143757Y-106440625D01*
X146287613Y-106634151D01*
X146352232Y-106756129D01*
X146408158Y-106926743D01*
X146435265Y-107123711D01*
X146432262Y-107326205D01*
X146398933Y-107509699D01*
X146307838Y-107733924D01*
X146175742Y-107928422D01*
X146009358Y-108089367D01*
X145815402Y-108212933D01*
X145600586Y-108295292D01*
X145371625Y-108332617D01*
X145135233Y-108321082D01*
X145018709Y-108296430D01*
X144791615Y-108208091D01*
X144589919Y-108073290D01*
X144418485Y-107896183D01*
X144282180Y-107680927D01*
X144270648Y-107657419D01*
X144230783Y-107569205D01*
X144205751Y-107494910D01*
X144192161Y-107416535D01*
X144186618Y-107316080D01*
X144185698Y-107206774D01*
X144187220Y-107075448D01*
X144194086Y-106980509D01*
X144209750Y-106903753D01*
X144237667Y-106826974D01*
X144272127Y-106751223D01*
X144400662Y-106536190D01*
X144558948Y-106362080D01*
X144740713Y-106228876D01*
X144939687Y-106136566D01*
X145149600Y-106085134D01*
X145364179Y-106074565D01*
X145577156Y-106104844D01*
X145577156Y-106104844D01*
G37*
X145577156Y-106104844D02*
X145782258Y-106175957D01*
X145973215Y-106287889D01*
X146143757Y-106440625D01*
X146287613Y-106634151D01*
X146352232Y-106756129D01*
X146408158Y-106926743D01*
X146435265Y-107123711D01*
X146432262Y-107326205D01*
X146398933Y-107509699D01*
X146307838Y-107733924D01*
X146175742Y-107928422D01*
X146009358Y-108089367D01*
X145815402Y-108212933D01*
X145600586Y-108295292D01*
X145371625Y-108332617D01*
X145135233Y-108321082D01*
X145018709Y-108296430D01*
X144791615Y-108208091D01*
X144589919Y-108073290D01*
X144418485Y-107896183D01*
X144282180Y-107680927D01*
X144270648Y-107657419D01*
X144230783Y-107569205D01*
X144205751Y-107494910D01*
X144192161Y-107416535D01*
X144186618Y-107316080D01*
X144185698Y-107206774D01*
X144187220Y-107075448D01*
X144194086Y-106980509D01*
X144209750Y-106903753D01*
X144237667Y-106826974D01*
X144272127Y-106751223D01*
X144400662Y-106536190D01*
X144558948Y-106362080D01*
X144740713Y-106228876D01*
X144939687Y-106136566D01*
X145149600Y-106085134D01*
X145364179Y-106074565D01*
X145577156Y-106104844D01*
G36*
X138907623Y-118917114D02*
X138986940Y-118917920D01*
X139219351Y-118923528D01*
X139413994Y-118940185D01*
X139577504Y-118969680D01*
X139716514Y-119013797D01*
X139837659Y-119074325D01*
X139947571Y-119153050D01*
X139986829Y-119187248D01*
X140051951Y-119267265D01*
X140110672Y-119375846D01*
X140155931Y-119496203D01*
X140180665Y-119611547D01*
X140183235Y-119654169D01*
X140167130Y-119772322D01*
X140123973Y-119901382D01*
X140061496Y-120023542D01*
X139987433Y-120120992D01*
X139975403Y-120132750D01*
X139873501Y-120215394D01*
X139761912Y-120279909D01*
X139634202Y-120327983D01*
X139483938Y-120361307D01*
X139304686Y-120381572D01*
X139090013Y-120390469D01*
X138991683Y-120391223D01*
X138866660Y-120390621D01*
X138778738Y-120388104D01*
X138719667Y-120382604D01*
X138681200Y-120373055D01*
X138655088Y-120358389D01*
X138641092Y-120345866D01*
X138627871Y-120330652D01*
X138617500Y-120311025D01*
X138609635Y-120281728D01*
X138603929Y-120237503D01*
X138600039Y-120173092D01*
X138597620Y-120083237D01*
X138596326Y-119962682D01*
X138595814Y-119806167D01*
X138595735Y-119654169D01*
X138595235Y-119451440D01*
X138595343Y-119289491D01*
X138597272Y-119211937D01*
X138890556Y-119211937D01*
X138890556Y-120096402D01*
X139077654Y-120096230D01*
X139190236Y-120093001D01*
X139308148Y-120084683D01*
X139406527Y-120073048D01*
X139409520Y-120072569D01*
X139568520Y-120034127D01*
X139691846Y-119974256D01*
X139785657Y-119889058D01*
X139845263Y-119796814D01*
X139881990Y-119694489D01*
X139879142Y-119598409D01*
X139836518Y-119495419D01*
X139753146Y-119388876D01*
X139637614Y-119309927D01*
X139487443Y-119257156D01*
X139387081Y-119238481D01*
X139273157Y-119225366D01*
X139152415Y-119215873D01*
X139049719Y-119211927D01*
X139043636Y-119211908D01*
X138890556Y-119211937D01*
X138597272Y-119211937D01*
X138598471Y-119163782D01*
X138607034Y-119069771D01*
X138623442Y-119002920D01*
X138650110Y-118958686D01*
X138689449Y-118932529D01*
X138743872Y-118919909D01*
X138815793Y-118916284D01*
X138907623Y-118917114D01*
X138907623Y-118917114D01*
G37*
X138907623Y-118917114D02*
X138986940Y-118917920D01*
X139219351Y-118923528D01*
X139413994Y-118940185D01*
X139577504Y-118969680D01*
X139716514Y-119013797D01*
X139837659Y-119074325D01*
X139947571Y-119153050D01*
X139986829Y-119187248D01*
X140051951Y-119267265D01*
X140110672Y-119375846D01*
X140155931Y-119496203D01*
X140180665Y-119611547D01*
X140183235Y-119654169D01*
X140167130Y-119772322D01*
X140123973Y-119901382D01*
X140061496Y-120023542D01*
X139987433Y-120120992D01*
X139975403Y-120132750D01*
X139873501Y-120215394D01*
X139761912Y-120279909D01*
X139634202Y-120327983D01*
X139483938Y-120361307D01*
X139304686Y-120381572D01*
X139090013Y-120390469D01*
X138991683Y-120391223D01*
X138866660Y-120390621D01*
X138778738Y-120388104D01*
X138719667Y-120382604D01*
X138681200Y-120373055D01*
X138655088Y-120358389D01*
X138641092Y-120345866D01*
X138627871Y-120330652D01*
X138617500Y-120311025D01*
X138609635Y-120281728D01*
X138603929Y-120237503D01*
X138600039Y-120173092D01*
X138597620Y-120083237D01*
X138596326Y-119962682D01*
X138595814Y-119806167D01*
X138595735Y-119654169D01*
X138595235Y-119451440D01*
X138595343Y-119289491D01*
X138597272Y-119211937D01*
X138890556Y-119211937D01*
X138890556Y-120096402D01*
X139077654Y-120096230D01*
X139190236Y-120093001D01*
X139308148Y-120084683D01*
X139406527Y-120073048D01*
X139409520Y-120072569D01*
X139568520Y-120034127D01*
X139691846Y-119974256D01*
X139785657Y-119889058D01*
X139845263Y-119796814D01*
X139881990Y-119694489D01*
X139879142Y-119598409D01*
X139836518Y-119495419D01*
X139753146Y-119388876D01*
X139637614Y-119309927D01*
X139487443Y-119257156D01*
X139387081Y-119238481D01*
X139273157Y-119225366D01*
X139152415Y-119215873D01*
X139049719Y-119211927D01*
X139043636Y-119211908D01*
X138890556Y-119211937D01*
X138597272Y-119211937D01*
X138598471Y-119163782D01*
X138607034Y-119069771D01*
X138623442Y-119002920D01*
X138650110Y-118958686D01*
X138689449Y-118932529D01*
X138743872Y-118919909D01*
X138815793Y-118916284D01*
X138907623Y-118917114D01*
G36*
X141737354Y-118917275D02*
X141876790Y-118918023D01*
X141982037Y-118919763D01*
X142058676Y-118922900D01*
X142112290Y-118927836D01*
X142148463Y-118934976D01*
X142172779Y-118944724D01*
X142190819Y-118957484D01*
X142197351Y-118963356D01*
X142237078Y-119025750D01*
X142244231Y-119097441D01*
X142218097Y-119161087D01*
X142206013Y-119173950D01*
X142186468Y-119186421D01*
X142154997Y-119196043D01*
X142105764Y-119203282D01*
X142032934Y-119208606D01*
X141930671Y-119212485D01*
X141793138Y-119215387D01*
X141667397Y-119217152D01*
X141169752Y-119223277D01*
X141162951Y-119353678D01*
X141156150Y-119484080D01*
X141493945Y-119484080D01*
X141640594Y-119485345D01*
X141747956Y-119490637D01*
X141822063Y-119502201D01*
X141868951Y-119522281D01*
X141894653Y-119553121D01*
X141905204Y-119596967D01*
X141906806Y-119637660D01*
X141901827Y-119687591D01*
X141883036Y-119724383D01*
X141844653Y-119749958D01*
X141780900Y-119766239D01*
X141685996Y-119775149D01*
X141554162Y-119778610D01*
X141482206Y-119778902D01*
X141158413Y-119778902D01*
X141158413Y-120096402D01*
X141657342Y-120096402D01*
X141820887Y-120096629D01*
X141945183Y-120097652D01*
X142036334Y-120099979D01*
X142100448Y-120104118D01*
X142143630Y-120110580D01*
X142171987Y-120119871D01*
X142191625Y-120132502D01*
X142201627Y-120141759D01*
X142235938Y-120195786D01*
X142246985Y-120243812D01*
X142231211Y-120302474D01*
X142201627Y-120345866D01*
X142185844Y-120359526D01*
X142165469Y-120370133D01*
X142135022Y-120378071D01*
X142089023Y-120383726D01*
X142021990Y-120387482D01*
X141928442Y-120389723D01*
X141802900Y-120390834D01*
X141639882Y-120391199D01*
X141555288Y-120391223D01*
X141374132Y-120391063D01*
X141232852Y-120390325D01*
X141125968Y-120388627D01*
X141047998Y-120385582D01*
X140993461Y-120380806D01*
X140956878Y-120373915D01*
X140932767Y-120364524D01*
X140915647Y-120352248D01*
X140908949Y-120345866D01*
X140895692Y-120330605D01*
X140885301Y-120310916D01*
X140877429Y-120281524D01*
X140871727Y-120237153D01*
X140867848Y-120172526D01*
X140865443Y-120082367D01*
X140864164Y-119961401D01*
X140863665Y-119804351D01*
X140863592Y-119658123D01*
X140863659Y-119470857D01*
X140864130Y-119323651D01*
X140865407Y-119211205D01*
X140867891Y-119128222D01*
X140871984Y-119069403D01*
X140878089Y-119029450D01*
X140886608Y-119003064D01*
X140897942Y-118984948D01*
X140912495Y-118969803D01*
X140916080Y-118966426D01*
X140933479Y-118951478D01*
X140953695Y-118939903D01*
X140982336Y-118931268D01*
X141025011Y-118925145D01*
X141087325Y-118921102D01*
X141174888Y-118918709D01*
X141293307Y-118917534D01*
X141448189Y-118917148D01*
X141558143Y-118917116D01*
X141737354Y-118917275D01*
X141737354Y-118917275D01*
G37*
X141737354Y-118917275D02*
X141876790Y-118918023D01*
X141982037Y-118919763D01*
X142058676Y-118922900D01*
X142112290Y-118927836D01*
X142148463Y-118934976D01*
X142172779Y-118944724D01*
X142190819Y-118957484D01*
X142197351Y-118963356D01*
X142237078Y-119025750D01*
X142244231Y-119097441D01*
X142218097Y-119161087D01*
X142206013Y-119173950D01*
X142186468Y-119186421D01*
X142154997Y-119196043D01*
X142105764Y-119203282D01*
X142032934Y-119208606D01*
X141930671Y-119212485D01*
X141793138Y-119215387D01*
X141667397Y-119217152D01*
X141169752Y-119223277D01*
X141162951Y-119353678D01*
X141156150Y-119484080D01*
X141493945Y-119484080D01*
X141640594Y-119485345D01*
X141747956Y-119490637D01*
X141822063Y-119502201D01*
X141868951Y-119522281D01*
X141894653Y-119553121D01*
X141905204Y-119596967D01*
X141906806Y-119637660D01*
X141901827Y-119687591D01*
X141883036Y-119724383D01*
X141844653Y-119749958D01*
X141780900Y-119766239D01*
X141685996Y-119775149D01*
X141554162Y-119778610D01*
X141482206Y-119778902D01*
X141158413Y-119778902D01*
X141158413Y-120096402D01*
X141657342Y-120096402D01*
X141820887Y-120096629D01*
X141945183Y-120097652D01*
X142036334Y-120099979D01*
X142100448Y-120104118D01*
X142143630Y-120110580D01*
X142171987Y-120119871D01*
X142191625Y-120132502D01*
X142201627Y-120141759D01*
X142235938Y-120195786D01*
X142246985Y-120243812D01*
X142231211Y-120302474D01*
X142201627Y-120345866D01*
X142185844Y-120359526D01*
X142165469Y-120370133D01*
X142135022Y-120378071D01*
X142089023Y-120383726D01*
X142021990Y-120387482D01*
X141928442Y-120389723D01*
X141802900Y-120390834D01*
X141639882Y-120391199D01*
X141555288Y-120391223D01*
X141374132Y-120391063D01*
X141232852Y-120390325D01*
X141125968Y-120388627D01*
X141047998Y-120385582D01*
X140993461Y-120380806D01*
X140956878Y-120373915D01*
X140932767Y-120364524D01*
X140915647Y-120352248D01*
X140908949Y-120345866D01*
X140895692Y-120330605D01*
X140885301Y-120310916D01*
X140877429Y-120281524D01*
X140871727Y-120237153D01*
X140867848Y-120172526D01*
X140865443Y-120082367D01*
X140864164Y-119961401D01*
X140863665Y-119804351D01*
X140863592Y-119658123D01*
X140863659Y-119470857D01*
X140864130Y-119323651D01*
X140865407Y-119211205D01*
X140867891Y-119128222D01*
X140871984Y-119069403D01*
X140878089Y-119029450D01*
X140886608Y-119003064D01*
X140897942Y-118984948D01*
X140912495Y-118969803D01*
X140916080Y-118966426D01*
X140933479Y-118951478D01*
X140953695Y-118939903D01*
X140982336Y-118931268D01*
X141025011Y-118925145D01*
X141087325Y-118921102D01*
X141174888Y-118918709D01*
X141293307Y-118917534D01*
X141448189Y-118917148D01*
X141558143Y-118917116D01*
X141737354Y-118917275D01*
G36*
X143788654Y-118919696D02*
X143938952Y-118930203D01*
X144078737Y-118946614D01*
X144199883Y-118968310D01*
X144294266Y-118994673D01*
X144353759Y-119025087D01*
X144362891Y-119034040D01*
X144394645Y-119103511D01*
X144385016Y-119174831D01*
X144335763Y-119235850D01*
X144333413Y-119237598D01*
X144304443Y-119256399D01*
X144274201Y-119266285D01*
X144232019Y-119267486D01*
X144167228Y-119260230D01*
X144069159Y-119244747D01*
X144061270Y-119243444D01*
X143915143Y-119225492D01*
X143757486Y-119216636D01*
X143599364Y-119216550D01*
X143451840Y-119224908D01*
X143325980Y-119241382D01*
X143232848Y-119265646D01*
X143226729Y-119268085D01*
X143159165Y-119305940D01*
X143135427Y-119344250D01*
X143154010Y-119381927D01*
X143213409Y-119417883D01*
X143312119Y-119451029D01*
X143448635Y-119480277D01*
X143539663Y-119494359D01*
X143728882Y-119521446D01*
X143879375Y-119546207D01*
X143997554Y-119570786D01*
X144089829Y-119597328D01*
X144162610Y-119627976D01*
X144222310Y-119664875D01*
X144275338Y-119710168D01*
X144317951Y-119754646D01*
X144368506Y-119816618D01*
X144393385Y-119869907D01*
X144401166Y-119935562D01*
X144401449Y-119959606D01*
X144395605Y-120039394D01*
X144372249Y-120098753D01*
X144331827Y-120151439D01*
X144249676Y-120231977D01*
X144158068Y-120293397D01*
X144050196Y-120337702D01*
X143919255Y-120366895D01*
X143758436Y-120382979D01*
X143560934Y-120387956D01*
X143528324Y-120387872D01*
X143396619Y-120385142D01*
X143266005Y-120378939D01*
X143150719Y-120370153D01*
X143065000Y-120359673D01*
X143058067Y-120358470D01*
X142972841Y-120338281D01*
X142900553Y-120312778D01*
X142859630Y-120289462D01*
X142821546Y-120227952D01*
X142818895Y-120156325D01*
X142851725Y-120092494D01*
X142859070Y-120085276D01*
X142889432Y-120063830D01*
X142927402Y-120054590D01*
X142986168Y-120056163D01*
X143057508Y-120064336D01*
X143137223Y-120071637D01*
X143248971Y-120077797D01*
X143379428Y-120082267D01*
X143515274Y-120084499D01*
X143551002Y-120084646D01*
X143687354Y-120084096D01*
X143787144Y-120081449D01*
X143859152Y-120075786D01*
X143912160Y-120066189D01*
X143954947Y-120051740D01*
X143980660Y-120039705D01*
X144037163Y-120006288D01*
X144073187Y-119976024D01*
X144078452Y-119967445D01*
X144067345Y-119932019D01*
X144014543Y-119897724D01*
X143923704Y-119866117D01*
X143798488Y-119838754D01*
X143761596Y-119832659D01*
X143568902Y-119802393D01*
X143415116Y-119777096D01*
X143294303Y-119754929D01*
X143200525Y-119734053D01*
X143127849Y-119712630D01*
X143070337Y-119688822D01*
X143022055Y-119660791D01*
X142977067Y-119626698D01*
X142929437Y-119584705D01*
X142913409Y-119569982D01*
X142857214Y-119515037D01*
X142827468Y-119471504D01*
X142815831Y-119421688D01*
X142813949Y-119358912D01*
X142834669Y-119235808D01*
X142896591Y-119131214D01*
X142999361Y-119045468D01*
X143142622Y-118978907D01*
X143244842Y-118949052D01*
X143355937Y-118929770D01*
X143489021Y-118918862D01*
X143635968Y-118915710D01*
X143788654Y-118919696D01*
X143788654Y-118919696D01*
G37*
X143788654Y-118919696D02*
X143938952Y-118930203D01*
X144078737Y-118946614D01*
X144199883Y-118968310D01*
X144294266Y-118994673D01*
X144353759Y-119025087D01*
X144362891Y-119034040D01*
X144394645Y-119103511D01*
X144385016Y-119174831D01*
X144335763Y-119235850D01*
X144333413Y-119237598D01*
X144304443Y-119256399D01*
X144274201Y-119266285D01*
X144232019Y-119267486D01*
X144167228Y-119260230D01*
X144069159Y-119244747D01*
X144061270Y-119243444D01*
X143915143Y-119225492D01*
X143757486Y-119216636D01*
X143599364Y-119216550D01*
X143451840Y-119224908D01*
X143325980Y-119241382D01*
X143232848Y-119265646D01*
X143226729Y-119268085D01*
X143159165Y-119305940D01*
X143135427Y-119344250D01*
X143154010Y-119381927D01*
X143213409Y-119417883D01*
X143312119Y-119451029D01*
X143448635Y-119480277D01*
X143539663Y-119494359D01*
X143728882Y-119521446D01*
X143879375Y-119546207D01*
X143997554Y-119570786D01*
X144089829Y-119597328D01*
X144162610Y-119627976D01*
X144222310Y-119664875D01*
X144275338Y-119710168D01*
X144317951Y-119754646D01*
X144368506Y-119816618D01*
X144393385Y-119869907D01*
X144401166Y-119935562D01*
X144401449Y-119959606D01*
X144395605Y-120039394D01*
X144372249Y-120098753D01*
X144331827Y-120151439D01*
X144249676Y-120231977D01*
X144158068Y-120293397D01*
X144050196Y-120337702D01*
X143919255Y-120366895D01*
X143758436Y-120382979D01*
X143560934Y-120387956D01*
X143528324Y-120387872D01*
X143396619Y-120385142D01*
X143266005Y-120378939D01*
X143150719Y-120370153D01*
X143065000Y-120359673D01*
X143058067Y-120358470D01*
X142972841Y-120338281D01*
X142900553Y-120312778D01*
X142859630Y-120289462D01*
X142821546Y-120227952D01*
X142818895Y-120156325D01*
X142851725Y-120092494D01*
X142859070Y-120085276D01*
X142889432Y-120063830D01*
X142927402Y-120054590D01*
X142986168Y-120056163D01*
X143057508Y-120064336D01*
X143137223Y-120071637D01*
X143248971Y-120077797D01*
X143379428Y-120082267D01*
X143515274Y-120084499D01*
X143551002Y-120084646D01*
X143687354Y-120084096D01*
X143787144Y-120081449D01*
X143859152Y-120075786D01*
X143912160Y-120066189D01*
X143954947Y-120051740D01*
X143980660Y-120039705D01*
X144037163Y-120006288D01*
X144073187Y-119976024D01*
X144078452Y-119967445D01*
X144067345Y-119932019D01*
X144014543Y-119897724D01*
X143923704Y-119866117D01*
X143798488Y-119838754D01*
X143761596Y-119832659D01*
X143568902Y-119802393D01*
X143415116Y-119777096D01*
X143294303Y-119754929D01*
X143200525Y-119734053D01*
X143127849Y-119712630D01*
X143070337Y-119688822D01*
X143022055Y-119660791D01*
X142977067Y-119626698D01*
X142929437Y-119584705D01*
X142913409Y-119569982D01*
X142857214Y-119515037D01*
X142827468Y-119471504D01*
X142815831Y-119421688D01*
X142813949Y-119358912D01*
X142834669Y-119235808D01*
X142896591Y-119131214D01*
X142999361Y-119045468D01*
X143142622Y-118978907D01*
X143244842Y-118949052D01*
X143355937Y-118929770D01*
X143489021Y-118918862D01*
X143635968Y-118915710D01*
X143788654Y-118919696D01*
G36*
X145331270Y-118962473D02*
X145344491Y-118977687D01*
X145354861Y-118997314D01*
X145362727Y-119026611D01*
X145368433Y-119070836D01*
X145372323Y-119135247D01*
X145374742Y-119225101D01*
X145376036Y-119345657D01*
X145376548Y-119502171D01*
X145376627Y-119654169D01*
X145376487Y-119842701D01*
X145375838Y-119991133D01*
X145374334Y-120104724D01*
X145371631Y-120188732D01*
X145367384Y-120248413D01*
X145361248Y-120289025D01*
X145352879Y-120315827D01*
X145341931Y-120334076D01*
X145331270Y-120345866D01*
X145264969Y-120385403D01*
X145194324Y-120381854D01*
X145131116Y-120338734D01*
X145116593Y-120321900D01*
X145105243Y-120302367D01*
X145096675Y-120274738D01*
X145090498Y-120233612D01*
X145086322Y-120173591D01*
X145083755Y-120089274D01*
X145082408Y-119975263D01*
X145081888Y-119826157D01*
X145081806Y-119657346D01*
X145081806Y-119028447D01*
X145137472Y-118972781D01*
X145206086Y-118925948D01*
X145272643Y-118924261D01*
X145331270Y-118962473D01*
X145331270Y-118962473D01*
G37*
X145331270Y-118962473D02*
X145344491Y-118977687D01*
X145354861Y-118997314D01*
X145362727Y-119026611D01*
X145368433Y-119070836D01*
X145372323Y-119135247D01*
X145374742Y-119225101D01*
X145376036Y-119345657D01*
X145376548Y-119502171D01*
X145376627Y-119654169D01*
X145376487Y-119842701D01*
X145375838Y-119991133D01*
X145374334Y-120104724D01*
X145371631Y-120188732D01*
X145367384Y-120248413D01*
X145361248Y-120289025D01*
X145352879Y-120315827D01*
X145341931Y-120334076D01*
X145331270Y-120345866D01*
X145264969Y-120385403D01*
X145194324Y-120381854D01*
X145131116Y-120338734D01*
X145116593Y-120321900D01*
X145105243Y-120302367D01*
X145096675Y-120274738D01*
X145090498Y-120233612D01*
X145086322Y-120173591D01*
X145083755Y-120089274D01*
X145082408Y-119975263D01*
X145081888Y-119826157D01*
X145081806Y-119657346D01*
X145081806Y-119028447D01*
X145137472Y-118972781D01*
X145206086Y-118925948D01*
X145272643Y-118924261D01*
X145331270Y-118962473D01*
G36*
X147287447Y-118928229D02*
X147425092Y-118951325D01*
X147530806Y-118987228D01*
X147599580Y-119034501D01*
X147618321Y-119061471D01*
X147637379Y-119124198D01*
X147624554Y-119180945D01*
X147584067Y-119234758D01*
X147521158Y-119259933D01*
X147429877Y-119257888D01*
X147359276Y-119244249D01*
X147202394Y-119218263D01*
X147042066Y-119215793D01*
X146862611Y-119236886D01*
X146813042Y-119245823D01*
X146646177Y-119292869D01*
X146515634Y-119362852D01*
X146422844Y-119454579D01*
X146369239Y-119566857D01*
X146358152Y-119624905D01*
X146365409Y-119742676D01*
X146412261Y-119846873D01*
X146494438Y-119935465D01*
X146607671Y-120006421D01*
X146747691Y-120057710D01*
X146910229Y-120087302D01*
X147091015Y-120093166D01*
X147285782Y-120073271D01*
X147296779Y-120071395D01*
X147374246Y-120056966D01*
X147417198Y-120043029D01*
X147435815Y-120022349D01*
X147440276Y-119987693D01*
X147440377Y-119969341D01*
X147440377Y-119892294D01*
X147302815Y-119892294D01*
X147181338Y-119883973D01*
X147098439Y-119857455D01*
X147050206Y-119810412D01*
X147032724Y-119740513D01*
X147032510Y-119731390D01*
X147042739Y-119671645D01*
X147077812Y-119628984D01*
X147143090Y-119600752D01*
X147243930Y-119584294D01*
X147341605Y-119578243D01*
X147483569Y-119574771D01*
X147586543Y-119580069D01*
X147656773Y-119599616D01*
X147700506Y-119638896D01*
X147723990Y-119703389D01*
X147733471Y-119798577D01*
X147735199Y-119923598D01*
X147732368Y-120063146D01*
X147723853Y-120158070D01*
X147709614Y-120208747D01*
X147706851Y-120212716D01*
X147628670Y-120276039D01*
X147514045Y-120326185D01*
X147370240Y-120362085D01*
X147204524Y-120382667D01*
X147024162Y-120386860D01*
X146836422Y-120373592D01*
X146726002Y-120357295D01*
X146552812Y-120308274D01*
X146391846Y-120228133D01*
X146257076Y-120124121D01*
X146236592Y-120103332D01*
X146170039Y-120015936D01*
X146109989Y-119907621D01*
X146063456Y-119794063D01*
X146037457Y-119690940D01*
X146034324Y-119651334D01*
X146047664Y-119568717D01*
X146083120Y-119465926D01*
X146133889Y-119357729D01*
X146193168Y-119258892D01*
X146245541Y-119192875D01*
X146367994Y-119094675D01*
X146526288Y-119016515D01*
X146714751Y-118960162D01*
X146927710Y-118927386D01*
X147122877Y-118919377D01*
X147287447Y-118928229D01*
X147287447Y-118928229D01*
G37*
X147287447Y-118928229D02*
X147425092Y-118951325D01*
X147530806Y-118987228D01*
X147599580Y-119034501D01*
X147618321Y-119061471D01*
X147637379Y-119124198D01*
X147624554Y-119180945D01*
X147584067Y-119234758D01*
X147521158Y-119259933D01*
X147429877Y-119257888D01*
X147359276Y-119244249D01*
X147202394Y-119218263D01*
X147042066Y-119215793D01*
X146862611Y-119236886D01*
X146813042Y-119245823D01*
X146646177Y-119292869D01*
X146515634Y-119362852D01*
X146422844Y-119454579D01*
X146369239Y-119566857D01*
X146358152Y-119624905D01*
X146365409Y-119742676D01*
X146412261Y-119846873D01*
X146494438Y-119935465D01*
X146607671Y-120006421D01*
X146747691Y-120057710D01*
X146910229Y-120087302D01*
X147091015Y-120093166D01*
X147285782Y-120073271D01*
X147296779Y-120071395D01*
X147374246Y-120056966D01*
X147417198Y-120043029D01*
X147435815Y-120022349D01*
X147440276Y-119987693D01*
X147440377Y-119969341D01*
X147440377Y-119892294D01*
X147302815Y-119892294D01*
X147181338Y-119883973D01*
X147098439Y-119857455D01*
X147050206Y-119810412D01*
X147032724Y-119740513D01*
X147032510Y-119731390D01*
X147042739Y-119671645D01*
X147077812Y-119628984D01*
X147143090Y-119600752D01*
X147243930Y-119584294D01*
X147341605Y-119578243D01*
X147483569Y-119574771D01*
X147586543Y-119580069D01*
X147656773Y-119599616D01*
X147700506Y-119638896D01*
X147723990Y-119703389D01*
X147733471Y-119798577D01*
X147735199Y-119923598D01*
X147732368Y-120063146D01*
X147723853Y-120158070D01*
X147709614Y-120208747D01*
X147706851Y-120212716D01*
X147628670Y-120276039D01*
X147514045Y-120326185D01*
X147370240Y-120362085D01*
X147204524Y-120382667D01*
X147024162Y-120386860D01*
X146836422Y-120373592D01*
X146726002Y-120357295D01*
X146552812Y-120308274D01*
X146391846Y-120228133D01*
X146257076Y-120124121D01*
X146236592Y-120103332D01*
X146170039Y-120015936D01*
X146109989Y-119907621D01*
X146063456Y-119794063D01*
X146037457Y-119690940D01*
X146034324Y-119651334D01*
X146047664Y-119568717D01*
X146083120Y-119465926D01*
X146133889Y-119357729D01*
X146193168Y-119258892D01*
X146245541Y-119192875D01*
X146367994Y-119094675D01*
X146526288Y-119016515D01*
X146714751Y-118960162D01*
X146927710Y-118927386D01*
X147122877Y-118919377D01*
X147287447Y-118928229D01*
G36*
X148593185Y-118925918D02*
X148640527Y-118953690D01*
X148702428Y-118999108D01*
X148782097Y-119064312D01*
X148882740Y-119151440D01*
X149007568Y-119262633D01*
X149159788Y-119400030D01*
X149334038Y-119557999D01*
X149696895Y-119887050D01*
X149708235Y-119445388D01*
X149712329Y-119293357D01*
X149716278Y-119180140D01*
X149720958Y-119099203D01*
X149727241Y-119044016D01*
X149736002Y-119008045D01*
X149748114Y-118984758D01*
X149764451Y-118967622D01*
X149773113Y-118960421D01*
X149842483Y-118922346D01*
X149908493Y-118927913D01*
X149960856Y-118960440D01*
X150014395Y-119003765D01*
X150021054Y-119636482D01*
X150022897Y-119822564D01*
X150023835Y-119968744D01*
X150023543Y-120080474D01*
X150021697Y-120163205D01*
X150017970Y-120222389D01*
X150012040Y-120263476D01*
X150003580Y-120291919D01*
X149992267Y-120313168D01*
X149979720Y-120330211D01*
X149952576Y-120361818D01*
X149925567Y-120382769D01*
X149894950Y-120390811D01*
X149856977Y-120383688D01*
X149807902Y-120359149D01*
X149743980Y-120314937D01*
X149661465Y-120248799D01*
X149556610Y-120158482D01*
X149425669Y-120041731D01*
X149277342Y-119907582D01*
X148744395Y-119424152D01*
X148733056Y-119864370D01*
X148728955Y-120016124D01*
X148724995Y-120129077D01*
X148720299Y-120209775D01*
X148713987Y-120264764D01*
X148705183Y-120300588D01*
X148693008Y-120323793D01*
X148676583Y-120340924D01*
X148668177Y-120347906D01*
X148593886Y-120386257D01*
X148523688Y-120380472D01*
X148462559Y-120331468D01*
X148448575Y-120311753D01*
X148437676Y-120288729D01*
X148429479Y-120256872D01*
X148423600Y-120210658D01*
X148419656Y-120144563D01*
X148417264Y-120053062D01*
X148416041Y-119930634D01*
X148415602Y-119771752D01*
X148415556Y-119654169D01*
X148415703Y-119470256D01*
X148416401Y-119326175D01*
X148418033Y-119216403D01*
X148420981Y-119135416D01*
X148425631Y-119077691D01*
X148432363Y-119037704D01*
X148441563Y-119009930D01*
X148453614Y-118988846D01*
X148462559Y-118976871D01*
X148485234Y-118948503D01*
X148506425Y-118927085D01*
X148529342Y-118914755D01*
X148557192Y-118913653D01*
X148593185Y-118925918D01*
X148593185Y-118925918D01*
G37*
X148593185Y-118925918D02*
X148640527Y-118953690D01*
X148702428Y-118999108D01*
X148782097Y-119064312D01*
X148882740Y-119151440D01*
X149007568Y-119262633D01*
X149159788Y-119400030D01*
X149334038Y-119557999D01*
X149696895Y-119887050D01*
X149708235Y-119445388D01*
X149712329Y-119293357D01*
X149716278Y-119180140D01*
X149720958Y-119099203D01*
X149727241Y-119044016D01*
X149736002Y-119008045D01*
X149748114Y-118984758D01*
X149764451Y-118967622D01*
X149773113Y-118960421D01*
X149842483Y-118922346D01*
X149908493Y-118927913D01*
X149960856Y-118960440D01*
X150014395Y-119003765D01*
X150021054Y-119636482D01*
X150022897Y-119822564D01*
X150023835Y-119968744D01*
X150023543Y-120080474D01*
X150021697Y-120163205D01*
X150017970Y-120222389D01*
X150012040Y-120263476D01*
X150003580Y-120291919D01*
X149992267Y-120313168D01*
X149979720Y-120330211D01*
X149952576Y-120361818D01*
X149925567Y-120382769D01*
X149894950Y-120390811D01*
X149856977Y-120383688D01*
X149807902Y-120359149D01*
X149743980Y-120314937D01*
X149661465Y-120248799D01*
X149556610Y-120158482D01*
X149425669Y-120041731D01*
X149277342Y-119907582D01*
X148744395Y-119424152D01*
X148733056Y-119864370D01*
X148728955Y-120016124D01*
X148724995Y-120129077D01*
X148720299Y-120209775D01*
X148713987Y-120264764D01*
X148705183Y-120300588D01*
X148693008Y-120323793D01*
X148676583Y-120340924D01*
X148668177Y-120347906D01*
X148593886Y-120386257D01*
X148523688Y-120380472D01*
X148462559Y-120331468D01*
X148448575Y-120311753D01*
X148437676Y-120288729D01*
X148429479Y-120256872D01*
X148423600Y-120210658D01*
X148419656Y-120144563D01*
X148417264Y-120053062D01*
X148416041Y-119930634D01*
X148415602Y-119771752D01*
X148415556Y-119654169D01*
X148415703Y-119470256D01*
X148416401Y-119326175D01*
X148418033Y-119216403D01*
X148420981Y-119135416D01*
X148425631Y-119077691D01*
X148432363Y-119037704D01*
X148441563Y-119009930D01*
X148453614Y-118988846D01*
X148462559Y-118976871D01*
X148485234Y-118948503D01*
X148506425Y-118927085D01*
X148529342Y-118914755D01*
X148557192Y-118913653D01*
X148593185Y-118925918D01*
G36*
X151667763Y-118917503D02*
X151821162Y-118919340D01*
X151938715Y-118923634D01*
X152025176Y-118931395D01*
X152085300Y-118943633D01*
X152123840Y-118961358D01*
X152145552Y-118985579D01*
X152155190Y-119017305D01*
X152157508Y-119057546D01*
X152157520Y-119062298D01*
X152155508Y-119107814D01*
X152145995Y-119142992D01*
X152123771Y-119169251D01*
X152083622Y-119188012D01*
X152020336Y-119200696D01*
X151928702Y-119208722D01*
X151803507Y-119213512D01*
X151639539Y-119216484D01*
X151589283Y-119217143D01*
X151102967Y-119223277D01*
X151096165Y-119353678D01*
X151089364Y-119484080D01*
X151427159Y-119484080D01*
X151559127Y-119484567D01*
X151653357Y-119486626D01*
X151717465Y-119491155D01*
X151759064Y-119499053D01*
X151785770Y-119511218D01*
X151805198Y-119528548D01*
X151805322Y-119528686D01*
X151840557Y-119596224D01*
X151839283Y-119669221D01*
X151802304Y-119731448D01*
X151794985Y-119737844D01*
X151769010Y-119754328D01*
X151733417Y-119765796D01*
X151680273Y-119773111D01*
X151601648Y-119777138D01*
X151489610Y-119778740D01*
X151417954Y-119778902D01*
X151091627Y-119778902D01*
X151091627Y-120096402D01*
X151587041Y-120096402D01*
X151750606Y-120096688D01*
X151874817Y-120097857D01*
X151965675Y-120100377D01*
X152029180Y-120104715D01*
X152071333Y-120111337D01*
X152098136Y-120120710D01*
X152115589Y-120133302D01*
X152119987Y-120137875D01*
X152152460Y-120201249D01*
X152154836Y-120273347D01*
X152128195Y-120335858D01*
X152107117Y-120355919D01*
X152085190Y-120366963D01*
X152051215Y-120375508D01*
X151999818Y-120381852D01*
X151925625Y-120386295D01*
X151823261Y-120389136D01*
X151687353Y-120390675D01*
X151512525Y-120391210D01*
X151473000Y-120391223D01*
X151295244Y-120391107D01*
X151157262Y-120390465D01*
X151053476Y-120388857D01*
X150978303Y-120385844D01*
X150926161Y-120380986D01*
X150891471Y-120373844D01*
X150868650Y-120363977D01*
X150852117Y-120350946D01*
X150843047Y-120341589D01*
X150829394Y-120325017D01*
X150818728Y-120304487D01*
X150810680Y-120274616D01*
X150804884Y-120230021D01*
X150800973Y-120165317D01*
X150798577Y-120075120D01*
X150797330Y-119954047D01*
X150796864Y-119796713D01*
X150796806Y-119664291D01*
X150796949Y-119478735D01*
X150797626Y-119333065D01*
X150799212Y-119221811D01*
X150802081Y-119139501D01*
X150806607Y-119080666D01*
X150813164Y-119039834D01*
X150822126Y-119011535D01*
X150833867Y-118990298D01*
X150843809Y-118976871D01*
X150890812Y-118917116D01*
X151473763Y-118917116D01*
X151667763Y-118917503D01*
X151667763Y-118917503D01*
G37*
X151667763Y-118917503D02*
X151821162Y-118919340D01*
X151938715Y-118923634D01*
X152025176Y-118931395D01*
X152085300Y-118943633D01*
X152123840Y-118961358D01*
X152145552Y-118985579D01*
X152155190Y-119017305D01*
X152157508Y-119057546D01*
X152157520Y-119062298D01*
X152155508Y-119107814D01*
X152145995Y-119142992D01*
X152123771Y-119169251D01*
X152083622Y-119188012D01*
X152020336Y-119200696D01*
X151928702Y-119208722D01*
X151803507Y-119213512D01*
X151639539Y-119216484D01*
X151589283Y-119217143D01*
X151102967Y-119223277D01*
X151096165Y-119353678D01*
X151089364Y-119484080D01*
X151427159Y-119484080D01*
X151559127Y-119484567D01*
X151653357Y-119486626D01*
X151717465Y-119491155D01*
X151759064Y-119499053D01*
X151785770Y-119511218D01*
X151805198Y-119528548D01*
X151805322Y-119528686D01*
X151840557Y-119596224D01*
X151839283Y-119669221D01*
X151802304Y-119731448D01*
X151794985Y-119737844D01*
X151769010Y-119754328D01*
X151733417Y-119765796D01*
X151680273Y-119773111D01*
X151601648Y-119777138D01*
X151489610Y-119778740D01*
X151417954Y-119778902D01*
X151091627Y-119778902D01*
X151091627Y-120096402D01*
X151587041Y-120096402D01*
X151750606Y-120096688D01*
X151874817Y-120097857D01*
X151965675Y-120100377D01*
X152029180Y-120104715D01*
X152071333Y-120111337D01*
X152098136Y-120120710D01*
X152115589Y-120133302D01*
X152119987Y-120137875D01*
X152152460Y-120201249D01*
X152154836Y-120273347D01*
X152128195Y-120335858D01*
X152107117Y-120355919D01*
X152085190Y-120366963D01*
X152051215Y-120375508D01*
X151999818Y-120381852D01*
X151925625Y-120386295D01*
X151823261Y-120389136D01*
X151687353Y-120390675D01*
X151512525Y-120391210D01*
X151473000Y-120391223D01*
X151295244Y-120391107D01*
X151157262Y-120390465D01*
X151053476Y-120388857D01*
X150978303Y-120385844D01*
X150926161Y-120380986D01*
X150891471Y-120373844D01*
X150868650Y-120363977D01*
X150852117Y-120350946D01*
X150843047Y-120341589D01*
X150829394Y-120325017D01*
X150818728Y-120304487D01*
X150810680Y-120274616D01*
X150804884Y-120230021D01*
X150800973Y-120165317D01*
X150798577Y-120075120D01*
X150797330Y-119954047D01*
X150796864Y-119796713D01*
X150796806Y-119664291D01*
X150796949Y-119478735D01*
X150797626Y-119333065D01*
X150799212Y-119221811D01*
X150802081Y-119139501D01*
X150806607Y-119080666D01*
X150813164Y-119039834D01*
X150822126Y-119011535D01*
X150833867Y-118990298D01*
X150843809Y-118976871D01*
X150890812Y-118917116D01*
X151473763Y-118917116D01*
X151667763Y-118917503D01*
G36*
X153250730Y-118917534D02*
X153509841Y-118926295D01*
X153730226Y-118952863D01*
X153915519Y-118998828D01*
X154069355Y-119065783D01*
X154195366Y-119155316D01*
X154297187Y-119269019D01*
X154378451Y-119408482D01*
X154380050Y-119411883D01*
X154428549Y-119536702D01*
X154445829Y-119647246D01*
X154431825Y-119758497D01*
X154386468Y-119885433D01*
X154377866Y-119904749D01*
X154319206Y-120017806D01*
X154253280Y-120105165D01*
X154168194Y-120179427D01*
X154052054Y-120253191D01*
X154045307Y-120257042D01*
X153944204Y-120305608D01*
X153829929Y-120341879D01*
X153695141Y-120367106D01*
X153532495Y-120382539D01*
X153334649Y-120389431D01*
X153264747Y-120390030D01*
X152931884Y-120391223D01*
X152884881Y-120331468D01*
X152870938Y-120311819D01*
X152860061Y-120288873D01*
X152851871Y-120257129D01*
X152845987Y-120211082D01*
X152842031Y-120145233D01*
X152840741Y-120096402D01*
X153155377Y-120096402D01*
X153343980Y-120096402D01*
X153454345Y-120093174D01*
X153567641Y-120084681D01*
X153660625Y-120072703D01*
X153666238Y-120071694D01*
X153831390Y-120027388D01*
X153959490Y-119960822D01*
X154054590Y-119868907D01*
X154120743Y-119748555D01*
X154132247Y-119716658D01*
X154143522Y-119666980D01*
X154138640Y-119617900D01*
X154114887Y-119552607D01*
X154100569Y-119520532D01*
X154053682Y-119435297D01*
X153997191Y-119375499D01*
X153935035Y-119333857D01*
X153810532Y-119279668D01*
X153651194Y-119240415D01*
X153465573Y-119217812D01*
X153331136Y-119212837D01*
X153155377Y-119211937D01*
X153155377Y-120096402D01*
X152840741Y-120096402D01*
X152839622Y-120054078D01*
X152838381Y-119932115D01*
X152837928Y-119773841D01*
X152837877Y-119650080D01*
X152837877Y-119028447D01*
X152893543Y-118972781D01*
X152918248Y-118950218D01*
X152944961Y-118934766D01*
X152982264Y-118925098D01*
X153038743Y-118919887D01*
X153122978Y-118917805D01*
X153243555Y-118917524D01*
X153250730Y-118917534D01*
X153250730Y-118917534D01*
G37*
X153250730Y-118917534D02*
X153509841Y-118926295D01*
X153730226Y-118952863D01*
X153915519Y-118998828D01*
X154069355Y-119065783D01*
X154195366Y-119155316D01*
X154297187Y-119269019D01*
X154378451Y-119408482D01*
X154380050Y-119411883D01*
X154428549Y-119536702D01*
X154445829Y-119647246D01*
X154431825Y-119758497D01*
X154386468Y-119885433D01*
X154377866Y-119904749D01*
X154319206Y-120017806D01*
X154253280Y-120105165D01*
X154168194Y-120179427D01*
X154052054Y-120253191D01*
X154045307Y-120257042D01*
X153944204Y-120305608D01*
X153829929Y-120341879D01*
X153695141Y-120367106D01*
X153532495Y-120382539D01*
X153334649Y-120389431D01*
X153264747Y-120390030D01*
X152931884Y-120391223D01*
X152884881Y-120331468D01*
X152870938Y-120311819D01*
X152860061Y-120288873D01*
X152851871Y-120257129D01*
X152845987Y-120211082D01*
X152842031Y-120145233D01*
X152840741Y-120096402D01*
X153155377Y-120096402D01*
X153343980Y-120096402D01*
X153454345Y-120093174D01*
X153567641Y-120084681D01*
X153660625Y-120072703D01*
X153666238Y-120071694D01*
X153831390Y-120027388D01*
X153959490Y-119960822D01*
X154054590Y-119868907D01*
X154120743Y-119748555D01*
X154132247Y-119716658D01*
X154143522Y-119666980D01*
X154138640Y-119617900D01*
X154114887Y-119552607D01*
X154100569Y-119520532D01*
X154053682Y-119435297D01*
X153997191Y-119375499D01*
X153935035Y-119333857D01*
X153810532Y-119279668D01*
X153651194Y-119240415D01*
X153465573Y-119217812D01*
X153331136Y-119212837D01*
X153155377Y-119211937D01*
X153155377Y-120096402D01*
X152840741Y-120096402D01*
X152839622Y-120054078D01*
X152838381Y-119932115D01*
X152837928Y-119773841D01*
X152837877Y-119650080D01*
X152837877Y-119028447D01*
X152893543Y-118972781D01*
X152918248Y-118950218D01*
X152944961Y-118934766D01*
X152982264Y-118925098D01*
X153038743Y-118919887D01*
X153122978Y-118917805D01*
X153243555Y-118917524D01*
X153250730Y-118917534D01*
G36*
X158727785Y-118921068D02*
X158767139Y-118935132D01*
X158768658Y-118935820D01*
X158822100Y-118976604D01*
X158851545Y-119018555D01*
X158857307Y-119038224D01*
X158857022Y-119064360D01*
X158848915Y-119101591D01*
X158831208Y-119154551D01*
X158802124Y-119227868D01*
X158759887Y-119326174D01*
X158702720Y-119454099D01*
X158628846Y-119616275D01*
X158588184Y-119704916D01*
X158514759Y-119863158D01*
X158445831Y-120008680D01*
X158384032Y-120136160D01*
X158331991Y-120240279D01*
X158292341Y-120315716D01*
X158267711Y-120357151D01*
X158262837Y-120362875D01*
X158200478Y-120388125D01*
X158130040Y-120384743D01*
X158073548Y-120354033D01*
X158071246Y-120351535D01*
X158048774Y-120317515D01*
X158011078Y-120251251D01*
X157962806Y-120161272D01*
X157908608Y-120056109D01*
X157889130Y-120017356D01*
X157742102Y-119722863D01*
X157581843Y-120042772D01*
X157524641Y-120153306D01*
X157471571Y-120249167D01*
X157426969Y-120323016D01*
X157395170Y-120367516D01*
X157384393Y-120376952D01*
X157300626Y-120389732D01*
X157231504Y-120362875D01*
X157211171Y-120334172D01*
X157175986Y-120270381D01*
X157128819Y-120177779D01*
X157072540Y-120062643D01*
X157010019Y-119931249D01*
X156944127Y-119789875D01*
X156877734Y-119644797D01*
X156813710Y-119502293D01*
X156754926Y-119368640D01*
X156704252Y-119250114D01*
X156664558Y-119152992D01*
X156638715Y-119083552D01*
X156629592Y-119048070D01*
X156629685Y-119046785D01*
X156651881Y-119002137D01*
X156696246Y-118956663D01*
X156698859Y-118954685D01*
X156753386Y-118923863D01*
X156803821Y-118924161D01*
X156822724Y-118929972D01*
X156845759Y-118942530D01*
X156870220Y-118967234D01*
X156899042Y-119009207D01*
X156935160Y-119073575D01*
X156981508Y-119165463D01*
X157041019Y-119289994D01*
X157094687Y-119404946D01*
X157156432Y-119538195D01*
X157211760Y-119658023D01*
X157257797Y-119758171D01*
X157291670Y-119832378D01*
X157310502Y-119874384D01*
X157313249Y-119880955D01*
X157325602Y-119870213D01*
X157353993Y-119825236D01*
X157394645Y-119752588D01*
X157443779Y-119658834D01*
X157463331Y-119620152D01*
X157529565Y-119489535D01*
X157580644Y-119394411D01*
X157620760Y-119329252D01*
X157654104Y-119288525D01*
X157684869Y-119266701D01*
X157717245Y-119258249D01*
X157738344Y-119257294D01*
X157775562Y-119260592D01*
X157808176Y-119274232D01*
X157840582Y-119303834D01*
X157877176Y-119355016D01*
X157922354Y-119433398D01*
X157980512Y-119544600D01*
X158012600Y-119607858D01*
X158064648Y-119708675D01*
X158110044Y-119792280D01*
X158144780Y-119851620D01*
X158164853Y-119879639D01*
X158167583Y-119880806D01*
X158180546Y-119858754D01*
X158209569Y-119801493D01*
X158251745Y-119715016D01*
X158304168Y-119605316D01*
X158363931Y-119478386D01*
X158393329Y-119415339D01*
X158469808Y-119252630D01*
X158531392Y-119127429D01*
X158581278Y-119035651D01*
X158622663Y-118973210D01*
X158658744Y-118936023D01*
X158692719Y-118920004D01*
X158727785Y-118921068D01*
X158727785Y-118921068D01*
G37*
X158727785Y-118921068D02*
X158767139Y-118935132D01*
X158768658Y-118935820D01*
X158822100Y-118976604D01*
X158851545Y-119018555D01*
X158857307Y-119038224D01*
X158857022Y-119064360D01*
X158848915Y-119101591D01*
X158831208Y-119154551D01*
X158802124Y-119227868D01*
X158759887Y-119326174D01*
X158702720Y-119454099D01*
X158628846Y-119616275D01*
X158588184Y-119704916D01*
X158514759Y-119863158D01*
X158445831Y-120008680D01*
X158384032Y-120136160D01*
X158331991Y-120240279D01*
X158292341Y-120315716D01*
X158267711Y-120357151D01*
X158262837Y-120362875D01*
X158200478Y-120388125D01*
X158130040Y-120384743D01*
X158073548Y-120354033D01*
X158071246Y-120351535D01*
X158048774Y-120317515D01*
X158011078Y-120251251D01*
X157962806Y-120161272D01*
X157908608Y-120056109D01*
X157889130Y-120017356D01*
X157742102Y-119722863D01*
X157581843Y-120042772D01*
X157524641Y-120153306D01*
X157471571Y-120249167D01*
X157426969Y-120323016D01*
X157395170Y-120367516D01*
X157384393Y-120376952D01*
X157300626Y-120389732D01*
X157231504Y-120362875D01*
X157211171Y-120334172D01*
X157175986Y-120270381D01*
X157128819Y-120177779D01*
X157072540Y-120062643D01*
X157010019Y-119931249D01*
X156944127Y-119789875D01*
X156877734Y-119644797D01*
X156813710Y-119502293D01*
X156754926Y-119368640D01*
X156704252Y-119250114D01*
X156664558Y-119152992D01*
X156638715Y-119083552D01*
X156629592Y-119048070D01*
X156629685Y-119046785D01*
X156651881Y-119002137D01*
X156696246Y-118956663D01*
X156698859Y-118954685D01*
X156753386Y-118923863D01*
X156803821Y-118924161D01*
X156822724Y-118929972D01*
X156845759Y-118942530D01*
X156870220Y-118967234D01*
X156899042Y-119009207D01*
X156935160Y-119073575D01*
X156981508Y-119165463D01*
X157041019Y-119289994D01*
X157094687Y-119404946D01*
X157156432Y-119538195D01*
X157211760Y-119658023D01*
X157257797Y-119758171D01*
X157291670Y-119832378D01*
X157310502Y-119874384D01*
X157313249Y-119880955D01*
X157325602Y-119870213D01*
X157353993Y-119825236D01*
X157394645Y-119752588D01*
X157443779Y-119658834D01*
X157463331Y-119620152D01*
X157529565Y-119489535D01*
X157580644Y-119394411D01*
X157620760Y-119329252D01*
X157654104Y-119288525D01*
X157684869Y-119266701D01*
X157717245Y-119258249D01*
X157738344Y-119257294D01*
X157775562Y-119260592D01*
X157808176Y-119274232D01*
X157840582Y-119303834D01*
X157877176Y-119355016D01*
X157922354Y-119433398D01*
X157980512Y-119544600D01*
X158012600Y-119607858D01*
X158064648Y-119708675D01*
X158110044Y-119792280D01*
X158144780Y-119851620D01*
X158164853Y-119879639D01*
X158167583Y-119880806D01*
X158180546Y-119858754D01*
X158209569Y-119801493D01*
X158251745Y-119715016D01*
X158304168Y-119605316D01*
X158363931Y-119478386D01*
X158393329Y-119415339D01*
X158469808Y-119252630D01*
X158531392Y-119127429D01*
X158581278Y-119035651D01*
X158622663Y-118973210D01*
X158658744Y-118936023D01*
X158692719Y-118920004D01*
X158727785Y-118921068D01*
G36*
X159619647Y-118930797D02*
X159667285Y-118960469D01*
X159720824Y-119003823D01*
X159720824Y-119649785D01*
X159720653Y-119838738D01*
X159719923Y-119987604D01*
X159718305Y-120101655D01*
X159715471Y-120186159D01*
X159711092Y-120246386D01*
X159704841Y-120287608D01*
X159696389Y-120315093D01*
X159685408Y-120334113D01*
X159677621Y-120343485D01*
X159614463Y-120384654D01*
X159542543Y-120382975D01*
X159479542Y-120347870D01*
X159426002Y-120304516D01*
X159426002Y-119003823D01*
X159479542Y-118960469D01*
X159531215Y-118928933D01*
X159573413Y-118917116D01*
X159619647Y-118930797D01*
X159619647Y-118930797D01*
G37*
X159619647Y-118930797D02*
X159667285Y-118960469D01*
X159720824Y-119003823D01*
X159720824Y-119649785D01*
X159720653Y-119838738D01*
X159719923Y-119987604D01*
X159718305Y-120101655D01*
X159715471Y-120186159D01*
X159711092Y-120246386D01*
X159704841Y-120287608D01*
X159696389Y-120315093D01*
X159685408Y-120334113D01*
X159677621Y-120343485D01*
X159614463Y-120384654D01*
X159542543Y-120382975D01*
X159479542Y-120347870D01*
X159426002Y-120304516D01*
X159426002Y-119003823D01*
X159479542Y-118960469D01*
X159531215Y-118928933D01*
X159573413Y-118917116D01*
X159619647Y-118930797D01*
G36*
X161175463Y-118917310D02*
X161333581Y-118918070D01*
X161456308Y-118919660D01*
X161548626Y-118922345D01*
X161615519Y-118926390D01*
X161661968Y-118932060D01*
X161692957Y-118939620D01*
X161713468Y-118949335D01*
X161723394Y-118956803D01*
X161774911Y-119022165D01*
X161781143Y-119090028D01*
X161749307Y-119151677D01*
X161728488Y-119176312D01*
X161706085Y-119193110D01*
X161673617Y-119203570D01*
X161622606Y-119209195D01*
X161544570Y-119211483D01*
X161431030Y-119211935D01*
X161408731Y-119211937D01*
X161115556Y-119211937D01*
X161115556Y-119756223D01*
X161115363Y-119927782D01*
X161114486Y-120059789D01*
X161112478Y-120158045D01*
X161108894Y-120228356D01*
X161103287Y-120276523D01*
X161095211Y-120308351D01*
X161084218Y-120329642D01*
X161070199Y-120345866D01*
X161004039Y-120385734D01*
X160934974Y-120382592D01*
X160872340Y-120337105D01*
X160867738Y-120331468D01*
X160852757Y-120310158D01*
X160841343Y-120285225D01*
X160833014Y-120250609D01*
X160827287Y-120200253D01*
X160823679Y-120128098D01*
X160821706Y-120028086D01*
X160820886Y-119894158D01*
X160820735Y-119741825D01*
X160820735Y-119211937D01*
X160540767Y-119211937D01*
X160420622Y-119211124D01*
X160337445Y-119207956D01*
X160282863Y-119201339D01*
X160248506Y-119190179D01*
X160226000Y-119173384D01*
X160223267Y-119170464D01*
X160190406Y-119103690D01*
X160193312Y-119028200D01*
X160231092Y-118962473D01*
X160245702Y-118949724D01*
X160264540Y-118939615D01*
X160292628Y-118931840D01*
X160334990Y-118926095D01*
X160396650Y-118922074D01*
X160482632Y-118919472D01*
X160597958Y-118917982D01*
X160747652Y-118917299D01*
X160936738Y-118917119D01*
X160976972Y-118917116D01*
X161175463Y-118917310D01*
X161175463Y-118917310D01*
G37*
X161175463Y-118917310D02*
X161333581Y-118918070D01*
X161456308Y-118919660D01*
X161548626Y-118922345D01*
X161615519Y-118926390D01*
X161661968Y-118932060D01*
X161692957Y-118939620D01*
X161713468Y-118949335D01*
X161723394Y-118956803D01*
X161774911Y-119022165D01*
X161781143Y-119090028D01*
X161749307Y-119151677D01*
X161728488Y-119176312D01*
X161706085Y-119193110D01*
X161673617Y-119203570D01*
X161622606Y-119209195D01*
X161544570Y-119211483D01*
X161431030Y-119211935D01*
X161408731Y-119211937D01*
X161115556Y-119211937D01*
X161115556Y-119756223D01*
X161115363Y-119927782D01*
X161114486Y-120059789D01*
X161112478Y-120158045D01*
X161108894Y-120228356D01*
X161103287Y-120276523D01*
X161095211Y-120308351D01*
X161084218Y-120329642D01*
X161070199Y-120345866D01*
X161004039Y-120385734D01*
X160934974Y-120382592D01*
X160872340Y-120337105D01*
X160867738Y-120331468D01*
X160852757Y-120310158D01*
X160841343Y-120285225D01*
X160833014Y-120250609D01*
X160827287Y-120200253D01*
X160823679Y-120128098D01*
X160821706Y-120028086D01*
X160820886Y-119894158D01*
X160820735Y-119741825D01*
X160820735Y-119211937D01*
X160540767Y-119211937D01*
X160420622Y-119211124D01*
X160337445Y-119207956D01*
X160282863Y-119201339D01*
X160248506Y-119190179D01*
X160226000Y-119173384D01*
X160223267Y-119170464D01*
X160190406Y-119103690D01*
X160193312Y-119028200D01*
X160231092Y-118962473D01*
X160245702Y-118949724D01*
X160264540Y-118939615D01*
X160292628Y-118931840D01*
X160334990Y-118926095D01*
X160396650Y-118922074D01*
X160482632Y-118919472D01*
X160597958Y-118917982D01*
X160747652Y-118917299D01*
X160936738Y-118917119D01*
X160976972Y-118917116D01*
X161175463Y-118917310D01*
G36*
X163718282Y-118928097D02*
X163781319Y-118972781D01*
X163836985Y-119028447D01*
X163836985Y-119650080D01*
X163836839Y-119834659D01*
X163836150Y-119979383D01*
X163834537Y-120089755D01*
X163831620Y-120171276D01*
X163827022Y-120229449D01*
X163820361Y-120269777D01*
X163811258Y-120297760D01*
X163799334Y-120318903D01*
X163789981Y-120331468D01*
X163728245Y-120380835D01*
X163657357Y-120386193D01*
X163592566Y-120355919D01*
X163571157Y-120338046D01*
X163556846Y-120314305D01*
X163548214Y-120276075D01*
X163543842Y-120214733D01*
X163542310Y-120121660D01*
X163542163Y-120049758D01*
X163542163Y-119778902D01*
X162544306Y-119778902D01*
X162544306Y-120025307D01*
X162543274Y-120137982D01*
X162539146Y-120215418D01*
X162530371Y-120267708D01*
X162515402Y-120304944D01*
X162497303Y-120331468D01*
X162435221Y-120380696D01*
X162365012Y-120386525D01*
X162297799Y-120351535D01*
X162279448Y-120333193D01*
X162266488Y-120308877D01*
X162257939Y-120271001D01*
X162252825Y-120211978D01*
X162250169Y-120124222D01*
X162248991Y-120000146D01*
X162248854Y-119971669D01*
X162247882Y-119737892D01*
X162247381Y-119545228D01*
X162247544Y-119389435D01*
X162248565Y-119266271D01*
X162250637Y-119171493D01*
X162253953Y-119100859D01*
X162258707Y-119050126D01*
X162265091Y-119015052D01*
X162273300Y-118991393D01*
X162283527Y-118974909D01*
X162294842Y-118962473D01*
X162358849Y-118922694D01*
X162425603Y-118928097D01*
X162488640Y-118972781D01*
X162514149Y-119001610D01*
X162530409Y-119033455D01*
X162539481Y-119078808D01*
X162543426Y-119148166D01*
X162544305Y-119252022D01*
X162544306Y-119256264D01*
X162544306Y-119484080D01*
X163542163Y-119484080D01*
X163542163Y-119245955D01*
X163543181Y-119136251D01*
X163547271Y-119062176D01*
X163555985Y-119014027D01*
X163570875Y-118982101D01*
X163587520Y-118962473D01*
X163651527Y-118922694D01*
X163718282Y-118928097D01*
X163718282Y-118928097D01*
G37*
X163718282Y-118928097D02*
X163781319Y-118972781D01*
X163836985Y-119028447D01*
X163836985Y-119650080D01*
X163836839Y-119834659D01*
X163836150Y-119979383D01*
X163834537Y-120089755D01*
X163831620Y-120171276D01*
X163827022Y-120229449D01*
X163820361Y-120269777D01*
X163811258Y-120297760D01*
X163799334Y-120318903D01*
X163789981Y-120331468D01*
X163728245Y-120380835D01*
X163657357Y-120386193D01*
X163592566Y-120355919D01*
X163571157Y-120338046D01*
X163556846Y-120314305D01*
X163548214Y-120276075D01*
X163543842Y-120214733D01*
X163542310Y-120121660D01*
X163542163Y-120049758D01*
X163542163Y-119778902D01*
X162544306Y-119778902D01*
X162544306Y-120025307D01*
X162543274Y-120137982D01*
X162539146Y-120215418D01*
X162530371Y-120267708D01*
X162515402Y-120304944D01*
X162497303Y-120331468D01*
X162435221Y-120380696D01*
X162365012Y-120386525D01*
X162297799Y-120351535D01*
X162279448Y-120333193D01*
X162266488Y-120308877D01*
X162257939Y-120271001D01*
X162252825Y-120211978D01*
X162250169Y-120124222D01*
X162248991Y-120000146D01*
X162248854Y-119971669D01*
X162247882Y-119737892D01*
X162247381Y-119545228D01*
X162247544Y-119389435D01*
X162248565Y-119266271D01*
X162250637Y-119171493D01*
X162253953Y-119100859D01*
X162258707Y-119050126D01*
X162265091Y-119015052D01*
X162273300Y-118991393D01*
X162283527Y-118974909D01*
X162294842Y-118962473D01*
X162358849Y-118922694D01*
X162425603Y-118928097D01*
X162488640Y-118972781D01*
X162514149Y-119001610D01*
X162530409Y-119033455D01*
X162539481Y-119078808D01*
X162543426Y-119148166D01*
X162544305Y-119252022D01*
X162544306Y-119256264D01*
X162544306Y-119484080D01*
X163542163Y-119484080D01*
X163542163Y-119245955D01*
X163543181Y-119136251D01*
X163547271Y-119062176D01*
X163555985Y-119014027D01*
X163570875Y-118982101D01*
X163587520Y-118962473D01*
X163651527Y-118922694D01*
X163718282Y-118928097D01*
D15*
X174000000Y-88925000D02*
X176000000Y-88925000D01*
X176000000Y-91075000D02*
X174000000Y-91075000D01*
X175000000Y-62925000D02*
X177000000Y-62925000D01*
X177000000Y-65075000D02*
X175000000Y-65075000D01*
X175000000Y-42925000D02*
X177000000Y-42925000D01*
X177000000Y-45075000D02*
X175000000Y-45075000D01*
X184150000Y-62950000D02*
X180550000Y-62950000D01*
X184150000Y-65050000D02*
X180550000Y-65050000D01*
X182100000Y-64300000D02*
X182100000Y-63700000D01*
X182100000Y-63700000D02*
X182400000Y-64000000D01*
X182400000Y-64000000D02*
X182200000Y-64200000D01*
X182200000Y-64200000D02*
X182200000Y-63950000D01*
X182200000Y-63950000D02*
X182250000Y-64000000D01*
X182500000Y-64500000D02*
X182500000Y-63500000D01*
X182000000Y-64000000D02*
X181500000Y-64000000D01*
X182500000Y-64000000D02*
X182000000Y-64500000D01*
X182000000Y-64500000D02*
X182000000Y-63500000D01*
X182000000Y-63500000D02*
X182500000Y-64000000D01*
X184150000Y-42950000D02*
X180550000Y-42950000D01*
X184150000Y-45050000D02*
X180550000Y-45050000D01*
X182100000Y-44300000D02*
X182100000Y-43700000D01*
X182100000Y-43700000D02*
X182400000Y-44000000D01*
X182400000Y-44000000D02*
X182200000Y-44200000D01*
X182200000Y-44200000D02*
X182200000Y-43950000D01*
X182200000Y-43950000D02*
X182250000Y-44000000D01*
X182500000Y-44500000D02*
X182500000Y-43500000D01*
X182000000Y-44000000D02*
X181500000Y-44000000D01*
X182500000Y-44000000D02*
X182000000Y-44500000D01*
X182000000Y-44500000D02*
X182000000Y-43500000D01*
X182000000Y-43500000D02*
X182500000Y-44000000D01*
X183150000Y-88950000D02*
X179550000Y-88950000D01*
X183150000Y-91050000D02*
X179550000Y-91050000D01*
X181100000Y-90300000D02*
X181100000Y-89700000D01*
X181100000Y-89700000D02*
X181400000Y-90000000D01*
X181400000Y-90000000D02*
X181200000Y-90200000D01*
X181200000Y-90200000D02*
X181200000Y-89950000D01*
X181200000Y-89950000D02*
X181250000Y-90000000D01*
X181500000Y-90500000D02*
X181500000Y-89500000D01*
X181000000Y-90000000D02*
X180500000Y-90000000D01*
X181500000Y-90000000D02*
X181000000Y-90500000D01*
X181000000Y-90500000D02*
X181000000Y-89500000D01*
X181000000Y-89500000D02*
X181500000Y-90000000D01*
X128500000Y-129730000D02*
X128790000Y-130130000D01*
X128790000Y-130130000D02*
X129000000Y-129760000D01*
X129000000Y-129760000D02*
X128640000Y-129740000D01*
X128640000Y-129740000D02*
X128810000Y-129930000D01*
X128810000Y-129930000D02*
X128830000Y-129840000D01*
X128800000Y-130340000D02*
X128330000Y-129650000D01*
X128330000Y-129650000D02*
X129180000Y-129650000D01*
X129180000Y-129650000D02*
X128800000Y-130340000D01*
X167250000Y-64000000D02*
X166700000Y-64450000D01*
X166700000Y-64450000D02*
X166700000Y-63550000D01*
X166700000Y-63550000D02*
X167250000Y-64000000D01*
X167250000Y-64550000D02*
X167250000Y-63450000D01*
X168799140Y-62249940D02*
X168799140Y-62600460D01*
X168799140Y-65750060D02*
X168799140Y-65399540D01*
X164749560Y-62249940D02*
X164749560Y-62600460D01*
X169250440Y-62249940D02*
X169250440Y-62600460D01*
X169250440Y-65750060D02*
X169250440Y-65399540D01*
X164749560Y-65750060D02*
X164749560Y-65399540D01*
X169250440Y-62249940D02*
X164749560Y-62249940D01*
X169250440Y-65750060D02*
X164749560Y-65750060D01*
X167250000Y-44000000D02*
X166700000Y-44450000D01*
X166700000Y-44450000D02*
X166700000Y-43550000D01*
X166700000Y-43550000D02*
X167250000Y-44000000D01*
X167250000Y-44550000D02*
X167250000Y-43450000D01*
X168799140Y-42249940D02*
X168799140Y-42600460D01*
X168799140Y-45750060D02*
X168799140Y-45399540D01*
X164749560Y-42249940D02*
X164749560Y-42600460D01*
X169250440Y-42249940D02*
X169250440Y-42600460D01*
X169250440Y-45750060D02*
X169250440Y-45399540D01*
X164749560Y-45750060D02*
X164749560Y-45399540D01*
X169250440Y-42249940D02*
X164749560Y-42249940D01*
X169250440Y-45750060D02*
X164749560Y-45750060D01*
X167250000Y-90000000D02*
X166700000Y-90450000D01*
X166700000Y-90450000D02*
X166700000Y-89550000D01*
X166700000Y-89550000D02*
X167250000Y-90000000D01*
X167250000Y-90550000D02*
X167250000Y-89450000D01*
X168799140Y-88249940D02*
X168799140Y-88600460D01*
X168799140Y-91750060D02*
X168799140Y-91399540D01*
X164749560Y-88249940D02*
X164749560Y-88600460D01*
X169250440Y-88249940D02*
X169250440Y-88600460D01*
X169250440Y-91750060D02*
X169250440Y-91399540D01*
X164749560Y-91750060D02*
X164749560Y-91399540D01*
X169250440Y-88249940D02*
X164749560Y-88249940D01*
X169250440Y-91750060D02*
X164749560Y-91750060D01*
D16*
X126254000Y-77318000D02*
X126000000Y-76810000D01*
X125746000Y-77318000D02*
X126254000Y-77318000D01*
X126000000Y-76810000D02*
X125746000Y-77318000D01*
X114260000Y-67290000D02*
X186000000Y-67290000D01*
X114260000Y-67290000D02*
X114260000Y-76170000D01*
X186000000Y-76170000D02*
X186000000Y-67290000D01*
X186000000Y-76170000D02*
X114260000Y-76170000D01*
X126254000Y-58318000D02*
X126000000Y-57810000D01*
X125746000Y-58318000D02*
X126254000Y-58318000D01*
X126000000Y-57810000D02*
X125746000Y-58318000D01*
X114260000Y-48290000D02*
X186000000Y-48290000D01*
X114260000Y-48290000D02*
X114260000Y-57170000D01*
X186000000Y-57170000D02*
X186000000Y-48290000D01*
X186000000Y-57170000D02*
X114260000Y-57170000D01*
X172060000Y-99060000D02*
X172060000Y-94940000D01*
X130000000Y-99060000D02*
X172060000Y-99060000D01*
X127940000Y-94940000D02*
X172060000Y-94940000D01*
X130000000Y-99060000D02*
X130000000Y-97000000D01*
X130000000Y-97000000D02*
X127940000Y-97000000D01*
X127940000Y-97000000D02*
X127940000Y-94940000D01*
X129000000Y-99060000D02*
X127940000Y-99060000D01*
X127940000Y-99060000D02*
X127940000Y-98000000D01*
D15*
X181625000Y-83625000D02*
X181625000Y-83400000D01*
X178375000Y-83625000D02*
X178375000Y-83400000D01*
X178375000Y-80375000D02*
X178375000Y-80600000D01*
X181625000Y-80375000D02*
X181625000Y-80600000D01*
X181625000Y-83625000D02*
X178375000Y-83625000D01*
X181625000Y-80375000D02*
X178375000Y-80375000D01*
X181625000Y-83400000D02*
X182700000Y-83400000D01*
X174833334Y-92752381D02*
X174500000Y-92276190D01*
X174261905Y-92752381D02*
X174261905Y-91752381D01*
X174642858Y-91752381D01*
X174738096Y-91800000D01*
X174785715Y-91847619D01*
X174833334Y-91942857D01*
X174833334Y-92085714D01*
X174785715Y-92180952D01*
X174738096Y-92228571D01*
X174642858Y-92276190D01*
X174261905Y-92276190D01*
X175166667Y-91752381D02*
X175785715Y-91752381D01*
X175452381Y-92133333D01*
X175595239Y-92133333D01*
X175690477Y-92180952D01*
X175738096Y-92228571D01*
X175785715Y-92323810D01*
X175785715Y-92561905D01*
X175738096Y-92657143D01*
X175690477Y-92704762D01*
X175595239Y-92752381D01*
X175309524Y-92752381D01*
X175214286Y-92704762D01*
X175166667Y-92657143D01*
X175833334Y-66752381D02*
X175500000Y-66276190D01*
X175261905Y-66752381D02*
X175261905Y-65752381D01*
X175642858Y-65752381D01*
X175738096Y-65800000D01*
X175785715Y-65847619D01*
X175833334Y-65942857D01*
X175833334Y-66085714D01*
X175785715Y-66180952D01*
X175738096Y-66228571D01*
X175642858Y-66276190D01*
X175261905Y-66276190D01*
X176785715Y-66752381D02*
X176214286Y-66752381D01*
X176500000Y-66752381D02*
X176500000Y-65752381D01*
X176404762Y-65895238D01*
X176309524Y-65990476D01*
X176214286Y-66038095D01*
X175833334Y-46752381D02*
X175500000Y-46276190D01*
X175261905Y-46752381D02*
X175261905Y-45752381D01*
X175642858Y-45752381D01*
X175738096Y-45800000D01*
X175785715Y-45847619D01*
X175833334Y-45942857D01*
X175833334Y-46085714D01*
X175785715Y-46180952D01*
X175738096Y-46228571D01*
X175642858Y-46276190D01*
X175261905Y-46276190D01*
X176214286Y-45847619D02*
X176261905Y-45800000D01*
X176357143Y-45752381D01*
X176595239Y-45752381D01*
X176690477Y-45800000D01*
X176738096Y-45847619D01*
X176785715Y-45942857D01*
X176785715Y-46038095D01*
X176738096Y-46180952D01*
X176166667Y-46752381D01*
X176785715Y-46752381D01*
X180166667Y-66166667D02*
X180642858Y-66166667D01*
X180071429Y-66452381D02*
X180404762Y-65452381D01*
X180738096Y-66452381D01*
X181642858Y-66357143D02*
X181595239Y-66404762D01*
X181452382Y-66452381D01*
X181357144Y-66452381D01*
X181214286Y-66404762D01*
X181119048Y-66309524D01*
X181071429Y-66214286D01*
X181023810Y-66023810D01*
X181023810Y-65880952D01*
X181071429Y-65690476D01*
X181119048Y-65595238D01*
X181214286Y-65500000D01*
X181357144Y-65452381D01*
X181452382Y-65452381D01*
X181595239Y-65500000D01*
X181642858Y-65547619D01*
X181928572Y-65452381D02*
X182500001Y-65452381D01*
X182214286Y-66452381D02*
X182214286Y-65452381D01*
X182833334Y-66357143D02*
X182880953Y-66404762D01*
X182833334Y-66452381D01*
X182785715Y-66404762D01*
X182833334Y-66357143D01*
X182833334Y-66452381D01*
X183833334Y-66452381D02*
X183261905Y-66452381D01*
X183547619Y-66452381D02*
X183547619Y-65452381D01*
X183452381Y-65595238D01*
X183357143Y-65690476D01*
X183261905Y-65738095D01*
X180166667Y-46166667D02*
X180642858Y-46166667D01*
X180071429Y-46452381D02*
X180404762Y-45452381D01*
X180738096Y-46452381D01*
X181642858Y-46357143D02*
X181595239Y-46404762D01*
X181452382Y-46452381D01*
X181357144Y-46452381D01*
X181214286Y-46404762D01*
X181119048Y-46309524D01*
X181071429Y-46214286D01*
X181023810Y-46023810D01*
X181023810Y-45880952D01*
X181071429Y-45690476D01*
X181119048Y-45595238D01*
X181214286Y-45500000D01*
X181357144Y-45452381D01*
X181452382Y-45452381D01*
X181595239Y-45500000D01*
X181642858Y-45547619D01*
X181928572Y-45452381D02*
X182500001Y-45452381D01*
X182214286Y-46452381D02*
X182214286Y-45452381D01*
X182833334Y-46357143D02*
X182880953Y-46404762D01*
X182833334Y-46452381D01*
X182785715Y-46404762D01*
X182833334Y-46357143D01*
X182833334Y-46452381D01*
X183261905Y-45547619D02*
X183309524Y-45500000D01*
X183404762Y-45452381D01*
X183642858Y-45452381D01*
X183738096Y-45500000D01*
X183785715Y-45547619D01*
X183833334Y-45642857D01*
X183833334Y-45738095D01*
X183785715Y-45880952D01*
X183214286Y-46452381D01*
X183833334Y-46452381D01*
X179166667Y-92166667D02*
X179642858Y-92166667D01*
X179071429Y-92452381D02*
X179404762Y-91452381D01*
X179738096Y-92452381D01*
X180642858Y-92357143D02*
X180595239Y-92404762D01*
X180452382Y-92452381D01*
X180357144Y-92452381D01*
X180214286Y-92404762D01*
X180119048Y-92309524D01*
X180071429Y-92214286D01*
X180023810Y-92023810D01*
X180023810Y-91880952D01*
X180071429Y-91690476D01*
X180119048Y-91595238D01*
X180214286Y-91500000D01*
X180357144Y-91452381D01*
X180452382Y-91452381D01*
X180595239Y-91500000D01*
X180642858Y-91547619D01*
X180928572Y-91452381D02*
X181500001Y-91452381D01*
X181214286Y-92452381D02*
X181214286Y-91452381D01*
X181833334Y-92357143D02*
X181880953Y-92404762D01*
X181833334Y-92452381D01*
X181785715Y-92404762D01*
X181833334Y-92357143D01*
X181833334Y-92452381D01*
X182214286Y-91452381D02*
X182833334Y-91452381D01*
X182500000Y-91833333D01*
X182642858Y-91833333D01*
X182738096Y-91880952D01*
X182785715Y-91928571D01*
X182833334Y-92023810D01*
X182833334Y-92261905D01*
X182785715Y-92357143D01*
X182738096Y-92404762D01*
X182642858Y-92452381D01*
X182357143Y-92452381D01*
X182261905Y-92404762D01*
X182214286Y-92357143D01*
X141240952Y-129786667D02*
X141717143Y-129786667D01*
X141145714Y-130072381D02*
X141479047Y-129072381D01*
X141812381Y-130072381D01*
X142145714Y-130072381D02*
X142145714Y-129072381D01*
X142479048Y-129786667D01*
X142812381Y-129072381D01*
X142812381Y-130072381D01*
X143288571Y-130072381D02*
X143288571Y-129072381D01*
X144288571Y-129120000D02*
X144193333Y-129072381D01*
X144050476Y-129072381D01*
X143907618Y-129120000D01*
X143812380Y-129215238D01*
X143764761Y-129310476D01*
X143717142Y-129500952D01*
X143717142Y-129643810D01*
X143764761Y-129834286D01*
X143812380Y-129929524D01*
X143907618Y-130024762D01*
X144050476Y-130072381D01*
X144145714Y-130072381D01*
X144288571Y-130024762D01*
X144336190Y-129977143D01*
X144336190Y-129643810D01*
X144145714Y-129643810D01*
X144717142Y-129786667D02*
X145193333Y-129786667D01*
X144621904Y-130072381D02*
X144955237Y-129072381D01*
X145288571Y-130072381D01*
X145383809Y-130167619D02*
X146145714Y-130167619D01*
X146383809Y-130072381D02*
X146383809Y-129072381D01*
X146717143Y-129786667D01*
X147050476Y-129072381D01*
X147050476Y-130072381D01*
X147717142Y-129072381D02*
X147907619Y-129072381D01*
X148002857Y-129120000D01*
X148098095Y-129215238D01*
X148145714Y-129405714D01*
X148145714Y-129739048D01*
X148098095Y-129929524D01*
X148002857Y-130024762D01*
X147907619Y-130072381D01*
X147717142Y-130072381D01*
X147621904Y-130024762D01*
X147526666Y-129929524D01*
X147479047Y-129739048D01*
X147479047Y-129405714D01*
X147526666Y-129215238D01*
X147621904Y-129120000D01*
X147717142Y-129072381D01*
X148431428Y-129072381D02*
X149002857Y-129072381D01*
X148717142Y-130072381D02*
X148717142Y-129072381D01*
X149336190Y-130072381D02*
X149336190Y-129072381D01*
X149336190Y-129548571D02*
X149907619Y-129548571D01*
X149907619Y-130072381D02*
X149907619Y-129072381D01*
X150383809Y-129548571D02*
X150717143Y-129548571D01*
X150860000Y-130072381D02*
X150383809Y-130072381D01*
X150383809Y-129072381D01*
X150860000Y-129072381D01*
X151860000Y-130072381D02*
X151526666Y-129596190D01*
X151288571Y-130072381D02*
X151288571Y-129072381D01*
X151669524Y-129072381D01*
X151764762Y-129120000D01*
X151812381Y-129167619D01*
X151860000Y-129262857D01*
X151860000Y-129405714D01*
X151812381Y-129500952D01*
X151764762Y-129548571D01*
X151669524Y-129596190D01*
X151288571Y-129596190D01*
X152621905Y-129548571D02*
X152764762Y-129596190D01*
X152812381Y-129643810D01*
X152860000Y-129739048D01*
X152860000Y-129881905D01*
X152812381Y-129977143D01*
X152764762Y-130024762D01*
X152669524Y-130072381D01*
X152288571Y-130072381D01*
X152288571Y-129072381D01*
X152621905Y-129072381D01*
X152717143Y-129120000D01*
X152764762Y-129167619D01*
X152812381Y-129262857D01*
X152812381Y-129358095D01*
X152764762Y-129453333D01*
X152717143Y-129500952D01*
X152621905Y-129548571D01*
X152288571Y-129548571D01*
X153479047Y-129072381D02*
X153669524Y-129072381D01*
X153764762Y-129120000D01*
X153860000Y-129215238D01*
X153907619Y-129405714D01*
X153907619Y-129739048D01*
X153860000Y-129929524D01*
X153764762Y-130024762D01*
X153669524Y-130072381D01*
X153479047Y-130072381D01*
X153383809Y-130024762D01*
X153288571Y-129929524D01*
X153240952Y-129739048D01*
X153240952Y-129405714D01*
X153288571Y-129215238D01*
X153383809Y-129120000D01*
X153479047Y-129072381D01*
X154288571Y-129786667D02*
X154764762Y-129786667D01*
X154193333Y-130072381D02*
X154526666Y-129072381D01*
X154860000Y-130072381D01*
X155764762Y-130072381D02*
X155431428Y-129596190D01*
X155193333Y-130072381D02*
X155193333Y-129072381D01*
X155574286Y-129072381D01*
X155669524Y-129120000D01*
X155717143Y-129167619D01*
X155764762Y-129262857D01*
X155764762Y-129405714D01*
X155717143Y-129500952D01*
X155669524Y-129548571D01*
X155574286Y-129596190D01*
X155193333Y-129596190D01*
X156193333Y-130072381D02*
X156193333Y-129072381D01*
X156431428Y-129072381D01*
X156574286Y-129120000D01*
X156669524Y-129215238D01*
X156717143Y-129310476D01*
X156764762Y-129500952D01*
X156764762Y-129643810D01*
X156717143Y-129834286D01*
X156669524Y-129929524D01*
X156574286Y-130024762D01*
X156431428Y-130072381D01*
X156193333Y-130072381D01*
X156955238Y-130167619D02*
X157717143Y-130167619D01*
X158479048Y-130072381D02*
X157907619Y-130072381D01*
X158193333Y-130072381D02*
X158193333Y-129072381D01*
X158098095Y-129215238D01*
X158002857Y-129310476D01*
X157907619Y-129358095D01*
X166261905Y-67302381D02*
X166261905Y-66302381D01*
X166500000Y-66302381D01*
X166642858Y-66350000D01*
X166738096Y-66445238D01*
X166785715Y-66540476D01*
X166833334Y-66730952D01*
X166833334Y-66873810D01*
X166785715Y-67064286D01*
X166738096Y-67159524D01*
X166642858Y-67254762D01*
X166500000Y-67302381D01*
X166261905Y-67302381D01*
X167785715Y-67302381D02*
X167214286Y-67302381D01*
X167500000Y-67302381D02*
X167500000Y-66302381D01*
X167404762Y-66445238D01*
X167309524Y-66540476D01*
X167214286Y-66588095D01*
X169988095Y-61552381D02*
X169988095Y-60552381D01*
X170559524Y-61552381D02*
X170130952Y-60980952D01*
X170559524Y-60552381D02*
X169988095Y-61123810D01*
X163711905Y-61316667D02*
X164188096Y-61316667D01*
X163616667Y-61602381D02*
X163950000Y-60602381D01*
X164283334Y-61602381D01*
X166261905Y-47302381D02*
X166261905Y-46302381D01*
X166500000Y-46302381D01*
X166642858Y-46350000D01*
X166738096Y-46445238D01*
X166785715Y-46540476D01*
X166833334Y-46730952D01*
X166833334Y-46873810D01*
X166785715Y-47064286D01*
X166738096Y-47159524D01*
X166642858Y-47254762D01*
X166500000Y-47302381D01*
X166261905Y-47302381D01*
X167214286Y-46397619D02*
X167261905Y-46350000D01*
X167357143Y-46302381D01*
X167595239Y-46302381D01*
X167690477Y-46350000D01*
X167738096Y-46397619D01*
X167785715Y-46492857D01*
X167785715Y-46588095D01*
X167738096Y-46730952D01*
X167166667Y-47302381D01*
X167785715Y-47302381D01*
X169988095Y-41552381D02*
X169988095Y-40552381D01*
X170559524Y-41552381D02*
X170130952Y-40980952D01*
X170559524Y-40552381D02*
X169988095Y-41123810D01*
X163711905Y-41316667D02*
X164188096Y-41316667D01*
X163616667Y-41602381D02*
X163950000Y-40602381D01*
X164283334Y-41602381D01*
X166261905Y-93302381D02*
X166261905Y-92302381D01*
X166500000Y-92302381D01*
X166642858Y-92350000D01*
X166738096Y-92445238D01*
X166785715Y-92540476D01*
X166833334Y-92730952D01*
X166833334Y-92873810D01*
X166785715Y-93064286D01*
X166738096Y-93159524D01*
X166642858Y-93254762D01*
X166500000Y-93302381D01*
X166261905Y-93302381D01*
X167166667Y-92302381D02*
X167785715Y-92302381D01*
X167452381Y-92683333D01*
X167595239Y-92683333D01*
X167690477Y-92730952D01*
X167738096Y-92778571D01*
X167785715Y-92873810D01*
X167785715Y-93111905D01*
X167738096Y-93207143D01*
X167690477Y-93254762D01*
X167595239Y-93302381D01*
X167309524Y-93302381D01*
X167214286Y-93254762D01*
X167166667Y-93207143D01*
X169988095Y-87552381D02*
X169988095Y-86552381D01*
X170559524Y-87552381D02*
X170130952Y-86980952D01*
X170559524Y-86552381D02*
X169988095Y-87123810D01*
X163711905Y-87316667D02*
X164188096Y-87316667D01*
X163616667Y-87602381D02*
X163950000Y-86602381D01*
X164283334Y-87602381D01*
X144241143Y-66546762D02*
X144336381Y-66594381D01*
X144526857Y-66594381D01*
X144622096Y-66546762D01*
X144669715Y-66451524D01*
X144669715Y-66403905D01*
X144622096Y-66308667D01*
X144526857Y-66261048D01*
X144384000Y-66261048D01*
X144288762Y-66213429D01*
X144241143Y-66118190D01*
X144241143Y-66070571D01*
X144288762Y-65975333D01*
X144384000Y-65927714D01*
X144526857Y-65927714D01*
X144622096Y-65975333D01*
X145526858Y-66546762D02*
X145431620Y-66594381D01*
X145241143Y-66594381D01*
X145145905Y-66546762D01*
X145098286Y-66499143D01*
X145050667Y-66403905D01*
X145050667Y-66118190D01*
X145098286Y-66022952D01*
X145145905Y-65975333D01*
X145241143Y-65927714D01*
X145431620Y-65927714D01*
X145526858Y-65975333D01*
X145907810Y-66546762D02*
X146003048Y-66594381D01*
X146193524Y-66594381D01*
X146288763Y-66546762D01*
X146336382Y-66451524D01*
X146336382Y-66403905D01*
X146288763Y-66308667D01*
X146193524Y-66261048D01*
X146050667Y-66261048D01*
X145955429Y-66213429D01*
X145907810Y-66118190D01*
X145907810Y-66070571D01*
X145955429Y-65975333D01*
X146050667Y-65927714D01*
X146193524Y-65927714D01*
X146288763Y-65975333D01*
X146764953Y-66594381D02*
X146764953Y-65927714D01*
X146764953Y-65594381D02*
X146717334Y-65642000D01*
X146764953Y-65689619D01*
X146812572Y-65642000D01*
X146764953Y-65594381D01*
X146764953Y-65689619D01*
X147241143Y-66499143D02*
X147288762Y-66546762D01*
X147241143Y-66594381D01*
X147193524Y-66546762D01*
X147241143Y-66499143D01*
X147241143Y-66594381D01*
X148145905Y-66594381D02*
X148145905Y-65594381D01*
X148145905Y-66546762D02*
X148050667Y-66594381D01*
X147860190Y-66594381D01*
X147764952Y-66546762D01*
X147717333Y-66499143D01*
X147669714Y-66403905D01*
X147669714Y-66118190D01*
X147717333Y-66022952D01*
X147764952Y-65975333D01*
X147860190Y-65927714D01*
X148050667Y-65927714D01*
X148145905Y-65975333D01*
X149003048Y-66546762D02*
X148907810Y-66594381D01*
X148717333Y-66594381D01*
X148622095Y-66546762D01*
X148574476Y-66451524D01*
X148574476Y-66070571D01*
X148622095Y-65975333D01*
X148717333Y-65927714D01*
X148907810Y-65927714D01*
X149003048Y-65975333D01*
X149050667Y-66070571D01*
X149050667Y-66165810D01*
X148574476Y-66261048D01*
X149384000Y-65927714D02*
X149622095Y-66594381D01*
X149860191Y-65927714D01*
X150241143Y-66594381D02*
X150241143Y-65927714D01*
X150241143Y-65594381D02*
X150193524Y-65642000D01*
X150241143Y-65689619D01*
X150288762Y-65642000D01*
X150241143Y-65594381D01*
X150241143Y-65689619D01*
X151145905Y-66546762D02*
X151050667Y-66594381D01*
X150860190Y-66594381D01*
X150764952Y-66546762D01*
X150717333Y-66499143D01*
X150669714Y-66403905D01*
X150669714Y-66118190D01*
X150717333Y-66022952D01*
X150764952Y-65975333D01*
X150860190Y-65927714D01*
X151050667Y-65927714D01*
X151145905Y-65975333D01*
X151955429Y-66546762D02*
X151860191Y-66594381D01*
X151669714Y-66594381D01*
X151574476Y-66546762D01*
X151526857Y-66451524D01*
X151526857Y-66070571D01*
X151574476Y-65975333D01*
X151669714Y-65927714D01*
X151860191Y-65927714D01*
X151955429Y-65975333D01*
X152003048Y-66070571D01*
X152003048Y-66165810D01*
X151526857Y-66261048D01*
X152431619Y-66499143D02*
X152479238Y-66546762D01*
X152431619Y-66594381D01*
X152384000Y-66546762D01*
X152431619Y-66499143D01*
X152431619Y-66594381D01*
X152907809Y-66594381D02*
X152907809Y-65594381D01*
X152907809Y-65975333D02*
X153003047Y-65927714D01*
X153193524Y-65927714D01*
X153288762Y-65975333D01*
X153336381Y-66022952D01*
X153384000Y-66118190D01*
X153384000Y-66403905D01*
X153336381Y-66499143D01*
X153288762Y-66546762D01*
X153193524Y-66594381D01*
X153003047Y-66594381D01*
X152907809Y-66546762D01*
X154241143Y-65927714D02*
X154241143Y-66594381D01*
X153812571Y-65927714D02*
X153812571Y-66451524D01*
X153860190Y-66546762D01*
X153955428Y-66594381D01*
X154098286Y-66594381D01*
X154193524Y-66546762D01*
X154241143Y-66499143D01*
X154669714Y-66546762D02*
X154764952Y-66594381D01*
X154955428Y-66594381D01*
X155050667Y-66546762D01*
X155098286Y-66451524D01*
X155098286Y-66403905D01*
X155050667Y-66308667D01*
X154955428Y-66261048D01*
X154812571Y-66261048D01*
X154717333Y-66213429D01*
X154669714Y-66118190D01*
X154669714Y-66070571D01*
X154717333Y-65975333D01*
X154812571Y-65927714D01*
X154955428Y-65927714D01*
X155050667Y-65975333D01*
X155526857Y-66499143D02*
X155574476Y-66546762D01*
X155526857Y-66594381D01*
X155479238Y-66546762D01*
X155526857Y-66499143D01*
X155526857Y-66594381D01*
X156526857Y-66594381D02*
X155955428Y-66594381D01*
X156241142Y-66594381D02*
X156241142Y-65594381D01*
X156145904Y-65737238D01*
X156050666Y-65832476D01*
X155955428Y-65880095D01*
X144241143Y-47546762D02*
X144336381Y-47594381D01*
X144526857Y-47594381D01*
X144622096Y-47546762D01*
X144669715Y-47451524D01*
X144669715Y-47403905D01*
X144622096Y-47308667D01*
X144526857Y-47261048D01*
X144384000Y-47261048D01*
X144288762Y-47213429D01*
X144241143Y-47118190D01*
X144241143Y-47070571D01*
X144288762Y-46975333D01*
X144384000Y-46927714D01*
X144526857Y-46927714D01*
X144622096Y-46975333D01*
X145526858Y-47546762D02*
X145431620Y-47594381D01*
X145241143Y-47594381D01*
X145145905Y-47546762D01*
X145098286Y-47499143D01*
X145050667Y-47403905D01*
X145050667Y-47118190D01*
X145098286Y-47022952D01*
X145145905Y-46975333D01*
X145241143Y-46927714D01*
X145431620Y-46927714D01*
X145526858Y-46975333D01*
X145907810Y-47546762D02*
X146003048Y-47594381D01*
X146193524Y-47594381D01*
X146288763Y-47546762D01*
X146336382Y-47451524D01*
X146336382Y-47403905D01*
X146288763Y-47308667D01*
X146193524Y-47261048D01*
X146050667Y-47261048D01*
X145955429Y-47213429D01*
X145907810Y-47118190D01*
X145907810Y-47070571D01*
X145955429Y-46975333D01*
X146050667Y-46927714D01*
X146193524Y-46927714D01*
X146288763Y-46975333D01*
X146764953Y-47594381D02*
X146764953Y-46927714D01*
X146764953Y-46594381D02*
X146717334Y-46642000D01*
X146764953Y-46689619D01*
X146812572Y-46642000D01*
X146764953Y-46594381D01*
X146764953Y-46689619D01*
X147241143Y-47499143D02*
X147288762Y-47546762D01*
X147241143Y-47594381D01*
X147193524Y-47546762D01*
X147241143Y-47499143D01*
X147241143Y-47594381D01*
X148145905Y-47594381D02*
X148145905Y-46594381D01*
X148145905Y-47546762D02*
X148050667Y-47594381D01*
X147860190Y-47594381D01*
X147764952Y-47546762D01*
X147717333Y-47499143D01*
X147669714Y-47403905D01*
X147669714Y-47118190D01*
X147717333Y-47022952D01*
X147764952Y-46975333D01*
X147860190Y-46927714D01*
X148050667Y-46927714D01*
X148145905Y-46975333D01*
X149003048Y-47546762D02*
X148907810Y-47594381D01*
X148717333Y-47594381D01*
X148622095Y-47546762D01*
X148574476Y-47451524D01*
X148574476Y-47070571D01*
X148622095Y-46975333D01*
X148717333Y-46927714D01*
X148907810Y-46927714D01*
X149003048Y-46975333D01*
X149050667Y-47070571D01*
X149050667Y-47165810D01*
X148574476Y-47261048D01*
X149384000Y-46927714D02*
X149622095Y-47594381D01*
X149860191Y-46927714D01*
X150241143Y-47594381D02*
X150241143Y-46927714D01*
X150241143Y-46594381D02*
X150193524Y-46642000D01*
X150241143Y-46689619D01*
X150288762Y-46642000D01*
X150241143Y-46594381D01*
X150241143Y-46689619D01*
X151145905Y-47546762D02*
X151050667Y-47594381D01*
X150860190Y-47594381D01*
X150764952Y-47546762D01*
X150717333Y-47499143D01*
X150669714Y-47403905D01*
X150669714Y-47118190D01*
X150717333Y-47022952D01*
X150764952Y-46975333D01*
X150860190Y-46927714D01*
X151050667Y-46927714D01*
X151145905Y-46975333D01*
X151955429Y-47546762D02*
X151860191Y-47594381D01*
X151669714Y-47594381D01*
X151574476Y-47546762D01*
X151526857Y-47451524D01*
X151526857Y-47070571D01*
X151574476Y-46975333D01*
X151669714Y-46927714D01*
X151860191Y-46927714D01*
X151955429Y-46975333D01*
X152003048Y-47070571D01*
X152003048Y-47165810D01*
X151526857Y-47261048D01*
X152431619Y-47499143D02*
X152479238Y-47546762D01*
X152431619Y-47594381D01*
X152384000Y-47546762D01*
X152431619Y-47499143D01*
X152431619Y-47594381D01*
X152907809Y-47594381D02*
X152907809Y-46594381D01*
X152907809Y-46975333D02*
X153003047Y-46927714D01*
X153193524Y-46927714D01*
X153288762Y-46975333D01*
X153336381Y-47022952D01*
X153384000Y-47118190D01*
X153384000Y-47403905D01*
X153336381Y-47499143D01*
X153288762Y-47546762D01*
X153193524Y-47594381D01*
X153003047Y-47594381D01*
X152907809Y-47546762D01*
X154241143Y-46927714D02*
X154241143Y-47594381D01*
X153812571Y-46927714D02*
X153812571Y-47451524D01*
X153860190Y-47546762D01*
X153955428Y-47594381D01*
X154098286Y-47594381D01*
X154193524Y-47546762D01*
X154241143Y-47499143D01*
X154669714Y-47546762D02*
X154764952Y-47594381D01*
X154955428Y-47594381D01*
X155050667Y-47546762D01*
X155098286Y-47451524D01*
X155098286Y-47403905D01*
X155050667Y-47308667D01*
X154955428Y-47261048D01*
X154812571Y-47261048D01*
X154717333Y-47213429D01*
X154669714Y-47118190D01*
X154669714Y-47070571D01*
X154717333Y-46975333D01*
X154812571Y-46927714D01*
X154955428Y-46927714D01*
X155050667Y-46975333D01*
X155526857Y-47499143D02*
X155574476Y-47546762D01*
X155526857Y-47594381D01*
X155479238Y-47546762D01*
X155526857Y-47499143D01*
X155526857Y-47594381D01*
X155955428Y-46689619D02*
X156003047Y-46642000D01*
X156098285Y-46594381D01*
X156336381Y-46594381D01*
X156431619Y-46642000D01*
X156479238Y-46689619D01*
X156526857Y-46784857D01*
X156526857Y-46880095D01*
X156479238Y-47022952D01*
X155907809Y-47594381D01*
X156526857Y-47594381D01*
X144071429Y-93404762D02*
X144166667Y-93452381D01*
X144357143Y-93452381D01*
X144452382Y-93404762D01*
X144500001Y-93309524D01*
X144500001Y-93261905D01*
X144452382Y-93166667D01*
X144357143Y-93119048D01*
X144214286Y-93119048D01*
X144119048Y-93071429D01*
X144071429Y-92976190D01*
X144071429Y-92928571D01*
X144119048Y-92833333D01*
X144214286Y-92785714D01*
X144357143Y-92785714D01*
X144452382Y-92833333D01*
X145357144Y-93404762D02*
X145261906Y-93452381D01*
X145071429Y-93452381D01*
X144976191Y-93404762D01*
X144928572Y-93357143D01*
X144880953Y-93261905D01*
X144880953Y-92976190D01*
X144928572Y-92880952D01*
X144976191Y-92833333D01*
X145071429Y-92785714D01*
X145261906Y-92785714D01*
X145357144Y-92833333D01*
X145738096Y-93404762D02*
X145833334Y-93452381D01*
X146023810Y-93452381D01*
X146119049Y-93404762D01*
X146166668Y-93309524D01*
X146166668Y-93261905D01*
X146119049Y-93166667D01*
X146023810Y-93119048D01*
X145880953Y-93119048D01*
X145785715Y-93071429D01*
X145738096Y-92976190D01*
X145738096Y-92928571D01*
X145785715Y-92833333D01*
X145880953Y-92785714D01*
X146023810Y-92785714D01*
X146119049Y-92833333D01*
X146595239Y-93452381D02*
X146595239Y-92785714D01*
X146595239Y-92452381D02*
X146547620Y-92500000D01*
X146595239Y-92547619D01*
X146642858Y-92500000D01*
X146595239Y-92452381D01*
X146595239Y-92547619D01*
X147071429Y-93357143D02*
X147119048Y-93404762D01*
X147071429Y-93452381D01*
X147023810Y-93404762D01*
X147071429Y-93357143D01*
X147071429Y-93452381D01*
X147976191Y-93452381D02*
X147976191Y-92452381D01*
X147976191Y-93404762D02*
X147880953Y-93452381D01*
X147690476Y-93452381D01*
X147595238Y-93404762D01*
X147547619Y-93357143D01*
X147500000Y-93261905D01*
X147500000Y-92976190D01*
X147547619Y-92880952D01*
X147595238Y-92833333D01*
X147690476Y-92785714D01*
X147880953Y-92785714D01*
X147976191Y-92833333D01*
X148833334Y-93404762D02*
X148738096Y-93452381D01*
X148547619Y-93452381D01*
X148452381Y-93404762D01*
X148404762Y-93309524D01*
X148404762Y-92928571D01*
X148452381Y-92833333D01*
X148547619Y-92785714D01*
X148738096Y-92785714D01*
X148833334Y-92833333D01*
X148880953Y-92928571D01*
X148880953Y-93023810D01*
X148404762Y-93119048D01*
X149214286Y-92785714D02*
X149452381Y-93452381D01*
X149690477Y-92785714D01*
X150071429Y-93452381D02*
X150071429Y-92785714D01*
X150071429Y-92452381D02*
X150023810Y-92500000D01*
X150071429Y-92547619D01*
X150119048Y-92500000D01*
X150071429Y-92452381D01*
X150071429Y-92547619D01*
X150976191Y-93404762D02*
X150880953Y-93452381D01*
X150690476Y-93452381D01*
X150595238Y-93404762D01*
X150547619Y-93357143D01*
X150500000Y-93261905D01*
X150500000Y-92976190D01*
X150547619Y-92880952D01*
X150595238Y-92833333D01*
X150690476Y-92785714D01*
X150880953Y-92785714D01*
X150976191Y-92833333D01*
X151785715Y-93404762D02*
X151690477Y-93452381D01*
X151500000Y-93452381D01*
X151404762Y-93404762D01*
X151357143Y-93309524D01*
X151357143Y-92928571D01*
X151404762Y-92833333D01*
X151500000Y-92785714D01*
X151690477Y-92785714D01*
X151785715Y-92833333D01*
X151833334Y-92928571D01*
X151833334Y-93023810D01*
X151357143Y-93119048D01*
X152261905Y-93357143D02*
X152309524Y-93404762D01*
X152261905Y-93452381D01*
X152214286Y-93404762D01*
X152261905Y-93357143D01*
X152261905Y-93452381D01*
X153166667Y-92785714D02*
X153166667Y-93452381D01*
X152928571Y-92404762D02*
X152690476Y-93119048D01*
X153309524Y-93119048D01*
X154119048Y-92785714D02*
X154119048Y-93452381D01*
X153880952Y-92404762D02*
X153642857Y-93119048D01*
X154261905Y-93119048D01*
X154642857Y-92785714D02*
X154642857Y-93785714D01*
X154642857Y-92833333D02*
X154738095Y-92785714D01*
X154928572Y-92785714D01*
X155023810Y-92833333D01*
X155071429Y-92880952D01*
X155119048Y-92976190D01*
X155119048Y-93261905D01*
X155071429Y-93357143D01*
X155023810Y-93404762D01*
X154928572Y-93452381D01*
X154738095Y-93452381D01*
X154642857Y-93404762D01*
X155547619Y-93452381D02*
X155547619Y-92785714D01*
X155547619Y-92452381D02*
X155500000Y-92500000D01*
X155547619Y-92547619D01*
X155595238Y-92500000D01*
X155547619Y-92452381D01*
X155547619Y-92547619D01*
X156023809Y-92785714D02*
X156023809Y-93452381D01*
X156023809Y-92880952D02*
X156071428Y-92833333D01*
X156166666Y-92785714D01*
X156309524Y-92785714D01*
X156404762Y-92833333D01*
X156452381Y-92928571D01*
X156452381Y-93452381D01*
X156928571Y-93357143D02*
X156976190Y-93404762D01*
X156928571Y-93452381D01*
X156880952Y-93404762D01*
X156928571Y-93357143D01*
X156928571Y-93452381D01*
X157928571Y-93452381D02*
X157357142Y-93452381D01*
X157642856Y-93452381D02*
X157642856Y-92452381D01*
X157547618Y-92595238D01*
X157452380Y-92690476D01*
X157357142Y-92738095D01*
X179238095Y-84002381D02*
X179238095Y-84811905D01*
X179285714Y-84907143D01*
X179333333Y-84954762D01*
X179428571Y-85002381D01*
X179619048Y-85002381D01*
X179714286Y-84954762D01*
X179761905Y-84907143D01*
X179809524Y-84811905D01*
X179809524Y-84002381D01*
X180809524Y-85002381D02*
X180238095Y-85002381D01*
X180523809Y-85002381D02*
X180523809Y-84002381D01*
X180428571Y-84145238D01*
X180333333Y-84240476D01*
X180238095Y-84288095D01*
M02*
