G04 #@! TF.FileFunction,Legend,Top*
%FSLAX46Y46*%
G04 Gerber Fmt 4.6, Leading zero omitted, Abs format (unit mm)*
G04 Created by KiCad (PCBNEW 4.0.2+dfsg1-stable) date Fri 01 Mar 2019 18:56:52 CET*
%MOMM*%
G01*
G04 APERTURE LIST*
%ADD10C,0.100000*%
%ADD11C,0.150000*%
%ADD12C,0.300000*%
%ADD13C,0.120000*%
%ADD14C,0.010000*%
G04 APERTURE END LIST*
D10*
D11*
X182635921Y-109975890D02*
X182070235Y-109410205D01*
X182608983Y-109948953D02*
X182582046Y-110029765D01*
X182474297Y-110137514D01*
X182393484Y-110164452D01*
X182339609Y-110164452D01*
X182258797Y-110137514D01*
X182097172Y-109975890D01*
X182070235Y-109895078D01*
X182070235Y-109841203D01*
X182097172Y-109760390D01*
X182204922Y-109652641D01*
X182285735Y-109625704D01*
X183093857Y-109464079D02*
X183066920Y-109544891D01*
X182959170Y-109652641D01*
X182878358Y-109679579D01*
X182797545Y-109652641D01*
X182582046Y-109437141D01*
X182555109Y-109356330D01*
X182582046Y-109275517D01*
X182689796Y-109167767D01*
X182770608Y-109140830D01*
X182851420Y-109167768D01*
X182905295Y-109221643D01*
X182689796Y-109544891D01*
X183336294Y-109221643D02*
X183417105Y-109194706D01*
X183524855Y-109086956D01*
X183551793Y-109006144D01*
X183524855Y-108925331D01*
X183497918Y-108898394D01*
X183417105Y-108871456D01*
X183336293Y-108898394D01*
X183255481Y-108979206D01*
X183174669Y-109006144D01*
X183093856Y-108979206D01*
X183066919Y-108952268D01*
X183039982Y-108871457D01*
X183066919Y-108790644D01*
X183147731Y-108709832D01*
X183228544Y-108682895D01*
X183848104Y-108763707D02*
X183470980Y-108386583D01*
X183282418Y-108198022D02*
X183282418Y-108251896D01*
X183336293Y-108251896D01*
X183336293Y-108198022D01*
X183282418Y-108198022D01*
X183336293Y-108251896D01*
X183982790Y-107874773D02*
X184440726Y-108332709D01*
X184467664Y-108413521D01*
X184467664Y-108467395D01*
X184440726Y-108548208D01*
X184359914Y-108629019D01*
X184279102Y-108655957D01*
X184332977Y-108224960D02*
X184306040Y-108305771D01*
X184198290Y-108413521D01*
X184117478Y-108440459D01*
X184063602Y-108440458D01*
X183982791Y-108413521D01*
X183821166Y-108251896D01*
X183794229Y-108171084D01*
X183794229Y-108117210D01*
X183821166Y-108036397D01*
X183928916Y-107928647D01*
X184009728Y-107901711D01*
X184252165Y-107605398D02*
X184629289Y-107982522D01*
X184306040Y-107659273D02*
X184306040Y-107605399D01*
X184332977Y-107524586D01*
X184413789Y-107443773D01*
X184494602Y-107416837D01*
X184575413Y-107443774D01*
X184871725Y-107740086D01*
X185329662Y-107228275D02*
X185302724Y-107309087D01*
X185194975Y-107416836D01*
X185114162Y-107443774D01*
X185033350Y-107416836D01*
X184817851Y-107201337D01*
X184790913Y-107120525D01*
X184817851Y-107039712D01*
X184925600Y-106931962D01*
X185006413Y-106905026D01*
X185087224Y-106931963D01*
X185141100Y-106985838D01*
X184925600Y-107309087D01*
X185868409Y-106743402D02*
X185302724Y-106177716D01*
X185841472Y-106716465D02*
X185814535Y-106797276D01*
X185706785Y-106905026D01*
X185625973Y-106931964D01*
X185572097Y-106931963D01*
X185491286Y-106905026D01*
X185329661Y-106743401D01*
X185302724Y-106662589D01*
X185302724Y-106608715D01*
X185329661Y-106527902D01*
X185437411Y-106420152D01*
X185518223Y-106393216D01*
X186568782Y-106043029D02*
X186003097Y-105477343D01*
X186218596Y-105692843D02*
X186245533Y-105612030D01*
X186353283Y-105504280D01*
X186434095Y-105477343D01*
X186487970Y-105477343D01*
X186568782Y-105504280D01*
X186730407Y-105665905D01*
X186757343Y-105746717D01*
X186757344Y-105800592D01*
X186730407Y-105881404D01*
X186622657Y-105989154D01*
X186541845Y-106016092D01*
X186649595Y-105207968D02*
X187161405Y-105450405D01*
X186918968Y-104938595D02*
X187161405Y-105450405D01*
X187242217Y-105638968D01*
X187242217Y-105692842D01*
X187215280Y-105773654D01*
X188265839Y-104345972D02*
X187807903Y-104265159D01*
X187942590Y-104669221D02*
X187376905Y-104103535D01*
X187592404Y-103888036D01*
X187673216Y-103861098D01*
X187727091Y-103861098D01*
X187807903Y-103888036D01*
X187888715Y-103968848D01*
X187915653Y-104049660D01*
X187915653Y-104103535D01*
X187888715Y-104184347D01*
X187673216Y-104399846D01*
X188454400Y-104049660D02*
X188508276Y-104049661D01*
X188508276Y-104103535D01*
X188454401Y-104103535D01*
X188454400Y-104049660D01*
X188508276Y-104103535D01*
X188535213Y-102999102D02*
X188454400Y-103026040D01*
X188373589Y-103106851D01*
X188319714Y-103214601D01*
X188319713Y-103322351D01*
X188346651Y-103403163D01*
X188427463Y-103537850D01*
X188508276Y-103618662D01*
X188642962Y-103699475D01*
X188723774Y-103726412D01*
X188831525Y-103726412D01*
X188939274Y-103672537D01*
X188993149Y-103618662D01*
X189047024Y-103510913D01*
X189047023Y-103457038D01*
X188858462Y-103268476D01*
X188750712Y-103376226D01*
X189289460Y-103214601D02*
X189343335Y-103214602D01*
X189343335Y-103268476D01*
X189289460Y-103268476D01*
X189289460Y-103214601D01*
X189343335Y-103268476D01*
X189073960Y-102514229D02*
X189073960Y-102460354D01*
X189100898Y-102379542D01*
X189235585Y-102244855D01*
X189316397Y-102217918D01*
X189370272Y-102217917D01*
X189451084Y-102244855D01*
X189504959Y-102298729D01*
X189558834Y-102406479D01*
X189558834Y-103052977D01*
X189909020Y-102702791D01*
X189693521Y-101786919D02*
X189747396Y-101733044D01*
X189828208Y-101706107D01*
X189882082Y-101706107D01*
X189962895Y-101733044D01*
X190097582Y-101813856D01*
X190232269Y-101948543D01*
X190313082Y-102083230D01*
X190340018Y-102164043D01*
X190340019Y-102217918D01*
X190313082Y-102298729D01*
X190259206Y-102352605D01*
X190178395Y-102379542D01*
X190124519Y-102379542D01*
X190043707Y-102352605D01*
X189909020Y-102271792D01*
X189774333Y-102137105D01*
X189693521Y-102002418D01*
X189666583Y-101921606D01*
X189666584Y-101867731D01*
X189693521Y-101786919D01*
X190986517Y-101625294D02*
X190663268Y-101948543D01*
X190824892Y-101786919D02*
X190259206Y-101221234D01*
X190286144Y-101355920D01*
X190286144Y-101463670D01*
X190259206Y-101544482D01*
X191255890Y-101355921D02*
X191363640Y-101248171D01*
X191390578Y-101167359D01*
X191390577Y-101113483D01*
X191363641Y-100978797D01*
X191282828Y-100844110D01*
X191067329Y-100628610D01*
X190986517Y-100601672D01*
X190932641Y-100601673D01*
X190851830Y-100628610D01*
X190744080Y-100736360D01*
X190717142Y-100817172D01*
X190717142Y-100871047D01*
X190744080Y-100951859D01*
X190878767Y-101086546D01*
X190959579Y-101113483D01*
X191013454Y-101113484D01*
X191094266Y-101086546D01*
X191202016Y-100978797D01*
X191228953Y-100897985D01*
X191228953Y-100844109D01*
X191202016Y-100763297D01*
D12*
X120064286Y-81958571D02*
X119564286Y-81244286D01*
X119207143Y-81958571D02*
X119207143Y-80458571D01*
X119778571Y-80458571D01*
X119921429Y-80530000D01*
X119992857Y-80601429D01*
X120064286Y-80744286D01*
X120064286Y-80958571D01*
X119992857Y-81101429D01*
X119921429Y-81172857D01*
X119778571Y-81244286D01*
X119207143Y-81244286D01*
X120707143Y-81172857D02*
X121207143Y-81172857D01*
X121421429Y-81958571D02*
X120707143Y-81958571D01*
X120707143Y-80458571D01*
X121421429Y-80458571D01*
X121850000Y-80458571D02*
X122707143Y-80458571D01*
X122278572Y-81958571D02*
X122278572Y-80458571D01*
X124064286Y-81958571D02*
X123564286Y-81244286D01*
X123207143Y-81958571D02*
X123207143Y-80458571D01*
X123778571Y-80458571D01*
X123921429Y-80530000D01*
X123992857Y-80601429D01*
X124064286Y-80744286D01*
X124064286Y-80958571D01*
X123992857Y-81101429D01*
X123921429Y-81172857D01*
X123778571Y-81244286D01*
X123207143Y-81244286D01*
X124992857Y-80458571D02*
X125278571Y-80458571D01*
X125421429Y-80530000D01*
X125564286Y-80672857D01*
X125635714Y-80958571D01*
X125635714Y-81458571D01*
X125564286Y-81744286D01*
X125421429Y-81887143D01*
X125278571Y-81958571D01*
X124992857Y-81958571D01*
X124850000Y-81887143D01*
X124707143Y-81744286D01*
X124635714Y-81458571D01*
X124635714Y-80958571D01*
X124707143Y-80672857D01*
X124850000Y-80530000D01*
X124992857Y-80458571D01*
X126778572Y-81172857D02*
X126992858Y-81244286D01*
X127064286Y-81315714D01*
X127135715Y-81458571D01*
X127135715Y-81672857D01*
X127064286Y-81815714D01*
X126992858Y-81887143D01*
X126850000Y-81958571D01*
X126278572Y-81958571D01*
X126278572Y-80458571D01*
X126778572Y-80458571D01*
X126921429Y-80530000D01*
X126992858Y-80601429D01*
X127064286Y-80744286D01*
X127064286Y-80887143D01*
X126992858Y-81030000D01*
X126921429Y-81101429D01*
X126778572Y-81172857D01*
X126278572Y-81172857D01*
X127778572Y-81958571D02*
X127778572Y-80458571D01*
X128278572Y-80458571D02*
X129135715Y-80458571D01*
X128707144Y-81958571D02*
X128707144Y-80458571D01*
X130350001Y-81958571D02*
X129635715Y-81958571D01*
X129635715Y-80458571D01*
X130778572Y-81530000D02*
X131492858Y-81530000D01*
X130635715Y-81958571D02*
X131135715Y-80458571D01*
X131635715Y-81958571D01*
X132635715Y-81172857D02*
X132850001Y-81244286D01*
X132921429Y-81315714D01*
X132992858Y-81458571D01*
X132992858Y-81672857D01*
X132921429Y-81815714D01*
X132850001Y-81887143D01*
X132707143Y-81958571D01*
X132135715Y-81958571D01*
X132135715Y-80458571D01*
X132635715Y-80458571D01*
X132778572Y-80530000D01*
X132850001Y-80601429D01*
X132921429Y-80744286D01*
X132921429Y-80887143D01*
X132850001Y-81030000D01*
X132778572Y-81101429D01*
X132635715Y-81172857D01*
X132135715Y-81172857D01*
X135421429Y-80958571D02*
X135421429Y-81958571D01*
X135064286Y-80387143D02*
X134707143Y-81458571D01*
X135635715Y-81458571D01*
X136207143Y-81958571D02*
X136207143Y-80458571D01*
X136921429Y-81958571D02*
X136921429Y-80458571D01*
X137278572Y-80458571D01*
X137492857Y-80530000D01*
X137635715Y-80672857D01*
X137707143Y-80815714D01*
X137778572Y-81101429D01*
X137778572Y-81315714D01*
X137707143Y-81601429D01*
X137635715Y-81744286D01*
X137492857Y-81887143D01*
X137278572Y-81958571D01*
X136921429Y-81958571D01*
X138421429Y-81172857D02*
X138921429Y-81172857D01*
X139135715Y-81958571D02*
X138421429Y-81958571D01*
X138421429Y-80458571D01*
X139135715Y-80458571D01*
X139707143Y-81530000D02*
X140421429Y-81530000D01*
X139564286Y-81958571D02*
X140064286Y-80458571D01*
X140564286Y-81958571D01*
X141707143Y-81958571D02*
X141707143Y-80458571D01*
X141707143Y-81887143D02*
X141564286Y-81958571D01*
X141278572Y-81958571D01*
X141135714Y-81887143D01*
X141064286Y-81815714D01*
X140992857Y-81672857D01*
X140992857Y-81244286D01*
X141064286Y-81101429D01*
X141135714Y-81030000D01*
X141278572Y-80958571D01*
X141564286Y-80958571D01*
X141707143Y-81030000D01*
X143064286Y-81958571D02*
X143064286Y-81172857D01*
X142992857Y-81030000D01*
X142850000Y-80958571D01*
X142564286Y-80958571D01*
X142421429Y-81030000D01*
X143064286Y-81887143D02*
X142921429Y-81958571D01*
X142564286Y-81958571D01*
X142421429Y-81887143D01*
X142350000Y-81744286D01*
X142350000Y-81601429D01*
X142421429Y-81458571D01*
X142564286Y-81387143D01*
X142921429Y-81387143D01*
X143064286Y-81315714D01*
X143778572Y-80958571D02*
X143778572Y-82458571D01*
X143778572Y-81030000D02*
X143921429Y-80958571D01*
X144207143Y-80958571D01*
X144350000Y-81030000D01*
X144421429Y-81101429D01*
X144492858Y-81244286D01*
X144492858Y-81672857D01*
X144421429Y-81815714D01*
X144350000Y-81887143D01*
X144207143Y-81958571D01*
X143921429Y-81958571D01*
X143778572Y-81887143D01*
X144921429Y-80958571D02*
X145492858Y-80958571D01*
X145135715Y-80458571D02*
X145135715Y-81744286D01*
X145207143Y-81887143D01*
X145350001Y-81958571D01*
X145492858Y-81958571D01*
X146564286Y-81887143D02*
X146421429Y-81958571D01*
X146135715Y-81958571D01*
X145992858Y-81887143D01*
X145921429Y-81744286D01*
X145921429Y-81172857D01*
X145992858Y-81030000D01*
X146135715Y-80958571D01*
X146421429Y-80958571D01*
X146564286Y-81030000D01*
X146635715Y-81172857D01*
X146635715Y-81315714D01*
X145921429Y-81458571D01*
X147278572Y-81958571D02*
X147278572Y-80958571D01*
X147278572Y-81244286D02*
X147350000Y-81101429D01*
X147421429Y-81030000D01*
X147564286Y-80958571D01*
X147707143Y-80958571D01*
D13*
X132334000Y-75438000D02*
X132080000Y-74930000D01*
X131826000Y-75438000D02*
X132334000Y-75438000D01*
X132080000Y-74930000D02*
X131826000Y-75438000D01*
X120340000Y-65410000D02*
X192080000Y-65410000D01*
X120340000Y-65410000D02*
X120340000Y-74290000D01*
X192080000Y-74290000D02*
X192080000Y-65410000D01*
X192080000Y-74290000D02*
X120340000Y-74290000D01*
D11*
X169672000Y-127508000D02*
X169672000Y-132842000D01*
X169672000Y-132842000D02*
X141478000Y-132842000D01*
X141478000Y-132842000D02*
X141478000Y-127508000D01*
X141478000Y-127508000D02*
X169672000Y-127508000D01*
D10*
X165100000Y-102870000D02*
X165100000Y-102870000D01*
X165100000Y-102870000D02*
X165100000Y-102870000D01*
X165100000Y-102870000D02*
X165100000Y-102870000D01*
X165100000Y-102870000D02*
X165100000Y-102870000D01*
X164100000Y-103870000D02*
X164100000Y-103870000D01*
X164100000Y-101870000D02*
X164100000Y-101870000D01*
X167100000Y-103870000D02*
X167100000Y-103870000D01*
X163100000Y-103870000D02*
X163100000Y-103870000D01*
X163100000Y-101870000D02*
X163100000Y-101870000D01*
X167100000Y-101870000D02*
X167100000Y-101870000D01*
X163100000Y-103870000D02*
X167100000Y-103870000D01*
X163100000Y-101870000D02*
X167100000Y-101870000D01*
X165100000Y-78740000D02*
X165100000Y-78740000D01*
X165100000Y-78740000D02*
X165100000Y-78740000D01*
X165100000Y-78740000D02*
X165100000Y-78740000D01*
X165100000Y-78740000D02*
X165100000Y-78740000D01*
X164100000Y-79740000D02*
X164100000Y-79740000D01*
X164100000Y-77740000D02*
X164100000Y-77740000D01*
X167100000Y-79740000D02*
X167100000Y-79740000D01*
X163100000Y-79740000D02*
X163100000Y-79740000D01*
X163100000Y-77740000D02*
X163100000Y-77740000D01*
X167100000Y-77740000D02*
X167100000Y-77740000D01*
X163100000Y-79740000D02*
X167100000Y-79740000D01*
X163100000Y-77740000D02*
X167100000Y-77740000D01*
D11*
X181220000Y-101820000D02*
X177620000Y-101820000D01*
X181220000Y-103920000D02*
X177620000Y-103920000D01*
X179170000Y-103170000D02*
X179170000Y-102570000D01*
X179170000Y-102570000D02*
X179470000Y-102870000D01*
X179470000Y-102870000D02*
X179270000Y-103070000D01*
X179270000Y-103070000D02*
X179270000Y-102820000D01*
X179270000Y-102820000D02*
X179320000Y-102870000D01*
X179570000Y-103370000D02*
X179570000Y-102370000D01*
X179070000Y-102870000D02*
X178570000Y-102870000D01*
X179570000Y-102870000D02*
X179070000Y-103370000D01*
X179070000Y-103370000D02*
X179070000Y-102370000D01*
X179070000Y-102370000D02*
X179570000Y-102870000D01*
X182490000Y-77690000D02*
X178890000Y-77690000D01*
X182490000Y-79790000D02*
X178890000Y-79790000D01*
X180440000Y-79040000D02*
X180440000Y-78440000D01*
X180440000Y-78440000D02*
X180740000Y-78740000D01*
X180740000Y-78740000D02*
X180540000Y-78940000D01*
X180540000Y-78940000D02*
X180540000Y-78690000D01*
X180540000Y-78690000D02*
X180590000Y-78740000D01*
X180840000Y-79240000D02*
X180840000Y-78240000D01*
X180340000Y-78740000D02*
X179840000Y-78740000D01*
X180840000Y-78740000D02*
X180340000Y-79240000D01*
X180340000Y-79240000D02*
X180340000Y-78240000D01*
X180340000Y-78240000D02*
X180840000Y-78740000D01*
D10*
X171720000Y-101870000D02*
X173720000Y-101870000D01*
X173720000Y-103870000D02*
X171720000Y-103870000D01*
X172990000Y-77740000D02*
X174990000Y-77740000D01*
X174990000Y-79740000D02*
X172990000Y-79740000D01*
D13*
X132334000Y-99568000D02*
X132080000Y-99060000D01*
X131826000Y-99568000D02*
X132334000Y-99568000D01*
X132080000Y-99060000D02*
X131826000Y-99568000D01*
X120340000Y-89540000D02*
X192080000Y-89540000D01*
X120340000Y-89540000D02*
X120340000Y-98420000D01*
X192080000Y-98420000D02*
X192080000Y-89540000D01*
X192080000Y-98420000D02*
X120340000Y-98420000D01*
D14*
G36*
X145632554Y-106734541D02*
X146158756Y-106734613D01*
X146403697Y-106734623D01*
X150324301Y-106734623D01*
X150324301Y-106965734D01*
X150348968Y-107246976D01*
X150423416Y-107506359D01*
X150548314Y-107745424D01*
X150724330Y-107965714D01*
X150783882Y-108025210D01*
X150998105Y-108193971D01*
X151234310Y-108317052D01*
X151485483Y-108394510D01*
X151744607Y-108426399D01*
X152004667Y-108412776D01*
X152258647Y-108353697D01*
X152499531Y-108249217D01*
X152720304Y-108099393D01*
X152819457Y-108009001D01*
X153004227Y-107787376D01*
X153139716Y-107543661D01*
X153224744Y-107280643D01*
X153258128Y-107001106D01*
X153258572Y-106973606D01*
X153260322Y-106734632D01*
X153365355Y-106734628D01*
X153458530Y-106747273D01*
X153543644Y-106778040D01*
X153549269Y-106781219D01*
X153568492Y-106791194D01*
X153586145Y-106798962D01*
X153602292Y-106806787D01*
X153616995Y-106816930D01*
X153630319Y-106831655D01*
X153642328Y-106853225D01*
X153653085Y-106883901D01*
X153662654Y-106925947D01*
X153671099Y-106981626D01*
X153678484Y-107053199D01*
X153684873Y-107142930D01*
X153690329Y-107253082D01*
X153694916Y-107385916D01*
X153698698Y-107543696D01*
X153701740Y-107728684D01*
X153704103Y-107943144D01*
X153705853Y-108189337D01*
X153707053Y-108469527D01*
X153707768Y-108785975D01*
X153708060Y-109140946D01*
X153707993Y-109536700D01*
X153707632Y-109975502D01*
X153707040Y-110459614D01*
X153706281Y-110991298D01*
X153705419Y-111572817D01*
X153704518Y-112206433D01*
X153704413Y-112283629D01*
X153703605Y-112921287D01*
X153702919Y-113506582D01*
X153702283Y-114041778D01*
X153701624Y-114529136D01*
X153700869Y-114970917D01*
X153699947Y-115369382D01*
X153698784Y-115726795D01*
X153697307Y-116045415D01*
X153695445Y-116327506D01*
X153693124Y-116575328D01*
X153690271Y-116791143D01*
X153686815Y-116977213D01*
X153682682Y-117135800D01*
X153677800Y-117269164D01*
X153672096Y-117379569D01*
X153665498Y-117469275D01*
X153657932Y-117540544D01*
X153649327Y-117595638D01*
X153639610Y-117636818D01*
X153628707Y-117666346D01*
X153616547Y-117686484D01*
X153603057Y-117699493D01*
X153588163Y-117707636D01*
X153571794Y-117713173D01*
X153553877Y-117718366D01*
X153534339Y-117725477D01*
X153529566Y-117727642D01*
X153514566Y-117732506D01*
X153489459Y-117736976D01*
X153452054Y-117741066D01*
X153400158Y-117744793D01*
X153331580Y-117748173D01*
X153244127Y-117751221D01*
X153135606Y-117753954D01*
X153003826Y-117756387D01*
X152846594Y-117758537D01*
X152661719Y-117760419D01*
X152447007Y-117762049D01*
X152200266Y-117763443D01*
X151919306Y-117764617D01*
X151601932Y-117765587D01*
X151245953Y-117766369D01*
X150849178Y-117766979D01*
X150409412Y-117767432D01*
X149924465Y-117767745D01*
X149392144Y-117767934D01*
X148810257Y-117768013D01*
X148176611Y-117768000D01*
X147971356Y-117767980D01*
X147323653Y-117767876D01*
X146728356Y-117767706D01*
X146183245Y-117767453D01*
X145686103Y-117767098D01*
X145234710Y-117766626D01*
X144826849Y-117766018D01*
X144460300Y-117765258D01*
X144132846Y-117764327D01*
X143842268Y-117763209D01*
X143586348Y-117761886D01*
X143362867Y-117760341D01*
X143169606Y-117758557D01*
X143004348Y-117756516D01*
X142864873Y-117754201D01*
X142748963Y-117751594D01*
X142654400Y-117748678D01*
X142578966Y-117745436D01*
X142520442Y-117741851D01*
X142476609Y-117737905D01*
X142445248Y-117733581D01*
X142424143Y-117728862D01*
X142412637Y-117724540D01*
X142392188Y-117715916D01*
X142373413Y-117709557D01*
X142356240Y-117703203D01*
X142340598Y-117694597D01*
X142326416Y-117681480D01*
X142313623Y-117661594D01*
X142302148Y-117632679D01*
X142291920Y-117592479D01*
X142282867Y-117538733D01*
X142274920Y-117469185D01*
X142268006Y-117381574D01*
X142262055Y-117273644D01*
X142256995Y-117143135D01*
X142252755Y-116987789D01*
X142249265Y-116805348D01*
X142246453Y-116593553D01*
X142245717Y-116512258D01*
X142974639Y-116512258D01*
X145551013Y-116512258D01*
X145501439Y-116437150D01*
X145452122Y-116359968D01*
X145410360Y-116286469D01*
X145375559Y-116211512D01*
X145347123Y-116129953D01*
X145324460Y-116036648D01*
X145306975Y-115926453D01*
X145294074Y-115794225D01*
X145285163Y-115634820D01*
X145279648Y-115443095D01*
X145276936Y-115213907D01*
X145276431Y-114942112D01*
X145277541Y-114622566D01*
X145278170Y-114503932D01*
X145285268Y-113232123D01*
X146090967Y-114329010D01*
X146319221Y-114640183D01*
X146516975Y-114911143D01*
X146686365Y-115145478D01*
X146829527Y-115346780D01*
X146948595Y-115518637D01*
X147045705Y-115664640D01*
X147122993Y-115788378D01*
X147182593Y-115893441D01*
X147226641Y-115983420D01*
X147257272Y-116061903D01*
X147276622Y-116132480D01*
X147286825Y-116198742D01*
X147290017Y-116264277D01*
X147288333Y-116332677D01*
X147287903Y-116341274D01*
X147279032Y-116512372D01*
X148690764Y-116512315D01*
X150102495Y-116512258D01*
X149892484Y-116300500D01*
X149835496Y-116242582D01*
X149781434Y-116186225D01*
X149727924Y-116128322D01*
X149672596Y-116065764D01*
X149613075Y-115995443D01*
X149546989Y-115914251D01*
X149471966Y-115819081D01*
X149385633Y-115706823D01*
X149285617Y-115574370D01*
X149169546Y-115418614D01*
X149035048Y-115236446D01*
X148879749Y-115024760D01*
X148701278Y-114780446D01*
X148497260Y-114500397D01*
X148265325Y-114181504D01*
X148075218Y-113919920D01*
X147836628Y-113591292D01*
X147628492Y-113303957D01*
X147448925Y-113055187D01*
X147296043Y-112842254D01*
X147167959Y-112662430D01*
X147062788Y-112512986D01*
X146978645Y-112391196D01*
X146913643Y-112294331D01*
X146865897Y-112219662D01*
X146833523Y-112164463D01*
X146814634Y-112126004D01*
X146807345Y-112101559D01*
X146809536Y-112088706D01*
X146836087Y-112054504D01*
X146893492Y-111982108D01*
X146978287Y-111875820D01*
X147087008Y-111739945D01*
X147216192Y-111578784D01*
X147362374Y-111396643D01*
X147522091Y-111197822D01*
X147691879Y-110986627D01*
X147868274Y-110767359D01*
X148047813Y-110544323D01*
X148146565Y-110421720D01*
X150598452Y-110421720D01*
X150802258Y-110790430D01*
X150802258Y-116143548D01*
X150598452Y-116512258D01*
X151803889Y-116512258D01*
X152091659Y-116512174D01*
X152329353Y-116511797D01*
X152521518Y-116510935D01*
X152672702Y-116509400D01*
X152787452Y-116507000D01*
X152870315Y-116503546D01*
X152925838Y-116498849D01*
X152958570Y-116492717D01*
X152973057Y-116484961D01*
X152973847Y-116475391D01*
X152965487Y-116463817D01*
X152965401Y-116463721D01*
X152930964Y-116413907D01*
X152885363Y-116332910D01*
X152845092Y-116252055D01*
X152768709Y-116088925D01*
X152760919Y-113255322D01*
X152753129Y-110421720D01*
X150598452Y-110421720D01*
X148146565Y-110421720D01*
X148227031Y-110321821D01*
X148402464Y-110104157D01*
X148570650Y-109895633D01*
X148728123Y-109700554D01*
X148871421Y-109523221D01*
X148997079Y-109367939D01*
X149101634Y-109239010D01*
X149181621Y-109140738D01*
X149228602Y-109083441D01*
X149411037Y-108869180D01*
X149586548Y-108675830D01*
X149748984Y-108509720D01*
X149892195Y-108377180D01*
X149993829Y-108295921D01*
X150114002Y-108209462D01*
X147350160Y-108209462D01*
X147350936Y-108371646D01*
X147343212Y-108490883D01*
X147314172Y-108601426D01*
X147269218Y-108706216D01*
X147239996Y-108765416D01*
X147208577Y-108824074D01*
X147172091Y-108886086D01*
X147127669Y-108955345D01*
X147072439Y-109035746D01*
X147003531Y-109131181D01*
X146918077Y-109245547D01*
X146813204Y-109382735D01*
X146686045Y-109546642D01*
X146533727Y-109741160D01*
X146353382Y-109970185D01*
X146142138Y-110237609D01*
X146118279Y-110267783D01*
X145285268Y-111321195D01*
X145277204Y-110154522D01*
X145275580Y-109805069D01*
X145275926Y-109509230D01*
X145278258Y-109266030D01*
X145282593Y-109074493D01*
X145288949Y-108933644D01*
X145297341Y-108842508D01*
X145300162Y-108825220D01*
X145344416Y-108643117D01*
X145402398Y-108478950D01*
X145468563Y-108346954D01*
X145508313Y-108290972D01*
X145576898Y-108209462D01*
X144275547Y-108209462D01*
X143965115Y-108209728D01*
X143705523Y-108210591D01*
X143492986Y-108212154D01*
X143323724Y-108214517D01*
X143193952Y-108217780D01*
X143099889Y-108222045D01*
X143037752Y-108227413D01*
X143003759Y-108233983D01*
X142994126Y-108241858D01*
X142994792Y-108243602D01*
X143022380Y-108285243D01*
X143068436Y-108351248D01*
X143092265Y-108384631D01*
X143116901Y-108417944D01*
X143139045Y-108447734D01*
X143158836Y-108476933D01*
X143176414Y-108508474D01*
X143191919Y-108545286D01*
X143205489Y-108590303D01*
X143217264Y-108646455D01*
X143227384Y-108716675D01*
X143235987Y-108803894D01*
X143243214Y-108911043D01*
X143249204Y-109041055D01*
X143254096Y-109196861D01*
X143258029Y-109381393D01*
X143261143Y-109597581D01*
X143263578Y-109848359D01*
X143265473Y-110136658D01*
X143266967Y-110465409D01*
X143268199Y-110837543D01*
X143269310Y-111255994D01*
X143270438Y-111723691D01*
X143271492Y-112153354D01*
X143272488Y-112632353D01*
X143273006Y-113089362D01*
X143273059Y-113521464D01*
X143272662Y-113925738D01*
X143271828Y-114299265D01*
X143270571Y-114639127D01*
X143268906Y-114942404D01*
X143266844Y-115206177D01*
X143264401Y-115427527D01*
X143261590Y-115603535D01*
X143258424Y-115731283D01*
X143254918Y-115807849D01*
X143254255Y-115815941D01*
X143230095Y-116001568D01*
X143192376Y-116150647D01*
X143134936Y-116280750D01*
X143051611Y-116409452D01*
X143041189Y-116423494D01*
X142974639Y-116512258D01*
X142245717Y-116512258D01*
X142244248Y-116350145D01*
X142242579Y-116072867D01*
X142241375Y-115759459D01*
X142240565Y-115407664D01*
X142240078Y-115015223D01*
X142239844Y-114579877D01*
X142239789Y-114099368D01*
X142239844Y-113571438D01*
X142239938Y-112993828D01*
X142239998Y-112364279D01*
X142240000Y-112239301D01*
X142240035Y-111603122D01*
X142240153Y-111019325D01*
X142240372Y-110485668D01*
X142240708Y-109999909D01*
X142241178Y-109559805D01*
X142241802Y-109163116D01*
X142242594Y-108807599D01*
X142243574Y-108491012D01*
X142244758Y-108211113D01*
X142246164Y-107965661D01*
X142247810Y-107752413D01*
X142249712Y-107569128D01*
X142251887Y-107413564D01*
X142254355Y-107283478D01*
X142257131Y-107176629D01*
X142260233Y-107090775D01*
X142263679Y-107023674D01*
X142267485Y-106973084D01*
X142271670Y-106936764D01*
X142276251Y-106912470D01*
X142281245Y-106897962D01*
X142281430Y-106897600D01*
X142291715Y-106875437D01*
X142300282Y-106855372D01*
X142309759Y-106837301D01*
X142322774Y-106821121D01*
X142341957Y-106806726D01*
X142369935Y-106794014D01*
X142409337Y-106782880D01*
X142462792Y-106773221D01*
X142532929Y-106764932D01*
X142622376Y-106757910D01*
X142733762Y-106752050D01*
X142869716Y-106747250D01*
X143032865Y-106743404D01*
X143225839Y-106740409D01*
X143451267Y-106738161D01*
X143711776Y-106736556D01*
X144009996Y-106735491D01*
X144348555Y-106734860D01*
X144730082Y-106734561D01*
X145157206Y-106734490D01*
X145632554Y-106734541D01*
X145632554Y-106734541D01*
G37*
X145632554Y-106734541D02*
X146158756Y-106734613D01*
X146403697Y-106734623D01*
X150324301Y-106734623D01*
X150324301Y-106965734D01*
X150348968Y-107246976D01*
X150423416Y-107506359D01*
X150548314Y-107745424D01*
X150724330Y-107965714D01*
X150783882Y-108025210D01*
X150998105Y-108193971D01*
X151234310Y-108317052D01*
X151485483Y-108394510D01*
X151744607Y-108426399D01*
X152004667Y-108412776D01*
X152258647Y-108353697D01*
X152499531Y-108249217D01*
X152720304Y-108099393D01*
X152819457Y-108009001D01*
X153004227Y-107787376D01*
X153139716Y-107543661D01*
X153224744Y-107280643D01*
X153258128Y-107001106D01*
X153258572Y-106973606D01*
X153260322Y-106734632D01*
X153365355Y-106734628D01*
X153458530Y-106747273D01*
X153543644Y-106778040D01*
X153549269Y-106781219D01*
X153568492Y-106791194D01*
X153586145Y-106798962D01*
X153602292Y-106806787D01*
X153616995Y-106816930D01*
X153630319Y-106831655D01*
X153642328Y-106853225D01*
X153653085Y-106883901D01*
X153662654Y-106925947D01*
X153671099Y-106981626D01*
X153678484Y-107053199D01*
X153684873Y-107142930D01*
X153690329Y-107253082D01*
X153694916Y-107385916D01*
X153698698Y-107543696D01*
X153701740Y-107728684D01*
X153704103Y-107943144D01*
X153705853Y-108189337D01*
X153707053Y-108469527D01*
X153707768Y-108785975D01*
X153708060Y-109140946D01*
X153707993Y-109536700D01*
X153707632Y-109975502D01*
X153707040Y-110459614D01*
X153706281Y-110991298D01*
X153705419Y-111572817D01*
X153704518Y-112206433D01*
X153704413Y-112283629D01*
X153703605Y-112921287D01*
X153702919Y-113506582D01*
X153702283Y-114041778D01*
X153701624Y-114529136D01*
X153700869Y-114970917D01*
X153699947Y-115369382D01*
X153698784Y-115726795D01*
X153697307Y-116045415D01*
X153695445Y-116327506D01*
X153693124Y-116575328D01*
X153690271Y-116791143D01*
X153686815Y-116977213D01*
X153682682Y-117135800D01*
X153677800Y-117269164D01*
X153672096Y-117379569D01*
X153665498Y-117469275D01*
X153657932Y-117540544D01*
X153649327Y-117595638D01*
X153639610Y-117636818D01*
X153628707Y-117666346D01*
X153616547Y-117686484D01*
X153603057Y-117699493D01*
X153588163Y-117707636D01*
X153571794Y-117713173D01*
X153553877Y-117718366D01*
X153534339Y-117725477D01*
X153529566Y-117727642D01*
X153514566Y-117732506D01*
X153489459Y-117736976D01*
X153452054Y-117741066D01*
X153400158Y-117744793D01*
X153331580Y-117748173D01*
X153244127Y-117751221D01*
X153135606Y-117753954D01*
X153003826Y-117756387D01*
X152846594Y-117758537D01*
X152661719Y-117760419D01*
X152447007Y-117762049D01*
X152200266Y-117763443D01*
X151919306Y-117764617D01*
X151601932Y-117765587D01*
X151245953Y-117766369D01*
X150849178Y-117766979D01*
X150409412Y-117767432D01*
X149924465Y-117767745D01*
X149392144Y-117767934D01*
X148810257Y-117768013D01*
X148176611Y-117768000D01*
X147971356Y-117767980D01*
X147323653Y-117767876D01*
X146728356Y-117767706D01*
X146183245Y-117767453D01*
X145686103Y-117767098D01*
X145234710Y-117766626D01*
X144826849Y-117766018D01*
X144460300Y-117765258D01*
X144132846Y-117764327D01*
X143842268Y-117763209D01*
X143586348Y-117761886D01*
X143362867Y-117760341D01*
X143169606Y-117758557D01*
X143004348Y-117756516D01*
X142864873Y-117754201D01*
X142748963Y-117751594D01*
X142654400Y-117748678D01*
X142578966Y-117745436D01*
X142520442Y-117741851D01*
X142476609Y-117737905D01*
X142445248Y-117733581D01*
X142424143Y-117728862D01*
X142412637Y-117724540D01*
X142392188Y-117715916D01*
X142373413Y-117709557D01*
X142356240Y-117703203D01*
X142340598Y-117694597D01*
X142326416Y-117681480D01*
X142313623Y-117661594D01*
X142302148Y-117632679D01*
X142291920Y-117592479D01*
X142282867Y-117538733D01*
X142274920Y-117469185D01*
X142268006Y-117381574D01*
X142262055Y-117273644D01*
X142256995Y-117143135D01*
X142252755Y-116987789D01*
X142249265Y-116805348D01*
X142246453Y-116593553D01*
X142245717Y-116512258D01*
X142974639Y-116512258D01*
X145551013Y-116512258D01*
X145501439Y-116437150D01*
X145452122Y-116359968D01*
X145410360Y-116286469D01*
X145375559Y-116211512D01*
X145347123Y-116129953D01*
X145324460Y-116036648D01*
X145306975Y-115926453D01*
X145294074Y-115794225D01*
X145285163Y-115634820D01*
X145279648Y-115443095D01*
X145276936Y-115213907D01*
X145276431Y-114942112D01*
X145277541Y-114622566D01*
X145278170Y-114503932D01*
X145285268Y-113232123D01*
X146090967Y-114329010D01*
X146319221Y-114640183D01*
X146516975Y-114911143D01*
X146686365Y-115145478D01*
X146829527Y-115346780D01*
X146948595Y-115518637D01*
X147045705Y-115664640D01*
X147122993Y-115788378D01*
X147182593Y-115893441D01*
X147226641Y-115983420D01*
X147257272Y-116061903D01*
X147276622Y-116132480D01*
X147286825Y-116198742D01*
X147290017Y-116264277D01*
X147288333Y-116332677D01*
X147287903Y-116341274D01*
X147279032Y-116512372D01*
X148690764Y-116512315D01*
X150102495Y-116512258D01*
X149892484Y-116300500D01*
X149835496Y-116242582D01*
X149781434Y-116186225D01*
X149727924Y-116128322D01*
X149672596Y-116065764D01*
X149613075Y-115995443D01*
X149546989Y-115914251D01*
X149471966Y-115819081D01*
X149385633Y-115706823D01*
X149285617Y-115574370D01*
X149169546Y-115418614D01*
X149035048Y-115236446D01*
X148879749Y-115024760D01*
X148701278Y-114780446D01*
X148497260Y-114500397D01*
X148265325Y-114181504D01*
X148075218Y-113919920D01*
X147836628Y-113591292D01*
X147628492Y-113303957D01*
X147448925Y-113055187D01*
X147296043Y-112842254D01*
X147167959Y-112662430D01*
X147062788Y-112512986D01*
X146978645Y-112391196D01*
X146913643Y-112294331D01*
X146865897Y-112219662D01*
X146833523Y-112164463D01*
X146814634Y-112126004D01*
X146807345Y-112101559D01*
X146809536Y-112088706D01*
X146836087Y-112054504D01*
X146893492Y-111982108D01*
X146978287Y-111875820D01*
X147087008Y-111739945D01*
X147216192Y-111578784D01*
X147362374Y-111396643D01*
X147522091Y-111197822D01*
X147691879Y-110986627D01*
X147868274Y-110767359D01*
X148047813Y-110544323D01*
X148146565Y-110421720D01*
X150598452Y-110421720D01*
X150802258Y-110790430D01*
X150802258Y-116143548D01*
X150598452Y-116512258D01*
X151803889Y-116512258D01*
X152091659Y-116512174D01*
X152329353Y-116511797D01*
X152521518Y-116510935D01*
X152672702Y-116509400D01*
X152787452Y-116507000D01*
X152870315Y-116503546D01*
X152925838Y-116498849D01*
X152958570Y-116492717D01*
X152973057Y-116484961D01*
X152973847Y-116475391D01*
X152965487Y-116463817D01*
X152965401Y-116463721D01*
X152930964Y-116413907D01*
X152885363Y-116332910D01*
X152845092Y-116252055D01*
X152768709Y-116088925D01*
X152760919Y-113255322D01*
X152753129Y-110421720D01*
X150598452Y-110421720D01*
X148146565Y-110421720D01*
X148227031Y-110321821D01*
X148402464Y-110104157D01*
X148570650Y-109895633D01*
X148728123Y-109700554D01*
X148871421Y-109523221D01*
X148997079Y-109367939D01*
X149101634Y-109239010D01*
X149181621Y-109140738D01*
X149228602Y-109083441D01*
X149411037Y-108869180D01*
X149586548Y-108675830D01*
X149748984Y-108509720D01*
X149892195Y-108377180D01*
X149993829Y-108295921D01*
X150114002Y-108209462D01*
X147350160Y-108209462D01*
X147350936Y-108371646D01*
X147343212Y-108490883D01*
X147314172Y-108601426D01*
X147269218Y-108706216D01*
X147239996Y-108765416D01*
X147208577Y-108824074D01*
X147172091Y-108886086D01*
X147127669Y-108955345D01*
X147072439Y-109035746D01*
X147003531Y-109131181D01*
X146918077Y-109245547D01*
X146813204Y-109382735D01*
X146686045Y-109546642D01*
X146533727Y-109741160D01*
X146353382Y-109970185D01*
X146142138Y-110237609D01*
X146118279Y-110267783D01*
X145285268Y-111321195D01*
X145277204Y-110154522D01*
X145275580Y-109805069D01*
X145275926Y-109509230D01*
X145278258Y-109266030D01*
X145282593Y-109074493D01*
X145288949Y-108933644D01*
X145297341Y-108842508D01*
X145300162Y-108825220D01*
X145344416Y-108643117D01*
X145402398Y-108478950D01*
X145468563Y-108346954D01*
X145508313Y-108290972D01*
X145576898Y-108209462D01*
X144275547Y-108209462D01*
X143965115Y-108209728D01*
X143705523Y-108210591D01*
X143492986Y-108212154D01*
X143323724Y-108214517D01*
X143193952Y-108217780D01*
X143099889Y-108222045D01*
X143037752Y-108227413D01*
X143003759Y-108233983D01*
X142994126Y-108241858D01*
X142994792Y-108243602D01*
X143022380Y-108285243D01*
X143068436Y-108351248D01*
X143092265Y-108384631D01*
X143116901Y-108417944D01*
X143139045Y-108447734D01*
X143158836Y-108476933D01*
X143176414Y-108508474D01*
X143191919Y-108545286D01*
X143205489Y-108590303D01*
X143217264Y-108646455D01*
X143227384Y-108716675D01*
X143235987Y-108803894D01*
X143243214Y-108911043D01*
X143249204Y-109041055D01*
X143254096Y-109196861D01*
X143258029Y-109381393D01*
X143261143Y-109597581D01*
X143263578Y-109848359D01*
X143265473Y-110136658D01*
X143266967Y-110465409D01*
X143268199Y-110837543D01*
X143269310Y-111255994D01*
X143270438Y-111723691D01*
X143271492Y-112153354D01*
X143272488Y-112632353D01*
X143273006Y-113089362D01*
X143273059Y-113521464D01*
X143272662Y-113925738D01*
X143271828Y-114299265D01*
X143270571Y-114639127D01*
X143268906Y-114942404D01*
X143266844Y-115206177D01*
X143264401Y-115427527D01*
X143261590Y-115603535D01*
X143258424Y-115731283D01*
X143254918Y-115807849D01*
X143254255Y-115815941D01*
X143230095Y-116001568D01*
X143192376Y-116150647D01*
X143134936Y-116280750D01*
X143051611Y-116409452D01*
X143041189Y-116423494D01*
X142974639Y-116512258D01*
X142245717Y-116512258D01*
X142244248Y-116350145D01*
X142242579Y-116072867D01*
X142241375Y-115759459D01*
X142240565Y-115407664D01*
X142240078Y-115015223D01*
X142239844Y-114579877D01*
X142239789Y-114099368D01*
X142239844Y-113571438D01*
X142239938Y-112993828D01*
X142239998Y-112364279D01*
X142240000Y-112239301D01*
X142240035Y-111603122D01*
X142240153Y-111019325D01*
X142240372Y-110485668D01*
X142240708Y-109999909D01*
X142241178Y-109559805D01*
X142241802Y-109163116D01*
X142242594Y-108807599D01*
X142243574Y-108491012D01*
X142244758Y-108211113D01*
X142246164Y-107965661D01*
X142247810Y-107752413D01*
X142249712Y-107569128D01*
X142251887Y-107413564D01*
X142254355Y-107283478D01*
X142257131Y-107176629D01*
X142260233Y-107090775D01*
X142263679Y-107023674D01*
X142267485Y-106973084D01*
X142271670Y-106936764D01*
X142276251Y-106912470D01*
X142281245Y-106897962D01*
X142281430Y-106897600D01*
X142291715Y-106875437D01*
X142300282Y-106855372D01*
X142309759Y-106837301D01*
X142322774Y-106821121D01*
X142341957Y-106806726D01*
X142369935Y-106794014D01*
X142409337Y-106782880D01*
X142462792Y-106773221D01*
X142532929Y-106764932D01*
X142622376Y-106757910D01*
X142733762Y-106752050D01*
X142869716Y-106747250D01*
X143032865Y-106743404D01*
X143225839Y-106740409D01*
X143451267Y-106738161D01*
X143711776Y-106736556D01*
X144009996Y-106735491D01*
X144348555Y-106734860D01*
X144730082Y-106734561D01*
X145157206Y-106734490D01*
X145632554Y-106734541D01*
G36*
X158355193Y-108100777D02*
X158649706Y-108133019D01*
X158935039Y-108190729D01*
X159222800Y-108276917D01*
X159524596Y-108394593D01*
X159852034Y-108546767D01*
X159911001Y-108576243D01*
X160046324Y-108642910D01*
X160173951Y-108702939D01*
X160281287Y-108750599D01*
X160355736Y-108780155D01*
X160367173Y-108783876D01*
X160476774Y-108816714D01*
X159986155Y-109530453D01*
X159866206Y-109704895D01*
X159756539Y-109864270D01*
X159660883Y-110003168D01*
X159582969Y-110116178D01*
X159526525Y-110197890D01*
X159495281Y-110242891D01*
X159490205Y-110250018D01*
X159469588Y-110235117D01*
X159418839Y-110190320D01*
X159347034Y-110123765D01*
X159307406Y-110086147D01*
X159082882Y-109907568D01*
X158830726Y-109771868D01*
X158613440Y-109697537D01*
X158483007Y-109674193D01*
X158319693Y-109659967D01*
X158142707Y-109655124D01*
X157971256Y-109659926D01*
X157824548Y-109674638D01*
X157766007Y-109685905D01*
X157502147Y-109776685D01*
X157264378Y-109915296D01*
X157052876Y-110101485D01*
X156867816Y-110334999D01*
X156709375Y-110615584D01*
X156577729Y-110942987D01*
X156473054Y-111316955D01*
X156410845Y-111637097D01*
X156394614Y-111778426D01*
X156383556Y-111961004D01*
X156377563Y-112171709D01*
X156376527Y-112397422D01*
X156380343Y-112625022D01*
X156388903Y-112841389D01*
X156402101Y-113033402D01*
X156419830Y-113187943D01*
X156423667Y-113211786D01*
X156508251Y-113595860D01*
X156623495Y-113935783D01*
X156770103Y-114233078D01*
X156948774Y-114489268D01*
X157075600Y-114627775D01*
X157303525Y-114815828D01*
X157553488Y-114955220D01*
X157821270Y-115045195D01*
X158102656Y-115084994D01*
X158393429Y-115073857D01*
X158689373Y-115011026D01*
X158864340Y-114949547D01*
X159106466Y-114826436D01*
X159356020Y-114649837D01*
X159495809Y-114530412D01*
X159574301Y-114461291D01*
X159635970Y-114410579D01*
X159671072Y-114386144D01*
X159675430Y-114385398D01*
X159691097Y-114410367D01*
X159731692Y-114476348D01*
X159793757Y-114577685D01*
X159873833Y-114708721D01*
X159968462Y-114863800D01*
X160074186Y-115037265D01*
X160133033Y-115133896D01*
X160582526Y-115872201D01*
X160021317Y-116149549D01*
X159818404Y-116249172D01*
X159654027Y-116327729D01*
X159518139Y-116389122D01*
X159400691Y-116437253D01*
X159291636Y-116476023D01*
X159180926Y-116509333D01*
X159058513Y-116541086D01*
X158941182Y-116568969D01*
X158836895Y-116590546D01*
X158727832Y-116606851D01*
X158603073Y-116618791D01*
X158451703Y-116627270D01*
X158262801Y-116633192D01*
X158135483Y-116635749D01*
X157953823Y-116637494D01*
X157779633Y-116636614D01*
X157624443Y-116633360D01*
X157499777Y-116627984D01*
X157417166Y-116620735D01*
X157412270Y-116620012D01*
X156983291Y-116527205D01*
X156580449Y-116386449D01*
X156203888Y-116197839D01*
X155853748Y-115961466D01*
X155530172Y-115677424D01*
X155233300Y-115345805D01*
X155018299Y-115051075D01*
X154789411Y-114665298D01*
X154604389Y-114257895D01*
X154462338Y-113825600D01*
X154362364Y-113365146D01*
X154303572Y-112873267D01*
X154285049Y-112373799D01*
X154300283Y-111890634D01*
X154348156Y-111444842D01*
X154430189Y-111028905D01*
X154547903Y-110635304D01*
X154702819Y-110256518D01*
X154721317Y-110217275D01*
X154925106Y-109850440D01*
X155175402Y-109501360D01*
X155465115Y-109177260D01*
X155787154Y-108885366D01*
X156134426Y-108632904D01*
X156458013Y-108447714D01*
X156784904Y-108302670D01*
X157112489Y-108197603D01*
X157453448Y-108129653D01*
X157820465Y-108095960D01*
X158039892Y-108090992D01*
X158355193Y-108100777D01*
X158355193Y-108100777D01*
G37*
X158355193Y-108100777D02*
X158649706Y-108133019D01*
X158935039Y-108190729D01*
X159222800Y-108276917D01*
X159524596Y-108394593D01*
X159852034Y-108546767D01*
X159911001Y-108576243D01*
X160046324Y-108642910D01*
X160173951Y-108702939D01*
X160281287Y-108750599D01*
X160355736Y-108780155D01*
X160367173Y-108783876D01*
X160476774Y-108816714D01*
X159986155Y-109530453D01*
X159866206Y-109704895D01*
X159756539Y-109864270D01*
X159660883Y-110003168D01*
X159582969Y-110116178D01*
X159526525Y-110197890D01*
X159495281Y-110242891D01*
X159490205Y-110250018D01*
X159469588Y-110235117D01*
X159418839Y-110190320D01*
X159347034Y-110123765D01*
X159307406Y-110086147D01*
X159082882Y-109907568D01*
X158830726Y-109771868D01*
X158613440Y-109697537D01*
X158483007Y-109674193D01*
X158319693Y-109659967D01*
X158142707Y-109655124D01*
X157971256Y-109659926D01*
X157824548Y-109674638D01*
X157766007Y-109685905D01*
X157502147Y-109776685D01*
X157264378Y-109915296D01*
X157052876Y-110101485D01*
X156867816Y-110334999D01*
X156709375Y-110615584D01*
X156577729Y-110942987D01*
X156473054Y-111316955D01*
X156410845Y-111637097D01*
X156394614Y-111778426D01*
X156383556Y-111961004D01*
X156377563Y-112171709D01*
X156376527Y-112397422D01*
X156380343Y-112625022D01*
X156388903Y-112841389D01*
X156402101Y-113033402D01*
X156419830Y-113187943D01*
X156423667Y-113211786D01*
X156508251Y-113595860D01*
X156623495Y-113935783D01*
X156770103Y-114233078D01*
X156948774Y-114489268D01*
X157075600Y-114627775D01*
X157303525Y-114815828D01*
X157553488Y-114955220D01*
X157821270Y-115045195D01*
X158102656Y-115084994D01*
X158393429Y-115073857D01*
X158689373Y-115011026D01*
X158864340Y-114949547D01*
X159106466Y-114826436D01*
X159356020Y-114649837D01*
X159495809Y-114530412D01*
X159574301Y-114461291D01*
X159635970Y-114410579D01*
X159671072Y-114386144D01*
X159675430Y-114385398D01*
X159691097Y-114410367D01*
X159731692Y-114476348D01*
X159793757Y-114577685D01*
X159873833Y-114708721D01*
X159968462Y-114863800D01*
X160074186Y-115037265D01*
X160133033Y-115133896D01*
X160582526Y-115872201D01*
X160021317Y-116149549D01*
X159818404Y-116249172D01*
X159654027Y-116327729D01*
X159518139Y-116389122D01*
X159400691Y-116437253D01*
X159291636Y-116476023D01*
X159180926Y-116509333D01*
X159058513Y-116541086D01*
X158941182Y-116568969D01*
X158836895Y-116590546D01*
X158727832Y-116606851D01*
X158603073Y-116618791D01*
X158451703Y-116627270D01*
X158262801Y-116633192D01*
X158135483Y-116635749D01*
X157953823Y-116637494D01*
X157779633Y-116636614D01*
X157624443Y-116633360D01*
X157499777Y-116627984D01*
X157417166Y-116620735D01*
X157412270Y-116620012D01*
X156983291Y-116527205D01*
X156580449Y-116386449D01*
X156203888Y-116197839D01*
X155853748Y-115961466D01*
X155530172Y-115677424D01*
X155233300Y-115345805D01*
X155018299Y-115051075D01*
X154789411Y-114665298D01*
X154604389Y-114257895D01*
X154462338Y-113825600D01*
X154362364Y-113365146D01*
X154303572Y-112873267D01*
X154285049Y-112373799D01*
X154300283Y-111890634D01*
X154348156Y-111444842D01*
X154430189Y-111028905D01*
X154547903Y-110635304D01*
X154702819Y-110256518D01*
X154721317Y-110217275D01*
X154925106Y-109850440D01*
X155175402Y-109501360D01*
X155465115Y-109177260D01*
X155787154Y-108885366D01*
X156134426Y-108632904D01*
X156458013Y-108447714D01*
X156784904Y-108302670D01*
X157112489Y-108197603D01*
X157453448Y-108129653D01*
X157820465Y-108095960D01*
X158039892Y-108090992D01*
X158355193Y-108100777D01*
G36*
X163780951Y-110296368D02*
X163916272Y-110306611D01*
X164303442Y-110358122D01*
X164646321Y-110440283D01*
X164946580Y-110554222D01*
X165205888Y-110701072D01*
X165425916Y-110881962D01*
X165608334Y-111098022D01*
X165754811Y-111350384D01*
X165861771Y-111623441D01*
X165888921Y-111710541D01*
X165912564Y-111792107D01*
X165932977Y-111872529D01*
X165950439Y-111956199D01*
X165965230Y-112047508D01*
X165977627Y-112150847D01*
X165987911Y-112270609D01*
X165996358Y-112411183D01*
X166003248Y-112576962D01*
X166008861Y-112772336D01*
X166013473Y-113001698D01*
X166017365Y-113269437D01*
X166020815Y-113579947D01*
X166024102Y-113937618D01*
X166026451Y-114218064D01*
X166042258Y-116143548D01*
X166144677Y-116328843D01*
X166193175Y-116418111D01*
X166229266Y-116487448D01*
X166246483Y-116524354D01*
X166247096Y-116526854D01*
X166220780Y-116529715D01*
X166145811Y-116532351D01*
X166028161Y-116534689D01*
X165873800Y-116536653D01*
X165688700Y-116538170D01*
X165478832Y-116539165D01*
X165250167Y-116539565D01*
X165222903Y-116539570D01*
X164198709Y-116539570D01*
X164198709Y-116307419D01*
X164196963Y-116202507D01*
X164192302Y-116122271D01*
X164185596Y-116079251D01*
X164182632Y-116075269D01*
X164155523Y-116091950D01*
X164099731Y-116135731D01*
X164027215Y-116197216D01*
X164025589Y-116198638D01*
X163893257Y-116297160D01*
X163726133Y-116396089D01*
X163543100Y-116485706D01*
X163363043Y-116556293D01*
X163283763Y-116580414D01*
X163125991Y-116611051D01*
X162932397Y-116630602D01*
X162720704Y-116638787D01*
X162508632Y-116635327D01*
X162313904Y-116619945D01*
X162177634Y-116597811D01*
X161843454Y-116499676D01*
X161542603Y-116359819D01*
X161277039Y-116179974D01*
X161048721Y-115961876D01*
X160859606Y-115707261D01*
X160711653Y-115417864D01*
X160647825Y-115242258D01*
X160607823Y-115071576D01*
X160581313Y-114866678D01*
X160569047Y-114646464D01*
X160569450Y-114614420D01*
X162416612Y-114614420D01*
X162431930Y-114778053D01*
X162482935Y-114914042D01*
X162577204Y-115040208D01*
X162613411Y-115077203D01*
X162742120Y-115177221D01*
X162890885Y-115241294D01*
X163069113Y-115272309D01*
X163256798Y-115274593D01*
X163434814Y-115259514D01*
X163571112Y-115230021D01*
X163630306Y-115207869D01*
X163736995Y-115147496D01*
X163850037Y-115062589D01*
X163953175Y-114967295D01*
X164030151Y-114875760D01*
X164050591Y-114842181D01*
X164066481Y-114795157D01*
X164077778Y-114720333D01*
X164085009Y-114610560D01*
X164088700Y-114458692D01*
X164089462Y-114314155D01*
X164088946Y-114145644D01*
X164086860Y-114023799D01*
X164082402Y-113940666D01*
X164074765Y-113888292D01*
X164063146Y-113858726D01*
X164046740Y-113844013D01*
X164041666Y-113841670D01*
X163997570Y-113834453D01*
X163910600Y-113828550D01*
X163792500Y-113824493D01*
X163655014Y-113822815D01*
X163625161Y-113822813D01*
X163441386Y-113825746D01*
X163299407Y-113834469D01*
X163186591Y-113850177D01*
X163093402Y-113873118D01*
X162862246Y-113960535D01*
X162680973Y-114068010D01*
X162548014Y-114197262D01*
X162461801Y-114350010D01*
X162420762Y-114527972D01*
X162416612Y-114614420D01*
X160569450Y-114614420D01*
X160571776Y-114429834D01*
X160590252Y-114235689D01*
X160604664Y-114157252D01*
X160696690Y-113866017D01*
X160836623Y-113598054D01*
X161021823Y-113355932D01*
X161249648Y-113142221D01*
X161517457Y-112959492D01*
X161822607Y-112810314D01*
X162082043Y-112719727D01*
X162255434Y-112672136D01*
X162421282Y-112635155D01*
X162590329Y-112607585D01*
X162773317Y-112588224D01*
X162980989Y-112575871D01*
X163224087Y-112569326D01*
X163443872Y-112567483D01*
X164095594Y-112565699D01*
X164083109Y-112369798D01*
X164047657Y-112157243D01*
X163972241Y-111974543D01*
X163860073Y-111826262D01*
X163714364Y-111716960D01*
X163586064Y-111663624D01*
X163402235Y-111630010D01*
X163183394Y-111625183D01*
X162939800Y-111647363D01*
X162681710Y-111694772D01*
X162419385Y-111765629D01*
X162163082Y-111858155D01*
X161976824Y-111942778D01*
X161887211Y-111986231D01*
X161818858Y-112016580D01*
X161784097Y-112028423D01*
X161782211Y-112028043D01*
X161770215Y-112001518D01*
X161740262Y-111931210D01*
X161695170Y-111823855D01*
X161637757Y-111686190D01*
X161570842Y-111524949D01*
X161502824Y-111360395D01*
X161230897Y-110701328D01*
X161424319Y-110669559D01*
X161508154Y-110653619D01*
X161634183Y-110626847D01*
X161791608Y-110591673D01*
X161969633Y-110550528D01*
X162157463Y-110505842D01*
X162232258Y-110487683D01*
X162555838Y-110412631D01*
X162839132Y-110356362D01*
X163092715Y-110317738D01*
X163327162Y-110295623D01*
X163553049Y-110288878D01*
X163780951Y-110296368D01*
X163780951Y-110296368D01*
G37*
X163780951Y-110296368D02*
X163916272Y-110306611D01*
X164303442Y-110358122D01*
X164646321Y-110440283D01*
X164946580Y-110554222D01*
X165205888Y-110701072D01*
X165425916Y-110881962D01*
X165608334Y-111098022D01*
X165754811Y-111350384D01*
X165861771Y-111623441D01*
X165888921Y-111710541D01*
X165912564Y-111792107D01*
X165932977Y-111872529D01*
X165950439Y-111956199D01*
X165965230Y-112047508D01*
X165977627Y-112150847D01*
X165987911Y-112270609D01*
X165996358Y-112411183D01*
X166003248Y-112576962D01*
X166008861Y-112772336D01*
X166013473Y-113001698D01*
X166017365Y-113269437D01*
X166020815Y-113579947D01*
X166024102Y-113937618D01*
X166026451Y-114218064D01*
X166042258Y-116143548D01*
X166144677Y-116328843D01*
X166193175Y-116418111D01*
X166229266Y-116487448D01*
X166246483Y-116524354D01*
X166247096Y-116526854D01*
X166220780Y-116529715D01*
X166145811Y-116532351D01*
X166028161Y-116534689D01*
X165873800Y-116536653D01*
X165688700Y-116538170D01*
X165478832Y-116539165D01*
X165250167Y-116539565D01*
X165222903Y-116539570D01*
X164198709Y-116539570D01*
X164198709Y-116307419D01*
X164196963Y-116202507D01*
X164192302Y-116122271D01*
X164185596Y-116079251D01*
X164182632Y-116075269D01*
X164155523Y-116091950D01*
X164099731Y-116135731D01*
X164027215Y-116197216D01*
X164025589Y-116198638D01*
X163893257Y-116297160D01*
X163726133Y-116396089D01*
X163543100Y-116485706D01*
X163363043Y-116556293D01*
X163283763Y-116580414D01*
X163125991Y-116611051D01*
X162932397Y-116630602D01*
X162720704Y-116638787D01*
X162508632Y-116635327D01*
X162313904Y-116619945D01*
X162177634Y-116597811D01*
X161843454Y-116499676D01*
X161542603Y-116359819D01*
X161277039Y-116179974D01*
X161048721Y-115961876D01*
X160859606Y-115707261D01*
X160711653Y-115417864D01*
X160647825Y-115242258D01*
X160607823Y-115071576D01*
X160581313Y-114866678D01*
X160569047Y-114646464D01*
X160569450Y-114614420D01*
X162416612Y-114614420D01*
X162431930Y-114778053D01*
X162482935Y-114914042D01*
X162577204Y-115040208D01*
X162613411Y-115077203D01*
X162742120Y-115177221D01*
X162890885Y-115241294D01*
X163069113Y-115272309D01*
X163256798Y-115274593D01*
X163434814Y-115259514D01*
X163571112Y-115230021D01*
X163630306Y-115207869D01*
X163736995Y-115147496D01*
X163850037Y-115062589D01*
X163953175Y-114967295D01*
X164030151Y-114875760D01*
X164050591Y-114842181D01*
X164066481Y-114795157D01*
X164077778Y-114720333D01*
X164085009Y-114610560D01*
X164088700Y-114458692D01*
X164089462Y-114314155D01*
X164088946Y-114145644D01*
X164086860Y-114023799D01*
X164082402Y-113940666D01*
X164074765Y-113888292D01*
X164063146Y-113858726D01*
X164046740Y-113844013D01*
X164041666Y-113841670D01*
X163997570Y-113834453D01*
X163910600Y-113828550D01*
X163792500Y-113824493D01*
X163655014Y-113822815D01*
X163625161Y-113822813D01*
X163441386Y-113825746D01*
X163299407Y-113834469D01*
X163186591Y-113850177D01*
X163093402Y-113873118D01*
X162862246Y-113960535D01*
X162680973Y-114068010D01*
X162548014Y-114197262D01*
X162461801Y-114350010D01*
X162420762Y-114527972D01*
X162416612Y-114614420D01*
X160569450Y-114614420D01*
X160571776Y-114429834D01*
X160590252Y-114235689D01*
X160604664Y-114157252D01*
X160696690Y-113866017D01*
X160836623Y-113598054D01*
X161021823Y-113355932D01*
X161249648Y-113142221D01*
X161517457Y-112959492D01*
X161822607Y-112810314D01*
X162082043Y-112719727D01*
X162255434Y-112672136D01*
X162421282Y-112635155D01*
X162590329Y-112607585D01*
X162773317Y-112588224D01*
X162980989Y-112575871D01*
X163224087Y-112569326D01*
X163443872Y-112567483D01*
X164095594Y-112565699D01*
X164083109Y-112369798D01*
X164047657Y-112157243D01*
X163972241Y-111974543D01*
X163860073Y-111826262D01*
X163714364Y-111716960D01*
X163586064Y-111663624D01*
X163402235Y-111630010D01*
X163183394Y-111625183D01*
X162939800Y-111647363D01*
X162681710Y-111694772D01*
X162419385Y-111765629D01*
X162163082Y-111858155D01*
X161976824Y-111942778D01*
X161887211Y-111986231D01*
X161818858Y-112016580D01*
X161784097Y-112028423D01*
X161782211Y-112028043D01*
X161770215Y-112001518D01*
X161740262Y-111931210D01*
X161695170Y-111823855D01*
X161637757Y-111686190D01*
X161570842Y-111524949D01*
X161502824Y-111360395D01*
X161230897Y-110701328D01*
X161424319Y-110669559D01*
X161508154Y-110653619D01*
X161634183Y-110626847D01*
X161791608Y-110591673D01*
X161969633Y-110550528D01*
X162157463Y-110505842D01*
X162232258Y-110487683D01*
X162555838Y-110412631D01*
X162839132Y-110356362D01*
X163092715Y-110317738D01*
X163327162Y-110295623D01*
X163553049Y-110288878D01*
X163780951Y-110296368D01*
G36*
X171090967Y-107695618D02*
X171323254Y-107696571D01*
X171402204Y-107697052D01*
X172487849Y-107704193D01*
X172501505Y-111869247D01*
X172503308Y-112434041D01*
X172504908Y-112946864D01*
X172506406Y-113410371D01*
X172507906Y-113827214D01*
X172509509Y-114200045D01*
X172511320Y-114531519D01*
X172513440Y-114824286D01*
X172515972Y-115081002D01*
X172519020Y-115304318D01*
X172522685Y-115496887D01*
X172527071Y-115661363D01*
X172532280Y-115800398D01*
X172538416Y-115916644D01*
X172545580Y-116012756D01*
X172553875Y-116091386D01*
X172563405Y-116155187D01*
X172574272Y-116206811D01*
X172586579Y-116248912D01*
X172600428Y-116284143D01*
X172615923Y-116315156D01*
X172633165Y-116344604D01*
X172652258Y-116375141D01*
X172673305Y-116409418D01*
X172677619Y-116416720D01*
X172749996Y-116540221D01*
X171703976Y-116533068D01*
X170657956Y-116525914D01*
X170644301Y-116296142D01*
X170636865Y-116185873D01*
X170629117Y-116122122D01*
X170618603Y-116096827D01*
X170602872Y-116101922D01*
X170589677Y-116116498D01*
X170532197Y-116169591D01*
X170438513Y-116237837D01*
X170321825Y-116313080D01*
X170195331Y-116387167D01*
X170072231Y-116451943D01*
X169977713Y-116494561D01*
X169756274Y-116564595D01*
X169502207Y-116614204D01*
X169234266Y-116641494D01*
X168971211Y-116644569D01*
X168731795Y-116621532D01*
X168727853Y-116620873D01*
X168400253Y-116538669D01*
X168093587Y-116407700D01*
X167810814Y-116230780D01*
X167554892Y-116010726D01*
X167328778Y-115750351D01*
X167135430Y-115452472D01*
X166977806Y-115119904D01*
X166891984Y-114873548D01*
X166835389Y-114667445D01*
X166793418Y-114467867D01*
X166764789Y-114262690D01*
X166748218Y-114039791D01*
X166742423Y-113787045D01*
X166744989Y-113580662D01*
X168760325Y-113580662D01*
X168769862Y-113926732D01*
X168799946Y-114224467D01*
X168851503Y-114476510D01*
X168925458Y-114685502D01*
X169022738Y-114854086D01*
X169144266Y-114984906D01*
X169284546Y-115077385D01*
X169357540Y-115111909D01*
X169420847Y-115132607D01*
X169491427Y-115142077D01*
X169586242Y-115142915D01*
X169688387Y-115139228D01*
X169889261Y-115121510D01*
X170048134Y-115086813D01*
X170098064Y-115069433D01*
X170212075Y-115018102D01*
X170332323Y-114953643D01*
X170384838Y-114921376D01*
X170521397Y-114831805D01*
X170521397Y-111992706D01*
X170371182Y-111902665D01*
X170161692Y-111800923D01*
X169947658Y-111740751D01*
X169736909Y-111721796D01*
X169537273Y-111743701D01*
X169356577Y-111806113D01*
X169202649Y-111908676D01*
X169152981Y-111957906D01*
X169033262Y-112119211D01*
X168936364Y-112314471D01*
X168861477Y-112547031D01*
X168807793Y-112820239D01*
X168774500Y-113137441D01*
X168760789Y-113501984D01*
X168760325Y-113580662D01*
X166744989Y-113580662D01*
X166746058Y-113494756D01*
X166769082Y-113045158D01*
X166815378Y-112639628D01*
X166886164Y-112272257D01*
X166982661Y-111937137D01*
X167106087Y-111628363D01*
X167150131Y-111536822D01*
X167327540Y-111238296D01*
X167541930Y-110973007D01*
X167788259Y-110745237D01*
X168061487Y-110559268D01*
X168356574Y-110419382D01*
X168533459Y-110361678D01*
X168707178Y-110327422D01*
X168916205Y-110307041D01*
X169143014Y-110300525D01*
X169370084Y-110307866D01*
X169579892Y-110329055D01*
X169748352Y-110362295D01*
X169948857Y-110427482D01*
X170143195Y-110511307D01*
X170313224Y-110605280D01*
X170403721Y-110669058D01*
X170466144Y-110716484D01*
X170509853Y-110745361D01*
X170519796Y-110749462D01*
X170522879Y-110723041D01*
X170525753Y-110647339D01*
X170528355Y-110527698D01*
X170530621Y-110369462D01*
X170532488Y-110177973D01*
X170533891Y-109958574D01*
X170534767Y-109716607D01*
X170535053Y-109470147D01*
X170534894Y-109154476D01*
X170534108Y-108888337D01*
X170532238Y-108666641D01*
X170528825Y-108484296D01*
X170523409Y-108336212D01*
X170515531Y-108217299D01*
X170504733Y-108122465D01*
X170490555Y-108046620D01*
X170472539Y-107984674D01*
X170450225Y-107931536D01*
X170423154Y-107882115D01*
X170390867Y-107831321D01*
X170386713Y-107825031D01*
X170345071Y-107759245D01*
X170319929Y-107714008D01*
X170316559Y-107704466D01*
X170342903Y-107701455D01*
X170418069Y-107699006D01*
X170536257Y-107697158D01*
X170691669Y-107695951D01*
X170878506Y-107695424D01*
X171090967Y-107695618D01*
X171090967Y-107695618D01*
G37*
X171090967Y-107695618D02*
X171323254Y-107696571D01*
X171402204Y-107697052D01*
X172487849Y-107704193D01*
X172501505Y-111869247D01*
X172503308Y-112434041D01*
X172504908Y-112946864D01*
X172506406Y-113410371D01*
X172507906Y-113827214D01*
X172509509Y-114200045D01*
X172511320Y-114531519D01*
X172513440Y-114824286D01*
X172515972Y-115081002D01*
X172519020Y-115304318D01*
X172522685Y-115496887D01*
X172527071Y-115661363D01*
X172532280Y-115800398D01*
X172538416Y-115916644D01*
X172545580Y-116012756D01*
X172553875Y-116091386D01*
X172563405Y-116155187D01*
X172574272Y-116206811D01*
X172586579Y-116248912D01*
X172600428Y-116284143D01*
X172615923Y-116315156D01*
X172633165Y-116344604D01*
X172652258Y-116375141D01*
X172673305Y-116409418D01*
X172677619Y-116416720D01*
X172749996Y-116540221D01*
X171703976Y-116533068D01*
X170657956Y-116525914D01*
X170644301Y-116296142D01*
X170636865Y-116185873D01*
X170629117Y-116122122D01*
X170618603Y-116096827D01*
X170602872Y-116101922D01*
X170589677Y-116116498D01*
X170532197Y-116169591D01*
X170438513Y-116237837D01*
X170321825Y-116313080D01*
X170195331Y-116387167D01*
X170072231Y-116451943D01*
X169977713Y-116494561D01*
X169756274Y-116564595D01*
X169502207Y-116614204D01*
X169234266Y-116641494D01*
X168971211Y-116644569D01*
X168731795Y-116621532D01*
X168727853Y-116620873D01*
X168400253Y-116538669D01*
X168093587Y-116407700D01*
X167810814Y-116230780D01*
X167554892Y-116010726D01*
X167328778Y-115750351D01*
X167135430Y-115452472D01*
X166977806Y-115119904D01*
X166891984Y-114873548D01*
X166835389Y-114667445D01*
X166793418Y-114467867D01*
X166764789Y-114262690D01*
X166748218Y-114039791D01*
X166742423Y-113787045D01*
X166744989Y-113580662D01*
X168760325Y-113580662D01*
X168769862Y-113926732D01*
X168799946Y-114224467D01*
X168851503Y-114476510D01*
X168925458Y-114685502D01*
X169022738Y-114854086D01*
X169144266Y-114984906D01*
X169284546Y-115077385D01*
X169357540Y-115111909D01*
X169420847Y-115132607D01*
X169491427Y-115142077D01*
X169586242Y-115142915D01*
X169688387Y-115139228D01*
X169889261Y-115121510D01*
X170048134Y-115086813D01*
X170098064Y-115069433D01*
X170212075Y-115018102D01*
X170332323Y-114953643D01*
X170384838Y-114921376D01*
X170521397Y-114831805D01*
X170521397Y-111992706D01*
X170371182Y-111902665D01*
X170161692Y-111800923D01*
X169947658Y-111740751D01*
X169736909Y-111721796D01*
X169537273Y-111743701D01*
X169356577Y-111806113D01*
X169202649Y-111908676D01*
X169152981Y-111957906D01*
X169033262Y-112119211D01*
X168936364Y-112314471D01*
X168861477Y-112547031D01*
X168807793Y-112820239D01*
X168774500Y-113137441D01*
X168760789Y-113501984D01*
X168760325Y-113580662D01*
X166744989Y-113580662D01*
X166746058Y-113494756D01*
X166769082Y-113045158D01*
X166815378Y-112639628D01*
X166886164Y-112272257D01*
X166982661Y-111937137D01*
X167106087Y-111628363D01*
X167150131Y-111536822D01*
X167327540Y-111238296D01*
X167541930Y-110973007D01*
X167788259Y-110745237D01*
X168061487Y-110559268D01*
X168356574Y-110419382D01*
X168533459Y-110361678D01*
X168707178Y-110327422D01*
X168916205Y-110307041D01*
X169143014Y-110300525D01*
X169370084Y-110307866D01*
X169579892Y-110329055D01*
X169748352Y-110362295D01*
X169948857Y-110427482D01*
X170143195Y-110511307D01*
X170313224Y-110605280D01*
X170403721Y-110669058D01*
X170466144Y-110716484D01*
X170509853Y-110745361D01*
X170519796Y-110749462D01*
X170522879Y-110723041D01*
X170525753Y-110647339D01*
X170528355Y-110527698D01*
X170530621Y-110369462D01*
X170532488Y-110177973D01*
X170533891Y-109958574D01*
X170534767Y-109716607D01*
X170535053Y-109470147D01*
X170534894Y-109154476D01*
X170534108Y-108888337D01*
X170532238Y-108666641D01*
X170528825Y-108484296D01*
X170523409Y-108336212D01*
X170515531Y-108217299D01*
X170504733Y-108122465D01*
X170490555Y-108046620D01*
X170472539Y-107984674D01*
X170450225Y-107931536D01*
X170423154Y-107882115D01*
X170390867Y-107831321D01*
X170386713Y-107825031D01*
X170345071Y-107759245D01*
X170319929Y-107714008D01*
X170316559Y-107704466D01*
X170342903Y-107701455D01*
X170418069Y-107699006D01*
X170536257Y-107697158D01*
X170691669Y-107695951D01*
X170878506Y-107695424D01*
X171090967Y-107695618D01*
G36*
X152057156Y-105864844D02*
X152262258Y-105935957D01*
X152453215Y-106047889D01*
X152623757Y-106200625D01*
X152767613Y-106394151D01*
X152832232Y-106516129D01*
X152888158Y-106686743D01*
X152915265Y-106883711D01*
X152912262Y-107086205D01*
X152878933Y-107269699D01*
X152787838Y-107493924D01*
X152655742Y-107688422D01*
X152489358Y-107849367D01*
X152295402Y-107972933D01*
X152080586Y-108055292D01*
X151851625Y-108092617D01*
X151615233Y-108081082D01*
X151498709Y-108056430D01*
X151271615Y-107968091D01*
X151069919Y-107833290D01*
X150898485Y-107656183D01*
X150762180Y-107440927D01*
X150750648Y-107417419D01*
X150710783Y-107329205D01*
X150685751Y-107254910D01*
X150672161Y-107176535D01*
X150666618Y-107076080D01*
X150665698Y-106966774D01*
X150667220Y-106835448D01*
X150674086Y-106740509D01*
X150689750Y-106663753D01*
X150717667Y-106586974D01*
X150752127Y-106511223D01*
X150880662Y-106296190D01*
X151038948Y-106122080D01*
X151220713Y-105988876D01*
X151419687Y-105896566D01*
X151629600Y-105845134D01*
X151844179Y-105834565D01*
X152057156Y-105864844D01*
X152057156Y-105864844D01*
G37*
X152057156Y-105864844D02*
X152262258Y-105935957D01*
X152453215Y-106047889D01*
X152623757Y-106200625D01*
X152767613Y-106394151D01*
X152832232Y-106516129D01*
X152888158Y-106686743D01*
X152915265Y-106883711D01*
X152912262Y-107086205D01*
X152878933Y-107269699D01*
X152787838Y-107493924D01*
X152655742Y-107688422D01*
X152489358Y-107849367D01*
X152295402Y-107972933D01*
X152080586Y-108055292D01*
X151851625Y-108092617D01*
X151615233Y-108081082D01*
X151498709Y-108056430D01*
X151271615Y-107968091D01*
X151069919Y-107833290D01*
X150898485Y-107656183D01*
X150762180Y-107440927D01*
X150750648Y-107417419D01*
X150710783Y-107329205D01*
X150685751Y-107254910D01*
X150672161Y-107176535D01*
X150666618Y-107076080D01*
X150665698Y-106966774D01*
X150667220Y-106835448D01*
X150674086Y-106740509D01*
X150689750Y-106663753D01*
X150717667Y-106586974D01*
X150752127Y-106511223D01*
X150880662Y-106296190D01*
X151038948Y-106122080D01*
X151220713Y-105988876D01*
X151419687Y-105896566D01*
X151629600Y-105845134D01*
X151844179Y-105834565D01*
X152057156Y-105864844D01*
G36*
X145387623Y-118677114D02*
X145466940Y-118677920D01*
X145699351Y-118683528D01*
X145893994Y-118700185D01*
X146057504Y-118729680D01*
X146196514Y-118773797D01*
X146317659Y-118834325D01*
X146427571Y-118913050D01*
X146466829Y-118947248D01*
X146531951Y-119027265D01*
X146590672Y-119135846D01*
X146635931Y-119256203D01*
X146660665Y-119371547D01*
X146663235Y-119414169D01*
X146647130Y-119532322D01*
X146603973Y-119661382D01*
X146541496Y-119783542D01*
X146467433Y-119880992D01*
X146455403Y-119892750D01*
X146353501Y-119975394D01*
X146241912Y-120039909D01*
X146114202Y-120087983D01*
X145963938Y-120121307D01*
X145784686Y-120141572D01*
X145570013Y-120150469D01*
X145471683Y-120151223D01*
X145346660Y-120150621D01*
X145258738Y-120148104D01*
X145199667Y-120142604D01*
X145161200Y-120133055D01*
X145135088Y-120118389D01*
X145121092Y-120105866D01*
X145107871Y-120090652D01*
X145097500Y-120071025D01*
X145089635Y-120041728D01*
X145083929Y-119997503D01*
X145080039Y-119933092D01*
X145077620Y-119843237D01*
X145076326Y-119722682D01*
X145075814Y-119566167D01*
X145075735Y-119414169D01*
X145075235Y-119211440D01*
X145075343Y-119049491D01*
X145077272Y-118971937D01*
X145370556Y-118971937D01*
X145370556Y-119856402D01*
X145557654Y-119856230D01*
X145670236Y-119853001D01*
X145788148Y-119844683D01*
X145886527Y-119833048D01*
X145889520Y-119832569D01*
X146048520Y-119794127D01*
X146171846Y-119734256D01*
X146265657Y-119649058D01*
X146325263Y-119556814D01*
X146361990Y-119454489D01*
X146359142Y-119358409D01*
X146316518Y-119255419D01*
X146233146Y-119148876D01*
X146117614Y-119069927D01*
X145967443Y-119017156D01*
X145867081Y-118998481D01*
X145753157Y-118985366D01*
X145632415Y-118975873D01*
X145529719Y-118971927D01*
X145523636Y-118971908D01*
X145370556Y-118971937D01*
X145077272Y-118971937D01*
X145078471Y-118923782D01*
X145087034Y-118829771D01*
X145103442Y-118762920D01*
X145130110Y-118718686D01*
X145169449Y-118692529D01*
X145223872Y-118679909D01*
X145295793Y-118676284D01*
X145387623Y-118677114D01*
X145387623Y-118677114D01*
G37*
X145387623Y-118677114D02*
X145466940Y-118677920D01*
X145699351Y-118683528D01*
X145893994Y-118700185D01*
X146057504Y-118729680D01*
X146196514Y-118773797D01*
X146317659Y-118834325D01*
X146427571Y-118913050D01*
X146466829Y-118947248D01*
X146531951Y-119027265D01*
X146590672Y-119135846D01*
X146635931Y-119256203D01*
X146660665Y-119371547D01*
X146663235Y-119414169D01*
X146647130Y-119532322D01*
X146603973Y-119661382D01*
X146541496Y-119783542D01*
X146467433Y-119880992D01*
X146455403Y-119892750D01*
X146353501Y-119975394D01*
X146241912Y-120039909D01*
X146114202Y-120087983D01*
X145963938Y-120121307D01*
X145784686Y-120141572D01*
X145570013Y-120150469D01*
X145471683Y-120151223D01*
X145346660Y-120150621D01*
X145258738Y-120148104D01*
X145199667Y-120142604D01*
X145161200Y-120133055D01*
X145135088Y-120118389D01*
X145121092Y-120105866D01*
X145107871Y-120090652D01*
X145097500Y-120071025D01*
X145089635Y-120041728D01*
X145083929Y-119997503D01*
X145080039Y-119933092D01*
X145077620Y-119843237D01*
X145076326Y-119722682D01*
X145075814Y-119566167D01*
X145075735Y-119414169D01*
X145075235Y-119211440D01*
X145075343Y-119049491D01*
X145077272Y-118971937D01*
X145370556Y-118971937D01*
X145370556Y-119856402D01*
X145557654Y-119856230D01*
X145670236Y-119853001D01*
X145788148Y-119844683D01*
X145886527Y-119833048D01*
X145889520Y-119832569D01*
X146048520Y-119794127D01*
X146171846Y-119734256D01*
X146265657Y-119649058D01*
X146325263Y-119556814D01*
X146361990Y-119454489D01*
X146359142Y-119358409D01*
X146316518Y-119255419D01*
X146233146Y-119148876D01*
X146117614Y-119069927D01*
X145967443Y-119017156D01*
X145867081Y-118998481D01*
X145753157Y-118985366D01*
X145632415Y-118975873D01*
X145529719Y-118971927D01*
X145523636Y-118971908D01*
X145370556Y-118971937D01*
X145077272Y-118971937D01*
X145078471Y-118923782D01*
X145087034Y-118829771D01*
X145103442Y-118762920D01*
X145130110Y-118718686D01*
X145169449Y-118692529D01*
X145223872Y-118679909D01*
X145295793Y-118676284D01*
X145387623Y-118677114D01*
G36*
X148217354Y-118677275D02*
X148356790Y-118678023D01*
X148462037Y-118679763D01*
X148538676Y-118682900D01*
X148592290Y-118687836D01*
X148628463Y-118694976D01*
X148652779Y-118704724D01*
X148670819Y-118717484D01*
X148677351Y-118723356D01*
X148717078Y-118785750D01*
X148724231Y-118857441D01*
X148698097Y-118921087D01*
X148686013Y-118933950D01*
X148666468Y-118946421D01*
X148634997Y-118956043D01*
X148585764Y-118963282D01*
X148512934Y-118968606D01*
X148410671Y-118972485D01*
X148273138Y-118975387D01*
X148147397Y-118977152D01*
X147649752Y-118983277D01*
X147642951Y-119113678D01*
X147636150Y-119244080D01*
X147973945Y-119244080D01*
X148120594Y-119245345D01*
X148227956Y-119250637D01*
X148302063Y-119262201D01*
X148348951Y-119282281D01*
X148374653Y-119313121D01*
X148385204Y-119356967D01*
X148386806Y-119397660D01*
X148381827Y-119447591D01*
X148363036Y-119484383D01*
X148324653Y-119509958D01*
X148260900Y-119526239D01*
X148165996Y-119535149D01*
X148034162Y-119538610D01*
X147962206Y-119538902D01*
X147638413Y-119538902D01*
X147638413Y-119856402D01*
X148137342Y-119856402D01*
X148300887Y-119856629D01*
X148425183Y-119857652D01*
X148516334Y-119859979D01*
X148580448Y-119864118D01*
X148623630Y-119870580D01*
X148651987Y-119879871D01*
X148671625Y-119892502D01*
X148681627Y-119901759D01*
X148715938Y-119955786D01*
X148726985Y-120003812D01*
X148711211Y-120062474D01*
X148681627Y-120105866D01*
X148665844Y-120119526D01*
X148645469Y-120130133D01*
X148615022Y-120138071D01*
X148569023Y-120143726D01*
X148501990Y-120147482D01*
X148408442Y-120149723D01*
X148282900Y-120150834D01*
X148119882Y-120151199D01*
X148035288Y-120151223D01*
X147854132Y-120151063D01*
X147712852Y-120150325D01*
X147605968Y-120148627D01*
X147527998Y-120145582D01*
X147473461Y-120140806D01*
X147436878Y-120133915D01*
X147412767Y-120124524D01*
X147395647Y-120112248D01*
X147388949Y-120105866D01*
X147375692Y-120090605D01*
X147365301Y-120070916D01*
X147357429Y-120041524D01*
X147351727Y-119997153D01*
X147347848Y-119932526D01*
X147345443Y-119842367D01*
X147344164Y-119721401D01*
X147343665Y-119564351D01*
X147343592Y-119418123D01*
X147343659Y-119230857D01*
X147344130Y-119083651D01*
X147345407Y-118971205D01*
X147347891Y-118888222D01*
X147351984Y-118829403D01*
X147358089Y-118789450D01*
X147366608Y-118763064D01*
X147377942Y-118744948D01*
X147392495Y-118729803D01*
X147396080Y-118726426D01*
X147413479Y-118711478D01*
X147433695Y-118699903D01*
X147462336Y-118691268D01*
X147505011Y-118685145D01*
X147567325Y-118681102D01*
X147654888Y-118678709D01*
X147773307Y-118677534D01*
X147928189Y-118677148D01*
X148038143Y-118677116D01*
X148217354Y-118677275D01*
X148217354Y-118677275D01*
G37*
X148217354Y-118677275D02*
X148356790Y-118678023D01*
X148462037Y-118679763D01*
X148538676Y-118682900D01*
X148592290Y-118687836D01*
X148628463Y-118694976D01*
X148652779Y-118704724D01*
X148670819Y-118717484D01*
X148677351Y-118723356D01*
X148717078Y-118785750D01*
X148724231Y-118857441D01*
X148698097Y-118921087D01*
X148686013Y-118933950D01*
X148666468Y-118946421D01*
X148634997Y-118956043D01*
X148585764Y-118963282D01*
X148512934Y-118968606D01*
X148410671Y-118972485D01*
X148273138Y-118975387D01*
X148147397Y-118977152D01*
X147649752Y-118983277D01*
X147642951Y-119113678D01*
X147636150Y-119244080D01*
X147973945Y-119244080D01*
X148120594Y-119245345D01*
X148227956Y-119250637D01*
X148302063Y-119262201D01*
X148348951Y-119282281D01*
X148374653Y-119313121D01*
X148385204Y-119356967D01*
X148386806Y-119397660D01*
X148381827Y-119447591D01*
X148363036Y-119484383D01*
X148324653Y-119509958D01*
X148260900Y-119526239D01*
X148165996Y-119535149D01*
X148034162Y-119538610D01*
X147962206Y-119538902D01*
X147638413Y-119538902D01*
X147638413Y-119856402D01*
X148137342Y-119856402D01*
X148300887Y-119856629D01*
X148425183Y-119857652D01*
X148516334Y-119859979D01*
X148580448Y-119864118D01*
X148623630Y-119870580D01*
X148651987Y-119879871D01*
X148671625Y-119892502D01*
X148681627Y-119901759D01*
X148715938Y-119955786D01*
X148726985Y-120003812D01*
X148711211Y-120062474D01*
X148681627Y-120105866D01*
X148665844Y-120119526D01*
X148645469Y-120130133D01*
X148615022Y-120138071D01*
X148569023Y-120143726D01*
X148501990Y-120147482D01*
X148408442Y-120149723D01*
X148282900Y-120150834D01*
X148119882Y-120151199D01*
X148035288Y-120151223D01*
X147854132Y-120151063D01*
X147712852Y-120150325D01*
X147605968Y-120148627D01*
X147527998Y-120145582D01*
X147473461Y-120140806D01*
X147436878Y-120133915D01*
X147412767Y-120124524D01*
X147395647Y-120112248D01*
X147388949Y-120105866D01*
X147375692Y-120090605D01*
X147365301Y-120070916D01*
X147357429Y-120041524D01*
X147351727Y-119997153D01*
X147347848Y-119932526D01*
X147345443Y-119842367D01*
X147344164Y-119721401D01*
X147343665Y-119564351D01*
X147343592Y-119418123D01*
X147343659Y-119230857D01*
X147344130Y-119083651D01*
X147345407Y-118971205D01*
X147347891Y-118888222D01*
X147351984Y-118829403D01*
X147358089Y-118789450D01*
X147366608Y-118763064D01*
X147377942Y-118744948D01*
X147392495Y-118729803D01*
X147396080Y-118726426D01*
X147413479Y-118711478D01*
X147433695Y-118699903D01*
X147462336Y-118691268D01*
X147505011Y-118685145D01*
X147567325Y-118681102D01*
X147654888Y-118678709D01*
X147773307Y-118677534D01*
X147928189Y-118677148D01*
X148038143Y-118677116D01*
X148217354Y-118677275D01*
G36*
X150268654Y-118679696D02*
X150418952Y-118690203D01*
X150558737Y-118706614D01*
X150679883Y-118728310D01*
X150774266Y-118754673D01*
X150833759Y-118785087D01*
X150842891Y-118794040D01*
X150874645Y-118863511D01*
X150865016Y-118934831D01*
X150815763Y-118995850D01*
X150813413Y-118997598D01*
X150784443Y-119016399D01*
X150754201Y-119026285D01*
X150712019Y-119027486D01*
X150647228Y-119020230D01*
X150549159Y-119004747D01*
X150541270Y-119003444D01*
X150395143Y-118985492D01*
X150237486Y-118976636D01*
X150079364Y-118976550D01*
X149931840Y-118984908D01*
X149805980Y-119001382D01*
X149712848Y-119025646D01*
X149706729Y-119028085D01*
X149639165Y-119065940D01*
X149615427Y-119104250D01*
X149634010Y-119141927D01*
X149693409Y-119177883D01*
X149792119Y-119211029D01*
X149928635Y-119240277D01*
X150019663Y-119254359D01*
X150208882Y-119281446D01*
X150359375Y-119306207D01*
X150477554Y-119330786D01*
X150569829Y-119357328D01*
X150642610Y-119387976D01*
X150702310Y-119424875D01*
X150755338Y-119470168D01*
X150797951Y-119514646D01*
X150848506Y-119576618D01*
X150873385Y-119629907D01*
X150881166Y-119695562D01*
X150881449Y-119719606D01*
X150875605Y-119799394D01*
X150852249Y-119858753D01*
X150811827Y-119911439D01*
X150729676Y-119991977D01*
X150638068Y-120053397D01*
X150530196Y-120097702D01*
X150399255Y-120126895D01*
X150238436Y-120142979D01*
X150040934Y-120147956D01*
X150008324Y-120147872D01*
X149876619Y-120145142D01*
X149746005Y-120138939D01*
X149630719Y-120130153D01*
X149545000Y-120119673D01*
X149538067Y-120118470D01*
X149452841Y-120098281D01*
X149380553Y-120072778D01*
X149339630Y-120049462D01*
X149301546Y-119987952D01*
X149298895Y-119916325D01*
X149331725Y-119852494D01*
X149339070Y-119845276D01*
X149369432Y-119823830D01*
X149407402Y-119814590D01*
X149466168Y-119816163D01*
X149537508Y-119824336D01*
X149617223Y-119831637D01*
X149728971Y-119837797D01*
X149859428Y-119842267D01*
X149995274Y-119844499D01*
X150031002Y-119844646D01*
X150167354Y-119844096D01*
X150267144Y-119841449D01*
X150339152Y-119835786D01*
X150392160Y-119826189D01*
X150434947Y-119811740D01*
X150460660Y-119799705D01*
X150517163Y-119766288D01*
X150553187Y-119736024D01*
X150558452Y-119727445D01*
X150547345Y-119692019D01*
X150494543Y-119657724D01*
X150403704Y-119626117D01*
X150278488Y-119598754D01*
X150241596Y-119592659D01*
X150048902Y-119562393D01*
X149895116Y-119537096D01*
X149774303Y-119514929D01*
X149680525Y-119494053D01*
X149607849Y-119472630D01*
X149550337Y-119448822D01*
X149502055Y-119420791D01*
X149457067Y-119386698D01*
X149409437Y-119344705D01*
X149393409Y-119329982D01*
X149337214Y-119275037D01*
X149307468Y-119231504D01*
X149295831Y-119181688D01*
X149293949Y-119118912D01*
X149314669Y-118995808D01*
X149376591Y-118891214D01*
X149479361Y-118805468D01*
X149622622Y-118738907D01*
X149724842Y-118709052D01*
X149835937Y-118689770D01*
X149969021Y-118678862D01*
X150115968Y-118675710D01*
X150268654Y-118679696D01*
X150268654Y-118679696D01*
G37*
X150268654Y-118679696D02*
X150418952Y-118690203D01*
X150558737Y-118706614D01*
X150679883Y-118728310D01*
X150774266Y-118754673D01*
X150833759Y-118785087D01*
X150842891Y-118794040D01*
X150874645Y-118863511D01*
X150865016Y-118934831D01*
X150815763Y-118995850D01*
X150813413Y-118997598D01*
X150784443Y-119016399D01*
X150754201Y-119026285D01*
X150712019Y-119027486D01*
X150647228Y-119020230D01*
X150549159Y-119004747D01*
X150541270Y-119003444D01*
X150395143Y-118985492D01*
X150237486Y-118976636D01*
X150079364Y-118976550D01*
X149931840Y-118984908D01*
X149805980Y-119001382D01*
X149712848Y-119025646D01*
X149706729Y-119028085D01*
X149639165Y-119065940D01*
X149615427Y-119104250D01*
X149634010Y-119141927D01*
X149693409Y-119177883D01*
X149792119Y-119211029D01*
X149928635Y-119240277D01*
X150019663Y-119254359D01*
X150208882Y-119281446D01*
X150359375Y-119306207D01*
X150477554Y-119330786D01*
X150569829Y-119357328D01*
X150642610Y-119387976D01*
X150702310Y-119424875D01*
X150755338Y-119470168D01*
X150797951Y-119514646D01*
X150848506Y-119576618D01*
X150873385Y-119629907D01*
X150881166Y-119695562D01*
X150881449Y-119719606D01*
X150875605Y-119799394D01*
X150852249Y-119858753D01*
X150811827Y-119911439D01*
X150729676Y-119991977D01*
X150638068Y-120053397D01*
X150530196Y-120097702D01*
X150399255Y-120126895D01*
X150238436Y-120142979D01*
X150040934Y-120147956D01*
X150008324Y-120147872D01*
X149876619Y-120145142D01*
X149746005Y-120138939D01*
X149630719Y-120130153D01*
X149545000Y-120119673D01*
X149538067Y-120118470D01*
X149452841Y-120098281D01*
X149380553Y-120072778D01*
X149339630Y-120049462D01*
X149301546Y-119987952D01*
X149298895Y-119916325D01*
X149331725Y-119852494D01*
X149339070Y-119845276D01*
X149369432Y-119823830D01*
X149407402Y-119814590D01*
X149466168Y-119816163D01*
X149537508Y-119824336D01*
X149617223Y-119831637D01*
X149728971Y-119837797D01*
X149859428Y-119842267D01*
X149995274Y-119844499D01*
X150031002Y-119844646D01*
X150167354Y-119844096D01*
X150267144Y-119841449D01*
X150339152Y-119835786D01*
X150392160Y-119826189D01*
X150434947Y-119811740D01*
X150460660Y-119799705D01*
X150517163Y-119766288D01*
X150553187Y-119736024D01*
X150558452Y-119727445D01*
X150547345Y-119692019D01*
X150494543Y-119657724D01*
X150403704Y-119626117D01*
X150278488Y-119598754D01*
X150241596Y-119592659D01*
X150048902Y-119562393D01*
X149895116Y-119537096D01*
X149774303Y-119514929D01*
X149680525Y-119494053D01*
X149607849Y-119472630D01*
X149550337Y-119448822D01*
X149502055Y-119420791D01*
X149457067Y-119386698D01*
X149409437Y-119344705D01*
X149393409Y-119329982D01*
X149337214Y-119275037D01*
X149307468Y-119231504D01*
X149295831Y-119181688D01*
X149293949Y-119118912D01*
X149314669Y-118995808D01*
X149376591Y-118891214D01*
X149479361Y-118805468D01*
X149622622Y-118738907D01*
X149724842Y-118709052D01*
X149835937Y-118689770D01*
X149969021Y-118678862D01*
X150115968Y-118675710D01*
X150268654Y-118679696D01*
G36*
X151811270Y-118722473D02*
X151824491Y-118737687D01*
X151834861Y-118757314D01*
X151842727Y-118786611D01*
X151848433Y-118830836D01*
X151852323Y-118895247D01*
X151854742Y-118985101D01*
X151856036Y-119105657D01*
X151856548Y-119262171D01*
X151856627Y-119414169D01*
X151856487Y-119602701D01*
X151855838Y-119751133D01*
X151854334Y-119864724D01*
X151851631Y-119948732D01*
X151847384Y-120008413D01*
X151841248Y-120049025D01*
X151832879Y-120075827D01*
X151821931Y-120094076D01*
X151811270Y-120105866D01*
X151744969Y-120145403D01*
X151674324Y-120141854D01*
X151611116Y-120098734D01*
X151596593Y-120081900D01*
X151585243Y-120062367D01*
X151576675Y-120034738D01*
X151570498Y-119993612D01*
X151566322Y-119933591D01*
X151563755Y-119849274D01*
X151562408Y-119735263D01*
X151561888Y-119586157D01*
X151561806Y-119417346D01*
X151561806Y-118788447D01*
X151617472Y-118732781D01*
X151686086Y-118685948D01*
X151752643Y-118684261D01*
X151811270Y-118722473D01*
X151811270Y-118722473D01*
G37*
X151811270Y-118722473D02*
X151824491Y-118737687D01*
X151834861Y-118757314D01*
X151842727Y-118786611D01*
X151848433Y-118830836D01*
X151852323Y-118895247D01*
X151854742Y-118985101D01*
X151856036Y-119105657D01*
X151856548Y-119262171D01*
X151856627Y-119414169D01*
X151856487Y-119602701D01*
X151855838Y-119751133D01*
X151854334Y-119864724D01*
X151851631Y-119948732D01*
X151847384Y-120008413D01*
X151841248Y-120049025D01*
X151832879Y-120075827D01*
X151821931Y-120094076D01*
X151811270Y-120105866D01*
X151744969Y-120145403D01*
X151674324Y-120141854D01*
X151611116Y-120098734D01*
X151596593Y-120081900D01*
X151585243Y-120062367D01*
X151576675Y-120034738D01*
X151570498Y-119993612D01*
X151566322Y-119933591D01*
X151563755Y-119849274D01*
X151562408Y-119735263D01*
X151561888Y-119586157D01*
X151561806Y-119417346D01*
X151561806Y-118788447D01*
X151617472Y-118732781D01*
X151686086Y-118685948D01*
X151752643Y-118684261D01*
X151811270Y-118722473D01*
G36*
X153767447Y-118688229D02*
X153905092Y-118711325D01*
X154010806Y-118747228D01*
X154079580Y-118794501D01*
X154098321Y-118821471D01*
X154117379Y-118884198D01*
X154104554Y-118940945D01*
X154064067Y-118994758D01*
X154001158Y-119019933D01*
X153909877Y-119017888D01*
X153839276Y-119004249D01*
X153682394Y-118978263D01*
X153522066Y-118975793D01*
X153342611Y-118996886D01*
X153293042Y-119005823D01*
X153126177Y-119052869D01*
X152995634Y-119122852D01*
X152902844Y-119214579D01*
X152849239Y-119326857D01*
X152838152Y-119384905D01*
X152845409Y-119502676D01*
X152892261Y-119606873D01*
X152974438Y-119695465D01*
X153087671Y-119766421D01*
X153227691Y-119817710D01*
X153390229Y-119847302D01*
X153571015Y-119853166D01*
X153765782Y-119833271D01*
X153776779Y-119831395D01*
X153854246Y-119816966D01*
X153897198Y-119803029D01*
X153915815Y-119782349D01*
X153920276Y-119747693D01*
X153920377Y-119729341D01*
X153920377Y-119652294D01*
X153782815Y-119652294D01*
X153661338Y-119643973D01*
X153578439Y-119617455D01*
X153530206Y-119570412D01*
X153512724Y-119500513D01*
X153512510Y-119491390D01*
X153522739Y-119431645D01*
X153557812Y-119388984D01*
X153623090Y-119360752D01*
X153723930Y-119344294D01*
X153821605Y-119338243D01*
X153963569Y-119334771D01*
X154066543Y-119340069D01*
X154136773Y-119359616D01*
X154180506Y-119398896D01*
X154203990Y-119463389D01*
X154213471Y-119558577D01*
X154215199Y-119683598D01*
X154212368Y-119823146D01*
X154203853Y-119918070D01*
X154189614Y-119968747D01*
X154186851Y-119972716D01*
X154108670Y-120036039D01*
X153994045Y-120086185D01*
X153850240Y-120122085D01*
X153684524Y-120142667D01*
X153504162Y-120146860D01*
X153316422Y-120133592D01*
X153206002Y-120117295D01*
X153032812Y-120068274D01*
X152871846Y-119988133D01*
X152737076Y-119884121D01*
X152716592Y-119863332D01*
X152650039Y-119775936D01*
X152589989Y-119667621D01*
X152543456Y-119554063D01*
X152517457Y-119450940D01*
X152514324Y-119411334D01*
X152527664Y-119328717D01*
X152563120Y-119225926D01*
X152613889Y-119117729D01*
X152673168Y-119018892D01*
X152725541Y-118952875D01*
X152847994Y-118854675D01*
X153006288Y-118776515D01*
X153194751Y-118720162D01*
X153407710Y-118687386D01*
X153602877Y-118679377D01*
X153767447Y-118688229D01*
X153767447Y-118688229D01*
G37*
X153767447Y-118688229D02*
X153905092Y-118711325D01*
X154010806Y-118747228D01*
X154079580Y-118794501D01*
X154098321Y-118821471D01*
X154117379Y-118884198D01*
X154104554Y-118940945D01*
X154064067Y-118994758D01*
X154001158Y-119019933D01*
X153909877Y-119017888D01*
X153839276Y-119004249D01*
X153682394Y-118978263D01*
X153522066Y-118975793D01*
X153342611Y-118996886D01*
X153293042Y-119005823D01*
X153126177Y-119052869D01*
X152995634Y-119122852D01*
X152902844Y-119214579D01*
X152849239Y-119326857D01*
X152838152Y-119384905D01*
X152845409Y-119502676D01*
X152892261Y-119606873D01*
X152974438Y-119695465D01*
X153087671Y-119766421D01*
X153227691Y-119817710D01*
X153390229Y-119847302D01*
X153571015Y-119853166D01*
X153765782Y-119833271D01*
X153776779Y-119831395D01*
X153854246Y-119816966D01*
X153897198Y-119803029D01*
X153915815Y-119782349D01*
X153920276Y-119747693D01*
X153920377Y-119729341D01*
X153920377Y-119652294D01*
X153782815Y-119652294D01*
X153661338Y-119643973D01*
X153578439Y-119617455D01*
X153530206Y-119570412D01*
X153512724Y-119500513D01*
X153512510Y-119491390D01*
X153522739Y-119431645D01*
X153557812Y-119388984D01*
X153623090Y-119360752D01*
X153723930Y-119344294D01*
X153821605Y-119338243D01*
X153963569Y-119334771D01*
X154066543Y-119340069D01*
X154136773Y-119359616D01*
X154180506Y-119398896D01*
X154203990Y-119463389D01*
X154213471Y-119558577D01*
X154215199Y-119683598D01*
X154212368Y-119823146D01*
X154203853Y-119918070D01*
X154189614Y-119968747D01*
X154186851Y-119972716D01*
X154108670Y-120036039D01*
X153994045Y-120086185D01*
X153850240Y-120122085D01*
X153684524Y-120142667D01*
X153504162Y-120146860D01*
X153316422Y-120133592D01*
X153206002Y-120117295D01*
X153032812Y-120068274D01*
X152871846Y-119988133D01*
X152737076Y-119884121D01*
X152716592Y-119863332D01*
X152650039Y-119775936D01*
X152589989Y-119667621D01*
X152543456Y-119554063D01*
X152517457Y-119450940D01*
X152514324Y-119411334D01*
X152527664Y-119328717D01*
X152563120Y-119225926D01*
X152613889Y-119117729D01*
X152673168Y-119018892D01*
X152725541Y-118952875D01*
X152847994Y-118854675D01*
X153006288Y-118776515D01*
X153194751Y-118720162D01*
X153407710Y-118687386D01*
X153602877Y-118679377D01*
X153767447Y-118688229D01*
G36*
X155073185Y-118685918D02*
X155120527Y-118713690D01*
X155182428Y-118759108D01*
X155262097Y-118824312D01*
X155362740Y-118911440D01*
X155487568Y-119022633D01*
X155639788Y-119160030D01*
X155814038Y-119317999D01*
X156176895Y-119647050D01*
X156188235Y-119205388D01*
X156192329Y-119053357D01*
X156196278Y-118940140D01*
X156200958Y-118859203D01*
X156207241Y-118804016D01*
X156216002Y-118768045D01*
X156228114Y-118744758D01*
X156244451Y-118727622D01*
X156253113Y-118720421D01*
X156322483Y-118682346D01*
X156388493Y-118687913D01*
X156440856Y-118720440D01*
X156494395Y-118763765D01*
X156501054Y-119396482D01*
X156502897Y-119582564D01*
X156503835Y-119728744D01*
X156503543Y-119840474D01*
X156501697Y-119923205D01*
X156497970Y-119982389D01*
X156492040Y-120023476D01*
X156483580Y-120051919D01*
X156472267Y-120073168D01*
X156459720Y-120090211D01*
X156432576Y-120121818D01*
X156405567Y-120142769D01*
X156374950Y-120150811D01*
X156336977Y-120143688D01*
X156287902Y-120119149D01*
X156223980Y-120074937D01*
X156141465Y-120008799D01*
X156036610Y-119918482D01*
X155905669Y-119801731D01*
X155757342Y-119667582D01*
X155224395Y-119184152D01*
X155213056Y-119624370D01*
X155208955Y-119776124D01*
X155204995Y-119889077D01*
X155200299Y-119969775D01*
X155193987Y-120024764D01*
X155185183Y-120060588D01*
X155173008Y-120083793D01*
X155156583Y-120100924D01*
X155148177Y-120107906D01*
X155073886Y-120146257D01*
X155003688Y-120140472D01*
X154942559Y-120091468D01*
X154928575Y-120071753D01*
X154917676Y-120048729D01*
X154909479Y-120016872D01*
X154903600Y-119970658D01*
X154899656Y-119904563D01*
X154897264Y-119813062D01*
X154896041Y-119690634D01*
X154895602Y-119531752D01*
X154895556Y-119414169D01*
X154895703Y-119230256D01*
X154896401Y-119086175D01*
X154898033Y-118976403D01*
X154900981Y-118895416D01*
X154905631Y-118837691D01*
X154912363Y-118797704D01*
X154921563Y-118769930D01*
X154933614Y-118748846D01*
X154942559Y-118736871D01*
X154965234Y-118708503D01*
X154986425Y-118687085D01*
X155009342Y-118674755D01*
X155037192Y-118673653D01*
X155073185Y-118685918D01*
X155073185Y-118685918D01*
G37*
X155073185Y-118685918D02*
X155120527Y-118713690D01*
X155182428Y-118759108D01*
X155262097Y-118824312D01*
X155362740Y-118911440D01*
X155487568Y-119022633D01*
X155639788Y-119160030D01*
X155814038Y-119317999D01*
X156176895Y-119647050D01*
X156188235Y-119205388D01*
X156192329Y-119053357D01*
X156196278Y-118940140D01*
X156200958Y-118859203D01*
X156207241Y-118804016D01*
X156216002Y-118768045D01*
X156228114Y-118744758D01*
X156244451Y-118727622D01*
X156253113Y-118720421D01*
X156322483Y-118682346D01*
X156388493Y-118687913D01*
X156440856Y-118720440D01*
X156494395Y-118763765D01*
X156501054Y-119396482D01*
X156502897Y-119582564D01*
X156503835Y-119728744D01*
X156503543Y-119840474D01*
X156501697Y-119923205D01*
X156497970Y-119982389D01*
X156492040Y-120023476D01*
X156483580Y-120051919D01*
X156472267Y-120073168D01*
X156459720Y-120090211D01*
X156432576Y-120121818D01*
X156405567Y-120142769D01*
X156374950Y-120150811D01*
X156336977Y-120143688D01*
X156287902Y-120119149D01*
X156223980Y-120074937D01*
X156141465Y-120008799D01*
X156036610Y-119918482D01*
X155905669Y-119801731D01*
X155757342Y-119667582D01*
X155224395Y-119184152D01*
X155213056Y-119624370D01*
X155208955Y-119776124D01*
X155204995Y-119889077D01*
X155200299Y-119969775D01*
X155193987Y-120024764D01*
X155185183Y-120060588D01*
X155173008Y-120083793D01*
X155156583Y-120100924D01*
X155148177Y-120107906D01*
X155073886Y-120146257D01*
X155003688Y-120140472D01*
X154942559Y-120091468D01*
X154928575Y-120071753D01*
X154917676Y-120048729D01*
X154909479Y-120016872D01*
X154903600Y-119970658D01*
X154899656Y-119904563D01*
X154897264Y-119813062D01*
X154896041Y-119690634D01*
X154895602Y-119531752D01*
X154895556Y-119414169D01*
X154895703Y-119230256D01*
X154896401Y-119086175D01*
X154898033Y-118976403D01*
X154900981Y-118895416D01*
X154905631Y-118837691D01*
X154912363Y-118797704D01*
X154921563Y-118769930D01*
X154933614Y-118748846D01*
X154942559Y-118736871D01*
X154965234Y-118708503D01*
X154986425Y-118687085D01*
X155009342Y-118674755D01*
X155037192Y-118673653D01*
X155073185Y-118685918D01*
G36*
X158147763Y-118677503D02*
X158301162Y-118679340D01*
X158418715Y-118683634D01*
X158505176Y-118691395D01*
X158565300Y-118703633D01*
X158603840Y-118721358D01*
X158625552Y-118745579D01*
X158635190Y-118777305D01*
X158637508Y-118817546D01*
X158637520Y-118822298D01*
X158635508Y-118867814D01*
X158625995Y-118902992D01*
X158603771Y-118929251D01*
X158563622Y-118948012D01*
X158500336Y-118960696D01*
X158408702Y-118968722D01*
X158283507Y-118973512D01*
X158119539Y-118976484D01*
X158069283Y-118977143D01*
X157582967Y-118983277D01*
X157576165Y-119113678D01*
X157569364Y-119244080D01*
X157907159Y-119244080D01*
X158039127Y-119244567D01*
X158133357Y-119246626D01*
X158197465Y-119251155D01*
X158239064Y-119259053D01*
X158265770Y-119271218D01*
X158285198Y-119288548D01*
X158285322Y-119288686D01*
X158320557Y-119356224D01*
X158319283Y-119429221D01*
X158282304Y-119491448D01*
X158274985Y-119497844D01*
X158249010Y-119514328D01*
X158213417Y-119525796D01*
X158160273Y-119533111D01*
X158081648Y-119537138D01*
X157969610Y-119538740D01*
X157897954Y-119538902D01*
X157571627Y-119538902D01*
X157571627Y-119856402D01*
X158067041Y-119856402D01*
X158230606Y-119856688D01*
X158354817Y-119857857D01*
X158445675Y-119860377D01*
X158509180Y-119864715D01*
X158551333Y-119871337D01*
X158578136Y-119880710D01*
X158595589Y-119893302D01*
X158599987Y-119897875D01*
X158632460Y-119961249D01*
X158634836Y-120033347D01*
X158608195Y-120095858D01*
X158587117Y-120115919D01*
X158565190Y-120126963D01*
X158531215Y-120135508D01*
X158479818Y-120141852D01*
X158405625Y-120146295D01*
X158303261Y-120149136D01*
X158167353Y-120150675D01*
X157992525Y-120151210D01*
X157953000Y-120151223D01*
X157775244Y-120151107D01*
X157637262Y-120150465D01*
X157533476Y-120148857D01*
X157458303Y-120145844D01*
X157406161Y-120140986D01*
X157371471Y-120133844D01*
X157348650Y-120123977D01*
X157332117Y-120110946D01*
X157323047Y-120101589D01*
X157309394Y-120085017D01*
X157298728Y-120064487D01*
X157290680Y-120034616D01*
X157284884Y-119990021D01*
X157280973Y-119925317D01*
X157278577Y-119835120D01*
X157277330Y-119714047D01*
X157276864Y-119556713D01*
X157276806Y-119424291D01*
X157276949Y-119238735D01*
X157277626Y-119093065D01*
X157279212Y-118981811D01*
X157282081Y-118899501D01*
X157286607Y-118840666D01*
X157293164Y-118799834D01*
X157302126Y-118771535D01*
X157313867Y-118750298D01*
X157323809Y-118736871D01*
X157370812Y-118677116D01*
X157953763Y-118677116D01*
X158147763Y-118677503D01*
X158147763Y-118677503D01*
G37*
X158147763Y-118677503D02*
X158301162Y-118679340D01*
X158418715Y-118683634D01*
X158505176Y-118691395D01*
X158565300Y-118703633D01*
X158603840Y-118721358D01*
X158625552Y-118745579D01*
X158635190Y-118777305D01*
X158637508Y-118817546D01*
X158637520Y-118822298D01*
X158635508Y-118867814D01*
X158625995Y-118902992D01*
X158603771Y-118929251D01*
X158563622Y-118948012D01*
X158500336Y-118960696D01*
X158408702Y-118968722D01*
X158283507Y-118973512D01*
X158119539Y-118976484D01*
X158069283Y-118977143D01*
X157582967Y-118983277D01*
X157576165Y-119113678D01*
X157569364Y-119244080D01*
X157907159Y-119244080D01*
X158039127Y-119244567D01*
X158133357Y-119246626D01*
X158197465Y-119251155D01*
X158239064Y-119259053D01*
X158265770Y-119271218D01*
X158285198Y-119288548D01*
X158285322Y-119288686D01*
X158320557Y-119356224D01*
X158319283Y-119429221D01*
X158282304Y-119491448D01*
X158274985Y-119497844D01*
X158249010Y-119514328D01*
X158213417Y-119525796D01*
X158160273Y-119533111D01*
X158081648Y-119537138D01*
X157969610Y-119538740D01*
X157897954Y-119538902D01*
X157571627Y-119538902D01*
X157571627Y-119856402D01*
X158067041Y-119856402D01*
X158230606Y-119856688D01*
X158354817Y-119857857D01*
X158445675Y-119860377D01*
X158509180Y-119864715D01*
X158551333Y-119871337D01*
X158578136Y-119880710D01*
X158595589Y-119893302D01*
X158599987Y-119897875D01*
X158632460Y-119961249D01*
X158634836Y-120033347D01*
X158608195Y-120095858D01*
X158587117Y-120115919D01*
X158565190Y-120126963D01*
X158531215Y-120135508D01*
X158479818Y-120141852D01*
X158405625Y-120146295D01*
X158303261Y-120149136D01*
X158167353Y-120150675D01*
X157992525Y-120151210D01*
X157953000Y-120151223D01*
X157775244Y-120151107D01*
X157637262Y-120150465D01*
X157533476Y-120148857D01*
X157458303Y-120145844D01*
X157406161Y-120140986D01*
X157371471Y-120133844D01*
X157348650Y-120123977D01*
X157332117Y-120110946D01*
X157323047Y-120101589D01*
X157309394Y-120085017D01*
X157298728Y-120064487D01*
X157290680Y-120034616D01*
X157284884Y-119990021D01*
X157280973Y-119925317D01*
X157278577Y-119835120D01*
X157277330Y-119714047D01*
X157276864Y-119556713D01*
X157276806Y-119424291D01*
X157276949Y-119238735D01*
X157277626Y-119093065D01*
X157279212Y-118981811D01*
X157282081Y-118899501D01*
X157286607Y-118840666D01*
X157293164Y-118799834D01*
X157302126Y-118771535D01*
X157313867Y-118750298D01*
X157323809Y-118736871D01*
X157370812Y-118677116D01*
X157953763Y-118677116D01*
X158147763Y-118677503D01*
G36*
X159730730Y-118677534D02*
X159989841Y-118686295D01*
X160210226Y-118712863D01*
X160395519Y-118758828D01*
X160549355Y-118825783D01*
X160675366Y-118915316D01*
X160777187Y-119029019D01*
X160858451Y-119168482D01*
X160860050Y-119171883D01*
X160908549Y-119296702D01*
X160925829Y-119407246D01*
X160911825Y-119518497D01*
X160866468Y-119645433D01*
X160857866Y-119664749D01*
X160799206Y-119777806D01*
X160733280Y-119865165D01*
X160648194Y-119939427D01*
X160532054Y-120013191D01*
X160525307Y-120017042D01*
X160424204Y-120065608D01*
X160309929Y-120101879D01*
X160175141Y-120127106D01*
X160012495Y-120142539D01*
X159814649Y-120149431D01*
X159744747Y-120150030D01*
X159411884Y-120151223D01*
X159364881Y-120091468D01*
X159350938Y-120071819D01*
X159340061Y-120048873D01*
X159331871Y-120017129D01*
X159325987Y-119971082D01*
X159322031Y-119905233D01*
X159320741Y-119856402D01*
X159635377Y-119856402D01*
X159823980Y-119856402D01*
X159934345Y-119853174D01*
X160047641Y-119844681D01*
X160140625Y-119832703D01*
X160146238Y-119831694D01*
X160311390Y-119787388D01*
X160439490Y-119720822D01*
X160534590Y-119628907D01*
X160600743Y-119508555D01*
X160612247Y-119476658D01*
X160623522Y-119426980D01*
X160618640Y-119377900D01*
X160594887Y-119312607D01*
X160580569Y-119280532D01*
X160533682Y-119195297D01*
X160477191Y-119135499D01*
X160415035Y-119093857D01*
X160290532Y-119039668D01*
X160131194Y-119000415D01*
X159945573Y-118977812D01*
X159811136Y-118972837D01*
X159635377Y-118971937D01*
X159635377Y-119856402D01*
X159320741Y-119856402D01*
X159319622Y-119814078D01*
X159318381Y-119692115D01*
X159317928Y-119533841D01*
X159317877Y-119410080D01*
X159317877Y-118788447D01*
X159373543Y-118732781D01*
X159398248Y-118710218D01*
X159424961Y-118694766D01*
X159462264Y-118685098D01*
X159518743Y-118679887D01*
X159602978Y-118677805D01*
X159723555Y-118677524D01*
X159730730Y-118677534D01*
X159730730Y-118677534D01*
G37*
X159730730Y-118677534D02*
X159989841Y-118686295D01*
X160210226Y-118712863D01*
X160395519Y-118758828D01*
X160549355Y-118825783D01*
X160675366Y-118915316D01*
X160777187Y-119029019D01*
X160858451Y-119168482D01*
X160860050Y-119171883D01*
X160908549Y-119296702D01*
X160925829Y-119407246D01*
X160911825Y-119518497D01*
X160866468Y-119645433D01*
X160857866Y-119664749D01*
X160799206Y-119777806D01*
X160733280Y-119865165D01*
X160648194Y-119939427D01*
X160532054Y-120013191D01*
X160525307Y-120017042D01*
X160424204Y-120065608D01*
X160309929Y-120101879D01*
X160175141Y-120127106D01*
X160012495Y-120142539D01*
X159814649Y-120149431D01*
X159744747Y-120150030D01*
X159411884Y-120151223D01*
X159364881Y-120091468D01*
X159350938Y-120071819D01*
X159340061Y-120048873D01*
X159331871Y-120017129D01*
X159325987Y-119971082D01*
X159322031Y-119905233D01*
X159320741Y-119856402D01*
X159635377Y-119856402D01*
X159823980Y-119856402D01*
X159934345Y-119853174D01*
X160047641Y-119844681D01*
X160140625Y-119832703D01*
X160146238Y-119831694D01*
X160311390Y-119787388D01*
X160439490Y-119720822D01*
X160534590Y-119628907D01*
X160600743Y-119508555D01*
X160612247Y-119476658D01*
X160623522Y-119426980D01*
X160618640Y-119377900D01*
X160594887Y-119312607D01*
X160580569Y-119280532D01*
X160533682Y-119195297D01*
X160477191Y-119135499D01*
X160415035Y-119093857D01*
X160290532Y-119039668D01*
X160131194Y-119000415D01*
X159945573Y-118977812D01*
X159811136Y-118972837D01*
X159635377Y-118971937D01*
X159635377Y-119856402D01*
X159320741Y-119856402D01*
X159319622Y-119814078D01*
X159318381Y-119692115D01*
X159317928Y-119533841D01*
X159317877Y-119410080D01*
X159317877Y-118788447D01*
X159373543Y-118732781D01*
X159398248Y-118710218D01*
X159424961Y-118694766D01*
X159462264Y-118685098D01*
X159518743Y-118679887D01*
X159602978Y-118677805D01*
X159723555Y-118677524D01*
X159730730Y-118677534D01*
G36*
X165207785Y-118681068D02*
X165247139Y-118695132D01*
X165248658Y-118695820D01*
X165302100Y-118736604D01*
X165331545Y-118778555D01*
X165337307Y-118798224D01*
X165337022Y-118824360D01*
X165328915Y-118861591D01*
X165311208Y-118914551D01*
X165282124Y-118987868D01*
X165239887Y-119086174D01*
X165182720Y-119214099D01*
X165108846Y-119376275D01*
X165068184Y-119464916D01*
X164994759Y-119623158D01*
X164925831Y-119768680D01*
X164864032Y-119896160D01*
X164811991Y-120000279D01*
X164772341Y-120075716D01*
X164747711Y-120117151D01*
X164742837Y-120122875D01*
X164680478Y-120148125D01*
X164610040Y-120144743D01*
X164553548Y-120114033D01*
X164551246Y-120111535D01*
X164528774Y-120077515D01*
X164491078Y-120011251D01*
X164442806Y-119921272D01*
X164388608Y-119816109D01*
X164369130Y-119777356D01*
X164222102Y-119482863D01*
X164061843Y-119802772D01*
X164004641Y-119913306D01*
X163951571Y-120009167D01*
X163906969Y-120083016D01*
X163875170Y-120127516D01*
X163864393Y-120136952D01*
X163780626Y-120149732D01*
X163711504Y-120122875D01*
X163691171Y-120094172D01*
X163655986Y-120030381D01*
X163608819Y-119937779D01*
X163552540Y-119822643D01*
X163490019Y-119691249D01*
X163424127Y-119549875D01*
X163357734Y-119404797D01*
X163293710Y-119262293D01*
X163234926Y-119128640D01*
X163184252Y-119010114D01*
X163144558Y-118912992D01*
X163118715Y-118843552D01*
X163109592Y-118808070D01*
X163109685Y-118806785D01*
X163131881Y-118762137D01*
X163176246Y-118716663D01*
X163178859Y-118714685D01*
X163233386Y-118683863D01*
X163283821Y-118684161D01*
X163302724Y-118689972D01*
X163325759Y-118702530D01*
X163350220Y-118727234D01*
X163379042Y-118769207D01*
X163415160Y-118833575D01*
X163461508Y-118925463D01*
X163521019Y-119049994D01*
X163574687Y-119164946D01*
X163636432Y-119298195D01*
X163691760Y-119418023D01*
X163737797Y-119518171D01*
X163771670Y-119592378D01*
X163790502Y-119634384D01*
X163793249Y-119640955D01*
X163805602Y-119630213D01*
X163833993Y-119585236D01*
X163874645Y-119512588D01*
X163923779Y-119418834D01*
X163943331Y-119380152D01*
X164009565Y-119249535D01*
X164060644Y-119154411D01*
X164100760Y-119089252D01*
X164134104Y-119048525D01*
X164164869Y-119026701D01*
X164197245Y-119018249D01*
X164218344Y-119017294D01*
X164255562Y-119020592D01*
X164288176Y-119034232D01*
X164320582Y-119063834D01*
X164357176Y-119115016D01*
X164402354Y-119193398D01*
X164460512Y-119304600D01*
X164492600Y-119367858D01*
X164544648Y-119468675D01*
X164590044Y-119552280D01*
X164624780Y-119611620D01*
X164644853Y-119639639D01*
X164647583Y-119640806D01*
X164660546Y-119618754D01*
X164689569Y-119561493D01*
X164731745Y-119475016D01*
X164784168Y-119365316D01*
X164843931Y-119238386D01*
X164873329Y-119175339D01*
X164949808Y-119012630D01*
X165011392Y-118887429D01*
X165061278Y-118795651D01*
X165102663Y-118733210D01*
X165138744Y-118696023D01*
X165172719Y-118680004D01*
X165207785Y-118681068D01*
X165207785Y-118681068D01*
G37*
X165207785Y-118681068D02*
X165247139Y-118695132D01*
X165248658Y-118695820D01*
X165302100Y-118736604D01*
X165331545Y-118778555D01*
X165337307Y-118798224D01*
X165337022Y-118824360D01*
X165328915Y-118861591D01*
X165311208Y-118914551D01*
X165282124Y-118987868D01*
X165239887Y-119086174D01*
X165182720Y-119214099D01*
X165108846Y-119376275D01*
X165068184Y-119464916D01*
X164994759Y-119623158D01*
X164925831Y-119768680D01*
X164864032Y-119896160D01*
X164811991Y-120000279D01*
X164772341Y-120075716D01*
X164747711Y-120117151D01*
X164742837Y-120122875D01*
X164680478Y-120148125D01*
X164610040Y-120144743D01*
X164553548Y-120114033D01*
X164551246Y-120111535D01*
X164528774Y-120077515D01*
X164491078Y-120011251D01*
X164442806Y-119921272D01*
X164388608Y-119816109D01*
X164369130Y-119777356D01*
X164222102Y-119482863D01*
X164061843Y-119802772D01*
X164004641Y-119913306D01*
X163951571Y-120009167D01*
X163906969Y-120083016D01*
X163875170Y-120127516D01*
X163864393Y-120136952D01*
X163780626Y-120149732D01*
X163711504Y-120122875D01*
X163691171Y-120094172D01*
X163655986Y-120030381D01*
X163608819Y-119937779D01*
X163552540Y-119822643D01*
X163490019Y-119691249D01*
X163424127Y-119549875D01*
X163357734Y-119404797D01*
X163293710Y-119262293D01*
X163234926Y-119128640D01*
X163184252Y-119010114D01*
X163144558Y-118912992D01*
X163118715Y-118843552D01*
X163109592Y-118808070D01*
X163109685Y-118806785D01*
X163131881Y-118762137D01*
X163176246Y-118716663D01*
X163178859Y-118714685D01*
X163233386Y-118683863D01*
X163283821Y-118684161D01*
X163302724Y-118689972D01*
X163325759Y-118702530D01*
X163350220Y-118727234D01*
X163379042Y-118769207D01*
X163415160Y-118833575D01*
X163461508Y-118925463D01*
X163521019Y-119049994D01*
X163574687Y-119164946D01*
X163636432Y-119298195D01*
X163691760Y-119418023D01*
X163737797Y-119518171D01*
X163771670Y-119592378D01*
X163790502Y-119634384D01*
X163793249Y-119640955D01*
X163805602Y-119630213D01*
X163833993Y-119585236D01*
X163874645Y-119512588D01*
X163923779Y-119418834D01*
X163943331Y-119380152D01*
X164009565Y-119249535D01*
X164060644Y-119154411D01*
X164100760Y-119089252D01*
X164134104Y-119048525D01*
X164164869Y-119026701D01*
X164197245Y-119018249D01*
X164218344Y-119017294D01*
X164255562Y-119020592D01*
X164288176Y-119034232D01*
X164320582Y-119063834D01*
X164357176Y-119115016D01*
X164402354Y-119193398D01*
X164460512Y-119304600D01*
X164492600Y-119367858D01*
X164544648Y-119468675D01*
X164590044Y-119552280D01*
X164624780Y-119611620D01*
X164644853Y-119639639D01*
X164647583Y-119640806D01*
X164660546Y-119618754D01*
X164689569Y-119561493D01*
X164731745Y-119475016D01*
X164784168Y-119365316D01*
X164843931Y-119238386D01*
X164873329Y-119175339D01*
X164949808Y-119012630D01*
X165011392Y-118887429D01*
X165061278Y-118795651D01*
X165102663Y-118733210D01*
X165138744Y-118696023D01*
X165172719Y-118680004D01*
X165207785Y-118681068D01*
G36*
X166099647Y-118690797D02*
X166147285Y-118720469D01*
X166200824Y-118763823D01*
X166200824Y-119409785D01*
X166200653Y-119598738D01*
X166199923Y-119747604D01*
X166198305Y-119861655D01*
X166195471Y-119946159D01*
X166191092Y-120006386D01*
X166184841Y-120047608D01*
X166176389Y-120075093D01*
X166165408Y-120094113D01*
X166157621Y-120103485D01*
X166094463Y-120144654D01*
X166022543Y-120142975D01*
X165959542Y-120107870D01*
X165906002Y-120064516D01*
X165906002Y-118763823D01*
X165959542Y-118720469D01*
X166011215Y-118688933D01*
X166053413Y-118677116D01*
X166099647Y-118690797D01*
X166099647Y-118690797D01*
G37*
X166099647Y-118690797D02*
X166147285Y-118720469D01*
X166200824Y-118763823D01*
X166200824Y-119409785D01*
X166200653Y-119598738D01*
X166199923Y-119747604D01*
X166198305Y-119861655D01*
X166195471Y-119946159D01*
X166191092Y-120006386D01*
X166184841Y-120047608D01*
X166176389Y-120075093D01*
X166165408Y-120094113D01*
X166157621Y-120103485D01*
X166094463Y-120144654D01*
X166022543Y-120142975D01*
X165959542Y-120107870D01*
X165906002Y-120064516D01*
X165906002Y-118763823D01*
X165959542Y-118720469D01*
X166011215Y-118688933D01*
X166053413Y-118677116D01*
X166099647Y-118690797D01*
G36*
X167655463Y-118677310D02*
X167813581Y-118678070D01*
X167936308Y-118679660D01*
X168028626Y-118682345D01*
X168095519Y-118686390D01*
X168141968Y-118692060D01*
X168172957Y-118699620D01*
X168193468Y-118709335D01*
X168203394Y-118716803D01*
X168254911Y-118782165D01*
X168261143Y-118850028D01*
X168229307Y-118911677D01*
X168208488Y-118936312D01*
X168186085Y-118953110D01*
X168153617Y-118963570D01*
X168102606Y-118969195D01*
X168024570Y-118971483D01*
X167911030Y-118971935D01*
X167888731Y-118971937D01*
X167595556Y-118971937D01*
X167595556Y-119516223D01*
X167595363Y-119687782D01*
X167594486Y-119819789D01*
X167592478Y-119918045D01*
X167588894Y-119988356D01*
X167583287Y-120036523D01*
X167575211Y-120068351D01*
X167564218Y-120089642D01*
X167550199Y-120105866D01*
X167484039Y-120145734D01*
X167414974Y-120142592D01*
X167352340Y-120097105D01*
X167347738Y-120091468D01*
X167332757Y-120070158D01*
X167321343Y-120045225D01*
X167313014Y-120010609D01*
X167307287Y-119960253D01*
X167303679Y-119888098D01*
X167301706Y-119788086D01*
X167300886Y-119654158D01*
X167300735Y-119501825D01*
X167300735Y-118971937D01*
X167020767Y-118971937D01*
X166900622Y-118971124D01*
X166817445Y-118967956D01*
X166762863Y-118961339D01*
X166728506Y-118950179D01*
X166706000Y-118933384D01*
X166703267Y-118930464D01*
X166670406Y-118863690D01*
X166673312Y-118788200D01*
X166711092Y-118722473D01*
X166725702Y-118709724D01*
X166744540Y-118699615D01*
X166772628Y-118691840D01*
X166814990Y-118686095D01*
X166876650Y-118682074D01*
X166962632Y-118679472D01*
X167077958Y-118677982D01*
X167227652Y-118677299D01*
X167416738Y-118677119D01*
X167456972Y-118677116D01*
X167655463Y-118677310D01*
X167655463Y-118677310D01*
G37*
X167655463Y-118677310D02*
X167813581Y-118678070D01*
X167936308Y-118679660D01*
X168028626Y-118682345D01*
X168095519Y-118686390D01*
X168141968Y-118692060D01*
X168172957Y-118699620D01*
X168193468Y-118709335D01*
X168203394Y-118716803D01*
X168254911Y-118782165D01*
X168261143Y-118850028D01*
X168229307Y-118911677D01*
X168208488Y-118936312D01*
X168186085Y-118953110D01*
X168153617Y-118963570D01*
X168102606Y-118969195D01*
X168024570Y-118971483D01*
X167911030Y-118971935D01*
X167888731Y-118971937D01*
X167595556Y-118971937D01*
X167595556Y-119516223D01*
X167595363Y-119687782D01*
X167594486Y-119819789D01*
X167592478Y-119918045D01*
X167588894Y-119988356D01*
X167583287Y-120036523D01*
X167575211Y-120068351D01*
X167564218Y-120089642D01*
X167550199Y-120105866D01*
X167484039Y-120145734D01*
X167414974Y-120142592D01*
X167352340Y-120097105D01*
X167347738Y-120091468D01*
X167332757Y-120070158D01*
X167321343Y-120045225D01*
X167313014Y-120010609D01*
X167307287Y-119960253D01*
X167303679Y-119888098D01*
X167301706Y-119788086D01*
X167300886Y-119654158D01*
X167300735Y-119501825D01*
X167300735Y-118971937D01*
X167020767Y-118971937D01*
X166900622Y-118971124D01*
X166817445Y-118967956D01*
X166762863Y-118961339D01*
X166728506Y-118950179D01*
X166706000Y-118933384D01*
X166703267Y-118930464D01*
X166670406Y-118863690D01*
X166673312Y-118788200D01*
X166711092Y-118722473D01*
X166725702Y-118709724D01*
X166744540Y-118699615D01*
X166772628Y-118691840D01*
X166814990Y-118686095D01*
X166876650Y-118682074D01*
X166962632Y-118679472D01*
X167077958Y-118677982D01*
X167227652Y-118677299D01*
X167416738Y-118677119D01*
X167456972Y-118677116D01*
X167655463Y-118677310D01*
G36*
X170198282Y-118688097D02*
X170261319Y-118732781D01*
X170316985Y-118788447D01*
X170316985Y-119410080D01*
X170316839Y-119594659D01*
X170316150Y-119739383D01*
X170314537Y-119849755D01*
X170311620Y-119931276D01*
X170307022Y-119989449D01*
X170300361Y-120029777D01*
X170291258Y-120057760D01*
X170279334Y-120078903D01*
X170269981Y-120091468D01*
X170208245Y-120140835D01*
X170137357Y-120146193D01*
X170072566Y-120115919D01*
X170051157Y-120098046D01*
X170036846Y-120074305D01*
X170028214Y-120036075D01*
X170023842Y-119974733D01*
X170022310Y-119881660D01*
X170022163Y-119809758D01*
X170022163Y-119538902D01*
X169024306Y-119538902D01*
X169024306Y-119785307D01*
X169023274Y-119897982D01*
X169019146Y-119975418D01*
X169010371Y-120027708D01*
X168995402Y-120064944D01*
X168977303Y-120091468D01*
X168915221Y-120140696D01*
X168845012Y-120146525D01*
X168777799Y-120111535D01*
X168759448Y-120093193D01*
X168746488Y-120068877D01*
X168737939Y-120031001D01*
X168732825Y-119971978D01*
X168730169Y-119884222D01*
X168728991Y-119760146D01*
X168728854Y-119731669D01*
X168727882Y-119497892D01*
X168727381Y-119305228D01*
X168727544Y-119149435D01*
X168728565Y-119026271D01*
X168730637Y-118931493D01*
X168733953Y-118860859D01*
X168738707Y-118810126D01*
X168745091Y-118775052D01*
X168753300Y-118751393D01*
X168763527Y-118734909D01*
X168774842Y-118722473D01*
X168838849Y-118682694D01*
X168905603Y-118688097D01*
X168968640Y-118732781D01*
X168994149Y-118761610D01*
X169010409Y-118793455D01*
X169019481Y-118838808D01*
X169023426Y-118908166D01*
X169024305Y-119012022D01*
X169024306Y-119016264D01*
X169024306Y-119244080D01*
X170022163Y-119244080D01*
X170022163Y-119005955D01*
X170023181Y-118896251D01*
X170027271Y-118822176D01*
X170035985Y-118774027D01*
X170050875Y-118742101D01*
X170067520Y-118722473D01*
X170131527Y-118682694D01*
X170198282Y-118688097D01*
X170198282Y-118688097D01*
G37*
X170198282Y-118688097D02*
X170261319Y-118732781D01*
X170316985Y-118788447D01*
X170316985Y-119410080D01*
X170316839Y-119594659D01*
X170316150Y-119739383D01*
X170314537Y-119849755D01*
X170311620Y-119931276D01*
X170307022Y-119989449D01*
X170300361Y-120029777D01*
X170291258Y-120057760D01*
X170279334Y-120078903D01*
X170269981Y-120091468D01*
X170208245Y-120140835D01*
X170137357Y-120146193D01*
X170072566Y-120115919D01*
X170051157Y-120098046D01*
X170036846Y-120074305D01*
X170028214Y-120036075D01*
X170023842Y-119974733D01*
X170022310Y-119881660D01*
X170022163Y-119809758D01*
X170022163Y-119538902D01*
X169024306Y-119538902D01*
X169024306Y-119785307D01*
X169023274Y-119897982D01*
X169019146Y-119975418D01*
X169010371Y-120027708D01*
X168995402Y-120064944D01*
X168977303Y-120091468D01*
X168915221Y-120140696D01*
X168845012Y-120146525D01*
X168777799Y-120111535D01*
X168759448Y-120093193D01*
X168746488Y-120068877D01*
X168737939Y-120031001D01*
X168732825Y-119971978D01*
X168730169Y-119884222D01*
X168728991Y-119760146D01*
X168728854Y-119731669D01*
X168727882Y-119497892D01*
X168727381Y-119305228D01*
X168727544Y-119149435D01*
X168728565Y-119026271D01*
X168730637Y-118931493D01*
X168733953Y-118860859D01*
X168738707Y-118810126D01*
X168745091Y-118775052D01*
X168753300Y-118751393D01*
X168763527Y-118734909D01*
X168774842Y-118722473D01*
X168838849Y-118682694D01*
X168905603Y-118688097D01*
X168968640Y-118732781D01*
X168994149Y-118761610D01*
X169010409Y-118793455D01*
X169019481Y-118838808D01*
X169023426Y-118908166D01*
X169024305Y-119012022D01*
X169024306Y-119016264D01*
X169024306Y-119244080D01*
X170022163Y-119244080D01*
X170022163Y-119005955D01*
X170023181Y-118896251D01*
X170027271Y-118822176D01*
X170035985Y-118774027D01*
X170050875Y-118742101D01*
X170067520Y-118722473D01*
X170131527Y-118682694D01*
X170198282Y-118688097D01*
D11*
X150067143Y-76604762D02*
X150162381Y-76652381D01*
X150352857Y-76652381D01*
X150448096Y-76604762D01*
X150495715Y-76509524D01*
X150495715Y-76461905D01*
X150448096Y-76366667D01*
X150352857Y-76319048D01*
X150210000Y-76319048D01*
X150114762Y-76271429D01*
X150067143Y-76176190D01*
X150067143Y-76128571D01*
X150114762Y-76033333D01*
X150210000Y-75985714D01*
X150352857Y-75985714D01*
X150448096Y-76033333D01*
X151352858Y-76604762D02*
X151257620Y-76652381D01*
X151067143Y-76652381D01*
X150971905Y-76604762D01*
X150924286Y-76557143D01*
X150876667Y-76461905D01*
X150876667Y-76176190D01*
X150924286Y-76080952D01*
X150971905Y-76033333D01*
X151067143Y-75985714D01*
X151257620Y-75985714D01*
X151352858Y-76033333D01*
X151733810Y-76604762D02*
X151829048Y-76652381D01*
X152019524Y-76652381D01*
X152114763Y-76604762D01*
X152162382Y-76509524D01*
X152162382Y-76461905D01*
X152114763Y-76366667D01*
X152019524Y-76319048D01*
X151876667Y-76319048D01*
X151781429Y-76271429D01*
X151733810Y-76176190D01*
X151733810Y-76128571D01*
X151781429Y-76033333D01*
X151876667Y-75985714D01*
X152019524Y-75985714D01*
X152114763Y-76033333D01*
X152590953Y-76652381D02*
X152590953Y-75985714D01*
X152590953Y-75652381D02*
X152543334Y-75700000D01*
X152590953Y-75747619D01*
X152638572Y-75700000D01*
X152590953Y-75652381D01*
X152590953Y-75747619D01*
X153067143Y-76557143D02*
X153114762Y-76604762D01*
X153067143Y-76652381D01*
X153019524Y-76604762D01*
X153067143Y-76557143D01*
X153067143Y-76652381D01*
X153971905Y-76652381D02*
X153971905Y-75652381D01*
X153971905Y-76604762D02*
X153876667Y-76652381D01*
X153686190Y-76652381D01*
X153590952Y-76604762D01*
X153543333Y-76557143D01*
X153495714Y-76461905D01*
X153495714Y-76176190D01*
X153543333Y-76080952D01*
X153590952Y-76033333D01*
X153686190Y-75985714D01*
X153876667Y-75985714D01*
X153971905Y-76033333D01*
X154829048Y-76604762D02*
X154733810Y-76652381D01*
X154543333Y-76652381D01*
X154448095Y-76604762D01*
X154400476Y-76509524D01*
X154400476Y-76128571D01*
X154448095Y-76033333D01*
X154543333Y-75985714D01*
X154733810Y-75985714D01*
X154829048Y-76033333D01*
X154876667Y-76128571D01*
X154876667Y-76223810D01*
X154400476Y-76319048D01*
X155210000Y-75985714D02*
X155448095Y-76652381D01*
X155686191Y-75985714D01*
X156067143Y-76652381D02*
X156067143Y-75985714D01*
X156067143Y-75652381D02*
X156019524Y-75700000D01*
X156067143Y-75747619D01*
X156114762Y-75700000D01*
X156067143Y-75652381D01*
X156067143Y-75747619D01*
X156971905Y-76604762D02*
X156876667Y-76652381D01*
X156686190Y-76652381D01*
X156590952Y-76604762D01*
X156543333Y-76557143D01*
X156495714Y-76461905D01*
X156495714Y-76176190D01*
X156543333Y-76080952D01*
X156590952Y-76033333D01*
X156686190Y-75985714D01*
X156876667Y-75985714D01*
X156971905Y-76033333D01*
X157781429Y-76604762D02*
X157686191Y-76652381D01*
X157495714Y-76652381D01*
X157400476Y-76604762D01*
X157352857Y-76509524D01*
X157352857Y-76128571D01*
X157400476Y-76033333D01*
X157495714Y-75985714D01*
X157686191Y-75985714D01*
X157781429Y-76033333D01*
X157829048Y-76128571D01*
X157829048Y-76223810D01*
X157352857Y-76319048D01*
X158257619Y-76557143D02*
X158305238Y-76604762D01*
X158257619Y-76652381D01*
X158210000Y-76604762D01*
X158257619Y-76557143D01*
X158257619Y-76652381D01*
X158733809Y-76652381D02*
X158733809Y-75652381D01*
X158733809Y-76033333D02*
X158829047Y-75985714D01*
X159019524Y-75985714D01*
X159114762Y-76033333D01*
X159162381Y-76080952D01*
X159210000Y-76176190D01*
X159210000Y-76461905D01*
X159162381Y-76557143D01*
X159114762Y-76604762D01*
X159019524Y-76652381D01*
X158829047Y-76652381D01*
X158733809Y-76604762D01*
X160067143Y-75985714D02*
X160067143Y-76652381D01*
X159638571Y-75985714D02*
X159638571Y-76509524D01*
X159686190Y-76604762D01*
X159781428Y-76652381D01*
X159924286Y-76652381D01*
X160019524Y-76604762D01*
X160067143Y-76557143D01*
X160495714Y-76604762D02*
X160590952Y-76652381D01*
X160781428Y-76652381D01*
X160876667Y-76604762D01*
X160924286Y-76509524D01*
X160924286Y-76461905D01*
X160876667Y-76366667D01*
X160781428Y-76319048D01*
X160638571Y-76319048D01*
X160543333Y-76271429D01*
X160495714Y-76176190D01*
X160495714Y-76128571D01*
X160543333Y-76033333D01*
X160638571Y-75985714D01*
X160781428Y-75985714D01*
X160876667Y-76033333D01*
X161352857Y-76557143D02*
X161400476Y-76604762D01*
X161352857Y-76652381D01*
X161305238Y-76604762D01*
X161352857Y-76557143D01*
X161352857Y-76652381D01*
X161781428Y-75747619D02*
X161829047Y-75700000D01*
X161924285Y-75652381D01*
X162162381Y-75652381D01*
X162257619Y-75700000D01*
X162305238Y-75747619D01*
X162352857Y-75842857D01*
X162352857Y-75938095D01*
X162305238Y-76080952D01*
X161733809Y-76652381D01*
X162352857Y-76652381D01*
X146320952Y-128436667D02*
X146797143Y-128436667D01*
X146225714Y-128722381D02*
X146559047Y-127722381D01*
X146892381Y-128722381D01*
X147225714Y-128722381D02*
X147225714Y-127722381D01*
X147559048Y-128436667D01*
X147892381Y-127722381D01*
X147892381Y-128722381D01*
X148368571Y-128722381D02*
X148368571Y-127722381D01*
X149368571Y-127770000D02*
X149273333Y-127722381D01*
X149130476Y-127722381D01*
X148987618Y-127770000D01*
X148892380Y-127865238D01*
X148844761Y-127960476D01*
X148797142Y-128150952D01*
X148797142Y-128293810D01*
X148844761Y-128484286D01*
X148892380Y-128579524D01*
X148987618Y-128674762D01*
X149130476Y-128722381D01*
X149225714Y-128722381D01*
X149368571Y-128674762D01*
X149416190Y-128627143D01*
X149416190Y-128293810D01*
X149225714Y-128293810D01*
X149797142Y-128436667D02*
X150273333Y-128436667D01*
X149701904Y-128722381D02*
X150035237Y-127722381D01*
X150368571Y-128722381D01*
X150463809Y-128817619D02*
X151225714Y-128817619D01*
X151463809Y-128722381D02*
X151463809Y-127722381D01*
X151797143Y-128436667D01*
X152130476Y-127722381D01*
X152130476Y-128722381D01*
X152797142Y-127722381D02*
X152987619Y-127722381D01*
X153082857Y-127770000D01*
X153178095Y-127865238D01*
X153225714Y-128055714D01*
X153225714Y-128389048D01*
X153178095Y-128579524D01*
X153082857Y-128674762D01*
X152987619Y-128722381D01*
X152797142Y-128722381D01*
X152701904Y-128674762D01*
X152606666Y-128579524D01*
X152559047Y-128389048D01*
X152559047Y-128055714D01*
X152606666Y-127865238D01*
X152701904Y-127770000D01*
X152797142Y-127722381D01*
X153511428Y-127722381D02*
X154082857Y-127722381D01*
X153797142Y-128722381D02*
X153797142Y-127722381D01*
X154416190Y-128722381D02*
X154416190Y-127722381D01*
X154416190Y-128198571D02*
X154987619Y-128198571D01*
X154987619Y-128722381D02*
X154987619Y-127722381D01*
X155463809Y-128198571D02*
X155797143Y-128198571D01*
X155940000Y-128722381D02*
X155463809Y-128722381D01*
X155463809Y-127722381D01*
X155940000Y-127722381D01*
X156940000Y-128722381D02*
X156606666Y-128246190D01*
X156368571Y-128722381D02*
X156368571Y-127722381D01*
X156749524Y-127722381D01*
X156844762Y-127770000D01*
X156892381Y-127817619D01*
X156940000Y-127912857D01*
X156940000Y-128055714D01*
X156892381Y-128150952D01*
X156844762Y-128198571D01*
X156749524Y-128246190D01*
X156368571Y-128246190D01*
X157701905Y-128198571D02*
X157844762Y-128246190D01*
X157892381Y-128293810D01*
X157940000Y-128389048D01*
X157940000Y-128531905D01*
X157892381Y-128627143D01*
X157844762Y-128674762D01*
X157749524Y-128722381D01*
X157368571Y-128722381D01*
X157368571Y-127722381D01*
X157701905Y-127722381D01*
X157797143Y-127770000D01*
X157844762Y-127817619D01*
X157892381Y-127912857D01*
X157892381Y-128008095D01*
X157844762Y-128103333D01*
X157797143Y-128150952D01*
X157701905Y-128198571D01*
X157368571Y-128198571D01*
X158559047Y-127722381D02*
X158749524Y-127722381D01*
X158844762Y-127770000D01*
X158940000Y-127865238D01*
X158987619Y-128055714D01*
X158987619Y-128389048D01*
X158940000Y-128579524D01*
X158844762Y-128674762D01*
X158749524Y-128722381D01*
X158559047Y-128722381D01*
X158463809Y-128674762D01*
X158368571Y-128579524D01*
X158320952Y-128389048D01*
X158320952Y-128055714D01*
X158368571Y-127865238D01*
X158463809Y-127770000D01*
X158559047Y-127722381D01*
X159368571Y-128436667D02*
X159844762Y-128436667D01*
X159273333Y-128722381D02*
X159606666Y-127722381D01*
X159940000Y-128722381D01*
X160844762Y-128722381D02*
X160511428Y-128246190D01*
X160273333Y-128722381D02*
X160273333Y-127722381D01*
X160654286Y-127722381D01*
X160749524Y-127770000D01*
X160797143Y-127817619D01*
X160844762Y-127912857D01*
X160844762Y-128055714D01*
X160797143Y-128150952D01*
X160749524Y-128198571D01*
X160654286Y-128246190D01*
X160273333Y-128246190D01*
X161273333Y-128722381D02*
X161273333Y-127722381D01*
X161511428Y-127722381D01*
X161654286Y-127770000D01*
X161749524Y-127865238D01*
X161797143Y-127960476D01*
X161844762Y-128150952D01*
X161844762Y-128293810D01*
X161797143Y-128484286D01*
X161749524Y-128579524D01*
X161654286Y-128674762D01*
X161511428Y-128722381D01*
X161273333Y-128722381D01*
X162035238Y-128817619D02*
X162797143Y-128817619D01*
X163559048Y-128722381D02*
X162987619Y-128722381D01*
X163273333Y-128722381D02*
X163273333Y-127722381D01*
X163178095Y-127865238D01*
X163082857Y-127960476D01*
X162987619Y-128008095D01*
X168456000Y-128374000D02*
X168456000Y-128840667D01*
X168289333Y-128107333D02*
X168122666Y-128607333D01*
X168556000Y-128607333D01*
X168756000Y-128140667D02*
X169189333Y-128140667D01*
X168956000Y-128407333D01*
X169056000Y-128407333D01*
X169122667Y-128440667D01*
X169156000Y-128474000D01*
X169189333Y-128540667D01*
X169189333Y-128707333D01*
X169156000Y-128774000D01*
X169122667Y-128807333D01*
X169056000Y-128840667D01*
X168856000Y-128840667D01*
X168789333Y-128807333D01*
X168756000Y-128774000D01*
X142440000Y-128878767D02*
X142040000Y-128878767D01*
X142240000Y-128878767D02*
X142240000Y-128178767D01*
X142173334Y-128278767D01*
X142106667Y-128345433D01*
X142040000Y-128378767D01*
X164361905Y-101322381D02*
X164361905Y-100322381D01*
X164600000Y-100322381D01*
X164742858Y-100370000D01*
X164838096Y-100465238D01*
X164885715Y-100560476D01*
X164933334Y-100750952D01*
X164933334Y-100893810D01*
X164885715Y-101084286D01*
X164838096Y-101179524D01*
X164742858Y-101274762D01*
X164600000Y-101322381D01*
X164361905Y-101322381D01*
X165885715Y-101322381D02*
X165314286Y-101322381D01*
X165600000Y-101322381D02*
X165600000Y-100322381D01*
X165504762Y-100465238D01*
X165409524Y-100560476D01*
X165314286Y-100608095D01*
X161838095Y-105322381D02*
X161838095Y-104322381D01*
X162409524Y-105322381D02*
X161980952Y-104750952D01*
X162409524Y-104322381D02*
X161838095Y-104893810D01*
X167861905Y-105036667D02*
X168338096Y-105036667D01*
X167766667Y-105322381D02*
X168100000Y-104322381D01*
X168433334Y-105322381D01*
X164361905Y-77192381D02*
X164361905Y-76192381D01*
X164600000Y-76192381D01*
X164742858Y-76240000D01*
X164838096Y-76335238D01*
X164885715Y-76430476D01*
X164933334Y-76620952D01*
X164933334Y-76763810D01*
X164885715Y-76954286D01*
X164838096Y-77049524D01*
X164742858Y-77144762D01*
X164600000Y-77192381D01*
X164361905Y-77192381D01*
X165314286Y-76287619D02*
X165361905Y-76240000D01*
X165457143Y-76192381D01*
X165695239Y-76192381D01*
X165790477Y-76240000D01*
X165838096Y-76287619D01*
X165885715Y-76382857D01*
X165885715Y-76478095D01*
X165838096Y-76620952D01*
X165266667Y-77192381D01*
X165885715Y-77192381D01*
X161838095Y-81192381D02*
X161838095Y-80192381D01*
X162409524Y-81192381D02*
X161980952Y-80620952D01*
X162409524Y-80192381D02*
X161838095Y-80763810D01*
X167861905Y-80906667D02*
X168338096Y-80906667D01*
X167766667Y-81192381D02*
X168100000Y-80192381D01*
X168433334Y-81192381D01*
X177236667Y-105036667D02*
X177712858Y-105036667D01*
X177141429Y-105322381D02*
X177474762Y-104322381D01*
X177808096Y-105322381D01*
X178712858Y-105227143D02*
X178665239Y-105274762D01*
X178522382Y-105322381D01*
X178427144Y-105322381D01*
X178284286Y-105274762D01*
X178189048Y-105179524D01*
X178141429Y-105084286D01*
X178093810Y-104893810D01*
X178093810Y-104750952D01*
X178141429Y-104560476D01*
X178189048Y-104465238D01*
X178284286Y-104370000D01*
X178427144Y-104322381D01*
X178522382Y-104322381D01*
X178665239Y-104370000D01*
X178712858Y-104417619D01*
X178998572Y-104322381D02*
X179570001Y-104322381D01*
X179284286Y-105322381D02*
X179284286Y-104322381D01*
X179903334Y-105227143D02*
X179950953Y-105274762D01*
X179903334Y-105322381D01*
X179855715Y-105274762D01*
X179903334Y-105227143D01*
X179903334Y-105322381D01*
X180903334Y-105322381D02*
X180331905Y-105322381D01*
X180617619Y-105322381D02*
X180617619Y-104322381D01*
X180522381Y-104465238D01*
X180427143Y-104560476D01*
X180331905Y-104608095D01*
X178506667Y-80906667D02*
X178982858Y-80906667D01*
X178411429Y-81192381D02*
X178744762Y-80192381D01*
X179078096Y-81192381D01*
X179982858Y-81097143D02*
X179935239Y-81144762D01*
X179792382Y-81192381D01*
X179697144Y-81192381D01*
X179554286Y-81144762D01*
X179459048Y-81049524D01*
X179411429Y-80954286D01*
X179363810Y-80763810D01*
X179363810Y-80620952D01*
X179411429Y-80430476D01*
X179459048Y-80335238D01*
X179554286Y-80240000D01*
X179697144Y-80192381D01*
X179792382Y-80192381D01*
X179935239Y-80240000D01*
X179982858Y-80287619D01*
X180268572Y-80192381D02*
X180840001Y-80192381D01*
X180554286Y-81192381D02*
X180554286Y-80192381D01*
X181173334Y-81097143D02*
X181220953Y-81144762D01*
X181173334Y-81192381D01*
X181125715Y-81144762D01*
X181173334Y-81097143D01*
X181173334Y-81192381D01*
X181601905Y-80287619D02*
X181649524Y-80240000D01*
X181744762Y-80192381D01*
X181982858Y-80192381D01*
X182078096Y-80240000D01*
X182125715Y-80287619D01*
X182173334Y-80382857D01*
X182173334Y-80478095D01*
X182125715Y-80620952D01*
X181554286Y-81192381D01*
X182173334Y-81192381D01*
X172553334Y-105322381D02*
X172220000Y-104846190D01*
X171981905Y-105322381D02*
X171981905Y-104322381D01*
X172362858Y-104322381D01*
X172458096Y-104370000D01*
X172505715Y-104417619D01*
X172553334Y-104512857D01*
X172553334Y-104655714D01*
X172505715Y-104750952D01*
X172458096Y-104798571D01*
X172362858Y-104846190D01*
X171981905Y-104846190D01*
X173505715Y-105322381D02*
X172934286Y-105322381D01*
X173220000Y-105322381D02*
X173220000Y-104322381D01*
X173124762Y-104465238D01*
X173029524Y-104560476D01*
X172934286Y-104608095D01*
X173823334Y-81192381D02*
X173490000Y-80716190D01*
X173251905Y-81192381D02*
X173251905Y-80192381D01*
X173632858Y-80192381D01*
X173728096Y-80240000D01*
X173775715Y-80287619D01*
X173823334Y-80382857D01*
X173823334Y-80525714D01*
X173775715Y-80620952D01*
X173728096Y-80668571D01*
X173632858Y-80716190D01*
X173251905Y-80716190D01*
X174204286Y-80287619D02*
X174251905Y-80240000D01*
X174347143Y-80192381D01*
X174585239Y-80192381D01*
X174680477Y-80240000D01*
X174728096Y-80287619D01*
X174775715Y-80382857D01*
X174775715Y-80478095D01*
X174728096Y-80620952D01*
X174156667Y-81192381D01*
X174775715Y-81192381D01*
X150067143Y-100734762D02*
X150162381Y-100782381D01*
X150352857Y-100782381D01*
X150448096Y-100734762D01*
X150495715Y-100639524D01*
X150495715Y-100591905D01*
X150448096Y-100496667D01*
X150352857Y-100449048D01*
X150210000Y-100449048D01*
X150114762Y-100401429D01*
X150067143Y-100306190D01*
X150067143Y-100258571D01*
X150114762Y-100163333D01*
X150210000Y-100115714D01*
X150352857Y-100115714D01*
X150448096Y-100163333D01*
X151352858Y-100734762D02*
X151257620Y-100782381D01*
X151067143Y-100782381D01*
X150971905Y-100734762D01*
X150924286Y-100687143D01*
X150876667Y-100591905D01*
X150876667Y-100306190D01*
X150924286Y-100210952D01*
X150971905Y-100163333D01*
X151067143Y-100115714D01*
X151257620Y-100115714D01*
X151352858Y-100163333D01*
X151733810Y-100734762D02*
X151829048Y-100782381D01*
X152019524Y-100782381D01*
X152114763Y-100734762D01*
X152162382Y-100639524D01*
X152162382Y-100591905D01*
X152114763Y-100496667D01*
X152019524Y-100449048D01*
X151876667Y-100449048D01*
X151781429Y-100401429D01*
X151733810Y-100306190D01*
X151733810Y-100258571D01*
X151781429Y-100163333D01*
X151876667Y-100115714D01*
X152019524Y-100115714D01*
X152114763Y-100163333D01*
X152590953Y-100782381D02*
X152590953Y-100115714D01*
X152590953Y-99782381D02*
X152543334Y-99830000D01*
X152590953Y-99877619D01*
X152638572Y-99830000D01*
X152590953Y-99782381D01*
X152590953Y-99877619D01*
X153067143Y-100687143D02*
X153114762Y-100734762D01*
X153067143Y-100782381D01*
X153019524Y-100734762D01*
X153067143Y-100687143D01*
X153067143Y-100782381D01*
X153971905Y-100782381D02*
X153971905Y-99782381D01*
X153971905Y-100734762D02*
X153876667Y-100782381D01*
X153686190Y-100782381D01*
X153590952Y-100734762D01*
X153543333Y-100687143D01*
X153495714Y-100591905D01*
X153495714Y-100306190D01*
X153543333Y-100210952D01*
X153590952Y-100163333D01*
X153686190Y-100115714D01*
X153876667Y-100115714D01*
X153971905Y-100163333D01*
X154829048Y-100734762D02*
X154733810Y-100782381D01*
X154543333Y-100782381D01*
X154448095Y-100734762D01*
X154400476Y-100639524D01*
X154400476Y-100258571D01*
X154448095Y-100163333D01*
X154543333Y-100115714D01*
X154733810Y-100115714D01*
X154829048Y-100163333D01*
X154876667Y-100258571D01*
X154876667Y-100353810D01*
X154400476Y-100449048D01*
X155210000Y-100115714D02*
X155448095Y-100782381D01*
X155686191Y-100115714D01*
X156067143Y-100782381D02*
X156067143Y-100115714D01*
X156067143Y-99782381D02*
X156019524Y-99830000D01*
X156067143Y-99877619D01*
X156114762Y-99830000D01*
X156067143Y-99782381D01*
X156067143Y-99877619D01*
X156971905Y-100734762D02*
X156876667Y-100782381D01*
X156686190Y-100782381D01*
X156590952Y-100734762D01*
X156543333Y-100687143D01*
X156495714Y-100591905D01*
X156495714Y-100306190D01*
X156543333Y-100210952D01*
X156590952Y-100163333D01*
X156686190Y-100115714D01*
X156876667Y-100115714D01*
X156971905Y-100163333D01*
X157781429Y-100734762D02*
X157686191Y-100782381D01*
X157495714Y-100782381D01*
X157400476Y-100734762D01*
X157352857Y-100639524D01*
X157352857Y-100258571D01*
X157400476Y-100163333D01*
X157495714Y-100115714D01*
X157686191Y-100115714D01*
X157781429Y-100163333D01*
X157829048Y-100258571D01*
X157829048Y-100353810D01*
X157352857Y-100449048D01*
X158257619Y-100687143D02*
X158305238Y-100734762D01*
X158257619Y-100782381D01*
X158210000Y-100734762D01*
X158257619Y-100687143D01*
X158257619Y-100782381D01*
X158733809Y-100782381D02*
X158733809Y-99782381D01*
X158733809Y-100163333D02*
X158829047Y-100115714D01*
X159019524Y-100115714D01*
X159114762Y-100163333D01*
X159162381Y-100210952D01*
X159210000Y-100306190D01*
X159210000Y-100591905D01*
X159162381Y-100687143D01*
X159114762Y-100734762D01*
X159019524Y-100782381D01*
X158829047Y-100782381D01*
X158733809Y-100734762D01*
X160067143Y-100115714D02*
X160067143Y-100782381D01*
X159638571Y-100115714D02*
X159638571Y-100639524D01*
X159686190Y-100734762D01*
X159781428Y-100782381D01*
X159924286Y-100782381D01*
X160019524Y-100734762D01*
X160067143Y-100687143D01*
X160495714Y-100734762D02*
X160590952Y-100782381D01*
X160781428Y-100782381D01*
X160876667Y-100734762D01*
X160924286Y-100639524D01*
X160924286Y-100591905D01*
X160876667Y-100496667D01*
X160781428Y-100449048D01*
X160638571Y-100449048D01*
X160543333Y-100401429D01*
X160495714Y-100306190D01*
X160495714Y-100258571D01*
X160543333Y-100163333D01*
X160638571Y-100115714D01*
X160781428Y-100115714D01*
X160876667Y-100163333D01*
X161352857Y-100687143D02*
X161400476Y-100734762D01*
X161352857Y-100782381D01*
X161305238Y-100734762D01*
X161352857Y-100687143D01*
X161352857Y-100782381D01*
X162352857Y-100782381D02*
X161781428Y-100782381D01*
X162067142Y-100782381D02*
X162067142Y-99782381D01*
X161971904Y-99925238D01*
X161876666Y-100020476D01*
X161781428Y-100068095D01*
M02*
