G04 #@! TF.FileFunction,Legend,Top*
%FSLAX46Y46*%
G04 Gerber Fmt 4.6, Leading zero omitted, Abs format (unit mm)*
G04 Created by KiCad (PCBNEW 4.0.2+dfsg1-stable) date Fri 01 Mar 2019 22:17:21 CET*
%MOMM*%
G01*
G04 APERTURE LIST*
%ADD10C,0.100000*%
%ADD11C,0.500000*%
%ADD12C,0.150000*%
%ADD13C,0.300000*%
%ADD14C,0.120000*%
%ADD15C,0.010000*%
G04 APERTURE END LIST*
D10*
D11*
X136210000Y-120284762D02*
X134543333Y-119332381D01*
X133352857Y-120284762D02*
X133352857Y-118284762D01*
X135257619Y-118284762D01*
X135733810Y-118380000D01*
X135971905Y-118475238D01*
X136210000Y-118665714D01*
X136210000Y-118951429D01*
X135971905Y-119141905D01*
X135733810Y-119237143D01*
X135257619Y-119332381D01*
X133352857Y-119332381D01*
X138352857Y-119237143D02*
X140019524Y-119237143D01*
X140733810Y-120284762D02*
X138352857Y-120284762D01*
X138352857Y-118284762D01*
X140733810Y-118284762D01*
X142162381Y-118284762D02*
X145019524Y-118284762D01*
X143590953Y-120284762D02*
X143590953Y-118284762D01*
X149543334Y-120284762D02*
X147876667Y-119332381D01*
X146686191Y-120284762D02*
X146686191Y-118284762D01*
X148590953Y-118284762D01*
X149067144Y-118380000D01*
X149305239Y-118475238D01*
X149543334Y-118665714D01*
X149543334Y-118951429D01*
X149305239Y-119141905D01*
X149067144Y-119237143D01*
X148590953Y-119332381D01*
X146686191Y-119332381D01*
X152638572Y-118284762D02*
X153590953Y-118284762D01*
X154067144Y-118380000D01*
X154543334Y-118570476D01*
X154781429Y-118951429D01*
X154781429Y-119618095D01*
X154543334Y-119999048D01*
X154067144Y-120189524D01*
X153590953Y-120284762D01*
X152638572Y-120284762D01*
X152162382Y-120189524D01*
X151686191Y-119999048D01*
X151448096Y-119618095D01*
X151448096Y-118951429D01*
X151686191Y-118570476D01*
X152162382Y-118380000D01*
X152638572Y-118284762D01*
X158590953Y-119237143D02*
X159305239Y-119332381D01*
X159543334Y-119427619D01*
X159781429Y-119618095D01*
X159781429Y-119903810D01*
X159543334Y-120094286D01*
X159305239Y-120189524D01*
X158829048Y-120284762D01*
X156924286Y-120284762D01*
X156924286Y-118284762D01*
X158590953Y-118284762D01*
X159067143Y-118380000D01*
X159305239Y-118475238D01*
X159543334Y-118665714D01*
X159543334Y-118856190D01*
X159305239Y-119046667D01*
X159067143Y-119141905D01*
X158590953Y-119237143D01*
X156924286Y-119237143D01*
X161924286Y-120284762D02*
X161924286Y-118284762D01*
X163590952Y-118284762D02*
X166448095Y-118284762D01*
X165019524Y-120284762D02*
X165019524Y-118284762D01*
X170495715Y-120284762D02*
X168114762Y-120284762D01*
X168114762Y-118284762D01*
X171924286Y-119713333D02*
X174305238Y-119713333D01*
X171448095Y-120284762D02*
X173114762Y-118284762D01*
X174781429Y-120284762D01*
X178114762Y-119237143D02*
X178829048Y-119332381D01*
X179067143Y-119427619D01*
X179305238Y-119618095D01*
X179305238Y-119903810D01*
X179067143Y-120094286D01*
X178829048Y-120189524D01*
X178352857Y-120284762D01*
X176448095Y-120284762D01*
X176448095Y-118284762D01*
X178114762Y-118284762D01*
X178590952Y-118380000D01*
X178829048Y-118475238D01*
X179067143Y-118665714D01*
X179067143Y-118856190D01*
X178829048Y-119046667D01*
X178590952Y-119141905D01*
X178114762Y-119237143D01*
X176448095Y-119237143D01*
D12*
X122434110Y-102625921D02*
X122999795Y-102060235D01*
X122461047Y-102598983D02*
X122380235Y-102572046D01*
X122272486Y-102464297D01*
X122245548Y-102383484D01*
X122245548Y-102329609D01*
X122272486Y-102248797D01*
X122434110Y-102087172D01*
X122514922Y-102060235D01*
X122568797Y-102060235D01*
X122649610Y-102087172D01*
X122757359Y-102194922D01*
X122784296Y-102275735D01*
X122945921Y-103083857D02*
X122865109Y-103056920D01*
X122757359Y-102949170D01*
X122730421Y-102868358D01*
X122757359Y-102787545D01*
X122972859Y-102572046D01*
X123053670Y-102545109D01*
X123134483Y-102572046D01*
X123242233Y-102679796D01*
X123269170Y-102760608D01*
X123242232Y-102841420D01*
X123188357Y-102895295D01*
X122865109Y-102679796D01*
X123188357Y-103326294D02*
X123215294Y-103407105D01*
X123323044Y-103514855D01*
X123403856Y-103541793D01*
X123484669Y-103514855D01*
X123511606Y-103487918D01*
X123538544Y-103407105D01*
X123511606Y-103326293D01*
X123430794Y-103245481D01*
X123403856Y-103164669D01*
X123430794Y-103083856D01*
X123457732Y-103056919D01*
X123538543Y-103029982D01*
X123619356Y-103056919D01*
X123700168Y-103137731D01*
X123727105Y-103218544D01*
X123646293Y-103838104D02*
X124023417Y-103460980D01*
X124211978Y-103272418D02*
X124158104Y-103272418D01*
X124158104Y-103326293D01*
X124211978Y-103326293D01*
X124211978Y-103272418D01*
X124158104Y-103326293D01*
X124535227Y-103972790D02*
X124077291Y-104430726D01*
X123996479Y-104457664D01*
X123942605Y-104457664D01*
X123861792Y-104430726D01*
X123780981Y-104349914D01*
X123754043Y-104269102D01*
X124185040Y-104322977D02*
X124104229Y-104296040D01*
X123996479Y-104188290D01*
X123969541Y-104107478D01*
X123969542Y-104053602D01*
X123996479Y-103972791D01*
X124158104Y-103811166D01*
X124238916Y-103784229D01*
X124292790Y-103784229D01*
X124373603Y-103811166D01*
X124481353Y-103918916D01*
X124508289Y-103999728D01*
X124804602Y-104242165D02*
X124427478Y-104619289D01*
X124750727Y-104296040D02*
X124804601Y-104296040D01*
X124885414Y-104322977D01*
X124966227Y-104403789D01*
X124993163Y-104484602D01*
X124966226Y-104565413D01*
X124669914Y-104861725D01*
X125181725Y-105319662D02*
X125100913Y-105292724D01*
X124993164Y-105184975D01*
X124966226Y-105104162D01*
X124993164Y-105023350D01*
X125208663Y-104807851D01*
X125289475Y-104780913D01*
X125370288Y-104807851D01*
X125478038Y-104915600D01*
X125504974Y-104996413D01*
X125478037Y-105077224D01*
X125424162Y-105131100D01*
X125100913Y-104915600D01*
X125666598Y-105858409D02*
X126232284Y-105292724D01*
X125693535Y-105831472D02*
X125612724Y-105804535D01*
X125504974Y-105696785D01*
X125478036Y-105615973D01*
X125478037Y-105562097D01*
X125504974Y-105481286D01*
X125666599Y-105319661D01*
X125747411Y-105292724D01*
X125801285Y-105292724D01*
X125882098Y-105319661D01*
X125989848Y-105427411D01*
X126016784Y-105508223D01*
X126366971Y-106558782D02*
X126932657Y-105993097D01*
X126717157Y-106208596D02*
X126797970Y-106235533D01*
X126905720Y-106343283D01*
X126932657Y-106424095D01*
X126932657Y-106477970D01*
X126905720Y-106558782D01*
X126744095Y-106720407D01*
X126663283Y-106747343D01*
X126609408Y-106747344D01*
X126528596Y-106720407D01*
X126420846Y-106612657D01*
X126393908Y-106531845D01*
X127202032Y-106639595D02*
X126959595Y-107151405D01*
X127471405Y-106908968D02*
X126959595Y-107151405D01*
X126771032Y-107232217D01*
X126717158Y-107232217D01*
X126636346Y-107205280D01*
X128064028Y-108255839D02*
X128144841Y-107797903D01*
X127740779Y-107932590D02*
X128306465Y-107366905D01*
X128521964Y-107582404D01*
X128548902Y-107663216D01*
X128548902Y-107717091D01*
X128521964Y-107797903D01*
X128441152Y-107878715D01*
X128360340Y-107905653D01*
X128306465Y-107905653D01*
X128225653Y-107878715D01*
X128010154Y-107663216D01*
X128360340Y-108444400D02*
X128360339Y-108498276D01*
X128306465Y-108498276D01*
X128306465Y-108444401D01*
X128360340Y-108444400D01*
X128306465Y-108498276D01*
X129410898Y-108525213D02*
X129383960Y-108444400D01*
X129303149Y-108363589D01*
X129195399Y-108309714D01*
X129087649Y-108309713D01*
X129006837Y-108336651D01*
X128872150Y-108417463D01*
X128791338Y-108498276D01*
X128710525Y-108632962D01*
X128683588Y-108713774D01*
X128683588Y-108821525D01*
X128737463Y-108929274D01*
X128791338Y-108983149D01*
X128899087Y-109037024D01*
X128952962Y-109037023D01*
X129141524Y-108848462D01*
X129033774Y-108740712D01*
X129195399Y-109279460D02*
X129195398Y-109333335D01*
X129141524Y-109333335D01*
X129141524Y-109279460D01*
X129195399Y-109279460D01*
X129141524Y-109333335D01*
X129895771Y-109063960D02*
X129949646Y-109063960D01*
X130030458Y-109090898D01*
X130165145Y-109225585D01*
X130192082Y-109306397D01*
X130192083Y-109360272D01*
X130165145Y-109441084D01*
X130111271Y-109494959D01*
X130003521Y-109548834D01*
X129357023Y-109548834D01*
X129707209Y-109899020D01*
X130623081Y-109683521D02*
X130676956Y-109737396D01*
X130703893Y-109818208D01*
X130703893Y-109872082D01*
X130676956Y-109952895D01*
X130596144Y-110087582D01*
X130461457Y-110222269D01*
X130326770Y-110303082D01*
X130245957Y-110330018D01*
X130192082Y-110330019D01*
X130111271Y-110303082D01*
X130057395Y-110249206D01*
X130030458Y-110168395D01*
X130030458Y-110114519D01*
X130057395Y-110033707D01*
X130138208Y-109899020D01*
X130272895Y-109764333D01*
X130407582Y-109683521D01*
X130488394Y-109656583D01*
X130542269Y-109656584D01*
X130623081Y-109683521D01*
X130784706Y-110976517D02*
X130461457Y-110653268D01*
X130623081Y-110814892D02*
X131188766Y-110249206D01*
X131054080Y-110276144D01*
X130946330Y-110276144D01*
X130865518Y-110249206D01*
X131054079Y-111245890D02*
X131161829Y-111353640D01*
X131242641Y-111380578D01*
X131296517Y-111380577D01*
X131431203Y-111353641D01*
X131565890Y-111272828D01*
X131781390Y-111057329D01*
X131808328Y-110976517D01*
X131808327Y-110922641D01*
X131781390Y-110841830D01*
X131673640Y-110734080D01*
X131592828Y-110707142D01*
X131538953Y-110707142D01*
X131458141Y-110734080D01*
X131323454Y-110868767D01*
X131296517Y-110949579D01*
X131296516Y-111003454D01*
X131323454Y-111084266D01*
X131431203Y-111192016D01*
X131512015Y-111218953D01*
X131565891Y-111218953D01*
X131646703Y-111192016D01*
D13*
X121242857Y-79418571D02*
X121242857Y-77918571D01*
X121957143Y-79418571D02*
X121957143Y-77918571D01*
X122814286Y-79418571D01*
X122814286Y-77918571D01*
X123314286Y-77918571D02*
X124171429Y-77918571D01*
X123742858Y-79418571D02*
X123742858Y-77918571D01*
X124671429Y-78632857D02*
X125171429Y-78632857D01*
X125385715Y-79418571D02*
X124671429Y-79418571D01*
X124671429Y-77918571D01*
X125385715Y-77918571D01*
X126885715Y-79418571D02*
X126385715Y-78704286D01*
X126028572Y-79418571D02*
X126028572Y-77918571D01*
X126600000Y-77918571D01*
X126742858Y-77990000D01*
X126814286Y-78061429D01*
X126885715Y-78204286D01*
X126885715Y-78418571D01*
X126814286Y-78561429D01*
X126742858Y-78632857D01*
X126600000Y-78704286D01*
X126028572Y-78704286D01*
X127528572Y-79418571D02*
X127528572Y-77918571D01*
X128385715Y-79418571D01*
X128385715Y-77918571D01*
X129028572Y-78990000D02*
X129742858Y-78990000D01*
X128885715Y-79418571D02*
X129385715Y-77918571D01*
X129885715Y-79418571D01*
X131100001Y-79418571D02*
X130385715Y-79418571D01*
X130385715Y-77918571D01*
X133385715Y-78418571D02*
X133385715Y-79418571D01*
X133028572Y-77847143D02*
X132671429Y-78918571D01*
X133600001Y-78918571D01*
X134171429Y-79418571D02*
X134171429Y-77918571D01*
X134885715Y-79418571D02*
X134885715Y-77918571D01*
X135242858Y-77918571D01*
X135457143Y-77990000D01*
X135600001Y-78132857D01*
X135671429Y-78275714D01*
X135742858Y-78561429D01*
X135742858Y-78775714D01*
X135671429Y-79061429D01*
X135600001Y-79204286D01*
X135457143Y-79347143D01*
X135242858Y-79418571D01*
X134885715Y-79418571D01*
X136385715Y-78632857D02*
X136885715Y-78632857D01*
X137100001Y-79418571D02*
X136385715Y-79418571D01*
X136385715Y-77918571D01*
X137100001Y-77918571D01*
X137671429Y-78990000D02*
X138385715Y-78990000D01*
X137528572Y-79418571D02*
X138028572Y-77918571D01*
X138528572Y-79418571D01*
X139671429Y-79418571D02*
X139671429Y-77918571D01*
X139671429Y-79347143D02*
X139528572Y-79418571D01*
X139242858Y-79418571D01*
X139100000Y-79347143D01*
X139028572Y-79275714D01*
X138957143Y-79132857D01*
X138957143Y-78704286D01*
X139028572Y-78561429D01*
X139100000Y-78490000D01*
X139242858Y-78418571D01*
X139528572Y-78418571D01*
X139671429Y-78490000D01*
X141028572Y-79418571D02*
X141028572Y-78632857D01*
X140957143Y-78490000D01*
X140814286Y-78418571D01*
X140528572Y-78418571D01*
X140385715Y-78490000D01*
X141028572Y-79347143D02*
X140885715Y-79418571D01*
X140528572Y-79418571D01*
X140385715Y-79347143D01*
X140314286Y-79204286D01*
X140314286Y-79061429D01*
X140385715Y-78918571D01*
X140528572Y-78847143D01*
X140885715Y-78847143D01*
X141028572Y-78775714D01*
X141742858Y-78418571D02*
X141742858Y-79918571D01*
X141742858Y-78490000D02*
X141885715Y-78418571D01*
X142171429Y-78418571D01*
X142314286Y-78490000D01*
X142385715Y-78561429D01*
X142457144Y-78704286D01*
X142457144Y-79132857D01*
X142385715Y-79275714D01*
X142314286Y-79347143D01*
X142171429Y-79418571D01*
X141885715Y-79418571D01*
X141742858Y-79347143D01*
X142885715Y-78418571D02*
X143457144Y-78418571D01*
X143100001Y-77918571D02*
X143100001Y-79204286D01*
X143171429Y-79347143D01*
X143314287Y-79418571D01*
X143457144Y-79418571D01*
X144528572Y-79347143D02*
X144385715Y-79418571D01*
X144100001Y-79418571D01*
X143957144Y-79347143D01*
X143885715Y-79204286D01*
X143885715Y-78632857D01*
X143957144Y-78490000D01*
X144100001Y-78418571D01*
X144385715Y-78418571D01*
X144528572Y-78490000D01*
X144600001Y-78632857D01*
X144600001Y-78775714D01*
X143885715Y-78918571D01*
X145242858Y-79418571D02*
X145242858Y-78418571D01*
X145242858Y-78704286D02*
X145314286Y-78561429D01*
X145385715Y-78490000D01*
X145528572Y-78418571D01*
X145671429Y-78418571D01*
D14*
X132334000Y-75438000D02*
X132080000Y-74930000D01*
X131826000Y-75438000D02*
X132334000Y-75438000D01*
X132080000Y-74930000D02*
X131826000Y-75438000D01*
X120340000Y-65410000D02*
X192080000Y-65410000D01*
X120340000Y-65410000D02*
X120340000Y-74290000D01*
X192080000Y-74290000D02*
X192080000Y-65410000D01*
X192080000Y-74290000D02*
X120340000Y-74290000D01*
D12*
X169672000Y-127508000D02*
X169672000Y-132842000D01*
X169672000Y-132842000D02*
X141478000Y-132842000D01*
X141478000Y-132842000D02*
X141478000Y-127508000D01*
X141478000Y-127508000D02*
X169672000Y-127508000D01*
X188840000Y-100550000D02*
X185240000Y-100550000D01*
X188840000Y-102650000D02*
X185240000Y-102650000D01*
X186790000Y-101900000D02*
X186790000Y-101300000D01*
X186790000Y-101300000D02*
X187090000Y-101600000D01*
X187090000Y-101600000D02*
X186890000Y-101800000D01*
X186890000Y-101800000D02*
X186890000Y-101550000D01*
X186890000Y-101550000D02*
X186940000Y-101600000D01*
X187190000Y-102100000D02*
X187190000Y-101100000D01*
X186690000Y-101600000D02*
X186190000Y-101600000D01*
X187190000Y-101600000D02*
X186690000Y-102100000D01*
X186690000Y-102100000D02*
X186690000Y-101100000D01*
X186690000Y-101100000D02*
X187190000Y-101600000D01*
X190110000Y-76420000D02*
X186510000Y-76420000D01*
X190110000Y-78520000D02*
X186510000Y-78520000D01*
X188060000Y-77770000D02*
X188060000Y-77170000D01*
X188060000Y-77170000D02*
X188360000Y-77470000D01*
X188360000Y-77470000D02*
X188160000Y-77670000D01*
X188160000Y-77670000D02*
X188160000Y-77420000D01*
X188160000Y-77420000D02*
X188210000Y-77470000D01*
X188460000Y-77970000D02*
X188460000Y-76970000D01*
X187960000Y-77470000D02*
X187460000Y-77470000D01*
X188460000Y-77470000D02*
X187960000Y-77970000D01*
X187960000Y-77970000D02*
X187960000Y-76970000D01*
X187960000Y-76970000D02*
X188460000Y-77470000D01*
D10*
X179340000Y-100600000D02*
X181340000Y-100600000D01*
X181340000Y-102600000D02*
X179340000Y-102600000D01*
X180610000Y-76470000D02*
X182610000Y-76470000D01*
X182610000Y-78470000D02*
X180610000Y-78470000D01*
D14*
X132334000Y-99568000D02*
X132080000Y-99060000D01*
X131826000Y-99568000D02*
X132334000Y-99568000D01*
X132080000Y-99060000D02*
X131826000Y-99568000D01*
X120340000Y-89540000D02*
X192080000Y-89540000D01*
X120340000Y-89540000D02*
X120340000Y-98420000D01*
X192080000Y-98420000D02*
X192080000Y-89540000D01*
X192080000Y-98420000D02*
X120340000Y-98420000D01*
D12*
X172470000Y-78740000D02*
X173020000Y-78290000D01*
X173020000Y-78290000D02*
X173020000Y-79190000D01*
X173020000Y-79190000D02*
X172470000Y-78740000D01*
X172470000Y-78190000D02*
X172470000Y-79290000D01*
X170920860Y-80490060D02*
X170920860Y-80139540D01*
X170920860Y-76989940D02*
X170920860Y-77340460D01*
X174970440Y-80490060D02*
X174970440Y-80139540D01*
X170469560Y-80490060D02*
X170469560Y-80139540D01*
X170469560Y-76989940D02*
X170469560Y-77340460D01*
X174970440Y-76989940D02*
X174970440Y-77340460D01*
X170469560Y-80490060D02*
X174970440Y-80490060D01*
X170469560Y-76989940D02*
X174970440Y-76989940D01*
X171200000Y-102870000D02*
X171750000Y-102420000D01*
X171750000Y-102420000D02*
X171750000Y-103320000D01*
X171750000Y-103320000D02*
X171200000Y-102870000D01*
X171200000Y-102320000D02*
X171200000Y-103420000D01*
X169650860Y-104620060D02*
X169650860Y-104269540D01*
X169650860Y-101119940D02*
X169650860Y-101470460D01*
X173700440Y-104620060D02*
X173700440Y-104269540D01*
X169199560Y-104620060D02*
X169199560Y-104269540D01*
X169199560Y-101119940D02*
X169199560Y-101470460D01*
X173700440Y-101119940D02*
X173700440Y-101470460D01*
X169199560Y-104620060D02*
X173700440Y-104620060D01*
X169199560Y-101119940D02*
X173700440Y-101119940D01*
D15*
G36*
X148339911Y-107151660D02*
X148689460Y-107151707D01*
X148852170Y-107151714D01*
X151456571Y-107151715D01*
X151456571Y-107305238D01*
X151472957Y-107492063D01*
X151522412Y-107664367D01*
X151605380Y-107823175D01*
X151722305Y-107969510D01*
X151761864Y-108009032D01*
X151904170Y-108121138D01*
X152061078Y-108202899D01*
X152227928Y-108254353D01*
X152400061Y-108275537D01*
X152572815Y-108266487D01*
X152741530Y-108227242D01*
X152901546Y-108157838D01*
X153048202Y-108058311D01*
X153114068Y-107998265D01*
X153236808Y-107851043D01*
X153326812Y-107689147D01*
X153383294Y-107514427D01*
X153405471Y-107328735D01*
X153405766Y-107310467D01*
X153406928Y-107151720D01*
X153476700Y-107151717D01*
X153538595Y-107160118D01*
X153595135Y-107180556D01*
X153598872Y-107182667D01*
X153611642Y-107189293D01*
X153623368Y-107194454D01*
X153634094Y-107199651D01*
X153643861Y-107206390D01*
X153652712Y-107216171D01*
X153660689Y-107230500D01*
X153667835Y-107250878D01*
X153674192Y-107278808D01*
X153679802Y-107315795D01*
X153684707Y-107363340D01*
X153688951Y-107422947D01*
X153692576Y-107496119D01*
X153695623Y-107584359D01*
X153698136Y-107689170D01*
X153700156Y-107812055D01*
X153701726Y-107954517D01*
X153702888Y-108118060D01*
X153703686Y-108304186D01*
X153704160Y-108514398D01*
X153704354Y-108750200D01*
X153704310Y-109013094D01*
X153704070Y-109304584D01*
X153703677Y-109626172D01*
X153703173Y-109979362D01*
X153702600Y-110365657D01*
X153702001Y-110786560D01*
X153701932Y-110837840D01*
X153701395Y-111261426D01*
X153700939Y-111650230D01*
X153700516Y-112005753D01*
X153700079Y-112329498D01*
X153699578Y-112622966D01*
X153698965Y-112887661D01*
X153698192Y-113125085D01*
X153697211Y-113336740D01*
X153695974Y-113524129D01*
X153694432Y-113688754D01*
X153692537Y-113832117D01*
X153690241Y-113955720D01*
X153687496Y-114061067D01*
X153684253Y-114149659D01*
X153680464Y-114223000D01*
X153676081Y-114282590D01*
X153671055Y-114329933D01*
X153665339Y-114366531D01*
X153658884Y-114393886D01*
X153651641Y-114413502D01*
X153643563Y-114426879D01*
X153634602Y-114435521D01*
X153624708Y-114440930D01*
X153613835Y-114444608D01*
X153601933Y-114448058D01*
X153588954Y-114452782D01*
X153585783Y-114454220D01*
X153575819Y-114457451D01*
X153559141Y-114460420D01*
X153534293Y-114463137D01*
X153499820Y-114465613D01*
X153454264Y-114467858D01*
X153396170Y-114469883D01*
X153324081Y-114471698D01*
X153236542Y-114473315D01*
X153132095Y-114474743D01*
X153009285Y-114475993D01*
X152866655Y-114477076D01*
X152702749Y-114478002D01*
X152516110Y-114478782D01*
X152305284Y-114479426D01*
X152068812Y-114479946D01*
X151805239Y-114480351D01*
X151513110Y-114480652D01*
X151190966Y-114480860D01*
X150837353Y-114480985D01*
X150450814Y-114481038D01*
X150029892Y-114481029D01*
X149893544Y-114481016D01*
X149463284Y-114480947D01*
X149067836Y-114480834D01*
X148705727Y-114480665D01*
X148375483Y-114480430D01*
X148075629Y-114480116D01*
X147804692Y-114479713D01*
X147561200Y-114479207D01*
X147343677Y-114478589D01*
X147150650Y-114477846D01*
X146980646Y-114476968D01*
X146832190Y-114475941D01*
X146703810Y-114474756D01*
X146594031Y-114473400D01*
X146501380Y-114471862D01*
X146424383Y-114470130D01*
X146361566Y-114468194D01*
X146311456Y-114466040D01*
X146272579Y-114463659D01*
X146243462Y-114461037D01*
X146222629Y-114458165D01*
X146208609Y-114455030D01*
X146200966Y-114452159D01*
X146187382Y-114446430D01*
X146174910Y-114442206D01*
X146163502Y-114437985D01*
X146153111Y-114432268D01*
X146143691Y-114423555D01*
X146135192Y-114410345D01*
X146127570Y-114391137D01*
X146120775Y-114364433D01*
X146114762Y-114328730D01*
X146109483Y-114282530D01*
X146104890Y-114224332D01*
X146100936Y-114152635D01*
X146097575Y-114065940D01*
X146094759Y-113962746D01*
X146092440Y-113841553D01*
X146090572Y-113700860D01*
X146090084Y-113646857D01*
X146574296Y-113646857D01*
X148285744Y-113646857D01*
X148252813Y-113596964D01*
X148220053Y-113545693D01*
X148192311Y-113496869D01*
X148169193Y-113447076D01*
X148150303Y-113392898D01*
X148135249Y-113330916D01*
X148123633Y-113257715D01*
X148115064Y-113169878D01*
X148109144Y-113063988D01*
X148105481Y-112936628D01*
X148103679Y-112784381D01*
X148103344Y-112603832D01*
X148104081Y-112391562D01*
X148104499Y-112312755D01*
X148109214Y-111467911D01*
X148644428Y-112196557D01*
X148796054Y-112403265D01*
X148927419Y-112583260D01*
X149039943Y-112738925D01*
X149135043Y-112872647D01*
X149214138Y-112986809D01*
X149278647Y-113083797D01*
X149329988Y-113165994D01*
X149369580Y-113235786D01*
X149398840Y-113295558D01*
X149419188Y-113347693D01*
X149432042Y-113394576D01*
X149438819Y-113438593D01*
X149440940Y-113482127D01*
X149439821Y-113527564D01*
X149439536Y-113533275D01*
X149433643Y-113646933D01*
X151309229Y-113646857D01*
X151169722Y-113506189D01*
X151131865Y-113467715D01*
X151095953Y-113430279D01*
X151060407Y-113391814D01*
X151023653Y-113350258D01*
X150984114Y-113303545D01*
X150940214Y-113249610D01*
X150890377Y-113186390D01*
X150833028Y-113111818D01*
X150766589Y-113023832D01*
X150689485Y-112920365D01*
X150600139Y-112799354D01*
X150496976Y-112658734D01*
X150378420Y-112496440D01*
X150242895Y-112310407D01*
X150088823Y-112098571D01*
X149962538Y-111924804D01*
X149804046Y-111706501D01*
X149665784Y-111515629D01*
X149546501Y-111350374D01*
X149444943Y-111208926D01*
X149359859Y-111089471D01*
X149289995Y-110990198D01*
X149234100Y-110909295D01*
X149190920Y-110844949D01*
X149159203Y-110795347D01*
X149137698Y-110758679D01*
X149125150Y-110733132D01*
X149120308Y-110716893D01*
X149121763Y-110708355D01*
X149139401Y-110685635D01*
X149177534Y-110637543D01*
X149233862Y-110566938D01*
X149306084Y-110476678D01*
X149391899Y-110369621D01*
X149489006Y-110248627D01*
X149595104Y-110116554D01*
X149707891Y-109976260D01*
X149825068Y-109830603D01*
X149944333Y-109682444D01*
X150009933Y-109601000D01*
X151638686Y-109601000D01*
X151706379Y-109723465D01*
X151774071Y-109845929D01*
X151774071Y-113401929D01*
X151706379Y-113524393D01*
X151638686Y-113646857D01*
X152439441Y-113646857D01*
X152630602Y-113646802D01*
X152788499Y-113646551D01*
X152916152Y-113645979D01*
X153016581Y-113644959D01*
X153092807Y-113643365D01*
X153147852Y-113641070D01*
X153184736Y-113637950D01*
X153206479Y-113633877D01*
X153216102Y-113628725D01*
X153216627Y-113622367D01*
X153211074Y-113614679D01*
X153211016Y-113614615D01*
X153188140Y-113581524D01*
X153157849Y-113527719D01*
X153131097Y-113474008D01*
X153080357Y-113365643D01*
X153075182Y-111483322D01*
X153070007Y-109601000D01*
X151638686Y-109601000D01*
X150009933Y-109601000D01*
X150063385Y-109534639D01*
X150179923Y-109390047D01*
X150291646Y-109251528D01*
X150396254Y-109121939D01*
X150491444Y-109004140D01*
X150574917Y-108900988D01*
X150644371Y-108815343D01*
X150697506Y-108750062D01*
X150728715Y-108712000D01*
X150849903Y-108569670D01*
X150966493Y-108441230D01*
X151074397Y-108330886D01*
X151169530Y-108242841D01*
X151237043Y-108188862D01*
X151316873Y-108131429D01*
X149480892Y-108131429D01*
X149481408Y-108239165D01*
X149476276Y-108318372D01*
X149456985Y-108391805D01*
X149427123Y-108461415D01*
X149407712Y-108500741D01*
X149386841Y-108539707D01*
X149362604Y-108580901D01*
X149333094Y-108626908D01*
X149296406Y-108680317D01*
X149250632Y-108743714D01*
X149193865Y-108819685D01*
X149124200Y-108910817D01*
X149039730Y-109019698D01*
X148938547Y-109148914D01*
X148818747Y-109301052D01*
X148678421Y-109478698D01*
X148662571Y-109498742D01*
X148109214Y-110198508D01*
X148103857Y-109423504D01*
X148102779Y-109191368D01*
X148103008Y-108994846D01*
X148104557Y-108833292D01*
X148107437Y-108706056D01*
X148111659Y-108612492D01*
X148117234Y-108551952D01*
X148119107Y-108540468D01*
X148148505Y-108419499D01*
X148187022Y-108310446D01*
X148230974Y-108222763D01*
X148257379Y-108185574D01*
X148302940Y-108131429D01*
X147438470Y-108131429D01*
X147232255Y-108131605D01*
X147059812Y-108132179D01*
X146918627Y-108133217D01*
X146806188Y-108134787D01*
X146719983Y-108136954D01*
X146657498Y-108139788D01*
X146616221Y-108143353D01*
X146593640Y-108147718D01*
X146587241Y-108152949D01*
X146587683Y-108154107D01*
X146606009Y-108181769D01*
X146636604Y-108225615D01*
X146652433Y-108247791D01*
X146668798Y-108269920D01*
X146683508Y-108289709D01*
X146696656Y-108309106D01*
X146708333Y-108330058D01*
X146718632Y-108354512D01*
X146727646Y-108384416D01*
X146735468Y-108421717D01*
X146742191Y-108468363D01*
X146747906Y-108526301D01*
X146752707Y-108597479D01*
X146756685Y-108683844D01*
X146759935Y-108787344D01*
X146762548Y-108909925D01*
X146764617Y-109053537D01*
X146766234Y-109220125D01*
X146767493Y-109411637D01*
X146768485Y-109630022D01*
X146769304Y-109877226D01*
X146770042Y-110155196D01*
X146770791Y-110465881D01*
X146771492Y-110751300D01*
X146772153Y-111069492D01*
X146772497Y-111373077D01*
X146772532Y-111660115D01*
X146772268Y-111928669D01*
X146771715Y-112176798D01*
X146770880Y-112402563D01*
X146769773Y-112604026D01*
X146768404Y-112779246D01*
X146766781Y-112926286D01*
X146764913Y-113043206D01*
X146762811Y-113128067D01*
X146760482Y-113178929D01*
X146760041Y-113184304D01*
X146743992Y-113307613D01*
X146718936Y-113406644D01*
X146680779Y-113493070D01*
X146625428Y-113578565D01*
X146618504Y-113587893D01*
X146574296Y-113646857D01*
X146090084Y-113646857D01*
X146089108Y-113539168D01*
X146087999Y-113354976D01*
X146087199Y-113146784D01*
X146086661Y-112913091D01*
X146086338Y-112652398D01*
X146086183Y-112363204D01*
X146086146Y-112044009D01*
X146086183Y-111693313D01*
X146086245Y-111309614D01*
X146086285Y-110891414D01*
X146086286Y-110808393D01*
X146086309Y-110385789D01*
X146086388Y-109997981D01*
X146086533Y-109643480D01*
X146086756Y-109320797D01*
X146087069Y-109028442D01*
X146087483Y-108764927D01*
X146088009Y-108528762D01*
X146088660Y-108318458D01*
X146089447Y-108132526D01*
X146090381Y-107969475D01*
X146091474Y-107827818D01*
X146092737Y-107706064D01*
X146094183Y-107602725D01*
X146095821Y-107516311D01*
X146097666Y-107445333D01*
X146099726Y-107388301D01*
X146102015Y-107343727D01*
X146104544Y-107310121D01*
X146107324Y-107285993D01*
X146110367Y-107269856D01*
X146113684Y-107260218D01*
X146113807Y-107259978D01*
X146120640Y-107245255D01*
X146126330Y-107231926D01*
X146132626Y-107219922D01*
X146141272Y-107209173D01*
X146154014Y-107199611D01*
X146172600Y-107191167D01*
X146198774Y-107183771D01*
X146234284Y-107177354D01*
X146280875Y-107171848D01*
X146340293Y-107167183D01*
X146414285Y-107163291D01*
X146504597Y-107160102D01*
X146612975Y-107157547D01*
X146741165Y-107155558D01*
X146890913Y-107154065D01*
X147063966Y-107152998D01*
X147262069Y-107152291D01*
X147486969Y-107151872D01*
X147740412Y-107151673D01*
X148024144Y-107151626D01*
X148339911Y-107151660D01*
X148339911Y-107151660D01*
G37*
X148339911Y-107151660D02*
X148689460Y-107151707D01*
X148852170Y-107151714D01*
X151456571Y-107151715D01*
X151456571Y-107305238D01*
X151472957Y-107492063D01*
X151522412Y-107664367D01*
X151605380Y-107823175D01*
X151722305Y-107969510D01*
X151761864Y-108009032D01*
X151904170Y-108121138D01*
X152061078Y-108202899D01*
X152227928Y-108254353D01*
X152400061Y-108275537D01*
X152572815Y-108266487D01*
X152741530Y-108227242D01*
X152901546Y-108157838D01*
X153048202Y-108058311D01*
X153114068Y-107998265D01*
X153236808Y-107851043D01*
X153326812Y-107689147D01*
X153383294Y-107514427D01*
X153405471Y-107328735D01*
X153405766Y-107310467D01*
X153406928Y-107151720D01*
X153476700Y-107151717D01*
X153538595Y-107160118D01*
X153595135Y-107180556D01*
X153598872Y-107182667D01*
X153611642Y-107189293D01*
X153623368Y-107194454D01*
X153634094Y-107199651D01*
X153643861Y-107206390D01*
X153652712Y-107216171D01*
X153660689Y-107230500D01*
X153667835Y-107250878D01*
X153674192Y-107278808D01*
X153679802Y-107315795D01*
X153684707Y-107363340D01*
X153688951Y-107422947D01*
X153692576Y-107496119D01*
X153695623Y-107584359D01*
X153698136Y-107689170D01*
X153700156Y-107812055D01*
X153701726Y-107954517D01*
X153702888Y-108118060D01*
X153703686Y-108304186D01*
X153704160Y-108514398D01*
X153704354Y-108750200D01*
X153704310Y-109013094D01*
X153704070Y-109304584D01*
X153703677Y-109626172D01*
X153703173Y-109979362D01*
X153702600Y-110365657D01*
X153702001Y-110786560D01*
X153701932Y-110837840D01*
X153701395Y-111261426D01*
X153700939Y-111650230D01*
X153700516Y-112005753D01*
X153700079Y-112329498D01*
X153699578Y-112622966D01*
X153698965Y-112887661D01*
X153698192Y-113125085D01*
X153697211Y-113336740D01*
X153695974Y-113524129D01*
X153694432Y-113688754D01*
X153692537Y-113832117D01*
X153690241Y-113955720D01*
X153687496Y-114061067D01*
X153684253Y-114149659D01*
X153680464Y-114223000D01*
X153676081Y-114282590D01*
X153671055Y-114329933D01*
X153665339Y-114366531D01*
X153658884Y-114393886D01*
X153651641Y-114413502D01*
X153643563Y-114426879D01*
X153634602Y-114435521D01*
X153624708Y-114440930D01*
X153613835Y-114444608D01*
X153601933Y-114448058D01*
X153588954Y-114452782D01*
X153585783Y-114454220D01*
X153575819Y-114457451D01*
X153559141Y-114460420D01*
X153534293Y-114463137D01*
X153499820Y-114465613D01*
X153454264Y-114467858D01*
X153396170Y-114469883D01*
X153324081Y-114471698D01*
X153236542Y-114473315D01*
X153132095Y-114474743D01*
X153009285Y-114475993D01*
X152866655Y-114477076D01*
X152702749Y-114478002D01*
X152516110Y-114478782D01*
X152305284Y-114479426D01*
X152068812Y-114479946D01*
X151805239Y-114480351D01*
X151513110Y-114480652D01*
X151190966Y-114480860D01*
X150837353Y-114480985D01*
X150450814Y-114481038D01*
X150029892Y-114481029D01*
X149893544Y-114481016D01*
X149463284Y-114480947D01*
X149067836Y-114480834D01*
X148705727Y-114480665D01*
X148375483Y-114480430D01*
X148075629Y-114480116D01*
X147804692Y-114479713D01*
X147561200Y-114479207D01*
X147343677Y-114478589D01*
X147150650Y-114477846D01*
X146980646Y-114476968D01*
X146832190Y-114475941D01*
X146703810Y-114474756D01*
X146594031Y-114473400D01*
X146501380Y-114471862D01*
X146424383Y-114470130D01*
X146361566Y-114468194D01*
X146311456Y-114466040D01*
X146272579Y-114463659D01*
X146243462Y-114461037D01*
X146222629Y-114458165D01*
X146208609Y-114455030D01*
X146200966Y-114452159D01*
X146187382Y-114446430D01*
X146174910Y-114442206D01*
X146163502Y-114437985D01*
X146153111Y-114432268D01*
X146143691Y-114423555D01*
X146135192Y-114410345D01*
X146127570Y-114391137D01*
X146120775Y-114364433D01*
X146114762Y-114328730D01*
X146109483Y-114282530D01*
X146104890Y-114224332D01*
X146100936Y-114152635D01*
X146097575Y-114065940D01*
X146094759Y-113962746D01*
X146092440Y-113841553D01*
X146090572Y-113700860D01*
X146090084Y-113646857D01*
X146574296Y-113646857D01*
X148285744Y-113646857D01*
X148252813Y-113596964D01*
X148220053Y-113545693D01*
X148192311Y-113496869D01*
X148169193Y-113447076D01*
X148150303Y-113392898D01*
X148135249Y-113330916D01*
X148123633Y-113257715D01*
X148115064Y-113169878D01*
X148109144Y-113063988D01*
X148105481Y-112936628D01*
X148103679Y-112784381D01*
X148103344Y-112603832D01*
X148104081Y-112391562D01*
X148104499Y-112312755D01*
X148109214Y-111467911D01*
X148644428Y-112196557D01*
X148796054Y-112403265D01*
X148927419Y-112583260D01*
X149039943Y-112738925D01*
X149135043Y-112872647D01*
X149214138Y-112986809D01*
X149278647Y-113083797D01*
X149329988Y-113165994D01*
X149369580Y-113235786D01*
X149398840Y-113295558D01*
X149419188Y-113347693D01*
X149432042Y-113394576D01*
X149438819Y-113438593D01*
X149440940Y-113482127D01*
X149439821Y-113527564D01*
X149439536Y-113533275D01*
X149433643Y-113646933D01*
X151309229Y-113646857D01*
X151169722Y-113506189D01*
X151131865Y-113467715D01*
X151095953Y-113430279D01*
X151060407Y-113391814D01*
X151023653Y-113350258D01*
X150984114Y-113303545D01*
X150940214Y-113249610D01*
X150890377Y-113186390D01*
X150833028Y-113111818D01*
X150766589Y-113023832D01*
X150689485Y-112920365D01*
X150600139Y-112799354D01*
X150496976Y-112658734D01*
X150378420Y-112496440D01*
X150242895Y-112310407D01*
X150088823Y-112098571D01*
X149962538Y-111924804D01*
X149804046Y-111706501D01*
X149665784Y-111515629D01*
X149546501Y-111350374D01*
X149444943Y-111208926D01*
X149359859Y-111089471D01*
X149289995Y-110990198D01*
X149234100Y-110909295D01*
X149190920Y-110844949D01*
X149159203Y-110795347D01*
X149137698Y-110758679D01*
X149125150Y-110733132D01*
X149120308Y-110716893D01*
X149121763Y-110708355D01*
X149139401Y-110685635D01*
X149177534Y-110637543D01*
X149233862Y-110566938D01*
X149306084Y-110476678D01*
X149391899Y-110369621D01*
X149489006Y-110248627D01*
X149595104Y-110116554D01*
X149707891Y-109976260D01*
X149825068Y-109830603D01*
X149944333Y-109682444D01*
X150009933Y-109601000D01*
X151638686Y-109601000D01*
X151706379Y-109723465D01*
X151774071Y-109845929D01*
X151774071Y-113401929D01*
X151706379Y-113524393D01*
X151638686Y-113646857D01*
X152439441Y-113646857D01*
X152630602Y-113646802D01*
X152788499Y-113646551D01*
X152916152Y-113645979D01*
X153016581Y-113644959D01*
X153092807Y-113643365D01*
X153147852Y-113641070D01*
X153184736Y-113637950D01*
X153206479Y-113633877D01*
X153216102Y-113628725D01*
X153216627Y-113622367D01*
X153211074Y-113614679D01*
X153211016Y-113614615D01*
X153188140Y-113581524D01*
X153157849Y-113527719D01*
X153131097Y-113474008D01*
X153080357Y-113365643D01*
X153075182Y-111483322D01*
X153070007Y-109601000D01*
X151638686Y-109601000D01*
X150009933Y-109601000D01*
X150063385Y-109534639D01*
X150179923Y-109390047D01*
X150291646Y-109251528D01*
X150396254Y-109121939D01*
X150491444Y-109004140D01*
X150574917Y-108900988D01*
X150644371Y-108815343D01*
X150697506Y-108750062D01*
X150728715Y-108712000D01*
X150849903Y-108569670D01*
X150966493Y-108441230D01*
X151074397Y-108330886D01*
X151169530Y-108242841D01*
X151237043Y-108188862D01*
X151316873Y-108131429D01*
X149480892Y-108131429D01*
X149481408Y-108239165D01*
X149476276Y-108318372D01*
X149456985Y-108391805D01*
X149427123Y-108461415D01*
X149407712Y-108500741D01*
X149386841Y-108539707D01*
X149362604Y-108580901D01*
X149333094Y-108626908D01*
X149296406Y-108680317D01*
X149250632Y-108743714D01*
X149193865Y-108819685D01*
X149124200Y-108910817D01*
X149039730Y-109019698D01*
X148938547Y-109148914D01*
X148818747Y-109301052D01*
X148678421Y-109478698D01*
X148662571Y-109498742D01*
X148109214Y-110198508D01*
X148103857Y-109423504D01*
X148102779Y-109191368D01*
X148103008Y-108994846D01*
X148104557Y-108833292D01*
X148107437Y-108706056D01*
X148111659Y-108612492D01*
X148117234Y-108551952D01*
X148119107Y-108540468D01*
X148148505Y-108419499D01*
X148187022Y-108310446D01*
X148230974Y-108222763D01*
X148257379Y-108185574D01*
X148302940Y-108131429D01*
X147438470Y-108131429D01*
X147232255Y-108131605D01*
X147059812Y-108132179D01*
X146918627Y-108133217D01*
X146806188Y-108134787D01*
X146719983Y-108136954D01*
X146657498Y-108139788D01*
X146616221Y-108143353D01*
X146593640Y-108147718D01*
X146587241Y-108152949D01*
X146587683Y-108154107D01*
X146606009Y-108181769D01*
X146636604Y-108225615D01*
X146652433Y-108247791D01*
X146668798Y-108269920D01*
X146683508Y-108289709D01*
X146696656Y-108309106D01*
X146708333Y-108330058D01*
X146718632Y-108354512D01*
X146727646Y-108384416D01*
X146735468Y-108421717D01*
X146742191Y-108468363D01*
X146747906Y-108526301D01*
X146752707Y-108597479D01*
X146756685Y-108683844D01*
X146759935Y-108787344D01*
X146762548Y-108909925D01*
X146764617Y-109053537D01*
X146766234Y-109220125D01*
X146767493Y-109411637D01*
X146768485Y-109630022D01*
X146769304Y-109877226D01*
X146770042Y-110155196D01*
X146770791Y-110465881D01*
X146771492Y-110751300D01*
X146772153Y-111069492D01*
X146772497Y-111373077D01*
X146772532Y-111660115D01*
X146772268Y-111928669D01*
X146771715Y-112176798D01*
X146770880Y-112402563D01*
X146769773Y-112604026D01*
X146768404Y-112779246D01*
X146766781Y-112926286D01*
X146764913Y-113043206D01*
X146762811Y-113128067D01*
X146760482Y-113178929D01*
X146760041Y-113184304D01*
X146743992Y-113307613D01*
X146718936Y-113406644D01*
X146680779Y-113493070D01*
X146625428Y-113578565D01*
X146618504Y-113587893D01*
X146574296Y-113646857D01*
X146090084Y-113646857D01*
X146089108Y-113539168D01*
X146087999Y-113354976D01*
X146087199Y-113146784D01*
X146086661Y-112913091D01*
X146086338Y-112652398D01*
X146086183Y-112363204D01*
X146086146Y-112044009D01*
X146086183Y-111693313D01*
X146086245Y-111309614D01*
X146086285Y-110891414D01*
X146086286Y-110808393D01*
X146086309Y-110385789D01*
X146086388Y-109997981D01*
X146086533Y-109643480D01*
X146086756Y-109320797D01*
X146087069Y-109028442D01*
X146087483Y-108764927D01*
X146088009Y-108528762D01*
X146088660Y-108318458D01*
X146089447Y-108132526D01*
X146090381Y-107969475D01*
X146091474Y-107827818D01*
X146092737Y-107706064D01*
X146094183Y-107602725D01*
X146095821Y-107516311D01*
X146097666Y-107445333D01*
X146099726Y-107388301D01*
X146102015Y-107343727D01*
X146104544Y-107310121D01*
X146107324Y-107285993D01*
X146110367Y-107269856D01*
X146113684Y-107260218D01*
X146113807Y-107259978D01*
X146120640Y-107245255D01*
X146126330Y-107231926D01*
X146132626Y-107219922D01*
X146141272Y-107209173D01*
X146154014Y-107199611D01*
X146172600Y-107191167D01*
X146198774Y-107183771D01*
X146234284Y-107177354D01*
X146280875Y-107171848D01*
X146340293Y-107167183D01*
X146414285Y-107163291D01*
X146504597Y-107160102D01*
X146612975Y-107157547D01*
X146741165Y-107155558D01*
X146890913Y-107154065D01*
X147063966Y-107152998D01*
X147262069Y-107152291D01*
X147486969Y-107151872D01*
X147740412Y-107151673D01*
X148024144Y-107151626D01*
X148339911Y-107151660D01*
G36*
X156791378Y-108059231D02*
X156987019Y-108080649D01*
X157176562Y-108118985D01*
X157367717Y-108176238D01*
X157568196Y-108254409D01*
X157785708Y-108355496D01*
X157824880Y-108375076D01*
X157914772Y-108419362D01*
X157999553Y-108459239D01*
X158070855Y-108490898D01*
X158120310Y-108510532D01*
X158127908Y-108513004D01*
X158200714Y-108534817D01*
X157874803Y-109008944D01*
X157795123Y-109124823D01*
X157722272Y-109230694D01*
X157658730Y-109322962D01*
X157606972Y-109398033D01*
X157569477Y-109452313D01*
X157548723Y-109482207D01*
X157545351Y-109486941D01*
X157531655Y-109477042D01*
X157497943Y-109447285D01*
X157450244Y-109403073D01*
X157423920Y-109378084D01*
X157274772Y-109259456D01*
X157107268Y-109169313D01*
X156962928Y-109119936D01*
X156876283Y-109104429D01*
X156767796Y-109094979D01*
X156650227Y-109091761D01*
X156536334Y-109094951D01*
X156438879Y-109104724D01*
X156399990Y-109112209D01*
X156224712Y-109172512D01*
X156066765Y-109264590D01*
X155926268Y-109388273D01*
X155803335Y-109543393D01*
X155698085Y-109729781D01*
X155610635Y-109947270D01*
X155541100Y-110195692D01*
X155499775Y-110408357D01*
X155488994Y-110502241D01*
X155481648Y-110623524D01*
X155477667Y-110763493D01*
X155476979Y-110913431D01*
X155479514Y-111064622D01*
X155485200Y-111208351D01*
X155493967Y-111335903D01*
X155505744Y-111438562D01*
X155508293Y-111454401D01*
X155564481Y-111709536D01*
X155641036Y-111935342D01*
X155738426Y-112132831D01*
X155857114Y-112303014D01*
X155941363Y-112395022D01*
X156092770Y-112519943D01*
X156258817Y-112612540D01*
X156436701Y-112672309D01*
X156623622Y-112698746D01*
X156816778Y-112691348D01*
X157013369Y-112649611D01*
X157129597Y-112608771D01*
X157290438Y-112526990D01*
X157456213Y-112409678D01*
X157549073Y-112330345D01*
X157601214Y-112284429D01*
X157642180Y-112250742D01*
X157665498Y-112234510D01*
X157668393Y-112234015D01*
X157678800Y-112250601D01*
X157705767Y-112294432D01*
X157746996Y-112361748D01*
X157800189Y-112448794D01*
X157863050Y-112551810D01*
X157933281Y-112667041D01*
X157972372Y-112731231D01*
X158270964Y-113221677D01*
X157898161Y-113405915D01*
X157763369Y-113472093D01*
X157654175Y-113524278D01*
X157563907Y-113565060D01*
X157485888Y-113597033D01*
X157413444Y-113622787D01*
X157339901Y-113644914D01*
X157258584Y-113666007D01*
X157180643Y-113684530D01*
X157111366Y-113698863D01*
X157038917Y-113709694D01*
X156956042Y-113717626D01*
X156855488Y-113723258D01*
X156730003Y-113727192D01*
X156645428Y-113728891D01*
X156524754Y-113730050D01*
X156409042Y-113729465D01*
X156305951Y-113727304D01*
X156223138Y-113723732D01*
X156168260Y-113718917D01*
X156165008Y-113718437D01*
X155880043Y-113656786D01*
X155612442Y-113563285D01*
X155362297Y-113437993D01*
X155129704Y-113280974D01*
X154914757Y-113092289D01*
X154717550Y-112872000D01*
X154574727Y-112676214D01*
X154422680Y-112419949D01*
X154299773Y-112149317D01*
X154205410Y-111862149D01*
X154138999Y-111556276D01*
X154099944Y-111229528D01*
X154087640Y-110897739D01*
X154097759Y-110576779D01*
X154129561Y-110280646D01*
X154184054Y-110004345D01*
X154262250Y-109742881D01*
X154365159Y-109491258D01*
X154377447Y-109465190D01*
X154512820Y-109221507D01*
X154679089Y-108989618D01*
X154871541Y-108774323D01*
X155085466Y-108580422D01*
X155316155Y-108412715D01*
X155531109Y-108289696D01*
X155748258Y-108193345D01*
X155965868Y-108123551D01*
X156192362Y-108078413D01*
X156436166Y-108056031D01*
X156581928Y-108052731D01*
X156791378Y-108059231D01*
X156791378Y-108059231D01*
G37*
X156791378Y-108059231D02*
X156987019Y-108080649D01*
X157176562Y-108118985D01*
X157367717Y-108176238D01*
X157568196Y-108254409D01*
X157785708Y-108355496D01*
X157824880Y-108375076D01*
X157914772Y-108419362D01*
X157999553Y-108459239D01*
X158070855Y-108490898D01*
X158120310Y-108510532D01*
X158127908Y-108513004D01*
X158200714Y-108534817D01*
X157874803Y-109008944D01*
X157795123Y-109124823D01*
X157722272Y-109230694D01*
X157658730Y-109322962D01*
X157606972Y-109398033D01*
X157569477Y-109452313D01*
X157548723Y-109482207D01*
X157545351Y-109486941D01*
X157531655Y-109477042D01*
X157497943Y-109447285D01*
X157450244Y-109403073D01*
X157423920Y-109378084D01*
X157274772Y-109259456D01*
X157107268Y-109169313D01*
X156962928Y-109119936D01*
X156876283Y-109104429D01*
X156767796Y-109094979D01*
X156650227Y-109091761D01*
X156536334Y-109094951D01*
X156438879Y-109104724D01*
X156399990Y-109112209D01*
X156224712Y-109172512D01*
X156066765Y-109264590D01*
X155926268Y-109388273D01*
X155803335Y-109543393D01*
X155698085Y-109729781D01*
X155610635Y-109947270D01*
X155541100Y-110195692D01*
X155499775Y-110408357D01*
X155488994Y-110502241D01*
X155481648Y-110623524D01*
X155477667Y-110763493D01*
X155476979Y-110913431D01*
X155479514Y-111064622D01*
X155485200Y-111208351D01*
X155493967Y-111335903D01*
X155505744Y-111438562D01*
X155508293Y-111454401D01*
X155564481Y-111709536D01*
X155641036Y-111935342D01*
X155738426Y-112132831D01*
X155857114Y-112303014D01*
X155941363Y-112395022D01*
X156092770Y-112519943D01*
X156258817Y-112612540D01*
X156436701Y-112672309D01*
X156623622Y-112698746D01*
X156816778Y-112691348D01*
X157013369Y-112649611D01*
X157129597Y-112608771D01*
X157290438Y-112526990D01*
X157456213Y-112409678D01*
X157549073Y-112330345D01*
X157601214Y-112284429D01*
X157642180Y-112250742D01*
X157665498Y-112234510D01*
X157668393Y-112234015D01*
X157678800Y-112250601D01*
X157705767Y-112294432D01*
X157746996Y-112361748D01*
X157800189Y-112448794D01*
X157863050Y-112551810D01*
X157933281Y-112667041D01*
X157972372Y-112731231D01*
X158270964Y-113221677D01*
X157898161Y-113405915D01*
X157763369Y-113472093D01*
X157654175Y-113524278D01*
X157563907Y-113565060D01*
X157485888Y-113597033D01*
X157413444Y-113622787D01*
X157339901Y-113644914D01*
X157258584Y-113666007D01*
X157180643Y-113684530D01*
X157111366Y-113698863D01*
X157038917Y-113709694D01*
X156956042Y-113717626D01*
X156855488Y-113723258D01*
X156730003Y-113727192D01*
X156645428Y-113728891D01*
X156524754Y-113730050D01*
X156409042Y-113729465D01*
X156305951Y-113727304D01*
X156223138Y-113723732D01*
X156168260Y-113718917D01*
X156165008Y-113718437D01*
X155880043Y-113656786D01*
X155612442Y-113563285D01*
X155362297Y-113437993D01*
X155129704Y-113280974D01*
X154914757Y-113092289D01*
X154717550Y-112872000D01*
X154574727Y-112676214D01*
X154422680Y-112419949D01*
X154299773Y-112149317D01*
X154205410Y-111862149D01*
X154138999Y-111556276D01*
X154099944Y-111229528D01*
X154087640Y-110897739D01*
X154097759Y-110576779D01*
X154129561Y-110280646D01*
X154184054Y-110004345D01*
X154262250Y-109742881D01*
X154365159Y-109491258D01*
X154377447Y-109465190D01*
X154512820Y-109221507D01*
X154679089Y-108989618D01*
X154871541Y-108774323D01*
X155085466Y-108580422D01*
X155316155Y-108412715D01*
X155531109Y-108289696D01*
X155748258Y-108193345D01*
X155965868Y-108123551D01*
X156192362Y-108078413D01*
X156436166Y-108056031D01*
X156581928Y-108052731D01*
X156791378Y-108059231D01*
G36*
X160395632Y-109517730D02*
X160485523Y-109524535D01*
X160742715Y-109558753D01*
X160970485Y-109613331D01*
X161169943Y-109689020D01*
X161342197Y-109786570D01*
X161488359Y-109906732D01*
X161609536Y-110050258D01*
X161706839Y-110217898D01*
X161777891Y-110399286D01*
X161795927Y-110457146D01*
X161811632Y-110511329D01*
X161825192Y-110564752D01*
X161836792Y-110620333D01*
X161846617Y-110680988D01*
X161854853Y-110749635D01*
X161861684Y-110829190D01*
X161867295Y-110922572D01*
X161871872Y-111032696D01*
X161875600Y-111162481D01*
X161878665Y-111314842D01*
X161881250Y-111492698D01*
X161883542Y-111698965D01*
X161885725Y-111936561D01*
X161887286Y-112122857D01*
X161897785Y-113401929D01*
X161965821Y-113525018D01*
X161998038Y-113584317D01*
X162022012Y-113630377D01*
X162033450Y-113654893D01*
X162033857Y-113656553D01*
X162016375Y-113658454D01*
X161966574Y-113660205D01*
X161888421Y-113661758D01*
X161785882Y-113663062D01*
X161662922Y-113664070D01*
X161523510Y-113664731D01*
X161371611Y-113664997D01*
X161353500Y-113665000D01*
X160673143Y-113665000D01*
X160673143Y-113510786D01*
X160671982Y-113441094D01*
X160668887Y-113387794D01*
X160664432Y-113359217D01*
X160662463Y-113356572D01*
X160644455Y-113367653D01*
X160607393Y-113396736D01*
X160559222Y-113437579D01*
X160558141Y-113438524D01*
X160470235Y-113503971D01*
X160359217Y-113569688D01*
X160237631Y-113629219D01*
X160118021Y-113676109D01*
X160065357Y-113692133D01*
X159960551Y-113712485D01*
X159831950Y-113725472D01*
X159691325Y-113730909D01*
X159550448Y-113728611D01*
X159421093Y-113718392D01*
X159330571Y-113703689D01*
X159108580Y-113638499D01*
X158908729Y-113545594D01*
X158732319Y-113426126D01*
X158580650Y-113281247D01*
X158455024Y-113112110D01*
X158356741Y-112919867D01*
X158314341Y-112803214D01*
X158287768Y-112689833D01*
X158270158Y-112553722D01*
X158262010Y-112407437D01*
X158262278Y-112386151D01*
X159489321Y-112386151D01*
X159499496Y-112494850D01*
X159533378Y-112585185D01*
X159596000Y-112668995D01*
X159620052Y-112693571D01*
X159705551Y-112760011D01*
X159804373Y-112802574D01*
X159922768Y-112823177D01*
X160047445Y-112824694D01*
X160165698Y-112814677D01*
X160256239Y-112795085D01*
X160295560Y-112780370D01*
X160366432Y-112740265D01*
X160441525Y-112683863D01*
X160510038Y-112620561D01*
X160561172Y-112559755D01*
X160574750Y-112537449D01*
X160585305Y-112506212D01*
X160592810Y-112456507D01*
X160597613Y-112383587D01*
X160600065Y-112282703D01*
X160600571Y-112186689D01*
X160600228Y-112074750D01*
X160598843Y-111993809D01*
X160595881Y-111938585D01*
X160590808Y-111903794D01*
X160583090Y-111884154D01*
X160572192Y-111874380D01*
X160568821Y-111872824D01*
X160539529Y-111868029D01*
X160481756Y-111864108D01*
X160403304Y-111861414D01*
X160311974Y-111860299D01*
X160292143Y-111860298D01*
X160170063Y-111862246D01*
X160075749Y-111868041D01*
X160000807Y-111878475D01*
X159938903Y-111893714D01*
X159785349Y-111951784D01*
X159664932Y-112023179D01*
X159576610Y-112109039D01*
X159519339Y-112210507D01*
X159492078Y-112328725D01*
X159489321Y-112386151D01*
X158262278Y-112386151D01*
X158263823Y-112263533D01*
X158276096Y-112134565D01*
X158285670Y-112082460D01*
X158346801Y-111888997D01*
X158439757Y-111710993D01*
X158562783Y-111550155D01*
X158714124Y-111408190D01*
X158892025Y-111286806D01*
X159094732Y-111187709D01*
X159267071Y-111127533D01*
X159382253Y-111095919D01*
X159492423Y-111071354D01*
X159604719Y-111053039D01*
X159726275Y-111040178D01*
X159864229Y-111031972D01*
X160025715Y-111027624D01*
X160171715Y-111026400D01*
X160604645Y-111025215D01*
X160596351Y-110895080D01*
X160572801Y-110753883D01*
X160522703Y-110632518D01*
X160448191Y-110534017D01*
X160351399Y-110461409D01*
X160266171Y-110425979D01*
X160144056Y-110403650D01*
X159998683Y-110400443D01*
X159836867Y-110415177D01*
X159665422Y-110446670D01*
X159491163Y-110493740D01*
X159320904Y-110555203D01*
X159197176Y-110611417D01*
X159137647Y-110640283D01*
X159092242Y-110660443D01*
X159069150Y-110668310D01*
X159067897Y-110668058D01*
X159059929Y-110650437D01*
X159040031Y-110603733D01*
X159010077Y-110532418D01*
X158971939Y-110440969D01*
X158927488Y-110333859D01*
X158882305Y-110224549D01*
X158701667Y-109786740D01*
X158830155Y-109765636D01*
X158885846Y-109755047D01*
X158969564Y-109737263D01*
X159074139Y-109713898D01*
X159192399Y-109686565D01*
X159317172Y-109656881D01*
X159366857Y-109644818D01*
X159581807Y-109594962D01*
X159769995Y-109557584D01*
X159938446Y-109531927D01*
X160094186Y-109517235D01*
X160244240Y-109512755D01*
X160395632Y-109517730D01*
X160395632Y-109517730D01*
G37*
X160395632Y-109517730D02*
X160485523Y-109524535D01*
X160742715Y-109558753D01*
X160970485Y-109613331D01*
X161169943Y-109689020D01*
X161342197Y-109786570D01*
X161488359Y-109906732D01*
X161609536Y-110050258D01*
X161706839Y-110217898D01*
X161777891Y-110399286D01*
X161795927Y-110457146D01*
X161811632Y-110511329D01*
X161825192Y-110564752D01*
X161836792Y-110620333D01*
X161846617Y-110680988D01*
X161854853Y-110749635D01*
X161861684Y-110829190D01*
X161867295Y-110922572D01*
X161871872Y-111032696D01*
X161875600Y-111162481D01*
X161878665Y-111314842D01*
X161881250Y-111492698D01*
X161883542Y-111698965D01*
X161885725Y-111936561D01*
X161887286Y-112122857D01*
X161897785Y-113401929D01*
X161965821Y-113525018D01*
X161998038Y-113584317D01*
X162022012Y-113630377D01*
X162033450Y-113654893D01*
X162033857Y-113656553D01*
X162016375Y-113658454D01*
X161966574Y-113660205D01*
X161888421Y-113661758D01*
X161785882Y-113663062D01*
X161662922Y-113664070D01*
X161523510Y-113664731D01*
X161371611Y-113664997D01*
X161353500Y-113665000D01*
X160673143Y-113665000D01*
X160673143Y-113510786D01*
X160671982Y-113441094D01*
X160668887Y-113387794D01*
X160664432Y-113359217D01*
X160662463Y-113356572D01*
X160644455Y-113367653D01*
X160607393Y-113396736D01*
X160559222Y-113437579D01*
X160558141Y-113438524D01*
X160470235Y-113503971D01*
X160359217Y-113569688D01*
X160237631Y-113629219D01*
X160118021Y-113676109D01*
X160065357Y-113692133D01*
X159960551Y-113712485D01*
X159831950Y-113725472D01*
X159691325Y-113730909D01*
X159550448Y-113728611D01*
X159421093Y-113718392D01*
X159330571Y-113703689D01*
X159108580Y-113638499D01*
X158908729Y-113545594D01*
X158732319Y-113426126D01*
X158580650Y-113281247D01*
X158455024Y-113112110D01*
X158356741Y-112919867D01*
X158314341Y-112803214D01*
X158287768Y-112689833D01*
X158270158Y-112553722D01*
X158262010Y-112407437D01*
X158262278Y-112386151D01*
X159489321Y-112386151D01*
X159499496Y-112494850D01*
X159533378Y-112585185D01*
X159596000Y-112668995D01*
X159620052Y-112693571D01*
X159705551Y-112760011D01*
X159804373Y-112802574D01*
X159922768Y-112823177D01*
X160047445Y-112824694D01*
X160165698Y-112814677D01*
X160256239Y-112795085D01*
X160295560Y-112780370D01*
X160366432Y-112740265D01*
X160441525Y-112683863D01*
X160510038Y-112620561D01*
X160561172Y-112559755D01*
X160574750Y-112537449D01*
X160585305Y-112506212D01*
X160592810Y-112456507D01*
X160597613Y-112383587D01*
X160600065Y-112282703D01*
X160600571Y-112186689D01*
X160600228Y-112074750D01*
X160598843Y-111993809D01*
X160595881Y-111938585D01*
X160590808Y-111903794D01*
X160583090Y-111884154D01*
X160572192Y-111874380D01*
X160568821Y-111872824D01*
X160539529Y-111868029D01*
X160481756Y-111864108D01*
X160403304Y-111861414D01*
X160311974Y-111860299D01*
X160292143Y-111860298D01*
X160170063Y-111862246D01*
X160075749Y-111868041D01*
X160000807Y-111878475D01*
X159938903Y-111893714D01*
X159785349Y-111951784D01*
X159664932Y-112023179D01*
X159576610Y-112109039D01*
X159519339Y-112210507D01*
X159492078Y-112328725D01*
X159489321Y-112386151D01*
X158262278Y-112386151D01*
X158263823Y-112263533D01*
X158276096Y-112134565D01*
X158285670Y-112082460D01*
X158346801Y-111888997D01*
X158439757Y-111710993D01*
X158562783Y-111550155D01*
X158714124Y-111408190D01*
X158892025Y-111286806D01*
X159094732Y-111187709D01*
X159267071Y-111127533D01*
X159382253Y-111095919D01*
X159492423Y-111071354D01*
X159604719Y-111053039D01*
X159726275Y-111040178D01*
X159864229Y-111031972D01*
X160025715Y-111027624D01*
X160171715Y-111026400D01*
X160604645Y-111025215D01*
X160596351Y-110895080D01*
X160572801Y-110753883D01*
X160522703Y-110632518D01*
X160448191Y-110534017D01*
X160351399Y-110461409D01*
X160266171Y-110425979D01*
X160144056Y-110403650D01*
X159998683Y-110400443D01*
X159836867Y-110415177D01*
X159665422Y-110446670D01*
X159491163Y-110493740D01*
X159320904Y-110555203D01*
X159197176Y-110611417D01*
X159137647Y-110640283D01*
X159092242Y-110660443D01*
X159069150Y-110668310D01*
X159067897Y-110668058D01*
X159059929Y-110650437D01*
X159040031Y-110603733D01*
X159010077Y-110532418D01*
X158971939Y-110440969D01*
X158927488Y-110333859D01*
X158882305Y-110224549D01*
X158701667Y-109786740D01*
X158830155Y-109765636D01*
X158885846Y-109755047D01*
X158969564Y-109737263D01*
X159074139Y-109713898D01*
X159192399Y-109686565D01*
X159317172Y-109656881D01*
X159366857Y-109644818D01*
X159581807Y-109594962D01*
X159769995Y-109557584D01*
X159938446Y-109531927D01*
X160094186Y-109517235D01*
X160244240Y-109512755D01*
X160395632Y-109517730D01*
G36*
X165251571Y-107790089D02*
X165405876Y-107790723D01*
X165458321Y-107791042D01*
X166179500Y-107795786D01*
X166188571Y-110562572D01*
X166189769Y-110937756D01*
X166190832Y-111278417D01*
X166191827Y-111586318D01*
X166192823Y-111863221D01*
X166193888Y-112110888D01*
X166195091Y-112331081D01*
X166196499Y-112525562D01*
X166198182Y-112696094D01*
X166200206Y-112844440D01*
X166202641Y-112972361D01*
X166205554Y-113081620D01*
X166209015Y-113173979D01*
X166213090Y-113251200D01*
X166217849Y-113315046D01*
X166223360Y-113367278D01*
X166229691Y-113409660D01*
X166236910Y-113443953D01*
X166245085Y-113471920D01*
X166254285Y-113495324D01*
X166264577Y-113515925D01*
X166276031Y-113535487D01*
X166288715Y-113555772D01*
X166302695Y-113578543D01*
X166305561Y-113583393D01*
X166353640Y-113665433D01*
X164963928Y-113655929D01*
X164954857Y-113503295D01*
X164949918Y-113430045D01*
X164944771Y-113387696D01*
X164937786Y-113370892D01*
X164927337Y-113374277D01*
X164918571Y-113383960D01*
X164880388Y-113419229D01*
X164818155Y-113464563D01*
X164740641Y-113514546D01*
X164656613Y-113563761D01*
X164574839Y-113606791D01*
X164512052Y-113635101D01*
X164364954Y-113681624D01*
X164196180Y-113714579D01*
X164018191Y-113732707D01*
X163843447Y-113734750D01*
X163684407Y-113719447D01*
X163681788Y-113719009D01*
X163464168Y-113664402D01*
X163260455Y-113577401D01*
X163072613Y-113459876D01*
X162902607Y-113313697D01*
X162752402Y-113140734D01*
X162623964Y-112942857D01*
X162519257Y-112721936D01*
X162462246Y-112558286D01*
X162424651Y-112421375D01*
X162396771Y-112288798D01*
X162377753Y-112152502D01*
X162366745Y-112004433D01*
X162362895Y-111836537D01*
X162364600Y-111699440D01*
X163703359Y-111699440D01*
X163709694Y-111929329D01*
X163729679Y-112127111D01*
X163763927Y-112294539D01*
X163813055Y-112433369D01*
X163877676Y-112545358D01*
X163958405Y-112632259D01*
X164051591Y-112693692D01*
X164100080Y-112716626D01*
X164142134Y-112730375D01*
X164189020Y-112736666D01*
X164252004Y-112737222D01*
X164319857Y-112734773D01*
X164453295Y-112723004D01*
X164558832Y-112699955D01*
X164592000Y-112688410D01*
X164667735Y-112654311D01*
X164747614Y-112611491D01*
X164782500Y-112590057D01*
X164873214Y-112530556D01*
X164873214Y-110644584D01*
X164773428Y-110584771D01*
X164634267Y-110517185D01*
X164492087Y-110477214D01*
X164352090Y-110464622D01*
X164219474Y-110479173D01*
X164099440Y-110520632D01*
X163997188Y-110588763D01*
X163964195Y-110621466D01*
X163884667Y-110728619D01*
X163820299Y-110858327D01*
X163770553Y-111012814D01*
X163734891Y-111194302D01*
X163712775Y-111405015D01*
X163703667Y-111647175D01*
X163703359Y-111699440D01*
X162364600Y-111699440D01*
X162365310Y-111642374D01*
X162380605Y-111343713D01*
X162411358Y-111074325D01*
X162458381Y-110830285D01*
X162522482Y-110607670D01*
X162604472Y-110402556D01*
X162633730Y-110341746D01*
X162751581Y-110143440D01*
X162893996Y-109967212D01*
X163057629Y-109815908D01*
X163239131Y-109692371D01*
X163435153Y-109599447D01*
X163552655Y-109561115D01*
X163668054Y-109538359D01*
X163806907Y-109524820D01*
X163957574Y-109520492D01*
X164108413Y-109525368D01*
X164247785Y-109539444D01*
X164359691Y-109561525D01*
X164492884Y-109604828D01*
X164621979Y-109660511D01*
X164734928Y-109722936D01*
X164795043Y-109765303D01*
X164836510Y-109796807D01*
X164865545Y-109815990D01*
X164872150Y-109818714D01*
X164874198Y-109801163D01*
X164876107Y-109750875D01*
X164877836Y-109671400D01*
X164879341Y-109566286D01*
X164880581Y-109439083D01*
X164881513Y-109293339D01*
X164882095Y-109132603D01*
X164882286Y-108968884D01*
X164882179Y-108759188D01*
X164881658Y-108582396D01*
X164880416Y-108435126D01*
X164878148Y-108313997D01*
X164874550Y-108215627D01*
X164869317Y-108136634D01*
X164862144Y-108073638D01*
X164852726Y-108023255D01*
X164840758Y-107982105D01*
X164825935Y-107946806D01*
X164807952Y-107913977D01*
X164786505Y-107880235D01*
X164783745Y-107876057D01*
X164756083Y-107832356D01*
X164739382Y-107802305D01*
X164737143Y-107795967D01*
X164754643Y-107793967D01*
X164804574Y-107792340D01*
X164883085Y-107791112D01*
X164986323Y-107790311D01*
X165110436Y-107789961D01*
X165251571Y-107790089D01*
X165251571Y-107790089D01*
G37*
X165251571Y-107790089D02*
X165405876Y-107790723D01*
X165458321Y-107791042D01*
X166179500Y-107795786D01*
X166188571Y-110562572D01*
X166189769Y-110937756D01*
X166190832Y-111278417D01*
X166191827Y-111586318D01*
X166192823Y-111863221D01*
X166193888Y-112110888D01*
X166195091Y-112331081D01*
X166196499Y-112525562D01*
X166198182Y-112696094D01*
X166200206Y-112844440D01*
X166202641Y-112972361D01*
X166205554Y-113081620D01*
X166209015Y-113173979D01*
X166213090Y-113251200D01*
X166217849Y-113315046D01*
X166223360Y-113367278D01*
X166229691Y-113409660D01*
X166236910Y-113443953D01*
X166245085Y-113471920D01*
X166254285Y-113495324D01*
X166264577Y-113515925D01*
X166276031Y-113535487D01*
X166288715Y-113555772D01*
X166302695Y-113578543D01*
X166305561Y-113583393D01*
X166353640Y-113665433D01*
X164963928Y-113655929D01*
X164954857Y-113503295D01*
X164949918Y-113430045D01*
X164944771Y-113387696D01*
X164937786Y-113370892D01*
X164927337Y-113374277D01*
X164918571Y-113383960D01*
X164880388Y-113419229D01*
X164818155Y-113464563D01*
X164740641Y-113514546D01*
X164656613Y-113563761D01*
X164574839Y-113606791D01*
X164512052Y-113635101D01*
X164364954Y-113681624D01*
X164196180Y-113714579D01*
X164018191Y-113732707D01*
X163843447Y-113734750D01*
X163684407Y-113719447D01*
X163681788Y-113719009D01*
X163464168Y-113664402D01*
X163260455Y-113577401D01*
X163072613Y-113459876D01*
X162902607Y-113313697D01*
X162752402Y-113140734D01*
X162623964Y-112942857D01*
X162519257Y-112721936D01*
X162462246Y-112558286D01*
X162424651Y-112421375D01*
X162396771Y-112288798D01*
X162377753Y-112152502D01*
X162366745Y-112004433D01*
X162362895Y-111836537D01*
X162364600Y-111699440D01*
X163703359Y-111699440D01*
X163709694Y-111929329D01*
X163729679Y-112127111D01*
X163763927Y-112294539D01*
X163813055Y-112433369D01*
X163877676Y-112545358D01*
X163958405Y-112632259D01*
X164051591Y-112693692D01*
X164100080Y-112716626D01*
X164142134Y-112730375D01*
X164189020Y-112736666D01*
X164252004Y-112737222D01*
X164319857Y-112734773D01*
X164453295Y-112723004D01*
X164558832Y-112699955D01*
X164592000Y-112688410D01*
X164667735Y-112654311D01*
X164747614Y-112611491D01*
X164782500Y-112590057D01*
X164873214Y-112530556D01*
X164873214Y-110644584D01*
X164773428Y-110584771D01*
X164634267Y-110517185D01*
X164492087Y-110477214D01*
X164352090Y-110464622D01*
X164219474Y-110479173D01*
X164099440Y-110520632D01*
X163997188Y-110588763D01*
X163964195Y-110621466D01*
X163884667Y-110728619D01*
X163820299Y-110858327D01*
X163770553Y-111012814D01*
X163734891Y-111194302D01*
X163712775Y-111405015D01*
X163703667Y-111647175D01*
X163703359Y-111699440D01*
X162364600Y-111699440D01*
X162365310Y-111642374D01*
X162380605Y-111343713D01*
X162411358Y-111074325D01*
X162458381Y-110830285D01*
X162522482Y-110607670D01*
X162604472Y-110402556D01*
X162633730Y-110341746D01*
X162751581Y-110143440D01*
X162893996Y-109967212D01*
X163057629Y-109815908D01*
X163239131Y-109692371D01*
X163435153Y-109599447D01*
X163552655Y-109561115D01*
X163668054Y-109538359D01*
X163806907Y-109524820D01*
X163957574Y-109520492D01*
X164108413Y-109525368D01*
X164247785Y-109539444D01*
X164359691Y-109561525D01*
X164492884Y-109604828D01*
X164621979Y-109660511D01*
X164734928Y-109722936D01*
X164795043Y-109765303D01*
X164836510Y-109796807D01*
X164865545Y-109815990D01*
X164872150Y-109818714D01*
X164874198Y-109801163D01*
X164876107Y-109750875D01*
X164877836Y-109671400D01*
X164879341Y-109566286D01*
X164880581Y-109439083D01*
X164881513Y-109293339D01*
X164882095Y-109132603D01*
X164882286Y-108968884D01*
X164882179Y-108759188D01*
X164881658Y-108582396D01*
X164880416Y-108435126D01*
X164878148Y-108313997D01*
X164874550Y-108215627D01*
X164869317Y-108136634D01*
X164862144Y-108073638D01*
X164852726Y-108023255D01*
X164840758Y-107982105D01*
X164825935Y-107946806D01*
X164807952Y-107913977D01*
X164786505Y-107880235D01*
X164783745Y-107876057D01*
X164756083Y-107832356D01*
X164739382Y-107802305D01*
X164737143Y-107795967D01*
X164754643Y-107793967D01*
X164804574Y-107792340D01*
X164883085Y-107791112D01*
X164986323Y-107790311D01*
X165110436Y-107789961D01*
X165251571Y-107790089D01*
G36*
X152607682Y-106573933D02*
X152743929Y-106621172D01*
X152870779Y-106695527D01*
X152984067Y-106796987D01*
X153079628Y-106925543D01*
X153122554Y-107006572D01*
X153159705Y-107119908D01*
X153177712Y-107250751D01*
X153175717Y-107385265D01*
X153153577Y-107507158D01*
X153093064Y-107656107D01*
X153005314Y-107785309D01*
X152894788Y-107892223D01*
X152765946Y-107974306D01*
X152623247Y-108029016D01*
X152471151Y-108053810D01*
X152314119Y-108046147D01*
X152236714Y-108029772D01*
X152085859Y-107971089D01*
X151951875Y-107881543D01*
X151837994Y-107763893D01*
X151747448Y-107620902D01*
X151739788Y-107605286D01*
X151713306Y-107546686D01*
X151696678Y-107497334D01*
X151687650Y-107445270D01*
X151683968Y-107378539D01*
X151683357Y-107305929D01*
X151684367Y-107218691D01*
X151688928Y-107155624D01*
X151699334Y-107104636D01*
X151717879Y-107053633D01*
X151740770Y-107003313D01*
X151826154Y-106860470D01*
X151931301Y-106744810D01*
X152052045Y-106656325D01*
X152184221Y-106595005D01*
X152323663Y-106560839D01*
X152466205Y-106553818D01*
X152607682Y-106573933D01*
X152607682Y-106573933D01*
G37*
X152607682Y-106573933D02*
X152743929Y-106621172D01*
X152870779Y-106695527D01*
X152984067Y-106796987D01*
X153079628Y-106925543D01*
X153122554Y-107006572D01*
X153159705Y-107119908D01*
X153177712Y-107250751D01*
X153175717Y-107385265D01*
X153153577Y-107507158D01*
X153093064Y-107656107D01*
X153005314Y-107785309D01*
X152894788Y-107892223D01*
X152765946Y-107974306D01*
X152623247Y-108029016D01*
X152471151Y-108053810D01*
X152314119Y-108046147D01*
X152236714Y-108029772D01*
X152085859Y-107971089D01*
X151951875Y-107881543D01*
X151837994Y-107763893D01*
X151747448Y-107620902D01*
X151739788Y-107605286D01*
X151713306Y-107546686D01*
X151696678Y-107497334D01*
X151687650Y-107445270D01*
X151683968Y-107378539D01*
X151683357Y-107305929D01*
X151684367Y-107218691D01*
X151688928Y-107155624D01*
X151699334Y-107104636D01*
X151717879Y-107053633D01*
X151740770Y-107003313D01*
X151826154Y-106860470D01*
X151931301Y-106744810D01*
X152052045Y-106656325D01*
X152184221Y-106595005D01*
X152323663Y-106560839D01*
X152466205Y-106553818D01*
X152607682Y-106573933D01*
G36*
X164677859Y-115103688D02*
X164719635Y-115133301D01*
X164756525Y-115170192D01*
X164756525Y-115582162D01*
X164756429Y-115704486D01*
X164755972Y-115800398D01*
X164754903Y-115873544D01*
X164752971Y-115927570D01*
X164749923Y-115966123D01*
X164745509Y-115992848D01*
X164739476Y-116011394D01*
X164731574Y-116025405D01*
X164725375Y-116033733D01*
X164684461Y-116066449D01*
X164637482Y-116070000D01*
X164594544Y-116049937D01*
X164580356Y-116038092D01*
X164570872Y-116022358D01*
X164565151Y-115997022D01*
X164562253Y-115956370D01*
X164561238Y-115894688D01*
X164561141Y-115847038D01*
X164561141Y-115667535D01*
X163899839Y-115667535D01*
X163899839Y-115830833D01*
X163899155Y-115905505D01*
X163896419Y-115956824D01*
X163890604Y-115991477D01*
X163880684Y-116016155D01*
X163868689Y-116033733D01*
X163827546Y-116066357D01*
X163781017Y-116070220D01*
X163736473Y-116047032D01*
X163724312Y-116034876D01*
X163715723Y-116018761D01*
X163710058Y-115993660D01*
X163706669Y-115954544D01*
X163704908Y-115896386D01*
X163704128Y-115814158D01*
X163704036Y-115795286D01*
X163703392Y-115640357D01*
X163703060Y-115512674D01*
X163703168Y-115409427D01*
X163703845Y-115327803D01*
X163705218Y-115264992D01*
X163707416Y-115218181D01*
X163710566Y-115184559D01*
X163714798Y-115161315D01*
X163720238Y-115145636D01*
X163727015Y-115134711D01*
X163734514Y-115126470D01*
X163776933Y-115100107D01*
X163821172Y-115103688D01*
X163862948Y-115133301D01*
X163879853Y-115152407D01*
X163890629Y-115173511D01*
X163896641Y-115203568D01*
X163899256Y-115249533D01*
X163899839Y-115318360D01*
X163899839Y-115472150D01*
X164561141Y-115472150D01*
X164561141Y-115314339D01*
X164561816Y-115241636D01*
X164564526Y-115192545D01*
X164570301Y-115160636D01*
X164580169Y-115139478D01*
X164591200Y-115126470D01*
X164633619Y-115100107D01*
X164677859Y-115103688D01*
X164677859Y-115103688D01*
G37*
X164677859Y-115103688D02*
X164719635Y-115133301D01*
X164756525Y-115170192D01*
X164756525Y-115582162D01*
X164756429Y-115704486D01*
X164755972Y-115800398D01*
X164754903Y-115873544D01*
X164752971Y-115927570D01*
X164749923Y-115966123D01*
X164745509Y-115992848D01*
X164739476Y-116011394D01*
X164731574Y-116025405D01*
X164725375Y-116033733D01*
X164684461Y-116066449D01*
X164637482Y-116070000D01*
X164594544Y-116049937D01*
X164580356Y-116038092D01*
X164570872Y-116022358D01*
X164565151Y-115997022D01*
X164562253Y-115956370D01*
X164561238Y-115894688D01*
X164561141Y-115847038D01*
X164561141Y-115667535D01*
X163899839Y-115667535D01*
X163899839Y-115830833D01*
X163899155Y-115905505D01*
X163896419Y-115956824D01*
X163890604Y-115991477D01*
X163880684Y-116016155D01*
X163868689Y-116033733D01*
X163827546Y-116066357D01*
X163781017Y-116070220D01*
X163736473Y-116047032D01*
X163724312Y-116034876D01*
X163715723Y-116018761D01*
X163710058Y-115993660D01*
X163706669Y-115954544D01*
X163704908Y-115896386D01*
X163704128Y-115814158D01*
X163704036Y-115795286D01*
X163703392Y-115640357D01*
X163703060Y-115512674D01*
X163703168Y-115409427D01*
X163703845Y-115327803D01*
X163705218Y-115264992D01*
X163707416Y-115218181D01*
X163710566Y-115184559D01*
X163714798Y-115161315D01*
X163720238Y-115145636D01*
X163727015Y-115134711D01*
X163734514Y-115126470D01*
X163776933Y-115100107D01*
X163821172Y-115103688D01*
X163862948Y-115133301D01*
X163879853Y-115152407D01*
X163890629Y-115173511D01*
X163896641Y-115203568D01*
X163899256Y-115249533D01*
X163899839Y-115318360D01*
X163899839Y-115472150D01*
X164561141Y-115472150D01*
X164561141Y-115314339D01*
X164561816Y-115241636D01*
X164564526Y-115192545D01*
X164570301Y-115160636D01*
X164580169Y-115139478D01*
X164591200Y-115126470D01*
X164633619Y-115100107D01*
X164677859Y-115103688D01*
G36*
X162992677Y-115096539D02*
X163097465Y-115097043D01*
X163178799Y-115098096D01*
X163239980Y-115099876D01*
X163284311Y-115102557D01*
X163315094Y-115106314D01*
X163335631Y-115111325D01*
X163349225Y-115117763D01*
X163355803Y-115122712D01*
X163389944Y-115166029D01*
X163394074Y-115211003D01*
X163372976Y-115251860D01*
X163359179Y-115268186D01*
X163344332Y-115279318D01*
X163322815Y-115286250D01*
X163289008Y-115289977D01*
X163237292Y-115291494D01*
X163162047Y-115291794D01*
X163147269Y-115291795D01*
X162952975Y-115291795D01*
X162952975Y-115652505D01*
X162952847Y-115766201D01*
X162952266Y-115853685D01*
X162950936Y-115918802D01*
X162948560Y-115965398D01*
X162944844Y-115997319D01*
X162939492Y-116018412D01*
X162932207Y-116032523D01*
X162922916Y-116043274D01*
X162879071Y-116069696D01*
X162833300Y-116067614D01*
X162791790Y-116037469D01*
X162788741Y-116033733D01*
X162778812Y-116019610D01*
X162771248Y-116003086D01*
X162765729Y-115980146D01*
X162761933Y-115946773D01*
X162759542Y-115898955D01*
X162758234Y-115832674D01*
X162757691Y-115743918D01*
X162757591Y-115642963D01*
X162757591Y-115291795D01*
X162572050Y-115291795D01*
X162492427Y-115291256D01*
X162437304Y-115289157D01*
X162401132Y-115284771D01*
X162378362Y-115277376D01*
X162363447Y-115266245D01*
X162361636Y-115264310D01*
X162339858Y-115220057D01*
X162341784Y-115170029D01*
X162366821Y-115126470D01*
X162376504Y-115118020D01*
X162388988Y-115111321D01*
X162407603Y-115106169D01*
X162435677Y-115102361D01*
X162476541Y-115099697D01*
X162533522Y-115097972D01*
X162609952Y-115096984D01*
X162709157Y-115096532D01*
X162834469Y-115096412D01*
X162861133Y-115096410D01*
X162992677Y-115096539D01*
X162992677Y-115096539D01*
G37*
X162992677Y-115096539D02*
X163097465Y-115097043D01*
X163178799Y-115098096D01*
X163239980Y-115099876D01*
X163284311Y-115102557D01*
X163315094Y-115106314D01*
X163335631Y-115111325D01*
X163349225Y-115117763D01*
X163355803Y-115122712D01*
X163389944Y-115166029D01*
X163394074Y-115211003D01*
X163372976Y-115251860D01*
X163359179Y-115268186D01*
X163344332Y-115279318D01*
X163322815Y-115286250D01*
X163289008Y-115289977D01*
X163237292Y-115291494D01*
X163162047Y-115291794D01*
X163147269Y-115291795D01*
X162952975Y-115291795D01*
X162952975Y-115652505D01*
X162952847Y-115766201D01*
X162952266Y-115853685D01*
X162950936Y-115918802D01*
X162948560Y-115965398D01*
X162944844Y-115997319D01*
X162939492Y-116018412D01*
X162932207Y-116032523D01*
X162922916Y-116043274D01*
X162879071Y-116069696D01*
X162833300Y-116067614D01*
X162791790Y-116037469D01*
X162788741Y-116033733D01*
X162778812Y-116019610D01*
X162771248Y-116003086D01*
X162765729Y-115980146D01*
X162761933Y-115946773D01*
X162759542Y-115898955D01*
X162758234Y-115832674D01*
X162757691Y-115743918D01*
X162757591Y-115642963D01*
X162757591Y-115291795D01*
X162572050Y-115291795D01*
X162492427Y-115291256D01*
X162437304Y-115289157D01*
X162401132Y-115284771D01*
X162378362Y-115277376D01*
X162363447Y-115266245D01*
X162361636Y-115264310D01*
X162339858Y-115220057D01*
X162341784Y-115170029D01*
X162366821Y-115126470D01*
X162376504Y-115118020D01*
X162388988Y-115111321D01*
X162407603Y-115106169D01*
X162435677Y-115102361D01*
X162476541Y-115099697D01*
X162533522Y-115097972D01*
X162609952Y-115096984D01*
X162709157Y-115096532D01*
X162834469Y-115096412D01*
X162861133Y-115096410D01*
X162992677Y-115096539D01*
G36*
X161961604Y-115105477D02*
X161993174Y-115125142D01*
X162028656Y-115153873D01*
X162028656Y-115581966D01*
X162028543Y-115707190D01*
X162028059Y-115805847D01*
X162026986Y-115881430D01*
X162025108Y-115937433D01*
X162022206Y-115977347D01*
X162018063Y-116004666D01*
X162012462Y-116022881D01*
X162005185Y-116035486D01*
X162000024Y-116041696D01*
X161958168Y-116068980D01*
X161910505Y-116067867D01*
X161868753Y-116044602D01*
X161833271Y-116015871D01*
X161833271Y-115153873D01*
X161868753Y-115125142D01*
X161902998Y-115104242D01*
X161930963Y-115096410D01*
X161961604Y-115105477D01*
X161961604Y-115105477D01*
G37*
X161961604Y-115105477D02*
X161993174Y-115125142D01*
X162028656Y-115153873D01*
X162028656Y-115581966D01*
X162028543Y-115707190D01*
X162028059Y-115805847D01*
X162026986Y-115881430D01*
X162025108Y-115937433D01*
X162022206Y-115977347D01*
X162018063Y-116004666D01*
X162012462Y-116022881D01*
X162005185Y-116035486D01*
X162000024Y-116041696D01*
X161958168Y-116068980D01*
X161910505Y-116067867D01*
X161868753Y-116044602D01*
X161833271Y-116015871D01*
X161833271Y-115153873D01*
X161868753Y-115125142D01*
X161902998Y-115104242D01*
X161930963Y-115096410D01*
X161961604Y-115105477D01*
G36*
X161370547Y-115099030D02*
X161396628Y-115108350D01*
X161397634Y-115108806D01*
X161433052Y-115135834D01*
X161452566Y-115163636D01*
X161456384Y-115176672D01*
X161456195Y-115193992D01*
X161450822Y-115218667D01*
X161439088Y-115253764D01*
X161419813Y-115302353D01*
X161391822Y-115367502D01*
X161353936Y-115452281D01*
X161304978Y-115559759D01*
X161278031Y-115618503D01*
X161229370Y-115723373D01*
X161183690Y-115819814D01*
X161142734Y-115904298D01*
X161108246Y-115973300D01*
X161081969Y-116023294D01*
X161065646Y-116050754D01*
X161062416Y-116054547D01*
X161021089Y-116071280D01*
X160974409Y-116069039D01*
X160936970Y-116048687D01*
X160935444Y-116047032D01*
X160920551Y-116024486D01*
X160895569Y-115980571D01*
X160863579Y-115920940D01*
X160827660Y-115851246D01*
X160814752Y-115825563D01*
X160717314Y-115630397D01*
X160611106Y-115842407D01*
X160573197Y-115915661D01*
X160538027Y-115979190D01*
X160508468Y-116028131D01*
X160487394Y-116057622D01*
X160480252Y-116063876D01*
X160424738Y-116072345D01*
X160378929Y-116054547D01*
X160365454Y-116035525D01*
X160342136Y-115993249D01*
X160310877Y-115931880D01*
X160273580Y-115855576D01*
X160232146Y-115768499D01*
X160188478Y-115674807D01*
X160144478Y-115578661D01*
X160102048Y-115484221D01*
X160063090Y-115395645D01*
X160029507Y-115317096D01*
X160003201Y-115252731D01*
X159986074Y-115206711D01*
X159980029Y-115183197D01*
X159980091Y-115182345D01*
X159994800Y-115152756D01*
X160024202Y-115122620D01*
X160025933Y-115121308D01*
X160062070Y-115100882D01*
X160095494Y-115101080D01*
X160108022Y-115104931D01*
X160123287Y-115113253D01*
X160139498Y-115129625D01*
X160158599Y-115157442D01*
X160182535Y-115200100D01*
X160213251Y-115260995D01*
X160252691Y-115343525D01*
X160288258Y-115419707D01*
X160329177Y-115508014D01*
X160365844Y-115587426D01*
X160396354Y-115653796D01*
X160418802Y-115702975D01*
X160431283Y-115730813D01*
X160433103Y-115735168D01*
X160441290Y-115728049D01*
X160460105Y-115698241D01*
X160487046Y-115650096D01*
X160519608Y-115587963D01*
X160532566Y-115562328D01*
X160576460Y-115475765D01*
X160610311Y-115412725D01*
X160636897Y-115369542D01*
X160658995Y-115342552D01*
X160679384Y-115328088D01*
X160700840Y-115322487D01*
X160714823Y-115321854D01*
X160739488Y-115324040D01*
X160761102Y-115333079D01*
X160782578Y-115352697D01*
X160806830Y-115386617D01*
X160836770Y-115438562D01*
X160875313Y-115512258D01*
X160896578Y-115554180D01*
X160931072Y-115620994D01*
X160961156Y-115676401D01*
X160984177Y-115715727D01*
X160997480Y-115734296D01*
X160999289Y-115735069D01*
X161007880Y-115720455D01*
X161027114Y-115682507D01*
X161055065Y-115625196D01*
X161089807Y-115552496D01*
X161129413Y-115468376D01*
X161148896Y-115426594D01*
X161199580Y-115318763D01*
X161240393Y-115235790D01*
X161273454Y-115174966D01*
X161300881Y-115133585D01*
X161324792Y-115108940D01*
X161347308Y-115098324D01*
X161370547Y-115099030D01*
X161370547Y-115099030D01*
G37*
X161370547Y-115099030D02*
X161396628Y-115108350D01*
X161397634Y-115108806D01*
X161433052Y-115135834D01*
X161452566Y-115163636D01*
X161456384Y-115176672D01*
X161456195Y-115193992D01*
X161450822Y-115218667D01*
X161439088Y-115253764D01*
X161419813Y-115302353D01*
X161391822Y-115367502D01*
X161353936Y-115452281D01*
X161304978Y-115559759D01*
X161278031Y-115618503D01*
X161229370Y-115723373D01*
X161183690Y-115819814D01*
X161142734Y-115904298D01*
X161108246Y-115973300D01*
X161081969Y-116023294D01*
X161065646Y-116050754D01*
X161062416Y-116054547D01*
X161021089Y-116071280D01*
X160974409Y-116069039D01*
X160936970Y-116048687D01*
X160935444Y-116047032D01*
X160920551Y-116024486D01*
X160895569Y-115980571D01*
X160863579Y-115920940D01*
X160827660Y-115851246D01*
X160814752Y-115825563D01*
X160717314Y-115630397D01*
X160611106Y-115842407D01*
X160573197Y-115915661D01*
X160538027Y-115979190D01*
X160508468Y-116028131D01*
X160487394Y-116057622D01*
X160480252Y-116063876D01*
X160424738Y-116072345D01*
X160378929Y-116054547D01*
X160365454Y-116035525D01*
X160342136Y-115993249D01*
X160310877Y-115931880D01*
X160273580Y-115855576D01*
X160232146Y-115768499D01*
X160188478Y-115674807D01*
X160144478Y-115578661D01*
X160102048Y-115484221D01*
X160063090Y-115395645D01*
X160029507Y-115317096D01*
X160003201Y-115252731D01*
X159986074Y-115206711D01*
X159980029Y-115183197D01*
X159980091Y-115182345D01*
X159994800Y-115152756D01*
X160024202Y-115122620D01*
X160025933Y-115121308D01*
X160062070Y-115100882D01*
X160095494Y-115101080D01*
X160108022Y-115104931D01*
X160123287Y-115113253D01*
X160139498Y-115129625D01*
X160158599Y-115157442D01*
X160182535Y-115200100D01*
X160213251Y-115260995D01*
X160252691Y-115343525D01*
X160288258Y-115419707D01*
X160329177Y-115508014D01*
X160365844Y-115587426D01*
X160396354Y-115653796D01*
X160418802Y-115702975D01*
X160431283Y-115730813D01*
X160433103Y-115735168D01*
X160441290Y-115728049D01*
X160460105Y-115698241D01*
X160487046Y-115650096D01*
X160519608Y-115587963D01*
X160532566Y-115562328D01*
X160576460Y-115475765D01*
X160610311Y-115412725D01*
X160636897Y-115369542D01*
X160658995Y-115342552D01*
X160679384Y-115328088D01*
X160700840Y-115322487D01*
X160714823Y-115321854D01*
X160739488Y-115324040D01*
X160761102Y-115333079D01*
X160782578Y-115352697D01*
X160806830Y-115386617D01*
X160836770Y-115438562D01*
X160875313Y-115512258D01*
X160896578Y-115554180D01*
X160931072Y-115620994D01*
X160961156Y-115676401D01*
X160984177Y-115715727D01*
X160997480Y-115734296D01*
X160999289Y-115735069D01*
X161007880Y-115720455D01*
X161027114Y-115682507D01*
X161055065Y-115625196D01*
X161089807Y-115552496D01*
X161129413Y-115468376D01*
X161148896Y-115426594D01*
X161199580Y-115318763D01*
X161240393Y-115235790D01*
X161273454Y-115174966D01*
X161300881Y-115133585D01*
X161324792Y-115108940D01*
X161347308Y-115098324D01*
X161370547Y-115099030D01*
G36*
X157740783Y-115096687D02*
X157912501Y-115102493D01*
X158058555Y-115120101D01*
X158181353Y-115150563D01*
X158283303Y-115194935D01*
X158366814Y-115254271D01*
X158434293Y-115329624D01*
X158488149Y-115422050D01*
X158489208Y-115424304D01*
X158521349Y-115507024D01*
X158532801Y-115580284D01*
X158523520Y-115654012D01*
X158493461Y-115738135D01*
X158487761Y-115750937D01*
X158448885Y-115825862D01*
X158405195Y-115883757D01*
X158348806Y-115932972D01*
X158271838Y-115981857D01*
X158267366Y-115984409D01*
X158200363Y-116016595D01*
X158124631Y-116040632D01*
X158035304Y-116057351D01*
X157927515Y-116067579D01*
X157796398Y-116072146D01*
X157750072Y-116072543D01*
X157529476Y-116073334D01*
X157498326Y-116033733D01*
X157489086Y-116020711D01*
X157481878Y-116005504D01*
X157476450Y-115984466D01*
X157472551Y-115953950D01*
X157469929Y-115910311D01*
X157469074Y-115877949D01*
X157677591Y-115877949D01*
X157802582Y-115877949D01*
X157875723Y-115875810D01*
X157950807Y-115870181D01*
X158012430Y-115862243D01*
X158016149Y-115861575D01*
X158125599Y-115832212D01*
X158210494Y-115788097D01*
X158273518Y-115727183D01*
X158317360Y-115647424D01*
X158324983Y-115626284D01*
X158332456Y-115593362D01*
X158329221Y-115560836D01*
X158313479Y-115517564D01*
X158303990Y-115496307D01*
X158272917Y-115439820D01*
X158235479Y-115400191D01*
X158194287Y-115372594D01*
X158111776Y-115336682D01*
X158006179Y-115310668D01*
X157883164Y-115295688D01*
X157794070Y-115292392D01*
X157677591Y-115291795D01*
X157677591Y-115877949D01*
X157469074Y-115877949D01*
X157468332Y-115849900D01*
X157467510Y-115769072D01*
X157467210Y-115664181D01*
X157467176Y-115582162D01*
X157467176Y-115170192D01*
X157504067Y-115133301D01*
X157520440Y-115118348D01*
X157538143Y-115108108D01*
X157562865Y-115101701D01*
X157600294Y-115098247D01*
X157656119Y-115096867D01*
X157736028Y-115096681D01*
X157740783Y-115096687D01*
X157740783Y-115096687D01*
G37*
X157740783Y-115096687D02*
X157912501Y-115102493D01*
X158058555Y-115120101D01*
X158181353Y-115150563D01*
X158283303Y-115194935D01*
X158366814Y-115254271D01*
X158434293Y-115329624D01*
X158488149Y-115422050D01*
X158489208Y-115424304D01*
X158521349Y-115507024D01*
X158532801Y-115580284D01*
X158523520Y-115654012D01*
X158493461Y-115738135D01*
X158487761Y-115750937D01*
X158448885Y-115825862D01*
X158405195Y-115883757D01*
X158348806Y-115932972D01*
X158271838Y-115981857D01*
X158267366Y-115984409D01*
X158200363Y-116016595D01*
X158124631Y-116040632D01*
X158035304Y-116057351D01*
X157927515Y-116067579D01*
X157796398Y-116072146D01*
X157750072Y-116072543D01*
X157529476Y-116073334D01*
X157498326Y-116033733D01*
X157489086Y-116020711D01*
X157481878Y-116005504D01*
X157476450Y-115984466D01*
X157472551Y-115953950D01*
X157469929Y-115910311D01*
X157469074Y-115877949D01*
X157677591Y-115877949D01*
X157802582Y-115877949D01*
X157875723Y-115875810D01*
X157950807Y-115870181D01*
X158012430Y-115862243D01*
X158016149Y-115861575D01*
X158125599Y-115832212D01*
X158210494Y-115788097D01*
X158273518Y-115727183D01*
X158317360Y-115647424D01*
X158324983Y-115626284D01*
X158332456Y-115593362D01*
X158329221Y-115560836D01*
X158313479Y-115517564D01*
X158303990Y-115496307D01*
X158272917Y-115439820D01*
X158235479Y-115400191D01*
X158194287Y-115372594D01*
X158111776Y-115336682D01*
X158006179Y-115310668D01*
X157883164Y-115295688D01*
X157794070Y-115292392D01*
X157677591Y-115291795D01*
X157677591Y-115877949D01*
X157469074Y-115877949D01*
X157468332Y-115849900D01*
X157467510Y-115769072D01*
X157467210Y-115664181D01*
X157467176Y-115582162D01*
X157467176Y-115170192D01*
X157504067Y-115133301D01*
X157520440Y-115118348D01*
X157538143Y-115108108D01*
X157562865Y-115101701D01*
X157600294Y-115098247D01*
X157656119Y-115096867D01*
X157736028Y-115096681D01*
X157740783Y-115096687D01*
G36*
X156691716Y-115096667D02*
X156793377Y-115097884D01*
X156871282Y-115100730D01*
X156928581Y-115105874D01*
X156968427Y-115113984D01*
X156993968Y-115125731D01*
X157008357Y-115141782D01*
X157014745Y-115162808D01*
X157016281Y-115189476D01*
X157016289Y-115192626D01*
X157014955Y-115222790D01*
X157008651Y-115246103D01*
X156993922Y-115263506D01*
X156967315Y-115275940D01*
X156925374Y-115284345D01*
X156864646Y-115289665D01*
X156781676Y-115292839D01*
X156673011Y-115294809D01*
X156639705Y-115295245D01*
X156317413Y-115299310D01*
X156312906Y-115385730D01*
X156308398Y-115472150D01*
X156532263Y-115472150D01*
X156619721Y-115472473D01*
X156682169Y-115473837D01*
X156724654Y-115476839D01*
X156752223Y-115482073D01*
X156769922Y-115490135D01*
X156782797Y-115501620D01*
X156782880Y-115501711D01*
X156806230Y-115546471D01*
X156805386Y-115594847D01*
X156780879Y-115636086D01*
X156776029Y-115640325D01*
X156758815Y-115651249D01*
X156735226Y-115658849D01*
X156700007Y-115663697D01*
X156647900Y-115666366D01*
X156573650Y-115667428D01*
X156526162Y-115667535D01*
X156309898Y-115667535D01*
X156309898Y-115877949D01*
X156638220Y-115877949D01*
X156746618Y-115878139D01*
X156828935Y-115878914D01*
X156889149Y-115880584D01*
X156931235Y-115883458D01*
X156959171Y-115887847D01*
X156976934Y-115894059D01*
X156988500Y-115902404D01*
X156991415Y-115905434D01*
X157012936Y-115947434D01*
X157014510Y-115995214D01*
X156996855Y-116036642D01*
X156982885Y-116049937D01*
X156968354Y-116057256D01*
X156945838Y-116062919D01*
X156911776Y-116067123D01*
X156862607Y-116070068D01*
X156794768Y-116071951D01*
X156704698Y-116072970D01*
X156588837Y-116073325D01*
X156562643Y-116073334D01*
X156444839Y-116073256D01*
X156353396Y-116072831D01*
X156284614Y-116071766D01*
X156234796Y-116069769D01*
X156200240Y-116066550D01*
X156177250Y-116061816D01*
X156162126Y-116055277D01*
X156151169Y-116046641D01*
X156145158Y-116040440D01*
X156136110Y-116029457D01*
X156129042Y-116015852D01*
X156123709Y-115996056D01*
X156119868Y-115966502D01*
X156117275Y-115923621D01*
X156115687Y-115863845D01*
X156114861Y-115783607D01*
X156114552Y-115679339D01*
X156114514Y-115591580D01*
X156114608Y-115468608D01*
X156115057Y-115372069D01*
X156116108Y-115298339D01*
X156118010Y-115243790D01*
X156121009Y-115204799D01*
X156125355Y-115177739D01*
X156131294Y-115158984D01*
X156139075Y-115144910D01*
X156145664Y-115136011D01*
X156176814Y-115096410D01*
X156563148Y-115096410D01*
X156691716Y-115096667D01*
X156691716Y-115096667D01*
G37*
X156691716Y-115096667D02*
X156793377Y-115097884D01*
X156871282Y-115100730D01*
X156928581Y-115105874D01*
X156968427Y-115113984D01*
X156993968Y-115125731D01*
X157008357Y-115141782D01*
X157014745Y-115162808D01*
X157016281Y-115189476D01*
X157016289Y-115192626D01*
X157014955Y-115222790D01*
X157008651Y-115246103D01*
X156993922Y-115263506D01*
X156967315Y-115275940D01*
X156925374Y-115284345D01*
X156864646Y-115289665D01*
X156781676Y-115292839D01*
X156673011Y-115294809D01*
X156639705Y-115295245D01*
X156317413Y-115299310D01*
X156312906Y-115385730D01*
X156308398Y-115472150D01*
X156532263Y-115472150D01*
X156619721Y-115472473D01*
X156682169Y-115473837D01*
X156724654Y-115476839D01*
X156752223Y-115482073D01*
X156769922Y-115490135D01*
X156782797Y-115501620D01*
X156782880Y-115501711D01*
X156806230Y-115546471D01*
X156805386Y-115594847D01*
X156780879Y-115636086D01*
X156776029Y-115640325D01*
X156758815Y-115651249D01*
X156735226Y-115658849D01*
X156700007Y-115663697D01*
X156647900Y-115666366D01*
X156573650Y-115667428D01*
X156526162Y-115667535D01*
X156309898Y-115667535D01*
X156309898Y-115877949D01*
X156638220Y-115877949D01*
X156746618Y-115878139D01*
X156828935Y-115878914D01*
X156889149Y-115880584D01*
X156931235Y-115883458D01*
X156959171Y-115887847D01*
X156976934Y-115894059D01*
X156988500Y-115902404D01*
X156991415Y-115905434D01*
X157012936Y-115947434D01*
X157014510Y-115995214D01*
X156996855Y-116036642D01*
X156982885Y-116049937D01*
X156968354Y-116057256D01*
X156945838Y-116062919D01*
X156911776Y-116067123D01*
X156862607Y-116070068D01*
X156794768Y-116071951D01*
X156704698Y-116072970D01*
X156588837Y-116073325D01*
X156562643Y-116073334D01*
X156444839Y-116073256D01*
X156353396Y-116072831D01*
X156284614Y-116071766D01*
X156234796Y-116069769D01*
X156200240Y-116066550D01*
X156177250Y-116061816D01*
X156162126Y-116055277D01*
X156151169Y-116046641D01*
X156145158Y-116040440D01*
X156136110Y-116029457D01*
X156129042Y-116015852D01*
X156123709Y-115996056D01*
X156119868Y-115966502D01*
X156117275Y-115923621D01*
X156115687Y-115863845D01*
X156114861Y-115783607D01*
X156114552Y-115679339D01*
X156114514Y-115591580D01*
X156114608Y-115468608D01*
X156115057Y-115372069D01*
X156116108Y-115298339D01*
X156118010Y-115243790D01*
X156121009Y-115204799D01*
X156125355Y-115177739D01*
X156131294Y-115158984D01*
X156139075Y-115144910D01*
X156145664Y-115136011D01*
X156176814Y-115096410D01*
X156563148Y-115096410D01*
X156691716Y-115096667D01*
G36*
X154654126Y-115102244D02*
X154685501Y-115120649D01*
X154726524Y-115150749D01*
X154779322Y-115193960D01*
X154846021Y-115251702D01*
X154928747Y-115325392D01*
X155029626Y-115416448D01*
X155145105Y-115521138D01*
X155385579Y-115739207D01*
X155393094Y-115446508D01*
X155395807Y-115345754D01*
X155398424Y-115270722D01*
X155401526Y-115217084D01*
X155405690Y-115180510D01*
X155411495Y-115156671D01*
X155419522Y-115141238D01*
X155430349Y-115129882D01*
X155436090Y-115125110D01*
X155482063Y-115099877D01*
X155525809Y-115103566D01*
X155560511Y-115125123D01*
X155595993Y-115153835D01*
X155600406Y-115573150D01*
X155601627Y-115696471D01*
X155602249Y-115793348D01*
X155602056Y-115867394D01*
X155600832Y-115922221D01*
X155598362Y-115961443D01*
X155594432Y-115988673D01*
X155588826Y-116007523D01*
X155581328Y-116021605D01*
X155573013Y-116032899D01*
X155555024Y-116053846D01*
X155537125Y-116067731D01*
X155516834Y-116073060D01*
X155491668Y-116068340D01*
X155459146Y-116052077D01*
X155416783Y-116022777D01*
X155362098Y-115978946D01*
X155292609Y-115919091D01*
X155205831Y-115841718D01*
X155107531Y-115752814D01*
X154754336Y-115432435D01*
X154746821Y-115724177D01*
X154744103Y-115824747D01*
X154741479Y-115899604D01*
X154738367Y-115953084D01*
X154734184Y-115989526D01*
X154728349Y-116013268D01*
X154720280Y-116028646D01*
X154709395Y-116040000D01*
X154703825Y-116044626D01*
X154654590Y-116070042D01*
X154608069Y-116066209D01*
X154567557Y-116033733D01*
X154558290Y-116020667D01*
X154551067Y-116005409D01*
X154545634Y-115984296D01*
X154541738Y-115953669D01*
X154539125Y-115909866D01*
X154537539Y-115849227D01*
X154536728Y-115768091D01*
X154536438Y-115662797D01*
X154536407Y-115584872D01*
X154536505Y-115462988D01*
X154536967Y-115367503D01*
X154538049Y-115294755D01*
X154540003Y-115241083D01*
X154543084Y-115202827D01*
X154547546Y-115176327D01*
X154553643Y-115157920D01*
X154561629Y-115143948D01*
X154567557Y-115136011D01*
X154582584Y-115117212D01*
X154596628Y-115103017D01*
X154611816Y-115094846D01*
X154630273Y-115094116D01*
X154654126Y-115102244D01*
X154654126Y-115102244D01*
G37*
X154654126Y-115102244D02*
X154685501Y-115120649D01*
X154726524Y-115150749D01*
X154779322Y-115193960D01*
X154846021Y-115251702D01*
X154928747Y-115325392D01*
X155029626Y-115416448D01*
X155145105Y-115521138D01*
X155385579Y-115739207D01*
X155393094Y-115446508D01*
X155395807Y-115345754D01*
X155398424Y-115270722D01*
X155401526Y-115217084D01*
X155405690Y-115180510D01*
X155411495Y-115156671D01*
X155419522Y-115141238D01*
X155430349Y-115129882D01*
X155436090Y-115125110D01*
X155482063Y-115099877D01*
X155525809Y-115103566D01*
X155560511Y-115125123D01*
X155595993Y-115153835D01*
X155600406Y-115573150D01*
X155601627Y-115696471D01*
X155602249Y-115793348D01*
X155602056Y-115867394D01*
X155600832Y-115922221D01*
X155598362Y-115961443D01*
X155594432Y-115988673D01*
X155588826Y-116007523D01*
X155581328Y-116021605D01*
X155573013Y-116032899D01*
X155555024Y-116053846D01*
X155537125Y-116067731D01*
X155516834Y-116073060D01*
X155491668Y-116068340D01*
X155459146Y-116052077D01*
X155416783Y-116022777D01*
X155362098Y-115978946D01*
X155292609Y-115919091D01*
X155205831Y-115841718D01*
X155107531Y-115752814D01*
X154754336Y-115432435D01*
X154746821Y-115724177D01*
X154744103Y-115824747D01*
X154741479Y-115899604D01*
X154738367Y-115953084D01*
X154734184Y-115989526D01*
X154728349Y-116013268D01*
X154720280Y-116028646D01*
X154709395Y-116040000D01*
X154703825Y-116044626D01*
X154654590Y-116070042D01*
X154608069Y-116066209D01*
X154567557Y-116033733D01*
X154558290Y-116020667D01*
X154551067Y-116005409D01*
X154545634Y-115984296D01*
X154541738Y-115953669D01*
X154539125Y-115909866D01*
X154537539Y-115849227D01*
X154536728Y-115768091D01*
X154536438Y-115662797D01*
X154536407Y-115584872D01*
X154536505Y-115462988D01*
X154536967Y-115367503D01*
X154538049Y-115294755D01*
X154540003Y-115241083D01*
X154543084Y-115202827D01*
X154547546Y-115176327D01*
X154553643Y-115157920D01*
X154561629Y-115143948D01*
X154567557Y-115136011D01*
X154582584Y-115117212D01*
X154596628Y-115103017D01*
X154611816Y-115094846D01*
X154630273Y-115094116D01*
X154654126Y-115102244D01*
G36*
X153788784Y-115103776D02*
X153880005Y-115119082D01*
X153950064Y-115142875D01*
X153995642Y-115174204D01*
X154008062Y-115192078D01*
X154020692Y-115233649D01*
X154012193Y-115271256D01*
X153985361Y-115306919D01*
X153943670Y-115323603D01*
X153883176Y-115322248D01*
X153836387Y-115313209D01*
X153732418Y-115295987D01*
X153626166Y-115294351D01*
X153507237Y-115308329D01*
X153474386Y-115314252D01*
X153363801Y-115345431D01*
X153277287Y-115391810D01*
X153215793Y-115452599D01*
X153180268Y-115527008D01*
X153172921Y-115565478D01*
X153177730Y-115643527D01*
X153208780Y-115712581D01*
X153263240Y-115771293D01*
X153338282Y-115818317D01*
X153431076Y-115852307D01*
X153538794Y-115871918D01*
X153658605Y-115875805D01*
X153787681Y-115862620D01*
X153794969Y-115861376D01*
X153846308Y-115851814D01*
X153874774Y-115842578D01*
X153887112Y-115828873D01*
X153890068Y-115805906D01*
X153890135Y-115793743D01*
X153890135Y-115742683D01*
X153798969Y-115742683D01*
X153718464Y-115737168D01*
X153663525Y-115719594D01*
X153631560Y-115688417D01*
X153619974Y-115642094D01*
X153619833Y-115636048D01*
X153626611Y-115596453D01*
X153649855Y-115568181D01*
X153693116Y-115549471D01*
X153759945Y-115538564D01*
X153824676Y-115534554D01*
X153918759Y-115532253D01*
X153987002Y-115535764D01*
X154033545Y-115548719D01*
X154062528Y-115574750D01*
X154078091Y-115617491D01*
X154084375Y-115680574D01*
X154085520Y-115763428D01*
X154083644Y-115855910D01*
X154078000Y-115918818D01*
X154068564Y-115952403D01*
X154066733Y-115955033D01*
X154014921Y-115996998D01*
X153938956Y-116030232D01*
X153843654Y-116054023D01*
X153733830Y-116067663D01*
X153614300Y-116070442D01*
X153489880Y-116061649D01*
X153416703Y-116050849D01*
X153301926Y-116018362D01*
X153195250Y-115965250D01*
X153105935Y-115896319D01*
X153092360Y-115882542D01*
X153048254Y-115824622D01*
X153008457Y-115752840D01*
X152977619Y-115677583D01*
X152960389Y-115609241D01*
X152958312Y-115582993D01*
X152967153Y-115528241D01*
X152990651Y-115460119D01*
X153024297Y-115388414D01*
X153063582Y-115322913D01*
X153098291Y-115279162D01*
X153179443Y-115214083D01*
X153284348Y-115162285D01*
X153409246Y-115124938D01*
X153550379Y-115103217D01*
X153679721Y-115097909D01*
X153788784Y-115103776D01*
X153788784Y-115103776D01*
G37*
X153788784Y-115103776D02*
X153880005Y-115119082D01*
X153950064Y-115142875D01*
X153995642Y-115174204D01*
X154008062Y-115192078D01*
X154020692Y-115233649D01*
X154012193Y-115271256D01*
X153985361Y-115306919D01*
X153943670Y-115323603D01*
X153883176Y-115322248D01*
X153836387Y-115313209D01*
X153732418Y-115295987D01*
X153626166Y-115294351D01*
X153507237Y-115308329D01*
X153474386Y-115314252D01*
X153363801Y-115345431D01*
X153277287Y-115391810D01*
X153215793Y-115452599D01*
X153180268Y-115527008D01*
X153172921Y-115565478D01*
X153177730Y-115643527D01*
X153208780Y-115712581D01*
X153263240Y-115771293D01*
X153338282Y-115818317D01*
X153431076Y-115852307D01*
X153538794Y-115871918D01*
X153658605Y-115875805D01*
X153787681Y-115862620D01*
X153794969Y-115861376D01*
X153846308Y-115851814D01*
X153874774Y-115842578D01*
X153887112Y-115828873D01*
X153890068Y-115805906D01*
X153890135Y-115793743D01*
X153890135Y-115742683D01*
X153798969Y-115742683D01*
X153718464Y-115737168D01*
X153663525Y-115719594D01*
X153631560Y-115688417D01*
X153619974Y-115642094D01*
X153619833Y-115636048D01*
X153626611Y-115596453D01*
X153649855Y-115568181D01*
X153693116Y-115549471D01*
X153759945Y-115538564D01*
X153824676Y-115534554D01*
X153918759Y-115532253D01*
X153987002Y-115535764D01*
X154033545Y-115548719D01*
X154062528Y-115574750D01*
X154078091Y-115617491D01*
X154084375Y-115680574D01*
X154085520Y-115763428D01*
X154083644Y-115855910D01*
X154078000Y-115918818D01*
X154068564Y-115952403D01*
X154066733Y-115955033D01*
X154014921Y-115996998D01*
X153938956Y-116030232D01*
X153843654Y-116054023D01*
X153733830Y-116067663D01*
X153614300Y-116070442D01*
X153489880Y-116061649D01*
X153416703Y-116050849D01*
X153301926Y-116018362D01*
X153195250Y-115965250D01*
X153105935Y-115896319D01*
X153092360Y-115882542D01*
X153048254Y-115824622D01*
X153008457Y-115752840D01*
X152977619Y-115677583D01*
X152960389Y-115609241D01*
X152958312Y-115582993D01*
X152967153Y-115528241D01*
X152990651Y-115460119D01*
X153024297Y-115388414D01*
X153063582Y-115322913D01*
X153098291Y-115279162D01*
X153179443Y-115214083D01*
X153284348Y-115162285D01*
X153409246Y-115124938D01*
X153550379Y-115103217D01*
X153679721Y-115097909D01*
X153788784Y-115103776D01*
G36*
X152492383Y-115126470D02*
X152501145Y-115136552D01*
X152508018Y-115149559D01*
X152513231Y-115168975D01*
X152517012Y-115198284D01*
X152519590Y-115240971D01*
X152521193Y-115300519D01*
X152522051Y-115380414D01*
X152522390Y-115484140D01*
X152522443Y-115584872D01*
X152522350Y-115709816D01*
X152521919Y-115808185D01*
X152520923Y-115883465D01*
X152519131Y-115939138D01*
X152516317Y-115978690D01*
X152512250Y-116005605D01*
X152506704Y-116023367D01*
X152499449Y-116035461D01*
X152492383Y-116043274D01*
X152448444Y-116069476D01*
X152401626Y-116067125D01*
X152359737Y-116038548D01*
X152350112Y-116027391D01*
X152342591Y-116014447D01*
X152336912Y-115996136D01*
X152332819Y-115968882D01*
X152330051Y-115929104D01*
X152328350Y-115873226D01*
X152327457Y-115797668D01*
X152327113Y-115698852D01*
X152327058Y-115586978D01*
X152327058Y-115170192D01*
X152363949Y-115133301D01*
X152409421Y-115102264D01*
X152453530Y-115101145D01*
X152492383Y-115126470D01*
X152492383Y-115126470D01*
G37*
X152492383Y-115126470D02*
X152501145Y-115136552D01*
X152508018Y-115149559D01*
X152513231Y-115168975D01*
X152517012Y-115198284D01*
X152519590Y-115240971D01*
X152521193Y-115300519D01*
X152522051Y-115380414D01*
X152522390Y-115484140D01*
X152522443Y-115584872D01*
X152522350Y-115709816D01*
X152521919Y-115808185D01*
X152520923Y-115883465D01*
X152519131Y-115939138D01*
X152516317Y-115978690D01*
X152512250Y-116005605D01*
X152506704Y-116023367D01*
X152499449Y-116035461D01*
X152492383Y-116043274D01*
X152448444Y-116069476D01*
X152401626Y-116067125D01*
X152359737Y-116038548D01*
X152350112Y-116027391D01*
X152342591Y-116014447D01*
X152336912Y-115996136D01*
X152332819Y-115968882D01*
X152330051Y-115929104D01*
X152328350Y-115873226D01*
X152327457Y-115797668D01*
X152327113Y-115698852D01*
X152327058Y-115586978D01*
X152327058Y-115170192D01*
X152363949Y-115133301D01*
X152409421Y-115102264D01*
X152453530Y-115101145D01*
X152492383Y-115126470D01*
G36*
X151470058Y-115098121D02*
X151569663Y-115105084D01*
X151662302Y-115115959D01*
X151742588Y-115130338D01*
X151805138Y-115147810D01*
X151844565Y-115167966D01*
X151850617Y-115173899D01*
X151871662Y-115219939D01*
X151865280Y-115267204D01*
X151832639Y-115307642D01*
X151831082Y-115308801D01*
X151811883Y-115321261D01*
X151791841Y-115327813D01*
X151763886Y-115328608D01*
X151720947Y-115323800D01*
X151655955Y-115313539D01*
X151650727Y-115312675D01*
X151553885Y-115300778D01*
X151449402Y-115294909D01*
X151344611Y-115294852D01*
X151246844Y-115300391D01*
X151163434Y-115311309D01*
X151101713Y-115327389D01*
X151097658Y-115329005D01*
X151052882Y-115354093D01*
X151037150Y-115379482D01*
X151049466Y-115404451D01*
X151088831Y-115428280D01*
X151154248Y-115450246D01*
X151244720Y-115469630D01*
X151305046Y-115478962D01*
X151430446Y-115496913D01*
X151530181Y-115513323D01*
X151608500Y-115529612D01*
X151669653Y-115547202D01*
X151717887Y-115567513D01*
X151757451Y-115591967D01*
X151792594Y-115621984D01*
X151820835Y-115651460D01*
X151854338Y-115692531D01*
X151870827Y-115727846D01*
X151875983Y-115771357D01*
X151876170Y-115787292D01*
X151872298Y-115840169D01*
X151856819Y-115879507D01*
X151830031Y-115914424D01*
X151775587Y-115967798D01*
X151714876Y-116008502D01*
X151643388Y-116037864D01*
X151556610Y-116057211D01*
X151450032Y-116067870D01*
X151319143Y-116071169D01*
X151297531Y-116071113D01*
X151210248Y-116069304D01*
X151123687Y-116065193D01*
X151047284Y-116059370D01*
X150990476Y-116052425D01*
X150985882Y-116051628D01*
X150929401Y-116038248D01*
X150881494Y-116021346D01*
X150854373Y-116005895D01*
X150829135Y-115965130D01*
X150827377Y-115917662D01*
X150849134Y-115875359D01*
X150854002Y-115870576D01*
X150874124Y-115856363D01*
X150899288Y-115850240D01*
X150938233Y-115851282D01*
X150985511Y-115856698D01*
X151038341Y-115861537D01*
X151112398Y-115865619D01*
X151198855Y-115868582D01*
X151288883Y-115870061D01*
X151312561Y-115870158D01*
X151402924Y-115869794D01*
X151469057Y-115868040D01*
X151516779Y-115864287D01*
X151551908Y-115857927D01*
X151580264Y-115848351D01*
X151597305Y-115840375D01*
X151634750Y-115818229D01*
X151658625Y-115798172D01*
X151662114Y-115792487D01*
X151654753Y-115769009D01*
X151619759Y-115746281D01*
X151559558Y-115725334D01*
X151476575Y-115707200D01*
X151452126Y-115703161D01*
X151324424Y-115683103D01*
X151222506Y-115666338D01*
X151142440Y-115651647D01*
X151080292Y-115637812D01*
X151032128Y-115623615D01*
X150994014Y-115607837D01*
X150962016Y-115589260D01*
X150932202Y-115566666D01*
X150900636Y-115538837D01*
X150890014Y-115529080D01*
X150852773Y-115492666D01*
X150833059Y-115463816D01*
X150825347Y-115430802D01*
X150824099Y-115389199D01*
X150837831Y-115307615D01*
X150878868Y-115238298D01*
X150946976Y-115181472D01*
X151041919Y-115137361D01*
X151109662Y-115117576D01*
X151183287Y-115104797D01*
X151271485Y-115097568D01*
X151368870Y-115095479D01*
X151470058Y-115098121D01*
X151470058Y-115098121D01*
G37*
X151470058Y-115098121D02*
X151569663Y-115105084D01*
X151662302Y-115115959D01*
X151742588Y-115130338D01*
X151805138Y-115147810D01*
X151844565Y-115167966D01*
X151850617Y-115173899D01*
X151871662Y-115219939D01*
X151865280Y-115267204D01*
X151832639Y-115307642D01*
X151831082Y-115308801D01*
X151811883Y-115321261D01*
X151791841Y-115327813D01*
X151763886Y-115328608D01*
X151720947Y-115323800D01*
X151655955Y-115313539D01*
X151650727Y-115312675D01*
X151553885Y-115300778D01*
X151449402Y-115294909D01*
X151344611Y-115294852D01*
X151246844Y-115300391D01*
X151163434Y-115311309D01*
X151101713Y-115327389D01*
X151097658Y-115329005D01*
X151052882Y-115354093D01*
X151037150Y-115379482D01*
X151049466Y-115404451D01*
X151088831Y-115428280D01*
X151154248Y-115450246D01*
X151244720Y-115469630D01*
X151305046Y-115478962D01*
X151430446Y-115496913D01*
X151530181Y-115513323D01*
X151608500Y-115529612D01*
X151669653Y-115547202D01*
X151717887Y-115567513D01*
X151757451Y-115591967D01*
X151792594Y-115621984D01*
X151820835Y-115651460D01*
X151854338Y-115692531D01*
X151870827Y-115727846D01*
X151875983Y-115771357D01*
X151876170Y-115787292D01*
X151872298Y-115840169D01*
X151856819Y-115879507D01*
X151830031Y-115914424D01*
X151775587Y-115967798D01*
X151714876Y-116008502D01*
X151643388Y-116037864D01*
X151556610Y-116057211D01*
X151450032Y-116067870D01*
X151319143Y-116071169D01*
X151297531Y-116071113D01*
X151210248Y-116069304D01*
X151123687Y-116065193D01*
X151047284Y-116059370D01*
X150990476Y-116052425D01*
X150985882Y-116051628D01*
X150929401Y-116038248D01*
X150881494Y-116021346D01*
X150854373Y-116005895D01*
X150829135Y-115965130D01*
X150827377Y-115917662D01*
X150849134Y-115875359D01*
X150854002Y-115870576D01*
X150874124Y-115856363D01*
X150899288Y-115850240D01*
X150938233Y-115851282D01*
X150985511Y-115856698D01*
X151038341Y-115861537D01*
X151112398Y-115865619D01*
X151198855Y-115868582D01*
X151288883Y-115870061D01*
X151312561Y-115870158D01*
X151402924Y-115869794D01*
X151469057Y-115868040D01*
X151516779Y-115864287D01*
X151551908Y-115857927D01*
X151580264Y-115848351D01*
X151597305Y-115840375D01*
X151634750Y-115818229D01*
X151658625Y-115798172D01*
X151662114Y-115792487D01*
X151654753Y-115769009D01*
X151619759Y-115746281D01*
X151559558Y-115725334D01*
X151476575Y-115707200D01*
X151452126Y-115703161D01*
X151324424Y-115683103D01*
X151222506Y-115666338D01*
X151142440Y-115651647D01*
X151080292Y-115637812D01*
X151032128Y-115623615D01*
X150994014Y-115607837D01*
X150962016Y-115589260D01*
X150932202Y-115566666D01*
X150900636Y-115538837D01*
X150890014Y-115529080D01*
X150852773Y-115492666D01*
X150833059Y-115463816D01*
X150825347Y-115430802D01*
X150824099Y-115389199D01*
X150837831Y-115307615D01*
X150878868Y-115238298D01*
X150946976Y-115181472D01*
X151041919Y-115137361D01*
X151109662Y-115117576D01*
X151183287Y-115104797D01*
X151271485Y-115097568D01*
X151368870Y-115095479D01*
X151470058Y-115098121D01*
G36*
X150110616Y-115096516D02*
X150203024Y-115097012D01*
X150272773Y-115098165D01*
X150323563Y-115100244D01*
X150359095Y-115103515D01*
X150383068Y-115108247D01*
X150399182Y-115114707D01*
X150411137Y-115123163D01*
X150415467Y-115127055D01*
X150441795Y-115168404D01*
X150446535Y-115215916D01*
X150429216Y-115258095D01*
X150421207Y-115266620D01*
X150408254Y-115274885D01*
X150387398Y-115281261D01*
X150354770Y-115286059D01*
X150306504Y-115289588D01*
X150238732Y-115292158D01*
X150147586Y-115294081D01*
X150064255Y-115295251D01*
X149734454Y-115299310D01*
X149725440Y-115472150D01*
X149949304Y-115472150D01*
X150046492Y-115472989D01*
X150117643Y-115476496D01*
X150166755Y-115484159D01*
X150197829Y-115497467D01*
X150214862Y-115517905D01*
X150221854Y-115546963D01*
X150222916Y-115573931D01*
X150219616Y-115607021D01*
X150207163Y-115631404D01*
X150181726Y-115648353D01*
X150139475Y-115659143D01*
X150076580Y-115665048D01*
X149989211Y-115667341D01*
X149941525Y-115667535D01*
X149726940Y-115667535D01*
X149726940Y-115877949D01*
X150057591Y-115877949D01*
X150165976Y-115878100D01*
X150248349Y-115878778D01*
X150308757Y-115880320D01*
X150351247Y-115883063D01*
X150379865Y-115887345D01*
X150398658Y-115893503D01*
X150411672Y-115901873D01*
X150418301Y-115908008D01*
X150441039Y-115943813D01*
X150448360Y-115975641D01*
X150437907Y-116014518D01*
X150418301Y-116043274D01*
X150407841Y-116052327D01*
X150394338Y-116059357D01*
X150374160Y-116064618D01*
X150343675Y-116068365D01*
X150299251Y-116070854D01*
X150237255Y-116072339D01*
X150154055Y-116073075D01*
X150046019Y-116073318D01*
X149989957Y-116073334D01*
X149869902Y-116073227D01*
X149776272Y-116072739D01*
X149705437Y-116071613D01*
X149653765Y-116069595D01*
X149617623Y-116066430D01*
X149593378Y-116061863D01*
X149577399Y-116055640D01*
X149566053Y-116047504D01*
X149561614Y-116043274D01*
X149552829Y-116033160D01*
X149545942Y-116020112D01*
X149540725Y-116000634D01*
X149536947Y-115971228D01*
X149534376Y-115928398D01*
X149532782Y-115868648D01*
X149531935Y-115788481D01*
X149531604Y-115684401D01*
X149531555Y-115587492D01*
X149531600Y-115463387D01*
X149531912Y-115365830D01*
X149532758Y-115291310D01*
X149534404Y-115236315D01*
X149537117Y-115197334D01*
X149541163Y-115170857D01*
X149546809Y-115153370D01*
X149554320Y-115141364D01*
X149563964Y-115131327D01*
X149566340Y-115129090D01*
X149577871Y-115119183D01*
X149591268Y-115111512D01*
X149610250Y-115105790D01*
X149638531Y-115101732D01*
X149679828Y-115099052D01*
X149737858Y-115097466D01*
X149816337Y-115096688D01*
X149918980Y-115096432D01*
X149991850Y-115096410D01*
X150110616Y-115096516D01*
X150110616Y-115096516D01*
G37*
X150110616Y-115096516D02*
X150203024Y-115097012D01*
X150272773Y-115098165D01*
X150323563Y-115100244D01*
X150359095Y-115103515D01*
X150383068Y-115108247D01*
X150399182Y-115114707D01*
X150411137Y-115123163D01*
X150415467Y-115127055D01*
X150441795Y-115168404D01*
X150446535Y-115215916D01*
X150429216Y-115258095D01*
X150421207Y-115266620D01*
X150408254Y-115274885D01*
X150387398Y-115281261D01*
X150354770Y-115286059D01*
X150306504Y-115289588D01*
X150238732Y-115292158D01*
X150147586Y-115294081D01*
X150064255Y-115295251D01*
X149734454Y-115299310D01*
X149725440Y-115472150D01*
X149949304Y-115472150D01*
X150046492Y-115472989D01*
X150117643Y-115476496D01*
X150166755Y-115484159D01*
X150197829Y-115497467D01*
X150214862Y-115517905D01*
X150221854Y-115546963D01*
X150222916Y-115573931D01*
X150219616Y-115607021D01*
X150207163Y-115631404D01*
X150181726Y-115648353D01*
X150139475Y-115659143D01*
X150076580Y-115665048D01*
X149989211Y-115667341D01*
X149941525Y-115667535D01*
X149726940Y-115667535D01*
X149726940Y-115877949D01*
X150057591Y-115877949D01*
X150165976Y-115878100D01*
X150248349Y-115878778D01*
X150308757Y-115880320D01*
X150351247Y-115883063D01*
X150379865Y-115887345D01*
X150398658Y-115893503D01*
X150411672Y-115901873D01*
X150418301Y-115908008D01*
X150441039Y-115943813D01*
X150448360Y-115975641D01*
X150437907Y-116014518D01*
X150418301Y-116043274D01*
X150407841Y-116052327D01*
X150394338Y-116059357D01*
X150374160Y-116064618D01*
X150343675Y-116068365D01*
X150299251Y-116070854D01*
X150237255Y-116072339D01*
X150154055Y-116073075D01*
X150046019Y-116073318D01*
X149989957Y-116073334D01*
X149869902Y-116073227D01*
X149776272Y-116072739D01*
X149705437Y-116071613D01*
X149653765Y-116069595D01*
X149617623Y-116066430D01*
X149593378Y-116061863D01*
X149577399Y-116055640D01*
X149566053Y-116047504D01*
X149561614Y-116043274D01*
X149552829Y-116033160D01*
X149545942Y-116020112D01*
X149540725Y-116000634D01*
X149536947Y-115971228D01*
X149534376Y-115928398D01*
X149532782Y-115868648D01*
X149531935Y-115788481D01*
X149531604Y-115684401D01*
X149531555Y-115587492D01*
X149531600Y-115463387D01*
X149531912Y-115365830D01*
X149532758Y-115291310D01*
X149534404Y-115236315D01*
X149537117Y-115197334D01*
X149541163Y-115170857D01*
X149546809Y-115153370D01*
X149554320Y-115141364D01*
X149563964Y-115131327D01*
X149566340Y-115129090D01*
X149577871Y-115119183D01*
X149591268Y-115111512D01*
X149610250Y-115105790D01*
X149638531Y-115101732D01*
X149679828Y-115099052D01*
X149737858Y-115097466D01*
X149816337Y-115096688D01*
X149918980Y-115096432D01*
X149991850Y-115096410D01*
X150110616Y-115096516D01*
G36*
X148235292Y-115096409D02*
X148287857Y-115096944D01*
X148441881Y-115100660D01*
X148570875Y-115111699D01*
X148679237Y-115131246D01*
X148771362Y-115160483D01*
X148851647Y-115200597D01*
X148924488Y-115252769D01*
X148950505Y-115275433D01*
X148993663Y-115328462D01*
X149032579Y-115400421D01*
X149062573Y-115480184D01*
X149078965Y-115556625D01*
X149080668Y-115584872D01*
X149069995Y-115663174D01*
X149041393Y-115748705D01*
X148999989Y-115829663D01*
X148950905Y-115894246D01*
X148942933Y-115902038D01*
X148875400Y-115956808D01*
X148801448Y-115999563D01*
X148716812Y-116031423D01*
X148617229Y-116053508D01*
X148498434Y-116066938D01*
X148356166Y-116072834D01*
X148291000Y-116073334D01*
X148208145Y-116072935D01*
X148149877Y-116071266D01*
X148110730Y-116067622D01*
X148085237Y-116061293D01*
X148067932Y-116051574D01*
X148058656Y-116043274D01*
X148049894Y-116033192D01*
X148043021Y-116020185D01*
X148037808Y-116000769D01*
X148034027Y-115971460D01*
X148031449Y-115928773D01*
X148029846Y-115869225D01*
X148028989Y-115789330D01*
X148028649Y-115685605D01*
X148028597Y-115584872D01*
X148028266Y-115450519D01*
X148028338Y-115343192D01*
X148029616Y-115291795D01*
X148223981Y-115291795D01*
X148223981Y-115877949D01*
X148347975Y-115877835D01*
X148422585Y-115875696D01*
X148500728Y-115870183D01*
X148565926Y-115862472D01*
X148567910Y-115862155D01*
X148673283Y-115836678D01*
X148755014Y-115797000D01*
X148817184Y-115740538D01*
X148856686Y-115679406D01*
X148881026Y-115611593D01*
X148879139Y-115547919D01*
X148850891Y-115479665D01*
X148795638Y-115409056D01*
X148719073Y-115356735D01*
X148619551Y-115321763D01*
X148553039Y-115309386D01*
X148477539Y-115300694D01*
X148397521Y-115294404D01*
X148329462Y-115291788D01*
X148325431Y-115291776D01*
X148223981Y-115291795D01*
X148029616Y-115291795D01*
X148030410Y-115259881D01*
X148036085Y-115197579D01*
X148046959Y-115153275D01*
X148064632Y-115123960D01*
X148090703Y-115106625D01*
X148126771Y-115098261D01*
X148174434Y-115095859D01*
X148235292Y-115096409D01*
X148235292Y-115096409D01*
G37*
X148235292Y-115096409D02*
X148287857Y-115096944D01*
X148441881Y-115100660D01*
X148570875Y-115111699D01*
X148679237Y-115131246D01*
X148771362Y-115160483D01*
X148851647Y-115200597D01*
X148924488Y-115252769D01*
X148950505Y-115275433D01*
X148993663Y-115328462D01*
X149032579Y-115400421D01*
X149062573Y-115480184D01*
X149078965Y-115556625D01*
X149080668Y-115584872D01*
X149069995Y-115663174D01*
X149041393Y-115748705D01*
X148999989Y-115829663D01*
X148950905Y-115894246D01*
X148942933Y-115902038D01*
X148875400Y-115956808D01*
X148801448Y-115999563D01*
X148716812Y-116031423D01*
X148617229Y-116053508D01*
X148498434Y-116066938D01*
X148356166Y-116072834D01*
X148291000Y-116073334D01*
X148208145Y-116072935D01*
X148149877Y-116071266D01*
X148110730Y-116067622D01*
X148085237Y-116061293D01*
X148067932Y-116051574D01*
X148058656Y-116043274D01*
X148049894Y-116033192D01*
X148043021Y-116020185D01*
X148037808Y-116000769D01*
X148034027Y-115971460D01*
X148031449Y-115928773D01*
X148029846Y-115869225D01*
X148028989Y-115789330D01*
X148028649Y-115685605D01*
X148028597Y-115584872D01*
X148028266Y-115450519D01*
X148028338Y-115343192D01*
X148029616Y-115291795D01*
X148223981Y-115291795D01*
X148223981Y-115877949D01*
X148347975Y-115877835D01*
X148422585Y-115875696D01*
X148500728Y-115870183D01*
X148565926Y-115862472D01*
X148567910Y-115862155D01*
X148673283Y-115836678D01*
X148755014Y-115797000D01*
X148817184Y-115740538D01*
X148856686Y-115679406D01*
X148881026Y-115611593D01*
X148879139Y-115547919D01*
X148850891Y-115479665D01*
X148795638Y-115409056D01*
X148719073Y-115356735D01*
X148619551Y-115321763D01*
X148553039Y-115309386D01*
X148477539Y-115300694D01*
X148397521Y-115294404D01*
X148329462Y-115291788D01*
X148325431Y-115291776D01*
X148223981Y-115291795D01*
X148029616Y-115291795D01*
X148030410Y-115259881D01*
X148036085Y-115197579D01*
X148046959Y-115153275D01*
X148064632Y-115123960D01*
X148090703Y-115106625D01*
X148126771Y-115098261D01*
X148174434Y-115095859D01*
X148235292Y-115096409D01*
D12*
X150067143Y-76604762D02*
X150162381Y-76652381D01*
X150352857Y-76652381D01*
X150448096Y-76604762D01*
X150495715Y-76509524D01*
X150495715Y-76461905D01*
X150448096Y-76366667D01*
X150352857Y-76319048D01*
X150210000Y-76319048D01*
X150114762Y-76271429D01*
X150067143Y-76176190D01*
X150067143Y-76128571D01*
X150114762Y-76033333D01*
X150210000Y-75985714D01*
X150352857Y-75985714D01*
X150448096Y-76033333D01*
X151352858Y-76604762D02*
X151257620Y-76652381D01*
X151067143Y-76652381D01*
X150971905Y-76604762D01*
X150924286Y-76557143D01*
X150876667Y-76461905D01*
X150876667Y-76176190D01*
X150924286Y-76080952D01*
X150971905Y-76033333D01*
X151067143Y-75985714D01*
X151257620Y-75985714D01*
X151352858Y-76033333D01*
X151733810Y-76604762D02*
X151829048Y-76652381D01*
X152019524Y-76652381D01*
X152114763Y-76604762D01*
X152162382Y-76509524D01*
X152162382Y-76461905D01*
X152114763Y-76366667D01*
X152019524Y-76319048D01*
X151876667Y-76319048D01*
X151781429Y-76271429D01*
X151733810Y-76176190D01*
X151733810Y-76128571D01*
X151781429Y-76033333D01*
X151876667Y-75985714D01*
X152019524Y-75985714D01*
X152114763Y-76033333D01*
X152590953Y-76652381D02*
X152590953Y-75985714D01*
X152590953Y-75652381D02*
X152543334Y-75700000D01*
X152590953Y-75747619D01*
X152638572Y-75700000D01*
X152590953Y-75652381D01*
X152590953Y-75747619D01*
X153067143Y-76557143D02*
X153114762Y-76604762D01*
X153067143Y-76652381D01*
X153019524Y-76604762D01*
X153067143Y-76557143D01*
X153067143Y-76652381D01*
X153971905Y-76652381D02*
X153971905Y-75652381D01*
X153971905Y-76604762D02*
X153876667Y-76652381D01*
X153686190Y-76652381D01*
X153590952Y-76604762D01*
X153543333Y-76557143D01*
X153495714Y-76461905D01*
X153495714Y-76176190D01*
X153543333Y-76080952D01*
X153590952Y-76033333D01*
X153686190Y-75985714D01*
X153876667Y-75985714D01*
X153971905Y-76033333D01*
X154829048Y-76604762D02*
X154733810Y-76652381D01*
X154543333Y-76652381D01*
X154448095Y-76604762D01*
X154400476Y-76509524D01*
X154400476Y-76128571D01*
X154448095Y-76033333D01*
X154543333Y-75985714D01*
X154733810Y-75985714D01*
X154829048Y-76033333D01*
X154876667Y-76128571D01*
X154876667Y-76223810D01*
X154400476Y-76319048D01*
X155210000Y-75985714D02*
X155448095Y-76652381D01*
X155686191Y-75985714D01*
X156067143Y-76652381D02*
X156067143Y-75985714D01*
X156067143Y-75652381D02*
X156019524Y-75700000D01*
X156067143Y-75747619D01*
X156114762Y-75700000D01*
X156067143Y-75652381D01*
X156067143Y-75747619D01*
X156971905Y-76604762D02*
X156876667Y-76652381D01*
X156686190Y-76652381D01*
X156590952Y-76604762D01*
X156543333Y-76557143D01*
X156495714Y-76461905D01*
X156495714Y-76176190D01*
X156543333Y-76080952D01*
X156590952Y-76033333D01*
X156686190Y-75985714D01*
X156876667Y-75985714D01*
X156971905Y-76033333D01*
X157781429Y-76604762D02*
X157686191Y-76652381D01*
X157495714Y-76652381D01*
X157400476Y-76604762D01*
X157352857Y-76509524D01*
X157352857Y-76128571D01*
X157400476Y-76033333D01*
X157495714Y-75985714D01*
X157686191Y-75985714D01*
X157781429Y-76033333D01*
X157829048Y-76128571D01*
X157829048Y-76223810D01*
X157352857Y-76319048D01*
X158257619Y-76557143D02*
X158305238Y-76604762D01*
X158257619Y-76652381D01*
X158210000Y-76604762D01*
X158257619Y-76557143D01*
X158257619Y-76652381D01*
X158733809Y-76652381D02*
X158733809Y-75652381D01*
X158733809Y-76033333D02*
X158829047Y-75985714D01*
X159019524Y-75985714D01*
X159114762Y-76033333D01*
X159162381Y-76080952D01*
X159210000Y-76176190D01*
X159210000Y-76461905D01*
X159162381Y-76557143D01*
X159114762Y-76604762D01*
X159019524Y-76652381D01*
X158829047Y-76652381D01*
X158733809Y-76604762D01*
X160067143Y-75985714D02*
X160067143Y-76652381D01*
X159638571Y-75985714D02*
X159638571Y-76509524D01*
X159686190Y-76604762D01*
X159781428Y-76652381D01*
X159924286Y-76652381D01*
X160019524Y-76604762D01*
X160067143Y-76557143D01*
X160495714Y-76604762D02*
X160590952Y-76652381D01*
X160781428Y-76652381D01*
X160876667Y-76604762D01*
X160924286Y-76509524D01*
X160924286Y-76461905D01*
X160876667Y-76366667D01*
X160781428Y-76319048D01*
X160638571Y-76319048D01*
X160543333Y-76271429D01*
X160495714Y-76176190D01*
X160495714Y-76128571D01*
X160543333Y-76033333D01*
X160638571Y-75985714D01*
X160781428Y-75985714D01*
X160876667Y-76033333D01*
X161352857Y-76557143D02*
X161400476Y-76604762D01*
X161352857Y-76652381D01*
X161305238Y-76604762D01*
X161352857Y-76557143D01*
X161352857Y-76652381D01*
X161781428Y-75747619D02*
X161829047Y-75700000D01*
X161924285Y-75652381D01*
X162162381Y-75652381D01*
X162257619Y-75700000D01*
X162305238Y-75747619D01*
X162352857Y-75842857D01*
X162352857Y-75938095D01*
X162305238Y-76080952D01*
X161733809Y-76652381D01*
X162352857Y-76652381D01*
X146320952Y-128436667D02*
X146797143Y-128436667D01*
X146225714Y-128722381D02*
X146559047Y-127722381D01*
X146892381Y-128722381D01*
X147225714Y-128722381D02*
X147225714Y-127722381D01*
X147559048Y-128436667D01*
X147892381Y-127722381D01*
X147892381Y-128722381D01*
X148368571Y-128722381D02*
X148368571Y-127722381D01*
X149368571Y-127770000D02*
X149273333Y-127722381D01*
X149130476Y-127722381D01*
X148987618Y-127770000D01*
X148892380Y-127865238D01*
X148844761Y-127960476D01*
X148797142Y-128150952D01*
X148797142Y-128293810D01*
X148844761Y-128484286D01*
X148892380Y-128579524D01*
X148987618Y-128674762D01*
X149130476Y-128722381D01*
X149225714Y-128722381D01*
X149368571Y-128674762D01*
X149416190Y-128627143D01*
X149416190Y-128293810D01*
X149225714Y-128293810D01*
X149797142Y-128436667D02*
X150273333Y-128436667D01*
X149701904Y-128722381D02*
X150035237Y-127722381D01*
X150368571Y-128722381D01*
X150463809Y-128817619D02*
X151225714Y-128817619D01*
X151463809Y-128722381D02*
X151463809Y-127722381D01*
X151797143Y-128436667D01*
X152130476Y-127722381D01*
X152130476Y-128722381D01*
X152797142Y-127722381D02*
X152987619Y-127722381D01*
X153082857Y-127770000D01*
X153178095Y-127865238D01*
X153225714Y-128055714D01*
X153225714Y-128389048D01*
X153178095Y-128579524D01*
X153082857Y-128674762D01*
X152987619Y-128722381D01*
X152797142Y-128722381D01*
X152701904Y-128674762D01*
X152606666Y-128579524D01*
X152559047Y-128389048D01*
X152559047Y-128055714D01*
X152606666Y-127865238D01*
X152701904Y-127770000D01*
X152797142Y-127722381D01*
X153511428Y-127722381D02*
X154082857Y-127722381D01*
X153797142Y-128722381D02*
X153797142Y-127722381D01*
X154416190Y-128722381D02*
X154416190Y-127722381D01*
X154416190Y-128198571D02*
X154987619Y-128198571D01*
X154987619Y-128722381D02*
X154987619Y-127722381D01*
X155463809Y-128198571D02*
X155797143Y-128198571D01*
X155940000Y-128722381D02*
X155463809Y-128722381D01*
X155463809Y-127722381D01*
X155940000Y-127722381D01*
X156940000Y-128722381D02*
X156606666Y-128246190D01*
X156368571Y-128722381D02*
X156368571Y-127722381D01*
X156749524Y-127722381D01*
X156844762Y-127770000D01*
X156892381Y-127817619D01*
X156940000Y-127912857D01*
X156940000Y-128055714D01*
X156892381Y-128150952D01*
X156844762Y-128198571D01*
X156749524Y-128246190D01*
X156368571Y-128246190D01*
X157701905Y-128198571D02*
X157844762Y-128246190D01*
X157892381Y-128293810D01*
X157940000Y-128389048D01*
X157940000Y-128531905D01*
X157892381Y-128627143D01*
X157844762Y-128674762D01*
X157749524Y-128722381D01*
X157368571Y-128722381D01*
X157368571Y-127722381D01*
X157701905Y-127722381D01*
X157797143Y-127770000D01*
X157844762Y-127817619D01*
X157892381Y-127912857D01*
X157892381Y-128008095D01*
X157844762Y-128103333D01*
X157797143Y-128150952D01*
X157701905Y-128198571D01*
X157368571Y-128198571D01*
X158559047Y-127722381D02*
X158749524Y-127722381D01*
X158844762Y-127770000D01*
X158940000Y-127865238D01*
X158987619Y-128055714D01*
X158987619Y-128389048D01*
X158940000Y-128579524D01*
X158844762Y-128674762D01*
X158749524Y-128722381D01*
X158559047Y-128722381D01*
X158463809Y-128674762D01*
X158368571Y-128579524D01*
X158320952Y-128389048D01*
X158320952Y-128055714D01*
X158368571Y-127865238D01*
X158463809Y-127770000D01*
X158559047Y-127722381D01*
X159368571Y-128436667D02*
X159844762Y-128436667D01*
X159273333Y-128722381D02*
X159606666Y-127722381D01*
X159940000Y-128722381D01*
X160844762Y-128722381D02*
X160511428Y-128246190D01*
X160273333Y-128722381D02*
X160273333Y-127722381D01*
X160654286Y-127722381D01*
X160749524Y-127770000D01*
X160797143Y-127817619D01*
X160844762Y-127912857D01*
X160844762Y-128055714D01*
X160797143Y-128150952D01*
X160749524Y-128198571D01*
X160654286Y-128246190D01*
X160273333Y-128246190D01*
X161273333Y-128722381D02*
X161273333Y-127722381D01*
X161511428Y-127722381D01*
X161654286Y-127770000D01*
X161749524Y-127865238D01*
X161797143Y-127960476D01*
X161844762Y-128150952D01*
X161844762Y-128293810D01*
X161797143Y-128484286D01*
X161749524Y-128579524D01*
X161654286Y-128674762D01*
X161511428Y-128722381D01*
X161273333Y-128722381D01*
X162035238Y-128817619D02*
X162797143Y-128817619D01*
X163559048Y-128722381D02*
X162987619Y-128722381D01*
X163273333Y-128722381D02*
X163273333Y-127722381D01*
X163178095Y-127865238D01*
X163082857Y-127960476D01*
X162987619Y-128008095D01*
X168456000Y-128374000D02*
X168456000Y-128840667D01*
X168289333Y-128107333D02*
X168122666Y-128607333D01*
X168556000Y-128607333D01*
X168756000Y-128140667D02*
X169189333Y-128140667D01*
X168956000Y-128407333D01*
X169056000Y-128407333D01*
X169122667Y-128440667D01*
X169156000Y-128474000D01*
X169189333Y-128540667D01*
X169189333Y-128707333D01*
X169156000Y-128774000D01*
X169122667Y-128807333D01*
X169056000Y-128840667D01*
X168856000Y-128840667D01*
X168789333Y-128807333D01*
X168756000Y-128774000D01*
X142440000Y-128878767D02*
X142040000Y-128878767D01*
X142240000Y-128878767D02*
X142240000Y-128178767D01*
X142173334Y-128278767D01*
X142106667Y-128345433D01*
X142040000Y-128378767D01*
X184856667Y-103766667D02*
X185332858Y-103766667D01*
X184761429Y-104052381D02*
X185094762Y-103052381D01*
X185428096Y-104052381D01*
X186332858Y-103957143D02*
X186285239Y-104004762D01*
X186142382Y-104052381D01*
X186047144Y-104052381D01*
X185904286Y-104004762D01*
X185809048Y-103909524D01*
X185761429Y-103814286D01*
X185713810Y-103623810D01*
X185713810Y-103480952D01*
X185761429Y-103290476D01*
X185809048Y-103195238D01*
X185904286Y-103100000D01*
X186047144Y-103052381D01*
X186142382Y-103052381D01*
X186285239Y-103100000D01*
X186332858Y-103147619D01*
X186618572Y-103052381D02*
X187190001Y-103052381D01*
X186904286Y-104052381D02*
X186904286Y-103052381D01*
X187523334Y-103957143D02*
X187570953Y-104004762D01*
X187523334Y-104052381D01*
X187475715Y-104004762D01*
X187523334Y-103957143D01*
X187523334Y-104052381D01*
X188523334Y-104052381D02*
X187951905Y-104052381D01*
X188237619Y-104052381D02*
X188237619Y-103052381D01*
X188142381Y-103195238D01*
X188047143Y-103290476D01*
X187951905Y-103338095D01*
X186126667Y-79636667D02*
X186602858Y-79636667D01*
X186031429Y-79922381D02*
X186364762Y-78922381D01*
X186698096Y-79922381D01*
X187602858Y-79827143D02*
X187555239Y-79874762D01*
X187412382Y-79922381D01*
X187317144Y-79922381D01*
X187174286Y-79874762D01*
X187079048Y-79779524D01*
X187031429Y-79684286D01*
X186983810Y-79493810D01*
X186983810Y-79350952D01*
X187031429Y-79160476D01*
X187079048Y-79065238D01*
X187174286Y-78970000D01*
X187317144Y-78922381D01*
X187412382Y-78922381D01*
X187555239Y-78970000D01*
X187602858Y-79017619D01*
X187888572Y-78922381D02*
X188460001Y-78922381D01*
X188174286Y-79922381D02*
X188174286Y-78922381D01*
X188793334Y-79827143D02*
X188840953Y-79874762D01*
X188793334Y-79922381D01*
X188745715Y-79874762D01*
X188793334Y-79827143D01*
X188793334Y-79922381D01*
X189221905Y-79017619D02*
X189269524Y-78970000D01*
X189364762Y-78922381D01*
X189602858Y-78922381D01*
X189698096Y-78970000D01*
X189745715Y-79017619D01*
X189793334Y-79112857D01*
X189793334Y-79208095D01*
X189745715Y-79350952D01*
X189174286Y-79922381D01*
X189793334Y-79922381D01*
X180173334Y-104052381D02*
X179840000Y-103576190D01*
X179601905Y-104052381D02*
X179601905Y-103052381D01*
X179982858Y-103052381D01*
X180078096Y-103100000D01*
X180125715Y-103147619D01*
X180173334Y-103242857D01*
X180173334Y-103385714D01*
X180125715Y-103480952D01*
X180078096Y-103528571D01*
X179982858Y-103576190D01*
X179601905Y-103576190D01*
X181125715Y-104052381D02*
X180554286Y-104052381D01*
X180840000Y-104052381D02*
X180840000Y-103052381D01*
X180744762Y-103195238D01*
X180649524Y-103290476D01*
X180554286Y-103338095D01*
X181443334Y-79922381D02*
X181110000Y-79446190D01*
X180871905Y-79922381D02*
X180871905Y-78922381D01*
X181252858Y-78922381D01*
X181348096Y-78970000D01*
X181395715Y-79017619D01*
X181443334Y-79112857D01*
X181443334Y-79255714D01*
X181395715Y-79350952D01*
X181348096Y-79398571D01*
X181252858Y-79446190D01*
X180871905Y-79446190D01*
X181824286Y-79017619D02*
X181871905Y-78970000D01*
X181967143Y-78922381D01*
X182205239Y-78922381D01*
X182300477Y-78970000D01*
X182348096Y-79017619D01*
X182395715Y-79112857D01*
X182395715Y-79208095D01*
X182348096Y-79350952D01*
X181776667Y-79922381D01*
X182395715Y-79922381D01*
X150067143Y-100734762D02*
X150162381Y-100782381D01*
X150352857Y-100782381D01*
X150448096Y-100734762D01*
X150495715Y-100639524D01*
X150495715Y-100591905D01*
X150448096Y-100496667D01*
X150352857Y-100449048D01*
X150210000Y-100449048D01*
X150114762Y-100401429D01*
X150067143Y-100306190D01*
X150067143Y-100258571D01*
X150114762Y-100163333D01*
X150210000Y-100115714D01*
X150352857Y-100115714D01*
X150448096Y-100163333D01*
X151352858Y-100734762D02*
X151257620Y-100782381D01*
X151067143Y-100782381D01*
X150971905Y-100734762D01*
X150924286Y-100687143D01*
X150876667Y-100591905D01*
X150876667Y-100306190D01*
X150924286Y-100210952D01*
X150971905Y-100163333D01*
X151067143Y-100115714D01*
X151257620Y-100115714D01*
X151352858Y-100163333D01*
X151733810Y-100734762D02*
X151829048Y-100782381D01*
X152019524Y-100782381D01*
X152114763Y-100734762D01*
X152162382Y-100639524D01*
X152162382Y-100591905D01*
X152114763Y-100496667D01*
X152019524Y-100449048D01*
X151876667Y-100449048D01*
X151781429Y-100401429D01*
X151733810Y-100306190D01*
X151733810Y-100258571D01*
X151781429Y-100163333D01*
X151876667Y-100115714D01*
X152019524Y-100115714D01*
X152114763Y-100163333D01*
X152590953Y-100782381D02*
X152590953Y-100115714D01*
X152590953Y-99782381D02*
X152543334Y-99830000D01*
X152590953Y-99877619D01*
X152638572Y-99830000D01*
X152590953Y-99782381D01*
X152590953Y-99877619D01*
X153067143Y-100687143D02*
X153114762Y-100734762D01*
X153067143Y-100782381D01*
X153019524Y-100734762D01*
X153067143Y-100687143D01*
X153067143Y-100782381D01*
X153971905Y-100782381D02*
X153971905Y-99782381D01*
X153971905Y-100734762D02*
X153876667Y-100782381D01*
X153686190Y-100782381D01*
X153590952Y-100734762D01*
X153543333Y-100687143D01*
X153495714Y-100591905D01*
X153495714Y-100306190D01*
X153543333Y-100210952D01*
X153590952Y-100163333D01*
X153686190Y-100115714D01*
X153876667Y-100115714D01*
X153971905Y-100163333D01*
X154829048Y-100734762D02*
X154733810Y-100782381D01*
X154543333Y-100782381D01*
X154448095Y-100734762D01*
X154400476Y-100639524D01*
X154400476Y-100258571D01*
X154448095Y-100163333D01*
X154543333Y-100115714D01*
X154733810Y-100115714D01*
X154829048Y-100163333D01*
X154876667Y-100258571D01*
X154876667Y-100353810D01*
X154400476Y-100449048D01*
X155210000Y-100115714D02*
X155448095Y-100782381D01*
X155686191Y-100115714D01*
X156067143Y-100782381D02*
X156067143Y-100115714D01*
X156067143Y-99782381D02*
X156019524Y-99830000D01*
X156067143Y-99877619D01*
X156114762Y-99830000D01*
X156067143Y-99782381D01*
X156067143Y-99877619D01*
X156971905Y-100734762D02*
X156876667Y-100782381D01*
X156686190Y-100782381D01*
X156590952Y-100734762D01*
X156543333Y-100687143D01*
X156495714Y-100591905D01*
X156495714Y-100306190D01*
X156543333Y-100210952D01*
X156590952Y-100163333D01*
X156686190Y-100115714D01*
X156876667Y-100115714D01*
X156971905Y-100163333D01*
X157781429Y-100734762D02*
X157686191Y-100782381D01*
X157495714Y-100782381D01*
X157400476Y-100734762D01*
X157352857Y-100639524D01*
X157352857Y-100258571D01*
X157400476Y-100163333D01*
X157495714Y-100115714D01*
X157686191Y-100115714D01*
X157781429Y-100163333D01*
X157829048Y-100258571D01*
X157829048Y-100353810D01*
X157352857Y-100449048D01*
X158257619Y-100687143D02*
X158305238Y-100734762D01*
X158257619Y-100782381D01*
X158210000Y-100734762D01*
X158257619Y-100687143D01*
X158257619Y-100782381D01*
X158733809Y-100782381D02*
X158733809Y-99782381D01*
X158733809Y-100163333D02*
X158829047Y-100115714D01*
X159019524Y-100115714D01*
X159114762Y-100163333D01*
X159162381Y-100210952D01*
X159210000Y-100306190D01*
X159210000Y-100591905D01*
X159162381Y-100687143D01*
X159114762Y-100734762D01*
X159019524Y-100782381D01*
X158829047Y-100782381D01*
X158733809Y-100734762D01*
X160067143Y-100115714D02*
X160067143Y-100782381D01*
X159638571Y-100115714D02*
X159638571Y-100639524D01*
X159686190Y-100734762D01*
X159781428Y-100782381D01*
X159924286Y-100782381D01*
X160019524Y-100734762D01*
X160067143Y-100687143D01*
X160495714Y-100734762D02*
X160590952Y-100782381D01*
X160781428Y-100782381D01*
X160876667Y-100734762D01*
X160924286Y-100639524D01*
X160924286Y-100591905D01*
X160876667Y-100496667D01*
X160781428Y-100449048D01*
X160638571Y-100449048D01*
X160543333Y-100401429D01*
X160495714Y-100306190D01*
X160495714Y-100258571D01*
X160543333Y-100163333D01*
X160638571Y-100115714D01*
X160781428Y-100115714D01*
X160876667Y-100163333D01*
X161352857Y-100687143D02*
X161400476Y-100734762D01*
X161352857Y-100782381D01*
X161305238Y-100734762D01*
X161352857Y-100687143D01*
X161352857Y-100782381D01*
X162352857Y-100782381D02*
X161781428Y-100782381D01*
X162067142Y-100782381D02*
X162067142Y-99782381D01*
X161971904Y-99925238D01*
X161876666Y-100020476D01*
X161781428Y-100068095D01*
X171981905Y-76342381D02*
X171981905Y-75342381D01*
X172220000Y-75342381D01*
X172362858Y-75390000D01*
X172458096Y-75485238D01*
X172505715Y-75580476D01*
X172553334Y-75770952D01*
X172553334Y-75913810D01*
X172505715Y-76104286D01*
X172458096Y-76199524D01*
X172362858Y-76294762D01*
X172220000Y-76342381D01*
X171981905Y-76342381D01*
X172934286Y-75437619D02*
X172981905Y-75390000D01*
X173077143Y-75342381D01*
X173315239Y-75342381D01*
X173410477Y-75390000D01*
X173458096Y-75437619D01*
X173505715Y-75532857D01*
X173505715Y-75628095D01*
X173458096Y-75770952D01*
X172886667Y-76342381D01*
X173505715Y-76342381D01*
X169156095Y-81224381D02*
X169156095Y-80224381D01*
X169727524Y-81224381D02*
X169298952Y-80652952D01*
X169727524Y-80224381D02*
X169156095Y-80795810D01*
X176037905Y-80938667D02*
X176514096Y-80938667D01*
X175942667Y-81224381D02*
X176276000Y-80224381D01*
X176609334Y-81224381D01*
X170711905Y-100472381D02*
X170711905Y-99472381D01*
X170950000Y-99472381D01*
X171092858Y-99520000D01*
X171188096Y-99615238D01*
X171235715Y-99710476D01*
X171283334Y-99900952D01*
X171283334Y-100043810D01*
X171235715Y-100234286D01*
X171188096Y-100329524D01*
X171092858Y-100424762D01*
X170950000Y-100472381D01*
X170711905Y-100472381D01*
X172235715Y-100472381D02*
X171664286Y-100472381D01*
X171950000Y-100472381D02*
X171950000Y-99472381D01*
X171854762Y-99615238D01*
X171759524Y-99710476D01*
X171664286Y-99758095D01*
X167938095Y-106222381D02*
X167938095Y-105222381D01*
X168509524Y-106222381D02*
X168080952Y-105650952D01*
X168509524Y-105222381D02*
X167938095Y-105793810D01*
X174261905Y-105886667D02*
X174738096Y-105886667D01*
X174166667Y-106172381D02*
X174500000Y-105172381D01*
X174833334Y-106172381D01*
M02*
